<svg xmlns="http://www.w3.org/2000/svg" viewBox="0 0 820 947" width="100%" preserveAspectRatio="xMidYMid meet" role="img" aria-label="Portfolio">
<title>Portfolio</title>
<g transform="translate(0, 0) scale(0.683333)">
<defs>
    <!-- Background gradient - deep space theme -->
    <linearGradient id="bgGrad" x1="0%" y1="0%" x2="100%" y2="100%">
      <stop offset="0%" stop-color="#020617"/>
      <stop offset="50%" stop-color="#0f172a"/>
      <stop offset="100%" stop-color="#1e293b"/>
    </linearGradient>

    <!-- Logo gradient with Azure blue -->
    <linearGradient id="logoGrad" x1="0%" y1="0%" x2="100%" y2="100%">
      <stop offset="0%" stop-color="#00bcf2"/>
      <stop offset="50%" stop-color="#0078d4"/>
      <stop offset="100%" stop-color="#005a9e"/>
    </linearGradient>

    <!-- Name gradient -->
    <linearGradient id="nameGrad" x1="0%" y1="0%" x2="100%" y2="0%">
      <stop offset="0%" stop-color="#f8fafc"/>
      <stop offset="50%" stop-color="#e2e8f0"/>
      <stop offset="100%" stop-color="#f8fafc"/>
    </linearGradient>

    <!-- Accent text gradient -->
    <linearGradient id="accentTextGrad" x1="0%" y1="0%" x2="100%" y2="0%">
      <stop offset="0%" stop-color="#00bcf2"/>
      <stop offset="50%" stop-color="#0078d4"/>
      <stop offset="100%" stop-color="#00bcf2"/>
    </linearGradient>

    <!-- Glow filter -->
    <filter id="glow" x="-50%" y="-50%" width="200%" height="200%">
      <feGaussianBlur stdDeviation="3" result="coloredBlur"/>
      <feMerge>
        <feMergeNode in="coloredBlur"/>
        <feMergeNode in="SourceGraphic"/>
      </feMerge>
    </filter>

    <!-- Strong glow for logo -->
    <filter id="logoGlow" x="-100%" y="-100%" width="300%" height="300%">
      <feGaussianBlur stdDeviation="6" result="blur1"/>
      <feGaussianBlur stdDeviation="12" result="blur2"/>
      <feMerge>
        <feMergeNode in="blur2"/>
        <feMergeNode in="blur1"/>
        <feMergeNode in="SourceGraphic"/>
      </feMerge>
    </filter>

    <!-- Radial glow behind logo -->
    <radialGradient id="logoBackGlow" cx="50%" cy="50%" r="50%">
      <stop offset="0%" stop-color="#0078d4" stop-opacity="0.4"/>
      <stop offset="50%" stop-color="#0078d4" stop-opacity="0.1"/>
      <stop offset="100%" stop-color="#0078d4" stop-opacity="0"/>
    </radialGradient>

    <!-- Grid pattern -->
    <pattern id="grid" width="50" height="50" patternUnits="userSpaceOnUse">
      <path d="M 50 0 L 0 0 0 50" fill="none" stroke="#1e3a5f" stroke-width="0.5" opacity="0.4"/>
    </pattern>

    <!-- Dot pattern -->
    <pattern id="dots" width="30" height="30" patternUnits="userSpaceOnUse">
      <circle cx="15" cy="15" r="1" fill="#0078d4" opacity="0.2"/>
    </pattern>

    <!-- Gradient for accent line -->
    <linearGradient id="accentGrad" x1="0%" y1="0%" x2="100%" y2="0%">
      <stop offset="0%" stop-color="#005a9e"/>
      <stop offset="25%" stop-color="#0078d4"/>
      <stop offset="50%" stop-color="#00bcf2"/>
      <stop offset="75%" stop-color="#0078d4"/>
      <stop offset="100%" stop-color="#005a9e"/>
    </linearGradient>

    <!-- Neural network gradient -->
    <linearGradient id="neuralGrad" x1="0%" y1="0%" x2="100%" y2="100%">
      <stop offset="0%" stop-color="#7c3aed"/>
      <stop offset="50%" stop-color="#0078d4"/>
      <stop offset="100%" stop-color="#00bcf2"/>
    </linearGradient>
  </defs>

  <!-- Background -->
  <rect width="1200" height="300" fill="url(#bgGrad)"/>

  <!-- Grid overlay -->
  <rect width="1200" height="300" fill="url(#grid)"/>

  <!-- Dot pattern overlay -->
  <rect width="1200" height="300" fill="url(#dots)" opacity="0.5"/>

  <!-- Large decorative orbs -->
  <circle cx="150" cy="150" r="180" fill="url(#logoBackGlow)"/>
  <circle cx="1050" cy="80" r="150" fill="#0078d4" opacity="0.05"/>
  <circle cx="1150" cy="280" r="180" fill="#00bcf2" opacity="0.03"/>
  <circle cx="50" cy="250" r="100" fill="#7c3aed" opacity="0.06"/>

  <!-- Neural network nodes - cognitive theme -->
  <g opacity="0.4">
    <!-- Left side neural cluster -->
    <circle cx="80" cy="60" r="4" fill="#7c3aed"/>
    <circle cx="120" cy="40" r="3" fill="#0078d4"/>
    <circle cx="60" cy="100" r="3" fill="#00bcf2"/>
    <circle cx="140" cy="90" r="2" fill="#7c3aed"/>
    <line x1="80" y1="60" x2="120" y2="40" stroke="#7c3aed" stroke-width="1"/>
    <line x1="80" y1="60" x2="60" y2="100" stroke="#0078d4" stroke-width="1"/>
    <line x1="120" y1="40" x2="140" y2="90" stroke="#00bcf2" stroke-width="0.5"/>

    <!-- Right side neural cluster -->
    <circle cx="1100" cy="70" r="3" fill="#00bcf2"/>
    <circle cx="1140" cy="50" r="2" fill="#0078d4"/>
    <circle cx="1080" cy="100" r="4" fill="#7c3aed"/>
    <circle cx="1120" cy="120" r="2" fill="#0078d4"/>
    <line x1="1100" y1="70" x2="1140" y2="50" stroke="#00bcf2" stroke-width="0.5"/>
    <line x1="1100" y1="70" x2="1080" y2="100" stroke="#7c3aed" stroke-width="1"/>
    <line x1="1080" y1="100" x2="1120" y2="120" stroke="#0078d4" stroke-width="0.5"/>
  </g>

  <!-- Floating particles -->
  <circle cx="300" cy="30" r="1.5" fill="#0078d4" opacity="0.5"/>
  <circle cx="500" cy="50" r="2" fill="#00bcf2" opacity="0.4"/>
  <circle cx="750" cy="25" r="1" fill="#7c3aed" opacity="0.6"/>
  <circle cx="950" cy="45" r="2.5" fill="#00bcf2" opacity="0.3"/>
  <circle cx="400" cy="270" r="2" fill="#00bcf2" opacity="0.4"/>
  <circle cx="700" cy="260" r="1.5" fill="#0078d4" opacity="0.5"/>
  <circle cx="900" cy="275" r="2" fill="#7c3aed" opacity="0.3"/>
  <circle cx="1050" cy="250" r="1" fill="#0078d4" opacity="0.6"/>

  <!-- Logo glow backdrop -->
  <ellipse cx="150" cy="150" rx="120" ry="110" fill="url(#logoBackGlow)"/>

  <!-- Logo mark (scaled) with glow -->
  <g transform="translate(55, 58) scale(6)" filter="url(#logoGlow)">
    <path d="M16 2C8.268 2 2 8.268 2 16s6.268 14 14 14c3.866 0 7.389-1.568 9.928-4.1l-3.535-3.536A9.002 9.002 0 0116 25c-4.97 0-9-4.03-9-9s4.03-9 9-9c2.29 0 4.38.857 5.971 2.268l3.464-3.639C22.993 3.352 19.66 2 16 2z" fill="url(#logoGrad)"/>
    <path d="M20 10l-4 6 4 6h4l-4-6 4-6h-4z" fill="url(#logoGrad)"/>
    <path d="M24 10l4 6-4 6h4l4-6-4-6h-4z" fill="url(#logoGrad)" opacity="0.6"/>
  </g>

  <text x="320" y="54" font-family="Segoe UI, system-ui, sans-serif" font-size="13" font-weight="600" fill="#94a3b8" letter-spacing="3">AUTOMATIC REPOSITORY PORTFOLIO FOR</text>
  <!-- Main name -->
  <text x="320" y="135" font-family="Segoe UI, system-ui, sans-serif" font-size="74" font-weight="700" fill="url(#nameGrad)" filter="url(#glow)">Dr. Fabio Correa, DBA</text>

  <!-- Title line -->
  <text x="320" y="180" font-family="Segoe UI, system-ui, sans-serif" font-size="22" fill="#94a3b8" letter-spacing="1" textLength="800" lengthAdjust="spacingAndGlyphs">Building AI-powered solutions for organizational learning, cognitive architecture, and human-AI collaboration.</text>

  <!-- Tagline with accent -->
  <text x="320" y="220" font-family="Segoe UI, system-ui, sans-serif" font-size="18" fill="url(#accentTextGrad)" letter-spacing="1.5">THINK • BUILD • DEPLOY</text>

  <!-- Decorative accent line -->
  <line x1="320" y1="240" x2="850" y2="240" stroke="#334155" stroke-width="1"/>
  <line x1="320" y1="243" x2="600" y2="243" stroke="url(#accentGrad)" stroke-width="2" opacity="0.6"/>

  <!-- CorreaX branding badge -->
  <g transform="translate(320, 255)" font-family="Segoe UI, system-ui, sans-serif" font-size="12" fill="#94a3b8"><text letter-spacing="1">UPDATED</text><text x="70" font-weight="700">May 29 2026 07:05 EDT</text></g>

  <!-- Tech circuit decorations on right -->
  <g opacity="0.25">
    <path d="M1000 140 h80 v40 h40" stroke="#0078d4" stroke-width="1.5" fill="none"/>
    <circle cx="1000" cy="140" r="3" fill="#0078d4"/>
    <circle cx="1120" cy="180" r="4" fill="#00bcf2"/>
    <path d="M1020 200 h60 v-25 h30" stroke="#7c3aed" stroke-width="1" fill="none"/>
    <circle cx="1020" cy="200" r="2" fill="#7c3aed"/>
    <path d="M980 100 h50 l20 20 h40" stroke="#00bcf2" stroke-width="1" fill="none"/>
    <circle cx="980" cy="100" r="2" fill="#00bcf2"/>
  </g>

  <!-- Bottom accent bar with glow -->
  <rect x="0" y="290" width="1200" height="10" fill="url(#accentGrad)" filter="url(#glow)"/>
</g>
<g transform="translate(0, 217)">
<rect width="820" height="416" fill="none"/>
  <rect x="3" y="3" width="251.48792270531402" height="202" rx="6" fill="#57606a" opacity="0.15" stroke="#57606a" stroke-width="1.5"/><path d="M9,3 h239.48792270531402 a6,6 0 0 1 6,6 v16 h-251.48792270531402 v-16 a6,6 0 0 1 6,-6 z" fill="#57606a" opacity="0.1"/><line x1="3" y1="25" x2="254.48792270531402" y2="25" stroke="#57606a" stroke-width="0.75" opacity="0.45"/><text x="11" y="19" font-size="12" fill="#57606a" font-family="system-ui,-apple-system,Segoe UI,Roboto,sans-serif" font-weight="700">Other</text>
  <rect x="4" y="27" width="41.55829503375854" height="176" rx="3" fill="#57606a" opacity="0.36"/>
  <text x="24.77914751687927" y="115" text-anchor="middle" dominant-baseline="central" font-size="16" fill="#57606a" font-family="system-ui,sans-serif" font-weight="600" transform="rotate(-90,24.77914751687927,115)">prompt engineering</text>
  <rect x="46.55829503375854" y="27" width="38.47550485453146" height="176" rx="3" fill="#57606a" opacity="0.34"/>
  <text x="65.79604746102427" y="115" text-anchor="middle" dominant-baseline="central" font-size="16" fill="#57606a" font-family="system-ui,sans-serif" font-weight="600" transform="rotate(-90,65.79604746102427,115)">critical thinking</text>
  <rect x="86.03379988828999" y="27" width="31.41511816319306" height="176" rx="3" fill="#57606a" opacity="0.29"/>
  <text x="101.74135896988652" y="115" text-anchor="middle" dominant-baseline="central" font-size="16" fill="#57606a" font-family="system-ui,sans-serif" font-weight="400" transform="rotate(-90,101.74135896988652,115)">python</text>
  <rect x="118.44891805148305" y="27" width="27.206290392215124" height="176" rx="3" fill="#57606a" opacity="0.27"/>
  <text x="132.0520632475906" y="115" text-anchor="middle" dominant-baseline="central" font-size="16" fill="#57606a" font-family="system-ui,sans-serif" font-weight="400" transform="rotate(-90,132.0520632475906,115)">dialog engineering</text>
  <rect x="146.65520844369817" y="27" width="27.206290392215124" height="176" rx="3" fill="#57606a" opacity="0.27"/>
  <text x="160.25835363980573" y="115" text-anchor="middle" dominant-baseline="central" font-size="16" fill="#57606a" font-family="system-ui,sans-serif" font-weight="400" transform="rotate(-90,160.25835363980573,115)">llm</text>
  <rect x="174.8614988359133" y="27" width="27.206290392215124" height="176" rx="3" fill="#57606a" opacity="0.27"/>
  <text x="188.46464403202086" y="115" text-anchor="middle" dominant-baseline="central" font-size="16" fill="#57606a" font-family="system-ui,sans-serif" font-weight="400" transform="rotate(-90,188.46464403202086,115)">generative ai</text>
  <rect x="203.06778922812842" y="27" width="27.206290392215124" height="176" rx="3" fill="#57606a" opacity="0.27"/>
  <text x="216.67093442423598" y="115" text-anchor="middle" dominant-baseline="central" font-size="16" fill="#57606a" font-family="system-ui,sans-serif" font-weight="400" transform="rotate(-90,216.67093442423598,115)">developer tools</text>
  <rect x="231.27407962034354" y="27" width="22.213843084970478" height="176" rx="3" fill="#57606a" opacity="0.25"/>
  <text x="242.3810011628288" y="115" text-anchor="middle" dominant-baseline="central" font-size="16" fill="#57606a" font-family="system-ui,sans-serif" font-weight="400" transform="rotate(-90,242.3810011628288,115)">foundry local</text>
  <rect x="260.487922705314" y="3" width="219.79710144927537" height="202" rx="6" fill="#4e79a7" opacity="0.15" stroke="#4e79a7" stroke-width="1.5"/><path d="M266.487922705314,3 h207.79710144927537 a6,6 0 0 1 6,6 v16 h-219.79710144927537 v-16 a6,6 0 0 1 6,-6 z" fill="#4e79a7" opacity="0.1"/><line x1="260.487922705314" y1="25" x2="480.2850241545894" y2="25" stroke="#4e79a7" stroke-width="0.75" opacity="0.45"/><text x="268.487922705314" y="19" font-size="12" fill="#4e79a7" font-family="system-ui,-apple-system,Segoe UI,Roboto,sans-serif" font-weight="700">AI &amp; Copilot</text>
  <rect x="261.487922705314" y="27" width="34.475215640368965" height="176" rx="3" fill="#4e79a7" opacity="0.43"/>
  <text x="278.7255305254985" y="115" text-anchor="middle" dominant-baseline="central" font-size="16" fill="#4e79a7" font-family="system-ui,sans-serif" font-weight="600" transform="rotate(-90,278.7255305254985,115)">github copilot</text>
  <rect x="296.963138345683" y="27" width="28.844034832439075" height="176" rx="3" fill="#4e79a7" opacity="0.36"/>
  <text x="311.3851557619025" y="115" text-anchor="middle" dominant-baseline="central" font-size="16" fill="#4e79a7" font-family="system-ui,sans-serif" font-weight="600" transform="rotate(-90,311.3851557619025,115)">ai assistant</text>
  <rect x="326.80717317812207" y="27" width="28.844034832439075" height="176" rx="3" fill="#4e79a7" opacity="0.36"/>
  <text x="341.2291905943416" y="115" text-anchor="middle" dominant-baseline="central" font-size="16" fill="#4e79a7" font-family="system-ui,sans-serif" font-weight="600" transform="rotate(-90,341.2291905943416,115)">copilot</text>
  <rect x="356.65120801056116" y="27" width="28.844034832439075" height="176" rx="3" fill="#4e79a7" opacity="0.36"/>
  <text x="371.0732254267807" y="115" text-anchor="middle" dominant-baseline="central" font-size="16" fill="#4e79a7" font-family="system-ui,sans-serif" font-weight="600" transform="rotate(-90,371.0732254267807,115)">ai</text>
  <rect x="386.49524284300026" y="27" width="24.377658762173418" height="176" rx="3" fill="#4e79a7" opacity="0.32"/>
  <text x="398.68407222408695" y="115" text-anchor="middle" dominant-baseline="central" font-size="16" fill="#4e79a7" font-family="system-ui,sans-serif" font-weight="400" transform="rotate(-90,398.68407222408695,115)">claude</text>
  <rect x="411.8729016051737" y="27" width="21.804040849805258" height="176" rx="3" fill="#4e79a7" opacity="0.29"/>
  <text x="422.7749220300763" y="115" text-anchor="middle" dominant-baseline="central" font-size="16" fill="#4e79a7" font-family="system-ui,sans-serif" font-weight="400" transform="rotate(-90,422.7749220300763,115)">responsible ai</text>
  <rect x="434.6769424549789" y="27" width="21.804040849805258" height="176" rx="3" fill="#4e79a7" opacity="0.29"/>
  <text x="445.57896287988154" y="115" text-anchor="middle" dominant-baseline="central" font-size="16" fill="#4e79a7" font-family="system-ui,sans-serif" font-weight="400" transform="rotate(-90,445.57896287988154,115)">azure openai</text>
  <rect x="457.48098330478416" y="27" width="21.804040849805233" height="176" rx="3" fill="#4e79a7" opacity="0.29"/>
  <text x="468.3830037296868" y="115" text-anchor="middle" dominant-baseline="central" font-size="16" fill="#4e79a7" font-family="system-ui,sans-serif" font-weight="400" transform="rotate(-90,468.3830037296868,115)">ai agents</text>
  <rect x="486.2850241545894" y="3" width="124.72463768115941" height="202" rx="6" fill="#f28e2b" opacity="0.15" stroke="#f28e2b" stroke-width="1.5"/><path d="M492.2850241545894,3 h112.72463768115941 a6,6 0 0 1 6,6 v16 h-124.72463768115941 v-16 a6,6 0 0 1 6,-6 z" fill="#f28e2b" opacity="0.1"/><line x1="486.2850241545894" y1="25" x2="611.0096618357488" y2="25" stroke="#f28e2b" stroke-width="0.75" opacity="0.45"/><text x="494.2850241545894" y="19" font-size="12" fill="#f28e2b" font-family="system-ui,-apple-system,Segoe UI,Roboto,sans-serif" font-weight="700">Cognitive Archit…</text>
  <rect x="487.2850241545894" y="27" width="25.14181885180297" height="176" rx="3" fill="#f28e2b" opacity="0.45"/>
  <text x="499.8559335804909" y="115" text-anchor="middle" dominant-baseline="central" font-size="13" fill="#f28e2b" font-family="system-ui,sans-serif" font-weight="600" transform="rotate(-90,499.8559335804909,115)">cognitive architecture</text>
  <rect x="513.4268430063923" y="27" width="21.441015158749536" height="176" rx="3" fill="#f28e2b" opacity="0.38"/>
  <text x="524.1473505857671" y="115" text-anchor="middle" dominant-baseline="central" font-size="16" fill="#f28e2b" font-family="system-ui,sans-serif" font-weight="600" transform="rotate(-90,524.1473505857671,115)">agentic</text>
  <rect x="535.8678581651419" y="27" width="13.129886676553905" height="176" rx="3" fill="#f28e2b" opacity="0.27"/>
  <text x="542.4328015034189" y="115" text-anchor="middle" dominant-baseline="central" font-size="9" fill="#f28e2b" font-family="system-ui,sans-serif" font-weight="400" transform="rotate(-90,542.4328015034189,115)">agentic ai</text>
  <rect x="549.9977448416959" y="27" width="13.129886676553905" height="176" rx="3" fill="#f28e2b" opacity="0.27"/>
  <text x="556.5626881799728" y="115" text-anchor="middle" dominant-baseline="central" font-size="9" fill="#f28e2b" font-family="system-ui,sans-serif" font-weight="400" transform="rotate(-90,556.5626881799728,115)">model context protocol</text>
  <rect x="564.1276315182498" y="27" width="10.720507579374768" height="176" rx="3" fill="#f28e2b" opacity="0.25"/>
  <text x="569.4878853079372" y="115" text-anchor="middle" dominant-baseline="central" font-size="8" fill="#f28e2b" font-family="system-ui,sans-serif" font-weight="400" transform="rotate(-90,569.4878853079372,115)">act framework</text>
  <rect x="575.8481390976245" y="27" width="10.720507579374768" height="176" rx="3" fill="#f28e2b" opacity="0.25"/>
  <text x="581.2083928873119" y="115" text-anchor="middle" dominant-baseline="central" font-size="8" fill="#f28e2b" font-family="system-ui,sans-serif" font-weight="400" transform="rotate(-90,581.2083928873119,115)">neuroscience</text>
  <rect x="587.5686466769993" y="27" width="10.720507579374768" height="176" rx="3" fill="#f28e2b" opacity="0.25"/>
  <text x="592.9289004666866" y="115" text-anchor="middle" dominant-baseline="central" font-size="8" fill="#f28e2b" font-family="system-ui,sans-serif" font-weight="400" transform="rotate(-90,592.9289004666866,115)">cognitive science</text>
  <rect x="599.289154256374" y="27" width="10.72050757937484" height="176" rx="3" fill="#f28e2b" opacity="0.25"/>
  <text x="604.6494080460614" y="115" text-anchor="middle" dominant-baseline="central" font-size="8" fill="#f28e2b" font-family="system-ui,sans-serif" font-weight="400" transform="rotate(-90,604.6494080460614,115)">memory systems</text>
  <rect x="617.0096618357488" y="3" width="104.91787439613526" height="202" rx="6" fill="#ff9da7" opacity="0.15" stroke="#ff9da7" stroke-width="1.5"/><path d="M623.0096618357488,3 h92.91787439613526 a6,6 0 0 1 6,6 v16 h-104.91787439613526 v-16 a6,6 0 0 1 6,-6 z" fill="#ff9da7" opacity="0.1"/><line x1="617.0096618357488" y1="25" x2="721.9275362318841" y2="25" stroke="#ff9da7" stroke-width="0.75" opacity="0.45"/><text x="625.0096618357488" y="19" font-size="12" fill="#ff9da7" font-family="system-ui,-apple-system,Segoe UI,Roboto,sans-serif" font-weight="700">Development T…</text>
  <rect x="618.0096618357488" y="27" width="16.693344051546973" height="176" rx="3" fill="#ff9da7" opacity="0.34"/>
  <text x="626.3563338615223" y="115" text-anchor="middle" dominant-baseline="central" font-size="12" fill="#ff9da7" font-family="system-ui,sans-serif" font-weight="600" transform="rotate(-90,626.3563338615223,115)">typescript</text>
  <rect x="635.7030058872958" y="27" width="15.238868495378265" height="176" rx="3" fill="#ff9da7" opacity="0.32"/>
  <text x="643.322440134985" y="115" text-anchor="middle" dominant-baseline="central" font-size="11" fill="#ff9da7" font-family="system-ui,sans-serif" font-weight="400" transform="rotate(-90,643.322440134985,115)">vscode extension</text>
  <rect x="651.9418743826741" y="27" width="13.630058342338295" height="176" rx="3" fill="#ff9da7" opacity="0.29"/>
  <text x="658.7569035538432" y="115" text-anchor="middle" dominant-baseline="central" font-size="10" fill="#ff9da7" font-family="system-ui,sans-serif" font-weight="400" transform="rotate(-90,658.7569035538432,115)">vscode</text>
  <rect x="666.5719327250124" y="27" width="11.803976779528977" height="176" rx="3" fill="#ff9da7" opacity="0.27"/>
  <text x="672.4739211147769" y="115" text-anchor="middle" dominant-baseline="central" font-size="8" fill="#ff9da7" font-family="system-ui,sans-serif" font-weight="400" transform="rotate(-90,672.4739211147769,115)">react</text>
  <rect x="679.3759095045414" y="27" width="9.637906681835682" height="176" rx="3" fill="#ff9da7" opacity="0.25"/>
  <text x="684.1948628454592" y="115" text-anchor="middle" dominant-baseline="central" font-size="7" fill="#ff9da7" font-family="system-ui,sans-serif" font-weight="400" transform="rotate(-90,684.1948628454592,115)">markdown</text>
  <rect x="690.0138161863771" y="27" width="9.637906681835682" height="176" rx="3" fill="#ff9da7" opacity="0.25"/>
  <text x="694.8327695272949" y="115" text-anchor="middle" dominant-baseline="central" font-size="7" fill="#ff9da7" font-family="system-ui,sans-serif" font-weight="400" transform="rotate(-90,694.8327695272949,115)">portfolio</text>
  <rect x="700.6517228682128" y="27" width="9.637906681835682" height="176" rx="3" fill="#ff9da7" opacity="0.25"/>
  <text x="705.4706762091306" y="115" text-anchor="middle" dominant-baseline="central" font-size="7" fill="#ff9da7" font-family="system-ui,sans-serif" font-weight="400" transform="rotate(-90,705.4706762091306,115)">template</text>
  <rect x="711.2896295500485" y="27" width="9.637906681835602" height="176" rx="3" fill="#ff9da7" opacity="0.25"/>
  <text x="716.1085828909663" y="115" text-anchor="middle" dominant-baseline="central" font-size="7" fill="#ff9da7" font-family="system-ui,sans-serif" font-weight="400" transform="rotate(-90,716.1085828909663,115)">astro</text>
  <rect x="727.9275362318841" y="3" width="89.07246376811588" height="202" rx="6" fill="#59a14f" opacity="0.15" stroke="#59a14f" stroke-width="1.5"/><path d="M733.9275362318841,3 h77.07246376811588 a6,6 0 0 1 6,6 v16 h-89.07246376811588 v-16 a6,6 0 0 1 6,-6 z" fill="#59a14f" opacity="0.1"/><line x1="727.9275362318841" y1="25" x2="817" y2="25" stroke="#59a14f" stroke-width="0.75" opacity="0.45"/><text x="735.9275362318841" y="19" font-size="12" fill="#59a14f" font-family="system-ui,-apple-system,Segoe UI,Roboto,sans-serif" font-weight="700">Agent &amp; Sk…</text>
  <rect x="728.9275362318841" y="27" width="20.87183643550639" height="176" rx="3" fill="#59a14f" opacity="0.43"/>
  <text x="739.3634544496373" y="115" text-anchor="middle" dominant-baseline="central" font-size="15" fill="#59a14f" font-family="system-ui,sans-serif" font-weight="600" transform="rotate(-90,739.3634544496373,115)">agent</text>
  <rect x="750.7993726673905" y="27" width="11.431975632285067" height="176" rx="3" fill="#59a14f" opacity="0.27"/>
  <text x="756.515360483533" y="115" text-anchor="middle" dominant-baseline="central" font-size="8" fill="#59a14f" font-family="system-ui,sans-serif" font-weight="400" transform="rotate(-90,756.515360483533,115)">agent skills</text>
  <rect x="763.2313482996756" y="27" width="11.431975632285067" height="176" rx="3" fill="#59a14f" opacity="0.27"/>
  <text x="768.9473361158181" y="115" text-anchor="middle" dominant-baseline="central" font-size="8" fill="#59a14f" font-family="system-ui,sans-serif" font-weight="400" transform="rotate(-90,768.9473361158181,115)">skills</text>
  <rect x="775.6633239319607" y="27" width="9.334169017009838" height="176" rx="3" fill="#59a14f" opacity="0.25"/>
  <text x="780.3304084404656" y="115" text-anchor="middle" dominant-baseline="central" font-size="7" fill="#59a14f" font-family="system-ui,sans-serif" font-weight="400" transform="rotate(-90,780.3304084404656,115)">claude skills</text>
  <rect x="785.9974929489705" y="27" width="9.334169017009838" height="176" rx="3" fill="#59a14f" opacity="0.25"/>
  <text x="790.6645774574754" y="115" text-anchor="middle" dominant-baseline="central" font-size="7" fill="#59a14f" font-family="system-ui,sans-serif" font-weight="400" transform="rotate(-90,790.6645774574754,115)">copilot skills</text>
  <rect x="796.3316619659803" y="27" width="9.334169017009838" height="176" rx="3" fill="#59a14f" opacity="0.25"/>
  <text x="800.9987464744852" y="115" text-anchor="middle" dominant-baseline="central" font-size="7" fill="#59a14f" font-family="system-ui,sans-serif" font-weight="400" transform="rotate(-90,800.9987464744852,115)">cursor skills</text>
  <rect x="806.6658309829901" y="27" width="9.334169017009913" height="176" rx="3" fill="#59a14f" opacity="0.25"/>
  <text x="811.332915491495" y="115" text-anchor="middle" dominant-baseline="central" font-size="7" fill="#59a14f" font-family="system-ui,sans-serif" font-weight="400" transform="rotate(-90,811.332915491495,115)">ai coaching</text>
  <rect x="3" y="211" width="251.71428571428572" height="202" rx="6" fill="#76b7b2" opacity="0.15" stroke="#76b7b2" stroke-width="1.5"/><path d="M9,211 h239.71428571428572 a6,6 0 0 1 6,6 v16 h-251.71428571428572 v-16 a6,6 0 0 1 6,-6 z" fill="#76b7b2" opacity="0.1"/><line x1="3" y1="233" x2="254.71428571428572" y2="233" stroke="#76b7b2" stroke-width="0.75" opacity="0.45"/><text x="11" y="227" font-size="12" fill="#76b7b2" font-family="system-ui,-apple-system,Segoe UI,Roboto,sans-serif" font-weight="700">Cloud &amp; Azure</text>
  <rect x="4" y="235" width="58.48754176469088" height="176" rx="3" fill="#76b7b2" opacity="0.36"/>
  <text x="33.243770882345444" y="323" text-anchor="middle" dominant-baseline="central" font-size="16" fill="#76b7b2" font-family="system-ui,sans-serif" font-weight="600" transform="rotate(-90,33.243770882345444,323)">azure</text>
  <rect x="63.48754176469088" y="235" width="54.14894175203737" height="176" rx="3" fill="#76b7b2" opacity="0.34"/>
  <text x="90.56201264070957" y="323" text-anchor="middle" dominant-baseline="central" font-size="16" fill="#76b7b2" font-family="system-ui,sans-serif" font-weight="600" transform="rotate(-90,90.56201264070957,323)">mcp</text>
  <rect x="118.63648351672825" y="235" width="38.289083906941" height="176" rx="3" fill="#76b7b2" opacity="0.27"/>
  <text x="137.78102547019876" y="323" text-anchor="middle" dominant-baseline="central" font-size="16" fill="#76b7b2" font-family="system-ui,sans-serif" font-weight="400" transform="rotate(-90,137.78102547019876,323)">azure functions</text>
  <rect x="157.92556742366924" y="235" width="31.262906096872147" height="176" rx="3" fill="#76b7b2" opacity="0.25"/>
  <text x="173.5570204721053" y="323" text-anchor="middle" dominant-baseline="central" font-size="16" fill="#76b7b2" font-family="system-ui,sans-serif" font-weight="400" transform="rotate(-90,173.5570204721053,323)">serverless</text>
  <rect x="190.18847352054138" y="235" width="31.262906096872147" height="176" rx="3" fill="#76b7b2" opacity="0.25"/>
  <text x="205.81992656897745" y="323" text-anchor="middle" dominant-baseline="central" font-size="16" fill="#76b7b2" font-family="system-ui,sans-serif" font-weight="400" transform="rotate(-90,205.81992656897745,323)">devops</text>
  <rect x="222.45137961741352" y="235" width="31.2629060968722" height="176" rx="3" fill="#76b7b2" opacity="0.25"/>
  <text x="238.08283266584962" y="323" text-anchor="middle" dominant-baseline="central" font-size="16" fill="#76b7b2" font-family="system-ui,sans-serif" font-weight="400" transform="rotate(-90,238.08283266584962,323)">nodejs</text>
  <rect x="260.7142857142857" y="211" width="193.14285714285714" height="202" rx="6" fill="#e15759" opacity="0.15" stroke="#e15759" stroke-width="1.5"/><path d="M266.7142857142857,211 h181.14285714285714 a6,6 0 0 1 6,6 v16 h-193.14285714285714 v-16 a6,6 0 0 1 6,-6 z" fill="#e15759" opacity="0.1"/><line x1="260.7142857142857" y1="233" x2="453.8571428571429" y2="233" stroke="#e15759" stroke-width="0.75" opacity="0.45"/><text x="268.7142857142857" y="227" font-size="12" fill="#e15759" font-family="system-ui,-apple-system,Segoe UI,Roboto,sans-serif" font-weight="700">Learning &amp; Research</text>
  <rect x="261.7142857142857" y="235" width="29.547280759657003" height="176" rx="3" fill="#e15759" opacity="0.27"/>
  <text x="276.48792609411424" y="323" text-anchor="middle" dominant-baseline="central" font-size="16" fill="#e15759" font-family="system-ui,sans-serif" font-weight="400" transform="rotate(-90,276.48792609411424,323)">learning</text>
  <rect x="292.2615664739427" y="235" width="29.547280759657003" height="176" rx="3" fill="#e15759" opacity="0.27"/>
  <text x="307.03520685377123" y="323" text-anchor="middle" dominant-baseline="central" font-size="16" fill="#e15759" font-family="system-ui,sans-serif" font-weight="400" transform="rotate(-90,307.03520685377123,323)">tutorial</text>
  <rect x="322.8088472335997" y="235" width="29.547280759657003" height="176" rx="3" fill="#e15759" opacity="0.27"/>
  <text x="337.5824876134282" y="323" text-anchor="middle" dominant-baseline="central" font-size="16" fill="#e15759" font-family="system-ui,sans-serif" font-weight="400" transform="rotate(-90,337.5824876134282,323)">utaut2</text>
  <rect x="353.3561279932567" y="235" width="24.125253715971528" height="176" rx="3" fill="#e15759" opacity="0.25"/>
  <text x="365.41875485124245" y="323" text-anchor="middle" dominant-baseline="central" font-size="16" fill="#e15759" font-family="system-ui,sans-serif" font-weight="400" transform="rotate(-90,365.41875485124245,323)">education</text>
  <rect x="378.48138170922823" y="235" width="24.125253715971528" height="176" rx="3" fill="#e15759" opacity="0.25"/>
  <text x="390.544008567214" y="323" text-anchor="middle" dominant-baseline="central" font-size="12" fill="#e15759" font-family="system-ui,sans-serif" font-weight="400" transform="rotate(-90,390.544008567214,323)">professional development</text>
  <rect x="403.6066354251998" y="235" width="24.125253715971528" height="176" rx="3" fill="#e15759" opacity="0.25"/>
  <text x="415.66926228318556" y="323" text-anchor="middle" dominant-baseline="central" font-size="16" fill="#e15759" font-family="system-ui,sans-serif" font-weight="400" transform="rotate(-90,415.66926228318556,323)">research</text>
  <rect x="428.73188914117134" y="235" width="24.125253715971553" height="176" rx="3" fill="#e15759" opacity="0.25"/>
  <text x="440.7945159991571" y="323" text-anchor="middle" dominant-baseline="central" font-size="16" fill="#e15759" font-family="system-ui,sans-serif" font-weight="400" transform="rotate(-90,440.7945159991571,323)">academic research</text>
  <rect x="459.8571428571429" y="211" width="181.42857142857142" height="202" rx="6" fill="#b07aa1" opacity="0.15" stroke="#b07aa1" stroke-width="1.5"/><path d="M465.8571428571429,211 h169.42857142857142 a6,6 0 0 1 6,6 v16 h-181.42857142857142 v-16 a6,6 0 0 1 6,-6 z" fill="#b07aa1" opacity="0.1"/><line x1="459.8571428571429" y1="233" x2="641.2857142857143" y2="233" stroke="#b07aa1" stroke-width="0.75" opacity="0.45"/><text x="467.8571428571429" y="227" font-size="12" fill="#b07aa1" font-family="system-ui,-apple-system,Segoe UI,Roboto,sans-serif" font-weight="700">AI Adoption &amp; Governance</text>
  <rect x="460.8571428571429" y="235" width="28.512792250728907" height="176" rx="3" fill="#b07aa1" opacity="0.27"/>
  <text x="475.11353898250735" y="323" text-anchor="middle" dominant-baseline="central" font-size="16" fill="#b07aa1" font-family="system-ui,sans-serif" font-weight="400" transform="rotate(-90,475.11353898250735,323)">ai adoption</text>
  <rect x="490.3699351078718" y="235" width="28.512792250728907" height="176" rx="3" fill="#b07aa1" opacity="0.27"/>
  <text x="504.6263312332363" y="323" text-anchor="middle" dominant-baseline="central" font-size="16" fill="#b07aa1" font-family="system-ui,sans-serif" font-weight="400" transform="rotate(-90,504.6263312332363,323)">ai governance</text>
  <rect x="519.8827273586007" y="235" width="23.28059738542272" height="176" rx="3" fill="#b07aa1" opacity="0.25"/>
  <text x="531.5230260513121" y="323" text-anchor="middle" dominant-baseline="central" font-size="13" fill="#b07aa1" font-family="system-ui,sans-serif" font-weight="400" transform="rotate(-90,531.5230260513121,323)">human ai collaboration</text>
  <rect x="544.1633247440235" y="235" width="23.28059738542272" height="176" rx="3" fill="#b07aa1" opacity="0.25"/>
  <text x="555.8036234367348" y="323" text-anchor="middle" dominant-baseline="central" font-size="16" fill="#b07aa1" font-family="system-ui,sans-serif" font-weight="400" transform="rotate(-90,555.8036234367348,323)">governance</text>
  <rect x="568.4439221294463" y="235" width="23.28059738542272" height="176" rx="3" fill="#b07aa1" opacity="0.25"/>
  <text x="580.0842208221576" y="323" text-anchor="middle" dominant-baseline="central" font-size="16" fill="#b07aa1" font-family="system-ui,sans-serif" font-weight="400" transform="rotate(-90,580.0842208221576,323)">accessibility</text>
  <rect x="592.724519514869" y="235" width="23.28059738542272" height="176" rx="3" fill="#b07aa1" opacity="0.25"/>
  <text x="604.3648182075804" y="323" text-anchor="middle" dominant-baseline="central" font-size="16" fill="#b07aa1" font-family="system-ui,sans-serif" font-weight="400" transform="rotate(-90,604.3648182075804,323)">healthcare</text>
  <rect x="617.0051169002918" y="235" width="23.28059738542254" height="176" rx="3" fill="#b07aa1" opacity="0.25"/>
  <text x="628.645415593003" y="323" text-anchor="middle" dominant-baseline="central" font-size="16" fill="#b07aa1" font-family="system-ui,sans-serif" font-weight="400" transform="rotate(-90,628.645415593003,323)">multilingual</text>
  <rect x="647.2857142857143" y="211" width="169.71428571428567" height="202" rx="6" fill="#edc948" opacity="0.15" stroke="#edc948" stroke-width="1.5"/><path d="M653.2857142857143,211 h157.71428571428567 a6,6 0 0 1 6,6 v16 h-169.71428571428567 v-16 a6,6 0 0 1 6,-6 z" fill="#edc948" opacity="0.1"/><line x1="647.2857142857143" y1="233" x2="817" y2="233" stroke="#edc948" stroke-width="0.75" opacity="0.45"/><text x="655.2857142857143" y="227" font-size="12" fill="#edc948" font-family="system-ui,-apple-system,Segoe UI,Roboto,sans-serif" font-weight="700">Data Engineering</text>
  <rect x="648.2857142857143" y="235" width="29.858627760474278" height="176" rx="3" fill="#edc948" opacity="0.27"/>
  <text x="663.2150281659515" y="323" text-anchor="middle" dominant-baseline="central" font-size="16" fill="#edc948" font-family="system-ui,sans-serif" font-weight="400" transform="rotate(-90,663.2150281659515,323)">dashboard</text>
  <rect x="679.1443420461886" y="235" width="29.858627760474278" height="176" rx="3" fill="#edc948" opacity="0.27"/>
  <text x="694.0736559264258" y="323" text-anchor="middle" dominant-baseline="central" font-size="16" fill="#edc948" font-family="system-ui,sans-serif" font-weight="400" transform="rotate(-90,694.0736559264258,323)">fleet</text>
  <rect x="710.0029698066629" y="235" width="29.858627760474278" height="176" rx="3" fill="#edc948" opacity="0.27"/>
  <text x="724.9322836869001" y="323" text-anchor="middle" dominant-baseline="central" font-size="16" fill="#edc948" font-family="system-ui,sans-serif" font-weight="400" transform="rotate(-90,724.9322836869001,323)">spotify api</text>
  <rect x="740.8615975671372" y="235" width="24.37946747762094" height="176" rx="3" fill="#edc948" opacity="0.25"/>
  <text x="753.0513313059477" y="323" text-anchor="middle" dominant-baseline="central" font-size="16" fill="#edc948" font-family="system-ui,sans-serif" font-weight="400" transform="rotate(-90,753.0513313059477,323)">pdf</text>
  <rect x="766.2410650447581" y="235" width="24.37946747762094" height="176" rx="3" fill="#edc948" opacity="0.25"/>
  <text x="778.4307987835685" y="323" text-anchor="middle" dominant-baseline="central" font-size="16" fill="#edc948" font-family="system-ui,sans-serif" font-weight="400" transform="rotate(-90,778.4307987835685,323)">svg</text>
  <rect x="791.620532522379" y="235" width="24.379467477621006" height="176" rx="3" fill="#edc948" opacity="0.25"/>
  <text x="803.8102662611896" y="323" text-anchor="middle" dominant-baseline="central" font-size="16" fill="#edc948" font-family="system-ui,sans-serif" font-weight="400" transform="rotate(-90,803.8102662611896,323)">youtube api</text>
</g>
<g transform="translate(0, 639)">
<title>Portfolio at a Glance</title>
<rect width="820" height="270" fill="none"/>
<rect x="3" y="3" width="328.82" height="264" rx="6" fill="#0969da" opacity="0.15" stroke="#0969da" stroke-width="1.5"/><path d="M9,3 h316.82 a6,6 0 0 1 6,6 v26 h-328.82 v-26 a6,6 0 0 1 6,-6 z" fill="#0969da" opacity="0.1"/><line x1="3" y1="35" x2="331.82" y2="35" stroke="#0969da" stroke-width="0.75" opacity="0.45"/><text x="11" y="19" font-size="12" fill="#0969da" font-family="system-ui,-apple-system,Segoe UI,Roboto,sans-serif" font-weight="700">Top Languages</text><text x="11" y="31" font-size="9" fill="#0969da" opacity="0.95" font-weight="600" font-family="system-ui,-apple-system,Segoe UI,Roboto,sans-serif">By lines of code</text>
<g transform="translate(11, 41)">
<text x="4" y="28" font-size="11" fill="#0969da" font-family="system-ui,-apple-system,Segoe UI,Roboto,sans-serif">Python</text><rect x="137.3844" y="15" width="175.4356" height="18" rx="3" fill="#0969da" opacity="0.12"/><rect x="137.3844" y="15" width="128" height="18" rx="3" fill="#0969da" opacity="0.55"/><text x="270.3844" y="28" font-size="10" fill="#0969da" font-weight="700" font-family="system-ui,-apple-system,Segoe UI,Roboto,sans-serif">72.8%</text><text x="4" y="62" font-size="11" fill="#0969da" font-family="system-ui,-apple-system,Segoe UI,Roboto,sans-serif">JavaScript</text><rect x="137.3844" y="49" width="175.4356" height="18" rx="3" fill="#0969da" opacity="0.12"/><rect x="137.3844" y="49" width="18" height="18" rx="3" fill="#0969da" opacity="0.55"/><text x="160.3844" y="62" font-size="10" fill="#0969da" font-weight="700" font-family="system-ui,-apple-system,Segoe UI,Roboto,sans-serif">10.4%</text><text x="4" y="96" font-size="11" fill="#0969da" font-family="system-ui,-apple-system,Segoe UI,Roboto,sans-serif">TypeScript</text><rect x="137.3844" y="83" width="175.4356" height="18" rx="3" fill="#0969da" opacity="0.12"/><rect x="137.3844" y="83" width="11" height="18" rx="3" fill="#0969da" opacity="0.55"/><text x="153.3844" y="96" font-size="10" fill="#0969da" font-weight="700" font-family="system-ui,-apple-system,Segoe UI,Roboto,sans-serif">6.5%</text><text x="4" y="130" font-size="11" fill="#0969da" font-family="system-ui,-apple-system,Segoe UI,Roboto,sans-serif">Jupyter Notebook</text><rect x="137.3844" y="117" width="175.4356" height="18" rx="3" fill="#0969da" opacity="0.12"/><rect x="137.3844" y="117" width="9" height="18" rx="3" fill="#0969da" opacity="0.55"/><text x="151.3844" y="130" font-size="10" fill="#0969da" font-weight="700" font-family="system-ui,-apple-system,Segoe UI,Roboto,sans-serif">5.3%</text><text x="4" y="164" font-size="11" fill="#0969da" font-family="system-ui,-apple-system,Segoe UI,Roboto,sans-serif">Cython</text><rect x="137.3844" y="151" width="175.4356" height="18" rx="3" fill="#0969da" opacity="0.12"/><rect x="137.3844" y="151" width="3" height="18" rx="3" fill="#0969da" opacity="0.55"/><text x="145.3844" y="164" font-size="10" fill="#0969da" font-weight="700" font-family="system-ui,-apple-system,Segoe UI,Roboto,sans-serif">1.6%</text><text x="4" y="198" font-size="11" fill="#0969da" font-family="system-ui,-apple-system,Segoe UI,Roboto,sans-serif">PowerShell</text><rect x="137.3844" y="185" width="175.4356" height="18" rx="3" fill="#0969da" opacity="0.12"/><rect x="137.3844" y="185" width="2" height="18" rx="3" fill="#0969da" opacity="0.55"/><text x="144.3844" y="198" font-size="10" fill="#0969da" font-weight="700" font-family="system-ui,-apple-system,Segoe UI,Roboto,sans-serif">1.0%</text>
</g>
<rect x="337.82" y="3" width="144.35999999999999" height="264" rx="6" fill="#9a6700" opacity="0.15" stroke="#9a6700" stroke-width="1.5"/><path d="M343.82,3 h132.35999999999999 a6,6 0 0 1 6,6 v26 h-144.35999999999999 v-26 a6,6 0 0 1 6,-6 z" fill="#9a6700" opacity="0.1"/><line x1="337.82" y1="35" x2="482.17999999999995" y2="35" stroke="#9a6700" stroke-width="0.75" opacity="0.45"/><text x="345.82" y="19" font-size="12" fill="#9a6700" font-family="system-ui,-apple-system,Segoe UI,Roboto,sans-serif" font-weight="700">Tier &amp; Activity</text><text x="345.82" y="31" font-size="9" fill="#9a6700" opacity="0.95" font-weight="600" font-family="system-ui,-apple-system,Segoe UI,Roboto,sans-serif">Portfolio composition</text>
<text x="345.82" y="52" font-size="9" font-weight="700" fill="#9a6700" opacity="0.7" letter-spacing="0.6" font-family="system-ui,-apple-system,Segoe UI,Roboto,sans-serif">TIERS</text>
<g><text x="345.82" y="69" font-size="11">🏆</text><text x="365.82" y="69" font-size="11" fill="#9a6700" font-weight="600" font-family="system-ui,-apple-system,Segoe UI,Roboto,sans-serif">Flagship</text><text x="470.17999999999995" y="69" font-size="12" fill="#9a6700" font-weight="700" font-family="system-ui,-apple-system,Segoe UI,Roboto,sans-serif" text-anchor="end">21</text><text x="345.82" y="91" font-size="11">⭐</text><text x="365.82" y="91" font-size="11" fill="#9a6700" font-weight="600" font-family="system-ui,-apple-system,Segoe UI,Roboto,sans-serif">Notable</text><text x="470.17999999999995" y="91" font-size="12" fill="#9a6700" font-weight="700" font-family="system-ui,-apple-system,Segoe UI,Roboto,sans-serif" text-anchor="end">31</text><text x="345.82" y="113" font-size="11">🤖</text><text x="365.82" y="113" font-size="11" fill="#9a6700" font-weight="600" font-family="system-ui,-apple-system,Segoe UI,Roboto,sans-serif">Agents</text><text x="470.17999999999995" y="113" font-size="12" fill="#9a6700" font-weight="700" font-family="system-ui,-apple-system,Segoe UI,Roboto,sans-serif" text-anchor="end">65</text><text x="345.82" y="135" font-size="11">🪦</text><text x="365.82" y="135" font-size="11" fill="#9a6700" font-weight="600" font-family="system-ui,-apple-system,Segoe UI,Roboto,sans-serif">Archived</text><text x="470.17999999999995" y="135" font-size="12" fill="#9a6700" font-weight="700" font-family="system-ui,-apple-system,Segoe UI,Roboto,sans-serif" text-anchor="end">14</text></g>
<text x="345.82" y="162" font-size="9" font-weight="700" fill="#9a6700" opacity="0.7" letter-spacing="0.6" font-family="system-ui,-apple-system,Segoe UI,Roboto,sans-serif">ACTIVITY</text>
<g><text x="345.82" y="179" font-size="11">⭐</text><text x="365.82" y="179" font-size="11" fill="#9a6700" font-weight="600" font-family="system-ui,-apple-system,Segoe UI,Roboto,sans-serif">Stars</text><text x="470.17999999999995" y="179" font-size="12" fill="#9a6700" font-weight="700" font-family="system-ui,-apple-system,Segoe UI,Roboto,sans-serif" text-anchor="end">23</text><text x="345.82" y="201" font-size="11">🚀</text><text x="365.82" y="201" font-size="11" fill="#9a6700" font-weight="600" font-family="system-ui,-apple-system,Segoe UI,Roboto,sans-serif">Active &lt;30d</text><text x="470.17999999999995" y="201" font-size="12" fill="#9a6700" font-weight="700" font-family="system-ui,-apple-system,Segoe UI,Roboto,sans-serif" text-anchor="end">39</text><text x="345.82" y="223" font-size="11">📂</text><text x="365.82" y="223" font-size="11" fill="#9a6700" font-weight="600" font-family="system-ui,-apple-system,Segoe UI,Roboto,sans-serif">Public</text><text x="470.17999999999995" y="223" font-size="12" fill="#9a6700" font-weight="700" font-family="system-ui,-apple-system,Segoe UI,Roboto,sans-serif" text-anchor="end">34</text><text x="345.82" y="245" font-size="11">🔒</text><text x="365.82" y="245" font-size="11" fill="#9a6700" font-weight="600" font-family="system-ui,-apple-system,Segoe UI,Roboto,sans-serif">Private</text><text x="470.17999999999995" y="245" font-size="12" fill="#9a6700" font-weight="700" font-family="system-ui,-apple-system,Segoe UI,Roboto,sans-serif" text-anchor="end">37</text></g>
<rect x="488.17999999999995" y="3" width="328.82" height="264" rx="6" fill="#8250df" opacity="0.15" stroke="#8250df" stroke-width="1.5"/><path d="M494.17999999999995,3 h316.82 a6,6 0 0 1 6,6 v26 h-328.82 v-26 a6,6 0 0 1 6,-6 z" fill="#8250df" opacity="0.1"/><line x1="488.17999999999995" y1="35" x2="817" y2="35" stroke="#8250df" stroke-width="0.75" opacity="0.45"/><text x="496.17999999999995" y="19" font-size="12" fill="#8250df" font-family="system-ui,-apple-system,Segoe UI,Roboto,sans-serif" font-weight="700">Top Themes</text><text x="496.17999999999995" y="31" font-size="9" fill="#8250df" opacity="0.95" font-weight="600" font-family="system-ui,-apple-system,Segoe UI,Roboto,sans-serif">Topic clusters</text>
<g transform="translate(496.17999999999995, 41)">
<text x="4" y="28" font-size="11" fill="#8250df" font-family="system-ui,-apple-system,Segoe UI,Roboto,sans-serif">AI &amp; Copilot</text><rect x="137.3844" y="15" width="175.4356" height="18" rx="3" fill="#8250df" opacity="0.12"/><rect x="137.3844" y="15" width="128" height="18" rx="3" fill="#8250df" opacity="0.55"/><text x="270.3844" y="28" font-size="10" fill="#8250df" font-weight="700" font-family="system-ui,-apple-system,Segoe UI,Roboto,sans-serif">27</text><text x="4" y="56" font-size="11" fill="#8250df" font-family="system-ui,-apple-system,Segoe UI,Roboto,sans-serif">Cognitive<tspan x="4" dy="12">Architecture</tspan></text><rect x="137.3844" y="49" width="175.4356" height="18" rx="3" fill="#8250df" opacity="0.12"/><rect x="137.3844" y="49" width="104" height="18" rx="3" fill="#8250df" opacity="0.55"/><text x="246.3844" y="62" font-size="10" fill="#8250df" font-weight="700" font-family="system-ui,-apple-system,Segoe UI,Roboto,sans-serif">22</text><text x="4" y="96" font-size="11" fill="#8250df" font-family="system-ui,-apple-system,Segoe UI,Roboto,sans-serif">Development Tools</text><rect x="137.3844" y="83" width="175.4356" height="18" rx="3" fill="#8250df" opacity="0.12"/><rect x="137.3844" y="83" width="90" height="18" rx="3" fill="#8250df" opacity="0.55"/><text x="232.3844" y="96" font-size="10" fill="#8250df" font-weight="700" font-family="system-ui,-apple-system,Segoe UI,Roboto,sans-serif">19</text><text x="4" y="130" font-size="11" fill="#8250df" font-family="system-ui,-apple-system,Segoe UI,Roboto,sans-serif">Agent &amp; Skills</text><rect x="137.3844" y="117" width="175.4356" height="18" rx="3" fill="#8250df" opacity="0.12"/><rect x="137.3844" y="117" width="76" height="18" rx="3" fill="#8250df" opacity="0.55"/><text x="218.3844" y="130" font-size="10" fill="#8250df" font-weight="700" font-family="system-ui,-apple-system,Segoe UI,Roboto,sans-serif">16</text><text x="4" y="164" font-size="11" fill="#8250df" font-family="system-ui,-apple-system,Segoe UI,Roboto,sans-serif">Data Engineering</text><rect x="137.3844" y="151" width="175.4356" height="18" rx="3" fill="#8250df" opacity="0.12"/><rect x="137.3844" y="151" width="66" height="18" rx="3" fill="#8250df" opacity="0.55"/><text x="208.3844" y="164" font-size="10" fill="#8250df" font-weight="700" font-family="system-ui,-apple-system,Segoe UI,Roboto,sans-serif">14</text><text x="4" y="192" font-size="11" fill="#8250df" font-family="system-ui,-apple-system,Segoe UI,Roboto,sans-serif">AI Adoption &amp;<tspan x="4" dy="12">Governance</tspan></text><rect x="137.3844" y="185" width="175.4356" height="18" rx="3" fill="#8250df" opacity="0.12"/><rect x="137.3844" y="185" width="66" height="18" rx="3" fill="#8250df" opacity="0.55"/><text x="208.3844" y="198" font-size="10" fill="#8250df" font-weight="700" font-family="system-ui,-apple-system,Segoe UI,Roboto,sans-serif">14</text>
</g>
</g>
<text x="410" y="935" text-anchor="middle" font-family="Segoe UI, system-ui, sans-serif" font-size="13"><tspan font-weight="700" fill="#1f2328" >71</tspan><tspan fill="#64748b" dx="4">repositories across 10 categories</tspan><tspan fill="#64748b" dx="6">·</tspan><tspan font-weight="700" fill="#1f2328" dx="6">57</tspan><tspan fill="#64748b" dx="4">actively maintained</tspan><tspan fill="#64748b" dx="6">·</tspan><tspan font-weight="700" fill="#1f2328" dx="6">21</tspan><tspan fill="#64748b" dx="4">flagships</tspan></text>
</svg>