<svg xmlns="http://www.w3.org/2000/svg" viewBox="0 0 820 947" width="100%" preserveAspectRatio="xMidYMid meet" role="img" aria-label="Portfolio">
<title>Portfolio</title>
<g transform="translate(0, 0) scale(0.683333)">
<defs>
    <!-- Background gradient - deep space theme -->
    <linearGradient id="bgGrad" x1="0%" y1="0%" x2="100%" y2="100%">
      <stop offset="0%" stop-color="#020617"/>
      <stop offset="50%" stop-color="#0f172a"/>
      <stop offset="100%" stop-color="#1e293b"/>
    </linearGradient>

    <!-- Logo gradient with Azure blue -->
    <linearGradient id="logoGrad" x1="0%" y1="0%" x2="100%" y2="100%">
      <stop offset="0%" stop-color="#00bcf2"/>
      <stop offset="50%" stop-color="#0078d4"/>
      <stop offset="100%" stop-color="#005a9e"/>
    </linearGradient>

    <!-- Name gradient -->
    <linearGradient id="nameGrad" x1="0%" y1="0%" x2="100%" y2="0%">
      <stop offset="0%" stop-color="#f8fafc"/>
      <stop offset="50%" stop-color="#e2e8f0"/>
      <stop offset="100%" stop-color="#f8fafc"/>
    </linearGradient>

    <!-- Accent text gradient -->
    <linearGradient id="accentTextGrad" x1="0%" y1="0%" x2="100%" y2="0%">
      <stop offset="0%" stop-color="#00bcf2"/>
      <stop offset="50%" stop-color="#0078d4"/>
      <stop offset="100%" stop-color="#00bcf2"/>
    </linearGradient>

    <!-- Glow filter -->
    <filter id="glow" x="-50%" y="-50%" width="200%" height="200%">
      <feGaussianBlur stdDeviation="3" result="coloredBlur"/>
      <feMerge>
        <feMergeNode in="coloredBlur"/>
        <feMergeNode in="SourceGraphic"/>
      </feMerge>
    </filter>

    <!-- Strong glow for logo -->
    <filter id="logoGlow" x="-100%" y="-100%" width="300%" height="300%">
      <feGaussianBlur stdDeviation="6" result="blur1"/>
      <feGaussianBlur stdDeviation="12" result="blur2"/>
      <feMerge>
        <feMergeNode in="blur2"/>
        <feMergeNode in="blur1"/>
        <feMergeNode in="SourceGraphic"/>
      </feMerge>
    </filter>

    <!-- Radial glow behind logo -->
    <radialGradient id="logoBackGlow" cx="50%" cy="50%" r="50%">
      <stop offset="0%" stop-color="#0078d4" stop-opacity="0.4"/>
      <stop offset="50%" stop-color="#0078d4" stop-opacity="0.1"/>
      <stop offset="100%" stop-color="#0078d4" stop-opacity="0"/>
    </radialGradient>

    <!-- Grid pattern -->
    <pattern id="grid" width="50" height="50" patternUnits="userSpaceOnUse">
      <path d="M 50 0 L 0 0 0 50" fill="none" stroke="#1e3a5f" stroke-width="0.5" opacity="0.4"/>
    </pattern>

    <!-- Dot pattern -->
    <pattern id="dots" width="30" height="30" patternUnits="userSpaceOnUse">
      <circle cx="15" cy="15" r="1" fill="#0078d4" opacity="0.2"/>
    </pattern>

    <!-- Gradient for accent line -->
    <linearGradient id="accentGrad" x1="0%" y1="0%" x2="100%" y2="0%">
      <stop offset="0%" stop-color="#005a9e"/>
      <stop offset="25%" stop-color="#0078d4"/>
      <stop offset="50%" stop-color="#00bcf2"/>
      <stop offset="75%" stop-color="#0078d4"/>
      <stop offset="100%" stop-color="#005a9e"/>
    </linearGradient>

    <!-- Neural network gradient -->
    <linearGradient id="neuralGrad" x1="0%" y1="0%" x2="100%" y2="100%">
      <stop offset="0%" stop-color="#7c3aed"/>
      <stop offset="50%" stop-color="#0078d4"/>
      <stop offset="100%" stop-color="#00bcf2"/>
    </linearGradient>
  </defs>

  <!-- Background -->
  <rect width="1200" height="300" fill="url(#bgGrad)"/>

  <!-- Grid overlay -->
  <rect width="1200" height="300" fill="url(#grid)"/>

  <!-- Dot pattern overlay -->
  <rect width="1200" height="300" fill="url(#dots)" opacity="0.5"/>

  <!-- Large decorative orbs -->
  <circle cx="150" cy="150" r="180" fill="url(#logoBackGlow)"/>
  <circle cx="1050" cy="80" r="150" fill="#0078d4" opacity="0.05"/>
  <circle cx="1150" cy="280" r="180" fill="#00bcf2" opacity="0.03"/>
  <circle cx="50" cy="250" r="100" fill="#7c3aed" opacity="0.06"/>

  <!-- Neural network nodes - cognitive theme -->
  <g opacity="0.4">
    <!-- Left side neural cluster -->
    <circle cx="80" cy="60" r="4" fill="#7c3aed"/>
    <circle cx="120" cy="40" r="3" fill="#0078d4"/>
    <circle cx="60" cy="100" r="3" fill="#00bcf2"/>
    <circle cx="140" cy="90" r="2" fill="#7c3aed"/>
    <line x1="80" y1="60" x2="120" y2="40" stroke="#7c3aed" stroke-width="1"/>
    <line x1="80" y1="60" x2="60" y2="100" stroke="#0078d4" stroke-width="1"/>
    <line x1="120" y1="40" x2="140" y2="90" stroke="#00bcf2" stroke-width="0.5"/>

    <!-- Right side neural cluster -->
    <circle cx="1100" cy="70" r="3" fill="#00bcf2"/>
    <circle cx="1140" cy="50" r="2" fill="#0078d4"/>
    <circle cx="1080" cy="100" r="4" fill="#7c3aed"/>
    <circle cx="1120" cy="120" r="2" fill="#0078d4"/>
    <line x1="1100" y1="70" x2="1140" y2="50" stroke="#00bcf2" stroke-width="0.5"/>
    <line x1="1100" y1="70" x2="1080" y2="100" stroke="#7c3aed" stroke-width="1"/>
    <line x1="1080" y1="100" x2="1120" y2="120" stroke="#0078d4" stroke-width="0.5"/>
  </g>

  <!-- Floating particles -->
  <circle cx="300" cy="30" r="1.5" fill="#0078d4" opacity="0.5"/>
  <circle cx="500" cy="50" r="2" fill="#00bcf2" opacity="0.4"/>
  <circle cx="750" cy="25" r="1" fill="#7c3aed" opacity="0.6"/>
  <circle cx="950" cy="45" r="2.5" fill="#00bcf2" opacity="0.3"/>
  <circle cx="400" cy="270" r="2" fill="#00bcf2" opacity="0.4"/>
  <circle cx="700" cy="260" r="1.5" fill="#0078d4" opacity="0.5"/>
  <circle cx="900" cy="275" r="2" fill="#7c3aed" opacity="0.3"/>
  <circle cx="1050" cy="250" r="1" fill="#0078d4" opacity="0.6"/>

  <!-- Logo glow backdrop -->
  <ellipse cx="150" cy="150" rx="120" ry="110" fill="url(#logoBackGlow)"/>

  <!-- Logo mark (scaled) with glow -->
  <g transform="translate(55, 58) scale(6)" filter="url(#logoGlow)">
    <path d="M16 2C8.268 2 2 8.268 2 16s6.268 14 14 14c3.866 0 7.389-1.568 9.928-4.1l-3.535-3.536A9.002 9.002 0 0116 25c-4.97 0-9-4.03-9-9s4.03-9 9-9c2.29 0 4.38.857 5.971 2.268l3.464-3.639C22.993 3.352 19.66 2 16 2z" fill="url(#logoGrad)"/>
    <path d="M20 10l-4 6 4 6h4l-4-6 4-6h-4z" fill="url(#logoGrad)"/>
    <path d="M24 10l4 6-4 6h4l4-6-4-6h-4z" fill="url(#logoGrad)" opacity="0.6"/>
  </g>

  <text x="320" y="54" font-family="Segoe UI, system-ui, sans-serif" font-size="13" font-weight="600" fill="#94a3b8" letter-spacing="3">AUTOMATIC REPOSITORY PORTFOLIO FOR</text>
  <!-- Main name -->
  <text x="320" y="135" font-family="Segoe UI, system-ui, sans-serif" font-size="74" font-weight="700" fill="url(#nameGrad)" filter="url(#glow)">Dr. Fabio Correa, DBA</text>

  <!-- Title line -->
  <text x="320" y="180" font-family="Segoe UI, system-ui, sans-serif" font-size="22" fill="#94a3b8" letter-spacing="1" textLength="800" lengthAdjust="spacingAndGlyphs">Building AI-powered solutions for organizational learning, cognitive architecture, and responsible AI adoption.</text>

  <!-- Tagline with accent -->
  <text x="320" y="220" font-family="Segoe UI, system-ui, sans-serif" font-size="18" fill="url(#accentTextGrad)" letter-spacing="1.5">THINK • BUILD • DEPLOY</text>

  <!-- Decorative accent line -->
  <line x1="320" y1="240" x2="850" y2="240" stroke="#334155" stroke-width="1"/>
  <line x1="320" y1="243" x2="600" y2="243" stroke="url(#accentGrad)" stroke-width="2" opacity="0.6"/>

  <!-- CorreaX branding badge -->
  <g transform="translate(320, 255)" font-family="Segoe UI, system-ui, sans-serif" font-size="12" fill="#94a3b8"><text letter-spacing="1">UPDATED</text><text x="70" font-weight="700">Jul 24 2026 07:31 EDT</text></g>

  <!-- Tech circuit decorations on right -->
  <g opacity="0.25">
    <path d="M1000 140 h80 v40 h40" stroke="#0078d4" stroke-width="1.5" fill="none"/>
    <circle cx="1000" cy="140" r="3" fill="#0078d4"/>
    <circle cx="1120" cy="180" r="4" fill="#00bcf2"/>
    <path d="M1020 200 h60 v-25 h30" stroke="#7c3aed" stroke-width="1" fill="none"/>
    <circle cx="1020" cy="200" r="2" fill="#7c3aed"/>
    <path d="M980 100 h50 l20 20 h40" stroke="#00bcf2" stroke-width="1" fill="none"/>
    <circle cx="980" cy="100" r="2" fill="#00bcf2"/>
  </g>

  <!-- Bottom accent bar with glow -->
  <rect x="0" y="290" width="1200" height="10" fill="url(#accentGrad)" filter="url(#glow)"/>
</g>
<g transform="translate(0, 217)">
<rect width="820" height="416" fill="none"/>
  <rect x="3" y="3" width="263.4835680751174" height="202" rx="6" fill="#57606a" opacity="0.15" stroke="#57606a" stroke-width="1.5"/><path d="M9,3 h251.48356807511738 a6,6 0 0 1 6,6 v16 h-263.4835680751174 v-16 a6,6 0 0 1 6,-6 z" fill="#57606a" opacity="0.1"/><line x1="3" y1="25" x2="266.4835680751174" y2="25" stroke="#57606a" stroke-width="0.75" opacity="0.45"/><text x="11" y="19" font-size="12" fill="#57606a" font-family="system-ui,-apple-system,Segoe UI,Roboto,sans-serif" font-weight="700">Other</text>
  <rect x="4" y="27" width="42.734311423458024" height="176" rx="3" fill="#57606a" opacity="0.36"/>
  <text x="25.367155711729012" y="115" text-anchor="middle" dominant-baseline="central" font-size="16" fill="#57606a" font-family="system-ui,sans-serif" font-weight="600" transform="rotate(-90,25.367155711729012,115)">prompt engineering</text>
  <rect x="47.734311423458024" y="27" width="39.56428446577719" height="176" rx="3" fill="#57606a" opacity="0.34"/>
  <text x="67.51645365634661" y="115" text-anchor="middle" dominant-baseline="central" font-size="16" fill="#57606a" font-family="system-ui,sans-serif" font-weight="600" transform="rotate(-90,67.51645365634661,115)">mcp</text>
  <rect x="88.29859588923522" y="27" width="32.30410299315903" height="176" rx="3" fill="#57606a" opacity="0.29"/>
  <text x="104.45064738581473" y="115" text-anchor="middle" dominant-baseline="central" font-size="16" fill="#57606a" font-family="system-ui,sans-serif" font-weight="400" transform="rotate(-90,104.45064738581473,115)">python</text>
  <rect x="121.60269888239424" y="27" width="27.976173838544636" height="176" rx="3" fill="#57606a" opacity="0.27"/>
  <text x="135.59078580166656" y="115" text-anchor="middle" dominant-baseline="central" font-size="16" fill="#57606a" font-family="system-ui,sans-serif" font-weight="400" transform="rotate(-90,135.59078580166656,115)">dashboard</text>
  <rect x="150.57887272093888" y="27" width="27.976173838544636" height="176" rx="3" fill="#57606a" opacity="0.27"/>
  <text x="164.5669596402112" y="115" text-anchor="middle" dominant-baseline="central" font-size="16" fill="#57606a" font-family="system-ui,sans-serif" font-weight="400" transform="rotate(-90,164.5669596402112,115)">fleet</text>
  <rect x="179.55504655948351" y="27" width="27.976173838544636" height="176" rx="3" fill="#57606a" opacity="0.27"/>
  <text x="193.54313347875583" y="115" text-anchor="middle" dominant-baseline="central" font-size="16" fill="#57606a" font-family="system-ui,sans-serif" font-weight="400" transform="rotate(-90,193.54313347875583,115)">dialog engineering</text>
  <rect x="208.53122039802815" y="27" width="27.976173838544636" height="176" rx="3" fill="#57606a" opacity="0.27"/>
  <text x="222.51930731730047" y="115" text-anchor="middle" dominant-baseline="central" font-size="16" fill="#57606a" font-family="system-ui,sans-serif" font-weight="400" transform="rotate(-90,222.51930731730047,115)">llm</text>
  <rect x="237.5073942365728" y="27" width="27.976173838544582" height="176" rx="3" fill="#57606a" opacity="0.27"/>
  <text x="251.49548115584508" y="115" text-anchor="middle" dominant-baseline="central" font-size="16" fill="#57606a" font-family="system-ui,sans-serif" font-weight="400" transform="rotate(-90,251.49548115584508,115)">generative ai</text>
  <rect x="272.4835680751174" y="3" width="174.93896713615024" height="202" rx="6" fill="#4e79a7" opacity="0.15" stroke="#4e79a7" stroke-width="1.5"/><path d="M278.4835680751174,3 h162.93896713615024 a6,6 0 0 1 6,6 v16 h-174.93896713615024 v-16 a6,6 0 0 1 6,-6 z" fill="#4e79a7" opacity="0.1"/><line x1="272.4835680751174" y1="25" x2="447.4225352112676" y2="25" stroke="#4e79a7" stroke-width="0.75" opacity="0.45"/><text x="280.4835680751174" y="19" font-size="12" fill="#4e79a7" font-family="system-ui,-apple-system,Segoe UI,Roboto,sans-serif" font-weight="700">AI &amp; Copilot</text>
  <rect x="273.4835680751174" y="27" width="30.044003759478702" height="176" rx="3" fill="#4e79a7" opacity="0.45"/>
  <text x="288.50556995485675" y="115" text-anchor="middle" dominant-baseline="central" font-size="16" fill="#4e79a7" font-family="system-ui,sans-serif" font-weight="600" transform="rotate(-90,288.50556995485675,115)">github copilot</text>
  <rect x="304.5275718345961" y="27" width="23.96682391310006" height="176" rx="3" fill="#4e79a7" opacity="0.36"/>
  <text x="316.5109837911461" y="115" text-anchor="middle" dominant-baseline="central" font-size="16" fill="#4e79a7" font-family="system-ui,sans-serif" font-weight="600" transform="rotate(-90,316.5109837911461,115)">ai assistant</text>
  <rect x="329.49439574769616" y="27" width="23.96682391310006" height="176" rx="3" fill="#4e79a7" opacity="0.36"/>
  <text x="341.4778077042462" y="115" text-anchor="middle" dominant-baseline="central" font-size="16" fill="#4e79a7" font-family="system-ui,sans-serif" font-weight="600" transform="rotate(-90,341.4778077042462,115)">copilot</text>
  <rect x="354.46121966079625" y="27" width="23.96682391310006" height="176" rx="3" fill="#4e79a7" opacity="0.36"/>
  <text x="366.44463161734626" y="115" text-anchor="middle" dominant-baseline="central" font-size="16" fill="#4e79a7" font-family="system-ui,sans-serif" font-weight="600" transform="rotate(-90,366.44463161734626,115)">ai</text>
  <rect x="379.42804357389633" y="27" width="20.25566320248567" height="176" rx="3" fill="#4e79a7" opacity="0.32"/>
  <text x="389.5558751751392" y="115" text-anchor="middle" dominant-baseline="central" font-size="15" fill="#4e79a7" font-family="system-ui,sans-serif" font-weight="400" transform="rotate(-90,389.5558751751392,115)">claude</text>
  <rect x="400.683706776382" y="27" width="18.117215940039618" height="176" rx="3" fill="#4e79a7" opacity="0.29"/>
  <text x="409.7423147464018" y="115" text-anchor="middle" dominant-baseline="central" font-size="13" fill="#4e79a7" font-family="system-ui,sans-serif" font-weight="400" transform="rotate(-90,409.7423147464018,115)">azure openai</text>
  <rect x="419.8009227164216" y="27" width="12.810806247423027" height="176" rx="3" fill="#4e79a7" opacity="0.25"/>
  <text x="426.2063258401331" y="115" text-anchor="middle" dominant-baseline="central" font-size="9" fill="#4e79a7" font-family="system-ui,sans-serif" font-weight="400" transform="rotate(-90,426.2063258401331,115)">openai</text>
  <rect x="433.61172896384466" y="27" width="12.810806247422931" height="176" rx="3" fill="#4e79a7" opacity="0.25"/>
  <text x="440.0171320875561" y="115" text-anchor="middle" dominant-baseline="central" font-size="9" fill="#4e79a7" font-family="system-ui,sans-serif" font-weight="400" transform="rotate(-90,440.0171320875561,115)">chatgpt</text>
  <rect x="453.4225352112676" y="3" width="140.29107981220656" height="202" rx="6" fill="#f28e2b" opacity="0.15" stroke="#f28e2b" stroke-width="1.5"/><path d="M459.4225352112676,3 h128.29107981220656 a6,6 0 0 1 6,6 v16 h-140.29107981220656 v-16 a6,6 0 0 1 6,-6 z" fill="#f28e2b" opacity="0.1"/><line x1="453.4225352112676" y1="25" x2="593.7136150234742" y2="25" stroke="#f28e2b" stroke-width="0.75" opacity="0.45"/><text x="461.4225352112676" y="19" font-size="12" fill="#f28e2b" font-family="system-ui,-apple-system,Segoe UI,Roboto,sans-serif" font-weight="700">Cognitive Architec…</text>
  <rect x="454.4225352112676" y="27" width="26.201340292159472" height="176" rx="3" fill="#f28e2b" opacity="0.45"/>
  <text x="467.5232053573473" y="115" text-anchor="middle" dominant-baseline="central" font-size="13" fill="#f28e2b" font-family="system-ui,sans-serif" font-weight="600" transform="rotate(-90,467.5232053573473,115)">cognitive architecture</text>
  <rect x="481.62387550342703" y="27" width="22.344578079062074" height="176" rx="3" fill="#f28e2b" opacity="0.38"/>
  <text x="492.7961645429581" y="115" text-anchor="middle" dominant-baseline="central" font-size="16" fill="#f28e2b" font-family="system-ui,sans-serif" font-weight="600" transform="rotate(-90,492.7961645429581,115)">agentic</text>
  <rect x="504.96845358248913" y="27" width="19.35097225331265" height="176" rx="3" fill="#f28e2b" opacity="0.34"/>
  <text x="514.6439397091455" y="115" text-anchor="middle" dominant-baseline="central" font-size="14" fill="#f28e2b" font-family="system-ui,sans-serif" font-weight="600" transform="rotate(-90,514.6439397091455,115)">critical thinking</text>
  <rect x="525.3194258358018" y="27" width="13.683203702870099" height="176" rx="3" fill="#f28e2b" opacity="0.27"/>
  <text x="532.1610276872368" y="115" text-anchor="middle" dominant-baseline="central" font-size="10" fill="#f28e2b" font-family="system-ui,sans-serif" font-weight="400" transform="rotate(-90,532.1610276872368,115)">agentic ai</text>
  <rect x="540.0026295386718" y="27" width="13.683203702870099" height="176" rx="3" fill="#f28e2b" opacity="0.27"/>
  <text x="546.8442313901069" y="115" text-anchor="middle" dominant-baseline="central" font-size="10" fill="#f28e2b" font-family="system-ui,sans-serif" font-weight="400" transform="rotate(-90,546.8442313901069,115)">model context protocol</text>
  <rect x="554.6858332415419" y="27" width="13.683203702870099" height="176" rx="3" fill="#f28e2b" opacity="0.27"/>
  <text x="561.5274350929769" y="115" text-anchor="middle" dominant-baseline="central" font-size="10" fill="#f28e2b" font-family="system-ui,sans-serif" font-weight="400" transform="rotate(-90,561.5274350929769,115)">alex act edition</text>
  <rect x="569.369036944412" y="27" width="11.172289039531037" height="176" rx="3" fill="#f28e2b" opacity="0.25"/>
  <text x="574.9551814641775" y="115" text-anchor="middle" dominant-baseline="central" font-size="8" fill="#f28e2b" font-family="system-ui,sans-serif" font-weight="400" transform="rotate(-90,574.9551814641775,115)">act framework</text>
  <rect x="581.541325983943" y="27" width="11.172289039531165" height="176" rx="3" fill="#f28e2b" opacity="0.25"/>
  <text x="587.1274705037085" y="115" text-anchor="middle" dominant-baseline="central" font-size="8" fill="#f28e2b" font-family="system-ui,sans-serif" font-weight="400" transform="rotate(-90,587.1274705037085,115)">epistemic integrity</text>
  <rect x="599.7136150234742" y="3" width="105.64319248826291" height="202" rx="6" fill="#76b7b2" opacity="0.15" stroke="#76b7b2" stroke-width="1.5"/><path d="M605.7136150234742,3 h93.64319248826291 a6,6 0 0 1 6,6 v16 h-105.64319248826291 v-16 a6,6 0 0 1 6,-6 z" fill="#76b7b2" opacity="0.1"/><line x1="599.7136150234742" y1="25" x2="705.3568075117371" y2="25" stroke="#76b7b2" stroke-width="0.75" opacity="0.45"/><text x="607.7136150234742" y="19" font-size="12" fill="#76b7b2" font-family="system-ui,-apple-system,Segoe UI,Roboto,sans-serif" font-weight="700">AI Agents &amp; S…</text>
  <rect x="600.7136150234742" y="27" width="20.930835376884193" height="176" rx="3" fill="#76b7b2" opacity="0.43"/>
  <text x="611.1790327119163" y="115" text-anchor="middle" dominant-baseline="central" font-size="15" fill="#76b7b2" font-family="system-ui,sans-serif" font-weight="600" transform="rotate(-90,611.1790327119163,115)">agent</text>
  <rect x="622.6444504003583" y="27" width="13.237822624196575" height="176" rx="3" fill="#76b7b2" opacity="0.29"/>
  <text x="629.2633617124566" y="115" text-anchor="middle" dominant-baseline="central" font-size="9" fill="#76b7b2" font-family="system-ui,sans-serif" font-weight="400" transform="rotate(-90,629.2633617124566,115)">ai agents</text>
  <rect x="636.8822730245549" y="27" width="11.464290683346617" height="176" rx="3" fill="#76b7b2" opacity="0.27"/>
  <text x="642.6144183662283" y="115" text-anchor="middle" dominant-baseline="central" font-size="8" fill="#76b7b2" font-family="system-ui,sans-serif" font-weight="400" transform="rotate(-90,642.6144183662283,115)">agent skills</text>
  <rect x="649.3465637079015" y="27" width="11.464290683346617" height="176" rx="3" fill="#76b7b2" opacity="0.27"/>
  <text x="655.0787090495749" y="115" text-anchor="middle" dominant-baseline="central" font-size="8" fill="#76b7b2" font-family="system-ui,sans-serif" font-weight="400" transform="rotate(-90,655.0787090495749,115)">ai agent</text>
  <rect x="661.8108543912481" y="27" width="11.464290683346617" height="176" rx="3" fill="#76b7b2" opacity="0.27"/>
  <text x="667.5429997329214" y="115" text-anchor="middle" dominant-baseline="central" font-size="8" fill="#76b7b2" font-family="system-ui,sans-serif" font-weight="400" transform="rotate(-90,667.5429997329214,115)">skills</text>
  <rect x="674.2751450745947" y="27" width="9.360554145714097" height="176" rx="3" fill="#76b7b2" opacity="0.25"/>
  <text x="678.9554221474517" y="115" text-anchor="middle" dominant-baseline="central" font-size="7" fill="#76b7b2" font-family="system-ui,sans-serif" font-weight="400" transform="rotate(-90,678.9554221474517,115)">claude skills</text>
  <rect x="684.6356992203088" y="27" width="9.360554145714097" height="176" rx="3" fill="#76b7b2" opacity="0.25"/>
  <text x="689.3159762931658" y="115" text-anchor="middle" dominant-baseline="central" font-size="7" fill="#76b7b2" font-family="system-ui,sans-serif" font-weight="400" transform="rotate(-90,689.3159762931658,115)">copilot skills</text>
  <rect x="694.9962533660229" y="27" width="9.360554145714218" height="176" rx="3" fill="#76b7b2" opacity="0.25"/>
  <text x="699.67653043888" y="115" text-anchor="middle" dominant-baseline="central" font-size="7" fill="#76b7b2" font-family="system-ui,sans-serif" font-weight="400" transform="rotate(-90,699.67653043888,115)">cursor skills</text>
  <rect x="711.3568075117371" y="3" width="105.64319248826291" height="202" rx="6" fill="#e15759" opacity="0.15" stroke="#e15759" stroke-width="1.5"/><path d="M717.3568075117371,3 h93.64319248826291 a6,6 0 0 1 6,6 v16 h-105.64319248826291 v-16 a6,6 0 0 1 6,-6 z" fill="#e15759" opacity="0.1"/><line x1="711.3568075117371" y1="25" x2="817" y2="25" stroke="#e15759" stroke-width="0.75" opacity="0.45"/><text x="719.3568075117371" y="19" font-size="12" fill="#e15759" font-family="system-ui,-apple-system,Segoe UI,Roboto,sans-serif" font-weight="700">Learning &amp; Re…</text>
  <rect x="712.3568075117371" y="27" width="13.645383093684138" height="176" rx="3" fill="#e15759" opacity="0.27"/>
  <text x="719.1794990585792" y="115" text-anchor="middle" dominant-baseline="central" font-size="10" fill="#e15759" font-family="system-ui,sans-serif" font-weight="400" transform="rotate(-90,719.1794990585792,115)">learning</text>
  <rect x="727.0021906054212" y="27" width="13.645383093684138" height="176" rx="3" fill="#e15759" opacity="0.27"/>
  <text x="733.8248821522633" y="115" text-anchor="middle" dominant-baseline="central" font-size="10" fill="#e15759" font-family="system-ui,sans-serif" font-weight="400" transform="rotate(-90,733.8248821522633,115)">tutorial</text>
  <rect x="741.6475736991054" y="27" width="13.645383093684138" height="176" rx="3" fill="#e15759" opacity="0.27"/>
  <text x="748.4702652459474" y="115" text-anchor="middle" dominant-baseline="central" font-size="10" fill="#e15759" font-family="system-ui,sans-serif" font-weight="400" transform="rotate(-90,748.4702652459474,115)">utaut2</text>
  <rect x="756.2929567927895" y="27" width="11.141408641442096" height="176" rx="3" fill="#e15759" opacity="0.25"/>
  <text x="761.8636611135105" y="115" text-anchor="middle" dominant-baseline="central" font-size="8" fill="#e15759" font-family="system-ui,sans-serif" font-weight="400" transform="rotate(-90,761.8636611135105,115)">neuroscience</text>
  <rect x="768.4343654342316" y="27" width="11.141408641442096" height="176" rx="3" fill="#e15759" opacity="0.25"/>
  <text x="774.0050697549526" y="115" text-anchor="middle" dominant-baseline="central" font-size="8" fill="#e15759" font-family="system-ui,sans-serif" font-weight="400" transform="rotate(-90,774.0050697549526,115)">research</text>
  <rect x="780.5757740756737" y="27" width="11.141408641442096" height="176" rx="3" fill="#e15759" opacity="0.25"/>
  <text x="786.1464783963947" y="115" text-anchor="middle" dominant-baseline="central" font-size="8" fill="#e15759" font-family="system-ui,sans-serif" font-weight="400" transform="rotate(-90,786.1464783963947,115)">cognitive science</text>
  <rect x="792.7171827171159" y="27" width="11.141408641442096" height="176" rx="3" fill="#e15759" opacity="0.25"/>
  <text x="798.2878870378369" y="115" text-anchor="middle" dominant-baseline="central" font-size="8" fill="#e15759" font-family="system-ui,sans-serif" font-weight="400" transform="rotate(-90,798.2878870378369,115)">academic research</text>
  <rect x="804.858591358558" y="27" width="11.141408641442013" height="176" rx="3" fill="#e15759" opacity="0.25"/>
  <text x="810.429295679279" y="115" text-anchor="middle" dominant-baseline="central" font-size="8" fill="#e15759" font-family="system-ui,sans-serif" font-weight="400" transform="rotate(-90,810.429295679279,115)">memory systems</text>
  <rect x="3" y="211" width="277.45679012345676" height="202" rx="6" fill="#b07aa1" opacity="0.15" stroke="#b07aa1" stroke-width="1.5"/><path d="M9,211 h265.45679012345676 a6,6 0 0 1 6,6 v16 h-277.45679012345676 v-16 a6,6 0 0 1 6,-6 z" fill="#b07aa1" opacity="0.1"/><line x1="3" y1="233" x2="280.45679012345676" y2="233" stroke="#b07aa1" stroke-width="0.75" opacity="0.45"/><text x="11" y="227" font-size="12" fill="#b07aa1" font-family="system-ui,-apple-system,Segoe UI,Roboto,sans-serif" font-weight="700">Developer Tools</text>
  <rect x="4" y="235" width="48.68676736986892" height="176" rx="3" fill="#b07aa1" opacity="0.36"/>
  <text x="28.34338368493446" y="323" text-anchor="middle" dominant-baseline="central" font-size="16" fill="#b07aa1" font-family="system-ui,sans-serif" font-weight="600" transform="rotate(-90,28.34338368493446,323)">typescript</text>
  <rect x="53.68676736986892" y="235" width="41.14782859162222" height="176" rx="3" fill="#b07aa1" opacity="0.32"/>
  <text x="74.26068166568002" y="323" text-anchor="middle" dominant-baseline="central" font-size="16" fill="#b07aa1" font-family="system-ui,sans-serif" font-weight="400" transform="rotate(-90,74.26068166568002,323)">vscode extension</text>
  <rect x="95.83459596149115" y="235" width="36.80373674295069" height="176" rx="3" fill="#b07aa1" opacity="0.29"/>
  <text x="114.23646433296649" y="323" text-anchor="middle" dominant-baseline="central" font-size="16" fill="#b07aa1" font-family="system-ui,sans-serif" font-weight="400" transform="rotate(-90,114.23646433296649,323)">vscode</text>
  <rect x="133.63833270444184" y="235" width="31.872970973590046" height="176" rx="3" fill="#b07aa1" opacity="0.27"/>
  <text x="149.57481819123686" y="323" text-anchor="middle" dominant-baseline="central" font-size="16" fill="#b07aa1" font-family="system-ui,sans-serif" font-weight="400" transform="rotate(-90,149.57481819123686,323)">react</text>
  <rect x="166.51130367803188" y="235" width="31.872970973590046" height="176" rx="3" fill="#b07aa1" opacity="0.27"/>
  <text x="182.4477891648269" y="323" text-anchor="middle" dominant-baseline="central" font-size="16" fill="#b07aa1" font-family="system-ui,sans-serif" font-weight="400" transform="rotate(-90,182.4477891648269,323)">developer tools</text>
  <rect x="199.38427465162192" y="235" width="26.024171823944933" height="176" rx="3" fill="#b07aa1" opacity="0.25"/>
  <text x="212.39636056359438" y="323" text-anchor="middle" dominant-baseline="central" font-size="16" fill="#b07aa1" font-family="system-ui,sans-serif" font-weight="400" transform="rotate(-90,212.39636056359438,323)">markdown</text>
  <rect x="226.40844647556685" y="235" width="26.024171823944933" height="176" rx="3" fill="#b07aa1" opacity="0.25"/>
  <text x="239.4205323875393" y="323" text-anchor="middle" dominant-baseline="central" font-size="16" fill="#b07aa1" font-family="system-ui,sans-serif" font-weight="400" transform="rotate(-90,239.4205323875393,323)">pdf</text>
  <rect x="253.43261829951177" y="235" width="26.024171823944982" height="176" rx="3" fill="#b07aa1" opacity="0.25"/>
  <text x="266.44470421148424" y="323" text-anchor="middle" dominant-baseline="central" font-size="16" fill="#b07aa1" font-family="system-ui,sans-serif" font-weight="400" transform="rotate(-90,266.44470421148424,323)">svg</text>
  <rect x="286.45679012345676" y="211" width="186.34567901234567" height="202" rx="6" fill="#ff9da7" opacity="0.15" stroke="#ff9da7" stroke-width="1.5"/><path d="M292.45679012345676,211 h174.34567901234567 a6,6 0 0 1 6,6 v16 h-186.34567901234567 v-16 a6,6 0 0 1 6,-6 z" fill="#ff9da7" opacity="0.1"/><line x1="286.45679012345676" y1="233" x2="472.8024691358024" y2="233" stroke="#ff9da7" stroke-width="0.75" opacity="0.45"/><text x="294.45679012345676" y="227" font-size="12" fill="#ff9da7" font-family="system-ui,-apple-system,Segoe UI,Roboto,sans-serif" font-weight="700">Media &amp; Entertainment</text>
  <rect x="287.45679012345676" y="235" width="26.408504364595508" height="176" rx="3" fill="#ff9da7" opacity="0.27"/>
  <text x="300.6610423057545" y="323" text-anchor="middle" dominant-baseline="central" font-size="16" fill="#ff9da7" font-family="system-ui,sans-serif" font-weight="400" transform="rotate(-90,300.6610423057545,323)">spotify api</text>
  <rect x="314.86529448805226" y="235" width="21.562453521107166" height="176" rx="3" fill="#ff9da7" opacity="0.25"/>
  <text x="325.64652124860584" y="323" text-anchor="middle" dominant-baseline="central" font-size="16" fill="#ff9da7" font-family="system-ui,sans-serif" font-weight="400" transform="rotate(-90,325.64652124860584,323)">video analysis</text>
  <rect x="337.4277480091594" y="235" width="21.562453521107166" height="176" rx="3" fill="#ff9da7" opacity="0.25"/>
  <text x="348.208974769713" y="323" text-anchor="middle" dominant-baseline="central" font-size="16" fill="#ff9da7" font-family="system-ui,sans-serif" font-weight="400" transform="rotate(-90,348.208974769713,323)">youtube</text>
  <rect x="359.9902015302666" y="235" width="21.562453521107166" height="176" rx="3" fill="#ff9da7" opacity="0.25"/>
  <text x="370.77142829082015" y="323" text-anchor="middle" dominant-baseline="central" font-size="16" fill="#ff9da7" font-family="system-ui,sans-serif" font-weight="400" transform="rotate(-90,370.77142829082015,323)">youtube api</text>
  <rect x="382.55265505137373" y="235" width="21.562453521107166" height="176" rx="3" fill="#ff9da7" opacity="0.25"/>
  <text x="393.3338818119273" y="323" text-anchor="middle" dominant-baseline="central" font-size="16" fill="#ff9da7" font-family="system-ui,sans-serif" font-weight="400" transform="rotate(-90,393.3338818119273,323)">music</text>
  <rect x="405.1151085724809" y="235" width="21.562453521107166" height="176" rx="3" fill="#ff9da7" opacity="0.25"/>
  <text x="415.8963353330345" y="323" text-anchor="middle" dominant-baseline="central" font-size="16" fill="#ff9da7" font-family="system-ui,sans-serif" font-weight="400" transform="rotate(-90,415.8963353330345,323)">playlist</text>
  <rect x="427.67756209358805" y="235" width="21.562453521107166" height="176" rx="3" fill="#ff9da7" opacity="0.25"/>
  <text x="438.45878885414163" y="323" text-anchor="middle" dominant-baseline="central" font-size="16" fill="#ff9da7" font-family="system-ui,sans-serif" font-weight="400" transform="rotate(-90,438.45878885414163,323)">spotify</text>
  <rect x="450.2400156146952" y="235" width="21.562453521107216" height="176" rx="3" fill="#ff9da7" opacity="0.25"/>
  <text x="461.0212423752488" y="323" text-anchor="middle" dominant-baseline="central" font-size="16" fill="#ff9da7" font-family="system-ui,sans-serif" font-weight="400" transform="rotate(-90,461.0212423752488,323)">audio</text>
  <rect x="478.8024691358024" y="211" width="176.2222222222222" height="202" rx="6" fill="#59a14f" opacity="0.15" stroke="#59a14f" stroke-width="1.5"/><path d="M484.8024691358024,211 h164.2222222222222 a6,6 0 0 1 6,6 v16 h-176.2222222222222 v-16 a6,6 0 0 1 6,-6 z" fill="#59a14f" opacity="0.1"/><line x1="478.8024691358024" y1="233" x2="655.0246913580246" y2="233" stroke="#59a14f" stroke-width="0.75" opacity="0.45"/><text x="486.8024691358024" y="227" font-size="12" fill="#59a14f" font-family="system-ui,-apple-system,Segoe UI,Roboto,sans-serif" font-weight="700">Cloud &amp; Azure</text>
  <rect x="479.8024691358024" y="235" width="44.617364051234325" height="176" rx="3" fill="#59a14f" opacity="0.36"/>
  <text x="502.11115116141957" y="323" text-anchor="middle" dominant-baseline="central" font-size="16" fill="#59a14f" font-family="system-ui,sans-serif" font-weight="600" transform="rotate(-90,502.11115116141957,323)">azure</text>
  <rect x="525.4198331870367" y="235" width="29.208921153454693" height="176" rx="3" fill="#59a14f" opacity="0.27"/>
  <text x="540.024293763764" y="323" text-anchor="middle" dominant-baseline="central" font-size="16" fill="#59a14f" font-family="system-ui,sans-serif" font-weight="400" transform="rotate(-90,540.024293763764,323)">azure functions</text>
  <rect x="555.6287543404914" y="235" width="23.848984254383293" height="176" rx="3" fill="#59a14f" opacity="0.25"/>
  <text x="567.553246467683" y="323" text-anchor="middle" dominant-baseline="central" font-size="13" fill="#59a14f" font-family="system-ui,sans-serif" font-weight="400" transform="rotate(-90,567.553246467683,323)">azure static web apps</text>
  <rect x="580.4777385948746" y="235" width="23.848984254383293" height="176" rx="3" fill="#59a14f" opacity="0.25"/>
  <text x="592.4022307220663" y="323" text-anchor="middle" dominant-baseline="central" font-size="16" fill="#59a14f" font-family="system-ui,sans-serif" font-weight="400" transform="rotate(-90,592.4022307220663,323)">serverless</text>
  <rect x="605.3267228492579" y="235" width="23.848984254383293" height="176" rx="3" fill="#59a14f" opacity="0.25"/>
  <text x="617.2512149764495" y="323" text-anchor="middle" dominant-baseline="central" font-size="16" fill="#59a14f" font-family="system-ui,sans-serif" font-weight="400" transform="rotate(-90,617.2512149764495,323)">devops</text>
  <rect x="630.1757071036411" y="235" width="23.84898425438348" height="176" rx="3" fill="#59a14f" opacity="0.25"/>
  <text x="642.1001992308329" y="323" text-anchor="middle" dominant-baseline="central" font-size="16" fill="#59a14f" font-family="system-ui,sans-serif" font-weight="400" transform="rotate(-90,642.1001992308329,323)">nodejs</text>
  <rect x="661.0246913580246" y="211" width="155.9753086419754" height="202" rx="6" fill="#edc948" opacity="0.15" stroke="#edc948" stroke-width="1.5"/><path d="M667.0246913580246,211 h143.9753086419754 a6,6 0 0 1 6,6 v16 h-155.9753086419754 v-16 a6,6 0 0 1 6,-6 z" fill="#edc948" opacity="0.1"/><line x1="661.0246913580246" y1="233" x2="817" y2="233" stroke="#edc948" stroke-width="0.75" opacity="0.45"/><text x="669.0246913580246" y="227" font-size="12" fill="#edc948" font-family="system-ui,-apple-system,Segoe UI,Roboto,sans-serif" font-weight="700">Responsible AI</text>
  <rect x="662.0246913580246" y="235" width="30.695222764353232" height="176" rx="3" fill="#edc948" opacity="0.29"/>
  <text x="677.3723027402012" y="323" text-anchor="middle" dominant-baseline="central" font-size="16" fill="#edc948" font-family="system-ui,sans-serif" font-weight="400" transform="rotate(-90,677.3723027402012,323)">responsible ai</text>
  <rect x="693.7199141223779" y="235" width="26.582842688752297" height="176" rx="3" fill="#edc948" opacity="0.27"/>
  <text x="707.0113354667541" y="323" text-anchor="middle" dominant-baseline="central" font-size="16" fill="#edc948" font-family="system-ui,sans-serif" font-weight="400" transform="rotate(-90,707.0113354667541,323)">ai adoption</text>
  <rect x="721.3027568111302" y="235" width="26.582842688752297" height="176" rx="3" fill="#edc948" opacity="0.27"/>
  <text x="734.5941781555064" y="323" text-anchor="middle" dominant-baseline="central" font-size="16" fill="#edc948" font-family="system-ui,sans-serif" font-weight="400" transform="rotate(-90,734.5941781555064,323)">ai governance</text>
  <rect x="748.8855994998825" y="235" width="21.704800166705855" height="176" rx="3" fill="#edc948" opacity="0.25"/>
  <text x="759.7379995832354" y="323" text-anchor="middle" dominant-baseline="central" font-size="13" fill="#edc948" font-family="system-ui,sans-serif" font-weight="400" transform="rotate(-90,759.7379995832354,323)">human ai collaboration</text>
  <rect x="771.5903996665883" y="235" width="21.704800166705855" height="176" rx="3" fill="#edc948" opacity="0.25"/>
  <text x="782.4427997499412" y="323" text-anchor="middle" dominant-baseline="central" font-size="16" fill="#edc948" font-family="system-ui,sans-serif" font-weight="400" transform="rotate(-90,782.4427997499412,323)">ai coaching</text>
  <rect x="794.2951998332941" y="235" width="21.704800166705922" height="176" rx="3" fill="#edc948" opacity="0.25"/>
  <text x="805.1475999166471" y="323" text-anchor="middle" dominant-baseline="central" font-size="16" fill="#edc948" font-family="system-ui,sans-serif" font-weight="400" transform="rotate(-90,805.1475999166471,323)">governance</text>
</g>
<g transform="translate(0, 639)">
<title>Portfolio at a Glance</title>
<rect width="820" height="270" fill="none"/>
<rect x="3" y="3" width="328.82" height="264" rx="6" fill="#0969da" opacity="0.15" stroke="#0969da" stroke-width="1.5"/><path d="M9,3 h316.82 a6,6 0 0 1 6,6 v26 h-328.82 v-26 a6,6 0 0 1 6,-6 z" fill="#0969da" opacity="0.1"/><line x1="3" y1="35" x2="331.82" y2="35" stroke="#0969da" stroke-width="0.75" opacity="0.45"/><text x="11" y="19" font-size="12" fill="#0969da" font-family="system-ui,-apple-system,Segoe UI,Roboto,sans-serif" font-weight="700">Top Languages</text><text x="11" y="31" font-size="9" fill="#0969da" opacity="0.95" font-weight="600" font-family="system-ui,-apple-system,Segoe UI,Roboto,sans-serif">By lines of code</text>
<g transform="translate(11, 41)">
<text x="4" y="28" font-size="11" fill="#0969da" font-family="system-ui,-apple-system,Segoe UI,Roboto,sans-serif">Python</text><rect x="137.3844" y="15" width="175.4356" height="18" rx="3" fill="#0969da" opacity="0.12"/><rect x="137.3844" y="15" width="109" height="18" rx="3" fill="#0969da" opacity="0.55"/><text x="251.3844" y="28" font-size="10" fill="#0969da" font-weight="700" font-family="system-ui,-apple-system,Segoe UI,Roboto,sans-serif">62.4%</text><text x="4" y="62" font-size="11" fill="#0969da" font-family="system-ui,-apple-system,Segoe UI,Roboto,sans-serif">Gherkin</text><rect x="137.3844" y="49" width="175.4356" height="18" rx="3" fill="#0969da" opacity="0.12"/><rect x="137.3844" y="49" width="22" height="18" rx="3" fill="#0969da" opacity="0.55"/><text x="164.3844" y="62" font-size="10" fill="#0969da" font-weight="700" font-family="system-ui,-apple-system,Segoe UI,Roboto,sans-serif">12.6%</text><text x="4" y="96" font-size="11" fill="#0969da" font-family="system-ui,-apple-system,Segoe UI,Roboto,sans-serif">JavaScript</text><rect x="137.3844" y="83" width="175.4356" height="18" rx="3" fill="#0969da" opacity="0.12"/><rect x="137.3844" y="83" width="14" height="18" rx="3" fill="#0969da" opacity="0.55"/><text x="156.3844" y="96" font-size="10" fill="#0969da" font-weight="700" font-family="system-ui,-apple-system,Segoe UI,Roboto,sans-serif">8.1%</text><text x="4" y="130" font-size="11" fill="#0969da" font-family="system-ui,-apple-system,Segoe UI,Roboto,sans-serif">TypeScript</text><rect x="137.3844" y="117" width="175.4356" height="18" rx="3" fill="#0969da" opacity="0.12"/><rect x="137.3844" y="117" width="13" height="18" rx="3" fill="#0969da" opacity="0.55"/><text x="155.3844" y="130" font-size="10" fill="#0969da" font-weight="700" font-family="system-ui,-apple-system,Segoe UI,Roboto,sans-serif">7.7%</text><text x="4" y="164" font-size="11" fill="#0969da" font-family="system-ui,-apple-system,Segoe UI,Roboto,sans-serif">Jupyter Notebook</text><rect x="137.3844" y="151" width="175.4356" height="18" rx="3" fill="#0969da" opacity="0.12"/><rect x="137.3844" y="151" width="8" height="18" rx="3" fill="#0969da" opacity="0.55"/><text x="150.3844" y="164" font-size="10" fill="#0969da" font-weight="700" font-family="system-ui,-apple-system,Segoe UI,Roboto,sans-serif">4.4%</text><text x="4" y="198" font-size="11" fill="#0969da" font-family="system-ui,-apple-system,Segoe UI,Roboto,sans-serif">Cython</text><rect x="137.3844" y="185" width="175.4356" height="18" rx="3" fill="#0969da" opacity="0.12"/><rect x="137.3844" y="185" width="2" height="18" rx="3" fill="#0969da" opacity="0.55"/><text x="144.3844" y="198" font-size="10" fill="#0969da" font-weight="700" font-family="system-ui,-apple-system,Segoe UI,Roboto,sans-serif">1.4%</text>
</g>
<rect x="337.82" y="3" width="144.35999999999999" height="264" rx="6" fill="#9a6700" opacity="0.15" stroke="#9a6700" stroke-width="1.5"/><path d="M343.82,3 h132.35999999999999 a6,6 0 0 1 6,6 v26 h-144.35999999999999 v-26 a6,6 0 0 1 6,-6 z" fill="#9a6700" opacity="0.1"/><line x1="337.82" y1="35" x2="482.17999999999995" y2="35" stroke="#9a6700" stroke-width="0.75" opacity="0.45"/><text x="345.82" y="19" font-size="12" fill="#9a6700" font-family="system-ui,-apple-system,Segoe UI,Roboto,sans-serif" font-weight="700">Tier &amp; Activity</text><text x="345.82" y="31" font-size="9" fill="#9a6700" opacity="0.95" font-weight="600" font-family="system-ui,-apple-system,Segoe UI,Roboto,sans-serif">Portfolio composition</text>
<text x="345.82" y="52" font-size="9" font-weight="700" fill="#9a6700" opacity="0.7" letter-spacing="0.6" font-family="system-ui,-apple-system,Segoe UI,Roboto,sans-serif">TIERS</text>
<g><text x="345.82" y="69" font-size="11">🏆</text><text x="365.82" y="69" font-size="11" fill="#9a6700" font-weight="600" font-family="system-ui,-apple-system,Segoe UI,Roboto,sans-serif">Flagship</text><text x="470.17999999999995" y="69" font-size="12" fill="#9a6700" font-weight="700" font-family="system-ui,-apple-system,Segoe UI,Roboto,sans-serif" text-anchor="end">21</text><text x="345.82" y="91" font-size="11">⭐</text><text x="365.82" y="91" font-size="11" fill="#9a6700" font-weight="600" font-family="system-ui,-apple-system,Segoe UI,Roboto,sans-serif">Notable</text><text x="470.17999999999995" y="91" font-size="12" fill="#9a6700" font-weight="700" font-family="system-ui,-apple-system,Segoe UI,Roboto,sans-serif" text-anchor="end">56</text><text x="345.82" y="113" font-size="11">🤖</text><text x="365.82" y="113" font-size="11" fill="#9a6700" font-weight="600" font-family="system-ui,-apple-system,Segoe UI,Roboto,sans-serif">Agents</text><text x="470.17999999999995" y="113" font-size="12" fill="#9a6700" font-weight="700" font-family="system-ui,-apple-system,Segoe UI,Roboto,sans-serif" text-anchor="end">95</text><text x="345.82" y="135" font-size="11">🪦</text><text x="365.82" y="135" font-size="11" fill="#9a6700" font-weight="600" font-family="system-ui,-apple-system,Segoe UI,Roboto,sans-serif">Archived</text><text x="470.17999999999995" y="135" font-size="12" fill="#9a6700" font-weight="700" font-family="system-ui,-apple-system,Segoe UI,Roboto,sans-serif" text-anchor="end">14</text></g>
<text x="345.82" y="162" font-size="9" font-weight="700" fill="#9a6700" opacity="0.7" letter-spacing="0.6" font-family="system-ui,-apple-system,Segoe UI,Roboto,sans-serif">ACTIVITY</text>
<g><text x="345.82" y="179" font-size="11">⭐</text><text x="365.82" y="179" font-size="11" fill="#9a6700" font-weight="600" font-family="system-ui,-apple-system,Segoe UI,Roboto,sans-serif">Stars</text><text x="470.17999999999995" y="179" font-size="12" fill="#9a6700" font-weight="700" font-family="system-ui,-apple-system,Segoe UI,Roboto,sans-serif" text-anchor="end">31</text><text x="345.82" y="201" font-size="11">🚀</text><text x="365.82" y="201" font-size="11" fill="#9a6700" font-weight="600" font-family="system-ui,-apple-system,Segoe UI,Roboto,sans-serif">Active &lt;30d</text><text x="470.17999999999995" y="201" font-size="12" fill="#9a6700" font-weight="700" font-family="system-ui,-apple-system,Segoe UI,Roboto,sans-serif" text-anchor="end">42</text><text x="345.82" y="223" font-size="11">📂</text><text x="365.82" y="223" font-size="11" fill="#9a6700" font-weight="600" font-family="system-ui,-apple-system,Segoe UI,Roboto,sans-serif">Public</text><text x="470.17999999999995" y="223" font-size="12" fill="#9a6700" font-weight="700" font-family="system-ui,-apple-system,Segoe UI,Roboto,sans-serif" text-anchor="end">37</text><text x="345.82" y="245" font-size="11">🔒</text><text x="365.82" y="245" font-size="11" fill="#9a6700" font-weight="600" font-family="system-ui,-apple-system,Segoe UI,Roboto,sans-serif">Private</text><text x="470.17999999999995" y="245" font-size="12" fill="#9a6700" font-weight="700" font-family="system-ui,-apple-system,Segoe UI,Roboto,sans-serif" text-anchor="end">70</text></g>
<rect x="488.17999999999995" y="3" width="328.82" height="264" rx="6" fill="#8250df" opacity="0.15" stroke="#8250df" stroke-width="1.5"/><path d="M494.17999999999995,3 h316.82 a6,6 0 0 1 6,6 v26 h-328.82 v-26 a6,6 0 0 1 6,-6 z" fill="#8250df" opacity="0.1"/><line x1="488.17999999999995" y1="35" x2="817" y2="35" stroke="#8250df" stroke-width="0.75" opacity="0.45"/><text x="496.17999999999995" y="19" font-size="12" fill="#8250df" font-family="system-ui,-apple-system,Segoe UI,Roboto,sans-serif" font-weight="700">Top Themes</text><text x="496.17999999999995" y="31" font-size="9" fill="#8250df" opacity="0.95" font-weight="600" font-family="system-ui,-apple-system,Segoe UI,Roboto,sans-serif">Topic clusters</text>
<g transform="translate(496.17999999999995, 41)">
<text x="4" y="22" font-size="11" fill="#8250df" font-family="system-ui,-apple-system,Segoe UI,Roboto,sans-serif">Cognitive<tspan x="4" dy="12">Architecture</tspan></text><rect x="137.3844" y="15" width="175.4356" height="18" rx="3" fill="#8250df" opacity="0.12"/><rect x="137.3844" y="15" width="109" height="18" rx="3" fill="#8250df" opacity="0.55"/><text x="251.3844" y="28" font-size="10" fill="#8250df" font-weight="700" font-family="system-ui,-apple-system,Segoe UI,Roboto,sans-serif">25</text><text x="4" y="62" font-size="11" fill="#8250df" font-family="system-ui,-apple-system,Segoe UI,Roboto,sans-serif">AI &amp; Copilot</text><rect x="137.3844" y="49" width="175.4356" height="18" rx="3" fill="#8250df" opacity="0.12"/><rect x="137.3844" y="49" width="105" height="18" rx="3" fill="#8250df" opacity="0.55"/><text x="247.3844" y="62" font-size="10" fill="#8250df" font-weight="700" font-family="system-ui,-apple-system,Segoe UI,Roboto,sans-serif">24</text><text x="4" y="96" font-size="11" fill="#8250df" font-family="system-ui,-apple-system,Segoe UI,Roboto,sans-serif">Developer Tools</text><rect x="137.3844" y="83" width="175.4356" height="18" rx="3" fill="#8250df" opacity="0.12"/><rect x="137.3844" y="83" width="79" height="18" rx="3" fill="#8250df" opacity="0.55"/><text x="221.3844" y="96" font-size="10" fill="#8250df" font-weight="700" font-family="system-ui,-apple-system,Segoe UI,Roboto,sans-serif">18</text><text x="4" y="130" font-size="11" fill="#8250df" font-family="system-ui,-apple-system,Segoe UI,Roboto,sans-serif">AI Agents &amp; Skills</text><rect x="137.3844" y="117" width="175.4356" height="18" rx="3" fill="#8250df" opacity="0.12"/><rect x="137.3844" y="117" width="70" height="18" rx="3" fill="#8250df" opacity="0.55"/><text x="212.3844" y="130" font-size="10" fill="#8250df" font-weight="700" font-family="system-ui,-apple-system,Segoe UI,Roboto,sans-serif">16</text><text x="4" y="164" font-size="11" fill="#8250df" font-family="system-ui,-apple-system,Segoe UI,Roboto,sans-serif">Responsible AI</text><rect x="137.3844" y="151" width="175.4356" height="18" rx="3" fill="#8250df" opacity="0.12"/><rect x="137.3844" y="151" width="61" height="18" rx="3" fill="#8250df" opacity="0.55"/><text x="203.3844" y="164" font-size="10" fill="#8250df" font-weight="700" font-family="system-ui,-apple-system,Segoe UI,Roboto,sans-serif">14</text><text x="4" y="198" font-size="11" fill="#8250df" font-family="system-ui,-apple-system,Segoe UI,Roboto,sans-serif">Learning &amp; Research</text><rect x="137.3844" y="185" width="175.4356" height="18" rx="3" fill="#8250df" opacity="0.12"/><rect x="137.3844" y="185" width="57" height="18" rx="3" fill="#8250df" opacity="0.55"/><text x="199.3844" y="198" font-size="10" fill="#8250df" font-weight="700" font-family="system-ui,-apple-system,Segoe UI,Roboto,sans-serif">13</text>
</g>
</g>
<text x="410" y="935" text-anchor="middle" font-family="Segoe UI, system-ui, sans-serif" font-size="13"><tspan font-weight="700" fill="#1f2328" >107</tspan><tspan fill="#64748b" dx="4">repositories across 10 categories</tspan><tspan fill="#64748b" dx="6">·</tspan><tspan font-weight="700" fill="#1f2328" dx="6">93</tspan><tspan fill="#64748b" dx="4">actively maintained</tspan><tspan fill="#64748b" dx="6">·</tspan><tspan font-weight="700" fill="#1f2328" dx="6">21</tspan><tspan fill="#64748b" dx="4">flagships</tspan></text>
</svg>