<svg xmlns="http://www.w3.org/2000/svg" viewBox="0 0 820 947" width="100%" preserveAspectRatio="xMidYMid meet" role="img" aria-label="Portfolio">
<title>Portfolio</title>
<g transform="translate(0, 0) scale(0.683333)">
<defs>
    <!-- Background gradient - deep space theme -->
    <linearGradient id="bgGrad" x1="0%" y1="0%" x2="100%" y2="100%">
      <stop offset="0%" stop-color="#020617"/>
      <stop offset="50%" stop-color="#0f172a"/>
      <stop offset="100%" stop-color="#1e293b"/>
    </linearGradient>

    <!-- Logo gradient with Azure blue -->
    <linearGradient id="logoGrad" x1="0%" y1="0%" x2="100%" y2="100%">
      <stop offset="0%" stop-color="#00bcf2"/>
      <stop offset="50%" stop-color="#0078d4"/>
      <stop offset="100%" stop-color="#005a9e"/>
    </linearGradient>

    <!-- Name gradient -->
    <linearGradient id="nameGrad" x1="0%" y1="0%" x2="100%" y2="0%">
      <stop offset="0%" stop-color="#f8fafc"/>
      <stop offset="50%" stop-color="#e2e8f0"/>
      <stop offset="100%" stop-color="#f8fafc"/>
    </linearGradient>

    <!-- Accent text gradient -->
    <linearGradient id="accentTextGrad" x1="0%" y1="0%" x2="100%" y2="0%">
      <stop offset="0%" stop-color="#00bcf2"/>
      <stop offset="50%" stop-color="#0078d4"/>
      <stop offset="100%" stop-color="#00bcf2"/>
    </linearGradient>

    <!-- Glow filter -->
    <filter id="glow" x="-50%" y="-50%" width="200%" height="200%">
      <feGaussianBlur stdDeviation="3" result="coloredBlur"/>
      <feMerge>
        <feMergeNode in="coloredBlur"/>
        <feMergeNode in="SourceGraphic"/>
      </feMerge>
    </filter>

    <!-- Strong glow for logo -->
    <filter id="logoGlow" x="-100%" y="-100%" width="300%" height="300%">
      <feGaussianBlur stdDeviation="6" result="blur1"/>
      <feGaussianBlur stdDeviation="12" result="blur2"/>
      <feMerge>
        <feMergeNode in="blur2"/>
        <feMergeNode in="blur1"/>
        <feMergeNode in="SourceGraphic"/>
      </feMerge>
    </filter>

    <!-- Radial glow behind logo -->
    <radialGradient id="logoBackGlow" cx="50%" cy="50%" r="50%">
      <stop offset="0%" stop-color="#0078d4" stop-opacity="0.4"/>
      <stop offset="50%" stop-color="#0078d4" stop-opacity="0.1"/>
      <stop offset="100%" stop-color="#0078d4" stop-opacity="0"/>
    </radialGradient>

    <!-- Grid pattern -->
    <pattern id="grid" width="50" height="50" patternUnits="userSpaceOnUse">
      <path d="M 50 0 L 0 0 0 50" fill="none" stroke="#1e3a5f" stroke-width="0.5" opacity="0.4"/>
    </pattern>

    <!-- Dot pattern -->
    <pattern id="dots" width="30" height="30" patternUnits="userSpaceOnUse">
      <circle cx="15" cy="15" r="1" fill="#0078d4" opacity="0.2"/>
    </pattern>

    <!-- Gradient for accent line -->
    <linearGradient id="accentGrad" x1="0%" y1="0%" x2="100%" y2="0%">
      <stop offset="0%" stop-color="#005a9e"/>
      <stop offset="25%" stop-color="#0078d4"/>
      <stop offset="50%" stop-color="#00bcf2"/>
      <stop offset="75%" stop-color="#0078d4"/>
      <stop offset="100%" stop-color="#005a9e"/>
    </linearGradient>

    <!-- Neural network gradient -->
    <linearGradient id="neuralGrad" x1="0%" y1="0%" x2="100%" y2="100%">
      <stop offset="0%" stop-color="#7c3aed"/>
      <stop offset="50%" stop-color="#0078d4"/>
      <stop offset="100%" stop-color="#00bcf2"/>
    </linearGradient>
  </defs>

  <!-- Background -->
  <rect width="1200" height="300" fill="url(#bgGrad)"/>

  <!-- Grid overlay -->
  <rect width="1200" height="300" fill="url(#grid)"/>

  <!-- Dot pattern overlay -->
  <rect width="1200" height="300" fill="url(#dots)" opacity="0.5"/>

  <!-- Large decorative orbs -->
  <circle cx="150" cy="150" r="180" fill="url(#logoBackGlow)"/>
  <circle cx="1050" cy="80" r="150" fill="#0078d4" opacity="0.05"/>
  <circle cx="1150" cy="280" r="180" fill="#00bcf2" opacity="0.03"/>
  <circle cx="50" cy="250" r="100" fill="#7c3aed" opacity="0.06"/>

  <!-- Neural network nodes - cognitive theme -->
  <g opacity="0.4">
    <!-- Left side neural cluster -->
    <circle cx="80" cy="60" r="4" fill="#7c3aed"/>
    <circle cx="120" cy="40" r="3" fill="#0078d4"/>
    <circle cx="60" cy="100" r="3" fill="#00bcf2"/>
    <circle cx="140" cy="90" r="2" fill="#7c3aed"/>
    <line x1="80" y1="60" x2="120" y2="40" stroke="#7c3aed" stroke-width="1"/>
    <line x1="80" y1="60" x2="60" y2="100" stroke="#0078d4" stroke-width="1"/>
    <line x1="120" y1="40" x2="140" y2="90" stroke="#00bcf2" stroke-width="0.5"/>

    <!-- Right side neural cluster -->
    <circle cx="1100" cy="70" r="3" fill="#00bcf2"/>
    <circle cx="1140" cy="50" r="2" fill="#0078d4"/>
    <circle cx="1080" cy="100" r="4" fill="#7c3aed"/>
    <circle cx="1120" cy="120" r="2" fill="#0078d4"/>
    <line x1="1100" y1="70" x2="1140" y2="50" stroke="#00bcf2" stroke-width="0.5"/>
    <line x1="1100" y1="70" x2="1080" y2="100" stroke="#7c3aed" stroke-width="1"/>
    <line x1="1080" y1="100" x2="1120" y2="120" stroke="#0078d4" stroke-width="0.5"/>
  </g>

  <!-- Floating particles -->
  <circle cx="300" cy="30" r="1.5" fill="#0078d4" opacity="0.5"/>
  <circle cx="500" cy="50" r="2" fill="#00bcf2" opacity="0.4"/>
  <circle cx="750" cy="25" r="1" fill="#7c3aed" opacity="0.6"/>
  <circle cx="950" cy="45" r="2.5" fill="#00bcf2" opacity="0.3"/>
  <circle cx="400" cy="270" r="2" fill="#00bcf2" opacity="0.4"/>
  <circle cx="700" cy="260" r="1.5" fill="#0078d4" opacity="0.5"/>
  <circle cx="900" cy="275" r="2" fill="#7c3aed" opacity="0.3"/>
  <circle cx="1050" cy="250" r="1" fill="#0078d4" opacity="0.6"/>

  <!-- Logo glow backdrop -->
  <ellipse cx="150" cy="150" rx="120" ry="110" fill="url(#logoBackGlow)"/>

  <!-- Logo mark (scaled) with glow -->
  <g transform="translate(55, 58) scale(6)" filter="url(#logoGlow)">
    <path d="M16 2C8.268 2 2 8.268 2 16s6.268 14 14 14c3.866 0 7.389-1.568 9.928-4.1l-3.535-3.536A9.002 9.002 0 0116 25c-4.97 0-9-4.03-9-9s4.03-9 9-9c2.29 0 4.38.857 5.971 2.268l3.464-3.639C22.993 3.352 19.66 2 16 2z" fill="url(#logoGrad)"/>
    <path d="M20 10l-4 6 4 6h4l-4-6 4-6h-4z" fill="url(#logoGrad)"/>
    <path d="M24 10l4 6-4 6h4l4-6-4-6h-4z" fill="url(#logoGrad)" opacity="0.6"/>
  </g>

  <text x="320" y="54" font-family="Segoe UI, system-ui, sans-serif" font-size="13" font-weight="600" fill="#94a3b8" letter-spacing="3">AUTOMATIC REPOSITORY PORTFOLIO FOR</text>
  <!-- Main name -->
  <text x="320" y="135" font-family="Segoe UI, system-ui, sans-serif" font-size="74" font-weight="700" fill="url(#nameGrad)" filter="url(#glow)">Dr. Fabio Correa, DBA</text>

  <!-- Title line -->
  <text x="320" y="180" font-family="Segoe UI, system-ui, sans-serif" font-size="22" fill="#94a3b8" letter-spacing="1" textLength="800" lengthAdjust="spacingAndGlyphs">Building AI-powered solutions for coding, learning, and decision-making.</text>

  <!-- Tagline with accent -->
  <text x="320" y="220" font-family="Segoe UI, system-ui, sans-serif" font-size="18" fill="url(#accentTextGrad)" letter-spacing="1.5">THINK • BUILD • DEPLOY</text>

  <!-- Decorative accent line -->
  <line x1="320" y1="240" x2="850" y2="240" stroke="#334155" stroke-width="1"/>
  <line x1="320" y1="243" x2="600" y2="243" stroke="url(#accentGrad)" stroke-width="2" opacity="0.6"/>

  <!-- CorreaX branding badge -->
  <g transform="translate(320, 255)" font-family="Segoe UI, system-ui, sans-serif" font-size="12" fill="#94a3b8"><text letter-spacing="1">UPDATED</text><text x="70" font-weight="700">May 07 2026 06:45 EDT</text></g>

  <!-- Tech circuit decorations on right -->
  <g opacity="0.25">
    <path d="M1000 140 h80 v40 h40" stroke="#0078d4" stroke-width="1.5" fill="none"/>
    <circle cx="1000" cy="140" r="3" fill="#0078d4"/>
    <circle cx="1120" cy="180" r="4" fill="#00bcf2"/>
    <path d="M1020 200 h60 v-25 h30" stroke="#7c3aed" stroke-width="1" fill="none"/>
    <circle cx="1020" cy="200" r="2" fill="#7c3aed"/>
    <path d="M980 100 h50 l20 20 h40" stroke="#00bcf2" stroke-width="1" fill="none"/>
    <circle cx="980" cy="100" r="2" fill="#00bcf2"/>
  </g>

  <!-- Bottom accent bar with glow -->
  <rect x="0" y="290" width="1200" height="10" fill="url(#accentGrad)" filter="url(#glow)"/>
</g>
<g transform="translate(0, 217)">
<rect width="820" height="416" fill="none"/>
  <rect x="3" y="3" width="262.49557522123894" height="202" rx="6" fill="#4e79a7" opacity="0.15" stroke="#4e79a7" stroke-width="1.5"/><path d="M9,3 h250.49557522123894 a6,6 0 0 1 6,6 v16 h-262.49557522123894 v-16 a6,6 0 0 1 6,-6 z" fill="#4e79a7" opacity="0.1"/><line x1="3" y1="25" x2="265.49557522123894" y2="25" stroke="#4e79a7" stroke-width="0.75" opacity="0.45"/><text x="11" y="19" font-size="12" fill="#4e79a7" font-family="system-ui,-apple-system,Segoe UI,Roboto,sans-serif" font-weight="700">AI &amp; Copilot</text>
  <rect x="4" y="27" width="47.11643384303655" height="176" rx="3" fill="#4e79a7" opacity="0.45"/>
  <text x="27.558216921518277" y="115" text-anchor="middle" dominant-baseline="central" font-size="16" fill="#4e79a7" font-family="system-ui,sans-serif" font-weight="600" transform="rotate(-90,27.558216921518277,115)">github copilot</text>
  <rect x="52.11643384303655" y="27" width="37.58591173032388" height="176" rx="3" fill="#4e79a7" opacity="0.36"/>
  <text x="70.90938970819849" y="115" text-anchor="middle" dominant-baseline="central" font-size="16" fill="#4e79a7" font-family="system-ui,sans-serif" font-weight="600" transform="rotate(-90,70.90938970819849,115)">ai assistant</text>
  <rect x="90.70234557336043" y="27" width="34.79779254821076" height="176" rx="3" fill="#4e79a7" opacity="0.34"/>
  <text x="108.10124184746581" y="115" text-anchor="middle" dominant-baseline="central" font-size="16" fill="#4e79a7" font-family="system-ui,sans-serif" font-weight="600" transform="rotate(-90,108.10124184746581,115)">copilot</text>
  <rect x="126.50013812157118" y="27" width="31.765893216733687" height="176" rx="3" fill="#4e79a7" opacity="0.32"/>
  <text x="142.38308472993802" y="115" text-anchor="middle" dominant-baseline="central" font-size="16" fill="#4e79a7" font-family="system-ui,sans-serif" font-weight="400" transform="rotate(-90,142.38308472993802,115)">claude</text>
  <rect x="159.26603133830486" y="27" width="28.412278639446395" height="176" rx="3" fill="#4e79a7" opacity="0.29"/>
  <text x="173.47217065802806" y="115" text-anchor="middle" dominant-baseline="central" font-size="16" fill="#4e79a7" font-family="system-ui,sans-serif" font-weight="400" transform="rotate(-90,173.47217065802806,115)">ai agents</text>
  <rect x="188.67830997775124" y="27" width="24.605755081162542" height="176" rx="3" fill="#4e79a7" opacity="0.27"/>
  <text x="200.98118751833252" y="115" text-anchor="middle" dominant-baseline="central" font-size="16" fill="#4e79a7" font-family="system-ui,sans-serif" font-weight="400" transform="rotate(-90,200.98118751833252,115)">agent skills</text>
  <rect x="214.28406505891377" y="27" width="24.605755081162542" height="176" rx="3" fill="#4e79a7" opacity="0.27"/>
  <text x="226.58694259949505" y="115" text-anchor="middle" dominant-baseline="central" font-size="16" fill="#4e79a7" font-family="system-ui,sans-serif" font-weight="400" transform="rotate(-90,226.58694259949505,115)">ai governance</text>
  <rect x="239.88982014007632" y="27" width="24.605755081162613" height="176" rx="3" fill="#4e79a7" opacity="0.27"/>
  <text x="252.19269768065763" y="115" text-anchor="middle" dominant-baseline="central" font-size="16" fill="#4e79a7" font-family="system-ui,sans-serif" font-weight="400" transform="rotate(-90,252.19269768065763,115)">ai adoption</text>
  <rect x="271.49557522123894" y="3" width="229.84070796460176" height="202" rx="6" fill="#57606a" opacity="0.15" stroke="#57606a" stroke-width="1.5"/><path d="M277.49557522123894,3 h217.84070796460176 a6,6 0 0 1 6,6 v16 h-229.84070796460176 v-16 a6,6 0 0 1 6,-6 z" fill="#57606a" opacity="0.1"/><line x1="271.49557522123894" y1="25" x2="501.33628318584067" y2="25" stroke="#57606a" stroke-width="0.75" opacity="0.45"/><text x="279.49557522123894" y="19" font-size="12" fill="#57606a" font-family="system-ui,-apple-system,Segoe UI,Roboto,sans-serif" font-weight="700">Other</text>
  <rect x="272.49557522123894" y="27" width="38.584636568754306" height="176" rx="3" fill="#57606a" opacity="0.43"/>
  <text x="291.78789350561607" y="115" text-anchor="middle" dominant-baseline="central" font-size="16" fill="#57606a" font-family="system-ui,sans-serif" font-weight="600" transform="rotate(-90,291.78789350561607,115)">agent</text>
  <rect x="312.08021178999326" y="27" width="32.282223055421646" height="176" rx="3" fill="#57606a" opacity="0.36"/>
  <text x="328.2213233177041" y="115" text-anchor="middle" dominant-baseline="central" font-size="16" fill="#57606a" font-family="system-ui,sans-serif" font-weight="600" transform="rotate(-90,328.2213233177041,115)">prompt engineering</text>
  <rect x="345.3624348454149" y="27" width="32.282223055421646" height="176" rx="3" fill="#57606a" opacity="0.36"/>
  <text x="361.50354637312574" y="115" text-anchor="middle" dominant-baseline="central" font-size="16" fill="#57606a" font-family="system-ui,sans-serif" font-weight="600" transform="rotate(-90,361.50354637312574,115)">ai</text>
  <rect x="378.64465790083653" y="27" width="29.88753097005022" height="176" rx="3" fill="#57606a" opacity="0.34"/>
  <text x="393.58842338586163" y="115" text-anchor="middle" dominant-baseline="central" font-size="16" fill="#57606a" font-family="system-ui,sans-serif" font-weight="600" transform="rotate(-90,393.58842338586163,115)">critical thinking</text>
  <rect x="409.5321888708868" y="27" width="24.40306684941753" height="176" rx="3" fill="#57606a" opacity="0.29"/>
  <text x="421.73372229559556" y="115" text-anchor="middle" dominant-baseline="central" font-size="16" fill="#57606a" font-family="system-ui,sans-serif" font-weight="400" transform="rotate(-90,421.73372229559556,115)">responsible ai</text>
  <rect x="434.9352557203043" y="27" width="21.133675821845465" height="176" rx="3" fill="#57606a" opacity="0.27"/>
  <text x="445.50209363122707" y="115" text-anchor="middle" dominant-baseline="central" font-size="15" fill="#57606a" font-family="system-ui,sans-serif" font-weight="400" transform="rotate(-90,445.50209363122707,115)">dashboard</text>
  <rect x="457.0689315421498" y="27" width="21.133675821845465" height="176" rx="3" fill="#57606a" opacity="0.27"/>
  <text x="467.63576945307256" y="115" text-anchor="middle" dominant-baseline="central" font-size="15" fill="#57606a" font-family="system-ui,sans-serif" font-weight="400" transform="rotate(-90,467.63576945307256,115)">fleet</text>
  <rect x="479.2026073639953" y="27" width="21.133675821845372" height="176" rx="3" fill="#57606a" opacity="0.27"/>
  <text x="489.769445274918" y="115" text-anchor="middle" dominant-baseline="central" font-size="15" fill="#57606a" font-family="system-ui,sans-serif" font-weight="400" transform="rotate(-90,489.769445274918,115)">dialog engineering</text>
  <rect x="507.33628318584067" y="3" width="128.24778761061947" height="202" rx="6" fill="#f28e2b" opacity="0.15" stroke="#f28e2b" stroke-width="1.5"/><path d="M513.3362831858407,3 h116.24778761061947 a6,6 0 0 1 6,6 v16 h-128.24778761061947 v-16 a6,6 0 0 1 6,-6 z" fill="#f28e2b" opacity="0.1"/><line x1="507.33628318584067" y1="25" x2="635.5840707964601" y2="25" stroke="#f28e2b" stroke-width="0.75" opacity="0.45"/><text x="515.3362831858407" y="19" font-size="12" fill="#f28e2b" font-family="system-ui,-apple-system,Segoe UI,Roboto,sans-serif" font-weight="700">Cognitive Archit…</text>
  <rect x="508.33628318584067" y="27" width="24.26190289988516" height="176" rx="3" fill="#f28e2b" opacity="0.45"/>
  <text x="520.4672346357833" y="115" text-anchor="middle" dominant-baseline="central" font-size="13" fill="#f28e2b" font-family="system-ui,sans-serif" font-weight="600" transform="rotate(-90,520.4672346357833,115)">cognitive architecture</text>
  <rect x="533.5981860857258" y="27" width="20.690620313623118" height="176" rx="3" fill="#f28e2b" opacity="0.38"/>
  <text x="543.9434962425374" y="115" text-anchor="middle" dominant-baseline="central" font-size="15" fill="#f28e2b" font-family="system-ui,sans-serif" font-weight="600" transform="rotate(-90,543.9434962425374,115)">agentic</text>
  <rect x="555.2888063993489" y="27" width="17.918602811655965" height="176" rx="3" fill="#f28e2b" opacity="0.34"/>
  <text x="564.2481078051769" y="115" text-anchor="middle" dominant-baseline="central" font-size="13" fill="#f28e2b" font-family="system-ui,sans-serif" font-weight="600" transform="rotate(-90,564.2481078051769,115)">mcp</text>
  <rect x="574.2074092110049" y="27" width="12.670365557510271" height="176" rx="3" fill="#f28e2b" opacity="0.27"/>
  <text x="580.54259198976" y="115" text-anchor="middle" dominant-baseline="central" font-size="9" fill="#f28e2b" font-family="system-ui,sans-serif" font-weight="400" transform="rotate(-90,580.54259198976,115)">agentic ai</text>
  <rect x="587.8777747685152" y="27" width="12.670365557510271" height="176" rx="3" fill="#f28e2b" opacity="0.27"/>
  <text x="594.2129575472703" y="115" text-anchor="middle" dominant-baseline="central" font-size="9" fill="#f28e2b" font-family="system-ui,sans-serif" font-weight="400" transform="rotate(-90,594.2129575472703,115)">model context protocol</text>
  <rect x="601.5481403260255" y="27" width="10.345310156811559" height="176" rx="3" fill="#f28e2b" opacity="0.25"/>
  <text x="606.7207954044313" y="115" text-anchor="middle" dominant-baseline="central" font-size="7" fill="#f28e2b" font-family="system-ui,sans-serif" font-weight="400" transform="rotate(-90,606.7207954044313,115)">neuroscience</text>
  <rect x="612.8934504828371" y="27" width="10.345310156811559" height="176" rx="3" fill="#f28e2b" opacity="0.25"/>
  <text x="618.0661055612429" y="115" text-anchor="middle" dominant-baseline="central" font-size="7" fill="#f28e2b" font-family="system-ui,sans-serif" font-weight="400" transform="rotate(-90,618.0661055612429,115)">cognitive science</text>
  <rect x="624.2387606396487" y="27" width="10.345310156811365" height="176" rx="3" fill="#f28e2b" opacity="0.25"/>
  <text x="629.4114157180544" y="115" text-anchor="middle" dominant-baseline="central" font-size="7" fill="#f28e2b" font-family="system-ui,sans-serif" font-weight="400" transform="rotate(-90,629.4114157180544,115)">memory systems</text>
  <rect x="641.5840707964601" y="3" width="102.8495575221239" height="202" rx="6" fill="#59a14f" opacity="0.15" stroke="#59a14f" stroke-width="1.5"/><path d="M647.5840707964601,3 h90.8495575221239 a6,6 0 0 1 6,6 v16 h-102.8495575221239 v-16 a6,6 0 0 1 6,-6 z" fill="#59a14f" opacity="0.1"/><line x1="641.5840707964601" y1="25" x2="744.4336283185839" y2="25" stroke="#59a14f" stroke-width="0.75" opacity="0.45"/><text x="649.5840707964601" y="19" font-size="12" fill="#59a14f" font-family="system-ui,-apple-system,Segoe UI,Roboto,sans-serif" font-weight="700">Developer To…</text>
  <rect x="642.5840707964601" y="27" width="15.132370341613546" height="176" rx="3" fill="#59a14f" opacity="0.34"/>
  <text x="650.1502559672668" y="115" text-anchor="middle" dominant-baseline="central" font-size="11" fill="#59a14f" font-family="system-ui,sans-serif" font-weight="600" transform="rotate(-90,650.1502559672668,115)">typescript</text>
  <rect x="658.7164411380736" y="27" width="15.132370341613546" height="176" rx="3" fill="#59a14f" opacity="0.34"/>
  <text x="666.2826263088804" y="115" text-anchor="middle" dominant-baseline="central" font-size="11" fill="#59a14f" font-family="system-ui,sans-serif" font-weight="600" transform="rotate(-90,666.2826263088804,115)">vscode extension</text>
  <rect x="674.8488114796871" y="27" width="12.355528645259586" height="176" rx="3" fill="#59a14f" opacity="0.29"/>
  <text x="681.0265758023169" y="115" text-anchor="middle" dominant-baseline="central" font-size="9" fill="#59a14f" font-family="system-ui,sans-serif" font-weight="400" transform="rotate(-90,681.0265758023169,115)">python</text>
  <rect x="688.2043401249467" y="27" width="12.355528645259586" height="176" rx="3" fill="#59a14f" opacity="0.29"/>
  <text x="694.3821044475765" y="115" text-anchor="middle" dominant-baseline="central" font-size="9" fill="#59a14f" font-family="system-ui,sans-serif" font-weight="400" transform="rotate(-90,694.3821044475765,115)">vscode</text>
  <rect x="701.5598687702063" y="27" width="10.700201683981131" height="176" rx="3" fill="#59a14f" opacity="0.27"/>
  <text x="706.9099696121968" y="115" text-anchor="middle" dominant-baseline="central" font-size="8" fill="#59a14f" font-family="system-ui,sans-serif" font-weight="400" transform="rotate(-90,706.9099696121968,115)">react</text>
  <rect x="713.2600704541875" y="27" width="10.700201683981131" height="176" rx="3" fill="#59a14f" opacity="0.27"/>
  <text x="718.610171296178" y="115" text-anchor="middle" dominant-baseline="central" font-size="8" fill="#59a14f" font-family="system-ui,sans-serif" font-weight="400" transform="rotate(-90,718.610171296178,115)">developer tools</text>
  <rect x="724.9602721381686" y="27" width="8.73667809020769" height="176" rx="3" fill="#59a14f" opacity="0.25"/>
  <text x="729.3286111832725" y="115" text-anchor="middle" dominant-baseline="central" font-size="6" fill="#59a14f" font-family="system-ui,sans-serif" font-weight="400" transform="rotate(-90,729.3286111832725,115)">markdown</text>
  <rect x="734.6969502283763" y="27" width="8.736678090207647" height="176" rx="3" fill="#59a14f" opacity="0.25"/>
  <text x="739.0652892734802" y="115" text-anchor="middle" dominant-baseline="central" font-size="6" fill="#59a14f" font-family="system-ui,sans-serif" font-weight="400" transform="rotate(-90,739.0652892734802,115)">pdf</text>
  <rect x="750.4336283185839" y="3" width="66.56637168141606" height="202" rx="6" fill="#e15759" opacity="0.15" stroke="#e15759" stroke-width="1.5"/><path d="M756.4336283185839,3 h54.56637168141606 a6,6 0 0 1 6,6 v16 h-66.56637168141606 v-16 a6,6 0 0 1 6,-6 z" fill="#e15759" opacity="0.1"/><line x1="750.4336283185839" y1="25" x2="817" y2="25" stroke="#e15759" stroke-width="0.75" opacity="0.45"/><text x="758.4336283185839" y="19" font-size="12" fill="#e15759" font-family="system-ui,-apple-system,Segoe UI,Roboto,sans-serif" font-weight="700">Learnin…</text>
  <rect x="751.4336283185839" y="27" width="7.92271952034388" height="176" rx="3" fill="#e15759" opacity="0.27"/>
  <rect x="760.3563478389278" y="27" width="7.92271952034388" height="176" rx="3" fill="#e15759" opacity="0.27"/>
  <rect x="769.2790673592717" y="27" width="7.92271952034388" height="176" rx="3" fill="#e15759" opacity="0.27"/>
  <rect x="778.2017868796156" y="27" width="7.92271952034388" height="176" rx="3" fill="#e15759" opacity="0.27"/>
  <rect x="787.1245063999595" y="27" width="6.468873400010132" height="176" rx="3" fill="#e15759" opacity="0.25"/>
  <rect x="794.5933797999696" y="27" width="6.468873400010132" height="176" rx="3" fill="#e15759" opacity="0.25"/>
  <rect x="802.0622531999798" y="27" width="6.468873400010132" height="176" rx="3" fill="#e15759" opacity="0.25"/>
  <rect x="809.5311265999899" y="27" width="6.468873400010125" height="176" rx="3" fill="#e15759" opacity="0.25"/>
  <rect x="3" y="211" width="257.5714285714286" height="202" rx="6" fill="#b07aa1" opacity="0.15" stroke="#b07aa1" stroke-width="1.5"/><path d="M9,211 h245.5714285714286 a6,6 0 0 1 6,6 v16 h-257.5714285714286 v-16 a6,6 0 0 1 6,-6 z" fill="#b07aa1" opacity="0.1"/><line x1="3" y1="233" x2="260.5714285714286" y2="233" stroke="#b07aa1" stroke-width="0.75" opacity="0.45"/><text x="11" y="227" font-size="12" fill="#b07aa1" font-family="system-ui,-apple-system,Segoe UI,Roboto,sans-serif" font-weight="700">Productivity &amp; Automation</text>
  <rect x="4" y="235" width="31.071428571428573" height="176" rx="3" fill="#b07aa1" opacity="0.25"/>
  <text x="19.535714285714285" y="323" text-anchor="middle" dominant-baseline="central" font-size="16" fill="#b07aa1" font-family="system-ui,sans-serif" font-weight="400" transform="rotate(-90,19.535714285714285,323)">automation</text>
  <rect x="36.07142857142857" y="235" width="31.071428571428573" height="176" rx="3" fill="#b07aa1" opacity="0.25"/>
  <text x="51.607142857142854" y="323" text-anchor="middle" dominant-baseline="central" font-size="16" fill="#b07aa1" font-family="system-ui,sans-serif" font-weight="400" transform="rotate(-90,51.607142857142854,323)">productivity</text>
  <rect x="68.14285714285714" y="235" width="31.071428571428573" height="176" rx="3" fill="#b07aa1" opacity="0.25"/>
  <text x="83.67857142857143" y="323" text-anchor="middle" dominant-baseline="central" font-size="16" fill="#b07aa1" font-family="system-ui,sans-serif" font-weight="400" transform="rotate(-90,83.67857142857143,323)">better together</text>
  <rect x="100.21428571428571" y="235" width="31.071428571428573" height="176" rx="3" fill="#b07aa1" opacity="0.25"/>
  <text x="115.75" y="323" text-anchor="middle" dominant-baseline="central" font-size="16" fill="#b07aa1" font-family="system-ui,sans-serif" font-weight="400" transform="rotate(-90,115.75,323)">dual platform</text>
  <rect x="132.28571428571428" y="235" width="31.071428571428573" height="176" rx="3" fill="#b07aa1" opacity="0.25"/>
  <text x="147.82142857142856" y="323" text-anchor="middle" dominant-baseline="central" font-size="16" fill="#b07aa1" font-family="system-ui,sans-serif" font-weight="400" transform="rotate(-90,147.82142857142856,323)">homebrew</text>
  <rect x="164.35714285714283" y="235" width="31.071428571428573" height="176" rx="3" fill="#b07aa1" opacity="0.25"/>
  <text x="179.8928571428571" y="323" text-anchor="middle" dominant-baseline="central" font-size="16" fill="#b07aa1" font-family="system-ui,sans-serif" font-weight="400" transform="rotate(-90,179.8928571428571,323)">macbook</text>
  <rect x="196.4285714285714" y="235" width="31.071428571428573" height="176" rx="3" fill="#b07aa1" opacity="0.25"/>
  <text x="211.96428571428567" y="323" text-anchor="middle" dominant-baseline="central" font-size="16" fill="#b07aa1" font-family="system-ui,sans-serif" font-weight="400" transform="rotate(-90,211.96428571428567,323)">macos</text>
  <rect x="228.49999999999994" y="235" width="31.07142857142867" height="176" rx="3" fill="#b07aa1" opacity="0.25"/>
  <text x="244.03571428571428" y="323" text-anchor="middle" dominant-baseline="central" font-size="16" fill="#b07aa1" font-family="system-ui,sans-serif" font-weight="400" transform="rotate(-90,244.03571428571428,323)">power user</text>
  <rect x="266.5714285714286" y="211" width="242.92857142857142" height="202" rx="6" fill="#edc948" opacity="0.15" stroke="#edc948" stroke-width="1.5"/><path d="M272.5714285714286,211 h230.92857142857142 a6,6 0 0 1 6,6 v16 h-242.92857142857142 v-16 a6,6 0 0 1 6,-6 z" fill="#edc948" opacity="0.1"/><line x1="266.5714285714286" y1="233" x2="509.5" y2="233" stroke="#edc948" stroke-width="0.75" opacity="0.45"/><text x="274.5714285714286" y="227" font-size="12" fill="#edc948" font-family="system-ui,-apple-system,Segoe UI,Roboto,sans-serif" font-weight="700">Healthcare &amp; Wellness</text>
  <rect x="267.5714285714286" y="235" width="34.83424988970252" height="176" rx="3" fill="#edc948" opacity="0.27"/>
  <text x="284.98855351627986" y="323" text-anchor="middle" dominant-baseline="central" font-size="16" fill="#edc948" font-family="system-ui,sans-serif" font-weight="400" transform="rotate(-90,284.98855351627986,323)">spotify api</text>
  <rect x="303.4056784611311" y="235" width="28.442045934124128" height="176" rx="3" fill="#edc948" opacity="0.25"/>
  <text x="317.6267014281932" y="323" text-anchor="middle" dominant-baseline="central" font-size="16" fill="#edc948" font-family="system-ui,sans-serif" font-weight="400" transform="rotate(-90,317.6267014281932,323)">healthcare</text>
  <rect x="332.8477243952552" y="235" width="28.442045934124128" height="176" rx="3" fill="#edc948" opacity="0.25"/>
  <text x="347.0687473623173" y="323" text-anchor="middle" dominant-baseline="central" font-size="16" fill="#edc948" font-family="system-ui,sans-serif" font-weight="400" transform="rotate(-90,347.0687473623173,323)">music</text>
  <rect x="362.28977032937934" y="235" width="28.442045934124128" height="176" rx="3" fill="#edc948" opacity="0.25"/>
  <text x="376.5107932964414" y="323" text-anchor="middle" dominant-baseline="central" font-size="16" fill="#edc948" font-family="system-ui,sans-serif" font-weight="400" transform="rotate(-90,376.5107932964414,323)">playlist</text>
  <rect x="391.73181626350345" y="235" width="28.442045934124128" height="176" rx="3" fill="#edc948" opacity="0.25"/>
  <text x="405.95283923056553" y="323" text-anchor="middle" dominant-baseline="central" font-size="16" fill="#edc948" font-family="system-ui,sans-serif" font-weight="400" transform="rotate(-90,405.95283923056553,323)">spotify</text>
  <rect x="421.17386219762756" y="235" width="28.442045934124128" height="176" rx="3" fill="#edc948" opacity="0.25"/>
  <text x="435.39488516468964" y="323" text-anchor="middle" dominant-baseline="central" font-size="16" fill="#edc948" font-family="system-ui,sans-serif" font-weight="400" transform="rotate(-90,435.39488516468964,323)">accessibility</text>
  <rect x="450.61590813175167" y="235" width="28.442045934124128" height="176" rx="3" fill="#edc948" opacity="0.25"/>
  <text x="464.83693109881375" y="323" text-anchor="middle" dominant-baseline="central" font-size="16" fill="#edc948" font-family="system-ui,sans-serif" font-weight="400" transform="rotate(-90,464.83693109881375,323)">audio</text>
  <rect x="480.0579540658758" y="235" width="28.442045934124224" height="176" rx="3" fill="#edc948" opacity="0.25"/>
  <text x="494.27897703293786" y="323" text-anchor="middle" dominant-baseline="central" font-size="16" fill="#edc948" font-family="system-ui,sans-serif" font-weight="400" transform="rotate(-90,494.27897703293786,323)">generative art</text>
  <rect x="515.5" y="211" width="155.07142857142856" height="202" rx="6" fill="#76b7b2" opacity="0.15" stroke="#76b7b2" stroke-width="1.5"/><path d="M521.5,211 h143.07142857142856 a6,6 0 0 1 6,6 v16 h-155.07142857142856 v-16 a6,6 0 0 1 6,-6 z" fill="#76b7b2" opacity="0.1"/><line x1="515.5" y1="233" x2="670.5714285714286" y2="233" stroke="#76b7b2" stroke-width="0.75" opacity="0.45"/><text x="523.5" y="227" font-size="12" fill="#76b7b2" font-family="system-ui,-apple-system,Segoe UI,Roboto,sans-serif" font-weight="700">Cloud &amp; Azure</text>
  <rect x="516.5" y="235" width="73.01505328955514" height="176" rx="3" fill="#76b7b2" opacity="0.36"/>
  <text x="553.0075266447776" y="323" text-anchor="middle" dominant-baseline="central" font-size="16" fill="#76b7b2" font-family="system-ui,sans-serif" font-weight="600" transform="rotate(-90,553.0075266447776,323)">azure</text>
  <rect x="590.5150532895551" y="235" width="39.02818764093671" height="176" rx="3" fill="#76b7b2" opacity="0.25"/>
  <text x="610.0291471100235" y="323" text-anchor="middle" dominant-baseline="central" font-size="16" fill="#76b7b2" font-family="system-ui,sans-serif" font-weight="400" transform="rotate(-90,610.0291471100235,323)">azure functions</text>
  <rect x="630.5432409304918" y="235" width="39.02818764093672" height="176" rx="3" fill="#76b7b2" opacity="0.25"/>
  <text x="650.0573347509602" y="323" text-anchor="middle" dominant-baseline="central" font-size="16" fill="#76b7b2" font-family="system-ui,sans-serif" font-weight="400" transform="rotate(-90,650.0573347509602,323)">dotnet</text>
  <rect x="676.5714285714286" y="211" width="140.42857142857144" height="202" rx="6" fill="#ff9da7" opacity="0.15" stroke="#ff9da7" stroke-width="1.5"/><path d="M682.5714285714286,211 h128.42857142857144 a6,6 0 0 1 6,6 v16 h-140.42857142857144 v-16 a6,6 0 0 1 6,-6 z" fill="#ff9da7" opacity="0.1"/><line x1="676.5714285714286" y1="233" x2="817" y2="233" stroke="#ff9da7" stroke-width="0.75" opacity="0.45"/><text x="684.5714285714286" y="227" font-size="12" fill="#ff9da7" font-family="system-ui,-apple-system,Segoe UI,Roboto,sans-serif" font-weight="700">Finance &amp; Investme…</text>
  <rect x="677.5714285714286" y="235" width="26.88571428571429" height="176" rx="3" fill="#ff9da7" opacity="0.25"/>
  <text x="691.0142857142857" y="323" text-anchor="middle" dominant-baseline="central" font-size="16" fill="#ff9da7" font-family="system-ui,sans-serif" font-weight="400" transform="rotate(-90,691.0142857142857,323)">portfolio</text>
  <rect x="705.4571428571428" y="235" width="26.88571428571429" height="176" rx="3" fill="#ff9da7" opacity="0.25"/>
  <text x="718.9" y="323" text-anchor="middle" dominant-baseline="central" font-size="16" fill="#ff9da7" font-family="system-ui,sans-serif" font-weight="400" transform="rotate(-90,718.9,323)">template</text>
  <rect x="733.342857142857" y="235" width="26.88571428571429" height="176" rx="3" fill="#ff9da7" opacity="0.25"/>
  <text x="746.7857142857142" y="323" text-anchor="middle" dominant-baseline="central" font-size="16" fill="#ff9da7" font-family="system-ui,sans-serif" font-weight="400" transform="rotate(-90,746.7857142857142,323)">governance</text>
  <rect x="761.2285714285713" y="235" width="26.88571428571429" height="176" rx="3" fill="#ff9da7" opacity="0.25"/>
  <text x="774.6714285714285" y="323" text-anchor="middle" dominant-baseline="central" font-size="16" fill="#ff9da7" font-family="system-ui,sans-serif" font-weight="400" transform="rotate(-90,774.6714285714285,323)">astro</text>
  <rect x="789.1142857142855" y="235" width="26.88571428571447" height="176" rx="3" fill="#ff9da7" opacity="0.25"/>
  <text x="802.5571428571427" y="323" text-anchor="middle" dominant-baseline="central" font-size="16" fill="#ff9da7" font-family="system-ui,sans-serif" font-weight="400" transform="rotate(-90,802.5571428571427,323)">multilingual</text>
</g>
<g transform="translate(0, 639)">
<title>Portfolio at a Glance</title>
<rect width="820" height="270" fill="none"/>
<rect x="3" y="3" width="328.82" height="264" rx="6" fill="#0969da" opacity="0.15" stroke="#0969da" stroke-width="1.5"/><path d="M9,3 h316.82 a6,6 0 0 1 6,6 v26 h-328.82 v-26 a6,6 0 0 1 6,-6 z" fill="#0969da" opacity="0.1"/><line x1="3" y1="35" x2="331.82" y2="35" stroke="#0969da" stroke-width="0.75" opacity="0.45"/><text x="11" y="19" font-size="12" fill="#0969da" font-family="system-ui,-apple-system,Segoe UI,Roboto,sans-serif" font-weight="700">Top Languages</text><text x="11" y="31" font-size="9" fill="#0969da" opacity="0.95" font-weight="600" font-family="system-ui,-apple-system,Segoe UI,Roboto,sans-serif">By lines of code</text>
<g transform="translate(11, 41)">
<text x="4" y="28" font-size="11" fill="#0969da" font-family="system-ui,-apple-system,Segoe UI,Roboto,sans-serif">Python</text><rect x="137.3844" y="15" width="175.4356" height="18" rx="3" fill="#0969da" opacity="0.12"/><rect x="137.3844" y="15" width="110" height="18" rx="3" fill="#0969da" opacity="0.55"/><text x="252.3844" y="28" font-size="10" fill="#0969da" font-weight="700" font-family="system-ui,-apple-system,Segoe UI,Roboto,sans-serif">62.7%</text><text x="4" y="62" font-size="11" fill="#0969da" font-family="system-ui,-apple-system,Segoe UI,Roboto,sans-serif">Jupyter Notebook</text><rect x="137.3844" y="49" width="175.4356" height="18" rx="3" fill="#0969da" opacity="0.12"/><rect x="137.3844" y="49" width="29" height="18" rx="3" fill="#0969da" opacity="0.55"/><text x="171.3844" y="62" font-size="10" fill="#0969da" font-weight="700" font-family="system-ui,-apple-system,Segoe UI,Roboto,sans-serif">16.3%</text><text x="4" y="96" font-size="11" fill="#0969da" font-family="system-ui,-apple-system,Segoe UI,Roboto,sans-serif">JavaScript</text><rect x="137.3844" y="83" width="175.4356" height="18" rx="3" fill="#0969da" opacity="0.12"/><rect x="137.3844" y="83" width="20" height="18" rx="3" fill="#0969da" opacity="0.55"/><text x="162.3844" y="96" font-size="10" fill="#0969da" font-weight="700" font-family="system-ui,-apple-system,Segoe UI,Roboto,sans-serif">11.4%</text><text x="4" y="130" font-size="11" fill="#0969da" font-family="system-ui,-apple-system,Segoe UI,Roboto,sans-serif">TypeScript</text><rect x="137.3844" y="117" width="175.4356" height="18" rx="3" fill="#0969da" opacity="0.12"/><rect x="137.3844" y="117" width="9" height="18" rx="3" fill="#0969da" opacity="0.55"/><text x="151.3844" y="130" font-size="10" fill="#0969da" font-weight="700" font-family="system-ui,-apple-system,Segoe UI,Roboto,sans-serif">5.3%</text><text x="4" y="164" font-size="11" fill="#0969da" font-family="system-ui,-apple-system,Segoe UI,Roboto,sans-serif">Cython</text><rect x="137.3844" y="151" width="175.4356" height="18" rx="3" fill="#0969da" opacity="0.12"/><rect x="137.3844" y="151" width="2" height="18" rx="3" fill="#0969da" opacity="0.55"/><text x="144.3844" y="164" font-size="10" fill="#0969da" font-weight="700" font-family="system-ui,-apple-system,Segoe UI,Roboto,sans-serif">1.4%</text><text x="4" y="198" font-size="11" fill="#0969da" font-family="system-ui,-apple-system,Segoe UI,Roboto,sans-serif">PowerShell</text><rect x="137.3844" y="185" width="175.4356" height="18" rx="3" fill="#0969da" opacity="0.12"/><rect x="137.3844" y="185" width="2" height="18" rx="3" fill="#0969da" opacity="0.55"/><text x="144.3844" y="198" font-size="10" fill="#0969da" font-weight="700" font-family="system-ui,-apple-system,Segoe UI,Roboto,sans-serif">0.9%</text>
</g>
<rect x="337.82" y="3" width="144.35999999999999" height="264" rx="6" fill="#9a6700" opacity="0.15" stroke="#9a6700" stroke-width="1.5"/><path d="M343.82,3 h132.35999999999999 a6,6 0 0 1 6,6 v26 h-144.35999999999999 v-26 a6,6 0 0 1 6,-6 z" fill="#9a6700" opacity="0.1"/><line x1="337.82" y1="35" x2="482.17999999999995" y2="35" stroke="#9a6700" stroke-width="0.75" opacity="0.45"/><text x="345.82" y="19" font-size="12" fill="#9a6700" font-family="system-ui,-apple-system,Segoe UI,Roboto,sans-serif" font-weight="700">Tier &amp; Activity</text><text x="345.82" y="31" font-size="9" fill="#9a6700" opacity="0.95" font-weight="600" font-family="system-ui,-apple-system,Segoe UI,Roboto,sans-serif">Portfolio composition</text>
<text x="345.82" y="52" font-size="9" font-weight="700" fill="#9a6700" opacity="0.7" letter-spacing="0.6" font-family="system-ui,-apple-system,Segoe UI,Roboto,sans-serif">TIERS</text>
<g><text x="345.82" y="69" font-size="11">🏆</text><text x="365.82" y="69" font-size="11" fill="#9a6700" font-weight="600" font-family="system-ui,-apple-system,Segoe UI,Roboto,sans-serif">Flagship</text><text x="470.17999999999995" y="69" font-size="12" fill="#9a6700" font-weight="700" font-family="system-ui,-apple-system,Segoe UI,Roboto,sans-serif" text-anchor="end">19</text><text x="345.82" y="91" font-size="11">⭐</text><text x="365.82" y="91" font-size="11" fill="#9a6700" font-weight="600" font-family="system-ui,-apple-system,Segoe UI,Roboto,sans-serif">Notable</text><text x="470.17999999999995" y="91" font-size="12" fill="#9a6700" font-weight="700" font-family="system-ui,-apple-system,Segoe UI,Roboto,sans-serif" text-anchor="end">36</text><text x="345.82" y="113" font-size="11">🤖</text><text x="365.82" y="113" font-size="11" fill="#9a6700" font-weight="600" font-family="system-ui,-apple-system,Segoe UI,Roboto,sans-serif">Agents</text><text x="470.17999999999995" y="113" font-size="12" fill="#9a6700" font-weight="700" font-family="system-ui,-apple-system,Segoe UI,Roboto,sans-serif" text-anchor="end">66</text><text x="345.82" y="135" font-size="11">🪦</text><text x="365.82" y="135" font-size="11" fill="#9a6700" font-weight="600" font-family="system-ui,-apple-system,Segoe UI,Roboto,sans-serif">Archived</text><text x="470.17999999999995" y="135" font-size="12" fill="#9a6700" font-weight="700" font-family="system-ui,-apple-system,Segoe UI,Roboto,sans-serif" text-anchor="end">15</text></g>
<text x="345.82" y="162" font-size="9" font-weight="700" fill="#9a6700" opacity="0.7" letter-spacing="0.6" font-family="system-ui,-apple-system,Segoe UI,Roboto,sans-serif">ACTIVITY</text>
<g><text x="345.82" y="179" font-size="11">⭐</text><text x="365.82" y="179" font-size="11" fill="#9a6700" font-weight="600" font-family="system-ui,-apple-system,Segoe UI,Roboto,sans-serif">Stars</text><text x="470.17999999999995" y="179" font-size="12" fill="#9a6700" font-weight="700" font-family="system-ui,-apple-system,Segoe UI,Roboto,sans-serif" text-anchor="end">20</text><text x="345.82" y="201" font-size="11">🚀</text><text x="365.82" y="201" font-size="11" fill="#9a6700" font-weight="600" font-family="system-ui,-apple-system,Segoe UI,Roboto,sans-serif">Active &lt;30d</text><text x="470.17999999999995" y="201" font-size="12" fill="#9a6700" font-weight="700" font-family="system-ui,-apple-system,Segoe UI,Roboto,sans-serif" text-anchor="end">42</text><text x="345.82" y="223" font-size="11">📂</text><text x="365.82" y="223" font-size="11" fill="#9a6700" font-weight="600" font-family="system-ui,-apple-system,Segoe UI,Roboto,sans-serif">Public</text><text x="470.17999999999995" y="223" font-size="12" fill="#9a6700" font-weight="700" font-family="system-ui,-apple-system,Segoe UI,Roboto,sans-serif" text-anchor="end">35</text><text x="345.82" y="245" font-size="11">🔒</text><text x="365.82" y="245" font-size="11" fill="#9a6700" font-weight="600" font-family="system-ui,-apple-system,Segoe UI,Roboto,sans-serif">Private</text><text x="470.17999999999995" y="245" font-size="12" fill="#9a6700" font-weight="700" font-family="system-ui,-apple-system,Segoe UI,Roboto,sans-serif" text-anchor="end">36</text></g>
<rect x="488.17999999999995" y="3" width="328.82" height="264" rx="6" fill="#8250df" opacity="0.15" stroke="#8250df" stroke-width="1.5"/><path d="M494.17999999999995,3 h316.82 a6,6 0 0 1 6,6 v26 h-328.82 v-26 a6,6 0 0 1 6,-6 z" fill="#8250df" opacity="0.1"/><line x1="488.17999999999995" y1="35" x2="817" y2="35" stroke="#8250df" stroke-width="0.75" opacity="0.45"/><text x="496.17999999999995" y="19" font-size="12" fill="#8250df" font-family="system-ui,-apple-system,Segoe UI,Roboto,sans-serif" font-weight="700">Top Themes</text><text x="496.17999999999995" y="31" font-size="9" fill="#8250df" opacity="0.95" font-weight="600" font-family="system-ui,-apple-system,Segoe UI,Roboto,sans-serif">Topic clusters</text>
<g transform="translate(496.17999999999995, 41)">
<text x="4" y="28" font-size="11" fill="#8250df" font-family="system-ui,-apple-system,Segoe UI,Roboto,sans-serif">AI &amp; Copilot</text><rect x="137.3844" y="15" width="175.4356" height="18" rx="3" fill="#8250df" opacity="0.12"/><rect x="137.3844" y="15" width="110" height="18" rx="3" fill="#8250df" opacity="0.55"/><text x="252.3844" y="28" font-size="10" fill="#8250df" font-weight="700" font-family="system-ui,-apple-system,Segoe UI,Roboto,sans-serif">27</text><text x="4" y="56" font-size="11" fill="#8250df" font-family="system-ui,-apple-system,Segoe UI,Roboto,sans-serif">Cognitive<tspan x="4" dy="12">Architecture</tspan></text><rect x="137.3844" y="49" width="175.4356" height="18" rx="3" fill="#8250df" opacity="0.12"/><rect x="137.3844" y="49" width="90" height="18" rx="3" fill="#8250df" opacity="0.55"/><text x="232.3844" y="62" font-size="10" fill="#8250df" font-weight="700" font-family="system-ui,-apple-system,Segoe UI,Roboto,sans-serif">22</text><text x="4" y="96" font-size="11" fill="#8250df" font-family="system-ui,-apple-system,Segoe UI,Roboto,sans-serif">Developer Tools</text><rect x="137.3844" y="83" width="175.4356" height="18" rx="3" fill="#8250df" opacity="0.12"/><rect x="137.3844" y="83" width="82" height="18" rx="3" fill="#8250df" opacity="0.55"/><text x="224.3844" y="96" font-size="10" fill="#8250df" font-weight="700" font-family="system-ui,-apple-system,Segoe UI,Roboto,sans-serif">20</text><text x="4" y="130" font-size="11" fill="#8250df" font-family="system-ui,-apple-system,Segoe UI,Roboto,sans-serif">Learning &amp; Research</text><rect x="137.3844" y="117" width="175.4356" height="18" rx="3" fill="#8250df" opacity="0.12"/><rect x="137.3844" y="117" width="49" height="18" rx="3" fill="#8250df" opacity="0.55"/><text x="191.3844" y="130" font-size="10" fill="#8250df" font-weight="700" font-family="system-ui,-apple-system,Segoe UI,Roboto,sans-serif">12</text><text x="4" y="164" font-size="11" fill="#8250df" font-family="system-ui,-apple-system,Segoe UI,Roboto,sans-serif">Cloud &amp; Azure</text><rect x="137.3844" y="151" width="175.4356" height="18" rx="3" fill="#8250df" opacity="0.12"/><rect x="137.3844" y="151" width="37" height="18" rx="3" fill="#8250df" opacity="0.55"/><text x="179.3844" y="164" font-size="10" fill="#8250df" font-weight="700" font-family="system-ui,-apple-system,Segoe UI,Roboto,sans-serif">9</text><text x="4" y="192" font-size="11" fill="#8250df" font-family="system-ui,-apple-system,Segoe UI,Roboto,sans-serif">Finance &amp;<tspan x="4" dy="12">Investment</tspan></text><rect x="137.3844" y="185" width="175.4356" height="18" rx="3" fill="#8250df" opacity="0.12"/><rect x="137.3844" y="185" width="33" height="18" rx="3" fill="#8250df" opacity="0.55"/><text x="175.3844" y="198" font-size="10" fill="#8250df" font-weight="700" font-family="system-ui,-apple-system,Segoe UI,Roboto,sans-serif">8</text>
</g>
</g>
<text x="410" y="935" text-anchor="middle" font-family="Segoe UI, system-ui, sans-serif" font-size="13"><tspan font-weight="700" fill="#1f2328" >71</tspan><tspan fill="#64748b" dx="4">repositories across 10 categories</tspan><tspan fill="#64748b" dx="6">·</tspan><tspan font-weight="700" fill="#1f2328" dx="6">56</tspan><tspan fill="#64748b" dx="4">actively maintained</tspan><tspan fill="#64748b" dx="6">·</tspan><tspan font-weight="700" fill="#1f2328" dx="6">19</tspan><tspan fill="#64748b" dx="4">flagships</tspan></text>
</svg>