<svg xmlns="http://www.w3.org/2000/svg" viewBox="0 0 820 947" width="100%" preserveAspectRatio="xMidYMid meet" role="img" aria-label="Portfolio">
<title>Portfolio</title>
<g transform="translate(0, 0) scale(0.683333)">
<defs>
    <!-- Background gradient - deep space theme -->
    <linearGradient id="bgGrad" x1="0%" y1="0%" x2="100%" y2="100%">
      <stop offset="0%" stop-color="#020617"/>
      <stop offset="50%" stop-color="#0f172a"/>
      <stop offset="100%" stop-color="#1e293b"/>
    </linearGradient>

    <!-- Logo gradient with Azure blue -->
    <linearGradient id="logoGrad" x1="0%" y1="0%" x2="100%" y2="100%">
      <stop offset="0%" stop-color="#00bcf2"/>
      <stop offset="50%" stop-color="#0078d4"/>
      <stop offset="100%" stop-color="#005a9e"/>
    </linearGradient>

    <!-- Name gradient -->
    <linearGradient id="nameGrad" x1="0%" y1="0%" x2="100%" y2="0%">
      <stop offset="0%" stop-color="#f8fafc"/>
      <stop offset="50%" stop-color="#e2e8f0"/>
      <stop offset="100%" stop-color="#f8fafc"/>
    </linearGradient>

    <!-- Accent text gradient -->
    <linearGradient id="accentTextGrad" x1="0%" y1="0%" x2="100%" y2="0%">
      <stop offset="0%" stop-color="#00bcf2"/>
      <stop offset="50%" stop-color="#0078d4"/>
      <stop offset="100%" stop-color="#00bcf2"/>
    </linearGradient>

    <!-- Glow filter -->
    <filter id="glow" x="-50%" y="-50%" width="200%" height="200%">
      <feGaussianBlur stdDeviation="3" result="coloredBlur"/>
      <feMerge>
        <feMergeNode in="coloredBlur"/>
        <feMergeNode in="SourceGraphic"/>
      </feMerge>
    </filter>

    <!-- Strong glow for logo -->
    <filter id="logoGlow" x="-100%" y="-100%" width="300%" height="300%">
      <feGaussianBlur stdDeviation="6" result="blur1"/>
      <feGaussianBlur stdDeviation="12" result="blur2"/>
      <feMerge>
        <feMergeNode in="blur2"/>
        <feMergeNode in="blur1"/>
        <feMergeNode in="SourceGraphic"/>
      </feMerge>
    </filter>

    <!-- Radial glow behind logo -->
    <radialGradient id="logoBackGlow" cx="50%" cy="50%" r="50%">
      <stop offset="0%" stop-color="#0078d4" stop-opacity="0.4"/>
      <stop offset="50%" stop-color="#0078d4" stop-opacity="0.1"/>
      <stop offset="100%" stop-color="#0078d4" stop-opacity="0"/>
    </radialGradient>

    <!-- Grid pattern -->
    <pattern id="grid" width="50" height="50" patternUnits="userSpaceOnUse">
      <path d="M 50 0 L 0 0 0 50" fill="none" stroke="#1e3a5f" stroke-width="0.5" opacity="0.4"/>
    </pattern>

    <!-- Dot pattern -->
    <pattern id="dots" width="30" height="30" patternUnits="userSpaceOnUse">
      <circle cx="15" cy="15" r="1" fill="#0078d4" opacity="0.2"/>
    </pattern>

    <!-- Gradient for accent line -->
    <linearGradient id="accentGrad" x1="0%" y1="0%" x2="100%" y2="0%">
      <stop offset="0%" stop-color="#005a9e"/>
      <stop offset="25%" stop-color="#0078d4"/>
      <stop offset="50%" stop-color="#00bcf2"/>
      <stop offset="75%" stop-color="#0078d4"/>
      <stop offset="100%" stop-color="#005a9e"/>
    </linearGradient>

    <!-- Neural network gradient -->
    <linearGradient id="neuralGrad" x1="0%" y1="0%" x2="100%" y2="100%">
      <stop offset="0%" stop-color="#7c3aed"/>
      <stop offset="50%" stop-color="#0078d4"/>
      <stop offset="100%" stop-color="#00bcf2"/>
    </linearGradient>
  </defs>

  <!-- Background -->
  <rect width="1200" height="300" fill="url(#bgGrad)"/>

  <!-- Grid overlay -->
  <rect width="1200" height="300" fill="url(#grid)"/>

  <!-- Dot pattern overlay -->
  <rect width="1200" height="300" fill="url(#dots)" opacity="0.5"/>

  <!-- Large decorative orbs -->
  <circle cx="150" cy="150" r="180" fill="url(#logoBackGlow)"/>
  <circle cx="1050" cy="80" r="150" fill="#0078d4" opacity="0.05"/>
  <circle cx="1150" cy="280" r="180" fill="#00bcf2" opacity="0.03"/>
  <circle cx="50" cy="250" r="100" fill="#7c3aed" opacity="0.06"/>

  <!-- Neural network nodes - cognitive theme -->
  <g opacity="0.4">
    <!-- Left side neural cluster -->
    <circle cx="80" cy="60" r="4" fill="#7c3aed"/>
    <circle cx="120" cy="40" r="3" fill="#0078d4"/>
    <circle cx="60" cy="100" r="3" fill="#00bcf2"/>
    <circle cx="140" cy="90" r="2" fill="#7c3aed"/>
    <line x1="80" y1="60" x2="120" y2="40" stroke="#7c3aed" stroke-width="1"/>
    <line x1="80" y1="60" x2="60" y2="100" stroke="#0078d4" stroke-width="1"/>
    <line x1="120" y1="40" x2="140" y2="90" stroke="#00bcf2" stroke-width="0.5"/>

    <!-- Right side neural cluster -->
    <circle cx="1100" cy="70" r="3" fill="#00bcf2"/>
    <circle cx="1140" cy="50" r="2" fill="#0078d4"/>
    <circle cx="1080" cy="100" r="4" fill="#7c3aed"/>
    <circle cx="1120" cy="120" r="2" fill="#0078d4"/>
    <line x1="1100" y1="70" x2="1140" y2="50" stroke="#00bcf2" stroke-width="0.5"/>
    <line x1="1100" y1="70" x2="1080" y2="100" stroke="#7c3aed" stroke-width="1"/>
    <line x1="1080" y1="100" x2="1120" y2="120" stroke="#0078d4" stroke-width="0.5"/>
  </g>

  <!-- Floating particles -->
  <circle cx="300" cy="30" r="1.5" fill="#0078d4" opacity="0.5"/>
  <circle cx="500" cy="50" r="2" fill="#00bcf2" opacity="0.4"/>
  <circle cx="750" cy="25" r="1" fill="#7c3aed" opacity="0.6"/>
  <circle cx="950" cy="45" r="2.5" fill="#00bcf2" opacity="0.3"/>
  <circle cx="400" cy="270" r="2" fill="#00bcf2" opacity="0.4"/>
  <circle cx="700" cy="260" r="1.5" fill="#0078d4" opacity="0.5"/>
  <circle cx="900" cy="275" r="2" fill="#7c3aed" opacity="0.3"/>
  <circle cx="1050" cy="250" r="1" fill="#0078d4" opacity="0.6"/>

  <!-- Logo glow backdrop -->
  <ellipse cx="150" cy="150" rx="120" ry="110" fill="url(#logoBackGlow)"/>

  <!-- Logo mark (scaled) with glow -->
  <g transform="translate(55, 58) scale(6)" filter="url(#logoGlow)">
    <path d="M16 2C8.268 2 2 8.268 2 16s6.268 14 14 14c3.866 0 7.389-1.568 9.928-4.1l-3.535-3.536A9.002 9.002 0 0116 25c-4.97 0-9-4.03-9-9s4.03-9 9-9c2.29 0 4.38.857 5.971 2.268l3.464-3.639C22.993 3.352 19.66 2 16 2z" fill="url(#logoGrad)"/>
    <path d="M20 10l-4 6 4 6h4l-4-6 4-6h-4z" fill="url(#logoGrad)"/>
    <path d="M24 10l4 6-4 6h4l4-6-4-6h-4z" fill="url(#logoGrad)" opacity="0.6"/>
  </g>

  <text x="320" y="54" font-family="Segoe UI, system-ui, sans-serif" font-size="13" font-weight="600" fill="#94a3b8" letter-spacing="3">AUTOMATIC REPOSITORY PORTFOLIO FOR</text>
  <!-- Main name -->
  <text x="320" y="135" font-family="Segoe UI, system-ui, sans-serif" font-size="74" font-weight="700" fill="url(#nameGrad)" filter="url(#glow)">Dr. Fabio Correa, DBA</text>

  <!-- Title line -->
  <text x="320" y="180" font-family="Segoe UI, system-ui, sans-serif" font-size="22" fill="#94a3b8" letter-spacing="1" textLength="800" lengthAdjust="spacingAndGlyphs">Building AI-powered cognitive architectures for human-AI collaboration and organizational transformation.</text>

  <!-- Tagline with accent -->
  <text x="320" y="220" font-family="Segoe UI, system-ui, sans-serif" font-size="18" fill="url(#accentTextGrad)" letter-spacing="1.5">THINK • BUILD • DEPLOY</text>

  <!-- Decorative accent line -->
  <line x1="320" y1="240" x2="850" y2="240" stroke="#334155" stroke-width="1"/>
  <line x1="320" y1="243" x2="600" y2="243" stroke="url(#accentGrad)" stroke-width="2" opacity="0.6"/>

  <!-- CorreaX branding badge -->
  <g transform="translate(320, 255)" font-family="Segoe UI, system-ui, sans-serif" font-size="12" fill="#94a3b8"><text letter-spacing="1">UPDATED</text><text x="70" font-weight="700">Apr 25 2026 17:57 EDT</text></g>

  <!-- Tech circuit decorations on right -->
  <g opacity="0.25">
    <path d="M1000 140 h80 v40 h40" stroke="#0078d4" stroke-width="1.5" fill="none"/>
    <circle cx="1000" cy="140" r="3" fill="#0078d4"/>
    <circle cx="1120" cy="180" r="4" fill="#00bcf2"/>
    <path d="M1020 200 h60 v-25 h30" stroke="#7c3aed" stroke-width="1" fill="none"/>
    <circle cx="1020" cy="200" r="2" fill="#7c3aed"/>
    <path d="M980 100 h50 l20 20 h40" stroke="#00bcf2" stroke-width="1" fill="none"/>
    <circle cx="980" cy="100" r="2" fill="#00bcf2"/>
  </g>

  <!-- Bottom accent bar with glow -->
  <rect x="0" y="290" width="1200" height="10" fill="url(#accentGrad)" filter="url(#glow)"/>
</g>
<g transform="translate(0, 217)">
<rect width="820" height="416" fill="none"/>
  <rect x="3" y="3" width="199.9903381642512" height="202" rx="6" fill="#b07aa1" opacity="0.15" stroke="#b07aa1" stroke-width="1.5"/><path d="M9,3 h187.9903381642512 a6,6 0 0 1 6,6 v16 h-199.9903381642512 v-16 a6,6 0 0 1 6,-6 z" fill="#b07aa1" opacity="0.1"/><line x1="3" y1="25" x2="202.9903381642512" y2="25" stroke="#b07aa1" stroke-width="0.75" opacity="0.45"/><text x="11" y="19" font-size="12" fill="#b07aa1" font-family="system-ui,-apple-system,Segoe UI,Roboto,sans-serif" font-weight="700">Developer Tools</text>
  <rect x="4" y="27" width="34.76674484108465" height="176" rx="3" fill="#b07aa1" opacity="0.37"/>
  <text x="21.383372420542326" y="115" text-anchor="middle" dominant-baseline="central" font-size="16" fill="#b07aa1" font-family="system-ui,sans-serif" font-weight="600" transform="rotate(-90,21.383372420542326,115)">typescript</text>
  <rect x="39.76674484108465" y="27" width="29.08794566124532" height="176" rx="3" fill="#b07aa1" opacity="0.33"/>
  <text x="54.31071767170731" y="115" text-anchor="middle" dominant-baseline="central" font-size="16" fill="#b07aa1" font-family="system-ui,sans-serif" font-weight="400" transform="rotate(-90,54.31071767170731,115)">vscode</text>
  <rect x="69.85469050232997" y="27" width="26.93020475427269" height="176" rx="3" fill="#b07aa1" opacity="0.31"/>
  <text x="83.31979287946632" y="115" text-anchor="middle" dominant-baseline="central" font-size="16" fill="#b07aa1" font-family="system-ui,sans-serif" font-weight="400" transform="rotate(-90,83.31979287946632,115)">vscode extension</text>
  <rect x="97.78489525660267" y="27" width="24.583801036913375" height="176" rx="3" fill="#b07aa1" opacity="0.30"/>
  <text x="110.07679577505935" y="115" text-anchor="middle" dominant-baseline="central" font-size="16" fill="#b07aa1" font-family="system-ui,sans-serif" font-weight="400" transform="rotate(-90,110.07679577505935,115)">react</text>
  <rect x="123.36869629351604" y="27" width="21.98842010554725" height="176" rx="3" fill="#b07aa1" opacity="0.28"/>
  <text x="134.36290634628966" y="115" text-anchor="middle" dominant-baseline="central" font-size="16" fill="#b07aa1" font-family="system-ui,sans-serif" font-weight="400" transform="rotate(-90,134.36290634628966,115)">developer tools</text>
  <rect x="146.35711639906327" y="27" width="19.042530400488424" height="176" rx="3" fill="#b07aa1" opacity="0.27"/>
  <text x="155.8783815993075" y="115" text-anchor="middle" dominant-baseline="central" font-size="14" fill="#b07aa1" font-family="system-ui,sans-serif" font-weight="400" transform="rotate(-90,155.8783815993075,115)">javascript</text>
  <rect x="166.3996467995517" y="27" width="19.042530400488424" height="176" rx="3" fill="#b07aa1" opacity="0.27"/>
  <text x="175.92091199979592" y="115" text-anchor="middle" dominant-baseline="central" font-size="14" fill="#b07aa1" font-family="system-ui,sans-serif" font-weight="400" transform="rotate(-90,175.92091199979592,115)">nodejs</text>
  <rect x="186.44217720004013" y="27" width="15.548160964211064" height="176" rx="3" fill="#b07aa1" opacity="0.25"/>
  <text x="194.21625768214568" y="115" text-anchor="middle" dominant-baseline="central" font-size="11" fill="#b07aa1" font-family="system-ui,sans-serif" font-weight="400" transform="rotate(-90,194.21625768214568,115)">markdown</text>
  <rect x="208.9903381642512" y="3" width="160.3768115942029" height="202" rx="6" fill="#4e79a7" opacity="0.15" stroke="#4e79a7" stroke-width="1.5"/><path d="M214.9903381642512,3 h148.3768115942029 a6,6 0 0 1 6,6 v16 h-160.3768115942029 v-16 a6,6 0 0 1 6,-6 z" fill="#4e79a7" opacity="0.1"/><line x1="208.9903381642512" y1="25" x2="369.3671497584541" y2="25" stroke="#4e79a7" stroke-width="0.75" opacity="0.45"/><text x="216.9903381642512" y="19" font-size="12" fill="#4e79a7" font-family="system-ui,-apple-system,Segoe UI,Roboto,sans-serif" font-weight="700">Cognitive Architecture</text>
  <rect x="209.9903381642512" y="27" width="34.0490308043952" height="176" rx="3" fill="#4e79a7" opacity="0.42"/>
  <text x="227.0148535664488" y="115" text-anchor="middle" dominant-baseline="central" font-size="13" fill="#4e79a7" font-family="system-ui,sans-serif" font-weight="600" transform="rotate(-90,227.0148535664488,115)">cognitive architecture</text>
  <rect x="245.0393689686464" y="27" width="23.131761368819145" height="176" rx="3" fill="#4e79a7" opacity="0.31"/>
  <text x="256.605249653056" y="115" text-anchor="middle" dominant-baseline="central" font-size="16" fill="#4e79a7" font-family="system-ui,sans-serif" font-weight="400" transform="rotate(-90,256.605249653056,115)">ai assistant</text>
  <rect x="269.1711303374655" y="27" width="18.887004068476887" height="176" rx="3" fill="#4e79a7" opacity="0.28"/>
  <text x="278.614632371704" y="115" text-anchor="middle" dominant-baseline="central" font-size="13" fill="#4e79a7" font-family="system-ui,sans-serif" font-weight="400" transform="rotate(-90,278.614632371704,115)">human ai collaboration</text>
  <rect x="289.0581344059424" y="27" width="18.887004068476887" height="176" rx="3" fill="#4e79a7" opacity="0.28"/>
  <text x="298.50163644018085" y="115" text-anchor="middle" dominant-baseline="central" font-size="14" fill="#4e79a7" font-family="system-ui,sans-serif" font-weight="400" transform="rotate(-90,298.50163644018085,115)">meta cognition</text>
  <rect x="308.94513847441925" y="27" width="16.356625324681033" height="176" rx="3" fill="#4e79a7" opacity="0.27"/>
  <text x="317.12345113675974" y="115" text-anchor="middle" dominant-baseline="central" font-size="12" fill="#4e79a7" font-family="system-ui,sans-serif" font-weight="400" transform="rotate(-90,317.12345113675974,115)">model context protocol</text>
  <rect x="326.3017637991003" y="27" width="13.355128653117921" height="176" rx="3" fill="#4e79a7" opacity="0.25"/>
  <text x="332.97932812565926" y="115" text-anchor="middle" dominant-baseline="central" font-size="10" fill="#4e79a7" font-family="system-ui,sans-serif" font-weight="400" transform="rotate(-90,332.97932812565926,115)">ai agents</text>
  <rect x="340.6568924522182" y="27" width="13.355128653117921" height="176" rx="3" fill="#4e79a7" opacity="0.25"/>
  <text x="347.33445677877717" y="115" text-anchor="middle" dominant-baseline="central" font-size="10" fill="#4e79a7" font-family="system-ui,sans-serif" font-weight="400" transform="rotate(-90,347.33445677877717,115)">memory systems</text>
  <rect x="355.0120211053361" y="27" width="13.355128653118015" height="176" rx="3" fill="#4e79a7" opacity="0.25"/>
  <text x="361.6895854318951" y="115" text-anchor="middle" dominant-baseline="central" font-size="10" fill="#4e79a7" font-family="system-ui,sans-serif" font-weight="400" transform="rotate(-90,361.6895854318951,115)">neuroscience</text>
  <rect x="375.3671497584541" y="3" width="152.45410628019323" height="202" rx="6" fill="#f28e2b" opacity="0.15" stroke="#f28e2b" stroke-width="1.5"/><path d="M381.3671497584541,3 h140.45410628019323 a6,6 0 0 1 6,6 v16 h-152.45410628019323 v-16 a6,6 0 0 1 6,-6 z" fill="#f28e2b" opacity="0.1"/><line x1="375.3671497584541" y1="25" x2="527.8212560386473" y2="25" stroke="#f28e2b" stroke-width="0.75" opacity="0.45"/><text x="383.3671497584541" y="19" font-size="12" fill="#f28e2b" font-family="system-ui,-apple-system,Segoe UI,Roboto,sans-serif" font-weight="700">AI &amp; Copilot</text>
  <rect x="376.3671497584541" y="27" width="25.49077682595508" height="176" rx="3" fill="#f28e2b" opacity="0.34"/>
  <text x="389.11253817143165" y="115" text-anchor="middle" dominant-baseline="central" font-size="16" fill="#f28e2b" font-family="system-ui,sans-serif" font-weight="600" transform="rotate(-90,389.11253817143165,115)">github copilot</text>
  <rect x="402.8579265844092" y="27" width="25.49077682595508" height="176" rx="3" fill="#f28e2b" opacity="0.34"/>
  <text x="415.60331499738675" y="115" text-anchor="middle" dominant-baseline="central" font-size="16" fill="#f28e2b" font-family="system-ui,sans-serif" font-weight="600" transform="rotate(-90,415.60331499738675,115)">ai</text>
  <rect x="429.3487034103643" y="27" width="20.152228524263894" height="176" rx="3" fill="#f28e2b" opacity="0.30"/>
  <text x="439.42481767249626" y="115" text-anchor="middle" dominant-baseline="central" font-size="15" fill="#f28e2b" font-family="system-ui,sans-serif" font-weight="400" transform="rotate(-90,439.42481767249626,115)">copilot</text>
  <rect x="450.50093193462817" y="27" width="15.609849092688025" height="176" rx="3" fill="#f28e2b" opacity="0.27"/>
  <text x="458.3058564809722" y="115" text-anchor="middle" dominant-baseline="central" font-size="11" fill="#f28e2b" font-family="system-ui,sans-serif" font-weight="400" transform="rotate(-90,458.3058564809722,115)">prompt engineering</text>
  <rect x="467.1107810273162" y="27" width="15.609849092688025" height="176" rx="3" fill="#f28e2b" opacity="0.27"/>
  <text x="474.9157055736602" y="115" text-anchor="middle" dominant-baseline="central" font-size="11" fill="#f28e2b" font-family="system-ui,sans-serif" font-weight="400" transform="rotate(-90,474.9157055736602,115)">azure openai</text>
  <rect x="483.7206301200042" y="27" width="15.609849092688025" height="176" rx="3" fill="#f28e2b" opacity="0.27"/>
  <text x="491.5255546663482" y="115" text-anchor="middle" dominant-baseline="central" font-size="11" fill="#f28e2b" font-family="system-ui,sans-serif" font-weight="400" transform="rotate(-90,491.5255546663482,115)">ai adoption</text>
  <rect x="500.33047921269224" y="27" width="12.74538841297754" height="176" rx="3" fill="#f28e2b" opacity="0.25"/>
  <text x="506.703173419181" y="115" text-anchor="middle" dominant-baseline="central" font-size="9" fill="#f28e2b" font-family="system-ui,sans-serif" font-weight="400" transform="rotate(-90,506.703173419181,115)">ai research</text>
  <rect x="514.0758676256697" y="27" width="12.745388412977604" height="176" rx="3" fill="#f28e2b" opacity="0.25"/>
  <text x="520.4485618321585" y="115" text-anchor="middle" dominant-baseline="central" font-size="9" fill="#f28e2b" font-family="system-ui,sans-serif" font-weight="400" transform="rotate(-90,520.4485618321585,115)">copilot extensions</text>
  <rect x="533.8212560386473" y="3" width="140.57004830917873" height="202" rx="6" fill="#e15759" opacity="0.15" stroke="#e15759" stroke-width="1.5"/><path d="M539.8212560386473,3 h128.57004830917873 a6,6 0 0 1 6,6 v16 h-140.57004830917873 v-16 a6,6 0 0 1 6,-6 z" fill="#e15759" opacity="0.1"/><line x1="533.8212560386473" y1="25" x2="674.391304347826" y2="25" stroke="#e15759" stroke-width="0.75" opacity="0.45"/><text x="541.8212560386473" y="19" font-size="12" fill="#e15759" font-family="system-ui,-apple-system,Segoe UI,Roboto,sans-serif" font-weight="700">Cloud &amp; Azure</text>
  <rect x="534.8212560386473" y="27" width="32.77422848804251" height="176" rx="3" fill="#e15759" opacity="0.45"/>
  <text x="551.2083702826686" y="115" text-anchor="middle" dominant-baseline="central" font-size="16" fill="#e15759" font-family="system-ui,sans-serif" font-weight="600" transform="rotate(-90,551.2083702826686,115)">azure</text>
  <rect x="568.5954845266898" y="27" width="18.922209640053644" height="176" rx="3" fill="#e15759" opacity="0.30"/>
  <text x="578.0565893467166" y="115" text-anchor="middle" dominant-baseline="central" font-size="14" fill="#e15759" font-family="system-ui,sans-serif" font-weight="400" transform="rotate(-90,578.0565893467166,115)">microsoft</text>
  <rect x="588.5176941667435" y="27" width="14.65708056187464" height="176" rx="3" fill="#e15759" opacity="0.27"/>
  <text x="595.8462344476808" y="115" text-anchor="middle" dominant-baseline="central" font-size="10" fill="#e15759" font-family="system-ui,sans-serif" font-weight="400" transform="rotate(-90,595.8462344476808,115)">azure functions</text>
  <rect x="604.1747747286181" y="27" width="14.65708056187464" height="176" rx="3" fill="#e15759" opacity="0.27"/>
  <text x="611.5033150095554" y="115" text-anchor="middle" dominant-baseline="central" font-size="10" fill="#e15759" font-family="system-ui,sans-serif" font-weight="400" transform="rotate(-90,611.5033150095554,115)">azure static web apps</text>
  <rect x="619.8318552904927" y="27" width="14.65708056187464" height="176" rx="3" fill="#e15759" opacity="0.27"/>
  <text x="627.1603955714301" y="115" text-anchor="middle" dominant-baseline="central" font-size="10" fill="#e15759" font-family="system-ui,sans-serif" font-weight="400" transform="rotate(-90,627.1603955714301,115)">dotnet</text>
  <rect x="635.4889358523674" y="27" width="11.96745616515288" height="176" rx="3" fill="#e15759" opacity="0.25"/>
  <text x="641.4726639349439" y="115" text-anchor="middle" dominant-baseline="central" font-size="8" fill="#e15759" font-family="system-ui,sans-serif" font-weight="400" transform="rotate(-90,641.4726639349439,115)">microsoft internal</text>
  <rect x="648.4563920175202" y="27" width="11.96745616515288" height="176" rx="3" fill="#e15759" opacity="0.25"/>
  <text x="654.4401201000967" y="115" text-anchor="middle" dominant-baseline="central" font-size="8" fill="#e15759" font-family="system-ui,sans-serif" font-weight="400" transform="rotate(-90,654.4401201000967,115)">infrastructure management</text>
  <rect x="661.423848182673" y="27" width="11.967456165152953" height="176" rx="3" fill="#e15759" opacity="0.25"/>
  <text x="667.4075762652495" y="115" text-anchor="middle" dominant-baseline="central" font-size="8" fill="#e15759" font-family="system-ui,sans-serif" font-weight="400" transform="rotate(-90,667.4075762652495,115)">microsoft fabric</text>
  <rect x="680.391304347826" y="3" width="136.608695652174" height="202" rx="6" fill="#57606a" opacity="0.15" stroke="#57606a" stroke-width="1.5"/><path d="M686.391304347826,3 h124.60869565217399 a6,6 0 0 1 6,6 v16 h-136.608695652174 v-16 a6,6 0 0 1 6,-6 z" fill="#57606a" opacity="0.1"/><line x1="680.391304347826" y1="25" x2="817" y2="25" stroke="#57606a" stroke-width="0.75" opacity="0.45"/><text x="688.391304347826" y="19" font-size="12" fill="#57606a" font-family="system-ui,-apple-system,Segoe UI,Roboto,sans-serif" font-weight="700">Other</text>
  <rect x="681.391304347826" y="27" width="21.203079582178713" height="176" rx="3" fill="#57606a" opacity="0.31"/>
  <text x="691.9928441389154" y="115" text-anchor="middle" dominant-baseline="central" font-size="15" fill="#57606a" font-family="system-ui,sans-serif" font-weight="400" transform="rotate(-90,691.9928441389154,115)">python</text>
  <rect x="703.5943839300047" y="27" width="17.3122419839874" height="176" rx="3" fill="#57606a" opacity="0.28"/>
  <text x="712.2505049219984" y="115" text-anchor="middle" dominant-baseline="central" font-size="12" fill="#57606a" font-family="system-ui,sans-serif" font-weight="400" transform="rotate(-90,712.2505049219984,115)">skills</text>
  <rect x="721.9066259139921" y="27" width="17.3122419839874" height="176" rx="3" fill="#57606a" opacity="0.28"/>
  <text x="730.5627469059858" y="115" text-anchor="middle" dominant-baseline="central" font-size="12" fill="#57606a" font-family="system-ui,sans-serif" font-weight="400" transform="rotate(-90,730.5627469059858,115)">mcp</text>
  <rect x="740.2188678979795" y="27" width="17.3122419839874" height="176" rx="3" fill="#57606a" opacity="0.28"/>
  <text x="748.8749888899732" y="115" text-anchor="middle" dominant-baseline="central" font-size="12" fill="#57606a" font-family="system-ui,sans-serif" font-weight="400" transform="rotate(-90,748.8749888899732,115)">qualtrics</text>
  <rect x="758.5311098819669" y="27" width="14.992841354596596" height="176" rx="3" fill="#57606a" opacity="0.27"/>
  <text x="766.0275305592652" y="115" text-anchor="middle" dominant-baseline="central" font-size="11" fill="#57606a" font-family="system-ui,sans-serif" font-weight="400" transform="rotate(-90,766.0275305592652,115)">dashboard</text>
  <rect x="774.5239512365636" y="27" width="14.992841354596596" height="176" rx="3" fill="#57606a" opacity="0.27"/>
  <text x="782.0203719138618" y="115" text-anchor="middle" dominant-baseline="central" font-size="11" fill="#57606a" font-family="system-ui,sans-serif" font-weight="400" transform="rotate(-90,782.0203719138618,115)">msal</text>
  <rect x="790.5167925911602" y="27" width="12.24160370441994" height="176" rx="3" fill="#57606a" opacity="0.25"/>
  <text x="796.6375944433702" y="115" text-anchor="middle" dominant-baseline="central" font-size="9" fill="#57606a" font-family="system-ui,sans-serif" font-weight="400" transform="rotate(-90,796.6375944433702,115)">openai</text>
  <rect x="803.7583962955802" y="27" width="12.241603704419845" height="176" rx="3" fill="#57606a" opacity="0.25"/>
  <text x="809.87919814779" y="115" text-anchor="middle" dominant-baseline="central" font-size="9" fill="#57606a" font-family="system-ui,sans-serif" font-weight="400" transform="rotate(-90,809.87919814779,115)">ai tools</text>
  <rect x="3" y="211" width="297.7037037037037" height="202" rx="6" fill="#ff9da7" opacity="0.15" stroke="#ff9da7" stroke-width="1.5"/><path d="M9,211 h285.7037037037037 a6,6 0 0 1 6,6 v16 h-297.7037037037037 v-16 a6,6 0 0 1 6,-6 z" fill="#ff9da7" opacity="0.1"/><line x1="3" y1="233" x2="300.7037037037037" y2="233" stroke="#ff9da7" stroke-width="0.75" opacity="0.45"/><text x="11" y="227" font-size="12" fill="#ff9da7" font-family="system-ui,-apple-system,Segoe UI,Roboto,sans-serif" font-weight="700">Productivity &amp; Automation</text>
  <rect x="4" y="235" width="36.087962962962955" height="176" rx="3" fill="#ff9da7" opacity="0.25"/>
  <text x="22.043981481481477" y="323" text-anchor="middle" dominant-baseline="central" font-size="16" fill="#ff9da7" font-family="system-ui,sans-serif" font-weight="400" transform="rotate(-90,22.043981481481477,323)">portfolio</text>
  <rect x="41.087962962962955" y="235" width="36.087962962962955" height="176" rx="3" fill="#ff9da7" opacity="0.25"/>
  <text x="59.13194444444443" y="323" text-anchor="middle" dominant-baseline="central" font-size="16" fill="#ff9da7" font-family="system-ui,sans-serif" font-weight="400" transform="rotate(-90,59.13194444444443,323)">template</text>
  <rect x="78.17592592592591" y="235" width="36.087962962962955" height="176" rx="3" fill="#ff9da7" opacity="0.25"/>
  <text x="96.21990740740739" y="323" text-anchor="middle" dominant-baseline="central" font-size="16" fill="#ff9da7" font-family="system-ui,sans-serif" font-weight="400" transform="rotate(-90,96.21990740740739,323)">jupyter notebook</text>
  <rect x="115.26388888888886" y="235" width="36.087962962962955" height="176" rx="3" fill="#ff9da7" opacity="0.25"/>
  <text x="133.30787037037032" y="323" text-anchor="middle" dominant-baseline="central" font-size="16" fill="#ff9da7" font-family="system-ui,sans-serif" font-weight="400" transform="rotate(-90,133.30787037037032,323)">dissertation</text>
  <rect x="152.35185185185182" y="235" width="36.087962962962955" height="176" rx="3" fill="#ff9da7" opacity="0.25"/>
  <text x="170.3958333333333" y="323" text-anchor="middle" dominant-baseline="central" font-size="16" fill="#ff9da7" font-family="system-ui,sans-serif" font-weight="400" transform="rotate(-90,170.3958333333333,323)">adaptive cards</text>
  <rect x="189.43981481481478" y="235" width="36.087962962962955" height="176" rx="3" fill="#ff9da7" opacity="0.25"/>
  <text x="207.48379629629625" y="323" text-anchor="middle" dominant-baseline="central" font-size="16" fill="#ff9da7" font-family="system-ui,sans-serif" font-weight="400" transform="rotate(-90,207.48379629629625,323)">video analysis</text>
  <rect x="226.52777777777774" y="235" width="36.087962962962955" height="176" rx="3" fill="#ff9da7" opacity="0.25"/>
  <text x="244.5717592592592" y="323" text-anchor="middle" dominant-baseline="central" font-size="16" fill="#ff9da7" font-family="system-ui,sans-serif" font-weight="400" transform="rotate(-90,244.5717592592592,323)">youtube</text>
  <rect x="263.6157407407407" y="235" width="36.08796296296299" height="176" rx="3" fill="#ff9da7" opacity="0.25"/>
  <text x="281.6597222222222" y="323" text-anchor="middle" dominant-baseline="central" font-size="16" fill="#ff9da7" font-family="system-ui,sans-serif" font-weight="400" transform="rotate(-90,281.6597222222222,323)">real time</text>
  <rect x="306.7037037037037" y="211" width="236.96296296296296" height="202" rx="6" fill="#76b7b2" opacity="0.15" stroke="#76b7b2" stroke-width="1.5"/><path d="M312.7037037037037,211 h224.96296296296296 a6,6 0 0 1 6,6 v16 h-236.96296296296296 v-16 a6,6 0 0 1 6,-6 z" fill="#76b7b2" opacity="0.1"/><line x1="306.7037037037037" y1="233" x2="543.6666666666666" y2="233" stroke="#76b7b2" stroke-width="0.75" opacity="0.45"/><text x="314.7037037037037" y="227" font-size="12" fill="#76b7b2" font-family="system-ui,-apple-system,Segoe UI,Roboto,sans-serif" font-weight="700">Learning &amp; Research</text>
  <rect x="307.7037037037037" y="235" width="37.643009697298275" height="176" rx="3" fill="#76b7b2" opacity="0.27"/>
  <text x="326.5252085523528" y="323" text-anchor="middle" dominant-baseline="central" font-size="16" fill="#76b7b2" font-family="system-ui,sans-serif" font-weight="400" transform="rotate(-90,326.5252085523528,323)">academic research</text>
  <rect x="346.346713401002" y="235" width="37.643009697298275" height="176" rx="3" fill="#76b7b2" opacity="0.27"/>
  <text x="365.1682182496511" y="323" text-anchor="middle" dominant-baseline="central" font-size="16" fill="#76b7b2" font-family="system-ui,sans-serif" font-weight="400" transform="rotate(-90,365.1682182496511,323)">cognitive science</text>
  <rect x="384.98972309830026" y="235" width="30.73538871367328" height="176" rx="3" fill="#76b7b2" opacity="0.25"/>
  <text x="400.3574174551369" y="323" text-anchor="middle" dominant-baseline="central" font-size="16" fill="#76b7b2" font-family="system-ui,sans-serif" font-weight="400" transform="rotate(-90,400.3574174551369,323)">utaut2</text>
  <rect x="416.72511181197353" y="235" width="30.73538871367328" height="176" rx="3" fill="#76b7b2" opacity="0.25"/>
  <text x="432.09280616881017" y="323" text-anchor="middle" dominant-baseline="central" font-size="16" fill="#76b7b2" font-family="system-ui,sans-serif" font-weight="400" transform="rotate(-90,432.09280616881017,323)">flashcards</text>
  <rect x="448.4605005256468" y="235" width="30.73538871367328" height="176" rx="3" fill="#76b7b2" opacity="0.25"/>
  <text x="463.82819488248344" y="323" text-anchor="middle" dominant-baseline="central" font-size="16" fill="#76b7b2" font-family="system-ui,sans-serif" font-weight="400" transform="rotate(-90,463.82819488248344,323)">learning</text>
  <rect x="480.1958892393201" y="235" width="30.73538871367328" height="176" rx="3" fill="#76b7b2" opacity="0.25"/>
  <text x="495.5635835961567" y="323" text-anchor="middle" dominant-baseline="central" font-size="16" fill="#76b7b2" font-family="system-ui,sans-serif" font-weight="400" transform="rotate(-90,495.5635835961567,323)">meta learning</text>
  <rect x="511.93127795299336" y="235" width="30.735388713673274" height="176" rx="3" fill="#76b7b2" opacity="0.25"/>
  <text x="527.29897230983" y="323" text-anchor="middle" dominant-baseline="central" font-size="16" fill="#76b7b2" font-family="system-ui,sans-serif" font-weight="400" transform="rotate(-90,527.29897230983,323)">tutorial</text>
  <rect x="549.6666666666666" y="211" width="206.59259259259258" height="202" rx="6" fill="#59a14f" opacity="0.15" stroke="#59a14f" stroke-width="1.5"/><path d="M555.6666666666666,211 h194.59259259259258 a6,6 0 0 1 6,6 v16 h-206.59259259259258 v-16 a6,6 0 0 1 6,-6 z" fill="#59a14f" opacity="0.1"/><line x1="549.6666666666666" y1="233" x2="756.2592592592592" y2="233" stroke="#59a14f" stroke-width="0.75" opacity="0.45"/><text x="557.6666666666666" y="227" font-size="12" fill="#59a14f" font-family="system-ui,-apple-system,Segoe UI,Roboto,sans-serif" font-weight="700">Data Engineering</text>
  <rect x="550.6666666666666" y="235" width="28.370370370370367" height="176" rx="3" fill="#59a14f" opacity="0.25"/>
  <text x="564.8518518518518" y="323" text-anchor="middle" dominant-baseline="central" font-size="16" fill="#59a14f" font-family="system-ui,sans-serif" font-weight="400" transform="rotate(-90,564.8518518518518,323)">data visualization</text>
  <rect x="580.037037037037" y="235" width="28.370370370370367" height="176" rx="3" fill="#59a14f" opacity="0.25"/>
  <text x="594.2222222222222" y="323" text-anchor="middle" dominant-baseline="central" font-size="16" fill="#59a14f" font-family="system-ui,sans-serif" font-weight="400" transform="rotate(-90,594.2222222222222,323)">youtube api</text>
  <rect x="609.4074074074073" y="235" width="28.370370370370367" height="176" rx="3" fill="#59a14f" opacity="0.25"/>
  <text x="623.5925925925925" y="323" text-anchor="middle" dominant-baseline="central" font-size="16" fill="#59a14f" font-family="system-ui,sans-serif" font-weight="400" transform="rotate(-90,623.5925925925925,323)">survey analytics</text>
  <rect x="638.7777777777776" y="235" width="28.370370370370367" height="176" rx="3" fill="#59a14f" opacity="0.25"/>
  <text x="652.9629629629628" y="323" text-anchor="middle" dominant-baseline="central" font-size="16" fill="#59a14f" font-family="system-ui,sans-serif" font-weight="400" transform="rotate(-90,652.9629629629628,323)">data engineering</text>
  <rect x="668.1481481481479" y="235" width="28.370370370370367" height="176" rx="3" fill="#59a14f" opacity="0.25"/>
  <text x="682.3333333333331" y="323" text-anchor="middle" dominant-baseline="central" font-size="16" fill="#59a14f" font-family="system-ui,sans-serif" font-weight="400" transform="rotate(-90,682.3333333333331,323)">pyspark</text>
  <rect x="697.5185185185182" y="235" width="28.370370370370367" height="176" rx="3" fill="#59a14f" opacity="0.25"/>
  <text x="711.7037037037035" y="323" text-anchor="middle" dominant-baseline="central" font-size="16" fill="#59a14f" font-family="system-ui,sans-serif" font-weight="400" transform="rotate(-90,711.7037037037035,323)">cosmos db</text>
  <rect x="726.8888888888886" y="235" width="28.370370370370665" height="176" rx="3" fill="#59a14f" opacity="0.25"/>
  <text x="741.0740740740739" y="323" text-anchor="middle" dominant-baseline="central" font-size="16" fill="#59a14f" font-family="system-ui,sans-serif" font-weight="400" transform="rotate(-90,741.0740740740739,323)">replicate</text>
  <rect x="762.2592592592592" y="211" width="54.74074074074076" height="202" rx="6" fill="#edc948" opacity="0.15" stroke="#edc948" stroke-width="1.5"/><path d="M768.2592592592592,211 h42.74074074074076 a6,6 0 0 1 6,6 v16 h-54.74074074074076 v-16 a6,6 0 0 1 6,-6 z" fill="#edc948" opacity="0.1"/><line x1="762.2592592592592" y1="233" x2="817" y2="233" stroke="#edc948" stroke-width="0.75" opacity="0.45"/><text x="770.2592592592592" y="227" font-size="12" fill="#edc948" font-family="system-ui,-apple-system,Segoe UI,Roboto,sans-serif" font-weight="700">Healt…</text>
  <rect x="763.2592592592592" y="235" width="25.87037037037038" height="176" rx="3" fill="#edc948" opacity="0.25"/>
  <text x="776.1944444444445" y="323" text-anchor="middle" dominant-baseline="central" font-size="15" fill="#edc948" font-family="system-ui,sans-serif" font-weight="400" transform="rotate(-90,776.1944444444445,323)">customer experience</text>
  <rect x="790.1296296296296" y="235" width="25.870370370370438" height="176" rx="3" fill="#edc948" opacity="0.25"/>
  <text x="803.0648148148148" y="323" text-anchor="middle" dominant-baseline="central" font-size="16" fill="#edc948" font-family="system-ui,sans-serif" font-weight="400" transform="rotate(-90,803.0648148148148,323)">healthcare</text>
</g>
<g transform="translate(0, 639)">
<title>Portfolio at a Glance</title>
<rect width="820" height="270" fill="none"/>
<rect x="3" y="3" width="328.82" height="264" rx="6" fill="#0969da" opacity="0.15" stroke="#0969da" stroke-width="1.5"/><path d="M9,3 h316.82 a6,6 0 0 1 6,6 v26 h-328.82 v-26 a6,6 0 0 1 6,-6 z" fill="#0969da" opacity="0.1"/><line x1="3" y1="35" x2="331.82" y2="35" stroke="#0969da" stroke-width="0.75" opacity="0.45"/><text x="11" y="19" font-size="12" fill="#0969da" font-family="system-ui,-apple-system,Segoe UI,Roboto,sans-serif" font-weight="700">Top Languages</text><text x="11" y="31" font-size="9" fill="#0969da" opacity="0.95" font-weight="600" font-family="system-ui,-apple-system,Segoe UI,Roboto,sans-serif">By lines of code</text>
<g transform="translate(11, 41)">
<text x="4" y="28" font-size="11" fill="#0969da" font-family="system-ui,-apple-system,Segoe UI,Roboto,sans-serif">Python</text><rect x="137.3844" y="15" width="175.4356" height="18" rx="3" fill="#0969da" opacity="0.12"/><rect x="137.3844" y="15" width="102" height="18" rx="3" fill="#0969da" opacity="0.55"/><text x="244.3844" y="28" font-size="10" fill="#0969da" font-weight="700" font-family="system-ui,-apple-system,Segoe UI,Roboto,sans-serif">58.2%</text><text x="4" y="62" font-size="11" fill="#0969da" font-family="system-ui,-apple-system,Segoe UI,Roboto,sans-serif">Jupyter Notebook</text><rect x="137.3844" y="49" width="175.4356" height="18" rx="3" fill="#0969da" opacity="0.12"/><rect x="137.3844" y="49" width="47" height="18" rx="3" fill="#0969da" opacity="0.55"/><text x="189.3844" y="62" font-size="10" fill="#0969da" font-weight="700" font-family="system-ui,-apple-system,Segoe UI,Roboto,sans-serif">26.8%</text><text x="4" y="96" font-size="11" fill="#0969da" font-family="system-ui,-apple-system,Segoe UI,Roboto,sans-serif">TypeScript</text><rect x="137.3844" y="83" width="175.4356" height="18" rx="3" fill="#0969da" opacity="0.12"/><rect x="137.3844" y="83" width="9" height="18" rx="3" fill="#0969da" opacity="0.55"/><text x="151.3844" y="96" font-size="10" fill="#0969da" font-weight="700" font-family="system-ui,-apple-system,Segoe UI,Roboto,sans-serif">5.0%</text><text x="4" y="130" font-size="11" fill="#0969da" font-family="system-ui,-apple-system,Segoe UI,Roboto,sans-serif">JavaScript</text><rect x="137.3844" y="117" width="175.4356" height="18" rx="3" fill="#0969da" opacity="0.12"/><rect x="137.3844" y="117" width="7" height="18" rx="3" fill="#0969da" opacity="0.55"/><text x="149.3844" y="130" font-size="10" fill="#0969da" font-weight="700" font-family="system-ui,-apple-system,Segoe UI,Roboto,sans-serif">4.0%</text><text x="4" y="164" font-size="11" fill="#0969da" font-family="system-ui,-apple-system,Segoe UI,Roboto,sans-serif">PowerShell</text><rect x="137.3844" y="151" width="175.4356" height="18" rx="3" fill="#0969da" opacity="0.12"/><rect x="137.3844" y="151" width="3" height="18" rx="3" fill="#0969da" opacity="0.55"/><text x="145.3844" y="164" font-size="10" fill="#0969da" font-weight="700" font-family="system-ui,-apple-system,Segoe UI,Roboto,sans-serif">2.0%</text><text x="4" y="198" font-size="11" fill="#0969da" font-family="system-ui,-apple-system,Segoe UI,Roboto,sans-serif">Cython</text><rect x="137.3844" y="185" width="175.4356" height="18" rx="3" fill="#0969da" opacity="0.12"/><rect x="137.3844" y="185" width="2" height="18" rx="3" fill="#0969da" opacity="0.55"/><text x="144.3844" y="198" font-size="10" fill="#0969da" font-weight="700" font-family="system-ui,-apple-system,Segoe UI,Roboto,sans-serif">1.3%</text>
</g>
<rect x="337.82" y="3" width="144.35999999999999" height="264" rx="6" fill="#9a6700" opacity="0.15" stroke="#9a6700" stroke-width="1.5"/><path d="M343.82,3 h132.35999999999999 a6,6 0 0 1 6,6 v26 h-144.35999999999999 v-26 a6,6 0 0 1 6,-6 z" fill="#9a6700" opacity="0.1"/><line x1="337.82" y1="35" x2="482.17999999999995" y2="35" stroke="#9a6700" stroke-width="0.75" opacity="0.45"/><text x="345.82" y="19" font-size="12" fill="#9a6700" font-family="system-ui,-apple-system,Segoe UI,Roboto,sans-serif" font-weight="700">Tier &amp; Activity</text><text x="345.82" y="31" font-size="9" fill="#9a6700" opacity="0.95" font-weight="600" font-family="system-ui,-apple-system,Segoe UI,Roboto,sans-serif">Portfolio composition</text>
<text x="345.82" y="52" font-size="9" font-weight="700" fill="#9a6700" opacity="0.7" letter-spacing="0.6" font-family="system-ui,-apple-system,Segoe UI,Roboto,sans-serif">TIERS</text>
<g><text x="345.82" y="69" font-size="11">🏆</text><text x="365.82" y="69" font-size="11" fill="#9a6700" font-weight="600" font-family="system-ui,-apple-system,Segoe UI,Roboto,sans-serif">Flagship</text><text x="470.17999999999995" y="69" font-size="12" fill="#9a6700" font-weight="700" font-family="system-ui,-apple-system,Segoe UI,Roboto,sans-serif" text-anchor="end">17</text><text x="345.82" y="91" font-size="11">⭐</text><text x="365.82" y="91" font-size="11" fill="#9a6700" font-weight="600" font-family="system-ui,-apple-system,Segoe UI,Roboto,sans-serif">Notable</text><text x="470.17999999999995" y="91" font-size="12" fill="#9a6700" font-weight="700" font-family="system-ui,-apple-system,Segoe UI,Roboto,sans-serif" text-anchor="end">53</text><text x="345.82" y="113" font-size="11">🤖</text><text x="365.82" y="113" font-size="11" fill="#9a6700" font-weight="600" font-family="system-ui,-apple-system,Segoe UI,Roboto,sans-serif">Agents</text><text x="470.17999999999995" y="113" font-size="12" fill="#9a6700" font-weight="700" font-family="system-ui,-apple-system,Segoe UI,Roboto,sans-serif" text-anchor="end">94</text><text x="345.82" y="135" font-size="11">🪦</text><text x="365.82" y="135" font-size="11" fill="#9a6700" font-weight="600" font-family="system-ui,-apple-system,Segoe UI,Roboto,sans-serif">Archived</text><text x="470.17999999999995" y="135" font-size="12" fill="#9a6700" font-weight="700" font-family="system-ui,-apple-system,Segoe UI,Roboto,sans-serif" text-anchor="end">35</text></g>
<text x="345.82" y="162" font-size="9" font-weight="700" fill="#9a6700" opacity="0.7" letter-spacing="0.6" font-family="system-ui,-apple-system,Segoe UI,Roboto,sans-serif">ACTIVITY</text>
<g><text x="345.82" y="179" font-size="11">⭐</text><text x="365.82" y="179" font-size="11" fill="#9a6700" font-weight="600" font-family="system-ui,-apple-system,Segoe UI,Roboto,sans-serif">Stars</text><text x="470.17999999999995" y="179" font-size="12" fill="#9a6700" font-weight="700" font-family="system-ui,-apple-system,Segoe UI,Roboto,sans-serif" text-anchor="end">23</text><text x="345.82" y="201" font-size="11">🚀</text><text x="365.82" y="201" font-size="11" fill="#9a6700" font-weight="600" font-family="system-ui,-apple-system,Segoe UI,Roboto,sans-serif">Active &lt;30d</text><text x="470.17999999999995" y="201" font-size="12" fill="#9a6700" font-weight="700" font-family="system-ui,-apple-system,Segoe UI,Roboto,sans-serif" text-anchor="end">35</text><text x="345.82" y="223" font-size="11">📂</text><text x="365.82" y="223" font-size="11" fill="#9a6700" font-weight="600" font-family="system-ui,-apple-system,Segoe UI,Roboto,sans-serif">Public</text><text x="470.17999999999995" y="223" font-size="12" fill="#9a6700" font-weight="700" font-family="system-ui,-apple-system,Segoe UI,Roboto,sans-serif" text-anchor="end">48</text><text x="345.82" y="245" font-size="11">🔒</text><text x="365.82" y="245" font-size="11" fill="#9a6700" font-weight="600" font-family="system-ui,-apple-system,Segoe UI,Roboto,sans-serif">Private</text><text x="470.17999999999995" y="245" font-size="12" fill="#9a6700" font-weight="700" font-family="system-ui,-apple-system,Segoe UI,Roboto,sans-serif" text-anchor="end">57</text></g>
<rect x="488.17999999999995" y="3" width="328.82" height="264" rx="6" fill="#8250df" opacity="0.15" stroke="#8250df" stroke-width="1.5"/><path d="M494.17999999999995,3 h316.82 a6,6 0 0 1 6,6 v26 h-328.82 v-26 a6,6 0 0 1 6,-6 z" fill="#8250df" opacity="0.1"/><line x1="488.17999999999995" y1="35" x2="817" y2="35" stroke="#8250df" stroke-width="0.75" opacity="0.45"/><text x="496.17999999999995" y="19" font-size="12" fill="#8250df" font-family="system-ui,-apple-system,Segoe UI,Roboto,sans-serif" font-weight="700">Top Themes</text><text x="496.17999999999995" y="31" font-size="9" fill="#8250df" opacity="0.95" font-weight="600" font-family="system-ui,-apple-system,Segoe UI,Roboto,sans-serif">Topic clusters</text>
<g transform="translate(496.17999999999995, 41)">
<text x="4" y="28" font-size="11" fill="#8250df" font-family="system-ui,-apple-system,Segoe UI,Roboto,sans-serif">AI &amp; Copilot</text><rect x="137.3844" y="15" width="175.4356" height="18" rx="3" fill="#8250df" opacity="0.12"/><rect x="137.3844" y="15" width="102" height="18" rx="3" fill="#8250df" opacity="0.55"/><text x="244.3844" y="28" font-size="10" fill="#8250df" font-weight="700" font-family="system-ui,-apple-system,Segoe UI,Roboto,sans-serif">24</text><text x="4" y="62" font-size="11" fill="#8250df" font-family="system-ui,-apple-system,Segoe UI,Roboto,sans-serif">Developer Tools</text><rect x="137.3844" y="49" width="175.4356" height="18" rx="3" fill="#8250df" opacity="0.12"/><rect x="137.3844" y="49" width="98" height="18" rx="3" fill="#8250df" opacity="0.55"/><text x="240.3844" y="62" font-size="10" fill="#8250df" font-weight="700" font-family="system-ui,-apple-system,Segoe UI,Roboto,sans-serif">23</text><text x="4" y="96" font-size="11" fill="#8250df" font-family="system-ui,-apple-system,Segoe UI,Roboto,sans-serif">Cloud &amp; Azure</text><rect x="137.3844" y="83" width="175.4356" height="18" rx="3" fill="#8250df" opacity="0.12"/><rect x="137.3844" y="83" width="85" height="18" rx="3" fill="#8250df" opacity="0.55"/><text x="227.3844" y="96" font-size="10" fill="#8250df" font-weight="700" font-family="system-ui,-apple-system,Segoe UI,Roboto,sans-serif">20</text><text x="4" y="124" font-size="11" fill="#8250df" font-family="system-ui,-apple-system,Segoe UI,Roboto,sans-serif">Cognitive<tspan x="4" dy="12">Architecture</tspan></text><rect x="137.3844" y="117" width="175.4356" height="18" rx="3" fill="#8250df" opacity="0.12"/><rect x="137.3844" y="117" width="77" height="18" rx="3" fill="#8250df" opacity="0.55"/><text x="219.3844" y="130" font-size="10" fill="#8250df" font-weight="700" font-family="system-ui,-apple-system,Segoe UI,Roboto,sans-serif">18</text><text x="4" y="158" font-size="11" fill="#8250df" font-family="system-ui,-apple-system,Segoe UI,Roboto,sans-serif">Productivity &amp;<tspan x="4" dy="12">Automation</tspan></text><rect x="137.3844" y="151" width="175.4356" height="18" rx="3" fill="#8250df" opacity="0.12"/><rect x="137.3844" y="151" width="72" height="18" rx="3" fill="#8250df" opacity="0.55"/><text x="214.3844" y="164" font-size="10" fill="#8250df" font-weight="700" font-family="system-ui,-apple-system,Segoe UI,Roboto,sans-serif">17</text><text x="4" y="198" font-size="11" fill="#8250df" font-family="system-ui,-apple-system,Segoe UI,Roboto,sans-serif">Data Engineering</text><rect x="137.3844" y="185" width="175.4356" height="18" rx="3" fill="#8250df" opacity="0.12"/><rect x="137.3844" y="185" width="51" height="18" rx="3" fill="#8250df" opacity="0.55"/><text x="193.3844" y="198" font-size="10" fill="#8250df" font-weight="700" font-family="system-ui,-apple-system,Segoe UI,Roboto,sans-serif">12</text>
</g>
</g>
<text x="410" y="935" text-anchor="middle" font-family="Segoe UI, system-ui, sans-serif" font-size="13"><tspan font-weight="700" fill="#1f2328" >105</tspan><tspan fill="#64748b" dx="4">repositories across 9 categories</tspan><tspan fill="#64748b" dx="6">·</tspan><tspan font-weight="700" fill="#1f2328" dx="6">70</tspan><tspan fill="#64748b" dx="4">actively maintained</tspan><tspan fill="#64748b" dx="6">·</tspan><tspan font-weight="700" fill="#1f2328" dx="6">17</tspan><tspan fill="#64748b" dx="4">flagships</tspan></text>
</svg>