<svg xmlns="http://www.w3.org/2000/svg" viewBox="0 0 820 947" width="100%" preserveAspectRatio="xMidYMid meet" role="img" aria-label="Portfolio">
<title>Portfolio</title>
<g transform="translate(0, 0) scale(0.683333)">
<defs>
    <!-- Background gradient - deep space theme -->
    <linearGradient id="bgGrad" x1="0%" y1="0%" x2="100%" y2="100%">
      <stop offset="0%" stop-color="#020617"/>
      <stop offset="50%" stop-color="#0f172a"/>
      <stop offset="100%" stop-color="#1e293b"/>
    </linearGradient>

    <!-- Logo gradient with Azure blue -->
    <linearGradient id="logoGrad" x1="0%" y1="0%" x2="100%" y2="100%">
      <stop offset="0%" stop-color="#00bcf2"/>
      <stop offset="50%" stop-color="#0078d4"/>
      <stop offset="100%" stop-color="#005a9e"/>
    </linearGradient>

    <!-- Name gradient -->
    <linearGradient id="nameGrad" x1="0%" y1="0%" x2="100%" y2="0%">
      <stop offset="0%" stop-color="#f8fafc"/>
      <stop offset="50%" stop-color="#e2e8f0"/>
      <stop offset="100%" stop-color="#f8fafc"/>
    </linearGradient>

    <!-- Accent text gradient -->
    <linearGradient id="accentTextGrad" x1="0%" y1="0%" x2="100%" y2="0%">
      <stop offset="0%" stop-color="#00bcf2"/>
      <stop offset="50%" stop-color="#0078d4"/>
      <stop offset="100%" stop-color="#00bcf2"/>
    </linearGradient>

    <!-- Glow filter -->
    <filter id="glow" x="-50%" y="-50%" width="200%" height="200%">
      <feGaussianBlur stdDeviation="3" result="coloredBlur"/>
      <feMerge>
        <feMergeNode in="coloredBlur"/>
        <feMergeNode in="SourceGraphic"/>
      </feMerge>
    </filter>

    <!-- Strong glow for logo -->
    <filter id="logoGlow" x="-100%" y="-100%" width="300%" height="300%">
      <feGaussianBlur stdDeviation="6" result="blur1"/>
      <feGaussianBlur stdDeviation="12" result="blur2"/>
      <feMerge>
        <feMergeNode in="blur2"/>
        <feMergeNode in="blur1"/>
        <feMergeNode in="SourceGraphic"/>
      </feMerge>
    </filter>

    <!-- Radial glow behind logo -->
    <radialGradient id="logoBackGlow" cx="50%" cy="50%" r="50%">
      <stop offset="0%" stop-color="#0078d4" stop-opacity="0.4"/>
      <stop offset="50%" stop-color="#0078d4" stop-opacity="0.1"/>
      <stop offset="100%" stop-color="#0078d4" stop-opacity="0"/>
    </radialGradient>

    <!-- Grid pattern -->
    <pattern id="grid" width="50" height="50" patternUnits="userSpaceOnUse">
      <path d="M 50 0 L 0 0 0 50" fill="none" stroke="#1e3a5f" stroke-width="0.5" opacity="0.4"/>
    </pattern>

    <!-- Dot pattern -->
    <pattern id="dots" width="30" height="30" patternUnits="userSpaceOnUse">
      <circle cx="15" cy="15" r="1" fill="#0078d4" opacity="0.2"/>
    </pattern>

    <!-- Gradient for accent line -->
    <linearGradient id="accentGrad" x1="0%" y1="0%" x2="100%" y2="0%">
      <stop offset="0%" stop-color="#005a9e"/>
      <stop offset="25%" stop-color="#0078d4"/>
      <stop offset="50%" stop-color="#00bcf2"/>
      <stop offset="75%" stop-color="#0078d4"/>
      <stop offset="100%" stop-color="#005a9e"/>
    </linearGradient>

    <!-- Neural network gradient -->
    <linearGradient id="neuralGrad" x1="0%" y1="0%" x2="100%" y2="100%">
      <stop offset="0%" stop-color="#7c3aed"/>
      <stop offset="50%" stop-color="#0078d4"/>
      <stop offset="100%" stop-color="#00bcf2"/>
    </linearGradient>
  </defs>

  <!-- Background -->
  <rect width="1200" height="300" fill="url(#bgGrad)"/>

  <!-- Grid overlay -->
  <rect width="1200" height="300" fill="url(#grid)"/>

  <!-- Dot pattern overlay -->
  <rect width="1200" height="300" fill="url(#dots)" opacity="0.5"/>

  <!-- Large decorative orbs -->
  <circle cx="150" cy="150" r="180" fill="url(#logoBackGlow)"/>
  <circle cx="1050" cy="80" r="150" fill="#0078d4" opacity="0.05"/>
  <circle cx="1150" cy="280" r="180" fill="#00bcf2" opacity="0.03"/>
  <circle cx="50" cy="250" r="100" fill="#7c3aed" opacity="0.06"/>

  <!-- Neural network nodes - cognitive theme -->
  <g opacity="0.4">
    <!-- Left side neural cluster -->
    <circle cx="80" cy="60" r="4" fill="#7c3aed"/>
    <circle cx="120" cy="40" r="3" fill="#0078d4"/>
    <circle cx="60" cy="100" r="3" fill="#00bcf2"/>
    <circle cx="140" cy="90" r="2" fill="#7c3aed"/>
    <line x1="80" y1="60" x2="120" y2="40" stroke="#7c3aed" stroke-width="1"/>
    <line x1="80" y1="60" x2="60" y2="100" stroke="#0078d4" stroke-width="1"/>
    <line x1="120" y1="40" x2="140" y2="90" stroke="#00bcf2" stroke-width="0.5"/>

    <!-- Right side neural cluster -->
    <circle cx="1100" cy="70" r="3" fill="#00bcf2"/>
    <circle cx="1140" cy="50" r="2" fill="#0078d4"/>
    <circle cx="1080" cy="100" r="4" fill="#7c3aed"/>
    <circle cx="1120" cy="120" r="2" fill="#0078d4"/>
    <line x1="1100" y1="70" x2="1140" y2="50" stroke="#00bcf2" stroke-width="0.5"/>
    <line x1="1100" y1="70" x2="1080" y2="100" stroke="#7c3aed" stroke-width="1"/>
    <line x1="1080" y1="100" x2="1120" y2="120" stroke="#0078d4" stroke-width="0.5"/>
  </g>

  <!-- Floating particles -->
  <circle cx="300" cy="30" r="1.5" fill="#0078d4" opacity="0.5"/>
  <circle cx="500" cy="50" r="2" fill="#00bcf2" opacity="0.4"/>
  <circle cx="750" cy="25" r="1" fill="#7c3aed" opacity="0.6"/>
  <circle cx="950" cy="45" r="2.5" fill="#00bcf2" opacity="0.3"/>
  <circle cx="400" cy="270" r="2" fill="#00bcf2" opacity="0.4"/>
  <circle cx="700" cy="260" r="1.5" fill="#0078d4" opacity="0.5"/>
  <circle cx="900" cy="275" r="2" fill="#7c3aed" opacity="0.3"/>
  <circle cx="1050" cy="250" r="1" fill="#0078d4" opacity="0.6"/>

  <!-- Logo glow backdrop -->
  <ellipse cx="150" cy="150" rx="120" ry="110" fill="url(#logoBackGlow)"/>

  <!-- Logo mark (scaled) with glow -->
  <g transform="translate(55, 58) scale(6)" filter="url(#logoGlow)">
    <path d="M16 2C8.268 2 2 8.268 2 16s6.268 14 14 14c3.866 0 7.389-1.568 9.928-4.1l-3.535-3.536A9.002 9.002 0 0116 25c-4.97 0-9-4.03-9-9s4.03-9 9-9c2.29 0 4.38.857 5.971 2.268l3.464-3.639C22.993 3.352 19.66 2 16 2z" fill="url(#logoGrad)"/>
    <path d="M20 10l-4 6 4 6h4l-4-6 4-6h-4z" fill="url(#logoGrad)"/>
    <path d="M24 10l4 6-4 6h4l4-6-4-6h-4z" fill="url(#logoGrad)" opacity="0.6"/>
  </g>

  <text x="320" y="54" font-family="Segoe UI, system-ui, sans-serif" font-size="13" font-weight="600" fill="#94a3b8" letter-spacing="3">AUTOMATIC REPOSITORY PORTFOLIO FOR</text>
  <!-- Main name -->
  <text x="320" y="135" font-family="Segoe UI, system-ui, sans-serif" font-size="74" font-weight="700" fill="url(#nameGrad)" filter="url(#glow)">Dr. Fabio Correa, DBA</text>

  <!-- Title line -->
  <text x="320" y="180" font-family="Segoe UI, system-ui, sans-serif" font-size="22" fill="#94a3b8" letter-spacing="1" textLength="800" lengthAdjust="spacingAndGlyphs">Building AI-powered solutions for learning, research, and organizational development.</text>

  <!-- Tagline with accent -->
  <text x="320" y="220" font-family="Segoe UI, system-ui, sans-serif" font-size="18" fill="url(#accentTextGrad)" letter-spacing="1.5">THINK • BUILD • DEPLOY</text>

  <!-- Decorative accent line -->
  <line x1="320" y1="240" x2="850" y2="240" stroke="#334155" stroke-width="1"/>
  <line x1="320" y1="243" x2="600" y2="243" stroke="url(#accentGrad)" stroke-width="2" opacity="0.6"/>

  <!-- CorreaX branding badge -->
  <g transform="translate(320, 255)" font-family="Segoe UI, system-ui, sans-serif" font-size="12" fill="#94a3b8"><text letter-spacing="1">UPDATED</text><text x="70" font-weight="700">May 24 2026 06:32 EDT</text></g>

  <!-- Tech circuit decorations on right -->
  <g opacity="0.25">
    <path d="M1000 140 h80 v40 h40" stroke="#0078d4" stroke-width="1.5" fill="none"/>
    <circle cx="1000" cy="140" r="3" fill="#0078d4"/>
    <circle cx="1120" cy="180" r="4" fill="#00bcf2"/>
    <path d="M1020 200 h60 v-25 h30" stroke="#7c3aed" stroke-width="1" fill="none"/>
    <circle cx="1020" cy="200" r="2" fill="#7c3aed"/>
    <path d="M980 100 h50 l20 20 h40" stroke="#00bcf2" stroke-width="1" fill="none"/>
    <circle cx="980" cy="100" r="2" fill="#00bcf2"/>
  </g>

  <!-- Bottom accent bar with glow -->
  <rect x="0" y="290" width="1200" height="10" fill="url(#accentGrad)" filter="url(#glow)"/>
</g>
<g transform="translate(0, 217)">
<rect width="820" height="416" fill="none"/>
  <rect x="3" y="3" width="280.79802955665025" height="202" rx="6" fill="#57606a" opacity="0.15" stroke="#57606a" stroke-width="1.5"/><path d="M9,3 h268.79802955665025 a6,6 0 0 1 6,6 v16 h-280.79802955665025 v-16 a6,6 0 0 1 6,-6 z" fill="#57606a" opacity="0.1"/><line x1="3" y1="25" x2="283.79802955665025" y2="25" stroke="#57606a" stroke-width="0.75" opacity="0.45"/><text x="11" y="19" font-size="12" fill="#57606a" font-family="system-ui,-apple-system,Segoe UI,Roboto,sans-serif" font-weight="700">Other</text>
  <rect x="4" y="27" width="43.65403223674085" height="176" rx="3" fill="#57606a" opacity="0.36"/>
  <text x="25.827016118370427" y="115" text-anchor="middle" dominant-baseline="central" font-size="16" fill="#57606a" font-family="system-ui,sans-serif" font-weight="600" transform="rotate(-90,25.827016118370427,115)">prompt engineering</text>
  <rect x="48.65403223674085" y="27" width="40.415780480893595" height="176" rx="3" fill="#57606a" opacity="0.34"/>
  <text x="68.86192247718765" y="115" text-anchor="middle" dominant-baseline="central" font-size="16" fill="#57606a" font-family="system-ui,sans-serif" font-weight="600" transform="rotate(-90,68.86192247718765,115)">critical thinking</text>
  <rect x="90.06981271763445" y="27" width="40.415780480893595" height="176" rx="3" fill="#57606a" opacity="0.34"/>
  <text x="110.27770295808125" y="115" text-anchor="middle" dominant-baseline="central" font-size="16" fill="#57606a" font-family="system-ui,sans-serif" font-weight="600" transform="rotate(-90,110.27770295808125,115)">mcp</text>
  <rect x="131.48559319852805" y="27" width="32.99934657817515" height="176" rx="3" fill="#57606a" opacity="0.29"/>
  <text x="147.98526648761563" y="115" text-anchor="middle" dominant-baseline="central" font-size="16" fill="#57606a" font-family="system-ui,sans-serif" font-weight="400" transform="rotate(-90,147.98526648761563,115)">python</text>
  <rect x="165.4849397767032" y="27" width="28.578272444986766" height="176" rx="3" fill="#57606a" opacity="0.27"/>
  <text x="179.77407599919655" y="115" text-anchor="middle" dominant-baseline="central" font-size="16" fill="#57606a" font-family="system-ui,sans-serif" font-weight="400" transform="rotate(-90,179.77407599919655,115)">dashboard</text>
  <rect x="195.06321222168995" y="27" width="28.578272444986766" height="176" rx="3" fill="#57606a" opacity="0.27"/>
  <text x="209.35234844418335" y="115" text-anchor="middle" dominant-baseline="central" font-size="16" fill="#57606a" font-family="system-ui,sans-serif" font-weight="400" transform="rotate(-90,209.35234844418335,115)">fleet</text>
  <rect x="224.64148466667672" y="27" width="28.578272444986766" height="176" rx="3" fill="#57606a" opacity="0.27"/>
  <text x="238.9306208891701" y="115" text-anchor="middle" dominant-baseline="central" font-size="16" fill="#57606a" font-family="system-ui,sans-serif" font-weight="400" transform="rotate(-90,238.9306208891701,115)">dialog engineering</text>
  <rect x="254.21975711166348" y="27" width="28.578272444986766" height="176" rx="3" fill="#57606a" opacity="0.27"/>
  <text x="268.5088933341569" y="115" text-anchor="middle" dominant-baseline="central" font-size="16" fill="#57606a" font-family="system-ui,sans-serif" font-weight="400" transform="rotate(-90,268.5088933341569,115)">agentic ai</text>
  <rect x="289.79802955665025" y="3" width="179.8128078817734" height="202" rx="6" fill="#4e79a7" opacity="0.15" stroke="#4e79a7" stroke-width="1.5"/><path d="M295.79802955665025,3 h167.8128078817734 a6,6 0 0 1 6,6 v16 h-179.8128078817734 v-16 a6,6 0 0 1 6,-6 z" fill="#4e79a7" opacity="0.1"/><line x1="289.79802955665025" y1="25" x2="469.6108374384237" y2="25" stroke="#4e79a7" stroke-width="0.75" opacity="0.45"/><text x="297.79802955665025" y="19" font-size="12" fill="#4e79a7" font-family="system-ui,-apple-system,Segoe UI,Roboto,sans-serif" font-weight="700">AI &amp; Copilot</text>
  <rect x="290.79802955665025" y="27" width="30.728760018507092" height="176" rx="3" fill="#4e79a7" opacity="0.43"/>
  <text x="306.1624095659038" y="115" text-anchor="middle" dominant-baseline="central" font-size="16" fill="#4e79a7" font-family="system-ui,sans-serif" font-weight="600" transform="rotate(-90,306.1624095659038,115)">github copilot</text>
  <rect x="322.52678957515735" y="27" width="25.709525172443385" height="176" rx="3" fill="#4e79a7" opacity="0.36"/>
  <text x="335.38155216137903" y="115" text-anchor="middle" dominant-baseline="central" font-size="16" fill="#4e79a7" font-family="system-ui,sans-serif" font-weight="600" transform="rotate(-90,335.38155216137903,115)">ai assistant</text>
  <rect x="349.2363147476007" y="27" width="25.709525172443385" height="176" rx="3" fill="#4e79a7" opacity="0.36"/>
  <text x="362.0910773338224" y="115" text-anchor="middle" dominant-baseline="central" font-size="16" fill="#4e79a7" font-family="system-ui,sans-serif" font-weight="600" transform="rotate(-90,362.0910773338224,115)">copilot</text>
  <rect x="375.9458399200441" y="27" width="25.709525172443385" height="176" rx="3" fill="#4e79a7" opacity="0.36"/>
  <text x="388.80060250626576" y="115" text-anchor="middle" dominant-baseline="central" font-size="16" fill="#4e79a7" font-family="system-ui,sans-serif" font-weight="600" transform="rotate(-90,388.80060250626576,115)">ai</text>
  <rect x="402.65536509248744" y="27" width="21.728514586540424" height="176" rx="3" fill="#4e79a7" opacity="0.32"/>
  <text x="413.51962238575766" y="115" text-anchor="middle" dominant-baseline="central" font-size="16" fill="#4e79a7" font-family="system-ui,sans-serif" font-weight="400" transform="rotate(-90,413.51962238575766,115)">claude</text>
  <rect x="425.38387967902787" y="27" width="13.74231925313191" height="176" rx="3" fill="#4e79a7" opacity="0.25"/>
  <text x="432.2550393055938" y="115" text-anchor="middle" dominant-baseline="central" font-size="10" fill="#4e79a7" font-family="system-ui,sans-serif" font-weight="400" transform="rotate(-90,432.2550393055938,115)">ai coaching</text>
  <rect x="440.1261989321598" y="27" width="13.74231925313191" height="176" rx="3" fill="#4e79a7" opacity="0.25"/>
  <text x="446.99735855872575" y="115" text-anchor="middle" dominant-baseline="central" font-size="10" fill="#4e79a7" font-family="system-ui,sans-serif" font-weight="400" transform="rotate(-90,446.99735855872575,115)">claude skills</text>
  <rect x="454.8685181852917" y="27" width="13.742319253131996" height="176" rx="3" fill="#4e79a7" opacity="0.25"/>
  <text x="461.7396778118577" y="115" text-anchor="middle" dominant-baseline="central" font-size="10" fill="#4e79a7" font-family="system-ui,sans-serif" font-weight="400" transform="rotate(-90,461.7396778118577,115)">copilot skills</text>
  <rect x="475.6108374384237" y="3" width="155.57635467980296" height="202" rx="6" fill="#f28e2b" opacity="0.15" stroke="#f28e2b" stroke-width="1.5"/><path d="M481.6108374384237,3 h143.57635467980296 a6,6 0 0 1 6,6 v16 h-155.57635467980296 v-16 a6,6 0 0 1 6,-6 z" fill="#f28e2b" opacity="0.1"/><line x1="475.6108374384237" y1="25" x2="631.1871921182267" y2="25" stroke="#f28e2b" stroke-width="0.75" opacity="0.45"/><text x="483.6108374384237" y="19" font-size="12" fill="#f28e2b" font-family="system-ui,-apple-system,Segoe UI,Roboto,sans-serif" font-weight="700">Cognitive Architectu…</text>
  <rect x="476.6108374384237" y="27" width="29.116671052860173" height="176" rx="3" fill="#f28e2b" opacity="0.45"/>
  <text x="491.1691729648538" y="115" text-anchor="middle" dominant-baseline="central" font-size="13" fill="#f28e2b" font-family="system-ui,sans-serif" font-weight="600" transform="rotate(-90,491.1691729648538,115)">cognitive architecture</text>
  <rect x="506.72750849128386" y="27" width="27.761656572272248" height="176" rx="3" fill="#f28e2b" opacity="0.43"/>
  <text x="520.6083367774199" y="115" text-anchor="middle" dominant-baseline="central" font-size="16" fill="#f28e2b" font-family="system-ui,sans-serif" font-weight="600" transform="rotate(-90,520.6083367774199,115)">agent</text>
  <rect x="535.4891650635561" y="27" width="24.830780505441822" height="176" rx="3" fill="#f28e2b" opacity="0.38"/>
  <text x="547.9045553162771" y="115" text-anchor="middle" dominant-baseline="central" font-size="16" fill="#f28e2b" font-family="system-ui,sans-serif" font-weight="600" transform="rotate(-90,547.9045553162771,115)">agentic</text>
  <rect x="561.3199455689979" y="27" width="15.205685538345058" height="176" rx="3" fill="#f28e2b" opacity="0.27"/>
  <text x="568.9227883381704" y="115" text-anchor="middle" dominant-baseline="central" font-size="11" fill="#f28e2b" font-family="system-ui,sans-serif" font-weight="400" transform="rotate(-90,568.9227883381704,115)">model context protocol</text>
  <rect x="577.525631107343" y="27" width="12.415390252720911" height="176" rx="3" fill="#f28e2b" opacity="0.25"/>
  <text x="583.7333262337035" y="115" text-anchor="middle" dominant-baseline="central" font-size="9" fill="#f28e2b" font-family="system-ui,sans-serif" font-weight="400" transform="rotate(-90,583.7333262337035,115)">act framework</text>
  <rect x="590.9410213600639" y="27" width="12.415390252720911" height="176" rx="3" fill="#f28e2b" opacity="0.25"/>
  <text x="597.1487164864244" y="115" text-anchor="middle" dominant-baseline="central" font-size="9" fill="#f28e2b" font-family="system-ui,sans-serif" font-weight="400" transform="rotate(-90,597.1487164864244,115)">epistemic integrity</text>
  <rect x="604.3564116127849" y="27" width="12.415390252720911" height="176" rx="3" fill="#f28e2b" opacity="0.25"/>
  <text x="610.5641067391454" y="115" text-anchor="middle" dominant-baseline="central" font-size="9" fill="#f28e2b" font-family="system-ui,sans-serif" font-weight="400" transform="rotate(-90,610.5641067391454,115)">cognitive science</text>
  <rect x="617.7718018655058" y="27" width="12.41539025272084" height="176" rx="3" fill="#f28e2b" opacity="0.25"/>
  <text x="623.9794969918662" y="115" text-anchor="middle" dominant-baseline="central" font-size="9" fill="#f28e2b" font-family="system-ui,sans-serif" font-weight="400" transform="rotate(-90,623.9794969918662,115)">memory systems</text>
  <rect x="637.1871921182267" y="3" width="103.064039408867" height="202" rx="6" fill="#b07aa1" opacity="0.15" stroke="#b07aa1" stroke-width="1.5"/><path d="M643.1871921182267,3 h91.064039408867 a6,6 0 0 1 6,6 v16 h-103.064039408867 v-16 a6,6 0 0 1 6,-6 z" fill="#b07aa1" opacity="0.1"/><line x1="637.1871921182267" y1="25" x2="740.2512315270936" y2="25" stroke="#b07aa1" stroke-width="0.75" opacity="0.45"/><text x="645.1871921182267" y="19" font-size="12" fill="#b07aa1" font-family="system-ui,-apple-system,Segoe UI,Roboto,sans-serif" font-weight="700">Development …</text>
  <rect x="638.1871921182267" y="27" width="16.070062358976095" height="176" rx="3" fill="#b07aa1" opacity="0.34"/>
  <text x="646.2222232977148" y="115" text-anchor="middle" dominant-baseline="central" font-size="12" fill="#b07aa1" font-family="system-ui,sans-serif" font-weight="600" transform="rotate(-90,646.2222232977148,115)">typescript</text>
  <rect x="655.2572544772028" y="27" width="16.070062358976095" height="176" rx="3" fill="#b07aa1" opacity="0.34"/>
  <text x="663.2922856566909" y="115" text-anchor="middle" dominant-baseline="central" font-size="12" fill="#b07aa1" font-family="system-ui,sans-serif" font-weight="600" transform="rotate(-90,663.2922856566909,115)">vscode extension</text>
  <rect x="672.3273168361789" y="27" width="11.363250068122683" height="176" rx="3" fill="#b07aa1" opacity="0.27"/>
  <text x="678.0089418702402" y="115" text-anchor="middle" dominant-baseline="central" font-size="8" fill="#b07aa1" font-family="system-ui,sans-serif" font-weight="400" transform="rotate(-90,678.0089418702402,115)">react</text>
  <rect x="684.6905669043016" y="27" width="11.363250068122683" height="176" rx="3" fill="#b07aa1" opacity="0.27"/>
  <text x="690.3721919383629" y="115" text-anchor="middle" dominant-baseline="central" font-size="8" fill="#b07aa1" font-family="system-ui,sans-serif" font-weight="400" transform="rotate(-90,690.3721919383629,115)">developer tools</text>
  <rect x="697.0538169724243" y="27" width="11.363250068122683" height="176" rx="3" fill="#b07aa1" opacity="0.27"/>
  <text x="702.7354420064856" y="115" text-anchor="middle" dominant-baseline="central" font-size="8" fill="#b07aa1" font-family="system-ui,sans-serif" font-weight="400" transform="rotate(-90,702.7354420064856,115)">vscode</text>
  <rect x="709.4170670405471" y="27" width="9.278054828848921" height="176" rx="3" fill="#b07aa1" opacity="0.25"/>
  <text x="714.0560944549716" y="115" text-anchor="middle" dominant-baseline="central" font-size="6" fill="#b07aa1" font-family="system-ui,sans-serif" font-weight="400" transform="rotate(-90,714.0560944549716,115)">markdown</text>
  <rect x="719.695121869396" y="27" width="9.278054828848921" height="176" rx="3" fill="#b07aa1" opacity="0.25"/>
  <text x="724.3341492838205" y="115" text-anchor="middle" dominant-baseline="central" font-size="6" fill="#b07aa1" font-family="system-ui,sans-serif" font-weight="400" transform="rotate(-90,724.3341492838205,115)">pdf</text>
  <rect x="729.9731766982449" y="27" width="9.27805482884878" height="176" rx="3" fill="#b07aa1" opacity="0.25"/>
  <text x="734.6122041126692" y="115" text-anchor="middle" dominant-baseline="central" font-size="6" fill="#b07aa1" font-family="system-ui,sans-serif" font-weight="400" transform="rotate(-90,734.6122041126692,115)">youtube api</text>
  <rect x="746.2512315270936" y="3" width="70.74876847290636" height="202" rx="6" fill="#e15759" opacity="0.15" stroke="#e15759" stroke-width="1.5"/><path d="M752.2512315270936,3 h58.74876847290636 a6,6 0 0 1 6,6 v16 h-70.74876847290636 v-16 a6,6 0 0 1 6,-6 z" fill="#e15759" opacity="0.1"/><line x1="746.2512315270936" y1="25" x2="817" y2="25" stroke="#e15759" stroke-width="0.75" opacity="0.45"/><text x="754.2512315270936" y="19" font-size="12" fill="#e15759" font-family="system-ui,-apple-system,Segoe UI,Roboto,sans-serif" font-weight="700">Learnin…</text>
  <rect x="747.2512315270936" y="27" width="8.718519946227383" height="176" rx="3" fill="#e15759" opacity="0.27"/>
  <text x="751.6104915002073" y="115" text-anchor="middle" dominant-baseline="central" font-size="6" fill="#e15759" font-family="system-ui,sans-serif" font-weight="400" transform="rotate(-90,751.6104915002073,115)">learning</text>
  <rect x="756.969751473321" y="27" width="8.718519946227383" height="176" rx="3" fill="#e15759" opacity="0.27"/>
  <text x="761.3290114464347" y="115" text-anchor="middle" dominant-baseline="central" font-size="6" fill="#e15759" font-family="system-ui,sans-serif" font-weight="400" transform="rotate(-90,761.3290114464347,115)">tutorial</text>
  <rect x="766.6882714195484" y="27" width="8.718519946227383" height="176" rx="3" fill="#e15759" opacity="0.27"/>
  <text x="771.0475313926621" y="115" text-anchor="middle" dominant-baseline="central" font-size="6" fill="#e15759" font-family="system-ui,sans-serif" font-weight="400" transform="rotate(-90,771.0475313926621,115)">utaut2</text>
  <rect x="776.4067913657758" y="27" width="7.118641726844841" height="176" rx="3" fill="#e15759" opacity="0.25"/>
  <rect x="784.5254330926207" y="27" width="7.118641726844841" height="176" rx="3" fill="#e15759" opacity="0.25"/>
  <rect x="792.6440748194656" y="27" width="7.118641726844841" height="176" rx="3" fill="#e15759" opacity="0.25"/>
  <rect x="800.7627165463105" y="27" width="7.118641726844841" height="176" rx="3" fill="#e15759" opacity="0.25"/>
  <rect x="808.8813582731553" y="27" width="7.118641726844658" height="176" rx="3" fill="#e15759" opacity="0.25"/>
  <rect x="3" y="211" width="215.26984126984127" height="202" rx="6" fill="#76b7b2" opacity="0.15" stroke="#76b7b2" stroke-width="1.5"/><path d="M9,211 h203.26984126984127 a6,6 0 0 1 6,6 v16 h-215.26984126984127 v-16 a6,6 0 0 1 6,-6 z" fill="#76b7b2" opacity="0.1"/><line x1="3" y1="233" x2="218.26984126984127" y2="233" stroke="#76b7b2" stroke-width="0.75" opacity="0.45"/><text x="11" y="227" font-size="12" fill="#76b7b2" font-family="system-ui,-apple-system,Segoe UI,Roboto,sans-serif" font-weight="700">AI Agents &amp; Skills</text>
  <rect x="4" y="235" width="41.551835722179725" height="176" rx="3" fill="#76b7b2" opacity="0.29"/>
  <text x="24.775917861089862" y="323" text-anchor="middle" dominant-baseline="central" font-size="16" fill="#76b7b2" font-family="system-ui,sans-serif" font-weight="400" transform="rotate(-90,24.775917861089862,323)">ai agents</text>
  <rect x="46.551835722179725" y="235" width="35.98494530928536" height="176" rx="3" fill="#76b7b2" opacity="0.27"/>
  <text x="64.5443083768224" y="323" text-anchor="middle" dominant-baseline="central" font-size="16" fill="#76b7b2" font-family="system-ui,sans-serif" font-weight="400" transform="rotate(-90,64.5443083768224,323)">agent skills</text>
  <rect x="83.53678103146508" y="235" width="35.98494530928536" height="176" rx="3" fill="#76b7b2" opacity="0.27"/>
  <text x="101.52925368610777" y="323" text-anchor="middle" dominant-baseline="central" font-size="16" fill="#76b7b2" font-family="system-ui,sans-serif" font-weight="400" transform="rotate(-90,101.52925368610777,323)">ai agent</text>
  <rect x="120.52172634075043" y="235" width="35.98494530928536" height="176" rx="3" fill="#76b7b2" opacity="0.27"/>
  <text x="138.51419899539312" y="323" text-anchor="middle" dominant-baseline="central" font-size="16" fill="#76b7b2" font-family="system-ui,sans-serif" font-weight="400" transform="rotate(-90,138.51419899539312,323)">skills</text>
  <rect x="157.5066716500358" y="235" width="29.381584809902712" height="176" rx="3" fill="#76b7b2" opacity="0.25"/>
  <text x="172.19746405498717" y="323" text-anchor="middle" dominant-baseline="central" font-size="16" fill="#76b7b2" font-family="system-ui,sans-serif" font-weight="400" transform="rotate(-90,172.19746405498717,323)">multilingual</text>
  <rect x="187.8882564599385" y="235" width="29.381584809902762" height="176" rx="3" fill="#76b7b2" opacity="0.25"/>
  <text x="202.5790488648899" y="323" text-anchor="middle" dominant-baseline="central" font-size="16" fill="#76b7b2" font-family="system-ui,sans-serif" font-weight="400" transform="rotate(-90,202.5790488648899,323)">skill marketplace</text>
  <rect x="224.26984126984127" y="211" width="215.26984126984127" height="202" rx="6" fill="#ff9da7" opacity="0.15" stroke="#ff9da7" stroke-width="1.5"/><path d="M230.26984126984127,211 h203.26984126984127 a6,6 0 0 1 6,6 v16 h-215.26984126984127 v-16 a6,6 0 0 1 6,-6 z" fill="#ff9da7" opacity="0.1"/><line x1="224.26984126984127" y1="233" x2="439.53968253968253" y2="233" stroke="#ff9da7" stroke-width="0.75" opacity="0.45"/><text x="232.26984126984127" y="227" font-size="12" fill="#ff9da7" font-family="system-ui,-apple-system,Segoe UI,Roboto,sans-serif" font-weight="700">Media &amp; Entertainment</text>
  <rect x="225.26984126984127" y="235" width="30.715594728867462" height="176" rx="3" fill="#ff9da7" opacity="0.27"/>
  <text x="240.627638634275" y="323" text-anchor="middle" dominant-baseline="central" font-size="16" fill="#ff9da7" font-family="system-ui,sans-serif" font-weight="400" transform="rotate(-90,240.627638634275,323)">spotify api</text>
  <rect x="256.98543599870874" y="235" width="25.07917807728197" height="176" rx="3" fill="#ff9da7" opacity="0.25"/>
  <text x="269.52502503734974" y="323" text-anchor="middle" dominant-baseline="central" font-size="16" fill="#ff9da7" font-family="system-ui,sans-serif" font-weight="400" transform="rotate(-90,269.52502503734974,323)">video analysis</text>
  <rect x="283.06461407599073" y="235" width="25.07917807728197" height="176" rx="3" fill="#ff9da7" opacity="0.25"/>
  <text x="295.60420311463173" y="323" text-anchor="middle" dominant-baseline="central" font-size="16" fill="#ff9da7" font-family="system-ui,sans-serif" font-weight="400" transform="rotate(-90,295.60420311463173,323)">youtube</text>
  <rect x="309.1437921532727" y="235" width="25.07917807728197" height="176" rx="3" fill="#ff9da7" opacity="0.25"/>
  <text x="321.6833811919137" y="323" text-anchor="middle" dominant-baseline="central" font-size="16" fill="#ff9da7" font-family="system-ui,sans-serif" font-weight="400" transform="rotate(-90,321.6833811919137,323)">music</text>
  <rect x="335.2229702305547" y="235" width="25.07917807728197" height="176" rx="3" fill="#ff9da7" opacity="0.25"/>
  <text x="347.7625592691957" y="323" text-anchor="middle" dominant-baseline="central" font-size="16" fill="#ff9da7" font-family="system-ui,sans-serif" font-weight="400" transform="rotate(-90,347.7625592691957,323)">playlist</text>
  <rect x="361.3021483078367" y="235" width="25.07917807728197" height="176" rx="3" fill="#ff9da7" opacity="0.25"/>
  <text x="373.8417373464777" y="323" text-anchor="middle" dominant-baseline="central" font-size="16" fill="#ff9da7" font-family="system-ui,sans-serif" font-weight="400" transform="rotate(-90,373.8417373464777,323)">spotify</text>
  <rect x="387.3813263851187" y="235" width="25.07917807728197" height="176" rx="3" fill="#ff9da7" opacity="0.25"/>
  <text x="399.9209154237597" y="323" text-anchor="middle" dominant-baseline="central" font-size="16" fill="#ff9da7" font-family="system-ui,sans-serif" font-weight="400" transform="rotate(-90,399.9209154237597,323)">audio</text>
  <rect x="413.4605044624007" y="235" width="25.079178077281824" height="176" rx="3" fill="#ff9da7" opacity="0.25"/>
  <text x="426.00009350104165" y="323" text-anchor="middle" dominant-baseline="central" font-size="16" fill="#ff9da7" font-family="system-ui,sans-serif" font-weight="400" transform="rotate(-90,426.00009350104165,323)">generative art</text>
  <rect x="445.53968253968253" y="211" width="189.23809523809524" height="202" rx="6" fill="#59a14f" opacity="0.15" stroke="#59a14f" stroke-width="1.5"/><path d="M451.53968253968253,211 h177.23809523809524 a6,6 0 0 1 6,6 v16 h-189.23809523809524 v-16 a6,6 0 0 1 6,-6 z" fill="#59a14f" opacity="0.1"/><line x1="445.53968253968253" y1="233" x2="634.7777777777778" y2="233" stroke="#59a14f" stroke-width="0.75" opacity="0.45"/><text x="453.53968253968253" y="227" font-size="12" fill="#59a14f" font-family="system-ui,-apple-system,Segoe UI,Roboto,sans-serif" font-weight="700">Cloud &amp; Azure</text>
  <rect x="446.53968253968253" y="235" width="65.21762708911781" height="176" rx="3" fill="#59a14f" opacity="0.36"/>
  <text x="479.14849608424146" y="323" text-anchor="middle" dominant-baseline="central" font-size="16" fill="#59a14f" font-family="system-ui,sans-serif" font-weight="600" transform="rotate(-90,479.14849608424146,323)">azure</text>
  <rect x="512.7573096288004" y="235" width="49.29989210730144" height="176" rx="3" fill="#59a14f" opacity="0.29"/>
  <text x="537.4072556824511" y="323" text-anchor="middle" dominant-baseline="central" font-size="16" fill="#59a14f" font-family="system-ui,sans-serif" font-weight="400" transform="rotate(-90,537.4072556824511,323)">azure openai</text>
  <rect x="563.0572017361018" y="235" width="34.860288020838" height="176" rx="3" fill="#59a14f" opacity="0.25"/>
  <text x="580.4873457465208" y="323" text-anchor="middle" dominant-baseline="central" font-size="16" fill="#59a14f" font-family="system-ui,sans-serif" font-weight="400" transform="rotate(-90,580.4873457465208,323)">azure functions</text>
  <rect x="598.9174897569397" y="235" width="34.860288020838084" height="176" rx="3" fill="#59a14f" opacity="0.25"/>
  <text x="616.3476337673587" y="323" text-anchor="middle" dominant-baseline="central" font-size="16" fill="#59a14f" font-family="system-ui,sans-serif" font-weight="400" transform="rotate(-90,616.3476337673587,323)">devops</text>
  <rect x="640.7777777777778" y="211" width="176.22222222222217" height="202" rx="6" fill="#edc948" opacity="0.15" stroke="#edc948" stroke-width="1.5"/><path d="M646.7777777777778,211 h164.22222222222217 a6,6 0 0 1 6,6 v16 h-176.22222222222217 v-16 a6,6 0 0 1 6,-6 z" fill="#edc948" opacity="0.1"/><line x1="640.7777777777778" y1="233" x2="817" y2="233" stroke="#edc948" stroke-width="0.75" opacity="0.45"/><text x="648.7777777777778" y="227" font-size="12" fill="#edc948" font-family="system-ui,-apple-system,Segoe UI,Roboto,sans-serif" font-weight="700">Responsible AI</text>
  <rect x="641.7777777777778" y="235" width="41.05435810032645" height="176" rx="3" fill="#edc948" opacity="0.29"/>
  <text x="662.304956827941" y="323" text-anchor="middle" dominant-baseline="central" font-size="16" fill="#edc948" font-family="system-ui,sans-serif" font-weight="400" transform="rotate(-90,662.304956827941,323)">responsible ai</text>
  <rect x="683.8321358781043" y="235" width="35.554117050946154" height="176" rx="3" fill="#edc948" opacity="0.27"/>
  <text x="701.6091944035774" y="323" text-anchor="middle" dominant-baseline="central" font-size="16" fill="#edc948" font-family="system-ui,sans-serif" font-weight="400" transform="rotate(-90,701.6091944035774,323)">ai adoption</text>
  <rect x="720.3862529290504" y="235" width="35.554117050946154" height="176" rx="3" fill="#edc948" opacity="0.27"/>
  <text x="738.1633114545235" y="323" text-anchor="middle" dominant-baseline="central" font-size="16" fill="#edc948" font-family="system-ui,sans-serif" font-weight="400" transform="rotate(-90,738.1633114545235,323)">ai governance</text>
  <rect x="756.9403699799966" y="235" width="29.029815010001702" height="176" rx="3" fill="#edc948" opacity="0.25"/>
  <text x="771.4552774849975" y="323" text-anchor="middle" dominant-baseline="central" font-size="13" fill="#edc948" font-family="system-ui,sans-serif" font-weight="400" transform="rotate(-90,771.4552774849975,323)">human ai collaboration</text>
  <rect x="786.9701849899983" y="235" width="29.0298150100017" height="176" rx="3" fill="#edc948" opacity="0.25"/>
  <text x="801.4850924949992" y="323" text-anchor="middle" dominant-baseline="central" font-size="16" fill="#edc948" font-family="system-ui,sans-serif" font-weight="400" transform="rotate(-90,801.4850924949992,323)">governance</text>
</g>
<g transform="translate(0, 639)">
<title>Portfolio at a Glance</title>
<rect width="820" height="270" fill="none"/>
<rect x="3" y="3" width="328.82" height="264" rx="6" fill="#0969da" opacity="0.15" stroke="#0969da" stroke-width="1.5"/><path d="M9,3 h316.82 a6,6 0 0 1 6,6 v26 h-328.82 v-26 a6,6 0 0 1 6,-6 z" fill="#0969da" opacity="0.1"/><line x1="3" y1="35" x2="331.82" y2="35" stroke="#0969da" stroke-width="0.75" opacity="0.45"/><text x="11" y="19" font-size="12" fill="#0969da" font-family="system-ui,-apple-system,Segoe UI,Roboto,sans-serif" font-weight="700">Top Languages</text><text x="11" y="31" font-size="9" fill="#0969da" opacity="0.95" font-weight="600" font-family="system-ui,-apple-system,Segoe UI,Roboto,sans-serif">By lines of code</text>
<g transform="translate(11, 41)">
<text x="4" y="28" font-size="11" fill="#0969da" font-family="system-ui,-apple-system,Segoe UI,Roboto,sans-serif">Python</text><rect x="137.3844" y="15" width="175.4356" height="18" rx="3" fill="#0969da" opacity="0.12"/><rect x="137.3844" y="15" width="109" height="18" rx="3" fill="#0969da" opacity="0.55"/><text x="251.3844" y="28" font-size="10" fill="#0969da" font-weight="700" font-family="system-ui,-apple-system,Segoe UI,Roboto,sans-serif">62.2%</text><text x="4" y="62" font-size="11" fill="#0969da" font-family="system-ui,-apple-system,Segoe UI,Roboto,sans-serif">Jupyter Notebook</text><rect x="137.3844" y="49" width="175.4356" height="18" rx="3" fill="#0969da" opacity="0.12"/><rect x="137.3844" y="49" width="28" height="18" rx="3" fill="#0969da" opacity="0.55"/><text x="170.3844" y="62" font-size="10" fill="#0969da" font-weight="700" font-family="system-ui,-apple-system,Segoe UI,Roboto,sans-serif">16.2%</text><text x="4" y="96" font-size="11" fill="#0969da" font-family="system-ui,-apple-system,Segoe UI,Roboto,sans-serif">JavaScript</text><rect x="137.3844" y="83" width="175.4356" height="18" rx="3" fill="#0969da" opacity="0.12"/><rect x="137.3844" y="83" width="21" height="18" rx="3" fill="#0969da" opacity="0.55"/><text x="163.3844" y="96" font-size="10" fill="#0969da" font-weight="700" font-family="system-ui,-apple-system,Segoe UI,Roboto,sans-serif">12.0%</text><text x="4" y="130" font-size="11" fill="#0969da" font-family="system-ui,-apple-system,Segoe UI,Roboto,sans-serif">TypeScript</text><rect x="137.3844" y="117" width="175.4356" height="18" rx="3" fill="#0969da" opacity="0.12"/><rect x="137.3844" y="117" width="10" height="18" rx="3" fill="#0969da" opacity="0.55"/><text x="152.3844" y="130" font-size="10" fill="#0969da" font-weight="700" font-family="system-ui,-apple-system,Segoe UI,Roboto,sans-serif">5.4%</text><text x="4" y="164" font-size="11" fill="#0969da" font-family="system-ui,-apple-system,Segoe UI,Roboto,sans-serif">Cython</text><rect x="137.3844" y="151" width="175.4356" height="18" rx="3" fill="#0969da" opacity="0.12"/><rect x="137.3844" y="151" width="2" height="18" rx="3" fill="#0969da" opacity="0.55"/><text x="144.3844" y="164" font-size="10" fill="#0969da" font-weight="700" font-family="system-ui,-apple-system,Segoe UI,Roboto,sans-serif">1.4%</text><text x="4" y="198" font-size="11" fill="#0969da" font-family="system-ui,-apple-system,Segoe UI,Roboto,sans-serif">PowerShell</text><rect x="137.3844" y="185" width="175.4356" height="18" rx="3" fill="#0969da" opacity="0.12"/><rect x="137.3844" y="185" width="2" height="18" rx="3" fill="#0969da" opacity="0.55"/><text x="144.3844" y="198" font-size="10" fill="#0969da" font-weight="700" font-family="system-ui,-apple-system,Segoe UI,Roboto,sans-serif">0.9%</text>
</g>
<rect x="337.82" y="3" width="144.35999999999999" height="264" rx="6" fill="#9a6700" opacity="0.15" stroke="#9a6700" stroke-width="1.5"/><path d="M343.82,3 h132.35999999999999 a6,6 0 0 1 6,6 v26 h-144.35999999999999 v-26 a6,6 0 0 1 6,-6 z" fill="#9a6700" opacity="0.1"/><line x1="337.82" y1="35" x2="482.17999999999995" y2="35" stroke="#9a6700" stroke-width="0.75" opacity="0.45"/><text x="345.82" y="19" font-size="12" fill="#9a6700" font-family="system-ui,-apple-system,Segoe UI,Roboto,sans-serif" font-weight="700">Tier &amp; Activity</text><text x="345.82" y="31" font-size="9" fill="#9a6700" opacity="0.95" font-weight="600" font-family="system-ui,-apple-system,Segoe UI,Roboto,sans-serif">Portfolio composition</text>
<text x="345.82" y="52" font-size="9" font-weight="700" fill="#9a6700" opacity="0.7" letter-spacing="0.6" font-family="system-ui,-apple-system,Segoe UI,Roboto,sans-serif">TIERS</text>
<g><text x="345.82" y="69" font-size="11">🏆</text><text x="365.82" y="69" font-size="11" fill="#9a6700" font-weight="600" font-family="system-ui,-apple-system,Segoe UI,Roboto,sans-serif">Flagship</text><text x="470.17999999999995" y="69" font-size="12" fill="#9a6700" font-weight="700" font-family="system-ui,-apple-system,Segoe UI,Roboto,sans-serif" text-anchor="end">21</text><text x="345.82" y="91" font-size="11">⭐</text><text x="365.82" y="91" font-size="11" fill="#9a6700" font-weight="600" font-family="system-ui,-apple-system,Segoe UI,Roboto,sans-serif">Notable</text><text x="470.17999999999995" y="91" font-size="12" fill="#9a6700" font-weight="700" font-family="system-ui,-apple-system,Segoe UI,Roboto,sans-serif" text-anchor="end">36</text><text x="345.82" y="113" font-size="11">🤖</text><text x="365.82" y="113" font-size="11" fill="#9a6700" font-weight="600" font-family="system-ui,-apple-system,Segoe UI,Roboto,sans-serif">Agents</text><text x="470.17999999999995" y="113" font-size="12" fill="#9a6700" font-weight="700" font-family="system-ui,-apple-system,Segoe UI,Roboto,sans-serif" text-anchor="end">70</text><text x="345.82" y="135" font-size="11">🪦</text><text x="365.82" y="135" font-size="11" fill="#9a6700" font-weight="600" font-family="system-ui,-apple-system,Segoe UI,Roboto,sans-serif">Archived</text><text x="470.17999999999995" y="135" font-size="12" fill="#9a6700" font-weight="700" font-family="system-ui,-apple-system,Segoe UI,Roboto,sans-serif" text-anchor="end">15</text></g>
<text x="345.82" y="162" font-size="9" font-weight="700" fill="#9a6700" opacity="0.7" letter-spacing="0.6" font-family="system-ui,-apple-system,Segoe UI,Roboto,sans-serif">ACTIVITY</text>
<g><text x="345.82" y="179" font-size="11">⭐</text><text x="365.82" y="179" font-size="11" fill="#9a6700" font-weight="600" font-family="system-ui,-apple-system,Segoe UI,Roboto,sans-serif">Stars</text><text x="470.17999999999995" y="179" font-size="12" fill="#9a6700" font-weight="700" font-family="system-ui,-apple-system,Segoe UI,Roboto,sans-serif" text-anchor="end">23</text><text x="345.82" y="201" font-size="11">🚀</text><text x="365.82" y="201" font-size="11" fill="#9a6700" font-weight="600" font-family="system-ui,-apple-system,Segoe UI,Roboto,sans-serif">Active &lt;30d</text><text x="470.17999999999995" y="201" font-size="12" fill="#9a6700" font-weight="700" font-family="system-ui,-apple-system,Segoe UI,Roboto,sans-serif" text-anchor="end">49</text><text x="345.82" y="223" font-size="11">📂</text><text x="365.82" y="223" font-size="11" fill="#9a6700" font-weight="600" font-family="system-ui,-apple-system,Segoe UI,Roboto,sans-serif">Public</text><text x="470.17999999999995" y="223" font-size="12" fill="#9a6700" font-weight="700" font-family="system-ui,-apple-system,Segoe UI,Roboto,sans-serif" text-anchor="end">34</text><text x="345.82" y="245" font-size="11">🔒</text><text x="365.82" y="245" font-size="11" fill="#9a6700" font-weight="600" font-family="system-ui,-apple-system,Segoe UI,Roboto,sans-serif">Private</text><text x="470.17999999999995" y="245" font-size="12" fill="#9a6700" font-weight="700" font-family="system-ui,-apple-system,Segoe UI,Roboto,sans-serif" text-anchor="end">41</text></g>
<rect x="488.17999999999995" y="3" width="328.82" height="264" rx="6" fill="#8250df" opacity="0.15" stroke="#8250df" stroke-width="1.5"/><path d="M494.17999999999995,3 h316.82 a6,6 0 0 1 6,6 v26 h-328.82 v-26 a6,6 0 0 1 6,-6 z" fill="#8250df" opacity="0.1"/><line x1="488.17999999999995" y1="35" x2="817" y2="35" stroke="#8250df" stroke-width="0.75" opacity="0.45"/><text x="496.17999999999995" y="19" font-size="12" fill="#8250df" font-family="system-ui,-apple-system,Segoe UI,Roboto,sans-serif" font-weight="700">Top Themes</text><text x="496.17999999999995" y="31" font-size="9" fill="#8250df" opacity="0.95" font-weight="600" font-family="system-ui,-apple-system,Segoe UI,Roboto,sans-serif">Topic clusters</text>
<g transform="translate(496.17999999999995, 41)">
<text x="4" y="28" font-size="11" fill="#8250df" font-family="system-ui,-apple-system,Segoe UI,Roboto,sans-serif">AI &amp; Copilot</text><rect x="137.3844" y="15" width="175.4356" height="18" rx="3" fill="#8250df" opacity="0.12"/><rect x="137.3844" y="15" width="109" height="18" rx="3" fill="#8250df" opacity="0.55"/><text x="251.3844" y="28" font-size="10" fill="#8250df" font-weight="700" font-family="system-ui,-apple-system,Segoe UI,Roboto,sans-serif">22</text><text x="4" y="56" font-size="11" fill="#8250df" font-family="system-ui,-apple-system,Segoe UI,Roboto,sans-serif">Cognitive<tspan x="4" dy="12">Architecture</tspan></text><rect x="137.3844" y="49" width="175.4356" height="18" rx="3" fill="#8250df" opacity="0.12"/><rect x="137.3844" y="49" width="104" height="18" rx="3" fill="#8250df" opacity="0.55"/><text x="246.3844" y="62" font-size="10" fill="#8250df" font-weight="700" font-family="system-ui,-apple-system,Segoe UI,Roboto,sans-serif">21</text><text x="4" y="96" font-size="11" fill="#8250df" font-family="system-ui,-apple-system,Segoe UI,Roboto,sans-serif">Development Tools</text><rect x="137.3844" y="83" width="175.4356" height="18" rx="3" fill="#8250df" opacity="0.12"/><rect x="137.3844" y="83" width="84" height="18" rx="3" fill="#8250df" opacity="0.55"/><text x="226.3844" y="96" font-size="10" fill="#8250df" font-weight="700" font-family="system-ui,-apple-system,Segoe UI,Roboto,sans-serif">17</text><text x="4" y="130" font-size="11" fill="#8250df" font-family="system-ui,-apple-system,Segoe UI,Roboto,sans-serif">AI Agents &amp; Skills</text><rect x="137.3844" y="117" width="175.4356" height="18" rx="3" fill="#8250df" opacity="0.12"/><rect x="137.3844" y="117" width="64" height="18" rx="3" fill="#8250df" opacity="0.55"/><text x="206.3844" y="130" font-size="10" fill="#8250df" font-weight="700" font-family="system-ui,-apple-system,Segoe UI,Roboto,sans-serif">13</text><text x="4" y="164" font-size="11" fill="#8250df" font-family="system-ui,-apple-system,Segoe UI,Roboto,sans-serif">Responsible AI</text><rect x="137.3844" y="151" width="175.4356" height="18" rx="3" fill="#8250df" opacity="0.12"/><rect x="137.3844" y="151" width="64" height="18" rx="3" fill="#8250df" opacity="0.55"/><text x="206.3844" y="164" font-size="10" fill="#8250df" font-weight="700" font-family="system-ui,-apple-system,Segoe UI,Roboto,sans-serif">13</text><text x="4" y="198" font-size="11" fill="#8250df" font-family="system-ui,-apple-system,Segoe UI,Roboto,sans-serif">Learning &amp; Research</text><rect x="137.3844" y="185" width="175.4356" height="18" rx="3" fill="#8250df" opacity="0.12"/><rect x="137.3844" y="185" width="55" height="18" rx="3" fill="#8250df" opacity="0.55"/><text x="197.3844" y="198" font-size="10" fill="#8250df" font-weight="700" font-family="system-ui,-apple-system,Segoe UI,Roboto,sans-serif">11</text>
</g>
</g>
<text x="410" y="935" text-anchor="middle" font-family="Segoe UI, system-ui, sans-serif" font-size="13"><tspan font-weight="700" fill="#1f2328" >75</tspan><tspan fill="#64748b" dx="4">repositories across 10 categories</tspan><tspan fill="#64748b" dx="6">·</tspan><tspan font-weight="700" fill="#1f2328" dx="6">60</tspan><tspan fill="#64748b" dx="4">actively maintained</tspan><tspan fill="#64748b" dx="6">·</tspan><tspan font-weight="700" fill="#1f2328" dx="6">21</tspan><tspan fill="#64748b" dx="4">flagships</tspan></text>
</svg>