<svg xmlns="http://www.w3.org/2000/svg" viewBox="0 0 820 947" width="100%" preserveAspectRatio="xMidYMid meet" role="img" aria-label="Portfolio">
<title>Portfolio</title>
<g transform="translate(0, 0) scale(0.683333)">
<defs>
    <!-- Background gradient - deep space theme -->
    <linearGradient id="bgGrad" x1="0%" y1="0%" x2="100%" y2="100%">
      <stop offset="0%" stop-color="#020617"/>
      <stop offset="50%" stop-color="#0f172a"/>
      <stop offset="100%" stop-color="#1e293b"/>
    </linearGradient>

    <!-- Logo gradient with Azure blue -->
    <linearGradient id="logoGrad" x1="0%" y1="0%" x2="100%" y2="100%">
      <stop offset="0%" stop-color="#00bcf2"/>
      <stop offset="50%" stop-color="#0078d4"/>
      <stop offset="100%" stop-color="#005a9e"/>
    </linearGradient>

    <!-- Name gradient -->
    <linearGradient id="nameGrad" x1="0%" y1="0%" x2="100%" y2="0%">
      <stop offset="0%" stop-color="#f8fafc"/>
      <stop offset="50%" stop-color="#e2e8f0"/>
      <stop offset="100%" stop-color="#f8fafc"/>
    </linearGradient>

    <!-- Accent text gradient -->
    <linearGradient id="accentTextGrad" x1="0%" y1="0%" x2="100%" y2="0%">
      <stop offset="0%" stop-color="#00bcf2"/>
      <stop offset="50%" stop-color="#0078d4"/>
      <stop offset="100%" stop-color="#00bcf2"/>
    </linearGradient>

    <!-- Glow filter -->
    <filter id="glow" x="-50%" y="-50%" width="200%" height="200%">
      <feGaussianBlur stdDeviation="3" result="coloredBlur"/>
      <feMerge>
        <feMergeNode in="coloredBlur"/>
        <feMergeNode in="SourceGraphic"/>
      </feMerge>
    </filter>

    <!-- Strong glow for logo -->
    <filter id="logoGlow" x="-100%" y="-100%" width="300%" height="300%">
      <feGaussianBlur stdDeviation="6" result="blur1"/>
      <feGaussianBlur stdDeviation="12" result="blur2"/>
      <feMerge>
        <feMergeNode in="blur2"/>
        <feMergeNode in="blur1"/>
        <feMergeNode in="SourceGraphic"/>
      </feMerge>
    </filter>

    <!-- Radial glow behind logo -->
    <radialGradient id="logoBackGlow" cx="50%" cy="50%" r="50%">
      <stop offset="0%" stop-color="#0078d4" stop-opacity="0.4"/>
      <stop offset="50%" stop-color="#0078d4" stop-opacity="0.1"/>
      <stop offset="100%" stop-color="#0078d4" stop-opacity="0"/>
    </radialGradient>

    <!-- Grid pattern -->
    <pattern id="grid" width="50" height="50" patternUnits="userSpaceOnUse">
      <path d="M 50 0 L 0 0 0 50" fill="none" stroke="#1e3a5f" stroke-width="0.5" opacity="0.4"/>
    </pattern>

    <!-- Dot pattern -->
    <pattern id="dots" width="30" height="30" patternUnits="userSpaceOnUse">
      <circle cx="15" cy="15" r="1" fill="#0078d4" opacity="0.2"/>
    </pattern>

    <!-- Gradient for accent line -->
    <linearGradient id="accentGrad" x1="0%" y1="0%" x2="100%" y2="0%">
      <stop offset="0%" stop-color="#005a9e"/>
      <stop offset="25%" stop-color="#0078d4"/>
      <stop offset="50%" stop-color="#00bcf2"/>
      <stop offset="75%" stop-color="#0078d4"/>
      <stop offset="100%" stop-color="#005a9e"/>
    </linearGradient>

    <!-- Neural network gradient -->
    <linearGradient id="neuralGrad" x1="0%" y1="0%" x2="100%" y2="100%">
      <stop offset="0%" stop-color="#7c3aed"/>
      <stop offset="50%" stop-color="#0078d4"/>
      <stop offset="100%" stop-color="#00bcf2"/>
    </linearGradient>
  </defs>

  <!-- Background -->
  <rect width="1200" height="300" fill="url(#bgGrad)"/>

  <!-- Grid overlay -->
  <rect width="1200" height="300" fill="url(#grid)"/>

  <!-- Dot pattern overlay -->
  <rect width="1200" height="300" fill="url(#dots)" opacity="0.5"/>

  <!-- Large decorative orbs -->
  <circle cx="150" cy="150" r="180" fill="url(#logoBackGlow)"/>
  <circle cx="1050" cy="80" r="150" fill="#0078d4" opacity="0.05"/>
  <circle cx="1150" cy="280" r="180" fill="#00bcf2" opacity="0.03"/>
  <circle cx="50" cy="250" r="100" fill="#7c3aed" opacity="0.06"/>

  <!-- Neural network nodes - cognitive theme -->
  <g opacity="0.4">
    <!-- Left side neural cluster -->
    <circle cx="80" cy="60" r="4" fill="#7c3aed"/>
    <circle cx="120" cy="40" r="3" fill="#0078d4"/>
    <circle cx="60" cy="100" r="3" fill="#00bcf2"/>
    <circle cx="140" cy="90" r="2" fill="#7c3aed"/>
    <line x1="80" y1="60" x2="120" y2="40" stroke="#7c3aed" stroke-width="1"/>
    <line x1="80" y1="60" x2="60" y2="100" stroke="#0078d4" stroke-width="1"/>
    <line x1="120" y1="40" x2="140" y2="90" stroke="#00bcf2" stroke-width="0.5"/>

    <!-- Right side neural cluster -->
    <circle cx="1100" cy="70" r="3" fill="#00bcf2"/>
    <circle cx="1140" cy="50" r="2" fill="#0078d4"/>
    <circle cx="1080" cy="100" r="4" fill="#7c3aed"/>
    <circle cx="1120" cy="120" r="2" fill="#0078d4"/>
    <line x1="1100" y1="70" x2="1140" y2="50" stroke="#00bcf2" stroke-width="0.5"/>
    <line x1="1100" y1="70" x2="1080" y2="100" stroke="#7c3aed" stroke-width="1"/>
    <line x1="1080" y1="100" x2="1120" y2="120" stroke="#0078d4" stroke-width="0.5"/>
  </g>

  <!-- Floating particles -->
  <circle cx="300" cy="30" r="1.5" fill="#0078d4" opacity="0.5"/>
  <circle cx="500" cy="50" r="2" fill="#00bcf2" opacity="0.4"/>
  <circle cx="750" cy="25" r="1" fill="#7c3aed" opacity="0.6"/>
  <circle cx="950" cy="45" r="2.5" fill="#00bcf2" opacity="0.3"/>
  <circle cx="400" cy="270" r="2" fill="#00bcf2" opacity="0.4"/>
  <circle cx="700" cy="260" r="1.5" fill="#0078d4" opacity="0.5"/>
  <circle cx="900" cy="275" r="2" fill="#7c3aed" opacity="0.3"/>
  <circle cx="1050" cy="250" r="1" fill="#0078d4" opacity="0.6"/>

  <!-- Logo glow backdrop -->
  <ellipse cx="150" cy="150" rx="120" ry="110" fill="url(#logoBackGlow)"/>

  <!-- Logo mark (scaled) with glow -->
  <g transform="translate(55, 58) scale(6)" filter="url(#logoGlow)">
    <path d="M16 2C8.268 2 2 8.268 2 16s6.268 14 14 14c3.866 0 7.389-1.568 9.928-4.1l-3.535-3.536A9.002 9.002 0 0116 25c-4.97 0-9-4.03-9-9s4.03-9 9-9c2.29 0 4.38.857 5.971 2.268l3.464-3.639C22.993 3.352 19.66 2 16 2z" fill="url(#logoGrad)"/>
    <path d="M20 10l-4 6 4 6h4l-4-6 4-6h-4z" fill="url(#logoGrad)"/>
    <path d="M24 10l4 6-4 6h4l4-6-4-6h-4z" fill="url(#logoGrad)" opacity="0.6"/>
  </g>

  <text x="320" y="54" font-family="Segoe UI, system-ui, sans-serif" font-size="13" font-weight="600" fill="#94a3b8" letter-spacing="3">AUTOMATIC REPOSITORY PORTFOLIO FOR</text>
  <!-- Main name -->
  <text x="320" y="135" font-family="Segoe UI, system-ui, sans-serif" font-size="74" font-weight="700" fill="url(#nameGrad)" filter="url(#glow)">Dr. Fabio Correa, DBA</text>

  <!-- Title line -->
  <text x="320" y="180" font-family="Segoe UI, system-ui, sans-serif" font-size="22" fill="#94a3b8" letter-spacing="1" textLength="800" lengthAdjust="spacingAndGlyphs">Building AI-powered solutions for coding, learning, and decision-making.</text>

  <!-- Tagline with accent -->
  <text x="320" y="220" font-family="Segoe UI, system-ui, sans-serif" font-size="18" fill="url(#accentTextGrad)" letter-spacing="1.5">THINK • BUILD • DEPLOY</text>

  <!-- Decorative accent line -->
  <line x1="320" y1="240" x2="850" y2="240" stroke="#334155" stroke-width="1"/>
  <line x1="320" y1="243" x2="600" y2="243" stroke="url(#accentGrad)" stroke-width="2" opacity="0.6"/>

  <!-- CorreaX branding badge -->
  <g transform="translate(320, 255)" font-family="Segoe UI, system-ui, sans-serif" font-size="12" fill="#94a3b8"><text letter-spacing="1">UPDATED</text><text x="70" font-weight="700">Apr 28 2026 15:46 EDT</text></g>

  <!-- Tech circuit decorations on right -->
  <g opacity="0.25">
    <path d="M1000 140 h80 v40 h40" stroke="#0078d4" stroke-width="1.5" fill="none"/>
    <circle cx="1000" cy="140" r="3" fill="#0078d4"/>
    <circle cx="1120" cy="180" r="4" fill="#00bcf2"/>
    <path d="M1020 200 h60 v-25 h30" stroke="#7c3aed" stroke-width="1" fill="none"/>
    <circle cx="1020" cy="200" r="2" fill="#7c3aed"/>
    <path d="M980 100 h50 l20 20 h40" stroke="#00bcf2" stroke-width="1" fill="none"/>
    <circle cx="980" cy="100" r="2" fill="#00bcf2"/>
  </g>

  <!-- Bottom accent bar with glow -->
  <rect x="0" y="290" width="1200" height="10" fill="url(#accentGrad)" filter="url(#glow)"/>
</g>
<g transform="translate(0, 217)">
<rect width="820" height="416" fill="none"/>
  <rect x="3" y="3" width="241.17703349282297" height="202" rx="6" fill="#57606a" opacity="0.15" stroke="#57606a" stroke-width="1.5"/><path d="M9,3 h229.17703349282297 a6,6 0 0 1 6,6 v16 h-241.17703349282297 v-16 a6,6 0 0 1 6,-6 z" fill="#57606a" opacity="0.1"/><line x1="3" y1="25" x2="244.17703349282297" y2="25" stroke="#57606a" stroke-width="0.75" opacity="0.45"/><text x="11" y="19" font-size="12" fill="#57606a" font-family="system-ui,-apple-system,Segoe UI,Roboto,sans-serif" font-weight="700">Other</text>
  <rect x="4" y="27" width="41.50475264093723" height="176" rx="3" fill="#57606a" opacity="0.43"/>
  <text x="24.752376320468613" y="115" text-anchor="middle" dominant-baseline="central" font-size="16" fill="#57606a" font-family="system-ui,sans-serif" font-weight="600" transform="rotate(-90,24.752376320468613,115)">agent</text>
  <rect x="46.50475264093723" y="27" width="34.72536744585678" height="176" rx="3" fill="#57606a" opacity="0.36"/>
  <text x="63.86743636386562" y="115" text-anchor="middle" dominant-baseline="central" font-size="16" fill="#57606a" font-family="system-ui,sans-serif" font-weight="600" transform="rotate(-90,63.86743636386562,115)">prompt engineering</text>
  <rect x="82.23012008679402" y="27" width="32.14944315336164" height="176" rx="3" fill="#57606a" opacity="0.34"/>
  <text x="98.30484166347483" y="115" text-anchor="middle" dominant-baseline="central" font-size="16" fill="#57606a" font-family="system-ui,sans-serif" font-weight="600" transform="rotate(-90,98.30484166347483,115)">ai</text>
  <rect x="115.37956324015565" y="27" width="29.34829204387698" height="176" rx="3" fill="#57606a" opacity="0.32"/>
  <text x="130.05370926209415" y="115" text-anchor="middle" dominant-baseline="central" font-size="16" fill="#57606a" font-family="system-ui,sans-serif" font-weight="400" transform="rotate(-90,130.05370926209415,115)">critical thinking</text>
  <rect x="145.72785528403261" y="27" width="26.249910413450067" height="176" rx="3" fill="#57606a" opacity="0.29"/>
  <text x="158.85281049075763" y="115" text-anchor="middle" dominant-baseline="central" font-size="16" fill="#57606a" font-family="system-ui,sans-serif" font-weight="400" transform="rotate(-90,158.85281049075763,115)">responsible ai</text>
  <rect x="172.97776569748268" y="27" width="22.733089265113435" height="176" rx="3" fill="#57606a" opacity="0.27"/>
  <text x="184.3443103300394" y="115" text-anchor="middle" dominant-baseline="central" font-size="16" fill="#57606a" font-family="system-ui,sans-serif" font-weight="400" transform="rotate(-90,184.3443103300394,115)">dashboard</text>
  <rect x="196.7108549625961" y="27" width="22.733089265113435" height="176" rx="3" fill="#57606a" opacity="0.27"/>
  <text x="208.07739959515283" y="115" text-anchor="middle" dominant-baseline="central" font-size="16" fill="#57606a" font-family="system-ui,sans-serif" font-weight="400" transform="rotate(-90,208.07739959515283,115)">fleet</text>
  <rect x="220.44394422770955" y="27" width="22.73308926511342" height="176" rx="3" fill="#57606a" opacity="0.27"/>
  <text x="231.81048886026628" y="115" text-anchor="middle" dominant-baseline="central" font-size="16" fill="#57606a" font-family="system-ui,sans-serif" font-weight="400" transform="rotate(-90,231.81048886026628,115)">dialog engineering</text>
  <rect x="250.17703349282297" y="3" width="229.4066985645933" height="202" rx="6" fill="#4e79a7" opacity="0.15" stroke="#4e79a7" stroke-width="1.5"/><path d="M256.17703349282294,3 h217.4066985645933 a6,6 0 0 1 6,6 v16 h-229.4066985645933 v-16 a6,6 0 0 1 6,-6 z" fill="#4e79a7" opacity="0.1"/><line x1="250.17703349282297" y1="25" x2="479.5837320574163" y2="25" stroke="#4e79a7" stroke-width="0.75" opacity="0.45"/><text x="258.17703349282294" y="19" font-size="12" fill="#4e79a7" font-family="system-ui,-apple-system,Segoe UI,Roboto,sans-serif" font-weight="700">AI &amp; Copilot</text>
  <rect x="251.17703349282297" y="27" width="39.88181063012036" height="176" rx="3" fill="#4e79a7" opacity="0.43"/>
  <text x="271.11793880788315" y="115" text-anchor="middle" dominant-baseline="central" font-size="16" fill="#4e79a7" font-family="system-ui,sans-serif" font-weight="600" transform="rotate(-90,271.11793880788315,115)">github copilot</text>
  <rect x="292.05884412294336" y="27" width="33.36751674002348" height="176" rx="3" fill="#4e79a7" opacity="0.36"/>
  <text x="308.7426024929551" y="115" text-anchor="middle" dominant-baseline="central" font-size="16" fill="#4e79a7" font-family="system-ui,sans-serif" font-weight="600" transform="rotate(-90,308.7426024929551,115)">ai assistant</text>
  <rect x="326.4263608629668" y="27" width="28.200698742555844" height="176" rx="3" fill="#4e79a7" opacity="0.32"/>
  <text x="340.5267102342447" y="115" text-anchor="middle" dominant-baseline="central" font-size="16" fill="#4e79a7" font-family="system-ui,sans-serif" font-weight="400" transform="rotate(-90,340.5267102342447,115)">copilot</text>
  <rect x="355.6270596055227" y="27" width="28.200698742555844" height="176" rx="3" fill="#4e79a7" opacity="0.32"/>
  <text x="369.7274089768006" y="115" text-anchor="middle" dominant-baseline="central" font-size="16" fill="#4e79a7" font-family="system-ui,sans-serif" font-weight="400" transform="rotate(-90,369.7274089768006,115)">claude</text>
  <rect x="384.82775834807853" y="27" width="25.22347176053908" height="176" rx="3" fill="#4e79a7" opacity="0.29"/>
  <text x="397.43949422834805" y="115" text-anchor="middle" dominant-baseline="central" font-size="16" fill="#4e79a7" font-family="system-ui,sans-serif" font-weight="400" transform="rotate(-90,397.43949422834805,115)">ai agents</text>
  <rect x="411.05123010861763" y="27" width="21.84416731626624" height="176" rx="3" fill="#4e79a7" opacity="0.27"/>
  <text x="421.9733137667508" y="115" text-anchor="middle" dominant-baseline="central" font-size="16" fill="#4e79a7" font-family="system-ui,sans-serif" font-weight="400" transform="rotate(-90,421.9733137667508,115)">ai agent</text>
  <rect x="433.89539742488387" y="27" width="21.84416731626624" height="176" rx="3" fill="#4e79a7" opacity="0.27"/>
  <text x="444.817481083017" y="115" text-anchor="middle" dominant-baseline="central" font-size="16" fill="#4e79a7" font-family="system-ui,sans-serif" font-weight="400" transform="rotate(-90,444.817481083017,115)">llm</text>
  <rect x="456.7395647411501" y="27" width="21.84416731626618" height="176" rx="3" fill="#4e79a7" opacity="0.27"/>
  <text x="467.6616483992832" y="115" text-anchor="middle" dominant-baseline="central" font-size="16" fill="#4e79a7" font-family="system-ui,sans-serif" font-weight="400" transform="rotate(-90,467.6616483992832,115)">generative ai</text>
  <rect x="485.5837320574163" y="3" width="135.244019138756" height="202" rx="6" fill="#f28e2b" opacity="0.15" stroke="#f28e2b" stroke-width="1.5"/><path d="M491.5837320574163,3 h123.24401913875599 a6,6 0 0 1 6,6 v16 h-135.244019138756 v-16 a6,6 0 0 1 6,-6 z" fill="#f28e2b" opacity="0.1"/><line x1="485.5837320574163" y1="25" x2="620.8277511961722" y2="25" stroke="#f28e2b" stroke-width="0.75" opacity="0.45"/><text x="493.5837320574163" y="19" font-size="12" fill="#f28e2b" font-family="system-ui,-apple-system,Segoe UI,Roboto,sans-serif" font-weight="700">Cognitive Archite…</text>
  <rect x="486.5837320574163" y="27" width="26.026083418561033" height="176" rx="3" fill="#f28e2b" opacity="0.45"/>
  <text x="499.5967737666968" y="115" text-anchor="middle" dominant-baseline="central" font-size="13" fill="#f28e2b" font-family="system-ui,sans-serif" font-weight="600" transform="rotate(-90,499.5967737666968,115)">cognitive architecture</text>
  <rect x="513.6098154759774" y="27" width="22.19511851507235" height="176" rx="3" fill="#f28e2b" opacity="0.38"/>
  <text x="524.7073747335136" y="115" text-anchor="middle" dominant-baseline="central" font-size="16" fill="#f28e2b" font-family="system-ui,sans-serif" font-weight="600" transform="rotate(-90,524.7073747335136,115)">agentic</text>
  <rect x="536.8049339910497" y="27" width="17.546781861250714" height="176" rx="3" fill="#f28e2b" opacity="0.32"/>
  <text x="545.5783249216751" y="115" text-anchor="middle" dominant-baseline="central" font-size="13" fill="#f28e2b" font-family="system-ui,sans-serif" font-weight="400" transform="rotate(-90,545.5783249216751,115)">mcp</text>
  <rect x="555.3517158523003" y="27" width="13.59167878563168" height="176" rx="3" fill="#f28e2b" opacity="0.27"/>
  <text x="562.1475552451162" y="115" text-anchor="middle" dominant-baseline="central" font-size="10" fill="#f28e2b" font-family="system-ui,sans-serif" font-weight="400" transform="rotate(-90,562.1475552451162,115)">agentic ai</text>
  <rect x="569.943394637932" y="27" width="13.59167878563168" height="176" rx="3" fill="#f28e2b" opacity="0.27"/>
  <text x="576.7392340307479" y="115" text-anchor="middle" dominant-baseline="central" font-size="10" fill="#f28e2b" font-family="system-ui,sans-serif" font-weight="400" transform="rotate(-90,576.7392340307479,115)">model context protocol</text>
  <rect x="584.5350734235636" y="27" width="11.097559257536174" height="176" rx="3" fill="#f28e2b" opacity="0.25"/>
  <text x="590.0838530523317" y="115" text-anchor="middle" dominant-baseline="central" font-size="8" fill="#f28e2b" font-family="system-ui,sans-serif" font-weight="400" transform="rotate(-90,590.0838530523317,115)">neuroscience</text>
  <rect x="596.6326326810998" y="27" width="11.097559257536174" height="176" rx="3" fill="#f28e2b" opacity="0.25"/>
  <text x="602.1814123098679" y="115" text-anchor="middle" dominant-baseline="central" font-size="8" fill="#f28e2b" font-family="system-ui,sans-serif" font-weight="400" transform="rotate(-90,602.1814123098679,115)">cognitive science</text>
  <rect x="608.730191938636" y="27" width="11.097559257536204" height="176" rx="3" fill="#f28e2b" opacity="0.25"/>
  <text x="614.2789715674041" y="115" text-anchor="middle" dominant-baseline="central" font-size="8" fill="#f28e2b" font-family="system-ui,sans-serif" font-weight="400" transform="rotate(-90,614.2789715674041,115)">memory systems</text>
  <rect x="626.8277511961722" y="3" width="111.70334928229666" height="202" rx="6" fill="#59a14f" opacity="0.15" stroke="#59a14f" stroke-width="1.5"/><path d="M632.8277511961722,3 h99.70334928229666 a6,6 0 0 1 6,6 v16 h-111.70334928229666 v-16 a6,6 0 0 1 6,-6 z" fill="#59a14f" opacity="0.1"/><line x1="626.8277511961722" y1="25" x2="738.5311004784689" y2="25" stroke="#59a14f" stroke-width="0.75" opacity="0.45"/><text x="634.8277511961722" y="19" font-size="12" fill="#59a14f" font-family="system-ui,-apple-system,Segoe UI,Roboto,sans-serif" font-weight="700">Developer Tools</text>
  <rect x="627.8277511961722" y="27" width="16.535312668683908" height="176" rx="3" fill="#59a14f" opacity="0.34"/>
  <text x="636.0954075305142" y="115" text-anchor="middle" dominant-baseline="central" font-size="12" fill="#59a14f" font-family="system-ui,sans-serif" font-weight="600" transform="rotate(-90,636.0954075305142,115)">typescript</text>
  <rect x="645.3630638648561" y="27" width="15.094606240065206" height="176" rx="3" fill="#59a14f" opacity="0.32"/>
  <text x="652.9103669848887" y="115" text-anchor="middle" dominant-baseline="central" font-size="11" fill="#59a14f" font-family="system-ui,sans-serif" font-weight="400" transform="rotate(-90,652.9103669848887,115)">vscode</text>
  <rect x="661.4576701049214" y="27" width="15.094606240065206" height="176" rx="3" fill="#59a14f" opacity="0.32"/>
  <text x="669.0049732249539" y="115" text-anchor="middle" dominant-baseline="central" font-size="11" fill="#59a14f" font-family="system-ui,sans-serif" font-weight="400" transform="rotate(-90,669.0049732249539,115)">vscode extension</text>
  <rect x="677.5522763449866" y="27" width="13.501026258551324" height="176" rx="3" fill="#59a14f" opacity="0.29"/>
  <text x="684.3027894742622" y="115" text-anchor="middle" dominant-baseline="central" font-size="10" fill="#59a14f" font-family="system-ui,sans-serif" font-weight="400" transform="rotate(-90,684.3027894742622,115)">python</text>
  <rect x="692.0533026035379" y="27" width="11.692231717066218" height="176" rx="3" fill="#59a14f" opacity="0.27"/>
  <text x="697.899418462071" y="115" text-anchor="middle" dominant-baseline="central" font-size="8" fill="#59a14f" font-family="system-ui,sans-serif" font-weight="400" transform="rotate(-90,697.899418462071,115)">react</text>
  <rect x="704.7455343206041" y="27" width="11.692231717066218" height="176" rx="3" fill="#59a14f" opacity="0.27"/>
  <text x="710.5916501791372" y="115" text-anchor="middle" dominant-baseline="central" font-size="8" fill="#59a14f" font-family="system-ui,sans-serif" font-weight="400" transform="rotate(-90,710.5916501791372,115)">developer tools</text>
  <rect x="717.4377660376703" y="27" width="9.546667220399284" height="176" rx="3" fill="#59a14f" opacity="0.25"/>
  <text x="722.2110996478699" y="115" text-anchor="middle" dominant-baseline="central" font-size="7" fill="#59a14f" font-family="system-ui,sans-serif" font-weight="400" transform="rotate(-90,722.2110996478699,115)">markdown</text>
  <rect x="727.9844332580695" y="27" width="9.5466672203994" height="176" rx="3" fill="#59a14f" opacity="0.25"/>
  <text x="732.7577668682693" y="115" text-anchor="middle" dominant-baseline="central" font-size="7" fill="#59a14f" font-family="system-ui,sans-serif" font-weight="400" transform="rotate(-90,732.7577668682693,115)">pdf</text>
  <rect x="744.5311004784689" y="3" width="72.46889952153106" height="202" rx="6" fill="#b07aa1" opacity="0.15" stroke="#b07aa1" stroke-width="1.5"/><path d="M750.5311004784689,3 h60.46889952153106 a6,6 0 0 1 6,6 v16 h-72.46889952153106 v-16 a6,6 0 0 1 6,-6 z" fill="#b07aa1" opacity="0.1"/><line x1="744.5311004784689" y1="25" x2="817" y2="25" stroke="#b07aa1" stroke-width="0.75" opacity="0.45"/><text x="752.5311004784689" y="19" font-size="12" fill="#b07aa1" font-family="system-ui,-apple-system,Segoe UI,Roboto,sans-serif" font-weight="700">Producti…</text>
  <rect x="745.5311004784689" y="27" width="7.933612440191381" height="176" rx="3" fill="#b07aa1" opacity="0.25"/>
  <rect x="754.4647129186603" y="27" width="7.933612440191381" height="176" rx="3" fill="#b07aa1" opacity="0.25"/>
  <rect x="763.3983253588517" y="27" width="7.933612440191381" height="176" rx="3" fill="#b07aa1" opacity="0.25"/>
  <rect x="772.3319377990431" y="27" width="7.933612440191381" height="176" rx="3" fill="#b07aa1" opacity="0.25"/>
  <rect x="781.2655502392345" y="27" width="7.933612440191381" height="176" rx="3" fill="#b07aa1" opacity="0.25"/>
  <rect x="790.1991626794259" y="27" width="7.933612440191381" height="176" rx="3" fill="#b07aa1" opacity="0.25"/>
  <rect x="799.1327751196172" y="27" width="7.933612440191381" height="176" rx="3" fill="#b07aa1" opacity="0.25"/>
  <rect x="808.0663875598086" y="27" width="7.933612440191382" height="176" rx="3" fill="#b07aa1" opacity="0.25"/>
  <rect x="3" y="211" width="272.2142857142857" height="202" rx="6" fill="#e15759" opacity="0.15" stroke="#e15759" stroke-width="1.5"/><path d="M9,211 h260.2142857142857 a6,6 0 0 1 6,6 v16 h-272.2142857142857 v-16 a6,6 0 0 1 6,-6 z" fill="#e15759" opacity="0.1"/><line x1="3" y1="233" x2="275.2142857142857" y2="233" stroke="#e15759" stroke-width="0.75" opacity="0.45"/><text x="11" y="227" font-size="12" fill="#e15759" font-family="system-ui,-apple-system,Segoe UI,Roboto,sans-serif" font-weight="700">Learning &amp; Research</text>
  <rect x="4" y="235" width="37.16412580987595" height="176" rx="3" fill="#e15759" opacity="0.27"/>
  <text x="22.582062904937974" y="323" text-anchor="middle" dominant-baseline="central" font-size="16" fill="#e15759" font-family="system-ui,sans-serif" font-weight="400" transform="rotate(-90,22.582062904937974,323)">utaut2</text>
  <rect x="42.16412580987595" y="235" width="37.16412580987595" height="176" rx="3" fill="#e15759" opacity="0.27"/>
  <text x="60.746188714813925" y="323" text-anchor="middle" dominant-baseline="central" font-size="16" fill="#e15759" font-family="system-ui,sans-serif" font-weight="400" transform="rotate(-90,60.746188714813925,323)">learning</text>
  <rect x="80.3282516197519" y="235" width="37.16412580987595" height="176" rx="3" fill="#e15759" opacity="0.27"/>
  <text x="98.91031452468987" y="323" text-anchor="middle" dominant-baseline="central" font-size="16" fill="#e15759" font-family="system-ui,sans-serif" font-weight="400" transform="rotate(-90,98.91031452468987,323)">tutorial</text>
  <rect x="118.49237742962785" y="235" width="30.34438165693157" height="176" rx="3" fill="#e15759" opacity="0.25"/>
  <text x="133.66456825809362" y="323" text-anchor="middle" dominant-baseline="central" font-size="16" fill="#e15759" font-family="system-ui,sans-serif" font-weight="400" transform="rotate(-90,133.66456825809362,323)">research</text>
  <rect x="149.83675908655943" y="235" width="30.34438165693157" height="176" rx="3" fill="#e15759" opacity="0.25"/>
  <text x="165.0089499150252" y="323" text-anchor="middle" dominant-baseline="central" font-size="16" fill="#e15759" font-family="system-ui,sans-serif" font-weight="400" transform="rotate(-90,165.0089499150252,323)">academic research</text>
  <rect x="181.181140743491" y="235" width="30.34438165693157" height="176" rx="3" fill="#e15759" opacity="0.25"/>
  <text x="196.35333157195677" y="323" text-anchor="middle" dominant-baseline="central" font-size="16" fill="#e15759" font-family="system-ui,sans-serif" font-weight="400" transform="rotate(-90,196.35333157195677,323)">flashcards</text>
  <rect x="212.52552240042257" y="235" width="30.34438165693157" height="176" rx="3" fill="#e15759" opacity="0.25"/>
  <text x="227.69771322888835" y="323" text-anchor="middle" dominant-baseline="central" font-size="16" fill="#e15759" font-family="system-ui,sans-serif" font-weight="400" transform="rotate(-90,227.69771322888835,323)">skills</text>
  <rect x="243.86990405735415" y="235" width="30.344381656931574" height="176" rx="3" fill="#e15759" opacity="0.25"/>
  <text x="259.04209488581995" y="323" text-anchor="middle" dominant-baseline="central" font-size="16" fill="#e15759" font-family="system-ui,sans-serif" font-weight="400" transform="rotate(-90,259.04209488581995,323)">education</text>
  <rect x="281.2142857142857" y="211" width="242.92857142857142" height="202" rx="6" fill="#edc948" opacity="0.15" stroke="#edc948" stroke-width="1.5"/><path d="M287.2142857142857,211 h230.92857142857142 a6,6 0 0 1 6,6 v16 h-242.92857142857142 v-16 a6,6 0 0 1 6,-6 z" fill="#edc948" opacity="0.1"/><line x1="281.2142857142857" y1="233" x2="524.1428571428571" y2="233" stroke="#edc948" stroke-width="0.75" opacity="0.45"/><text x="289.2142857142857" y="227" font-size="12" fill="#edc948" font-family="system-ui,-apple-system,Segoe UI,Roboto,sans-serif" font-weight="700">Healthcare &amp; Wellness</text>
  <rect x="282.2142857142857" y="235" width="34.83424988970252" height="176" rx="3" fill="#edc948" opacity="0.27"/>
  <text x="299.631410659137" y="323" text-anchor="middle" dominant-baseline="central" font-size="16" fill="#edc948" font-family="system-ui,sans-serif" font-weight="400" transform="rotate(-90,299.631410659137,323)">spotify api</text>
  <rect x="318.0485356039882" y="235" width="28.442045934124128" height="176" rx="3" fill="#edc948" opacity="0.25"/>
  <text x="332.2695585710503" y="323" text-anchor="middle" dominant-baseline="central" font-size="16" fill="#edc948" font-family="system-ui,sans-serif" font-weight="400" transform="rotate(-90,332.2695585710503,323)">healthcare</text>
  <rect x="347.49058153811234" y="235" width="28.442045934124128" height="176" rx="3" fill="#edc948" opacity="0.25"/>
  <text x="361.7116045051744" y="323" text-anchor="middle" dominant-baseline="central" font-size="16" fill="#edc948" font-family="system-ui,sans-serif" font-weight="400" transform="rotate(-90,361.7116045051744,323)">music</text>
  <rect x="376.93262747223645" y="235" width="28.442045934124128" height="176" rx="3" fill="#edc948" opacity="0.25"/>
  <text x="391.15365043929853" y="323" text-anchor="middle" dominant-baseline="central" font-size="16" fill="#edc948" font-family="system-ui,sans-serif" font-weight="400" transform="rotate(-90,391.15365043929853,323)">playlist</text>
  <rect x="406.37467340636056" y="235" width="28.442045934124128" height="176" rx="3" fill="#edc948" opacity="0.25"/>
  <text x="420.59569637342264" y="323" text-anchor="middle" dominant-baseline="central" font-size="16" fill="#edc948" font-family="system-ui,sans-serif" font-weight="400" transform="rotate(-90,420.59569637342264,323)">spotify</text>
  <rect x="435.81671934048467" y="235" width="28.442045934124128" height="176" rx="3" fill="#edc948" opacity="0.25"/>
  <text x="450.03774230754675" y="323" text-anchor="middle" dominant-baseline="central" font-size="16" fill="#edc948" font-family="system-ui,sans-serif" font-weight="400" transform="rotate(-90,450.03774230754675,323)">audio</text>
  <rect x="465.2587652746088" y="235" width="28.442045934124128" height="176" rx="3" fill="#edc948" opacity="0.25"/>
  <text x="479.47978824167086" y="323" text-anchor="middle" dominant-baseline="central" font-size="16" fill="#edc948" font-family="system-ui,sans-serif" font-weight="400" transform="rotate(-90,479.47978824167086,323)">generative art</text>
  <rect x="494.7008112087329" y="235" width="28.442045934124224" height="176" rx="3" fill="#edc948" opacity="0.25"/>
  <text x="508.92183417579497" y="323" text-anchor="middle" dominant-baseline="central" font-size="16" fill="#edc948" font-family="system-ui,sans-serif" font-weight="400" transform="rotate(-90,508.92183417579497,323)">accessibility</text>
  <rect x="530.1428571428571" y="211" width="140.42857142857144" height="202" rx="6" fill="#76b7b2" opacity="0.15" stroke="#76b7b2" stroke-width="1.5"/><path d="M536.1428571428571,211 h128.42857142857144 a6,6 0 0 1 6,6 v16 h-140.42857142857144 v-16 a6,6 0 0 1 6,-6 z" fill="#76b7b2" opacity="0.1"/><line x1="530.1428571428571" y1="233" x2="670.5714285714286" y2="233" stroke="#76b7b2" stroke-width="0.75" opacity="0.45"/><text x="538.1428571428571" y="227" font-size="12" fill="#76b7b2" font-family="system-ui,-apple-system,Segoe UI,Roboto,sans-serif" font-weight="700">Cloud &amp; Azure</text>
  <rect x="531.1428571428571" y="235" width="63.31672035093653" height="176" rx="3" fill="#76b7b2" opacity="0.34"/>
  <text x="562.8012173183254" y="323" text-anchor="middle" dominant-baseline="central" font-size="16" fill="#76b7b2" font-family="system-ui,sans-serif" font-weight="600" transform="rotate(-90,562.8012173183254,323)">azure</text>
  <rect x="595.4595774937936" y="235" width="36.55592553881746" height="176" rx="3" fill="#76b7b2" opacity="0.25"/>
  <text x="613.7375402632024" y="323" text-anchor="middle" dominant-baseline="central" font-size="16" fill="#76b7b2" font-family="system-ui,sans-serif" font-weight="400" transform="rotate(-90,613.7375402632024,323)">azure functions</text>
  <rect x="633.0155030326112" y="235" width="36.555925538817405" height="176" rx="3" fill="#76b7b2" opacity="0.25"/>
  <text x="651.2934658020199" y="323" text-anchor="middle" dominant-baseline="central" font-size="16" fill="#76b7b2" font-family="system-ui,sans-serif" font-weight="400" transform="rotate(-90,651.2934658020199,323)">dotnet</text>
  <rect x="676.5714285714286" y="211" width="140.42857142857144" height="202" rx="6" fill="#ff9da7" opacity="0.15" stroke="#ff9da7" stroke-width="1.5"/><path d="M682.5714285714286,211 h128.42857142857144 a6,6 0 0 1 6,6 v16 h-140.42857142857144 v-16 a6,6 0 0 1 6,-6 z" fill="#ff9da7" opacity="0.1"/><line x1="676.5714285714286" y1="233" x2="817" y2="233" stroke="#ff9da7" stroke-width="0.75" opacity="0.45"/><text x="684.5714285714286" y="227" font-size="12" fill="#ff9da7" font-family="system-ui,-apple-system,Segoe UI,Roboto,sans-serif" font-weight="700">Finance &amp; Investme…</text>
  <rect x="677.5714285714286" y="235" width="26.88571428571429" height="176" rx="3" fill="#ff9da7" opacity="0.25"/>
  <text x="691.0142857142857" y="323" text-anchor="middle" dominant-baseline="central" font-size="16" fill="#ff9da7" font-family="system-ui,sans-serif" font-weight="400" transform="rotate(-90,691.0142857142857,323)">portfolio</text>
  <rect x="705.4571428571428" y="235" width="26.88571428571429" height="176" rx="3" fill="#ff9da7" opacity="0.25"/>
  <text x="718.9" y="323" text-anchor="middle" dominant-baseline="central" font-size="16" fill="#ff9da7" font-family="system-ui,sans-serif" font-weight="400" transform="rotate(-90,718.9,323)">template</text>
  <rect x="733.342857142857" y="235" width="26.88571428571429" height="176" rx="3" fill="#ff9da7" opacity="0.25"/>
  <text x="746.7857142857142" y="323" text-anchor="middle" dominant-baseline="central" font-size="16" fill="#ff9da7" font-family="system-ui,sans-serif" font-weight="400" transform="rotate(-90,746.7857142857142,323)">governance</text>
  <rect x="761.2285714285713" y="235" width="26.88571428571429" height="176" rx="3" fill="#ff9da7" opacity="0.25"/>
  <text x="774.6714285714285" y="323" text-anchor="middle" dominant-baseline="central" font-size="16" fill="#ff9da7" font-family="system-ui,sans-serif" font-weight="400" transform="rotate(-90,774.6714285714285,323)">astro</text>
  <rect x="789.1142857142855" y="235" width="26.88571428571447" height="176" rx="3" fill="#ff9da7" opacity="0.25"/>
  <text x="802.5571428571427" y="323" text-anchor="middle" dominant-baseline="central" font-size="16" fill="#ff9da7" font-family="system-ui,sans-serif" font-weight="400" transform="rotate(-90,802.5571428571427,323)">multilingual</text>
</g>
<g transform="translate(0, 639)">
<title>Portfolio at a Glance</title>
<rect width="820" height="270" fill="none"/>
<rect x="3" y="3" width="328.82" height="264" rx="6" fill="#0969da" opacity="0.15" stroke="#0969da" stroke-width="1.5"/><path d="M9,3 h316.82 a6,6 0 0 1 6,6 v26 h-328.82 v-26 a6,6 0 0 1 6,-6 z" fill="#0969da" opacity="0.1"/><line x1="3" y1="35" x2="331.82" y2="35" stroke="#0969da" stroke-width="0.75" opacity="0.45"/><text x="11" y="19" font-size="12" fill="#0969da" font-family="system-ui,-apple-system,Segoe UI,Roboto,sans-serif" font-weight="700">Top Languages</text><text x="11" y="31" font-size="9" fill="#0969da" opacity="0.95" font-weight="600" font-family="system-ui,-apple-system,Segoe UI,Roboto,sans-serif">By lines of code</text>
<g transform="translate(11, 41)">
<text x="4" y="28" font-size="11" fill="#0969da" font-family="system-ui,-apple-system,Segoe UI,Roboto,sans-serif">Python</text><rect x="137.3844" y="15" width="175.4356" height="18" rx="3" fill="#0969da" opacity="0.12"/><rect x="137.3844" y="15" width="119" height="18" rx="3" fill="#0969da" opacity="0.55"/><text x="261.3844" y="28" font-size="10" fill="#0969da" font-weight="700" font-family="system-ui,-apple-system,Segoe UI,Roboto,sans-serif">68.0%</text><text x="4" y="62" font-size="11" fill="#0969da" font-family="system-ui,-apple-system,Segoe UI,Roboto,sans-serif">Jupyter Notebook</text><rect x="137.3844" y="49" width="175.4356" height="18" rx="3" fill="#0969da" opacity="0.12"/><rect x="137.3844" y="49" width="31" height="18" rx="3" fill="#0969da" opacity="0.55"/><text x="173.3844" y="62" font-size="10" fill="#0969da" font-weight="700" font-family="system-ui,-apple-system,Segoe UI,Roboto,sans-serif">17.7%</text><text x="4" y="96" font-size="11" fill="#0969da" font-family="system-ui,-apple-system,Segoe UI,Roboto,sans-serif">TypeScript</text><rect x="137.3844" y="83" width="175.4356" height="18" rx="3" fill="#0969da" opacity="0.12"/><rect x="137.3844" y="83" width="10" height="18" rx="3" fill="#0969da" opacity="0.55"/><text x="152.3844" y="96" font-size="10" fill="#0969da" font-weight="700" font-family="system-ui,-apple-system,Segoe UI,Roboto,sans-serif">5.8%</text><text x="4" y="130" font-size="11" fill="#0969da" font-family="system-ui,-apple-system,Segoe UI,Roboto,sans-serif">JavaScript</text><rect x="137.3844" y="117" width="175.4356" height="18" rx="3" fill="#0969da" opacity="0.12"/><rect x="137.3844" y="117" width="7" height="18" rx="3" fill="#0969da" opacity="0.55"/><text x="149.3844" y="130" font-size="10" fill="#0969da" font-weight="700" font-family="system-ui,-apple-system,Segoe UI,Roboto,sans-serif">4.0%</text><text x="4" y="164" font-size="11" fill="#0969da" font-family="system-ui,-apple-system,Segoe UI,Roboto,sans-serif">Cython</text><rect x="137.3844" y="151" width="175.4356" height="18" rx="3" fill="#0969da" opacity="0.12"/><rect x="137.3844" y="151" width="3" height="18" rx="3" fill="#0969da" opacity="0.55"/><text x="145.3844" y="164" font-size="10" fill="#0969da" font-weight="700" font-family="system-ui,-apple-system,Segoe UI,Roboto,sans-serif">1.5%</text><text x="4" y="198" font-size="11" fill="#0969da" font-family="system-ui,-apple-system,Segoe UI,Roboto,sans-serif">PowerShell</text><rect x="137.3844" y="185" width="175.4356" height="18" rx="3" fill="#0969da" opacity="0.12"/><rect x="137.3844" y="185" width="2" height="18" rx="3" fill="#0969da" opacity="0.55"/><text x="144.3844" y="198" font-size="10" fill="#0969da" font-weight="700" font-family="system-ui,-apple-system,Segoe UI,Roboto,sans-serif">1.0%</text>
</g>
<rect x="337.82" y="3" width="144.35999999999999" height="264" rx="6" fill="#9a6700" opacity="0.15" stroke="#9a6700" stroke-width="1.5"/><path d="M343.82,3 h132.35999999999999 a6,6 0 0 1 6,6 v26 h-144.35999999999999 v-26 a6,6 0 0 1 6,-6 z" fill="#9a6700" opacity="0.1"/><line x1="337.82" y1="35" x2="482.17999999999995" y2="35" stroke="#9a6700" stroke-width="0.75" opacity="0.45"/><text x="345.82" y="19" font-size="12" fill="#9a6700" font-family="system-ui,-apple-system,Segoe UI,Roboto,sans-serif" font-weight="700">Tier &amp; Activity</text><text x="345.82" y="31" font-size="9" fill="#9a6700" opacity="0.95" font-weight="600" font-family="system-ui,-apple-system,Segoe UI,Roboto,sans-serif">Portfolio composition</text>
<text x="345.82" y="52" font-size="9" font-weight="700" fill="#9a6700" opacity="0.7" letter-spacing="0.6" font-family="system-ui,-apple-system,Segoe UI,Roboto,sans-serif">TIERS</text>
<g><text x="345.82" y="69" font-size="11">🏆</text><text x="365.82" y="69" font-size="11" fill="#9a6700" font-weight="600" font-family="system-ui,-apple-system,Segoe UI,Roboto,sans-serif">Flagship</text><text x="470.17999999999995" y="69" font-size="12" fill="#9a6700" font-weight="700" font-family="system-ui,-apple-system,Segoe UI,Roboto,sans-serif" text-anchor="end">19</text><text x="345.82" y="91" font-size="11">⭐</text><text x="365.82" y="91" font-size="11" fill="#9a6700" font-weight="600" font-family="system-ui,-apple-system,Segoe UI,Roboto,sans-serif">Notable</text><text x="470.17999999999995" y="91" font-size="12" fill="#9a6700" font-weight="700" font-family="system-ui,-apple-system,Segoe UI,Roboto,sans-serif" text-anchor="end">34</text><text x="345.82" y="113" font-size="11">🤖</text><text x="365.82" y="113" font-size="11" fill="#9a6700" font-weight="600" font-family="system-ui,-apple-system,Segoe UI,Roboto,sans-serif">Agents</text><text x="470.17999999999995" y="113" font-size="12" fill="#9a6700" font-weight="700" font-family="system-ui,-apple-system,Segoe UI,Roboto,sans-serif" text-anchor="end">63</text><text x="345.82" y="135" font-size="11">🪦</text><text x="365.82" y="135" font-size="11" fill="#9a6700" font-weight="600" font-family="system-ui,-apple-system,Segoe UI,Roboto,sans-serif">Archived</text><text x="470.17999999999995" y="135" font-size="12" fill="#9a6700" font-weight="700" font-family="system-ui,-apple-system,Segoe UI,Roboto,sans-serif" text-anchor="end">15</text></g>
<text x="345.82" y="162" font-size="9" font-weight="700" fill="#9a6700" opacity="0.7" letter-spacing="0.6" font-family="system-ui,-apple-system,Segoe UI,Roboto,sans-serif">ACTIVITY</text>
<g><text x="345.82" y="179" font-size="11">⭐</text><text x="365.82" y="179" font-size="11" fill="#9a6700" font-weight="600" font-family="system-ui,-apple-system,Segoe UI,Roboto,sans-serif">Stars</text><text x="470.17999999999995" y="179" font-size="12" fill="#9a6700" font-weight="700" font-family="system-ui,-apple-system,Segoe UI,Roboto,sans-serif" text-anchor="end">20</text><text x="345.82" y="201" font-size="11">🚀</text><text x="365.82" y="201" font-size="11" fill="#9a6700" font-weight="600" font-family="system-ui,-apple-system,Segoe UI,Roboto,sans-serif">Active &lt;30d</text><text x="470.17999999999995" y="201" font-size="12" fill="#9a6700" font-weight="700" font-family="system-ui,-apple-system,Segoe UI,Roboto,sans-serif" text-anchor="end">30</text><text x="345.82" y="223" font-size="11">📂</text><text x="365.82" y="223" font-size="11" fill="#9a6700" font-weight="600" font-family="system-ui,-apple-system,Segoe UI,Roboto,sans-serif">Public</text><text x="470.17999999999995" y="223" font-size="12" fill="#9a6700" font-weight="700" font-family="system-ui,-apple-system,Segoe UI,Roboto,sans-serif" text-anchor="end">36</text><text x="345.82" y="245" font-size="11">🔒</text><text x="365.82" y="245" font-size="11" fill="#9a6700" font-weight="600" font-family="system-ui,-apple-system,Segoe UI,Roboto,sans-serif">Private</text><text x="470.17999999999995" y="245" font-size="12" fill="#9a6700" font-weight="700" font-family="system-ui,-apple-system,Segoe UI,Roboto,sans-serif" text-anchor="end">32</text></g>
<rect x="488.17999999999995" y="3" width="328.82" height="264" rx="6" fill="#8250df" opacity="0.15" stroke="#8250df" stroke-width="1.5"/><path d="M494.17999999999995,3 h316.82 a6,6 0 0 1 6,6 v26 h-328.82 v-26 a6,6 0 0 1 6,-6 z" fill="#8250df" opacity="0.1"/><line x1="488.17999999999995" y1="35" x2="817" y2="35" stroke="#8250df" stroke-width="0.75" opacity="0.45"/><text x="496.17999999999995" y="19" font-size="12" fill="#8250df" font-family="system-ui,-apple-system,Segoe UI,Roboto,sans-serif" font-weight="700">Top Themes</text><text x="496.17999999999995" y="31" font-size="9" fill="#8250df" opacity="0.95" font-weight="600" font-family="system-ui,-apple-system,Segoe UI,Roboto,sans-serif">Topic clusters</text>
<g transform="translate(496.17999999999995, 41)">
<text x="4" y="28" font-size="11" fill="#8250df" font-family="system-ui,-apple-system,Segoe UI,Roboto,sans-serif">AI &amp; Copilot</text><rect x="137.3844" y="15" width="175.4356" height="18" rx="3" fill="#8250df" opacity="0.12"/><rect x="137.3844" y="15" width="119" height="18" rx="3" fill="#8250df" opacity="0.55"/><text x="261.3844" y="28" font-size="10" fill="#8250df" font-weight="700" font-family="system-ui,-apple-system,Segoe UI,Roboto,sans-serif">26</text><text x="4" y="56" font-size="11" fill="#8250df" font-family="system-ui,-apple-system,Segoe UI,Roboto,sans-serif">Cognitive<tspan x="4" dy="12">Architecture</tspan></text><rect x="137.3844" y="49" width="175.4356" height="18" rx="3" fill="#8250df" opacity="0.12"/><rect x="137.3844" y="49" width="96" height="18" rx="3" fill="#8250df" opacity="0.55"/><text x="238.3844" y="62" font-size="10" fill="#8250df" font-weight="700" font-family="system-ui,-apple-system,Segoe UI,Roboto,sans-serif">21</text><text x="4" y="96" font-size="11" fill="#8250df" font-family="system-ui,-apple-system,Segoe UI,Roboto,sans-serif">Developer Tools</text><rect x="137.3844" y="83" width="175.4356" height="18" rx="3" fill="#8250df" opacity="0.12"/><rect x="137.3844" y="83" width="92" height="18" rx="3" fill="#8250df" opacity="0.55"/><text x="234.3844" y="96" font-size="10" fill="#8250df" font-weight="700" font-family="system-ui,-apple-system,Segoe UI,Roboto,sans-serif">20</text><text x="4" y="130" font-size="11" fill="#8250df" font-family="system-ui,-apple-system,Segoe UI,Roboto,sans-serif">Learning &amp; Research</text><rect x="137.3844" y="117" width="175.4356" height="18" rx="3" fill="#8250df" opacity="0.12"/><rect x="137.3844" y="117" width="50" height="18" rx="3" fill="#8250df" opacity="0.55"/><text x="192.3844" y="130" font-size="10" fill="#8250df" font-weight="700" font-family="system-ui,-apple-system,Segoe UI,Roboto,sans-serif">11</text><text x="4" y="164" font-size="11" fill="#8250df" font-family="system-ui,-apple-system,Segoe UI,Roboto,sans-serif">Cloud &amp; Azure</text><rect x="137.3844" y="151" width="175.4356" height="18" rx="3" fill="#8250df" opacity="0.12"/><rect x="137.3844" y="151" width="37" height="18" rx="3" fill="#8250df" opacity="0.55"/><text x="179.3844" y="164" font-size="10" fill="#8250df" font-weight="700" font-family="system-ui,-apple-system,Segoe UI,Roboto,sans-serif">8</text><text x="4" y="192" font-size="11" fill="#8250df" font-family="system-ui,-apple-system,Segoe UI,Roboto,sans-serif">Productivity &amp;<tspan x="4" dy="12">Automation</tspan></text><rect x="137.3844" y="185" width="175.4356" height="18" rx="3" fill="#8250df" opacity="0.12"/><rect x="137.3844" y="185" width="37" height="18" rx="3" fill="#8250df" opacity="0.55"/><text x="179.3844" y="198" font-size="10" fill="#8250df" font-weight="700" font-family="system-ui,-apple-system,Segoe UI,Roboto,sans-serif">8</text>
</g>
</g>
<text x="410" y="935" text-anchor="middle" font-family="Segoe UI, system-ui, sans-serif" font-size="13"><tspan font-weight="700" fill="#1f2328" >68</tspan><tspan fill="#64748b" dx="4">repositories across 9 categories</tspan><tspan fill="#64748b" dx="6">·</tspan><tspan font-weight="700" fill="#1f2328" dx="6">53</tspan><tspan fill="#64748b" dx="4">actively maintained</tspan><tspan fill="#64748b" dx="6">·</tspan><tspan font-weight="700" fill="#1f2328" dx="6">19</tspan><tspan fill="#64748b" dx="4">flagships</tspan></text>
</svg>