<svg xmlns="http://www.w3.org/2000/svg" viewBox="0 0 820 947" width="100%" preserveAspectRatio="xMidYMid meet" role="img" aria-label="Portfolio">
<title>Portfolio</title>
<g transform="translate(0, 0) scale(0.683333)">
<defs>
    <!-- Background gradient - deep space theme -->
    <linearGradient id="bgGrad" x1="0%" y1="0%" x2="100%" y2="100%">
      <stop offset="0%" stop-color="#020617"/>
      <stop offset="50%" stop-color="#0f172a"/>
      <stop offset="100%" stop-color="#1e293b"/>
    </linearGradient>

    <!-- Logo gradient with Azure blue -->
    <linearGradient id="logoGrad" x1="0%" y1="0%" x2="100%" y2="100%">
      <stop offset="0%" stop-color="#00bcf2"/>
      <stop offset="50%" stop-color="#0078d4"/>
      <stop offset="100%" stop-color="#005a9e"/>
    </linearGradient>

    <!-- Name gradient -->
    <linearGradient id="nameGrad" x1="0%" y1="0%" x2="100%" y2="0%">
      <stop offset="0%" stop-color="#f8fafc"/>
      <stop offset="50%" stop-color="#e2e8f0"/>
      <stop offset="100%" stop-color="#f8fafc"/>
    </linearGradient>

    <!-- Accent text gradient -->
    <linearGradient id="accentTextGrad" x1="0%" y1="0%" x2="100%" y2="0%">
      <stop offset="0%" stop-color="#00bcf2"/>
      <stop offset="50%" stop-color="#0078d4"/>
      <stop offset="100%" stop-color="#00bcf2"/>
    </linearGradient>

    <!-- Glow filter -->
    <filter id="glow" x="-50%" y="-50%" width="200%" height="200%">
      <feGaussianBlur stdDeviation="3" result="coloredBlur"/>
      <feMerge>
        <feMergeNode in="coloredBlur"/>
        <feMergeNode in="SourceGraphic"/>
      </feMerge>
    </filter>

    <!-- Strong glow for logo -->
    <filter id="logoGlow" x="-100%" y="-100%" width="300%" height="300%">
      <feGaussianBlur stdDeviation="6" result="blur1"/>
      <feGaussianBlur stdDeviation="12" result="blur2"/>
      <feMerge>
        <feMergeNode in="blur2"/>
        <feMergeNode in="blur1"/>
        <feMergeNode in="SourceGraphic"/>
      </feMerge>
    </filter>

    <!-- Radial glow behind logo -->
    <radialGradient id="logoBackGlow" cx="50%" cy="50%" r="50%">
      <stop offset="0%" stop-color="#0078d4" stop-opacity="0.4"/>
      <stop offset="50%" stop-color="#0078d4" stop-opacity="0.1"/>
      <stop offset="100%" stop-color="#0078d4" stop-opacity="0"/>
    </radialGradient>

    <!-- Grid pattern -->
    <pattern id="grid" width="50" height="50" patternUnits="userSpaceOnUse">
      <path d="M 50 0 L 0 0 0 50" fill="none" stroke="#1e3a5f" stroke-width="0.5" opacity="0.4"/>
    </pattern>

    <!-- Dot pattern -->
    <pattern id="dots" width="30" height="30" patternUnits="userSpaceOnUse">
      <circle cx="15" cy="15" r="1" fill="#0078d4" opacity="0.2"/>
    </pattern>

    <!-- Gradient for accent line -->
    <linearGradient id="accentGrad" x1="0%" y1="0%" x2="100%" y2="0%">
      <stop offset="0%" stop-color="#005a9e"/>
      <stop offset="25%" stop-color="#0078d4"/>
      <stop offset="50%" stop-color="#00bcf2"/>
      <stop offset="75%" stop-color="#0078d4"/>
      <stop offset="100%" stop-color="#005a9e"/>
    </linearGradient>

    <!-- Neural network gradient -->
    <linearGradient id="neuralGrad" x1="0%" y1="0%" x2="100%" y2="100%">
      <stop offset="0%" stop-color="#7c3aed"/>
      <stop offset="50%" stop-color="#0078d4"/>
      <stop offset="100%" stop-color="#00bcf2"/>
    </linearGradient>
  </defs>

  <!-- Background -->
  <rect width="1200" height="300" fill="url(#bgGrad)"/>

  <!-- Grid overlay -->
  <rect width="1200" height="300" fill="url(#grid)"/>

  <!-- Dot pattern overlay -->
  <rect width="1200" height="300" fill="url(#dots)" opacity="0.5"/>

  <!-- Large decorative orbs -->
  <circle cx="150" cy="150" r="180" fill="url(#logoBackGlow)"/>
  <circle cx="1050" cy="80" r="150" fill="#0078d4" opacity="0.05"/>
  <circle cx="1150" cy="280" r="180" fill="#00bcf2" opacity="0.03"/>
  <circle cx="50" cy="250" r="100" fill="#7c3aed" opacity="0.06"/>

  <!-- Neural network nodes - cognitive theme -->
  <g opacity="0.4">
    <!-- Left side neural cluster -->
    <circle cx="80" cy="60" r="4" fill="#7c3aed"/>
    <circle cx="120" cy="40" r="3" fill="#0078d4"/>
    <circle cx="60" cy="100" r="3" fill="#00bcf2"/>
    <circle cx="140" cy="90" r="2" fill="#7c3aed"/>
    <line x1="80" y1="60" x2="120" y2="40" stroke="#7c3aed" stroke-width="1"/>
    <line x1="80" y1="60" x2="60" y2="100" stroke="#0078d4" stroke-width="1"/>
    <line x1="120" y1="40" x2="140" y2="90" stroke="#00bcf2" stroke-width="0.5"/>

    <!-- Right side neural cluster -->
    <circle cx="1100" cy="70" r="3" fill="#00bcf2"/>
    <circle cx="1140" cy="50" r="2" fill="#0078d4"/>
    <circle cx="1080" cy="100" r="4" fill="#7c3aed"/>
    <circle cx="1120" cy="120" r="2" fill="#0078d4"/>
    <line x1="1100" y1="70" x2="1140" y2="50" stroke="#00bcf2" stroke-width="0.5"/>
    <line x1="1100" y1="70" x2="1080" y2="100" stroke="#7c3aed" stroke-width="1"/>
    <line x1="1080" y1="100" x2="1120" y2="120" stroke="#0078d4" stroke-width="0.5"/>
  </g>

  <!-- Floating particles -->
  <circle cx="300" cy="30" r="1.5" fill="#0078d4" opacity="0.5"/>
  <circle cx="500" cy="50" r="2" fill="#00bcf2" opacity="0.4"/>
  <circle cx="750" cy="25" r="1" fill="#7c3aed" opacity="0.6"/>
  <circle cx="950" cy="45" r="2.5" fill="#00bcf2" opacity="0.3"/>
  <circle cx="400" cy="270" r="2" fill="#00bcf2" opacity="0.4"/>
  <circle cx="700" cy="260" r="1.5" fill="#0078d4" opacity="0.5"/>
  <circle cx="900" cy="275" r="2" fill="#7c3aed" opacity="0.3"/>
  <circle cx="1050" cy="250" r="1" fill="#0078d4" opacity="0.6"/>

  <!-- Logo glow backdrop -->
  <ellipse cx="150" cy="150" rx="120" ry="110" fill="url(#logoBackGlow)"/>

  <!-- Logo mark (scaled) with glow -->
  <g transform="translate(55, 58) scale(6)" filter="url(#logoGlow)">
    <path d="M16 2C8.268 2 2 8.268 2 16s6.268 14 14 14c3.866 0 7.389-1.568 9.928-4.1l-3.535-3.536A9.002 9.002 0 0116 25c-4.97 0-9-4.03-9-9s4.03-9 9-9c2.29 0 4.38.857 5.971 2.268l3.464-3.639C22.993 3.352 19.66 2 16 2z" fill="url(#logoGrad)"/>
    <path d="M20 10l-4 6 4 6h4l-4-6 4-6h-4z" fill="url(#logoGrad)"/>
    <path d="M24 10l4 6-4 6h4l4-6-4-6h-4z" fill="url(#logoGrad)" opacity="0.6"/>
  </g>

  <text x="320" y="54" font-family="Segoe UI, system-ui, sans-serif" font-size="13" font-weight="600" fill="#94a3b8" letter-spacing="3">AUTOMATIC REPOSITORY PORTFOLIO FOR</text>
  <!-- Main name -->
  <text x="320" y="135" font-family="Segoe UI, system-ui, sans-serif" font-size="74" font-weight="700" fill="url(#nameGrad)" filter="url(#glow)">Dr. Fabio Correa, DBA</text>

  <!-- Title line -->
  <text x="320" y="180" font-family="Segoe UI, system-ui, sans-serif" font-size="22" fill="#94a3b8" letter-spacing="1" textLength="800" lengthAdjust="spacingAndGlyphs">Building AI-powered solutions for organizational learning, cognitive architecture, and human-AI collaboration.</text>

  <!-- Tagline with accent -->
  <text x="320" y="220" font-family="Segoe UI, system-ui, sans-serif" font-size="18" fill="url(#accentTextGrad)" letter-spacing="1.5">THINK • BUILD • DEPLOY</text>

  <!-- Decorative accent line -->
  <line x1="320" y1="240" x2="850" y2="240" stroke="#334155" stroke-width="1"/>
  <line x1="320" y1="243" x2="600" y2="243" stroke="url(#accentGrad)" stroke-width="2" opacity="0.6"/>

  <!-- CorreaX branding badge -->
  <g transform="translate(320, 255)" font-family="Segoe UI, system-ui, sans-serif" font-size="12" fill="#94a3b8"><text letter-spacing="1">UPDATED</text><text x="70" font-weight="700">Jun 13 2026 06:47 EDT</text></g>

  <!-- Tech circuit decorations on right -->
  <g opacity="0.25">
    <path d="M1000 140 h80 v40 h40" stroke="#0078d4" stroke-width="1.5" fill="none"/>
    <circle cx="1000" cy="140" r="3" fill="#0078d4"/>
    <circle cx="1120" cy="180" r="4" fill="#00bcf2"/>
    <path d="M1020 200 h60 v-25 h30" stroke="#7c3aed" stroke-width="1" fill="none"/>
    <circle cx="1020" cy="200" r="2" fill="#7c3aed"/>
    <path d="M980 100 h50 l20 20 h40" stroke="#00bcf2" stroke-width="1" fill="none"/>
    <circle cx="980" cy="100" r="2" fill="#00bcf2"/>
  </g>

  <!-- Bottom accent bar with glow -->
  <rect x="0" y="290" width="1200" height="10" fill="url(#accentGrad)" filter="url(#glow)"/>
</g>
<g transform="translate(0, 217)">
<rect width="820" height="416" fill="none"/>
  <rect x="3" y="3" width="247.80952380952382" height="202" rx="6" fill="#57606a" opacity="0.15" stroke="#57606a" stroke-width="1.5"/><path d="M9,3 h235.80952380952382 a6,6 0 0 1 6,6 v16 h-247.80952380952382 v-16 a6,6 0 0 1 6,-6 z" fill="#57606a" opacity="0.1"/><line x1="3" y1="25" x2="250.80952380952382" y2="25" stroke="#57606a" stroke-width="0.75" opacity="0.45"/><text x="11" y="19" font-size="12" fill="#57606a" font-family="system-ui,-apple-system,Segoe UI,Roboto,sans-serif" font-weight="700">Other</text>
  <rect x="4" y="27" width="40.92788018728854" height="176" rx="3" fill="#57606a" opacity="0.36"/>
  <text x="24.46394009364427" y="115" text-anchor="middle" dominant-baseline="central" font-size="16" fill="#57606a" font-family="system-ui,sans-serif" font-weight="600" transform="rotate(-90,24.46394009364427,115)">prompt engineering</text>
  <rect x="45.92788018728854" y="27" width="37.891854118474505" height="176" rx="3" fill="#57606a" opacity="0.34"/>
  <text x="64.87380724652579" y="115" text-anchor="middle" dominant-baseline="central" font-size="16" fill="#57606a" font-family="system-ui,sans-serif" font-weight="600" transform="rotate(-90,64.87380724652579,115)">critical thinking</text>
  <rect x="84.81973430576303" y="27" width="30.938569332746603" height="176" rx="3" fill="#57606a" opacity="0.29"/>
  <text x="100.28901897213633" y="115" text-anchor="middle" dominant-baseline="central" font-size="16" fill="#57606a" font-family="system-ui,sans-serif" font-weight="400" transform="rotate(-90,100.28901897213633,115)">python</text>
  <rect x="116.75830363850963" y="27" width="26.79358699890473" height="176" rx="3" fill="#57606a" opacity="0.27"/>
  <text x="130.155097137962" y="115" text-anchor="middle" dominant-baseline="central" font-size="16" fill="#57606a" font-family="system-ui,sans-serif" font-weight="400" transform="rotate(-90,130.155097137962,115)">dialog engineering</text>
  <rect x="144.55189063741437" y="27" width="26.79358699890473" height="176" rx="3" fill="#57606a" opacity="0.27"/>
  <text x="157.94868413686675" y="115" text-anchor="middle" dominant-baseline="central" font-size="16" fill="#57606a" font-family="system-ui,sans-serif" font-weight="400" transform="rotate(-90,157.94868413686675,115)">llm</text>
  <rect x="172.34547763631912" y="27" width="26.79358699890473" height="176" rx="3" fill="#57606a" opacity="0.27"/>
  <text x="185.7422711357715" y="115" text-anchor="middle" dominant-baseline="central" font-size="16" fill="#57606a" font-family="system-ui,sans-serif" font-weight="400" transform="rotate(-90,185.7422711357715,115)">generative ai</text>
  <rect x="200.13906463522386" y="27" width="26.79358699890473" height="176" rx="3" fill="#57606a" opacity="0.27"/>
  <text x="213.53585813467623" y="115" text-anchor="middle" dominant-baseline="central" font-size="16" fill="#57606a" font-family="system-ui,sans-serif" font-weight="400" transform="rotate(-90,213.53585813467623,115)">developer tools</text>
  <rect x="227.9326516341286" y="27" width="21.87687217539522" height="176" rx="3" fill="#57606a" opacity="0.25"/>
  <text x="238.8710877218262" y="115" text-anchor="middle" dominant-baseline="central" font-size="16" fill="#57606a" font-family="system-ui,sans-serif" font-weight="400" transform="rotate(-90,238.8710877218262,115)">claude code</text>
  <rect x="256.80952380952385" y="3" width="228.28571428571428" height="202" rx="6" fill="#4e79a7" opacity="0.15" stroke="#4e79a7" stroke-width="1.5"/><path d="M262.80952380952385,3 h216.28571428571428 a6,6 0 0 1 6,6 v16 h-228.28571428571428 v-16 a6,6 0 0 1 6,-6 z" fill="#4e79a7" opacity="0.1"/><line x1="256.80952380952385" y1="25" x2="485.09523809523813" y2="25" stroke="#4e79a7" stroke-width="0.75" opacity="0.45"/><text x="264.80952380952385" y="19" font-size="12" fill="#4e79a7" font-family="system-ui,-apple-system,Segoe UI,Roboto,sans-serif" font-weight="700">AI &amp; Copilot</text>
  <rect x="257.80952380952385" y="27" width="37.316081327797995" height="176" rx="3" fill="#4e79a7" opacity="0.45"/>
  <text x="276.46756447342284" y="115" text-anchor="middle" dominant-baseline="central" font-size="16" fill="#4e79a7" font-family="system-ui,sans-serif" font-weight="600" transform="rotate(-90,276.46756447342284,115)">github copilot</text>
  <rect x="296.1256051373218" y="27" width="29.76793497531414" height="176" rx="3" fill="#4e79a7" opacity="0.36"/>
  <text x="311.0095726249789" y="115" text-anchor="middle" dominant-baseline="central" font-size="16" fill="#4e79a7" font-family="system-ui,sans-serif" font-weight="600" transform="rotate(-90,311.0095726249789,115)">ai assistant</text>
  <rect x="326.89354011263595" y="27" width="29.76793497531414" height="176" rx="3" fill="#4e79a7" opacity="0.36"/>
  <text x="341.777507600293" y="115" text-anchor="middle" dominant-baseline="central" font-size="16" fill="#4e79a7" font-family="system-ui,sans-serif" font-weight="600" transform="rotate(-90,341.777507600293,115)">copilot</text>
  <rect x="357.66147508795007" y="27" width="29.76793497531414" height="176" rx="3" fill="#4e79a7" opacity="0.36"/>
  <text x="372.5454425756071" y="115" text-anchor="middle" dominant-baseline="central" font-size="16" fill="#4e79a7" font-family="system-ui,sans-serif" font-weight="600" transform="rotate(-90,372.5454425756071,115)">ai</text>
  <rect x="388.4294100632642" y="27" width="25.158496898868563" height="176" rx="3" fill="#4e79a7" opacity="0.32"/>
  <text x="401.00865851269845" y="115" text-anchor="middle" dominant-baseline="central" font-size="16" fill="#4e79a7" font-family="system-ui,sans-serif" font-weight="400" transform="rotate(-90,401.00865851269845,115)">claude</text>
  <rect x="414.58790696213276" y="27" width="22.502443711035102" height="176" rx="3" fill="#4e79a7" opacity="0.29"/>
  <text x="425.8391288176503" y="115" text-anchor="middle" dominant-baseline="central" font-size="16" fill="#4e79a7" font-family="system-ui,sans-serif" font-weight="400" transform="rotate(-90,425.8391288176503,115)">responsible ai</text>
  <rect x="438.09035067316785" y="27" width="22.502443711035102" height="176" rx="3" fill="#4e79a7" opacity="0.29"/>
  <text x="449.3415725286854" y="115" text-anchor="middle" dominant-baseline="central" font-size="16" fill="#4e79a7" font-family="system-ui,sans-serif" font-weight="400" transform="rotate(-90,449.3415725286854,115)">azure openai</text>
  <rect x="461.59279438420293" y="27" width="22.5024437110352" height="176" rx="3" fill="#4e79a7" opacity="0.29"/>
  <text x="472.84401623972053" y="115" text-anchor="middle" dominant-baseline="central" font-size="16" fill="#4e79a7" font-family="system-ui,sans-serif" font-weight="400" transform="rotate(-90,472.84401623972053,115)">ai agents</text>
  <rect x="491.0952380952381" y="3" width="122.85714285714286" height="202" rx="6" fill="#f28e2b" opacity="0.15" stroke="#f28e2b" stroke-width="1.5"/><path d="M497.0952380952381,3 h110.85714285714286 a6,6 0 0 1 6,6 v16 h-122.85714285714286 v-16 a6,6 0 0 1 6,-6 z" fill="#f28e2b" opacity="0.1"/><line x1="491.0952380952381" y1="25" x2="613.952380952381" y2="25" stroke="#f28e2b" stroke-width="0.75" opacity="0.45"/><text x="499.0952380952381" y="19" font-size="12" fill="#f28e2b" font-family="system-ui,-apple-system,Segoe UI,Roboto,sans-serif" font-weight="700">Cognitive Archi…</text>
  <rect x="492.0952380952381" y="27" width="24.73609525211917" height="176" rx="3" fill="#f28e2b" opacity="0.45"/>
  <text x="504.46328572129767" y="115" text-anchor="middle" dominant-baseline="central" font-size="13" fill="#f28e2b" font-family="system-ui,sans-serif" font-weight="600" transform="rotate(-90,504.46328572129767,115)">cognitive architecture</text>
  <rect x="517.8313333473573" y="27" width="21.095012910369682" height="176" rx="3" fill="#f28e2b" opacity="0.38"/>
  <text x="528.3788398025421" y="115" text-anchor="middle" dominant-baseline="central" font-size="15" fill="#f28e2b" font-family="system-ui,sans-serif" font-weight="600" transform="rotate(-90,528.3788398025421,115)">agentic</text>
  <rect x="539.9263462577269" y="27" width="12.918004436957315" height="176" rx="3" fill="#f28e2b" opacity="0.27"/>
  <text x="546.3853484762055" y="115" text-anchor="middle" dominant-baseline="central" font-size="9" fill="#f28e2b" font-family="system-ui,sans-serif" font-weight="400" transform="rotate(-90,546.3853484762055,115)">agentic ai</text>
  <rect x="553.8443506946842" y="27" width="12.918004436957315" height="176" rx="3" fill="#f28e2b" opacity="0.27"/>
  <text x="560.3033529131628" y="115" text-anchor="middle" dominant-baseline="central" font-size="9" fill="#f28e2b" font-family="system-ui,sans-serif" font-weight="400" transform="rotate(-90,560.3033529131628,115)">model context protocol</text>
  <rect x="567.7623551316415" y="27" width="10.547506455184841" height="176" rx="3" fill="#f28e2b" opacity="0.25"/>
  <text x="573.0361083592339" y="115" text-anchor="middle" dominant-baseline="central" font-size="7" fill="#f28e2b" font-family="system-ui,sans-serif" font-weight="400" transform="rotate(-90,573.0361083592339,115)">act framework</text>
  <rect x="579.3098615868263" y="27" width="10.547506455184841" height="176" rx="3" fill="#f28e2b" opacity="0.25"/>
  <text x="584.5836148144188" y="115" text-anchor="middle" dominant-baseline="central" font-size="7" fill="#f28e2b" font-family="system-ui,sans-serif" font-weight="400" transform="rotate(-90,584.5836148144188,115)">neuroscience</text>
  <rect x="590.8573680420111" y="27" width="10.547506455184841" height="176" rx="3" fill="#f28e2b" opacity="0.25"/>
  <text x="596.1311212696036" y="115" text-anchor="middle" dominant-baseline="central" font-size="7" fill="#f28e2b" font-family="system-ui,sans-serif" font-weight="400" transform="rotate(-90,596.1311212696036,115)">cognitive science</text>
  <rect x="602.4048744971959" y="27" width="10.547506455185044" height="176" rx="3" fill="#f28e2b" opacity="0.25"/>
  <text x="607.6786277247884" y="115" text-anchor="middle" dominant-baseline="central" font-size="7" fill="#f28e2b" font-family="system-ui,sans-serif" font-weight="400" transform="rotate(-90,607.6786277247884,115)">memory systems</text>
  <rect x="619.952380952381" y="3" width="103.33333333333333" height="202" rx="6" fill="#ff9da7" opacity="0.15" stroke="#ff9da7" stroke-width="1.5"/><path d="M625.952380952381,3 h91.33333333333333 a6,6 0 0 1 6,6 v16 h-103.33333333333333 v-16 a6,6 0 0 1 6,-6 z" fill="#ff9da7" opacity="0.1"/><line x1="619.952380952381" y1="25" x2="723.2857142857143" y2="25" stroke="#ff9da7" stroke-width="0.75" opacity="0.45"/><text x="627.952380952381" y="19" font-size="12" fill="#ff9da7" font-family="system-ui,-apple-system,Segoe UI,Roboto,sans-serif" font-weight="700">Development …</text>
  <rect x="620.952380952381" y="27" width="16.417573875323985" height="176" rx="3" fill="#ff9da7" opacity="0.34"/>
  <text x="629.161167890043" y="115" text-anchor="middle" dominant-baseline="central" font-size="12" fill="#ff9da7" font-family="system-ui,sans-serif" font-weight="600" transform="rotate(-90,629.161167890043,115)">typescript</text>
  <rect x="638.369954827705" y="27" width="14.987125918370756" height="176" rx="3" fill="#ff9da7" opacity="0.32"/>
  <text x="645.8635177868904" y="115" text-anchor="middle" dominant-baseline="central" font-size="11" fill="#ff9da7" font-family="system-ui,sans-serif" font-weight="400" transform="rotate(-90,645.8635177868904,115)">vscode extension</text>
  <rect x="654.3570807460758" y="27" width="13.40489293633039" height="176" rx="3" fill="#ff9da7" opacity="0.29"/>
  <text x="661.059527214241" y="115" text-anchor="middle" dominant-baseline="central" font-size="10" fill="#ff9da7" font-family="system-ui,sans-serif" font-weight="400" transform="rotate(-90,661.059527214241,115)">vscode</text>
  <rect x="668.7619736824062" y="27" width="11.608977817872695" height="176" rx="3" fill="#ff9da7" opacity="0.27"/>
  <text x="674.5664625913425" y="115" text-anchor="middle" dominant-baseline="central" font-size="8" fill="#ff9da7" font-family="system-ui,sans-serif" font-weight="400" transform="rotate(-90,674.5664625913425,115)">react</text>
  <rect x="681.3709515002788" y="27" width="9.478690696358871" height="176" rx="3" fill="#ff9da7" opacity="0.25"/>
  <text x="686.1102968484582" y="115" text-anchor="middle" dominant-baseline="central" font-size="7" fill="#ff9da7" font-family="system-ui,sans-serif" font-weight="400" transform="rotate(-90,686.1102968484582,115)">markdown</text>
  <rect x="691.8496421966377" y="27" width="9.478690696358871" height="176" rx="3" fill="#ff9da7" opacity="0.25"/>
  <text x="696.5889875448171" y="115" text-anchor="middle" dominant-baseline="central" font-size="7" fill="#ff9da7" font-family="system-ui,sans-serif" font-weight="400" transform="rotate(-90,696.5889875448171,115)">portfolio</text>
  <rect x="702.3283328929965" y="27" width="9.478690696358871" height="176" rx="3" fill="#ff9da7" opacity="0.25"/>
  <text x="707.0676782411759" y="115" text-anchor="middle" dominant-baseline="central" font-size="7" fill="#ff9da7" font-family="system-ui,sans-serif" font-weight="400" transform="rotate(-90,707.0676782411759,115)">template</text>
  <rect x="712.8070235893554" y="27" width="9.478690696358967" height="176" rx="3" fill="#ff9da7" opacity="0.25"/>
  <text x="717.5463689375349" y="115" text-anchor="middle" dominant-baseline="central" font-size="7" fill="#ff9da7" font-family="system-ui,sans-serif" font-weight="400" transform="rotate(-90,717.5463689375349,115)">astro</text>
  <rect x="729.2857142857143" y="3" width="87.71428571428567" height="202" rx="6" fill="#59a14f" opacity="0.15" stroke="#59a14f" stroke-width="1.5"/><path d="M735.2857142857143,3 h75.71428571428567 a6,6 0 0 1 6,6 v16 h-87.71428571428567 v-16 a6,6 0 0 1 6,-6 z" fill="#59a14f" opacity="0.1"/><line x1="729.2857142857143" y1="25" x2="817" y2="25" stroke="#59a14f" stroke-width="0.75" opacity="0.45"/><text x="737.2857142857143" y="19" font-size="12" fill="#59a14f" font-family="system-ui,-apple-system,Segoe UI,Roboto,sans-serif" font-weight="700">Agent &amp; Sk…</text>
  <rect x="730.2857142857143" y="27" width="20.522178008066476" height="176" rx="3" fill="#59a14f" opacity="0.43"/>
  <text x="740.5468032897476" y="115" text-anchor="middle" dominant-baseline="central" font-size="15" fill="#59a14f" font-family="system-ui,sans-serif" font-weight="600" transform="rotate(-90,740.5468032897476,115)">agent</text>
  <rect x="751.8078922937808" y="27" width="11.240459824154444" height="176" rx="3" fill="#59a14f" opacity="0.27"/>
  <text x="757.428122205858" y="115" text-anchor="middle" dominant-baseline="central" font-size="8" fill="#59a14f" font-family="system-ui,sans-serif" font-weight="400" transform="rotate(-90,757.428122205858,115)">agent skills</text>
  <rect x="764.0483521179352" y="27" width="11.240459824154444" height="176" rx="3" fill="#59a14f" opacity="0.27"/>
  <text x="769.6685820300124" y="115" text-anchor="middle" dominant-baseline="central" font-size="8" fill="#59a14f" font-family="system-ui,sans-serif" font-weight="400" transform="rotate(-90,769.6685820300124,115)">skills</text>
  <rect x="776.2888119420896" y="27" width="9.177797014477573" height="176" rx="3" fill="#59a14f" opacity="0.25"/>
  <text x="780.8777104493284" y="115" text-anchor="middle" dominant-baseline="central" font-size="6" fill="#59a14f" font-family="system-ui,sans-serif" font-weight="400" transform="rotate(-90,780.8777104493284,115)">claude skills</text>
  <rect x="786.4666089565673" y="27" width="9.177797014477573" height="176" rx="3" fill="#59a14f" opacity="0.25"/>
  <text x="791.0555074638061" y="115" text-anchor="middle" dominant-baseline="central" font-size="6" fill="#59a14f" font-family="system-ui,sans-serif" font-weight="400" transform="rotate(-90,791.0555074638061,115)">copilot skills</text>
  <rect x="796.6444059710449" y="27" width="9.177797014477573" height="176" rx="3" fill="#59a14f" opacity="0.25"/>
  <text x="801.2333044782837" y="115" text-anchor="middle" dominant-baseline="central" font-size="6" fill="#59a14f" font-family="system-ui,sans-serif" font-weight="400" transform="rotate(-90,801.2333044782837,115)">cursor skills</text>
  <rect x="806.8222029855225" y="27" width="9.177797014477505" height="176" rx="3" fill="#59a14f" opacity="0.25"/>
  <text x="811.4111014927612" y="115" text-anchor="middle" dominant-baseline="central" font-size="6" fill="#59a14f" font-family="system-ui,sans-serif" font-weight="400" transform="rotate(-90,811.4111014927612,115)">ai coaching</text>
  <rect x="3" y="211" width="251.71428571428572" height="202" rx="6" fill="#76b7b2" opacity="0.15" stroke="#76b7b2" stroke-width="1.5"/><path d="M9,211 h239.71428571428572 a6,6 0 0 1 6,6 v16 h-251.71428571428572 v-16 a6,6 0 0 1 6,-6 z" fill="#76b7b2" opacity="0.1"/><line x1="3" y1="233" x2="254.71428571428572" y2="233" stroke="#76b7b2" stroke-width="0.75" opacity="0.45"/><text x="11" y="227" font-size="12" fill="#76b7b2" font-family="system-ui,-apple-system,Segoe UI,Roboto,sans-serif" font-weight="700">Cloud &amp; Azure</text>
  <rect x="4" y="235" width="58.48754176469088" height="176" rx="3" fill="#76b7b2" opacity="0.36"/>
  <text x="33.243770882345444" y="323" text-anchor="middle" dominant-baseline="central" font-size="16" fill="#76b7b2" font-family="system-ui,sans-serif" font-weight="600" transform="rotate(-90,33.243770882345444,323)">azure</text>
  <rect x="63.48754176469088" y="235" width="54.14894175203737" height="176" rx="3" fill="#76b7b2" opacity="0.34"/>
  <text x="90.56201264070957" y="323" text-anchor="middle" dominant-baseline="central" font-size="16" fill="#76b7b2" font-family="system-ui,sans-serif" font-weight="600" transform="rotate(-90,90.56201264070957,323)">mcp</text>
  <rect x="118.63648351672825" y="235" width="38.289083906941" height="176" rx="3" fill="#76b7b2" opacity="0.27"/>
  <text x="137.78102547019876" y="323" text-anchor="middle" dominant-baseline="central" font-size="16" fill="#76b7b2" font-family="system-ui,sans-serif" font-weight="400" transform="rotate(-90,137.78102547019876,323)">azure functions</text>
  <rect x="157.92556742366924" y="235" width="31.262906096872147" height="176" rx="3" fill="#76b7b2" opacity="0.25"/>
  <text x="173.5570204721053" y="323" text-anchor="middle" dominant-baseline="central" font-size="16" fill="#76b7b2" font-family="system-ui,sans-serif" font-weight="400" transform="rotate(-90,173.5570204721053,323)">serverless</text>
  <rect x="190.18847352054138" y="235" width="31.262906096872147" height="176" rx="3" fill="#76b7b2" opacity="0.25"/>
  <text x="205.81992656897745" y="323" text-anchor="middle" dominant-baseline="central" font-size="16" fill="#76b7b2" font-family="system-ui,sans-serif" font-weight="400" transform="rotate(-90,205.81992656897745,323)">devops</text>
  <rect x="222.45137961741352" y="235" width="31.2629060968722" height="176" rx="3" fill="#76b7b2" opacity="0.25"/>
  <text x="238.08283266584962" y="323" text-anchor="middle" dominant-baseline="central" font-size="16" fill="#76b7b2" font-family="system-ui,sans-serif" font-weight="400" transform="rotate(-90,238.08283266584962,323)">nodejs</text>
  <rect x="260.7142857142857" y="211" width="193.14285714285714" height="202" rx="6" fill="#e15759" opacity="0.15" stroke="#e15759" stroke-width="1.5"/><path d="M266.7142857142857,211 h181.14285714285714 a6,6 0 0 1 6,6 v16 h-193.14285714285714 v-16 a6,6 0 0 1 6,-6 z" fill="#e15759" opacity="0.1"/><line x1="260.7142857142857" y1="233" x2="453.8571428571429" y2="233" stroke="#e15759" stroke-width="0.75" opacity="0.45"/><text x="268.7142857142857" y="227" font-size="12" fill="#e15759" font-family="system-ui,-apple-system,Segoe UI,Roboto,sans-serif" font-weight="700">Learning &amp; Research</text>
  <rect x="261.7142857142857" y="235" width="29.547280759657003" height="176" rx="3" fill="#e15759" opacity="0.27"/>
  <text x="276.48792609411424" y="323" text-anchor="middle" dominant-baseline="central" font-size="16" fill="#e15759" font-family="system-ui,sans-serif" font-weight="400" transform="rotate(-90,276.48792609411424,323)">learning</text>
  <rect x="292.2615664739427" y="235" width="29.547280759657003" height="176" rx="3" fill="#e15759" opacity="0.27"/>
  <text x="307.03520685377123" y="323" text-anchor="middle" dominant-baseline="central" font-size="16" fill="#e15759" font-family="system-ui,sans-serif" font-weight="400" transform="rotate(-90,307.03520685377123,323)">tutorial</text>
  <rect x="322.8088472335997" y="235" width="29.547280759657003" height="176" rx="3" fill="#e15759" opacity="0.27"/>
  <text x="337.5824876134282" y="323" text-anchor="middle" dominant-baseline="central" font-size="16" fill="#e15759" font-family="system-ui,sans-serif" font-weight="400" transform="rotate(-90,337.5824876134282,323)">utaut2</text>
  <rect x="353.3561279932567" y="235" width="24.125253715971528" height="176" rx="3" fill="#e15759" opacity="0.25"/>
  <text x="365.41875485124245" y="323" text-anchor="middle" dominant-baseline="central" font-size="16" fill="#e15759" font-family="system-ui,sans-serif" font-weight="400" transform="rotate(-90,365.41875485124245,323)">education</text>
  <rect x="378.48138170922823" y="235" width="24.125253715971528" height="176" rx="3" fill="#e15759" opacity="0.25"/>
  <text x="390.544008567214" y="323" text-anchor="middle" dominant-baseline="central" font-size="12" fill="#e15759" font-family="system-ui,sans-serif" font-weight="400" transform="rotate(-90,390.544008567214,323)">professional development</text>
  <rect x="403.6066354251998" y="235" width="24.125253715971528" height="176" rx="3" fill="#e15759" opacity="0.25"/>
  <text x="415.66926228318556" y="323" text-anchor="middle" dominant-baseline="central" font-size="16" fill="#e15759" font-family="system-ui,sans-serif" font-weight="400" transform="rotate(-90,415.66926228318556,323)">research</text>
  <rect x="428.73188914117134" y="235" width="24.125253715971553" height="176" rx="3" fill="#e15759" opacity="0.25"/>
  <text x="440.7945159991571" y="323" text-anchor="middle" dominant-baseline="central" font-size="16" fill="#e15759" font-family="system-ui,sans-serif" font-weight="400" transform="rotate(-90,440.7945159991571,323)">academic research</text>
  <rect x="459.8571428571429" y="211" width="181.42857142857142" height="202" rx="6" fill="#b07aa1" opacity="0.15" stroke="#b07aa1" stroke-width="1.5"/><path d="M465.8571428571429,211 h169.42857142857142 a6,6 0 0 1 6,6 v16 h-181.42857142857142 v-16 a6,6 0 0 1 6,-6 z" fill="#b07aa1" opacity="0.1"/><line x1="459.8571428571429" y1="233" x2="641.2857142857143" y2="233" stroke="#b07aa1" stroke-width="0.75" opacity="0.45"/><text x="467.8571428571429" y="227" font-size="12" fill="#b07aa1" font-family="system-ui,-apple-system,Segoe UI,Roboto,sans-serif" font-weight="700">AI Adoption &amp; Governance</text>
  <rect x="460.8571428571429" y="235" width="28.512792250728907" height="176" rx="3" fill="#b07aa1" opacity="0.27"/>
  <text x="475.11353898250735" y="323" text-anchor="middle" dominant-baseline="central" font-size="16" fill="#b07aa1" font-family="system-ui,sans-serif" font-weight="400" transform="rotate(-90,475.11353898250735,323)">ai adoption</text>
  <rect x="490.3699351078718" y="235" width="28.512792250728907" height="176" rx="3" fill="#b07aa1" opacity="0.27"/>
  <text x="504.6263312332363" y="323" text-anchor="middle" dominant-baseline="central" font-size="16" fill="#b07aa1" font-family="system-ui,sans-serif" font-weight="400" transform="rotate(-90,504.6263312332363,323)">ai governance</text>
  <rect x="519.8827273586007" y="235" width="23.28059738542272" height="176" rx="3" fill="#b07aa1" opacity="0.25"/>
  <text x="531.5230260513121" y="323" text-anchor="middle" dominant-baseline="central" font-size="13" fill="#b07aa1" font-family="system-ui,sans-serif" font-weight="400" transform="rotate(-90,531.5230260513121,323)">human ai collaboration</text>
  <rect x="544.1633247440235" y="235" width="23.28059738542272" height="176" rx="3" fill="#b07aa1" opacity="0.25"/>
  <text x="555.8036234367348" y="323" text-anchor="middle" dominant-baseline="central" font-size="16" fill="#b07aa1" font-family="system-ui,sans-serif" font-weight="400" transform="rotate(-90,555.8036234367348,323)">governance</text>
  <rect x="568.4439221294463" y="235" width="23.28059738542272" height="176" rx="3" fill="#b07aa1" opacity="0.25"/>
  <text x="580.0842208221576" y="323" text-anchor="middle" dominant-baseline="central" font-size="16" fill="#b07aa1" font-family="system-ui,sans-serif" font-weight="400" transform="rotate(-90,580.0842208221576,323)">accessibility</text>
  <rect x="592.724519514869" y="235" width="23.28059738542272" height="176" rx="3" fill="#b07aa1" opacity="0.25"/>
  <text x="604.3648182075804" y="323" text-anchor="middle" dominant-baseline="central" font-size="16" fill="#b07aa1" font-family="system-ui,sans-serif" font-weight="400" transform="rotate(-90,604.3648182075804,323)">healthcare</text>
  <rect x="617.0051169002918" y="235" width="23.28059738542254" height="176" rx="3" fill="#b07aa1" opacity="0.25"/>
  <text x="628.645415593003" y="323" text-anchor="middle" dominant-baseline="central" font-size="16" fill="#b07aa1" font-family="system-ui,sans-serif" font-weight="400" transform="rotate(-90,628.645415593003,323)">multilingual</text>
  <rect x="647.2857142857143" y="211" width="169.71428571428567" height="202" rx="6" fill="#edc948" opacity="0.15" stroke="#edc948" stroke-width="1.5"/><path d="M653.2857142857143,211 h157.71428571428567 a6,6 0 0 1 6,6 v16 h-169.71428571428567 v-16 a6,6 0 0 1 6,-6 z" fill="#edc948" opacity="0.1"/><line x1="647.2857142857143" y1="233" x2="817" y2="233" stroke="#edc948" stroke-width="0.75" opacity="0.45"/><text x="655.2857142857143" y="227" font-size="12" fill="#edc948" font-family="system-ui,-apple-system,Segoe UI,Roboto,sans-serif" font-weight="700">Data Engineering</text>
  <rect x="648.2857142857143" y="235" width="29.858627760474278" height="176" rx="3" fill="#edc948" opacity="0.27"/>
  <text x="663.2150281659515" y="323" text-anchor="middle" dominant-baseline="central" font-size="16" fill="#edc948" font-family="system-ui,sans-serif" font-weight="400" transform="rotate(-90,663.2150281659515,323)">dashboard</text>
  <rect x="679.1443420461886" y="235" width="29.858627760474278" height="176" rx="3" fill="#edc948" opacity="0.27"/>
  <text x="694.0736559264258" y="323" text-anchor="middle" dominant-baseline="central" font-size="16" fill="#edc948" font-family="system-ui,sans-serif" font-weight="400" transform="rotate(-90,694.0736559264258,323)">fleet</text>
  <rect x="710.0029698066629" y="235" width="29.858627760474278" height="176" rx="3" fill="#edc948" opacity="0.27"/>
  <text x="724.9322836869001" y="323" text-anchor="middle" dominant-baseline="central" font-size="16" fill="#edc948" font-family="system-ui,sans-serif" font-weight="400" transform="rotate(-90,724.9322836869001,323)">spotify api</text>
  <rect x="740.8615975671372" y="235" width="24.37946747762094" height="176" rx="3" fill="#edc948" opacity="0.25"/>
  <text x="753.0513313059477" y="323" text-anchor="middle" dominant-baseline="central" font-size="16" fill="#edc948" font-family="system-ui,sans-serif" font-weight="400" transform="rotate(-90,753.0513313059477,323)">pdf</text>
  <rect x="766.2410650447581" y="235" width="24.37946747762094" height="176" rx="3" fill="#edc948" opacity="0.25"/>
  <text x="778.4307987835685" y="323" text-anchor="middle" dominant-baseline="central" font-size="16" fill="#edc948" font-family="system-ui,sans-serif" font-weight="400" transform="rotate(-90,778.4307987835685,323)">svg</text>
  <rect x="791.620532522379" y="235" width="24.379467477621006" height="176" rx="3" fill="#edc948" opacity="0.25"/>
  <text x="803.8102662611896" y="323" text-anchor="middle" dominant-baseline="central" font-size="16" fill="#edc948" font-family="system-ui,sans-serif" font-weight="400" transform="rotate(-90,803.8102662611896,323)">youtube api</text>
</g>
<g transform="translate(0, 639)">
<title>Portfolio at a Glance</title>
<rect width="820" height="270" fill="none"/>
<rect x="3" y="3" width="328.82" height="264" rx="6" fill="#0969da" opacity="0.15" stroke="#0969da" stroke-width="1.5"/><path d="M9,3 h316.82 a6,6 0 0 1 6,6 v26 h-328.82 v-26 a6,6 0 0 1 6,-6 z" fill="#0969da" opacity="0.1"/><line x1="3" y1="35" x2="331.82" y2="35" stroke="#0969da" stroke-width="0.75" opacity="0.45"/><text x="11" y="19" font-size="12" fill="#0969da" font-family="system-ui,-apple-system,Segoe UI,Roboto,sans-serif" font-weight="700">Top Languages</text><text x="11" y="31" font-size="9" fill="#0969da" opacity="0.95" font-weight="600" font-family="system-ui,-apple-system,Segoe UI,Roboto,sans-serif">By lines of code</text>
<g transform="translate(11, 41)">
<text x="4" y="28" font-size="11" fill="#0969da" font-family="system-ui,-apple-system,Segoe UI,Roboto,sans-serif">Python</text><rect x="137.3844" y="15" width="175.4356" height="18" rx="3" fill="#0969da" opacity="0.12"/><rect x="137.3844" y="15" width="129" height="18" rx="3" fill="#0969da" opacity="0.55"/><text x="271.3844" y="28" font-size="10" fill="#0969da" font-weight="700" font-family="system-ui,-apple-system,Segoe UI,Roboto,sans-serif">73.6%</text><text x="4" y="62" font-size="11" fill="#0969da" font-family="system-ui,-apple-system,Segoe UI,Roboto,sans-serif">JavaScript</text><rect x="137.3844" y="49" width="175.4356" height="18" rx="3" fill="#0969da" opacity="0.12"/><rect x="137.3844" y="49" width="16" height="18" rx="3" fill="#0969da" opacity="0.55"/><text x="158.3844" y="62" font-size="10" fill="#0969da" font-weight="700" font-family="system-ui,-apple-system,Segoe UI,Roboto,sans-serif">9.3%</text><text x="4" y="96" font-size="11" fill="#0969da" font-family="system-ui,-apple-system,Segoe UI,Roboto,sans-serif">TypeScript</text><rect x="137.3844" y="83" width="175.4356" height="18" rx="3" fill="#0969da" opacity="0.12"/><rect x="137.3844" y="83" width="12" height="18" rx="3" fill="#0969da" opacity="0.55"/><text x="154.3844" y="96" font-size="10" fill="#0969da" font-weight="700" font-family="system-ui,-apple-system,Segoe UI,Roboto,sans-serif">6.6%</text><text x="4" y="130" font-size="11" fill="#0969da" font-family="system-ui,-apple-system,Segoe UI,Roboto,sans-serif">Jupyter Notebook</text><rect x="137.3844" y="117" width="175.4356" height="18" rx="3" fill="#0969da" opacity="0.12"/><rect x="137.3844" y="117" width="9" height="18" rx="3" fill="#0969da" opacity="0.55"/><text x="151.3844" y="130" font-size="10" fill="#0969da" font-weight="700" font-family="system-ui,-apple-system,Segoe UI,Roboto,sans-serif">5.3%</text><text x="4" y="164" font-size="11" fill="#0969da" font-family="system-ui,-apple-system,Segoe UI,Roboto,sans-serif">Cython</text><rect x="137.3844" y="151" width="175.4356" height="18" rx="3" fill="#0969da" opacity="0.12"/><rect x="137.3844" y="151" width="3" height="18" rx="3" fill="#0969da" opacity="0.55"/><text x="145.3844" y="164" font-size="10" fill="#0969da" font-weight="700" font-family="system-ui,-apple-system,Segoe UI,Roboto,sans-serif">1.7%</text><text x="4" y="198" font-size="11" fill="#0969da" font-family="system-ui,-apple-system,Segoe UI,Roboto,sans-serif">PowerShell</text><rect x="137.3844" y="185" width="175.4356" height="18" rx="3" fill="#0969da" opacity="0.12"/><rect x="137.3844" y="185" width="2" height="18" rx="3" fill="#0969da" opacity="0.55"/><text x="144.3844" y="198" font-size="10" fill="#0969da" font-weight="700" font-family="system-ui,-apple-system,Segoe UI,Roboto,sans-serif">1.0%</text>
</g>
<rect x="337.82" y="3" width="144.35999999999999" height="264" rx="6" fill="#9a6700" opacity="0.15" stroke="#9a6700" stroke-width="1.5"/><path d="M343.82,3 h132.35999999999999 a6,6 0 0 1 6,6 v26 h-144.35999999999999 v-26 a6,6 0 0 1 6,-6 z" fill="#9a6700" opacity="0.1"/><line x1="337.82" y1="35" x2="482.17999999999995" y2="35" stroke="#9a6700" stroke-width="0.75" opacity="0.45"/><text x="345.82" y="19" font-size="12" fill="#9a6700" font-family="system-ui,-apple-system,Segoe UI,Roboto,sans-serif" font-weight="700">Tier &amp; Activity</text><text x="345.82" y="31" font-size="9" fill="#9a6700" opacity="0.95" font-weight="600" font-family="system-ui,-apple-system,Segoe UI,Roboto,sans-serif">Portfolio composition</text>
<text x="345.82" y="52" font-size="9" font-weight="700" fill="#9a6700" opacity="0.7" letter-spacing="0.6" font-family="system-ui,-apple-system,Segoe UI,Roboto,sans-serif">TIERS</text>
<g><text x="345.82" y="69" font-size="11">🏆</text><text x="365.82" y="69" font-size="11" fill="#9a6700" font-weight="600" font-family="system-ui,-apple-system,Segoe UI,Roboto,sans-serif">Flagship</text><text x="470.17999999999995" y="69" font-size="12" fill="#9a6700" font-weight="700" font-family="system-ui,-apple-system,Segoe UI,Roboto,sans-serif" text-anchor="end">21</text><text x="345.82" y="91" font-size="11">⭐</text><text x="365.82" y="91" font-size="11" fill="#9a6700" font-weight="600" font-family="system-ui,-apple-system,Segoe UI,Roboto,sans-serif">Notable</text><text x="470.17999999999995" y="91" font-size="12" fill="#9a6700" font-weight="700" font-family="system-ui,-apple-system,Segoe UI,Roboto,sans-serif" text-anchor="end">38</text><text x="345.82" y="113" font-size="11">🤖</text><text x="365.82" y="113" font-size="11" fill="#9a6700" font-weight="600" font-family="system-ui,-apple-system,Segoe UI,Roboto,sans-serif">Agents</text><text x="470.17999999999995" y="113" font-size="12" fill="#9a6700" font-weight="700" font-family="system-ui,-apple-system,Segoe UI,Roboto,sans-serif" text-anchor="end">74</text><text x="345.82" y="135" font-size="11">🪦</text><text x="365.82" y="135" font-size="11" fill="#9a6700" font-weight="600" font-family="system-ui,-apple-system,Segoe UI,Roboto,sans-serif">Archived</text><text x="470.17999999999995" y="135" font-size="12" fill="#9a6700" font-weight="700" font-family="system-ui,-apple-system,Segoe UI,Roboto,sans-serif" text-anchor="end">14</text></g>
<text x="345.82" y="162" font-size="9" font-weight="700" fill="#9a6700" opacity="0.7" letter-spacing="0.6" font-family="system-ui,-apple-system,Segoe UI,Roboto,sans-serif">ACTIVITY</text>
<g><text x="345.82" y="179" font-size="11">⭐</text><text x="365.82" y="179" font-size="11" fill="#9a6700" font-weight="600" font-family="system-ui,-apple-system,Segoe UI,Roboto,sans-serif">Stars</text><text x="470.17999999999995" y="179" font-size="12" fill="#9a6700" font-weight="700" font-family="system-ui,-apple-system,Segoe UI,Roboto,sans-serif" text-anchor="end">26</text><text x="345.82" y="201" font-size="11">🚀</text><text x="365.82" y="201" font-size="11" fill="#9a6700" font-weight="600" font-family="system-ui,-apple-system,Segoe UI,Roboto,sans-serif">Active &lt;30d</text><text x="470.17999999999995" y="201" font-size="12" fill="#9a6700" font-weight="700" font-family="system-ui,-apple-system,Segoe UI,Roboto,sans-serif" text-anchor="end">30</text><text x="345.82" y="223" font-size="11">📂</text><text x="365.82" y="223" font-size="11" fill="#9a6700" font-weight="600" font-family="system-ui,-apple-system,Segoe UI,Roboto,sans-serif">Public</text><text x="470.17999999999995" y="223" font-size="12" fill="#9a6700" font-weight="700" font-family="system-ui,-apple-system,Segoe UI,Roboto,sans-serif" text-anchor="end">34</text><text x="345.82" y="245" font-size="11">🔒</text><text x="365.82" y="245" font-size="11" fill="#9a6700" font-weight="600" font-family="system-ui,-apple-system,Segoe UI,Roboto,sans-serif">Private</text><text x="470.17999999999995" y="245" font-size="12" fill="#9a6700" font-weight="700" font-family="system-ui,-apple-system,Segoe UI,Roboto,sans-serif" text-anchor="end">45</text></g>
<rect x="488.17999999999995" y="3" width="328.82" height="264" rx="6" fill="#8250df" opacity="0.15" stroke="#8250df" stroke-width="1.5"/><path d="M494.17999999999995,3 h316.82 a6,6 0 0 1 6,6 v26 h-328.82 v-26 a6,6 0 0 1 6,-6 z" fill="#8250df" opacity="0.1"/><line x1="488.17999999999995" y1="35" x2="817" y2="35" stroke="#8250df" stroke-width="0.75" opacity="0.45"/><text x="496.17999999999995" y="19" font-size="12" fill="#8250df" font-family="system-ui,-apple-system,Segoe UI,Roboto,sans-serif" font-weight="700">Top Themes</text><text x="496.17999999999995" y="31" font-size="9" fill="#8250df" opacity="0.95" font-weight="600" font-family="system-ui,-apple-system,Segoe UI,Roboto,sans-serif">Topic clusters</text>
<g transform="translate(496.17999999999995, 41)">
<text x="4" y="28" font-size="11" fill="#8250df" font-family="system-ui,-apple-system,Segoe UI,Roboto,sans-serif">AI &amp; Copilot</text><rect x="137.3844" y="15" width="175.4356" height="18" rx="3" fill="#8250df" opacity="0.12"/><rect x="137.3844" y="15" width="129" height="18" rx="3" fill="#8250df" opacity="0.55"/><text x="271.3844" y="28" font-size="10" fill="#8250df" font-weight="700" font-family="system-ui,-apple-system,Segoe UI,Roboto,sans-serif">29</text><text x="4" y="56" font-size="11" fill="#8250df" font-family="system-ui,-apple-system,Segoe UI,Roboto,sans-serif">Cognitive<tspan x="4" dy="12">Architecture</tspan></text><rect x="137.3844" y="49" width="175.4356" height="18" rx="3" fill="#8250df" opacity="0.12"/><rect x="137.3844" y="49" width="98" height="18" rx="3" fill="#8250df" opacity="0.55"/><text x="240.3844" y="62" font-size="10" fill="#8250df" font-weight="700" font-family="system-ui,-apple-system,Segoe UI,Roboto,sans-serif">22</text><text x="4" y="96" font-size="11" fill="#8250df" font-family="system-ui,-apple-system,Segoe UI,Roboto,sans-serif">Development Tools</text><rect x="137.3844" y="83" width="175.4356" height="18" rx="3" fill="#8250df" opacity="0.12"/><rect x="137.3844" y="83" width="85" height="18" rx="3" fill="#8250df" opacity="0.55"/><text x="227.3844" y="96" font-size="10" fill="#8250df" font-weight="700" font-family="system-ui,-apple-system,Segoe UI,Roboto,sans-serif">19</text><text x="4" y="130" font-size="11" fill="#8250df" font-family="system-ui,-apple-system,Segoe UI,Roboto,sans-serif">Agent &amp; Skills</text><rect x="137.3844" y="117" width="175.4356" height="18" rx="3" fill="#8250df" opacity="0.12"/><rect x="137.3844" y="117" width="71" height="18" rx="3" fill="#8250df" opacity="0.55"/><text x="213.3844" y="130" font-size="10" fill="#8250df" font-weight="700" font-family="system-ui,-apple-system,Segoe UI,Roboto,sans-serif">16</text><text x="4" y="164" font-size="11" fill="#8250df" font-family="system-ui,-apple-system,Segoe UI,Roboto,sans-serif">Data Engineering</text><rect x="137.3844" y="151" width="175.4356" height="18" rx="3" fill="#8250df" opacity="0.12"/><rect x="137.3844" y="151" width="62" height="18" rx="3" fill="#8250df" opacity="0.55"/><text x="204.3844" y="164" font-size="10" fill="#8250df" font-weight="700" font-family="system-ui,-apple-system,Segoe UI,Roboto,sans-serif">14</text><text x="4" y="192" font-size="11" fill="#8250df" font-family="system-ui,-apple-system,Segoe UI,Roboto,sans-serif">AI Adoption &amp;<tspan x="4" dy="12">Governance</tspan></text><rect x="137.3844" y="185" width="175.4356" height="18" rx="3" fill="#8250df" opacity="0.12"/><rect x="137.3844" y="185" width="62" height="18" rx="3" fill="#8250df" opacity="0.55"/><text x="204.3844" y="198" font-size="10" fill="#8250df" font-weight="700" font-family="system-ui,-apple-system,Segoe UI,Roboto,sans-serif">14</text>
</g>
</g>
<text x="410" y="935" text-anchor="middle" font-family="Segoe UI, system-ui, sans-serif" font-size="13"><tspan font-weight="700" fill="#1f2328" >79</tspan><tspan fill="#64748b" dx="4">repositories across 10 categories</tspan><tspan fill="#64748b" dx="6">·</tspan><tspan font-weight="700" fill="#1f2328" dx="6">65</tspan><tspan fill="#64748b" dx="4">actively maintained</tspan><tspan fill="#64748b" dx="6">·</tspan><tspan font-weight="700" fill="#1f2328" dx="6">21</tspan><tspan fill="#64748b" dx="4">flagships</tspan></text>
</svg>