<svg xmlns="http://www.w3.org/2000/svg" viewBox="0 0 820 947" width="100%" preserveAspectRatio="xMidYMid meet" role="img" aria-label="Portfolio">
<title>Portfolio</title>
<g transform="translate(0, 0) scale(0.683333)">
<defs>
    <!-- Background gradient - deep space theme -->
    <linearGradient id="bgGrad" x1="0%" y1="0%" x2="100%" y2="100%">
      <stop offset="0%" stop-color="#020617"/>
      <stop offset="50%" stop-color="#0f172a"/>
      <stop offset="100%" stop-color="#1e293b"/>
    </linearGradient>

    <!-- Logo gradient with Azure blue -->
    <linearGradient id="logoGrad" x1="0%" y1="0%" x2="100%" y2="100%">
      <stop offset="0%" stop-color="#00bcf2"/>
      <stop offset="50%" stop-color="#0078d4"/>
      <stop offset="100%" stop-color="#005a9e"/>
    </linearGradient>

    <!-- Name gradient -->
    <linearGradient id="nameGrad" x1="0%" y1="0%" x2="100%" y2="0%">
      <stop offset="0%" stop-color="#f8fafc"/>
      <stop offset="50%" stop-color="#e2e8f0"/>
      <stop offset="100%" stop-color="#f8fafc"/>
    </linearGradient>

    <!-- Accent text gradient -->
    <linearGradient id="accentTextGrad" x1="0%" y1="0%" x2="100%" y2="0%">
      <stop offset="0%" stop-color="#00bcf2"/>
      <stop offset="50%" stop-color="#0078d4"/>
      <stop offset="100%" stop-color="#00bcf2"/>
    </linearGradient>

    <!-- Glow filter -->
    <filter id="glow" x="-50%" y="-50%" width="200%" height="200%">
      <feGaussianBlur stdDeviation="3" result="coloredBlur"/>
      <feMerge>
        <feMergeNode in="coloredBlur"/>
        <feMergeNode in="SourceGraphic"/>
      </feMerge>
    </filter>

    <!-- Strong glow for logo -->
    <filter id="logoGlow" x="-100%" y="-100%" width="300%" height="300%">
      <feGaussianBlur stdDeviation="6" result="blur1"/>
      <feGaussianBlur stdDeviation="12" result="blur2"/>
      <feMerge>
        <feMergeNode in="blur2"/>
        <feMergeNode in="blur1"/>
        <feMergeNode in="SourceGraphic"/>
      </feMerge>
    </filter>

    <!-- Radial glow behind logo -->
    <radialGradient id="logoBackGlow" cx="50%" cy="50%" r="50%">
      <stop offset="0%" stop-color="#0078d4" stop-opacity="0.4"/>
      <stop offset="50%" stop-color="#0078d4" stop-opacity="0.1"/>
      <stop offset="100%" stop-color="#0078d4" stop-opacity="0"/>
    </radialGradient>

    <!-- Grid pattern -->
    <pattern id="grid" width="50" height="50" patternUnits="userSpaceOnUse">
      <path d="M 50 0 L 0 0 0 50" fill="none" stroke="#1e3a5f" stroke-width="0.5" opacity="0.4"/>
    </pattern>

    <!-- Dot pattern -->
    <pattern id="dots" width="30" height="30" patternUnits="userSpaceOnUse">
      <circle cx="15" cy="15" r="1" fill="#0078d4" opacity="0.2"/>
    </pattern>

    <!-- Gradient for accent line -->
    <linearGradient id="accentGrad" x1="0%" y1="0%" x2="100%" y2="0%">
      <stop offset="0%" stop-color="#005a9e"/>
      <stop offset="25%" stop-color="#0078d4"/>
      <stop offset="50%" stop-color="#00bcf2"/>
      <stop offset="75%" stop-color="#0078d4"/>
      <stop offset="100%" stop-color="#005a9e"/>
    </linearGradient>

    <!-- Neural network gradient -->
    <linearGradient id="neuralGrad" x1="0%" y1="0%" x2="100%" y2="100%">
      <stop offset="0%" stop-color="#7c3aed"/>
      <stop offset="50%" stop-color="#0078d4"/>
      <stop offset="100%" stop-color="#00bcf2"/>
    </linearGradient>
  </defs>

  <!-- Background -->
  <rect width="1200" height="300" fill="url(#bgGrad)"/>

  <!-- Grid overlay -->
  <rect width="1200" height="300" fill="url(#grid)"/>

  <!-- Dot pattern overlay -->
  <rect width="1200" height="300" fill="url(#dots)" opacity="0.5"/>

  <!-- Large decorative orbs -->
  <circle cx="150" cy="150" r="180" fill="url(#logoBackGlow)"/>
  <circle cx="1050" cy="80" r="150" fill="#0078d4" opacity="0.05"/>
  <circle cx="1150" cy="280" r="180" fill="#00bcf2" opacity="0.03"/>
  <circle cx="50" cy="250" r="100" fill="#7c3aed" opacity="0.06"/>

  <!-- Neural network nodes - cognitive theme -->
  <g opacity="0.4">
    <!-- Left side neural cluster -->
    <circle cx="80" cy="60" r="4" fill="#7c3aed"/>
    <circle cx="120" cy="40" r="3" fill="#0078d4"/>
    <circle cx="60" cy="100" r="3" fill="#00bcf2"/>
    <circle cx="140" cy="90" r="2" fill="#7c3aed"/>
    <line x1="80" y1="60" x2="120" y2="40" stroke="#7c3aed" stroke-width="1"/>
    <line x1="80" y1="60" x2="60" y2="100" stroke="#0078d4" stroke-width="1"/>
    <line x1="120" y1="40" x2="140" y2="90" stroke="#00bcf2" stroke-width="0.5"/>

    <!-- Right side neural cluster -->
    <circle cx="1100" cy="70" r="3" fill="#00bcf2"/>
    <circle cx="1140" cy="50" r="2" fill="#0078d4"/>
    <circle cx="1080" cy="100" r="4" fill="#7c3aed"/>
    <circle cx="1120" cy="120" r="2" fill="#0078d4"/>
    <line x1="1100" y1="70" x2="1140" y2="50" stroke="#00bcf2" stroke-width="0.5"/>
    <line x1="1100" y1="70" x2="1080" y2="100" stroke="#7c3aed" stroke-width="1"/>
    <line x1="1080" y1="100" x2="1120" y2="120" stroke="#0078d4" stroke-width="0.5"/>
  </g>

  <!-- Floating particles -->
  <circle cx="300" cy="30" r="1.5" fill="#0078d4" opacity="0.5"/>
  <circle cx="500" cy="50" r="2" fill="#00bcf2" opacity="0.4"/>
  <circle cx="750" cy="25" r="1" fill="#7c3aed" opacity="0.6"/>
  <circle cx="950" cy="45" r="2.5" fill="#00bcf2" opacity="0.3"/>
  <circle cx="400" cy="270" r="2" fill="#00bcf2" opacity="0.4"/>
  <circle cx="700" cy="260" r="1.5" fill="#0078d4" opacity="0.5"/>
  <circle cx="900" cy="275" r="2" fill="#7c3aed" opacity="0.3"/>
  <circle cx="1050" cy="250" r="1" fill="#0078d4" opacity="0.6"/>

  <!-- Logo glow backdrop -->
  <ellipse cx="150" cy="150" rx="120" ry="110" fill="url(#logoBackGlow)"/>

  <!-- Logo mark (scaled) with glow -->
  <g transform="translate(55, 58) scale(6)" filter="url(#logoGlow)">
    <path d="M16 2C8.268 2 2 8.268 2 16s6.268 14 14 14c3.866 0 7.389-1.568 9.928-4.1l-3.535-3.536A9.002 9.002 0 0116 25c-4.97 0-9-4.03-9-9s4.03-9 9-9c2.29 0 4.38.857 5.971 2.268l3.464-3.639C22.993 3.352 19.66 2 16 2z" fill="url(#logoGrad)"/>
    <path d="M20 10l-4 6 4 6h4l-4-6 4-6h-4z" fill="url(#logoGrad)"/>
    <path d="M24 10l4 6-4 6h4l4-6-4-6h-4z" fill="url(#logoGrad)" opacity="0.6"/>
  </g>

  <text x="320" y="54" font-family="Segoe UI, system-ui, sans-serif" font-size="13" font-weight="600" fill="#94a3b8" letter-spacing="3">AUTOMATIC REPOSITORY PORTFOLIO FOR</text>
  <!-- Main name -->
  <text x="320" y="135" font-family="Segoe UI, system-ui, sans-serif" font-size="74" font-weight="700" fill="url(#nameGrad)" filter="url(#glow)">Dr. Fabio Correa, DBA</text>

  <!-- Title line -->
  <text x="320" y="180" font-family="Segoe UI, system-ui, sans-serif" font-size="22" fill="#94a3b8" letter-spacing="1" textLength="800" lengthAdjust="spacingAndGlyphs">Building AI-powered solutions for organizational learning, cognitive architecture, and responsible AI adoption.</text>

  <!-- Tagline with accent -->
  <text x="320" y="220" font-family="Segoe UI, system-ui, sans-serif" font-size="18" fill="url(#accentTextGrad)" letter-spacing="1.5">THINK • BUILD • DEPLOY</text>

  <!-- Decorative accent line -->
  <line x1="320" y1="240" x2="850" y2="240" stroke="#334155" stroke-width="1"/>
  <line x1="320" y1="243" x2="600" y2="243" stroke="url(#accentGrad)" stroke-width="2" opacity="0.6"/>

  <!-- CorreaX branding badge -->
  <g transform="translate(320, 255)" font-family="Segoe UI, system-ui, sans-serif" font-size="12" fill="#94a3b8"><text letter-spacing="1">UPDATED</text><text x="70" font-weight="700">Jul 18 2026 06:56 EDT</text></g>

  <!-- Tech circuit decorations on right -->
  <g opacity="0.25">
    <path d="M1000 140 h80 v40 h40" stroke="#0078d4" stroke-width="1.5" fill="none"/>
    <circle cx="1000" cy="140" r="3" fill="#0078d4"/>
    <circle cx="1120" cy="180" r="4" fill="#00bcf2"/>
    <path d="M1020 200 h60 v-25 h30" stroke="#7c3aed" stroke-width="1" fill="none"/>
    <circle cx="1020" cy="200" r="2" fill="#7c3aed"/>
    <path d="M980 100 h50 l20 20 h40" stroke="#00bcf2" stroke-width="1" fill="none"/>
    <circle cx="980" cy="100" r="2" fill="#00bcf2"/>
  </g>

  <!-- Bottom accent bar with glow -->
  <rect x="0" y="290" width="1200" height="10" fill="url(#accentGrad)" filter="url(#glow)"/>
</g>
<g transform="translate(0, 217)">
<rect width="820" height="416" fill="none"/>
  <rect x="3" y="3" width="266.0379146919431" height="202" rx="6" fill="#57606a" opacity="0.15" stroke="#57606a" stroke-width="1.5"/><path d="M9,3 h254.03791469194312 a6,6 0 0 1 6,6 v16 h-266.0379146919431 v-16 a6,6 0 0 1 6,-6 z" fill="#57606a" opacity="0.1"/><line x1="3" y1="25" x2="269.0379146919431" y2="25" stroke="#57606a" stroke-width="0.75" opacity="0.45"/><text x="11" y="19" font-size="12" fill="#57606a" font-family="system-ui,-apple-system,Segoe UI,Roboto,sans-serif" font-weight="700">Other</text>
  <rect x="4" y="27" width="43.16325166754745" height="176" rx="3" fill="#57606a" opacity="0.36"/>
  <text x="25.581625833773725" y="115" text-anchor="middle" dominant-baseline="central" font-size="16" fill="#57606a" font-family="system-ui,sans-serif" font-weight="600" transform="rotate(-90,25.581625833773725,115)">prompt engineering</text>
  <rect x="48.16325166754745" y="27" width="39.96140596535652" height="176" rx="3" fill="#57606a" opacity="0.34"/>
  <text x="68.14395465022571" y="115" text-anchor="middle" dominant-baseline="central" font-size="16" fill="#57606a" font-family="system-ui,sans-serif" font-weight="600" transform="rotate(-90,68.14395465022571,115)">mcp</text>
  <rect x="89.12465763290396" y="27" width="32.62835133977844" height="176" rx="3" fill="#57606a" opacity="0.29"/>
  <text x="105.43883330279318" y="115" text-anchor="middle" dominant-baseline="central" font-size="16" fill="#57606a" font-family="system-ui,sans-serif" font-weight="400" transform="rotate(-90,105.43883330279318,115)">python</text>
  <rect x="122.75300897268241" y="27" width="28.256981143852148" height="176" rx="3" fill="#57606a" opacity="0.27"/>
  <text x="136.8814995446085" y="115" text-anchor="middle" dominant-baseline="central" font-size="16" fill="#57606a" font-family="system-ui,sans-serif" font-weight="400" transform="rotate(-90,136.8814995446085,115)">dashboard</text>
  <rect x="152.00999011653457" y="27" width="28.256981143852148" height="176" rx="3" fill="#57606a" opacity="0.27"/>
  <text x="166.13848068846065" y="115" text-anchor="middle" dominant-baseline="central" font-size="16" fill="#57606a" font-family="system-ui,sans-serif" font-weight="400" transform="rotate(-90,166.13848068846065,115)">fleet</text>
  <rect x="181.26697126038673" y="27" width="28.256981143852148" height="176" rx="3" fill="#57606a" opacity="0.27"/>
  <text x="195.3954618323128" y="115" text-anchor="middle" dominant-baseline="central" font-size="16" fill="#57606a" font-family="system-ui,sans-serif" font-weight="400" transform="rotate(-90,195.3954618323128,115)">dialog engineering</text>
  <rect x="210.52395240423888" y="27" width="28.256981143852148" height="176" rx="3" fill="#57606a" opacity="0.27"/>
  <text x="224.65244297616496" y="115" text-anchor="middle" dominant-baseline="central" font-size="16" fill="#57606a" font-family="system-ui,sans-serif" font-weight="400" transform="rotate(-90,224.65244297616496,115)">llm</text>
  <rect x="239.78093354809104" y="27" width="28.256981143852073" height="176" rx="3" fill="#57606a" opacity="0.27"/>
  <text x="253.9094241200171" y="115" text-anchor="middle" dominant-baseline="central" font-size="16" fill="#57606a" font-family="system-ui,sans-serif" font-weight="400" transform="rotate(-90,253.9094241200171,115)">generative ai</text>
  <rect x="275.0379146919431" y="3" width="176.65402843601896" height="202" rx="6" fill="#4e79a7" opacity="0.15" stroke="#4e79a7" stroke-width="1.5"/><path d="M281.0379146919431,3 h164.65402843601896 a6,6 0 0 1 6,6 v16 h-176.65402843601896 v-16 a6,6 0 0 1 6,-6 z" fill="#4e79a7" opacity="0.1"/><line x1="275.0379146919431" y1="25" x2="451.6919431279621" y2="25" stroke="#4e79a7" stroke-width="0.75" opacity="0.45"/><text x="283.0379146919431" y="19" font-size="12" fill="#4e79a7" font-family="system-ui,-apple-system,Segoe UI,Roboto,sans-serif" font-weight="700">AI &amp; Copilot</text>
  <rect x="276.0379146919431" y="27" width="30.354523398296962" height="176" rx="3" fill="#4e79a7" opacity="0.45"/>
  <text x="291.2151763910916" y="115" text-anchor="middle" dominant-baseline="central" font-size="16" fill="#4e79a7" font-family="system-ui,sans-serif" font-weight="600" transform="rotate(-90,291.2151763910916,115)">github copilot</text>
  <rect x="307.3924380902401" y="27" width="24.214532892392434" height="176" rx="3" fill="#4e79a7" opacity="0.36"/>
  <text x="319.4997045364363" y="115" text-anchor="middle" dominant-baseline="central" font-size="16" fill="#4e79a7" font-family="system-ui,sans-serif" font-weight="600" transform="rotate(-90,319.4997045364363,115)">ai assistant</text>
  <rect x="332.6069709826325" y="27" width="24.214532892392434" height="176" rx="3" fill="#4e79a7" opacity="0.36"/>
  <text x="344.7142374288287" y="115" text-anchor="middle" dominant-baseline="central" font-size="16" fill="#4e79a7" font-family="system-ui,sans-serif" font-weight="600" transform="rotate(-90,344.7142374288287,115)">copilot</text>
  <rect x="357.8215038750249" y="27" width="24.214532892392434" height="176" rx="3" fill="#4e79a7" opacity="0.36"/>
  <text x="369.9287703212211" y="115" text-anchor="middle" dominant-baseline="central" font-size="16" fill="#4e79a7" font-family="system-ui,sans-serif" font-weight="600" transform="rotate(-90,369.9287703212211,115)">ai</text>
  <rect x="383.03603676741733" y="27" width="20.46501550026908" height="176" rx="3" fill="#4e79a7" opacity="0.32"/>
  <text x="393.26854451755185" y="115" text-anchor="middle" dominant-baseline="central" font-size="15" fill="#4e79a7" font-family="system-ui,sans-serif" font-weight="400" transform="rotate(-90,393.26854451755185,115)">claude</text>
  <rect x="404.5010522676864" y="27" width="18.304466327675406" height="176" rx="3" fill="#4e79a7" opacity="0.29"/>
  <text x="413.6532854315241" y="115" text-anchor="middle" dominant-baseline="central" font-size="13" fill="#4e79a7" font-family="system-ui,sans-serif" font-weight="400" transform="rotate(-90,413.6532854315241,115)">azure openai</text>
  <rect x="423.80551859536183" y="27" width="12.943212266300105" height="176" rx="3" fill="#4e79a7" opacity="0.25"/>
  <text x="430.27712472851186" y="115" text-anchor="middle" dominant-baseline="central" font-size="9" fill="#4e79a7" font-family="system-ui,sans-serif" font-weight="400" transform="rotate(-90,430.27712472851186,115)">openai</text>
  <rect x="437.74873086166195" y="27" width="12.943212266300122" height="176" rx="3" fill="#4e79a7" opacity="0.25"/>
  <text x="444.220336994812" y="115" text-anchor="middle" dominant-baseline="central" font-size="9" fill="#4e79a7" font-family="system-ui,sans-serif" font-weight="400" transform="rotate(-90,444.220336994812,115)">chatgpt</text>
  <rect x="457.6919431279621" y="3" width="141.6777251184834" height="202" rx="6" fill="#f28e2b" opacity="0.15" stroke="#f28e2b" stroke-width="1.5"/><path d="M463.6919431279621,3 h129.6777251184834 a6,6 0 0 1 6,6 v16 h-141.6777251184834 v-16 a6,6 0 0 1 6,-6 z" fill="#f28e2b" opacity="0.1"/><line x1="457.6919431279621" y1="25" x2="599.3696682464455" y2="25" stroke="#f28e2b" stroke-width="0.75" opacity="0.45"/><text x="465.6919431279621" y="19" font-size="12" fill="#f28e2b" font-family="system-ui,-apple-system,Segoe UI,Roboto,sans-serif" font-weight="700">Cognitive Architec…</text>
  <rect x="458.6919431279621" y="27" width="26.478068654712764" height="176" rx="3" fill="#f28e2b" opacity="0.45"/>
  <text x="471.93097745531844" y="115" text-anchor="middle" dominant-baseline="central" font-size="13" fill="#f28e2b" font-family="system-ui,sans-serif" font-weight="600" transform="rotate(-90,471.93097745531844,115)">cognitive architecture</text>
  <rect x="486.17001178267486" y="27" width="22.580572819591183" height="176" rx="3" fill="#f28e2b" opacity="0.38"/>
  <text x="497.4602981924705" y="115" text-anchor="middle" dominant-baseline="central" font-size="16" fill="#f28e2b" font-family="system-ui,sans-serif" font-weight="600" transform="rotate(-90,497.4602981924705,115)">agentic</text>
  <rect x="509.75058460226603" y="27" width="19.555349693770374" height="176" rx="3" fill="#f28e2b" opacity="0.34"/>
  <text x="519.5282594491512" y="115" text-anchor="middle" dominant-baseline="central" font-size="14" fill="#f28e2b" font-family="system-ui,sans-serif" font-weight="600" transform="rotate(-90,519.5282594491512,115)">critical thinking</text>
  <rect x="530.3059342960364" y="27" width="13.827720376939306" height="176" rx="3" fill="#f28e2b" opacity="0.27"/>
  <text x="537.2197944845061" y="115" text-anchor="middle" dominant-baseline="central" font-size="10" fill="#f28e2b" font-family="system-ui,sans-serif" font-weight="400" transform="rotate(-90,537.2197944845061,115)">agentic ai</text>
  <rect x="545.1336546729757" y="27" width="13.827720376939306" height="176" rx="3" fill="#f28e2b" opacity="0.27"/>
  <text x="552.0475148614454" y="115" text-anchor="middle" dominant-baseline="central" font-size="10" fill="#f28e2b" font-family="system-ui,sans-serif" font-weight="400" transform="rotate(-90,552.0475148614454,115)">model context protocol</text>
  <rect x="559.961375049915" y="27" width="13.827720376939306" height="176" rx="3" fill="#f28e2b" opacity="0.27"/>
  <text x="566.8752352383847" y="115" text-anchor="middle" dominant-baseline="central" font-size="10" fill="#f28e2b" font-family="system-ui,sans-serif" font-weight="400" transform="rotate(-90,566.8752352383847,115)">alex act edition</text>
  <rect x="574.7890954268543" y="27" width="11.290286409795591" height="176" rx="3" fill="#f28e2b" opacity="0.25"/>
  <text x="580.434238631752" y="115" text-anchor="middle" dominant-baseline="central" font-size="8" fill="#f28e2b" font-family="system-ui,sans-serif" font-weight="400" transform="rotate(-90,580.434238631752,115)">act framework</text>
  <rect x="587.0793818366499" y="27" width="11.290286409795613" height="176" rx="3" fill="#f28e2b" opacity="0.25"/>
  <text x="592.7245250415476" y="115" text-anchor="middle" dominant-baseline="central" font-size="8" fill="#f28e2b" font-family="system-ui,sans-serif" font-weight="400" transform="rotate(-90,592.7245250415476,115)">epistemic integrity</text>
  <rect x="605.3696682464455" y="3" width="106.70142180094787" height="202" rx="6" fill="#76b7b2" opacity="0.15" stroke="#76b7b2" stroke-width="1.5"/><path d="M611.3696682464455,3 h94.70142180094787 a6,6 0 0 1 6,6 v16 h-106.70142180094787 v-16 a6,6 0 0 1 6,-6 z" fill="#76b7b2" opacity="0.1"/><line x1="605.3696682464455" y1="25" x2="712.0710900473933" y2="25" stroke="#76b7b2" stroke-width="0.75" opacity="0.45"/><text x="613.3696682464455" y="19" font-size="12" fill="#76b7b2" font-family="system-ui,-apple-system,Segoe UI,Roboto,sans-serif" font-weight="700">AI Agents &amp; S…</text>
  <rect x="606.3696682464455" y="27" width="21.16002506903444" height="176" rx="3" fill="#76b7b2" opacity="0.43"/>
  <text x="616.9496807809627" y="115" text-anchor="middle" dominant-baseline="central" font-size="15" fill="#76b7b2" font-family="system-ui,sans-serif" font-weight="600" transform="rotate(-90,616.9496807809627,115)">agent</text>
  <rect x="628.5296933154799" y="27" width="13.382774912882095" height="176" rx="3" fill="#76b7b2" opacity="0.29"/>
  <text x="635.2210807719209" y="115" text-anchor="middle" dominant-baseline="central" font-size="10" fill="#76b7b2" font-family="system-ui,sans-serif" font-weight="400" transform="rotate(-90,635.2210807719209,115)">ai agents</text>
  <rect x="642.912468228362" y="27" width="11.589823047684972" height="176" rx="3" fill="#76b7b2" opacity="0.27"/>
  <text x="648.7073797522045" y="115" text-anchor="middle" dominant-baseline="central" font-size="8" fill="#76b7b2" font-family="system-ui,sans-serif" font-weight="400" transform="rotate(-90,648.7073797522045,115)">agent skills</text>
  <rect x="655.5022912760469" y="27" width="11.589823047684972" height="176" rx="3" fill="#76b7b2" opacity="0.27"/>
  <text x="661.2972027998894" y="115" text-anchor="middle" dominant-baseline="central" font-size="8" fill="#76b7b2" font-family="system-ui,sans-serif" font-weight="400" transform="rotate(-90,661.2972027998894,115)">ai agent</text>
  <rect x="668.0921143237318" y="27" width="11.589823047684972" height="176" rx="3" fill="#76b7b2" opacity="0.27"/>
  <text x="673.8870258475744" y="115" text-anchor="middle" dominant-baseline="central" font-size="8" fill="#76b7b2" font-family="system-ui,sans-serif" font-weight="400" transform="rotate(-90,673.8870258475744,115)">skills</text>
  <rect x="680.6819373714168" y="27" width="9.463050891992138" height="176" rx="3" fill="#76b7b2" opacity="0.25"/>
  <text x="685.4134628174129" y="115" text-anchor="middle" dominant-baseline="central" font-size="7" fill="#76b7b2" font-family="system-ui,sans-serif" font-weight="400" transform="rotate(-90,685.4134628174129,115)">claude skills</text>
  <rect x="691.1449882634089" y="27" width="9.463050891992138" height="176" rx="3" fill="#76b7b2" opacity="0.25"/>
  <text x="695.876513709405" y="115" text-anchor="middle" dominant-baseline="central" font-size="7" fill="#76b7b2" font-family="system-ui,sans-serif" font-weight="400" transform="rotate(-90,695.876513709405,115)">copilot skills</text>
  <rect x="701.608039155401" y="27" width="9.463050891992339" height="176" rx="3" fill="#76b7b2" opacity="0.25"/>
  <text x="706.3395646013971" y="115" text-anchor="middle" dominant-baseline="central" font-size="7" fill="#76b7b2" font-family="system-ui,sans-serif" font-weight="400" transform="rotate(-90,706.3395646013971,115)">cursor skills</text>
  <rect x="718.0710900473933" y="3" width="98.92890995260666" height="202" rx="6" fill="#b07aa1" opacity="0.15" stroke="#b07aa1" stroke-width="1.5"/><path d="M724.0710900473933,3 h86.92890995260666 a6,6 0 0 1 6,6 v16 h-98.92890995260666 v-16 a6,6 0 0 1 6,-6 z" fill="#b07aa1" opacity="0.1"/><line x1="718.0710900473933" y1="25" x2="817" y2="25" stroke="#b07aa1" stroke-width="0.75" opacity="0.45"/><text x="726.0710900473933" y="19" font-size="12" fill="#b07aa1" font-family="system-ui,-apple-system,Segoe UI,Roboto,sans-serif" font-weight="700">Developer To…</text>
  <rect x="719.0710900473933" y="27" width="15.305402344559113" height="176" rx="3" fill="#b07aa1" opacity="0.34"/>
  <text x="726.7237912196729" y="115" text-anchor="middle" dominant-baseline="central" font-size="11" fill="#b07aa1" font-family="system-ui,sans-serif" font-weight="600" transform="rotate(-90,726.7237912196729,115)">typescript</text>
  <rect x="735.3764923919524" y="27" width="13.971856859679143" height="176" rx="3" fill="#b07aa1" opacity="0.32"/>
  <text x="742.3624208217919" y="115" text-anchor="middle" dominant-baseline="central" font-size="10" fill="#b07aa1" font-family="system-ui,sans-serif" font-weight="400" transform="rotate(-90,742.3624208217919,115)">vscode extension</text>
  <rect x="750.3483492516316" y="27" width="12.49680868405572" height="176" rx="3" fill="#b07aa1" opacity="0.29"/>
  <text x="756.5967535936594" y="115" text-anchor="middle" dominant-baseline="central" font-size="9" fill="#b07aa1" font-family="system-ui,sans-serif" font-weight="400" transform="rotate(-90,756.5967535936594,115)">vscode</text>
  <rect x="763.8451579356873" y="27" width="10.822553786626234" height="176" rx="3" fill="#b07aa1" opacity="0.27"/>
  <text x="769.2564348290005" y="115" text-anchor="middle" dominant-baseline="central" font-size="8" fill="#b07aa1" font-family="system-ui,sans-serif" font-weight="400" transform="rotate(-90,769.2564348290005,115)">react</text>
  <rect x="775.6677117223136" y="27" width="10.822553786626234" height="176" rx="3" fill="#b07aa1" opacity="0.27"/>
  <text x="781.0789886156267" y="115" text-anchor="middle" dominant-baseline="central" font-size="8" fill="#b07aa1" font-family="system-ui,sans-serif" font-weight="400" transform="rotate(-90,781.0789886156267,115)">developer tools</text>
  <rect x="787.4902655089398" y="27" width="8.836578163686735" height="176" rx="3" fill="#b07aa1" opacity="0.25"/>
  <text x="791.9085545907832" y="115" text-anchor="middle" dominant-baseline="central" font-size="6" fill="#b07aa1" font-family="system-ui,sans-serif" font-weight="400" transform="rotate(-90,791.9085545907832,115)">markdown</text>
  <rect x="797.3268436726265" y="27" width="8.836578163686735" height="176" rx="3" fill="#b07aa1" opacity="0.25"/>
  <text x="801.7451327544699" y="115" text-anchor="middle" dominant-baseline="central" font-size="6" fill="#b07aa1" font-family="system-ui,sans-serif" font-weight="400" transform="rotate(-90,801.7451327544699,115)">pdf</text>
  <rect x="807.1634218363132" y="27" width="8.836578163686795" height="176" rx="3" fill="#b07aa1" opacity="0.25"/>
  <text x="811.5817109181567" y="115" text-anchor="middle" dominant-baseline="central" font-size="6" fill="#b07aa1" font-family="system-ui,sans-serif" font-weight="400" transform="rotate(-90,811.5817109181567,115)">svg</text>
  <rect x="3" y="211" width="216.57142857142856" height="202" rx="6" fill="#e15759" opacity="0.15" stroke="#e15759" stroke-width="1.5"/><path d="M9,211 h204.57142857142856 a6,6 0 0 1 6,6 v16 h-216.57142857142856 v-16 a6,6 0 0 1 6,-6 z" fill="#e15759" opacity="0.1"/><line x1="3" y1="233" x2="219.57142857142856" y2="233" stroke="#e15759" stroke-width="0.75" opacity="0.45"/><text x="11" y="227" font-size="12" fill="#e15759" font-family="system-ui,-apple-system,Segoe UI,Roboto,sans-serif" font-weight="700">Learning &amp; Research</text>
  <rect x="4" y="235" width="29.307720380868247" height="176" rx="3" fill="#e15759" opacity="0.27"/>
  <text x="18.653860190434123" y="323" text-anchor="middle" dominant-baseline="central" font-size="16" fill="#e15759" font-family="system-ui,sans-serif" font-weight="400" transform="rotate(-90,18.653860190434123,323)">learning</text>
  <rect x="34.30772038086825" y="235" width="29.307720380868247" height="176" rx="3" fill="#e15759" opacity="0.27"/>
  <text x="48.96158057130237" y="323" text-anchor="middle" dominant-baseline="central" font-size="16" fill="#e15759" font-family="system-ui,sans-serif" font-weight="400" transform="rotate(-90,48.96158057130237,323)">tutorial</text>
  <rect x="64.6154407617365" y="235" width="29.307720380868247" height="176" rx="3" fill="#e15759" opacity="0.27"/>
  <text x="79.26930095217062" y="323" text-anchor="middle" dominant-baseline="central" font-size="16" fill="#e15759" font-family="system-ui,sans-serif" font-weight="400" transform="rotate(-90,79.26930095217062,323)">utaut2</text>
  <rect x="94.92316114260474" y="235" width="23.929653485764756" height="176" rx="3" fill="#e15759" opacity="0.25"/>
  <text x="106.88798788548712" y="323" text-anchor="middle" dominant-baseline="central" font-size="16" fill="#e15759" font-family="system-ui,sans-serif" font-weight="400" transform="rotate(-90,106.88798788548712,323)">neuroscience</text>
  <rect x="119.8528146283695" y="235" width="23.929653485764756" height="176" rx="3" fill="#e15759" opacity="0.25"/>
  <text x="131.81764137125188" y="323" text-anchor="middle" dominant-baseline="central" font-size="16" fill="#e15759" font-family="system-ui,sans-serif" font-weight="400" transform="rotate(-90,131.81764137125188,323)">research</text>
  <rect x="144.78246811413425" y="235" width="23.929653485764756" height="176" rx="3" fill="#e15759" opacity="0.25"/>
  <text x="156.7472948570166" y="323" text-anchor="middle" dominant-baseline="central" font-size="16" fill="#e15759" font-family="system-ui,sans-serif" font-weight="400" transform="rotate(-90,156.7472948570166,323)">cognitive science</text>
  <rect x="169.712121599899" y="235" width="23.929653485764756" height="176" rx="3" fill="#e15759" opacity="0.25"/>
  <text x="181.67694834278137" y="323" text-anchor="middle" dominant-baseline="central" font-size="16" fill="#e15759" font-family="system-ui,sans-serif" font-weight="400" transform="rotate(-90,181.67694834278137,323)">academic research</text>
  <rect x="194.64177508566377" y="235" width="23.92965348576479" height="176" rx="3" fill="#e15759" opacity="0.25"/>
  <text x="206.60660182854616" y="323" text-anchor="middle" dominant-baseline="central" font-size="16" fill="#e15759" font-family="system-ui,sans-serif" font-weight="400" transform="rotate(-90,206.60660182854616,323)">memory systems</text>
  <rect x="225.57142857142856" y="211" width="216.57142857142856" height="202" rx="6" fill="#ff9da7" opacity="0.15" stroke="#ff9da7" stroke-width="1.5"/><path d="M231.57142857142856,211 h204.57142857142856 a6,6 0 0 1 6,6 v16 h-216.57142857142856 v-16 a6,6 0 0 1 6,-6 z" fill="#ff9da7" opacity="0.1"/><line x1="225.57142857142856" y1="233" x2="442.1428571428571" y2="233" stroke="#ff9da7" stroke-width="0.75" opacity="0.45"/><text x="233.57142857142856" y="227" font-size="12" fill="#ff9da7" font-family="system-ui,-apple-system,Segoe UI,Roboto,sans-serif" font-weight="700">Media &amp; Entertainment</text>
  <rect x="226.57142857142856" y="235" width="30.9094137952597" height="176" rx="3" fill="#ff9da7" opacity="0.27"/>
  <text x="242.0261354690584" y="323" text-anchor="middle" dominant-baseline="central" font-size="16" fill="#ff9da7" font-family="system-ui,sans-serif" font-weight="400" transform="rotate(-90,242.0261354690584,323)">spotify api</text>
  <rect x="258.48084236668825" y="235" width="25.237430682309835" height="176" rx="3" fill="#ff9da7" opacity="0.25"/>
  <text x="271.0995577078432" y="323" text-anchor="middle" dominant-baseline="central" font-size="16" fill="#ff9da7" font-family="system-ui,sans-serif" font-weight="400" transform="rotate(-90,271.0995577078432,323)">video analysis</text>
  <rect x="284.71827304899807" y="235" width="25.237430682309835" height="176" rx="3" fill="#ff9da7" opacity="0.25"/>
  <text x="297.336988390153" y="323" text-anchor="middle" dominant-baseline="central" font-size="16" fill="#ff9da7" font-family="system-ui,sans-serif" font-weight="400" transform="rotate(-90,297.336988390153,323)">youtube</text>
  <rect x="310.9557037313079" y="235" width="25.237430682309835" height="176" rx="3" fill="#ff9da7" opacity="0.25"/>
  <text x="323.57441907246283" y="323" text-anchor="middle" dominant-baseline="central" font-size="16" fill="#ff9da7" font-family="system-ui,sans-serif" font-weight="400" transform="rotate(-90,323.57441907246283,323)">youtube api</text>
  <rect x="337.1931344136177" y="235" width="25.237430682309835" height="176" rx="3" fill="#ff9da7" opacity="0.25"/>
  <text x="349.81184975477265" y="323" text-anchor="middle" dominant-baseline="central" font-size="16" fill="#ff9da7" font-family="system-ui,sans-serif" font-weight="400" transform="rotate(-90,349.81184975477265,323)">music</text>
  <rect x="363.43056509592753" y="235" width="25.237430682309835" height="176" rx="3" fill="#ff9da7" opacity="0.25"/>
  <text x="376.0492804370825" y="323" text-anchor="middle" dominant-baseline="central" font-size="16" fill="#ff9da7" font-family="system-ui,sans-serif" font-weight="400" transform="rotate(-90,376.0492804370825,323)">playlist</text>
  <rect x="389.66799577823735" y="235" width="25.237430682309835" height="176" rx="3" fill="#ff9da7" opacity="0.25"/>
  <text x="402.2867111193923" y="323" text-anchor="middle" dominant-baseline="central" font-size="16" fill="#ff9da7" font-family="system-ui,sans-serif" font-weight="400" transform="rotate(-90,402.2867111193923,323)">spotify</text>
  <rect x="415.9054264605472" y="235" width="25.237430682309935" height="176" rx="3" fill="#ff9da7" opacity="0.25"/>
  <text x="428.52414180170217" y="323" text-anchor="middle" dominant-baseline="central" font-size="16" fill="#ff9da7" font-family="system-ui,sans-serif" font-weight="400" transform="rotate(-90,428.52414180170217,323)">audio</text>
  <rect x="448.1428571428571" y="211" width="181.42857142857142" height="202" rx="6" fill="#59a14f" opacity="0.15" stroke="#59a14f" stroke-width="1.5"/><path d="M454.1428571428571,211 h169.42857142857142 a6,6 0 0 1 6,6 v16 h-181.42857142857142 v-16 a6,6 0 0 1 6,-6 z" fill="#59a14f" opacity="0.1"/><line x1="448.1428571428571" y1="233" x2="629.5714285714286" y2="233" stroke="#59a14f" stroke-width="0.75" opacity="0.45"/><text x="456.1428571428571" y="227" font-size="12" fill="#59a14f" font-family="system-ui,-apple-system,Segoe UI,Roboto,sans-serif" font-weight="700">Cloud &amp; Azure</text>
  <rect x="449.1428571428571" y="235" width="53.841824986715565" height="176" rx="3" fill="#59a14f" opacity="0.36"/>
  <text x="476.0637696362149" y="323" text-anchor="middle" dominant-baseline="central" font-size="16" fill="#59a14f" font-family="system-ui,sans-serif" font-weight="600" transform="rotate(-90,476.0637696362149,323)">azure</text>
  <rect x="503.98468212957266" y="235" width="35.24774836516982" height="176" rx="3" fill="#59a14f" opacity="0.27"/>
  <text x="521.6085563121576" y="323" text-anchor="middle" dominant-baseline="central" font-size="16" fill="#59a14f" font-family="system-ui,sans-serif" font-weight="400" transform="rotate(-90,521.6085563121576,323)">azure functions</text>
  <rect x="540.2324304947425" y="235" width="28.779666025562005" height="176" rx="3" fill="#59a14f" opacity="0.25"/>
  <text x="554.6222635075235" y="323" text-anchor="middle" dominant-baseline="central" font-size="16" fill="#59a14f" font-family="system-ui,sans-serif" font-weight="400" transform="rotate(-90,554.6222635075235,323)">serverless</text>
  <rect x="570.0120965203046" y="235" width="28.779666025562005" height="176" rx="3" fill="#59a14f" opacity="0.25"/>
  <text x="584.4019295330855" y="323" text-anchor="middle" dominant-baseline="central" font-size="16" fill="#59a14f" font-family="system-ui,sans-serif" font-weight="400" transform="rotate(-90,584.4019295330855,323)">devops</text>
  <rect x="599.7917625458666" y="235" width="28.779666025561937" height="176" rx="3" fill="#59a14f" opacity="0.25"/>
  <text x="614.1815955586476" y="323" text-anchor="middle" dominant-baseline="central" font-size="16" fill="#59a14f" font-family="system-ui,sans-serif" font-weight="400" transform="rotate(-90,614.1815955586476,323)">nodejs</text>
  <rect x="635.5714285714286" y="211" width="181.42857142857144" height="202" rx="6" fill="#edc948" opacity="0.15" stroke="#edc948" stroke-width="1.5"/><path d="M641.5714285714286,211 h169.42857142857144 a6,6 0 0 1 6,6 v16 h-181.42857142857144 v-16 a6,6 0 0 1 6,-6 z" fill="#edc948" opacity="0.1"/><line x1="635.5714285714286" y1="233" x2="817" y2="233" stroke="#edc948" stroke-width="0.75" opacity="0.45"/><text x="643.5714285714286" y="227" font-size="12" fill="#edc948" font-family="system-ui,-apple-system,Segoe UI,Roboto,sans-serif" font-weight="700">Responsible AI</text>
  <rect x="636.5714285714286" y="235" width="35.939672857702796" height="176" rx="3" fill="#edc948" opacity="0.29"/>
  <text x="654.54126500028" y="323" text-anchor="middle" dominant-baseline="central" font-size="16" fill="#edc948" font-family="system-ui,sans-serif" font-weight="400" transform="rotate(-90,654.54126500028,323)">responsible ai</text>
  <rect x="673.5111014291314" y="235" width="31.12466969847269" height="176" rx="3" fill="#edc948" opacity="0.27"/>
  <text x="689.0734362783677" y="323" text-anchor="middle" dominant-baseline="central" font-size="16" fill="#edc948" font-family="system-ui,sans-serif" font-weight="400" transform="rotate(-90,689.0734362783677,323)">ai adoption</text>
  <rect x="705.635771127604" y="235" width="31.12466969847269" height="176" rx="3" fill="#edc948" opacity="0.27"/>
  <text x="721.1981059768403" y="323" text-anchor="middle" dominant-baseline="central" font-size="16" fill="#edc948" font-family="system-ui,sans-serif" font-weight="400" transform="rotate(-90,721.1981059768403,323)">ai governance</text>
  <rect x="737.7604408260767" y="235" width="25.41318639130775" height="176" rx="3" fill="#edc948" opacity="0.25"/>
  <text x="750.4670340217306" y="323" text-anchor="middle" dominant-baseline="central" font-size="13" fill="#edc948" font-family="system-ui,sans-serif" font-weight="400" transform="rotate(-90,750.4670340217306,323)">human ai collaboration</text>
  <rect x="764.1736272173844" y="235" width="25.41318639130775" height="176" rx="3" fill="#edc948" opacity="0.25"/>
  <text x="776.8802204130383" y="323" text-anchor="middle" dominant-baseline="central" font-size="16" fill="#edc948" font-family="system-ui,sans-serif" font-weight="400" transform="rotate(-90,776.8802204130383,323)">ai coaching</text>
  <rect x="790.5868136086921" y="235" width="25.41318639130793" height="176" rx="3" fill="#edc948" opacity="0.25"/>
  <text x="803.293406804346" y="323" text-anchor="middle" dominant-baseline="central" font-size="16" fill="#edc948" font-family="system-ui,sans-serif" font-weight="400" transform="rotate(-90,803.293406804346,323)">governance</text>
</g>
<g transform="translate(0, 639)">
<title>Portfolio at a Glance</title>
<rect width="820" height="270" fill="none"/>
<rect x="3" y="3" width="328.82" height="264" rx="6" fill="#0969da" opacity="0.15" stroke="#0969da" stroke-width="1.5"/><path d="M9,3 h316.82 a6,6 0 0 1 6,6 v26 h-328.82 v-26 a6,6 0 0 1 6,-6 z" fill="#0969da" opacity="0.1"/><line x1="3" y1="35" x2="331.82" y2="35" stroke="#0969da" stroke-width="0.75" opacity="0.45"/><text x="11" y="19" font-size="12" fill="#0969da" font-family="system-ui,-apple-system,Segoe UI,Roboto,sans-serif" font-weight="700">Top Languages</text><text x="11" y="31" font-size="9" fill="#0969da" opacity="0.95" font-weight="600" font-family="system-ui,-apple-system,Segoe UI,Roboto,sans-serif">By lines of code</text>
<g transform="translate(11, 41)">
<text x="4" y="28" font-size="11" fill="#0969da" font-family="system-ui,-apple-system,Segoe UI,Roboto,sans-serif">Python</text><rect x="137.3844" y="15" width="175.4356" height="18" rx="3" fill="#0969da" opacity="0.12"/><rect x="137.3844" y="15" width="126" height="18" rx="3" fill="#0969da" opacity="0.55"/><text x="268.3844" y="28" font-size="10" fill="#0969da" font-weight="700" font-family="system-ui,-apple-system,Segoe UI,Roboto,sans-serif">71.6%</text><text x="4" y="62" font-size="11" fill="#0969da" font-family="system-ui,-apple-system,Segoe UI,Roboto,sans-serif">JavaScript</text><rect x="137.3844" y="49" width="175.4356" height="18" rx="3" fill="#0969da" opacity="0.12"/><rect x="137.3844" y="49" width="16" height="18" rx="3" fill="#0969da" opacity="0.55"/><text x="158.3844" y="62" font-size="10" fill="#0969da" font-weight="700" font-family="system-ui,-apple-system,Segoe UI,Roboto,sans-serif">9.3%</text><text x="4" y="96" font-size="11" fill="#0969da" font-family="system-ui,-apple-system,Segoe UI,Roboto,sans-serif">TypeScript</text><rect x="137.3844" y="83" width="175.4356" height="18" rx="3" fill="#0969da" opacity="0.12"/><rect x="137.3844" y="83" width="15" height="18" rx="3" fill="#0969da" opacity="0.55"/><text x="157.3844" y="96" font-size="10" fill="#0969da" font-weight="700" font-family="system-ui,-apple-system,Segoe UI,Roboto,sans-serif">8.7%</text><text x="4" y="130" font-size="11" fill="#0969da" font-family="system-ui,-apple-system,Segoe UI,Roboto,sans-serif">Jupyter Notebook</text><rect x="137.3844" y="117" width="175.4356" height="18" rx="3" fill="#0969da" opacity="0.12"/><rect x="137.3844" y="117" width="9" height="18" rx="3" fill="#0969da" opacity="0.55"/><text x="151.3844" y="130" font-size="10" fill="#0969da" font-weight="700" font-family="system-ui,-apple-system,Segoe UI,Roboto,sans-serif">5.1%</text><text x="4" y="164" font-size="11" fill="#0969da" font-family="system-ui,-apple-system,Segoe UI,Roboto,sans-serif">Cython</text><rect x="137.3844" y="151" width="175.4356" height="18" rx="3" fill="#0969da" opacity="0.12"/><rect x="137.3844" y="151" width="3" height="18" rx="3" fill="#0969da" opacity="0.55"/><text x="145.3844" y="164" font-size="10" fill="#0969da" font-weight="700" font-family="system-ui,-apple-system,Segoe UI,Roboto,sans-serif">1.6%</text><text x="4" y="198" font-size="11" fill="#0969da" font-family="system-ui,-apple-system,Segoe UI,Roboto,sans-serif">PowerShell</text><rect x="137.3844" y="185" width="175.4356" height="18" rx="3" fill="#0969da" opacity="0.12"/><rect x="137.3844" y="185" width="2" height="18" rx="3" fill="#0969da" opacity="0.55"/><text x="144.3844" y="198" font-size="10" fill="#0969da" font-weight="700" font-family="system-ui,-apple-system,Segoe UI,Roboto,sans-serif">1.2%</text>
</g>
<rect x="337.82" y="3" width="144.35999999999999" height="264" rx="6" fill="#9a6700" opacity="0.15" stroke="#9a6700" stroke-width="1.5"/><path d="M343.82,3 h132.35999999999999 a6,6 0 0 1 6,6 v26 h-144.35999999999999 v-26 a6,6 0 0 1 6,-6 z" fill="#9a6700" opacity="0.1"/><line x1="337.82" y1="35" x2="482.17999999999995" y2="35" stroke="#9a6700" stroke-width="0.75" opacity="0.45"/><text x="345.82" y="19" font-size="12" fill="#9a6700" font-family="system-ui,-apple-system,Segoe UI,Roboto,sans-serif" font-weight="700">Tier &amp; Activity</text><text x="345.82" y="31" font-size="9" fill="#9a6700" opacity="0.95" font-weight="600" font-family="system-ui,-apple-system,Segoe UI,Roboto,sans-serif">Portfolio composition</text>
<text x="345.82" y="52" font-size="9" font-weight="700" fill="#9a6700" opacity="0.7" letter-spacing="0.6" font-family="system-ui,-apple-system,Segoe UI,Roboto,sans-serif">TIERS</text>
<g><text x="345.82" y="69" font-size="11">🏆</text><text x="365.82" y="69" font-size="11" fill="#9a6700" font-weight="600" font-family="system-ui,-apple-system,Segoe UI,Roboto,sans-serif">Flagship</text><text x="470.17999999999995" y="69" font-size="12" fill="#9a6700" font-weight="700" font-family="system-ui,-apple-system,Segoe UI,Roboto,sans-serif" text-anchor="end">21</text><text x="345.82" y="91" font-size="11">⭐</text><text x="365.82" y="91" font-size="11" fill="#9a6700" font-weight="600" font-family="system-ui,-apple-system,Segoe UI,Roboto,sans-serif">Notable</text><text x="470.17999999999995" y="91" font-size="12" fill="#9a6700" font-weight="700" font-family="system-ui,-apple-system,Segoe UI,Roboto,sans-serif" text-anchor="end">49</text><text x="345.82" y="113" font-size="11">🤖</text><text x="365.82" y="113" font-size="11" fill="#9a6700" font-weight="600" font-family="system-ui,-apple-system,Segoe UI,Roboto,sans-serif">Agents</text><text x="470.17999999999995" y="113" font-size="12" fill="#9a6700" font-weight="700" font-family="system-ui,-apple-system,Segoe UI,Roboto,sans-serif" text-anchor="end">89</text><text x="345.82" y="135" font-size="11">🪦</text><text x="365.82" y="135" font-size="11" fill="#9a6700" font-weight="600" font-family="system-ui,-apple-system,Segoe UI,Roboto,sans-serif">Archived</text><text x="470.17999999999995" y="135" font-size="12" fill="#9a6700" font-weight="700" font-family="system-ui,-apple-system,Segoe UI,Roboto,sans-serif" text-anchor="end">14</text></g>
<text x="345.82" y="162" font-size="9" font-weight="700" fill="#9a6700" opacity="0.7" letter-spacing="0.6" font-family="system-ui,-apple-system,Segoe UI,Roboto,sans-serif">ACTIVITY</text>
<g><text x="345.82" y="179" font-size="11">⭐</text><text x="365.82" y="179" font-size="11" fill="#9a6700" font-weight="600" font-family="system-ui,-apple-system,Segoe UI,Roboto,sans-serif">Stars</text><text x="470.17999999999995" y="179" font-size="12" fill="#9a6700" font-weight="700" font-family="system-ui,-apple-system,Segoe UI,Roboto,sans-serif" text-anchor="end">30</text><text x="345.82" y="201" font-size="11">🚀</text><text x="365.82" y="201" font-size="11" fill="#9a6700" font-weight="600" font-family="system-ui,-apple-system,Segoe UI,Roboto,sans-serif">Active &lt;30d</text><text x="470.17999999999995" y="201" font-size="12" fill="#9a6700" font-weight="700" font-family="system-ui,-apple-system,Segoe UI,Roboto,sans-serif" text-anchor="end">30</text><text x="345.82" y="223" font-size="11">📂</text><text x="365.82" y="223" font-size="11" fill="#9a6700" font-weight="600" font-family="system-ui,-apple-system,Segoe UI,Roboto,sans-serif">Public</text><text x="470.17999999999995" y="223" font-size="12" fill="#9a6700" font-weight="700" font-family="system-ui,-apple-system,Segoe UI,Roboto,sans-serif" text-anchor="end">35</text><text x="345.82" y="245" font-size="11">🔒</text><text x="365.82" y="245" font-size="11" fill="#9a6700" font-weight="600" font-family="system-ui,-apple-system,Segoe UI,Roboto,sans-serif">Private</text><text x="470.17999999999995" y="245" font-size="12" fill="#9a6700" font-weight="700" font-family="system-ui,-apple-system,Segoe UI,Roboto,sans-serif" text-anchor="end">62</text></g>
<rect x="488.17999999999995" y="3" width="328.82" height="264" rx="6" fill="#8250df" opacity="0.15" stroke="#8250df" stroke-width="1.5"/><path d="M494.17999999999995,3 h316.82 a6,6 0 0 1 6,6 v26 h-328.82 v-26 a6,6 0 0 1 6,-6 z" fill="#8250df" opacity="0.1"/><line x1="488.17999999999995" y1="35" x2="817" y2="35" stroke="#8250df" stroke-width="0.75" opacity="0.45"/><text x="496.17999999999995" y="19" font-size="12" fill="#8250df" font-family="system-ui,-apple-system,Segoe UI,Roboto,sans-serif" font-weight="700">Top Themes</text><text x="496.17999999999995" y="31" font-size="9" fill="#8250df" opacity="0.95" font-weight="600" font-family="system-ui,-apple-system,Segoe UI,Roboto,sans-serif">Topic clusters</text>
<g transform="translate(496.17999999999995, 41)">
<text x="4" y="22" font-size="11" fill="#8250df" font-family="system-ui,-apple-system,Segoe UI,Roboto,sans-serif">Cognitive<tspan x="4" dy="12">Architecture</tspan></text><rect x="137.3844" y="15" width="175.4356" height="18" rx="3" fill="#8250df" opacity="0.12"/><rect x="137.3844" y="15" width="126" height="18" rx="3" fill="#8250df" opacity="0.55"/><text x="268.3844" y="28" font-size="10" fill="#8250df" font-weight="700" font-family="system-ui,-apple-system,Segoe UI,Roboto,sans-serif">25</text><text x="4" y="62" font-size="11" fill="#8250df" font-family="system-ui,-apple-system,Segoe UI,Roboto,sans-serif">AI &amp; Copilot</text><rect x="137.3844" y="49" width="175.4356" height="18" rx="3" fill="#8250df" opacity="0.12"/><rect x="137.3844" y="49" width="121" height="18" rx="3" fill="#8250df" opacity="0.55"/><text x="263.3844" y="62" font-size="10" fill="#8250df" font-weight="700" font-family="system-ui,-apple-system,Segoe UI,Roboto,sans-serif">24</text><text x="4" y="96" font-size="11" fill="#8250df" font-family="system-ui,-apple-system,Segoe UI,Roboto,sans-serif">Developer Tools</text><rect x="137.3844" y="83" width="175.4356" height="18" rx="3" fill="#8250df" opacity="0.12"/><rect x="137.3844" y="83" width="85" height="18" rx="3" fill="#8250df" opacity="0.55"/><text x="227.3844" y="96" font-size="10" fill="#8250df" font-weight="700" font-family="system-ui,-apple-system,Segoe UI,Roboto,sans-serif">17</text><text x="4" y="130" font-size="11" fill="#8250df" font-family="system-ui,-apple-system,Segoe UI,Roboto,sans-serif">AI Agents &amp; Skills</text><rect x="137.3844" y="117" width="175.4356" height="18" rx="3" fill="#8250df" opacity="0.12"/><rect x="137.3844" y="117" width="80" height="18" rx="3" fill="#8250df" opacity="0.55"/><text x="222.3844" y="130" font-size="10" fill="#8250df" font-weight="700" font-family="system-ui,-apple-system,Segoe UI,Roboto,sans-serif">16</text><text x="4" y="164" font-size="11" fill="#8250df" font-family="system-ui,-apple-system,Segoe UI,Roboto,sans-serif">Responsible AI</text><rect x="137.3844" y="151" width="175.4356" height="18" rx="3" fill="#8250df" opacity="0.12"/><rect x="137.3844" y="151" width="70" height="18" rx="3" fill="#8250df" opacity="0.55"/><text x="212.3844" y="164" font-size="10" fill="#8250df" font-weight="700" font-family="system-ui,-apple-system,Segoe UI,Roboto,sans-serif">14</text><text x="4" y="198" font-size="11" fill="#8250df" font-family="system-ui,-apple-system,Segoe UI,Roboto,sans-serif">Learning &amp; Research</text><rect x="137.3844" y="185" width="175.4356" height="18" rx="3" fill="#8250df" opacity="0.12"/><rect x="137.3844" y="185" width="60" height="18" rx="3" fill="#8250df" opacity="0.55"/><text x="202.3844" y="198" font-size="10" fill="#8250df" font-weight="700" font-family="system-ui,-apple-system,Segoe UI,Roboto,sans-serif">12</text>
</g>
</g>
<text x="410" y="935" text-anchor="middle" font-family="Segoe UI, system-ui, sans-serif" font-size="13"><tspan font-weight="700" fill="#1f2328" >97</tspan><tspan fill="#64748b" dx="4">repositories across 10 categories</tspan><tspan fill="#64748b" dx="6">·</tspan><tspan font-weight="700" fill="#1f2328" dx="6">83</tspan><tspan fill="#64748b" dx="4">actively maintained</tspan><tspan fill="#64748b" dx="6">·</tspan><tspan font-weight="700" fill="#1f2328" dx="6">21</tspan><tspan fill="#64748b" dx="4">flagships</tspan></text>
</svg>