<svg xmlns="http://www.w3.org/2000/svg" viewBox="0 0 820 947" width="100%" preserveAspectRatio="xMidYMid meet" role="img" aria-label="Portfolio">
<title>Portfolio</title>
<g transform="translate(0, 0) scale(0.683333)">
<defs>
    <!-- Background gradient - deep space theme -->
    <linearGradient id="bgGrad" x1="0%" y1="0%" x2="100%" y2="100%">
      <stop offset="0%" stop-color="#020617"/>
      <stop offset="50%" stop-color="#0f172a"/>
      <stop offset="100%" stop-color="#1e293b"/>
    </linearGradient>

    <!-- Logo gradient with Azure blue -->
    <linearGradient id="logoGrad" x1="0%" y1="0%" x2="100%" y2="100%">
      <stop offset="0%" stop-color="#00bcf2"/>
      <stop offset="50%" stop-color="#0078d4"/>
      <stop offset="100%" stop-color="#005a9e"/>
    </linearGradient>

    <!-- Name gradient -->
    <linearGradient id="nameGrad" x1="0%" y1="0%" x2="100%" y2="0%">
      <stop offset="0%" stop-color="#f8fafc"/>
      <stop offset="50%" stop-color="#e2e8f0"/>
      <stop offset="100%" stop-color="#f8fafc"/>
    </linearGradient>

    <!-- Accent text gradient -->
    <linearGradient id="accentTextGrad" x1="0%" y1="0%" x2="100%" y2="0%">
      <stop offset="0%" stop-color="#00bcf2"/>
      <stop offset="50%" stop-color="#0078d4"/>
      <stop offset="100%" stop-color="#00bcf2"/>
    </linearGradient>

    <!-- Glow filter -->
    <filter id="glow" x="-50%" y="-50%" width="200%" height="200%">
      <feGaussianBlur stdDeviation="3" result="coloredBlur"/>
      <feMerge>
        <feMergeNode in="coloredBlur"/>
        <feMergeNode in="SourceGraphic"/>
      </feMerge>
    </filter>

    <!-- Strong glow for logo -->
    <filter id="logoGlow" x="-100%" y="-100%" width="300%" height="300%">
      <feGaussianBlur stdDeviation="6" result="blur1"/>
      <feGaussianBlur stdDeviation="12" result="blur2"/>
      <feMerge>
        <feMergeNode in="blur2"/>
        <feMergeNode in="blur1"/>
        <feMergeNode in="SourceGraphic"/>
      </feMerge>
    </filter>

    <!-- Radial glow behind logo -->
    <radialGradient id="logoBackGlow" cx="50%" cy="50%" r="50%">
      <stop offset="0%" stop-color="#0078d4" stop-opacity="0.4"/>
      <stop offset="50%" stop-color="#0078d4" stop-opacity="0.1"/>
      <stop offset="100%" stop-color="#0078d4" stop-opacity="0"/>
    </radialGradient>

    <!-- Grid pattern -->
    <pattern id="grid" width="50" height="50" patternUnits="userSpaceOnUse">
      <path d="M 50 0 L 0 0 0 50" fill="none" stroke="#1e3a5f" stroke-width="0.5" opacity="0.4"/>
    </pattern>

    <!-- Dot pattern -->
    <pattern id="dots" width="30" height="30" patternUnits="userSpaceOnUse">
      <circle cx="15" cy="15" r="1" fill="#0078d4" opacity="0.2"/>
    </pattern>

    <!-- Gradient for accent line -->
    <linearGradient id="accentGrad" x1="0%" y1="0%" x2="100%" y2="0%">
      <stop offset="0%" stop-color="#005a9e"/>
      <stop offset="25%" stop-color="#0078d4"/>
      <stop offset="50%" stop-color="#00bcf2"/>
      <stop offset="75%" stop-color="#0078d4"/>
      <stop offset="100%" stop-color="#005a9e"/>
    </linearGradient>

    <!-- Neural network gradient -->
    <linearGradient id="neuralGrad" x1="0%" y1="0%" x2="100%" y2="100%">
      <stop offset="0%" stop-color="#7c3aed"/>
      <stop offset="50%" stop-color="#0078d4"/>
      <stop offset="100%" stop-color="#00bcf2"/>
    </linearGradient>
  </defs>

  <!-- Background -->
  <rect width="1200" height="300" fill="url(#bgGrad)"/>

  <!-- Grid overlay -->
  <rect width="1200" height="300" fill="url(#grid)"/>

  <!-- Dot pattern overlay -->
  <rect width="1200" height="300" fill="url(#dots)" opacity="0.5"/>

  <!-- Large decorative orbs -->
  <circle cx="150" cy="150" r="180" fill="url(#logoBackGlow)"/>
  <circle cx="1050" cy="80" r="150" fill="#0078d4" opacity="0.05"/>
  <circle cx="1150" cy="280" r="180" fill="#00bcf2" opacity="0.03"/>
  <circle cx="50" cy="250" r="100" fill="#7c3aed" opacity="0.06"/>

  <!-- Neural network nodes - cognitive theme -->
  <g opacity="0.4">
    <!-- Left side neural cluster -->
    <circle cx="80" cy="60" r="4" fill="#7c3aed"/>
    <circle cx="120" cy="40" r="3" fill="#0078d4"/>
    <circle cx="60" cy="100" r="3" fill="#00bcf2"/>
    <circle cx="140" cy="90" r="2" fill="#7c3aed"/>
    <line x1="80" y1="60" x2="120" y2="40" stroke="#7c3aed" stroke-width="1"/>
    <line x1="80" y1="60" x2="60" y2="100" stroke="#0078d4" stroke-width="1"/>
    <line x1="120" y1="40" x2="140" y2="90" stroke="#00bcf2" stroke-width="0.5"/>

    <!-- Right side neural cluster -->
    <circle cx="1100" cy="70" r="3" fill="#00bcf2"/>
    <circle cx="1140" cy="50" r="2" fill="#0078d4"/>
    <circle cx="1080" cy="100" r="4" fill="#7c3aed"/>
    <circle cx="1120" cy="120" r="2" fill="#0078d4"/>
    <line x1="1100" y1="70" x2="1140" y2="50" stroke="#00bcf2" stroke-width="0.5"/>
    <line x1="1100" y1="70" x2="1080" y2="100" stroke="#7c3aed" stroke-width="1"/>
    <line x1="1080" y1="100" x2="1120" y2="120" stroke="#0078d4" stroke-width="0.5"/>
  </g>

  <!-- Floating particles -->
  <circle cx="300" cy="30" r="1.5" fill="#0078d4" opacity="0.5"/>
  <circle cx="500" cy="50" r="2" fill="#00bcf2" opacity="0.4"/>
  <circle cx="750" cy="25" r="1" fill="#7c3aed" opacity="0.6"/>
  <circle cx="950" cy="45" r="2.5" fill="#00bcf2" opacity="0.3"/>
  <circle cx="400" cy="270" r="2" fill="#00bcf2" opacity="0.4"/>
  <circle cx="700" cy="260" r="1.5" fill="#0078d4" opacity="0.5"/>
  <circle cx="900" cy="275" r="2" fill="#7c3aed" opacity="0.3"/>
  <circle cx="1050" cy="250" r="1" fill="#0078d4" opacity="0.6"/>

  <!-- Logo glow backdrop -->
  <ellipse cx="150" cy="150" rx="120" ry="110" fill="url(#logoBackGlow)"/>

  <!-- Logo mark (scaled) with glow -->
  <g transform="translate(55, 58) scale(6)" filter="url(#logoGlow)">
    <path d="M16 2C8.268 2 2 8.268 2 16s6.268 14 14 14c3.866 0 7.389-1.568 9.928-4.1l-3.535-3.536A9.002 9.002 0 0116 25c-4.97 0-9-4.03-9-9s4.03-9 9-9c2.29 0 4.38.857 5.971 2.268l3.464-3.639C22.993 3.352 19.66 2 16 2z" fill="url(#logoGrad)"/>
    <path d="M20 10l-4 6 4 6h4l-4-6 4-6h-4z" fill="url(#logoGrad)"/>
    <path d="M24 10l4 6-4 6h4l4-6-4-6h-4z" fill="url(#logoGrad)" opacity="0.6"/>
  </g>

  <text x="320" y="54" font-family="Segoe UI, system-ui, sans-serif" font-size="13" font-weight="600" fill="#94a3b8" letter-spacing="3">AUTOMATIC REPOSITORY PORTFOLIO FOR</text>
  <!-- Main name -->
  <text x="320" y="135" font-family="Segoe UI, system-ui, sans-serif" font-size="74" font-weight="700" fill="url(#nameGrad)" filter="url(#glow)">Dr. Fabio Correa, DBA</text>

  <!-- Title line -->
  <text x="320" y="180" font-family="Segoe UI, system-ui, sans-serif" font-size="22" fill="#94a3b8" letter-spacing="1" textLength="800" lengthAdjust="spacingAndGlyphs">Building AI-powered solutions for learning, research, and organizational development.</text>

  <!-- Tagline with accent -->
  <text x="320" y="220" font-family="Segoe UI, system-ui, sans-serif" font-size="18" fill="url(#accentTextGrad)" letter-spacing="1.5">THINK • BUILD • DEPLOY</text>

  <!-- Decorative accent line -->
  <line x1="320" y1="240" x2="850" y2="240" stroke="#334155" stroke-width="1"/>
  <line x1="320" y1="243" x2="600" y2="243" stroke="url(#accentGrad)" stroke-width="2" opacity="0.6"/>

  <!-- CorreaX branding badge -->
  <g transform="translate(320, 255)" font-family="Segoe UI, system-ui, sans-serif" font-size="12" fill="#94a3b8"><text letter-spacing="1">UPDATED</text><text x="70" font-weight="700">May 28 2026 07:13 EDT</text></g>

  <!-- Tech circuit decorations on right -->
  <g opacity="0.25">
    <path d="M1000 140 h80 v40 h40" stroke="#0078d4" stroke-width="1.5" fill="none"/>
    <circle cx="1000" cy="140" r="3" fill="#0078d4"/>
    <circle cx="1120" cy="180" r="4" fill="#00bcf2"/>
    <path d="M1020 200 h60 v-25 h30" stroke="#7c3aed" stroke-width="1" fill="none"/>
    <circle cx="1020" cy="200" r="2" fill="#7c3aed"/>
    <path d="M980 100 h50 l20 20 h40" stroke="#00bcf2" stroke-width="1" fill="none"/>
    <circle cx="980" cy="100" r="2" fill="#00bcf2"/>
  </g>

  <!-- Bottom accent bar with glow -->
  <rect x="0" y="290" width="1200" height="10" fill="url(#accentGrad)" filter="url(#glow)"/>
</g>
<g transform="translate(0, 217)">
<rect width="820" height="416" fill="none"/>
  <rect x="3" y="3" width="273.9038461538462" height="202" rx="6" fill="#57606a" opacity="0.15" stroke="#57606a" stroke-width="1.5"/><path d="M9,3 h261.9038461538462 a6,6 0 0 1 6,6 v16 h-273.9038461538462 v-16 a6,6 0 0 1 6,-6 z" fill="#57606a" opacity="0.1"/><line x1="3" y1="25" x2="276.9038461538462" y2="25" stroke="#57606a" stroke-width="0.75" opacity="0.45"/><text x="11" y="19" font-size="12" fill="#57606a" font-family="system-ui,-apple-system,Segoe UI,Roboto,sans-serif" font-weight="700">Other</text>
  <rect x="4" y="27" width="42.546743471612835" height="176" rx="3" fill="#57606a" opacity="0.36"/>
  <text x="25.273371735806418" y="115" text-anchor="middle" dominant-baseline="central" font-size="16" fill="#57606a" font-family="system-ui,sans-serif" font-weight="600" transform="rotate(-90,25.273371735806418,115)">prompt engineering</text>
  <rect x="47.546743471612835" y="27" width="39.39063028588574" height="176" rx="3" fill="#57606a" opacity="0.34"/>
  <text x="67.2420586145557" y="115" text-anchor="middle" dominant-baseline="central" font-size="16" fill="#57606a" font-family="system-ui,sans-serif" font-weight="600" transform="rotate(-90,67.2420586145557,115)">critical thinking</text>
  <rect x="87.93737375749858" y="27" width="39.39063028588574" height="176" rx="3" fill="#57606a" opacity="0.34"/>
  <text x="107.63268890044145" y="115" text-anchor="middle" dominant-baseline="central" font-size="16" fill="#57606a" font-family="system-ui,sans-serif" font-weight="600" transform="rotate(-90,107.63268890044145,115)">mcp</text>
  <rect x="128.3280040433843" y="27" width="32.16231494901385" height="176" rx="3" fill="#57606a" opacity="0.29"/>
  <text x="144.40916151789122" y="115" text-anchor="middle" dominant-baseline="central" font-size="16" fill="#57606a" font-family="system-ui,sans-serif" font-weight="400" transform="rotate(-90,144.40916151789122,115)">python</text>
  <rect x="161.49031899239816" y="27" width="27.853381790362004" height="176" rx="3" fill="#57606a" opacity="0.27"/>
  <text x="175.41700988757916" y="115" text-anchor="middle" dominant-baseline="central" font-size="16" fill="#57606a" font-family="system-ui,sans-serif" font-weight="400" transform="rotate(-90,175.41700988757916,115)">dashboard</text>
  <rect x="190.34370078276015" y="27" width="27.853381790362004" height="176" rx="3" fill="#57606a" opacity="0.27"/>
  <text x="204.27039167794115" y="115" text-anchor="middle" dominant-baseline="central" font-size="16" fill="#57606a" font-family="system-ui,sans-serif" font-weight="400" transform="rotate(-90,204.27039167794115,115)">fleet</text>
  <rect x="219.19708257312215" y="27" width="27.853381790362004" height="176" rx="3" fill="#57606a" opacity="0.27"/>
  <text x="233.12377346830314" y="115" text-anchor="middle" dominant-baseline="central" font-size="16" fill="#57606a" font-family="system-ui,sans-serif" font-weight="400" transform="rotate(-90,233.12377346830314,115)">dialog engineering</text>
  <rect x="248.05046436348414" y="27" width="27.85338179036205" height="176" rx="3" fill="#57606a" opacity="0.27"/>
  <text x="261.97715525866516" y="115" text-anchor="middle" dominant-baseline="central" font-size="16" fill="#57606a" font-family="system-ui,sans-serif" font-weight="400" transform="rotate(-90,261.97715525866516,115)">agentic ai</text>
  <rect x="282.9038461538462" y="3" width="175.34615384615384" height="202" rx="6" fill="#4e79a7" opacity="0.15" stroke="#4e79a7" stroke-width="1.5"/><path d="M288.9038461538462,3 h163.34615384615384 a6,6 0 0 1 6,6 v16 h-175.34615384615384 v-16 a6,6 0 0 1 6,-6 z" fill="#4e79a7" opacity="0.1"/><line x1="282.9038461538462" y1="25" x2="458.25" y2="25" stroke="#4e79a7" stroke-width="0.75" opacity="0.45"/><text x="290.9038461538462" y="19" font-size="12" fill="#4e79a7" font-family="system-ui,-apple-system,Segoe UI,Roboto,sans-serif" font-weight="700">AI &amp; Copilot</text>
  <rect x="283.9038461538462" y="27" width="29.925221093947936" height="176" rx="3" fill="#4e79a7" opacity="0.43"/>
  <text x="298.86645670082015" y="115" text-anchor="middle" dominant-baseline="central" font-size="16" fill="#4e79a7" font-family="system-ui,sans-serif" font-weight="600" transform="rotate(-90,298.86645670082015,115)">github copilot</text>
  <rect x="314.8290672477941" y="27" width="25.037236274500557" height="176" rx="3" fill="#4e79a7" opacity="0.36"/>
  <text x="327.3476853850444" y="115" text-anchor="middle" dominant-baseline="central" font-size="16" fill="#4e79a7" font-family="system-ui,sans-serif" font-weight="600" transform="rotate(-90,327.3476853850444,115)">ai assistant</text>
  <rect x="340.8663035222947" y="27" width="25.037236274500557" height="176" rx="3" fill="#4e79a7" opacity="0.36"/>
  <text x="353.38492165954494" y="115" text-anchor="middle" dominant-baseline="central" font-size="16" fill="#4e79a7" font-family="system-ui,sans-serif" font-weight="600" transform="rotate(-90,353.38492165954494,115)">copilot</text>
  <rect x="366.90353979679526" y="27" width="25.037236274500557" height="176" rx="3" fill="#4e79a7" opacity="0.36"/>
  <text x="379.4221579340455" y="115" text-anchor="middle" dominant-baseline="central" font-size="16" fill="#4e79a7" font-family="system-ui,sans-serif" font-weight="600" transform="rotate(-90,379.4221579340455,115)">ai</text>
  <rect x="392.94077607129583" y="27" width="21.160326764037297" height="176" rx="3" fill="#4e79a7" opacity="0.32"/>
  <text x="403.5209394533145" y="115" text-anchor="middle" dominant-baseline="central" font-size="15" fill="#4e79a7" font-family="system-ui,sans-serif" font-weight="400" transform="rotate(-90,403.5209394533145,115)">claude</text>
  <rect x="415.1011028353331" y="27" width="13.38296572155564" height="176" rx="3" fill="#4e79a7" opacity="0.25"/>
  <text x="421.7925856961109" y="115" text-anchor="middle" dominant-baseline="central" font-size="10" fill="#4e79a7" font-family="system-ui,sans-serif" font-weight="400" transform="rotate(-90,421.7925856961109,115)">claude skills</text>
  <rect x="429.48406855688876" y="27" width="13.38296572155564" height="176" rx="3" fill="#4e79a7" opacity="0.25"/>
  <text x="436.17555141766655" y="115" text-anchor="middle" dominant-baseline="central" font-size="10" fill="#4e79a7" font-family="system-ui,sans-serif" font-weight="400" transform="rotate(-90,436.17555141766655,115)">copilot skills</text>
  <rect x="443.8670342784444" y="27" width="13.382965721555593" height="176" rx="3" fill="#4e79a7" opacity="0.25"/>
  <text x="450.5585171392222" y="115" text-anchor="middle" dominant-baseline="central" font-size="10" fill="#4e79a7" font-family="system-ui,sans-serif" font-weight="400" transform="rotate(-90,450.5585171392222,115)">cursor skills</text>
  <rect x="464.25" y="3" width="151.6923076923077" height="202" rx="6" fill="#f28e2b" opacity="0.15" stroke="#f28e2b" stroke-width="1.5"/><path d="M470.25,3 h139.6923076923077 a6,6 0 0 1 6,6 v16 h-151.6923076923077 v-16 a6,6 0 0 1 6,-6 z" fill="#f28e2b" opacity="0.1"/><line x1="464.25" y1="25" x2="615.9423076923077" y2="25" stroke="#f28e2b" stroke-width="0.75" opacity="0.45"/><text x="472.25" y="19" font-size="12" fill="#f28e2b" font-family="system-ui,-apple-system,Segoe UI,Roboto,sans-serif" font-weight="700">Cognitive Architectu…</text>
  <rect x="465.25" y="27" width="28.345124245492787" height="176" rx="3" fill="#f28e2b" opacity="0.45"/>
  <text x="479.4225621227464" y="115" text-anchor="middle" dominant-baseline="central" font-size="13" fill="#f28e2b" font-family="system-ui,sans-serif" font-weight="600" transform="rotate(-90,479.4225621227464,115)">cognitive architecture</text>
  <rect x="494.5951242454928" y="27" width="27.026015555595567" height="176" rx="3" fill="#f28e2b" opacity="0.43"/>
  <text x="508.1081320232906" y="115" text-anchor="middle" dominant-baseline="central" font-size="16" fill="#f28e2b" font-family="system-ui,sans-serif" font-weight="600" transform="rotate(-90,508.1081320232906,115)">agent</text>
  <rect x="522.6211398010884" y="27" width="24.172803177311376" height="176" rx="3" fill="#f28e2b" opacity="0.38"/>
  <text x="534.707541389744" y="115" text-anchor="middle" dominant-baseline="central" font-size="16" fill="#f28e2b" font-family="system-ui,sans-serif" font-weight="600" transform="rotate(-90,534.707541389744,115)">agentic</text>
  <rect x="547.7939429783997" y="27" width="14.802758359285207" height="176" rx="3" fill="#f28e2b" opacity="0.27"/>
  <text x="555.1953221580424" y="115" text-anchor="middle" dominant-baseline="central" font-size="11" fill="#f28e2b" font-family="system-ui,sans-serif" font-weight="400" transform="rotate(-90,555.1953221580424,115)">model context protocol</text>
  <rect x="563.596701337685" y="27" width="12.086401588655688" height="176" rx="3" fill="#f28e2b" opacity="0.25"/>
  <text x="569.6399021320128" y="115" text-anchor="middle" dominant-baseline="central" font-size="9" fill="#f28e2b" font-family="system-ui,sans-serif" font-weight="400" transform="rotate(-90,569.6399021320128,115)">act framework</text>
  <rect x="576.6831029263407" y="27" width="12.086401588655688" height="176" rx="3" fill="#f28e2b" opacity="0.25"/>
  <text x="582.7263037206685" y="115" text-anchor="middle" dominant-baseline="central" font-size="9" fill="#f28e2b" font-family="system-ui,sans-serif" font-weight="400" transform="rotate(-90,582.7263037206685,115)">epistemic integrity</text>
  <rect x="589.7695045149964" y="27" width="12.086401588655688" height="176" rx="3" fill="#f28e2b" opacity="0.25"/>
  <text x="595.8127053093242" y="115" text-anchor="middle" dominant-baseline="central" font-size="9" fill="#f28e2b" font-family="system-ui,sans-serif" font-weight="400" transform="rotate(-90,595.8127053093242,115)">cognitive science</text>
  <rect x="602.855906103652" y="27" width="12.08640158865569" height="176" rx="3" fill="#f28e2b" opacity="0.25"/>
  <text x="608.8991068979799" y="115" text-anchor="middle" dominant-baseline="central" font-size="9" fill="#f28e2b" font-family="system-ui,sans-serif" font-weight="400" transform="rotate(-90,608.8991068979799,115)">memory systems</text>
  <rect x="621.9423076923077" y="3" width="120.15384615384616" height="202" rx="6" fill="#b07aa1" opacity="0.15" stroke="#b07aa1" stroke-width="1.5"/><path d="M627.9423076923077,3 h108.15384615384616 a6,6 0 0 1 6,6 v16 h-120.15384615384616 v-16 a6,6 0 0 1 6,-6 z" fill="#b07aa1" opacity="0.1"/><line x1="621.9423076923077" y1="25" x2="742.0961538461539" y2="25" stroke="#b07aa1" stroke-width="0.75" opacity="0.45"/><text x="629.9423076923077" y="19" font-size="12" fill="#b07aa1" font-family="system-ui,-apple-system,Segoe UI,Roboto,sans-serif" font-weight="700">Development Too…</text>
  <rect x="622.9423076923077" y="27" width="18.64133864659354" height="176" rx="3" fill="#b07aa1" opacity="0.34"/>
  <text x="632.2629770156045" y="115" text-anchor="middle" dominant-baseline="central" font-size="13" fill="#b07aa1" font-family="system-ui,sans-serif" font-weight="600" transform="rotate(-90,632.2629770156045,115)">typescript</text>
  <rect x="642.5836463389013" y="27" width="18.64133864659354" height="176" rx="3" fill="#b07aa1" opacity="0.34"/>
  <text x="651.9043156621981" y="115" text-anchor="middle" dominant-baseline="central" font-size="13" fill="#b07aa1" font-family="system-ui,sans-serif" font-weight="600" transform="rotate(-90,651.9043156621981,115)">vscode extension</text>
  <rect x="662.2249849854949" y="27" width="15.220589268859511" height="176" rx="3" fill="#b07aa1" opacity="0.29"/>
  <text x="669.8352796199247" y="115" text-anchor="middle" dominant-baseline="central" font-size="11" fill="#b07aa1" font-family="system-ui,sans-serif" font-weight="400" transform="rotate(-90,669.8352796199247,115)">vscode</text>
  <rect x="678.4455742543544" y="27" width="13.18141696740115" height="176" rx="3" fill="#b07aa1" opacity="0.27"/>
  <text x="685.036282738055" y="115" text-anchor="middle" dominant-baseline="central" font-size="9" fill="#b07aa1" font-family="system-ui,sans-serif" font-weight="400" transform="rotate(-90,685.036282738055,115)">react</text>
  <rect x="692.6269912217555" y="27" width="13.18141696740115" height="176" rx="3" fill="#b07aa1" opacity="0.27"/>
  <text x="699.2176997054561" y="115" text-anchor="middle" dominant-baseline="central" font-size="9" fill="#b07aa1" font-family="system-ui,sans-serif" font-weight="400" transform="rotate(-90,699.2176997054561,115)">developer tools</text>
  <rect x="706.8084081891566" y="27" width="10.762581885665755" height="176" rx="3" fill="#b07aa1" opacity="0.25"/>
  <text x="712.1896991319894" y="115" text-anchor="middle" dominant-baseline="central" font-size="8" fill="#b07aa1" font-family="system-ui,sans-serif" font-weight="400" transform="rotate(-90,712.1896991319894,115)">markdown</text>
  <rect x="718.5709900748224" y="27" width="10.762581885665755" height="176" rx="3" fill="#b07aa1" opacity="0.25"/>
  <text x="723.9522810176552" y="115" text-anchor="middle" dominant-baseline="central" font-size="8" fill="#b07aa1" font-family="system-ui,sans-serif" font-weight="400" transform="rotate(-90,723.9522810176552,115)">foundry local</text>
  <rect x="730.3335719604881" y="27" width="10.762581885665782" height="176" rx="3" fill="#b07aa1" opacity="0.25"/>
  <text x="735.7148629033211" y="115" text-anchor="middle" dominant-baseline="central" font-size="8" fill="#b07aa1" font-family="system-ui,sans-serif" font-weight="400" transform="rotate(-90,735.7148629033211,115)">local ai</text>
  <rect x="748.0961538461539" y="3" width="68.90384615384608" height="202" rx="6" fill="#e15759" opacity="0.15" stroke="#e15759" stroke-width="1.5"/><path d="M754.0961538461539,3 h56.903846153846075 a6,6 0 0 1 6,6 v16 h-68.90384615384608 v-16 a6,6 0 0 1 6,-6 z" fill="#e15759" opacity="0.1"/><line x1="748.0961538461539" y1="25" x2="817" y2="25" stroke="#e15759" stroke-width="0.75" opacity="0.45"/><text x="756.0961538461539" y="19" font-size="12" fill="#e15759" font-family="system-ui,-apple-system,Segoe UI,Roboto,sans-serif" font-weight="700">Learnin…</text>
  <rect x="749.0961538461539" y="27" width="8.45802905004012" height="176" rx="3" fill="#e15759" opacity="0.27"/>
  <text x="753.325168371174" y="115" text-anchor="middle" dominant-baseline="central" font-size="6" fill="#e15759" font-family="system-ui,sans-serif" font-weight="400" transform="rotate(-90,753.325168371174,115)">learning</text>
  <rect x="758.554182896194" y="27" width="8.45802905004012" height="176" rx="3" fill="#e15759" opacity="0.27"/>
  <text x="762.783197421214" y="115" text-anchor="middle" dominant-baseline="central" font-size="6" fill="#e15759" font-family="system-ui,sans-serif" font-weight="400" transform="rotate(-90,762.783197421214,115)">tutorial</text>
  <rect x="768.0122119462341" y="27" width="8.45802905004012" height="176" rx="3" fill="#e15759" opacity="0.27"/>
  <text x="772.2412264712541" y="115" text-anchor="middle" dominant-baseline="central" font-size="6" fill="#e15759" font-family="system-ui,sans-serif" font-weight="400" transform="rotate(-90,772.2412264712541,115)">utaut2</text>
  <rect x="777.4702409962741" y="27" width="6.905951800745141" height="176" rx="3" fill="#e15759" opacity="0.25"/>
  <rect x="785.3761927970193" y="27" width="6.905951800745141" height="176" rx="3" fill="#e15759" opacity="0.25"/>
  <rect x="793.2821445977644" y="27" width="6.905951800745141" height="176" rx="3" fill="#e15759" opacity="0.25"/>
  <rect x="801.1880963985095" y="27" width="6.905951800745141" height="176" rx="3" fill="#e15759" opacity="0.25"/>
  <rect x="809.0940481992546" y="27" width="6.905951800745356" height="176" rx="3" fill="#e15759" opacity="0.25"/>
  <rect x="3" y="211" width="215.26984126984127" height="202" rx="6" fill="#76b7b2" opacity="0.15" stroke="#76b7b2" stroke-width="1.5"/><path d="M9,211 h203.26984126984127 a6,6 0 0 1 6,6 v16 h-215.26984126984127 v-16 a6,6 0 0 1 6,-6 z" fill="#76b7b2" opacity="0.1"/><line x1="3" y1="233" x2="218.26984126984127" y2="233" stroke="#76b7b2" stroke-width="0.75" opacity="0.45"/><text x="11" y="227" font-size="12" fill="#76b7b2" font-family="system-ui,-apple-system,Segoe UI,Roboto,sans-serif" font-weight="700">AI Agents &amp; Skills</text>
  <rect x="4" y="235" width="41.551835722179725" height="176" rx="3" fill="#76b7b2" opacity="0.29"/>
  <text x="24.775917861089862" y="323" text-anchor="middle" dominant-baseline="central" font-size="16" fill="#76b7b2" font-family="system-ui,sans-serif" font-weight="400" transform="rotate(-90,24.775917861089862,323)">ai agents</text>
  <rect x="46.551835722179725" y="235" width="35.98494530928536" height="176" rx="3" fill="#76b7b2" opacity="0.27"/>
  <text x="64.5443083768224" y="323" text-anchor="middle" dominant-baseline="central" font-size="16" fill="#76b7b2" font-family="system-ui,sans-serif" font-weight="400" transform="rotate(-90,64.5443083768224,323)">agent skills</text>
  <rect x="83.53678103146508" y="235" width="35.98494530928536" height="176" rx="3" fill="#76b7b2" opacity="0.27"/>
  <text x="101.52925368610777" y="323" text-anchor="middle" dominant-baseline="central" font-size="16" fill="#76b7b2" font-family="system-ui,sans-serif" font-weight="400" transform="rotate(-90,101.52925368610777,323)">ai agent</text>
  <rect x="120.52172634075043" y="235" width="35.98494530928536" height="176" rx="3" fill="#76b7b2" opacity="0.27"/>
  <text x="138.51419899539312" y="323" text-anchor="middle" dominant-baseline="central" font-size="16" fill="#76b7b2" font-family="system-ui,sans-serif" font-weight="400" transform="rotate(-90,138.51419899539312,323)">skills</text>
  <rect x="157.5066716500358" y="235" width="29.381584809902712" height="176" rx="3" fill="#76b7b2" opacity="0.25"/>
  <text x="172.19746405498717" y="323" text-anchor="middle" dominant-baseline="central" font-size="16" fill="#76b7b2" font-family="system-ui,sans-serif" font-weight="400" transform="rotate(-90,172.19746405498717,323)">multilingual</text>
  <rect x="187.8882564599385" y="235" width="29.381584809902762" height="176" rx="3" fill="#76b7b2" opacity="0.25"/>
  <text x="202.5790488648899" y="323" text-anchor="middle" dominant-baseline="central" font-size="16" fill="#76b7b2" font-family="system-ui,sans-serif" font-weight="400" transform="rotate(-90,202.5790488648899,323)">skill marketplace</text>
  <rect x="224.26984126984127" y="211" width="215.26984126984127" height="202" rx="6" fill="#ff9da7" opacity="0.15" stroke="#ff9da7" stroke-width="1.5"/><path d="M230.26984126984127,211 h203.26984126984127 a6,6 0 0 1 6,6 v16 h-215.26984126984127 v-16 a6,6 0 0 1 6,-6 z" fill="#ff9da7" opacity="0.1"/><line x1="224.26984126984127" y1="233" x2="439.53968253968253" y2="233" stroke="#ff9da7" stroke-width="0.75" opacity="0.45"/><text x="232.26984126984127" y="227" font-size="12" fill="#ff9da7" font-family="system-ui,-apple-system,Segoe UI,Roboto,sans-serif" font-weight="700">Media &amp; Entertainment</text>
  <rect x="225.26984126984127" y="235" width="30.715594728867462" height="176" rx="3" fill="#ff9da7" opacity="0.27"/>
  <text x="240.627638634275" y="323" text-anchor="middle" dominant-baseline="central" font-size="16" fill="#ff9da7" font-family="system-ui,sans-serif" font-weight="400" transform="rotate(-90,240.627638634275,323)">spotify api</text>
  <rect x="256.98543599870874" y="235" width="25.07917807728197" height="176" rx="3" fill="#ff9da7" opacity="0.25"/>
  <text x="269.52502503734974" y="323" text-anchor="middle" dominant-baseline="central" font-size="16" fill="#ff9da7" font-family="system-ui,sans-serif" font-weight="400" transform="rotate(-90,269.52502503734974,323)">video analysis</text>
  <rect x="283.06461407599073" y="235" width="25.07917807728197" height="176" rx="3" fill="#ff9da7" opacity="0.25"/>
  <text x="295.60420311463173" y="323" text-anchor="middle" dominant-baseline="central" font-size="16" fill="#ff9da7" font-family="system-ui,sans-serif" font-weight="400" transform="rotate(-90,295.60420311463173,323)">youtube</text>
  <rect x="309.1437921532727" y="235" width="25.07917807728197" height="176" rx="3" fill="#ff9da7" opacity="0.25"/>
  <text x="321.6833811919137" y="323" text-anchor="middle" dominant-baseline="central" font-size="16" fill="#ff9da7" font-family="system-ui,sans-serif" font-weight="400" transform="rotate(-90,321.6833811919137,323)">music</text>
  <rect x="335.2229702305547" y="235" width="25.07917807728197" height="176" rx="3" fill="#ff9da7" opacity="0.25"/>
  <text x="347.7625592691957" y="323" text-anchor="middle" dominant-baseline="central" font-size="16" fill="#ff9da7" font-family="system-ui,sans-serif" font-weight="400" transform="rotate(-90,347.7625592691957,323)">playlist</text>
  <rect x="361.3021483078367" y="235" width="25.07917807728197" height="176" rx="3" fill="#ff9da7" opacity="0.25"/>
  <text x="373.8417373464777" y="323" text-anchor="middle" dominant-baseline="central" font-size="16" fill="#ff9da7" font-family="system-ui,sans-serif" font-weight="400" transform="rotate(-90,373.8417373464777,323)">spotify</text>
  <rect x="387.3813263851187" y="235" width="25.07917807728197" height="176" rx="3" fill="#ff9da7" opacity="0.25"/>
  <text x="399.9209154237597" y="323" text-anchor="middle" dominant-baseline="central" font-size="16" fill="#ff9da7" font-family="system-ui,sans-serif" font-weight="400" transform="rotate(-90,399.9209154237597,323)">audio</text>
  <rect x="413.4605044624007" y="235" width="25.079178077281824" height="176" rx="3" fill="#ff9da7" opacity="0.25"/>
  <text x="426.00009350104165" y="323" text-anchor="middle" dominant-baseline="central" font-size="16" fill="#ff9da7" font-family="system-ui,sans-serif" font-weight="400" transform="rotate(-90,426.00009350104165,323)">generative art</text>
  <rect x="445.53968253968253" y="211" width="189.23809523809524" height="202" rx="6" fill="#59a14f" opacity="0.15" stroke="#59a14f" stroke-width="1.5"/><path d="M451.53968253968253,211 h177.23809523809524 a6,6 0 0 1 6,6 v16 h-189.23809523809524 v-16 a6,6 0 0 1 6,-6 z" fill="#59a14f" opacity="0.1"/><line x1="445.53968253968253" y1="233" x2="634.7777777777778" y2="233" stroke="#59a14f" stroke-width="0.75" opacity="0.45"/><text x="453.53968253968253" y="227" font-size="12" fill="#59a14f" font-family="system-ui,-apple-system,Segoe UI,Roboto,sans-serif" font-weight="700">Cloud &amp; Azure</text>
  <rect x="446.53968253968253" y="235" width="65.21762708911781" height="176" rx="3" fill="#59a14f" opacity="0.36"/>
  <text x="479.14849608424146" y="323" text-anchor="middle" dominant-baseline="central" font-size="16" fill="#59a14f" font-family="system-ui,sans-serif" font-weight="600" transform="rotate(-90,479.14849608424146,323)">azure</text>
  <rect x="512.7573096288004" y="235" width="49.29989210730144" height="176" rx="3" fill="#59a14f" opacity="0.29"/>
  <text x="537.4072556824511" y="323" text-anchor="middle" dominant-baseline="central" font-size="16" fill="#59a14f" font-family="system-ui,sans-serif" font-weight="400" transform="rotate(-90,537.4072556824511,323)">azure openai</text>
  <rect x="563.0572017361018" y="235" width="34.860288020838" height="176" rx="3" fill="#59a14f" opacity="0.25"/>
  <text x="580.4873457465208" y="323" text-anchor="middle" dominant-baseline="central" font-size="16" fill="#59a14f" font-family="system-ui,sans-serif" font-weight="400" transform="rotate(-90,580.4873457465208,323)">azure functions</text>
  <rect x="598.9174897569397" y="235" width="34.860288020838084" height="176" rx="3" fill="#59a14f" opacity="0.25"/>
  <text x="616.3476337673587" y="323" text-anchor="middle" dominant-baseline="central" font-size="16" fill="#59a14f" font-family="system-ui,sans-serif" font-weight="400" transform="rotate(-90,616.3476337673587,323)">devops</text>
  <rect x="640.7777777777778" y="211" width="176.22222222222217" height="202" rx="6" fill="#edc948" opacity="0.15" stroke="#edc948" stroke-width="1.5"/><path d="M646.7777777777778,211 h164.22222222222217 a6,6 0 0 1 6,6 v16 h-176.22222222222217 v-16 a6,6 0 0 1 6,-6 z" fill="#edc948" opacity="0.1"/><line x1="640.7777777777778" y1="233" x2="817" y2="233" stroke="#edc948" stroke-width="0.75" opacity="0.45"/><text x="648.7777777777778" y="227" font-size="12" fill="#edc948" font-family="system-ui,-apple-system,Segoe UI,Roboto,sans-serif" font-weight="700">Responsible AI</text>
  <rect x="641.7777777777778" y="235" width="41.05435810032645" height="176" rx="3" fill="#edc948" opacity="0.29"/>
  <text x="662.304956827941" y="323" text-anchor="middle" dominant-baseline="central" font-size="16" fill="#edc948" font-family="system-ui,sans-serif" font-weight="400" transform="rotate(-90,662.304956827941,323)">responsible ai</text>
  <rect x="683.8321358781043" y="235" width="35.554117050946154" height="176" rx="3" fill="#edc948" opacity="0.27"/>
  <text x="701.6091944035774" y="323" text-anchor="middle" dominant-baseline="central" font-size="16" fill="#edc948" font-family="system-ui,sans-serif" font-weight="400" transform="rotate(-90,701.6091944035774,323)">ai adoption</text>
  <rect x="720.3862529290504" y="235" width="35.554117050946154" height="176" rx="3" fill="#edc948" opacity="0.27"/>
  <text x="738.1633114545235" y="323" text-anchor="middle" dominant-baseline="central" font-size="16" fill="#edc948" font-family="system-ui,sans-serif" font-weight="400" transform="rotate(-90,738.1633114545235,323)">ai governance</text>
  <rect x="756.9403699799966" y="235" width="29.029815010001702" height="176" rx="3" fill="#edc948" opacity="0.25"/>
  <text x="771.4552774849975" y="323" text-anchor="middle" dominant-baseline="central" font-size="13" fill="#edc948" font-family="system-ui,sans-serif" font-weight="400" transform="rotate(-90,771.4552774849975,323)">human ai collaboration</text>
  <rect x="786.9701849899983" y="235" width="29.0298150100017" height="176" rx="3" fill="#edc948" opacity="0.25"/>
  <text x="801.4850924949992" y="323" text-anchor="middle" dominant-baseline="central" font-size="16" fill="#edc948" font-family="system-ui,sans-serif" font-weight="400" transform="rotate(-90,801.4850924949992,323)">governance</text>
</g>
<g transform="translate(0, 639)">
<title>Portfolio at a Glance</title>
<rect width="820" height="270" fill="none"/>
<rect x="3" y="3" width="328.82" height="264" rx="6" fill="#0969da" opacity="0.15" stroke="#0969da" stroke-width="1.5"/><path d="M9,3 h316.82 a6,6 0 0 1 6,6 v26 h-328.82 v-26 a6,6 0 0 1 6,-6 z" fill="#0969da" opacity="0.1"/><line x1="3" y1="35" x2="331.82" y2="35" stroke="#0969da" stroke-width="0.75" opacity="0.45"/><text x="11" y="19" font-size="12" fill="#0969da" font-family="system-ui,-apple-system,Segoe UI,Roboto,sans-serif" font-weight="700">Top Languages</text><text x="11" y="31" font-size="9" fill="#0969da" opacity="0.95" font-weight="600" font-family="system-ui,-apple-system,Segoe UI,Roboto,sans-serif">By lines of code</text>
<g transform="translate(11, 41)">
<text x="4" y="28" font-size="11" fill="#0969da" font-family="system-ui,-apple-system,Segoe UI,Roboto,sans-serif">Python</text><rect x="137.3844" y="15" width="175.4356" height="18" rx="3" fill="#0969da" opacity="0.12"/><rect x="137.3844" y="15" width="109" height="18" rx="3" fill="#0969da" opacity="0.55"/><text x="251.3844" y="28" font-size="10" fill="#0969da" font-weight="700" font-family="system-ui,-apple-system,Segoe UI,Roboto,sans-serif">61.9%</text><text x="4" y="62" font-size="11" fill="#0969da" font-family="system-ui,-apple-system,Segoe UI,Roboto,sans-serif">Jupyter Notebook</text><rect x="137.3844" y="49" width="175.4356" height="18" rx="3" fill="#0969da" opacity="0.12"/><rect x="137.3844" y="49" width="28" height="18" rx="3" fill="#0969da" opacity="0.55"/><text x="170.3844" y="62" font-size="10" fill="#0969da" font-weight="700" font-family="system-ui,-apple-system,Segoe UI,Roboto,sans-serif">16.1%</text><text x="4" y="96" font-size="11" fill="#0969da" font-family="system-ui,-apple-system,Segoe UI,Roboto,sans-serif">JavaScript</text><rect x="137.3844" y="83" width="175.4356" height="18" rx="3" fill="#0969da" opacity="0.12"/><rect x="137.3844" y="83" width="21" height="18" rx="3" fill="#0969da" opacity="0.55"/><text x="163.3844" y="96" font-size="10" fill="#0969da" font-weight="700" font-family="system-ui,-apple-system,Segoe UI,Roboto,sans-serif">12.1%</text><text x="4" y="130" font-size="11" fill="#0969da" font-family="system-ui,-apple-system,Segoe UI,Roboto,sans-serif">TypeScript</text><rect x="137.3844" y="117" width="175.4356" height="18" rx="3" fill="#0969da" opacity="0.12"/><rect x="137.3844" y="117" width="10" height="18" rx="3" fill="#0969da" opacity="0.55"/><text x="152.3844" y="130" font-size="10" fill="#0969da" font-weight="700" font-family="system-ui,-apple-system,Segoe UI,Roboto,sans-serif">5.7%</text><text x="4" y="164" font-size="11" fill="#0969da" font-family="system-ui,-apple-system,Segoe UI,Roboto,sans-serif">Cython</text><rect x="137.3844" y="151" width="175.4356" height="18" rx="3" fill="#0969da" opacity="0.12"/><rect x="137.3844" y="151" width="2" height="18" rx="3" fill="#0969da" opacity="0.55"/><text x="144.3844" y="164" font-size="10" fill="#0969da" font-weight="700" font-family="system-ui,-apple-system,Segoe UI,Roboto,sans-serif">1.4%</text><text x="4" y="198" font-size="11" fill="#0969da" font-family="system-ui,-apple-system,Segoe UI,Roboto,sans-serif">PowerShell</text><rect x="137.3844" y="185" width="175.4356" height="18" rx="3" fill="#0969da" opacity="0.12"/><rect x="137.3844" y="185" width="2" height="18" rx="3" fill="#0969da" opacity="0.55"/><text x="144.3844" y="198" font-size="10" fill="#0969da" font-weight="700" font-family="system-ui,-apple-system,Segoe UI,Roboto,sans-serif">0.9%</text>
</g>
<rect x="337.82" y="3" width="144.35999999999999" height="264" rx="6" fill="#9a6700" opacity="0.15" stroke="#9a6700" stroke-width="1.5"/><path d="M343.82,3 h132.35999999999999 a6,6 0 0 1 6,6 v26 h-144.35999999999999 v-26 a6,6 0 0 1 6,-6 z" fill="#9a6700" opacity="0.1"/><line x1="337.82" y1="35" x2="482.17999999999995" y2="35" stroke="#9a6700" stroke-width="0.75" opacity="0.45"/><text x="345.82" y="19" font-size="12" fill="#9a6700" font-family="system-ui,-apple-system,Segoe UI,Roboto,sans-serif" font-weight="700">Tier &amp; Activity</text><text x="345.82" y="31" font-size="9" fill="#9a6700" opacity="0.95" font-weight="600" font-family="system-ui,-apple-system,Segoe UI,Roboto,sans-serif">Portfolio composition</text>
<text x="345.82" y="52" font-size="9" font-weight="700" fill="#9a6700" opacity="0.7" letter-spacing="0.6" font-family="system-ui,-apple-system,Segoe UI,Roboto,sans-serif">TIERS</text>
<g><text x="345.82" y="69" font-size="11">🏆</text><text x="365.82" y="69" font-size="11" fill="#9a6700" font-weight="600" font-family="system-ui,-apple-system,Segoe UI,Roboto,sans-serif">Flagship</text><text x="470.17999999999995" y="69" font-size="12" fill="#9a6700" font-weight="700" font-family="system-ui,-apple-system,Segoe UI,Roboto,sans-serif" text-anchor="end">21</text><text x="345.82" y="91" font-size="11">⭐</text><text x="365.82" y="91" font-size="11" fill="#9a6700" font-weight="600" font-family="system-ui,-apple-system,Segoe UI,Roboto,sans-serif">Notable</text><text x="470.17999999999995" y="91" font-size="12" fill="#9a6700" font-weight="700" font-family="system-ui,-apple-system,Segoe UI,Roboto,sans-serif" text-anchor="end">39</text><text x="345.82" y="113" font-size="11">🤖</text><text x="365.82" y="113" font-size="11" fill="#9a6700" font-weight="600" font-family="system-ui,-apple-system,Segoe UI,Roboto,sans-serif">Agents</text><text x="470.17999999999995" y="113" font-size="12" fill="#9a6700" font-weight="700" font-family="system-ui,-apple-system,Segoe UI,Roboto,sans-serif" text-anchor="end">75</text><text x="345.82" y="135" font-size="11">🪦</text><text x="365.82" y="135" font-size="11" fill="#9a6700" font-weight="600" font-family="system-ui,-apple-system,Segoe UI,Roboto,sans-serif">Archived</text><text x="470.17999999999995" y="135" font-size="12" fill="#9a6700" font-weight="700" font-family="system-ui,-apple-system,Segoe UI,Roboto,sans-serif" text-anchor="end">15</text></g>
<text x="345.82" y="162" font-size="9" font-weight="700" fill="#9a6700" opacity="0.7" letter-spacing="0.6" font-family="system-ui,-apple-system,Segoe UI,Roboto,sans-serif">ACTIVITY</text>
<g><text x="345.82" y="179" font-size="11">⭐</text><text x="365.82" y="179" font-size="11" fill="#9a6700" font-weight="600" font-family="system-ui,-apple-system,Segoe UI,Roboto,sans-serif">Stars</text><text x="470.17999999999995" y="179" font-size="12" fill="#9a6700" font-weight="700" font-family="system-ui,-apple-system,Segoe UI,Roboto,sans-serif" text-anchor="end">23</text><text x="345.82" y="201" font-size="11">🚀</text><text x="365.82" y="201" font-size="11" fill="#9a6700" font-weight="600" font-family="system-ui,-apple-system,Segoe UI,Roboto,sans-serif">Active &lt;30d</text><text x="470.17999999999995" y="201" font-size="12" fill="#9a6700" font-weight="700" font-family="system-ui,-apple-system,Segoe UI,Roboto,sans-serif" text-anchor="end">50</text><text x="345.82" y="223" font-size="11">📂</text><text x="365.82" y="223" font-size="11" fill="#9a6700" font-weight="600" font-family="system-ui,-apple-system,Segoe UI,Roboto,sans-serif">Public</text><text x="470.17999999999995" y="223" font-size="12" fill="#9a6700" font-weight="700" font-family="system-ui,-apple-system,Segoe UI,Roboto,sans-serif" text-anchor="end">34</text><text x="345.82" y="245" font-size="11">🔒</text><text x="365.82" y="245" font-size="11" fill="#9a6700" font-weight="600" font-family="system-ui,-apple-system,Segoe UI,Roboto,sans-serif">Private</text><text x="470.17999999999995" y="245" font-size="12" fill="#9a6700" font-weight="700" font-family="system-ui,-apple-system,Segoe UI,Roboto,sans-serif" text-anchor="end">48</text></g>
<rect x="488.17999999999995" y="3" width="328.82" height="264" rx="6" fill="#8250df" opacity="0.15" stroke="#8250df" stroke-width="1.5"/><path d="M494.17999999999995,3 h316.82 a6,6 0 0 1 6,6 v26 h-328.82 v-26 a6,6 0 0 1 6,-6 z" fill="#8250df" opacity="0.1"/><line x1="488.17999999999995" y1="35" x2="817" y2="35" stroke="#8250df" stroke-width="0.75" opacity="0.45"/><text x="496.17999999999995" y="19" font-size="12" fill="#8250df" font-family="system-ui,-apple-system,Segoe UI,Roboto,sans-serif" font-weight="700">Top Themes</text><text x="496.17999999999995" y="31" font-size="9" fill="#8250df" opacity="0.95" font-weight="600" font-family="system-ui,-apple-system,Segoe UI,Roboto,sans-serif">Topic clusters</text>
<g transform="translate(496.17999999999995, 41)">
<text x="4" y="28" font-size="11" fill="#8250df" font-family="system-ui,-apple-system,Segoe UI,Roboto,sans-serif">AI &amp; Copilot</text><rect x="137.3844" y="15" width="175.4356" height="18" rx="3" fill="#8250df" opacity="0.12"/><rect x="137.3844" y="15" width="109" height="18" rx="3" fill="#8250df" opacity="0.55"/><text x="251.3844" y="28" font-size="10" fill="#8250df" font-weight="700" font-family="system-ui,-apple-system,Segoe UI,Roboto,sans-serif">22</text><text x="4" y="56" font-size="11" fill="#8250df" font-family="system-ui,-apple-system,Segoe UI,Roboto,sans-serif">Cognitive<tspan x="4" dy="12">Architecture</tspan></text><rect x="137.3844" y="49" width="175.4356" height="18" rx="3" fill="#8250df" opacity="0.12"/><rect x="137.3844" y="49" width="104" height="18" rx="3" fill="#8250df" opacity="0.55"/><text x="246.3844" y="62" font-size="10" fill="#8250df" font-weight="700" font-family="system-ui,-apple-system,Segoe UI,Roboto,sans-serif">21</text><text x="4" y="96" font-size="11" fill="#8250df" font-family="system-ui,-apple-system,Segoe UI,Roboto,sans-serif">Development Tools</text><rect x="137.3844" y="83" width="175.4356" height="18" rx="3" fill="#8250df" opacity="0.12"/><rect x="137.3844" y="83" width="94" height="18" rx="3" fill="#8250df" opacity="0.55"/><text x="236.3844" y="96" font-size="10" fill="#8250df" font-weight="700" font-family="system-ui,-apple-system,Segoe UI,Roboto,sans-serif">19</text><text x="4" y="130" font-size="11" fill="#8250df" font-family="system-ui,-apple-system,Segoe UI,Roboto,sans-serif">AI Agents &amp; Skills</text><rect x="137.3844" y="117" width="175.4356" height="18" rx="3" fill="#8250df" opacity="0.12"/><rect x="137.3844" y="117" width="64" height="18" rx="3" fill="#8250df" opacity="0.55"/><text x="206.3844" y="130" font-size="10" fill="#8250df" font-weight="700" font-family="system-ui,-apple-system,Segoe UI,Roboto,sans-serif">13</text><text x="4" y="164" font-size="11" fill="#8250df" font-family="system-ui,-apple-system,Segoe UI,Roboto,sans-serif">Responsible AI</text><rect x="137.3844" y="151" width="175.4356" height="18" rx="3" fill="#8250df" opacity="0.12"/><rect x="137.3844" y="151" width="64" height="18" rx="3" fill="#8250df" opacity="0.55"/><text x="206.3844" y="164" font-size="10" fill="#8250df" font-weight="700" font-family="system-ui,-apple-system,Segoe UI,Roboto,sans-serif">13</text><text x="4" y="198" font-size="11" fill="#8250df" font-family="system-ui,-apple-system,Segoe UI,Roboto,sans-serif">Learning &amp; Research</text><rect x="137.3844" y="185" width="175.4356" height="18" rx="3" fill="#8250df" opacity="0.12"/><rect x="137.3844" y="185" width="54" height="18" rx="3" fill="#8250df" opacity="0.55"/><text x="196.3844" y="198" font-size="10" fill="#8250df" font-weight="700" font-family="system-ui,-apple-system,Segoe UI,Roboto,sans-serif">11</text>
</g>
</g>
<text x="410" y="935" text-anchor="middle" font-family="Segoe UI, system-ui, sans-serif" font-size="13"><tspan font-weight="700" fill="#1f2328" >82</tspan><tspan fill="#64748b" dx="4">repositories across 11 categories</tspan><tspan fill="#64748b" dx="6">·</tspan><tspan font-weight="700" fill="#1f2328" dx="6">67</tspan><tspan fill="#64748b" dx="4">actively maintained</tspan><tspan fill="#64748b" dx="6">·</tspan><tspan font-weight="700" fill="#1f2328" dx="6">21</tspan><tspan fill="#64748b" dx="4">flagships</tspan></text>
</svg>