<svg xmlns="http://www.w3.org/2000/svg" viewBox="0 0 820 947" width="100%" preserveAspectRatio="xMidYMid meet" role="img" aria-label="Portfolio">
<title>Portfolio</title>
<g transform="translate(0, 0) scale(0.683333)">
<defs>
    <!-- Background gradient - deep space theme -->
    <linearGradient id="bgGrad" x1="0%" y1="0%" x2="100%" y2="100%">
      <stop offset="0%" stop-color="#020617"/>
      <stop offset="50%" stop-color="#0f172a"/>
      <stop offset="100%" stop-color="#1e293b"/>
    </linearGradient>

    <!-- Logo gradient with Azure blue -->
    <linearGradient id="logoGrad" x1="0%" y1="0%" x2="100%" y2="100%">
      <stop offset="0%" stop-color="#00bcf2"/>
      <stop offset="50%" stop-color="#0078d4"/>
      <stop offset="100%" stop-color="#005a9e"/>
    </linearGradient>

    <!-- Name gradient -->
    <linearGradient id="nameGrad" x1="0%" y1="0%" x2="100%" y2="0%">
      <stop offset="0%" stop-color="#f8fafc"/>
      <stop offset="50%" stop-color="#e2e8f0"/>
      <stop offset="100%" stop-color="#f8fafc"/>
    </linearGradient>

    <!-- Accent text gradient -->
    <linearGradient id="accentTextGrad" x1="0%" y1="0%" x2="100%" y2="0%">
      <stop offset="0%" stop-color="#00bcf2"/>
      <stop offset="50%" stop-color="#0078d4"/>
      <stop offset="100%" stop-color="#00bcf2"/>
    </linearGradient>

    <!-- Glow filter -->
    <filter id="glow" x="-50%" y="-50%" width="200%" height="200%">
      <feGaussianBlur stdDeviation="3" result="coloredBlur"/>
      <feMerge>
        <feMergeNode in="coloredBlur"/>
        <feMergeNode in="SourceGraphic"/>
      </feMerge>
    </filter>

    <!-- Strong glow for logo -->
    <filter id="logoGlow" x="-100%" y="-100%" width="300%" height="300%">
      <feGaussianBlur stdDeviation="6" result="blur1"/>
      <feGaussianBlur stdDeviation="12" result="blur2"/>
      <feMerge>
        <feMergeNode in="blur2"/>
        <feMergeNode in="blur1"/>
        <feMergeNode in="SourceGraphic"/>
      </feMerge>
    </filter>

    <!-- Radial glow behind logo -->
    <radialGradient id="logoBackGlow" cx="50%" cy="50%" r="50%">
      <stop offset="0%" stop-color="#0078d4" stop-opacity="0.4"/>
      <stop offset="50%" stop-color="#0078d4" stop-opacity="0.1"/>
      <stop offset="100%" stop-color="#0078d4" stop-opacity="0"/>
    </radialGradient>

    <!-- Grid pattern -->
    <pattern id="grid" width="50" height="50" patternUnits="userSpaceOnUse">
      <path d="M 50 0 L 0 0 0 50" fill="none" stroke="#1e3a5f" stroke-width="0.5" opacity="0.4"/>
    </pattern>

    <!-- Dot pattern -->
    <pattern id="dots" width="30" height="30" patternUnits="userSpaceOnUse">
      <circle cx="15" cy="15" r="1" fill="#0078d4" opacity="0.2"/>
    </pattern>

    <!-- Gradient for accent line -->
    <linearGradient id="accentGrad" x1="0%" y1="0%" x2="100%" y2="0%">
      <stop offset="0%" stop-color="#005a9e"/>
      <stop offset="25%" stop-color="#0078d4"/>
      <stop offset="50%" stop-color="#00bcf2"/>
      <stop offset="75%" stop-color="#0078d4"/>
      <stop offset="100%" stop-color="#005a9e"/>
    </linearGradient>

    <!-- Neural network gradient -->
    <linearGradient id="neuralGrad" x1="0%" y1="0%" x2="100%" y2="100%">
      <stop offset="0%" stop-color="#7c3aed"/>
      <stop offset="50%" stop-color="#0078d4"/>
      <stop offset="100%" stop-color="#00bcf2"/>
    </linearGradient>
  </defs>

  <!-- Background -->
  <rect width="1200" height="300" fill="url(#bgGrad)"/>

  <!-- Grid overlay -->
  <rect width="1200" height="300" fill="url(#grid)"/>

  <!-- Dot pattern overlay -->
  <rect width="1200" height="300" fill="url(#dots)" opacity="0.5"/>

  <!-- Large decorative orbs -->
  <circle cx="150" cy="150" r="180" fill="url(#logoBackGlow)"/>
  <circle cx="1050" cy="80" r="150" fill="#0078d4" opacity="0.05"/>
  <circle cx="1150" cy="280" r="180" fill="#00bcf2" opacity="0.03"/>
  <circle cx="50" cy="250" r="100" fill="#7c3aed" opacity="0.06"/>

  <!-- Neural network nodes - cognitive theme -->
  <g opacity="0.4">
    <!-- Left side neural cluster -->
    <circle cx="80" cy="60" r="4" fill="#7c3aed"/>
    <circle cx="120" cy="40" r="3" fill="#0078d4"/>
    <circle cx="60" cy="100" r="3" fill="#00bcf2"/>
    <circle cx="140" cy="90" r="2" fill="#7c3aed"/>
    <line x1="80" y1="60" x2="120" y2="40" stroke="#7c3aed" stroke-width="1"/>
    <line x1="80" y1="60" x2="60" y2="100" stroke="#0078d4" stroke-width="1"/>
    <line x1="120" y1="40" x2="140" y2="90" stroke="#00bcf2" stroke-width="0.5"/>

    <!-- Right side neural cluster -->
    <circle cx="1100" cy="70" r="3" fill="#00bcf2"/>
    <circle cx="1140" cy="50" r="2" fill="#0078d4"/>
    <circle cx="1080" cy="100" r="4" fill="#7c3aed"/>
    <circle cx="1120" cy="120" r="2" fill="#0078d4"/>
    <line x1="1100" y1="70" x2="1140" y2="50" stroke="#00bcf2" stroke-width="0.5"/>
    <line x1="1100" y1="70" x2="1080" y2="100" stroke="#7c3aed" stroke-width="1"/>
    <line x1="1080" y1="100" x2="1120" y2="120" stroke="#0078d4" stroke-width="0.5"/>
  </g>

  <!-- Floating particles -->
  <circle cx="300" cy="30" r="1.5" fill="#0078d4" opacity="0.5"/>
  <circle cx="500" cy="50" r="2" fill="#00bcf2" opacity="0.4"/>
  <circle cx="750" cy="25" r="1" fill="#7c3aed" opacity="0.6"/>
  <circle cx="950" cy="45" r="2.5" fill="#00bcf2" opacity="0.3"/>
  <circle cx="400" cy="270" r="2" fill="#00bcf2" opacity="0.4"/>
  <circle cx="700" cy="260" r="1.5" fill="#0078d4" opacity="0.5"/>
  <circle cx="900" cy="275" r="2" fill="#7c3aed" opacity="0.3"/>
  <circle cx="1050" cy="250" r="1" fill="#0078d4" opacity="0.6"/>

  <!-- Logo glow backdrop -->
  <ellipse cx="150" cy="150" rx="120" ry="110" fill="url(#logoBackGlow)"/>

  <!-- Logo mark (scaled) with glow -->
  <g transform="translate(55, 58) scale(6)" filter="url(#logoGlow)">
    <path d="M16 2C8.268 2 2 8.268 2 16s6.268 14 14 14c3.866 0 7.389-1.568 9.928-4.1l-3.535-3.536A9.002 9.002 0 0116 25c-4.97 0-9-4.03-9-9s4.03-9 9-9c2.29 0 4.38.857 5.971 2.268l3.464-3.639C22.993 3.352 19.66 2 16 2z" fill="url(#logoGrad)"/>
    <path d="M20 10l-4 6 4 6h4l-4-6 4-6h-4z" fill="url(#logoGrad)"/>
    <path d="M24 10l4 6-4 6h4l4-6-4-6h-4z" fill="url(#logoGrad)" opacity="0.6"/>
  </g>

  <text x="320" y="54" font-family="Segoe UI, system-ui, sans-serif" font-size="13" font-weight="600" fill="#94a3b8" letter-spacing="3">AUTOMATIC REPOSITORY PORTFOLIO FOR</text>
  <!-- Main name -->
  <text x="320" y="135" font-family="Segoe UI, system-ui, sans-serif" font-size="74" font-weight="700" fill="url(#nameGrad)" filter="url(#glow)">Dr. Fabio Correa, DBA</text>

  <!-- Title line -->
  <text x="320" y="180" font-family="Segoe UI, system-ui, sans-serif" font-size="22" fill="#94a3b8" letter-spacing="1" textLength="800" lengthAdjust="spacingAndGlyphs">Building AI-powered solutions for organizational learning, cognitive architecture, and responsible AI adoption.</text>

  <!-- Tagline with accent -->
  <text x="320" y="220" font-family="Segoe UI, system-ui, sans-serif" font-size="18" fill="url(#accentTextGrad)" letter-spacing="1.5">THINK • BUILD • DEPLOY</text>

  <!-- Decorative accent line -->
  <line x1="320" y1="240" x2="850" y2="240" stroke="#334155" stroke-width="1"/>
  <line x1="320" y1="243" x2="600" y2="243" stroke="url(#accentGrad)" stroke-width="2" opacity="0.6"/>

  <!-- CorreaX branding badge -->
  <g transform="translate(320, 255)" font-family="Segoe UI, system-ui, sans-serif" font-size="12" fill="#94a3b8"><text letter-spacing="1">UPDATED</text><text x="70" font-weight="700">Aug 05 2026 06:50 EDT</text></g>

  <!-- Tech circuit decorations on right -->
  <g opacity="0.25">
    <path d="M1000 140 h80 v40 h40" stroke="#0078d4" stroke-width="1.5" fill="none"/>
    <circle cx="1000" cy="140" r="3" fill="#0078d4"/>
    <circle cx="1120" cy="180" r="4" fill="#00bcf2"/>
    <path d="M1020 200 h60 v-25 h30" stroke="#7c3aed" stroke-width="1" fill="none"/>
    <circle cx="1020" cy="200" r="2" fill="#7c3aed"/>
    <path d="M980 100 h50 l20 20 h40" stroke="#00bcf2" stroke-width="1" fill="none"/>
    <circle cx="980" cy="100" r="2" fill="#00bcf2"/>
  </g>

  <!-- Bottom accent bar with glow -->
  <rect x="0" y="290" width="1200" height="10" fill="url(#accentGrad)" filter="url(#glow)"/>
</g>
<g transform="translate(0, 217)">
<rect width="820" height="416" fill="none"/>
  <rect x="3" y="3" width="248.235807860262" height="202" rx="6" fill="#57606a" opacity="0.15" stroke="#57606a" stroke-width="1.5"/><path d="M9,3 h236.235807860262 a6,6 0 0 1 6,6 v16 h-248.235807860262 v-16 a6,6 0 0 1 6,-6 z" fill="#57606a" opacity="0.1"/><line x1="3" y1="25" x2="251.235807860262" y2="25" stroke="#57606a" stroke-width="0.75" opacity="0.45"/><text x="11" y="19" font-size="12" fill="#57606a" font-family="system-ui,-apple-system,Segoe UI,Roboto,sans-serif" font-weight="700">Other</text>
  <rect x="4" y="27" width="42.45537660374743" height="176" rx="3" fill="#57606a" opacity="0.35"/>
  <text x="25.227688301873716" y="115" text-anchor="middle" dominant-baseline="central" font-size="16" fill="#57606a" font-family="system-ui,sans-serif" font-weight="600" transform="rotate(-90,25.227688301873716,115)">prompt engineering</text>
  <rect x="47.45537660374743" y="27" width="36.767434666080774" height="176" rx="3" fill="#57606a" opacity="0.32"/>
  <text x="65.83909393678782" y="115" text-anchor="middle" dominant-baseline="central" font-size="16" fill="#57606a" font-family="system-ui,sans-serif" font-weight="400" transform="rotate(-90,65.83909393678782,115)">mcp</text>
  <rect x="85.22281126982821" y="27" width="30.020484694338506" height="176" rx="3" fill="#57606a" opacity="0.28"/>
  <text x="100.23305361699747" y="115" text-anchor="middle" dominant-baseline="central" font-size="16" fill="#57606a" font-family="system-ui,sans-serif" font-weight="400" transform="rotate(-90,100.23305361699747,115)">python</text>
  <rect x="116.24329596416672" y="27" width="25.99850237921906" height="176" rx="3" fill="#57606a" opacity="0.27"/>
  <text x="129.24254715377626" y="115" text-anchor="middle" dominant-baseline="central" font-size="16" fill="#57606a" font-family="system-ui,sans-serif" font-weight="400" transform="rotate(-90,129.24254715377626,115)">dashboard</text>
  <rect x="143.24179834338577" y="27" width="25.99850237921906" height="176" rx="3" fill="#57606a" opacity="0.27"/>
  <text x="156.2410495329953" y="115" text-anchor="middle" dominant-baseline="central" font-size="16" fill="#57606a" font-family="system-ui,sans-serif" font-weight="400" transform="rotate(-90,156.2410495329953,115)">fleet</text>
  <rect x="170.24030072260484" y="27" width="25.99850237921906" height="176" rx="3" fill="#57606a" opacity="0.27"/>
  <text x="183.23955191221438" y="115" text-anchor="middle" dominant-baseline="central" font-size="16" fill="#57606a" font-family="system-ui,sans-serif" font-weight="400" transform="rotate(-90,183.23955191221438,115)">dialog engineering</text>
  <rect x="197.23880310182392" y="27" width="25.99850237921906" height="176" rx="3" fill="#57606a" opacity="0.27"/>
  <text x="210.23805429143346" y="115" text-anchor="middle" dominant-baseline="central" font-size="16" fill="#57606a" font-family="system-ui,sans-serif" font-weight="400" transform="rotate(-90,210.23805429143346,115)">llm</text>
  <rect x="224.237305481043" y="27" width="25.99850237921902" height="176" rx="3" fill="#57606a" opacity="0.27"/>
  <text x="237.2365566706525" y="115" text-anchor="middle" dominant-baseline="central" font-size="16" fill="#57606a" font-family="system-ui,sans-serif" font-weight="400" transform="rotate(-90,237.2365566706525,115)">generative ai</text>
  <rect x="257.235807860262" y="3" width="173.03930131004367" height="202" rx="6" fill="#4e79a7" opacity="0.15" stroke="#4e79a7" stroke-width="1.5"/><path d="M263.235807860262,3 h161.03930131004367 a6,6 0 0 1 6,6 v16 h-173.03930131004367 v-16 a6,6 0 0 1 6,-6 z" fill="#4e79a7" opacity="0.1"/><line x1="257.235807860262" y1="25" x2="430.27510917030565" y2="25" stroke="#4e79a7" stroke-width="0.75" opacity="0.45"/><text x="265.235807860262" y="19" font-size="12" fill="#4e79a7" font-family="system-ui,-apple-system,Segoe UI,Roboto,sans-serif" font-weight="700">AI &amp; Copilot</text>
  <rect x="258.235807860262" y="27" width="32.746388230718985" height="176" rx="3" fill="#4e79a7" opacity="0.45"/>
  <text x="274.6090019756215" y="115" text-anchor="middle" dominant-baseline="central" font-size="16" fill="#4e79a7" font-family="system-ui,sans-serif" font-weight="600" transform="rotate(-90,274.6090019756215,115)">github copilot</text>
  <rect x="291.982196090981" y="27" width="23.155193177308742" height="176" rx="3" fill="#4e79a7" opacity="0.33"/>
  <text x="303.5597926796354" y="115" text-anchor="middle" dominant-baseline="central" font-size="16" fill="#4e79a7" font-family="system-ui,sans-serif" font-weight="600" transform="rotate(-90,303.5597926796354,115)">ai assistant</text>
  <rect x="316.1373892682897" y="27" width="23.155193177308742" height="176" rx="3" fill="#4e79a7" opacity="0.33"/>
  <text x="327.7149858569441" y="115" text-anchor="middle" dominant-baseline="central" font-size="16" fill="#4e79a7" font-family="system-ui,sans-serif" font-weight="600" transform="rotate(-90,327.7149858569441,115)">copilot</text>
  <rect x="340.29258244559844" y="27" width="23.155193177308742" height="176" rx="3" fill="#4e79a7" opacity="0.33"/>
  <text x="351.8701790342528" y="115" text-anchor="middle" dominant-baseline="central" font-size="16" fill="#4e79a7" font-family="system-ui,sans-serif" font-weight="600" transform="rotate(-90,351.8701790342528,115)">ai</text>
  <rect x="364.44777562290716" y="27" width="19.569710032863203" height="176" rx="3" fill="#4e79a7" opacity="0.30"/>
  <text x="374.23263063933877" y="115" text-anchor="middle" dominant-baseline="central" font-size="14" fill="#4e79a7" font-family="system-ui,sans-serif" font-weight="400" transform="rotate(-90,374.23263063933877,115)">claude</text>
  <rect x="385.0174856557704" y="27" width="17.503680773376704" height="176" rx="3" fill="#4e79a7" opacity="0.28"/>
  <text x="393.7693260424587" y="115" text-anchor="middle" dominant-baseline="central" font-size="13" fill="#4e79a7" font-family="system-ui,sans-serif" font-weight="400" transform="rotate(-90,393.7693260424587,115)">azure openai</text>
  <rect x="403.52116642914706" y="27" width="12.37697137057926" height="176" rx="3" fill="#4e79a7" opacity="0.25"/>
  <text x="409.70965211443666" y="115" text-anchor="middle" dominant-baseline="central" font-size="9" fill="#4e79a7" font-family="system-ui,sans-serif" font-weight="400" transform="rotate(-90,409.70965211443666,115)">openai</text>
  <rect x="416.8981377997263" y="27" width="12.376971370579327" height="176" rx="3" fill="#4e79a7" opacity="0.25"/>
  <text x="423.086623485016" y="115" text-anchor="middle" dominant-baseline="central" font-size="9" fill="#4e79a7" font-family="system-ui,sans-serif" font-weight="400" transform="rotate(-90,423.086623485016,115)">chatgpt</text>
  <rect x="436.27510917030565" y="3" width="137.23144104803492" height="202" rx="6" fill="#76b7b2" opacity="0.15" stroke="#76b7b2" stroke-width="1.5"/><path d="M442.27510917030565,3 h125.23144104803492 a6,6 0 0 1 6,6 v16 h-137.23144104803492 v-16 a6,6 0 0 1 6,-6 z" fill="#76b7b2" opacity="0.1"/><line x1="436.27510917030565" y1="25" x2="573.5065502183406" y2="25" stroke="#76b7b2" stroke-width="0.75" opacity="0.45"/><text x="444.27510917030565" y="19" font-size="12" fill="#76b7b2" font-family="system-ui,-apple-system,Segoe UI,Roboto,sans-serif" font-weight="700">AI Agents &amp; Skills</text>
  <rect x="437.27510917030565" y="27" width="25.330172153341266" height="176" rx="3" fill="#76b7b2" opacity="0.38"/>
  <text x="449.94019524697626" y="115" text-anchor="middle" dominant-baseline="central" font-size="16" fill="#76b7b2" font-family="system-ui,sans-serif" font-weight="600" transform="rotate(-90,449.94019524697626,115)">agent</text>
  <rect x="463.6052813236469" y="27" width="17.911136498250258" height="176" rx="3" fill="#76b7b2" opacity="0.30"/>
  <text x="472.56084957277204" y="115" text-anchor="middle" dominant-baseline="central" font-size="13" fill="#76b7b2" font-family="system-ui,sans-serif" font-weight="400" transform="rotate(-90,472.56084957277204,115)">ai agents</text>
  <rect x="482.51641782189716" y="27" width="16.02020750574605" height="176" rx="3" fill="#76b7b2" opacity="0.28"/>
  <text x="490.5265215747702" y="115" text-anchor="middle" dominant-baseline="central" font-size="12" fill="#76b7b2" font-family="system-ui,sans-serif" font-weight="400" transform="rotate(-90,490.5265215747702,115)">alex act</text>
  <rect x="499.5366253276432" y="27" width="16.02020750574605" height="176" rx="3" fill="#76b7b2" opacity="0.28"/>
  <text x="507.54672908051623" y="115" text-anchor="middle" dominant-baseline="central" font-size="12" fill="#76b7b2" font-family="system-ui,sans-serif" font-weight="400" transform="rotate(-90,507.54672908051623,115)">agent skills</text>
  <rect x="516.5568328333893" y="27" width="13.873906673874215" height="176" rx="3" fill="#76b7b2" opacity="0.27"/>
  <text x="523.4937861703264" y="115" text-anchor="middle" dominant-baseline="central" font-size="10" fill="#76b7b2" font-family="system-ui,sans-serif" font-weight="400" transform="rotate(-90,523.4937861703264,115)">copilot plugin</text>
  <rect x="531.4307395072635" y="27" width="13.873906673874215" height="176" rx="3" fill="#76b7b2" opacity="0.27"/>
  <text x="538.3676928442006" y="115" text-anchor="middle" dominant-baseline="central" font-size="10" fill="#76b7b2" font-family="system-ui,sans-serif" font-weight="400" transform="rotate(-90,538.3676928442006,115)">ai agent</text>
  <rect x="546.3046461811377" y="27" width="13.873906673874215" height="176" rx="3" fill="#76b7b2" opacity="0.27"/>
  <text x="553.2415995180748" y="115" text-anchor="middle" dominant-baseline="central" font-size="10" fill="#76b7b2" font-family="system-ui,sans-serif" font-weight="400" transform="rotate(-90,553.2415995180748,115)">skills</text>
  <rect x="561.178552855012" y="27" width="11.327997363328677" height="176" rx="3" fill="#76b7b2" opacity="0.25"/>
  <text x="566.8425515366763" y="115" text-anchor="middle" dominant-baseline="central" font-size="8" fill="#76b7b2" font-family="system-ui,sans-serif" font-weight="400" transform="rotate(-90,566.8425515366763,115)">claude skills</text>
  <rect x="579.5065502183406" y="3" width="133.65065502183407" height="202" rx="6" fill="#f28e2b" opacity="0.15" stroke="#f28e2b" stroke-width="1.5"/><path d="M585.5065502183406,3 h121.65065502183407 a6,6 0 0 1 6,6 v16 h-133.65065502183407 v-16 a6,6 0 0 1 6,-6 z" fill="#f28e2b" opacity="0.1"/><line x1="579.5065502183406" y1="25" x2="713.1572052401747" y2="25" stroke="#f28e2b" stroke-width="0.75" opacity="0.45"/><text x="587.5065502183406" y="19" font-size="12" fill="#f28e2b" font-family="system-ui,-apple-system,Segoe UI,Roboto,sans-serif" font-weight="700">Cognitive Archite…</text>
  <rect x="580.5065502183406" y="27" width="24.58578898531239" height="176" rx="3" fill="#f28e2b" opacity="0.40"/>
  <text x="592.7994447109968" y="115" text-anchor="middle" dominant-baseline="central" font-size="13" fill="#f28e2b" font-family="system-ui,sans-serif" font-weight="600" transform="rotate(-90,592.7994447109968,115)">cognitive architecture</text>
  <rect x="606.0923392036531" y="27" width="20.966831295345912" height="176" rx="3" fill="#f28e2b" opacity="0.35"/>
  <text x="616.575754851326" y="115" text-anchor="middle" dominant-baseline="central" font-size="15" fill="#f28e2b" font-family="system-ui,sans-serif" font-weight="600" transform="rotate(-90,616.575754851326,115)">agentic</text>
  <rect x="628.059170498999" y="27" width="19.61267479836852" height="176" rx="3" fill="#f28e2b" opacity="0.33"/>
  <text x="637.8655078981833" y="115" text-anchor="middle" dominant-baseline="central" font-size="14" fill="#f28e2b" font-family="system-ui,sans-serif" font-weight="600" transform="rotate(-90,637.8655078981833,115)">critical thinking</text>
  <rect x="648.6718452973676" y="27" width="12.839509549153787" height="176" rx="3" fill="#f28e2b" opacity="0.27"/>
  <text x="655.0916000719444" y="115" text-anchor="middle" dominant-baseline="central" font-size="9" fill="#f28e2b" font-family="system-ui,sans-serif" font-weight="400" transform="rotate(-90,655.0916000719444,115)">agentic ai</text>
  <rect x="662.5113548465214" y="27" width="12.839509549153787" height="176" rx="3" fill="#f28e2b" opacity="0.27"/>
  <text x="668.9311096210982" y="115" text-anchor="middle" dominant-baseline="central" font-size="9" fill="#f28e2b" font-family="system-ui,sans-serif" font-weight="400" transform="rotate(-90,668.9311096210982,115)">model context protocol</text>
  <rect x="676.3508643956752" y="27" width="12.839509549153787" height="176" rx="3" fill="#f28e2b" opacity="0.27"/>
  <text x="682.7706191702521" y="115" text-anchor="middle" dominant-baseline="central" font-size="9" fill="#f28e2b" font-family="system-ui,sans-serif" font-weight="400" transform="rotate(-90,682.7706191702521,115)">alex act edition</text>
  <rect x="690.190373944829" y="27" width="10.483415647672956" height="176" rx="3" fill="#f28e2b" opacity="0.25"/>
  <text x="695.4320817686655" y="115" text-anchor="middle" dominant-baseline="central" font-size="7" fill="#f28e2b" font-family="system-ui,sans-serif" font-weight="400" transform="rotate(-90,695.4320817686655,115)">act framework</text>
  <rect x="701.673789592502" y="27" width="10.4834156476727" height="176" rx="3" fill="#f28e2b" opacity="0.25"/>
  <text x="706.9154974163383" y="115" text-anchor="middle" dominant-baseline="central" font-size="7" fill="#f28e2b" font-family="system-ui,sans-serif" font-weight="400" transform="rotate(-90,706.9154974163383,115)">epistemic integrity</text>
  <rect x="719.1572052401747" y="3" width="97.84279475982532" height="202" rx="6" fill="#e15759" opacity="0.15" stroke="#e15759" stroke-width="1.5"/><path d="M725.1572052401747,3 h85.84279475982532 a6,6 0 0 1 6,6 v16 h-97.84279475982532 v-16 a6,6 0 0 1 6,-6 z" fill="#e15759" opacity="0.1"/><line x1="719.1572052401747" y1="25" x2="817" y2="25" stroke="#e15759" stroke-width="0.75" opacity="0.45"/><text x="727.1572052401747" y="19" font-size="12" fill="#e15759" font-family="system-ui,-apple-system,Segoe UI,Roboto,sans-serif" font-weight="700">Learning &amp; R…</text>
  <rect x="720.1572052401747" y="27" width="12.544018242760352" height="176" rx="3" fill="#e15759" opacity="0.27"/>
  <text x="726.4292143615548" y="115" text-anchor="middle" dominant-baseline="central" font-size="9" fill="#e15759" font-family="system-ui,sans-serif" font-weight="400" transform="rotate(-90,726.4292143615548,115)">learning</text>
  <rect x="733.701223482935" y="27" width="12.544018242760352" height="176" rx="3" fill="#e15759" opacity="0.27"/>
  <text x="739.9732326043152" y="115" text-anchor="middle" dominant-baseline="central" font-size="9" fill="#e15759" font-family="system-ui,sans-serif" font-weight="400" transform="rotate(-90,739.9732326043152,115)">tutorial</text>
  <rect x="747.2452417256953" y="27" width="12.544018242760352" height="176" rx="3" fill="#e15759" opacity="0.27"/>
  <text x="753.5172508470755" y="115" text-anchor="middle" dominant-baseline="central" font-size="9" fill="#e15759" font-family="system-ui,sans-serif" font-weight="400" transform="rotate(-90,753.5172508470755,115)">utaut2</text>
  <rect x="760.7892599684557" y="27" width="10.24214800630885" height="176" rx="3" fill="#e15759" opacity="0.25"/>
  <text x="765.91033397161" y="115" text-anchor="middle" dominant-baseline="central" font-size="7" fill="#e15759" font-family="system-ui,sans-serif" font-weight="400" transform="rotate(-90,765.91033397161,115)">neuroscience</text>
  <rect x="772.0314079747645" y="27" width="10.24214800630885" height="176" rx="3" fill="#e15759" opacity="0.25"/>
  <text x="777.1524819779189" y="115" text-anchor="middle" dominant-baseline="central" font-size="7" fill="#e15759" font-family="system-ui,sans-serif" font-weight="400" transform="rotate(-90,777.1524819779189,115)">research</text>
  <rect x="783.2735559810734" y="27" width="10.24214800630885" height="176" rx="3" fill="#e15759" opacity="0.25"/>
  <text x="788.3946299842278" y="115" text-anchor="middle" dominant-baseline="central" font-size="7" fill="#e15759" font-family="system-ui,sans-serif" font-weight="400" transform="rotate(-90,788.3946299842278,115)">cognitive science</text>
  <rect x="794.5157039873823" y="27" width="10.24214800630885" height="176" rx="3" fill="#e15759" opacity="0.25"/>
  <text x="799.6367779905366" y="115" text-anchor="middle" dominant-baseline="central" font-size="7" fill="#e15759" font-family="system-ui,sans-serif" font-weight="400" transform="rotate(-90,799.6367779905366,115)">academic research</text>
  <rect x="805.7578519936911" y="27" width="10.242148006308867" height="176" rx="3" fill="#e15759" opacity="0.25"/>
  <text x="810.8789259968455" y="115" text-anchor="middle" dominant-baseline="central" font-size="7" fill="#e15759" font-family="system-ui,sans-serif" font-weight="400" transform="rotate(-90,810.8789259968455,115)">memory systems</text>
  <rect x="3" y="211" width="274" height="202" rx="6" fill="#b07aa1" opacity="0.15" stroke="#b07aa1" stroke-width="1.5"/><path d="M9,211 h262 a6,6 0 0 1 6,6 v16 h-274 v-16 a6,6 0 0 1 6,-6 z" fill="#b07aa1" opacity="0.1"/><line x1="3" y1="233" x2="277" y2="233" stroke="#b07aa1" stroke-width="0.75" opacity="0.45"/><text x="11" y="227" font-size="12" fill="#b07aa1" font-family="system-ui,-apple-system,Segoe UI,Roboto,sans-serif" font-weight="700">Developer Tools</text>
  <rect x="4" y="235" width="48.05985107354502" height="176" rx="3" fill="#b07aa1" opacity="0.33"/>
  <text x="28.02992553677251" y="323" text-anchor="middle" dominant-baseline="central" font-size="16" fill="#b07aa1" font-family="system-ui,sans-serif" font-weight="600" transform="rotate(-90,28.02992553677251,323)">typescript</text>
  <rect x="53.05985107354502" y="235" width="40.61798761642544" height="176" rx="3" fill="#b07aa1" opacity="0.30"/>
  <text x="73.36884488175774" y="323" text-anchor="middle" dominant-baseline="central" font-size="16" fill="#b07aa1" font-family="system-ui,sans-serif" font-weight="400" transform="rotate(-90,73.36884488175774,323)">vscode extension</text>
  <rect x="94.67783868997046" y="235" width="36.32983256782877" height="176" rx="3" fill="#b07aa1" opacity="0.28"/>
  <text x="112.84275497388484" y="323" text-anchor="middle" dominant-baseline="central" font-size="16" fill="#b07aa1" font-family="system-ui,sans-serif" font-weight="400" transform="rotate(-90,112.84275497388484,323)">vscode</text>
  <rect x="132.00767125779922" y="235" width="31.46255791897496" height="176" rx="3" fill="#b07aa1" opacity="0.27"/>
  <text x="147.73895021728669" y="323" text-anchor="middle" dominant-baseline="central" font-size="16" fill="#b07aa1" font-family="system-ui,sans-serif" font-weight="400" transform="rotate(-90,147.73895021728669,323)">react</text>
  <rect x="164.47022917677418" y="235" width="31.46255791897496" height="176" rx="3" fill="#b07aa1" opacity="0.27"/>
  <text x="180.20150813626165" y="323" text-anchor="middle" dominant-baseline="central" font-size="16" fill="#b07aa1" font-family="system-ui,sans-serif" font-weight="400" transform="rotate(-90,180.20150813626165,323)">developer tools</text>
  <rect x="196.93278709574915" y="235" width="25.689070968083605" height="176" rx="3" fill="#b07aa1" opacity="0.25"/>
  <text x="209.77732257979096" y="323" text-anchor="middle" dominant-baseline="central" font-size="16" fill="#b07aa1" font-family="system-ui,sans-serif" font-weight="400" transform="rotate(-90,209.77732257979096,323)">markdown</text>
  <rect x="223.62185806383275" y="235" width="25.689070968083605" height="176" rx="3" fill="#b07aa1" opacity="0.25"/>
  <text x="236.46639354787456" y="323" text-anchor="middle" dominant-baseline="central" font-size="16" fill="#b07aa1" font-family="system-ui,sans-serif" font-weight="400" transform="rotate(-90,236.46639354787456,323)">pdf</text>
  <rect x="250.31092903191634" y="235" width="25.689070968083655" height="176" rx="3" fill="#b07aa1" opacity="0.25"/>
  <text x="263.15546451595816" y="323" text-anchor="middle" dominant-baseline="central" font-size="16" fill="#b07aa1" font-family="system-ui,sans-serif" font-weight="400" transform="rotate(-90,263.15546451595816,323)">svg</text>
  <rect x="283" y="211" width="184" height="202" rx="6" fill="#59a14f" opacity="0.15" stroke="#59a14f" stroke-width="1.5"/><path d="M289,211 h172 a6,6 0 0 1 6,6 v16 h-184 v-16 a6,6 0 0 1 6,-6 z" fill="#59a14f" opacity="0.1"/><line x1="283" y1="233" x2="467" y2="233" stroke="#59a14f" stroke-width="0.75" opacity="0.45"/><text x="291" y="227" font-size="12" fill="#59a14f" font-family="system-ui,-apple-system,Segoe UI,Roboto,sans-serif" font-weight="700">Cloud &amp; Azure</text>
  <rect x="284" y="235" width="48.99827001528631" height="176" rx="3" fill="#59a14f" opacity="0.35"/>
  <text x="308.49913500764313" y="323" text-anchor="middle" dominant-baseline="central" font-size="16" fill="#59a14f" font-family="system-ui,sans-serif" font-weight="600" transform="rotate(-90,308.49913500764313,323)">azure</text>
  <rect x="333.9982700152863" y="235" width="30.005189954141088" height="176" rx="3" fill="#59a14f" opacity="0.27"/>
  <text x="349.00086499235687" y="323" text-anchor="middle" dominant-baseline="central" font-size="16" fill="#59a14f" font-family="system-ui,sans-serif" font-weight="400" transform="rotate(-90,349.00086499235687,323)">azure functions</text>
  <rect x="365.0034599694274" y="235" width="24.499135007643154" height="176" rx="3" fill="#59a14f" opacity="0.25"/>
  <text x="377.253027473249" y="323" text-anchor="middle" dominant-baseline="central" font-size="13" fill="#59a14f" font-family="system-ui,sans-serif" font-weight="400" transform="rotate(-90,377.253027473249,323)">azure static web apps</text>
  <rect x="390.50259497707054" y="235" width="24.499135007643154" height="176" rx="3" fill="#59a14f" opacity="0.25"/>
  <text x="402.75216248089214" y="323" text-anchor="middle" dominant-baseline="central" font-size="16" fill="#59a14f" font-family="system-ui,sans-serif" font-weight="400" transform="rotate(-90,402.75216248089214,323)">serverless</text>
  <rect x="416.0017299847137" y="235" width="24.499135007643154" height="176" rx="3" fill="#59a14f" opacity="0.25"/>
  <text x="428.2512974885353" y="323" text-anchor="middle" dominant-baseline="central" font-size="16" fill="#59a14f" font-family="system-ui,sans-serif" font-weight="400" transform="rotate(-90,428.2512974885353,323)">devops</text>
  <rect x="441.5008649923568" y="235" width="24.49913500764319" height="176" rx="3" fill="#59a14f" opacity="0.25"/>
  <text x="453.7504324961784" y="323" text-anchor="middle" dominant-baseline="central" font-size="16" fill="#59a14f" font-family="system-ui,sans-serif" font-weight="400" transform="rotate(-90,453.7504324961784,323)">nodejs</text>
  <rect x="473" y="211" width="184" height="202" rx="6" fill="#ff9da7" opacity="0.15" stroke="#ff9da7" stroke-width="1.5"/><path d="M479,211 h172 a6,6 0 0 1 6,6 v16 h-184 v-16 a6,6 0 0 1 6,-6 z" fill="#ff9da7" opacity="0.1"/><line x1="473" y1="233" x2="657" y2="233" stroke="#ff9da7" stroke-width="0.75" opacity="0.45"/><text x="481" y="227" font-size="12" fill="#ff9da7" font-family="system-ui,-apple-system,Segoe UI,Roboto,sans-serif" font-weight="700">Media &amp; Entertainment</text>
  <rect x="474" y="235" width="26.059209841151503" height="176" rx="3" fill="#ff9da7" opacity="0.27"/>
  <text x="487.02960492057576" y="323" text-anchor="middle" dominant-baseline="central" font-size="16" fill="#ff9da7" font-family="system-ui,sans-serif" font-weight="400" transform="rotate(-90,487.02960492057576,323)">spotify api</text>
  <rect x="501.0592098411515" y="235" width="21.277255736978354" height="176" rx="3" fill="#ff9da7" opacity="0.25"/>
  <text x="511.6978377096407" y="323" text-anchor="middle" dominant-baseline="central" font-size="15" fill="#ff9da7" font-family="system-ui,sans-serif" font-weight="400" transform="rotate(-90,511.6978377096407,323)">video analysis</text>
  <rect x="523.3364655781298" y="235" width="21.277255736978354" height="176" rx="3" fill="#ff9da7" opacity="0.25"/>
  <text x="533.975093446619" y="323" text-anchor="middle" dominant-baseline="central" font-size="15" fill="#ff9da7" font-family="system-ui,sans-serif" font-weight="400" transform="rotate(-90,533.975093446619,323)">youtube</text>
  <rect x="545.6137213151081" y="235" width="21.277255736978354" height="176" rx="3" fill="#ff9da7" opacity="0.25"/>
  <text x="556.2523491835973" y="323" text-anchor="middle" dominant-baseline="central" font-size="15" fill="#ff9da7" font-family="system-ui,sans-serif" font-weight="400" transform="rotate(-90,556.2523491835973,323)">youtube api</text>
  <rect x="567.8909770520864" y="235" width="21.277255736978354" height="176" rx="3" fill="#ff9da7" opacity="0.25"/>
  <text x="578.5296049205756" y="323" text-anchor="middle" dominant-baseline="central" font-size="15" fill="#ff9da7" font-family="system-ui,sans-serif" font-weight="400" transform="rotate(-90,578.5296049205756,323)">music</text>
  <rect x="590.1682327890647" y="235" width="21.277255736978354" height="176" rx="3" fill="#ff9da7" opacity="0.25"/>
  <text x="600.8068606575539" y="323" text-anchor="middle" dominant-baseline="central" font-size="15" fill="#ff9da7" font-family="system-ui,sans-serif" font-weight="400" transform="rotate(-90,600.8068606575539,323)">playlist</text>
  <rect x="612.445488526043" y="235" width="21.277255736978354" height="176" rx="3" fill="#ff9da7" opacity="0.25"/>
  <text x="623.0841163945322" y="323" text-anchor="middle" dominant-baseline="central" font-size="15" fill="#ff9da7" font-family="system-ui,sans-serif" font-weight="400" transform="rotate(-90,623.0841163945322,323)">spotify</text>
  <rect x="634.7227442630214" y="235" width="21.277255736978645" height="176" rx="3" fill="#ff9da7" opacity="0.25"/>
  <text x="645.3613721315107" y="323" text-anchor="middle" dominant-baseline="central" font-size="15" fill="#ff9da7" font-family="system-ui,sans-serif" font-weight="400" transform="rotate(-90,645.3613721315107,323)">audio</text>
  <rect x="663" y="211" width="154" height="202" rx="6" fill="#edc948" opacity="0.15" stroke="#edc948" stroke-width="1.5"/><path d="M669,211 h142 a6,6 0 0 1 6,6 v16 h-154 v-16 a6,6 0 0 1 6,-6 z" fill="#edc948" opacity="0.1"/><line x1="663" y1="233" x2="817" y2="233" stroke="#edc948" stroke-width="0.75" opacity="0.45"/><text x="671" y="227" font-size="12" fill="#edc948" font-family="system-ui,-apple-system,Segoe UI,Roboto,sans-serif" font-weight="700">Responsible AI</text>
  <rect x="664" y="235" width="30.288225528727413" height="176" rx="3" fill="#edc948" opacity="0.28"/>
  <text x="679.1441127643637" y="323" text-anchor="middle" dominant-baseline="central" font-size="16" fill="#edc948" font-family="system-ui,sans-serif" font-weight="400" transform="rotate(-90,679.1441127643637,323)">responsible ai</text>
  <rect x="695.2882255287274" y="235" width="26.230372743430298" height="176" rx="3" fill="#edc948" opacity="0.27"/>
  <text x="708.4034119004425" y="323" text-anchor="middle" dominant-baseline="central" font-size="16" fill="#edc948" font-family="system-ui,sans-serif" font-weight="400" transform="rotate(-90,708.4034119004425,323)">ai adoption</text>
  <rect x="722.5185982721576" y="235" width="26.230372743430298" height="176" rx="3" fill="#edc948" opacity="0.27"/>
  <text x="735.6337846438728" y="323" text-anchor="middle" dominant-baseline="central" font-size="16" fill="#edc948" font-family="system-ui,sans-serif" font-weight="400" transform="rotate(-90,735.6337846438728,323)">ai governance</text>
  <rect x="749.7489710155879" y="235" width="21.417009661470658" height="176" rx="3" fill="#edc948" opacity="0.25"/>
  <text x="760.4574758463233" y="323" text-anchor="middle" dominant-baseline="central" font-size="13" fill="#edc948" font-family="system-ui,sans-serif" font-weight="400" transform="rotate(-90,760.4574758463233,323)">human ai collaboration</text>
  <rect x="772.1659806770585" y="235" width="21.417009661470658" height="176" rx="3" fill="#edc948" opacity="0.25"/>
  <text x="782.8744855077939" y="323" text-anchor="middle" dominant-baseline="central" font-size="16" fill="#edc948" font-family="system-ui,sans-serif" font-weight="400" transform="rotate(-90,782.8744855077939,323)">ai coaching</text>
  <rect x="794.5829903385292" y="235" width="21.417009661470843" height="176" rx="3" fill="#edc948" opacity="0.25"/>
  <text x="805.2914951692646" y="323" text-anchor="middle" dominant-baseline="central" font-size="16" fill="#edc948" font-family="system-ui,sans-serif" font-weight="400" transform="rotate(-90,805.2914951692646,323)">governance</text>
</g>
<g transform="translate(0, 639)">
<title>Portfolio at a Glance</title>
<rect width="820" height="270" fill="none"/>
<rect x="3" y="3" width="328.82" height="264" rx="6" fill="#0969da" opacity="0.15" stroke="#0969da" stroke-width="1.5"/><path d="M9,3 h316.82 a6,6 0 0 1 6,6 v26 h-328.82 v-26 a6,6 0 0 1 6,-6 z" fill="#0969da" opacity="0.1"/><line x1="3" y1="35" x2="331.82" y2="35" stroke="#0969da" stroke-width="0.75" opacity="0.45"/><text x="11" y="19" font-size="12" fill="#0969da" font-family="system-ui,-apple-system,Segoe UI,Roboto,sans-serif" font-weight="700">Top Languages</text><text x="11" y="31" font-size="9" fill="#0969da" opacity="0.95" font-weight="600" font-family="system-ui,-apple-system,Segoe UI,Roboto,sans-serif">By lines of code</text>
<g transform="translate(11, 41)">
<text x="4" y="28" font-size="11" fill="#0969da" font-family="system-ui,-apple-system,Segoe UI,Roboto,sans-serif">Python</text><rect x="137.3844" y="15" width="175.4356" height="18" rx="3" fill="#0969da" opacity="0.12"/><rect x="137.3844" y="15" width="124" height="18" rx="3" fill="#0969da" opacity="0.55"/><text x="266.3844" y="28" font-size="10" fill="#0969da" font-weight="700" font-family="system-ui,-apple-system,Segoe UI,Roboto,sans-serif">70.7%</text><text x="4" y="62" font-size="11" fill="#0969da" font-family="system-ui,-apple-system,Segoe UI,Roboto,sans-serif">JavaScript</text><rect x="137.3844" y="49" width="175.4356" height="18" rx="3" fill="#0969da" opacity="0.12"/><rect x="137.3844" y="49" width="18" height="18" rx="3" fill="#0969da" opacity="0.55"/><text x="160.3844" y="62" font-size="10" fill="#0969da" font-weight="700" font-family="system-ui,-apple-system,Segoe UI,Roboto,sans-serif">10.1%</text><text x="4" y="96" font-size="11" fill="#0969da" font-family="system-ui,-apple-system,Segoe UI,Roboto,sans-serif">TypeScript</text><rect x="137.3844" y="83" width="175.4356" height="18" rx="3" fill="#0969da" opacity="0.12"/><rect x="137.3844" y="83" width="15" height="18" rx="3" fill="#0969da" opacity="0.55"/><text x="157.3844" y="96" font-size="10" fill="#0969da" font-weight="700" font-family="system-ui,-apple-system,Segoe UI,Roboto,sans-serif">8.7%</text><text x="4" y="130" font-size="11" fill="#0969da" font-family="system-ui,-apple-system,Segoe UI,Roboto,sans-serif">Jupyter Notebook</text><rect x="137.3844" y="117" width="175.4356" height="18" rx="3" fill="#0969da" opacity="0.12"/><rect x="137.3844" y="117" width="9" height="18" rx="3" fill="#0969da" opacity="0.55"/><text x="151.3844" y="130" font-size="10" fill="#0969da" font-weight="700" font-family="system-ui,-apple-system,Segoe UI,Roboto,sans-serif">5.0%</text><text x="4" y="164" font-size="11" fill="#0969da" font-family="system-ui,-apple-system,Segoe UI,Roboto,sans-serif">Cython</text><rect x="137.3844" y="151" width="175.4356" height="18" rx="3" fill="#0969da" opacity="0.12"/><rect x="137.3844" y="151" width="3" height="18" rx="3" fill="#0969da" opacity="0.55"/><text x="145.3844" y="164" font-size="10" fill="#0969da" font-weight="700" font-family="system-ui,-apple-system,Segoe UI,Roboto,sans-serif">1.5%</text><text x="4" y="198" font-size="11" fill="#0969da" font-family="system-ui,-apple-system,Segoe UI,Roboto,sans-serif">PowerShell</text><rect x="137.3844" y="185" width="175.4356" height="18" rx="3" fill="#0969da" opacity="0.12"/><rect x="137.3844" y="185" width="2" height="18" rx="3" fill="#0969da" opacity="0.55"/><text x="144.3844" y="198" font-size="10" fill="#0969da" font-weight="700" font-family="system-ui,-apple-system,Segoe UI,Roboto,sans-serif">1.2%</text>
</g>
<rect x="337.82" y="3" width="144.35999999999999" height="264" rx="6" fill="#9a6700" opacity="0.15" stroke="#9a6700" stroke-width="1.5"/><path d="M343.82,3 h132.35999999999999 a6,6 0 0 1 6,6 v26 h-144.35999999999999 v-26 a6,6 0 0 1 6,-6 z" fill="#9a6700" opacity="0.1"/><line x1="337.82" y1="35" x2="482.17999999999995" y2="35" stroke="#9a6700" stroke-width="0.75" opacity="0.45"/><text x="345.82" y="19" font-size="12" fill="#9a6700" font-family="system-ui,-apple-system,Segoe UI,Roboto,sans-serif" font-weight="700">Tier &amp; Activity</text><text x="345.82" y="31" font-size="9" fill="#9a6700" opacity="0.95" font-weight="600" font-family="system-ui,-apple-system,Segoe UI,Roboto,sans-serif">Portfolio composition</text>
<text x="345.82" y="52" font-size="9" font-weight="700" fill="#9a6700" opacity="0.7" letter-spacing="0.6" font-family="system-ui,-apple-system,Segoe UI,Roboto,sans-serif">TIERS</text>
<g><text x="345.82" y="69" font-size="11">🏆</text><text x="365.82" y="69" font-size="11" fill="#9a6700" font-weight="600" font-family="system-ui,-apple-system,Segoe UI,Roboto,sans-serif">Flagship</text><text x="470.17999999999995" y="69" font-size="12" fill="#9a6700" font-weight="700" font-family="system-ui,-apple-system,Segoe UI,Roboto,sans-serif" text-anchor="end">21</text><text x="345.82" y="91" font-size="11">⭐</text><text x="365.82" y="91" font-size="11" fill="#9a6700" font-weight="600" font-family="system-ui,-apple-system,Segoe UI,Roboto,sans-serif">Notable</text><text x="470.17999999999995" y="91" font-size="12" fill="#9a6700" font-weight="700" font-family="system-ui,-apple-system,Segoe UI,Roboto,sans-serif" text-anchor="end">62</text><text x="345.82" y="113" font-size="11">🤖</text><text x="365.82" y="113" font-size="11" fill="#9a6700" font-weight="600" font-family="system-ui,-apple-system,Segoe UI,Roboto,sans-serif">Agents</text><text x="470.17999999999995" y="113" font-size="12" fill="#9a6700" font-weight="700" font-family="system-ui,-apple-system,Segoe UI,Roboto,sans-serif" text-anchor="end">104</text><text x="345.82" y="135" font-size="11">🪦</text><text x="365.82" y="135" font-size="11" fill="#9a6700" font-weight="600" font-family="system-ui,-apple-system,Segoe UI,Roboto,sans-serif">Archived</text><text x="470.17999999999995" y="135" font-size="12" fill="#9a6700" font-weight="700" font-family="system-ui,-apple-system,Segoe UI,Roboto,sans-serif" text-anchor="end">14</text></g>
<text x="345.82" y="162" font-size="9" font-weight="700" fill="#9a6700" opacity="0.7" letter-spacing="0.6" font-family="system-ui,-apple-system,Segoe UI,Roboto,sans-serif">ACTIVITY</text>
<g><text x="345.82" y="179" font-size="11">⭐</text><text x="365.82" y="179" font-size="11" fill="#9a6700" font-weight="600" font-family="system-ui,-apple-system,Segoe UI,Roboto,sans-serif">Stars</text><text x="470.17999999999995" y="179" font-size="12" fill="#9a6700" font-weight="700" font-family="system-ui,-apple-system,Segoe UI,Roboto,sans-serif" text-anchor="end">31</text><text x="345.82" y="201" font-size="11">🚀</text><text x="365.82" y="201" font-size="11" fill="#9a6700" font-weight="600" font-family="system-ui,-apple-system,Segoe UI,Roboto,sans-serif">Active &lt;30d</text><text x="470.17999999999995" y="201" font-size="12" fill="#9a6700" font-weight="700" font-family="system-ui,-apple-system,Segoe UI,Roboto,sans-serif" text-anchor="end">45</text><text x="345.82" y="223" font-size="11">📂</text><text x="365.82" y="223" font-size="11" fill="#9a6700" font-weight="600" font-family="system-ui,-apple-system,Segoe UI,Roboto,sans-serif">Public</text><text x="470.17999999999995" y="223" font-size="12" fill="#9a6700" font-weight="700" font-family="system-ui,-apple-system,Segoe UI,Roboto,sans-serif" text-anchor="end">42</text><text x="345.82" y="245" font-size="11">🔒</text><text x="365.82" y="245" font-size="11" fill="#9a6700" font-weight="600" font-family="system-ui,-apple-system,Segoe UI,Roboto,sans-serif">Private</text><text x="470.17999999999995" y="245" font-size="12" fill="#9a6700" font-weight="700" font-family="system-ui,-apple-system,Segoe UI,Roboto,sans-serif" text-anchor="end">75</text></g>
<rect x="488.17999999999995" y="3" width="328.82" height="264" rx="6" fill="#8250df" opacity="0.15" stroke="#8250df" stroke-width="1.5"/><path d="M494.17999999999995,3 h316.82 a6,6 0 0 1 6,6 v26 h-328.82 v-26 a6,6 0 0 1 6,-6 z" fill="#8250df" opacity="0.1"/><line x1="488.17999999999995" y1="35" x2="817" y2="35" stroke="#8250df" stroke-width="0.75" opacity="0.45"/><text x="496.17999999999995" y="19" font-size="12" fill="#8250df" font-family="system-ui,-apple-system,Segoe UI,Roboto,sans-serif" font-weight="700">Top Themes</text><text x="496.17999999999995" y="31" font-size="9" fill="#8250df" opacity="0.95" font-weight="600" font-family="system-ui,-apple-system,Segoe UI,Roboto,sans-serif">Topic clusters</text>
<g transform="translate(496.17999999999995, 41)">
<text x="4" y="28" font-size="11" fill="#8250df" font-family="system-ui,-apple-system,Segoe UI,Roboto,sans-serif">AI &amp; Copilot</text><rect x="137.3844" y="15" width="175.4356" height="18" rx="3" fill="#8250df" opacity="0.12"/><rect x="137.3844" y="15" width="124" height="18" rx="3" fill="#8250df" opacity="0.55"/><text x="266.3844" y="28" font-size="10" fill="#8250df" font-weight="700" font-family="system-ui,-apple-system,Segoe UI,Roboto,sans-serif">27</text><text x="4" y="56" font-size="11" fill="#8250df" font-family="system-ui,-apple-system,Segoe UI,Roboto,sans-serif">Cognitive<tspan x="4" dy="12">Architecture</tspan></text><rect x="137.3844" y="49" width="175.4356" height="18" rx="3" fill="#8250df" opacity="0.12"/><rect x="137.3844" y="49" width="119" height="18" rx="3" fill="#8250df" opacity="0.55"/><text x="261.3844" y="62" font-size="10" fill="#8250df" font-weight="700" font-family="system-ui,-apple-system,Segoe UI,Roboto,sans-serif">26</text><text x="4" y="96" font-size="11" fill="#8250df" font-family="system-ui,-apple-system,Segoe UI,Roboto,sans-serif">AI Agents &amp; Skills</text><rect x="137.3844" y="83" width="175.4356" height="18" rx="3" fill="#8250df" opacity="0.12"/><rect x="137.3844" y="83" width="96" height="18" rx="3" fill="#8250df" opacity="0.55"/><text x="238.3844" y="96" font-size="10" fill="#8250df" font-weight="700" font-family="system-ui,-apple-system,Segoe UI,Roboto,sans-serif">21</text><text x="4" y="130" font-size="11" fill="#8250df" font-family="system-ui,-apple-system,Segoe UI,Roboto,sans-serif">Developer Tools</text><rect x="137.3844" y="117" width="175.4356" height="18" rx="3" fill="#8250df" opacity="0.12"/><rect x="137.3844" y="117" width="83" height="18" rx="3" fill="#8250df" opacity="0.55"/><text x="225.3844" y="130" font-size="10" fill="#8250df" font-weight="700" font-family="system-ui,-apple-system,Segoe UI,Roboto,sans-serif">18</text><text x="4" y="164" font-size="11" fill="#8250df" font-family="system-ui,-apple-system,Segoe UI,Roboto,sans-serif">Responsible AI</text><rect x="137.3844" y="151" width="175.4356" height="18" rx="3" fill="#8250df" opacity="0.12"/><rect x="137.3844" y="151" width="64" height="18" rx="3" fill="#8250df" opacity="0.55"/><text x="206.3844" y="164" font-size="10" fill="#8250df" font-weight="700" font-family="system-ui,-apple-system,Segoe UI,Roboto,sans-serif">14</text><text x="4" y="198" font-size="11" fill="#8250df" font-family="system-ui,-apple-system,Segoe UI,Roboto,sans-serif">Learning &amp; Research</text><rect x="137.3844" y="185" width="175.4356" height="18" rx="3" fill="#8250df" opacity="0.12"/><rect x="137.3844" y="185" width="60" height="18" rx="3" fill="#8250df" opacity="0.55"/><text x="202.3844" y="198" font-size="10" fill="#8250df" font-weight="700" font-family="system-ui,-apple-system,Segoe UI,Roboto,sans-serif">13</text>
</g>
</g>
<text x="410" y="935" text-anchor="middle" font-family="Segoe UI, system-ui, sans-serif" font-size="13"><tspan font-weight="700" fill="#1f2328" >117</tspan><tspan fill="#64748b" dx="4">repositories across 10 categories</tspan><tspan fill="#64748b" dx="6">·</tspan><tspan font-weight="700" fill="#1f2328" dx="6">103</tspan><tspan fill="#64748b" dx="4">actively maintained</tspan><tspan fill="#64748b" dx="6">·</tspan><tspan font-weight="700" fill="#1f2328" dx="6">21</tspan><tspan fill="#64748b" dx="4">flagships</tspan></text>
</svg>