<svg xmlns="http://www.w3.org/2000/svg" viewBox="0 0 820 947" width="100%" preserveAspectRatio="xMidYMid meet" role="img" aria-label="Portfolio">
<title>Portfolio</title>
<g transform="translate(0, 0) scale(0.683333)">
<defs>
    <!-- Background gradient - deep space theme -->
    <linearGradient id="bgGrad" x1="0%" y1="0%" x2="100%" y2="100%">
      <stop offset="0%" stop-color="#020617"/>
      <stop offset="50%" stop-color="#0f172a"/>
      <stop offset="100%" stop-color="#1e293b"/>
    </linearGradient>

    <!-- Logo gradient with Azure blue -->
    <linearGradient id="logoGrad" x1="0%" y1="0%" x2="100%" y2="100%">
      <stop offset="0%" stop-color="#00bcf2"/>
      <stop offset="50%" stop-color="#0078d4"/>
      <stop offset="100%" stop-color="#005a9e"/>
    </linearGradient>

    <!-- Name gradient -->
    <linearGradient id="nameGrad" x1="0%" y1="0%" x2="100%" y2="0%">
      <stop offset="0%" stop-color="#f8fafc"/>
      <stop offset="50%" stop-color="#e2e8f0"/>
      <stop offset="100%" stop-color="#f8fafc"/>
    </linearGradient>

    <!-- Accent text gradient -->
    <linearGradient id="accentTextGrad" x1="0%" y1="0%" x2="100%" y2="0%">
      <stop offset="0%" stop-color="#00bcf2"/>
      <stop offset="50%" stop-color="#0078d4"/>
      <stop offset="100%" stop-color="#00bcf2"/>
    </linearGradient>

    <!-- Glow filter -->
    <filter id="glow" x="-50%" y="-50%" width="200%" height="200%">
      <feGaussianBlur stdDeviation="3" result="coloredBlur"/>
      <feMerge>
        <feMergeNode in="coloredBlur"/>
        <feMergeNode in="SourceGraphic"/>
      </feMerge>
    </filter>

    <!-- Strong glow for logo -->
    <filter id="logoGlow" x="-100%" y="-100%" width="300%" height="300%">
      <feGaussianBlur stdDeviation="6" result="blur1"/>
      <feGaussianBlur stdDeviation="12" result="blur2"/>
      <feMerge>
        <feMergeNode in="blur2"/>
        <feMergeNode in="blur1"/>
        <feMergeNode in="SourceGraphic"/>
      </feMerge>
    </filter>

    <!-- Radial glow behind logo -->
    <radialGradient id="logoBackGlow" cx="50%" cy="50%" r="50%">
      <stop offset="0%" stop-color="#0078d4" stop-opacity="0.4"/>
      <stop offset="50%" stop-color="#0078d4" stop-opacity="0.1"/>
      <stop offset="100%" stop-color="#0078d4" stop-opacity="0"/>
    </radialGradient>

    <!-- Grid pattern -->
    <pattern id="grid" width="50" height="50" patternUnits="userSpaceOnUse">
      <path d="M 50 0 L 0 0 0 50" fill="none" stroke="#1e3a5f" stroke-width="0.5" opacity="0.4"/>
    </pattern>

    <!-- Dot pattern -->
    <pattern id="dots" width="30" height="30" patternUnits="userSpaceOnUse">
      <circle cx="15" cy="15" r="1" fill="#0078d4" opacity="0.2"/>
    </pattern>

    <!-- Gradient for accent line -->
    <linearGradient id="accentGrad" x1="0%" y1="0%" x2="100%" y2="0%">
      <stop offset="0%" stop-color="#005a9e"/>
      <stop offset="25%" stop-color="#0078d4"/>
      <stop offset="50%" stop-color="#00bcf2"/>
      <stop offset="75%" stop-color="#0078d4"/>
      <stop offset="100%" stop-color="#005a9e"/>
    </linearGradient>

    <!-- Neural network gradient -->
    <linearGradient id="neuralGrad" x1="0%" y1="0%" x2="100%" y2="100%">
      <stop offset="0%" stop-color="#7c3aed"/>
      <stop offset="50%" stop-color="#0078d4"/>
      <stop offset="100%" stop-color="#00bcf2"/>
    </linearGradient>
  </defs>

  <!-- Background -->
  <rect width="1200" height="300" fill="url(#bgGrad)"/>

  <!-- Grid overlay -->
  <rect width="1200" height="300" fill="url(#grid)"/>

  <!-- Dot pattern overlay -->
  <rect width="1200" height="300" fill="url(#dots)" opacity="0.5"/>

  <!-- Large decorative orbs -->
  <circle cx="150" cy="150" r="180" fill="url(#logoBackGlow)"/>
  <circle cx="1050" cy="80" r="150" fill="#0078d4" opacity="0.05"/>
  <circle cx="1150" cy="280" r="180" fill="#00bcf2" opacity="0.03"/>
  <circle cx="50" cy="250" r="100" fill="#7c3aed" opacity="0.06"/>

  <!-- Neural network nodes - cognitive theme -->
  <g opacity="0.4">
    <!-- Left side neural cluster -->
    <circle cx="80" cy="60" r="4" fill="#7c3aed"/>
    <circle cx="120" cy="40" r="3" fill="#0078d4"/>
    <circle cx="60" cy="100" r="3" fill="#00bcf2"/>
    <circle cx="140" cy="90" r="2" fill="#7c3aed"/>
    <line x1="80" y1="60" x2="120" y2="40" stroke="#7c3aed" stroke-width="1"/>
    <line x1="80" y1="60" x2="60" y2="100" stroke="#0078d4" stroke-width="1"/>
    <line x1="120" y1="40" x2="140" y2="90" stroke="#00bcf2" stroke-width="0.5"/>

    <!-- Right side neural cluster -->
    <circle cx="1100" cy="70" r="3" fill="#00bcf2"/>
    <circle cx="1140" cy="50" r="2" fill="#0078d4"/>
    <circle cx="1080" cy="100" r="4" fill="#7c3aed"/>
    <circle cx="1120" cy="120" r="2" fill="#0078d4"/>
    <line x1="1100" y1="70" x2="1140" y2="50" stroke="#00bcf2" stroke-width="0.5"/>
    <line x1="1100" y1="70" x2="1080" y2="100" stroke="#7c3aed" stroke-width="1"/>
    <line x1="1080" y1="100" x2="1120" y2="120" stroke="#0078d4" stroke-width="0.5"/>
  </g>

  <!-- Floating particles -->
  <circle cx="300" cy="30" r="1.5" fill="#0078d4" opacity="0.5"/>
  <circle cx="500" cy="50" r="2" fill="#00bcf2" opacity="0.4"/>
  <circle cx="750" cy="25" r="1" fill="#7c3aed" opacity="0.6"/>
  <circle cx="950" cy="45" r="2.5" fill="#00bcf2" opacity="0.3"/>
  <circle cx="400" cy="270" r="2" fill="#00bcf2" opacity="0.4"/>
  <circle cx="700" cy="260" r="1.5" fill="#0078d4" opacity="0.5"/>
  <circle cx="900" cy="275" r="2" fill="#7c3aed" opacity="0.3"/>
  <circle cx="1050" cy="250" r="1" fill="#0078d4" opacity="0.6"/>

  <!-- Logo glow backdrop -->
  <ellipse cx="150" cy="150" rx="120" ry="110" fill="url(#logoBackGlow)"/>

  <!-- Logo mark (scaled) with glow -->
  <g transform="translate(55, 58) scale(6)" filter="url(#logoGlow)">
    <path d="M16 2C8.268 2 2 8.268 2 16s6.268 14 14 14c3.866 0 7.389-1.568 9.928-4.1l-3.535-3.536A9.002 9.002 0 0116 25c-4.97 0-9-4.03-9-9s4.03-9 9-9c2.29 0 4.38.857 5.971 2.268l3.464-3.639C22.993 3.352 19.66 2 16 2z" fill="url(#logoGrad)"/>
    <path d="M20 10l-4 6 4 6h4l-4-6 4-6h-4z" fill="url(#logoGrad)"/>
    <path d="M24 10l4 6-4 6h4l4-6-4-6h-4z" fill="url(#logoGrad)" opacity="0.6"/>
  </g>

  <text x="320" y="54" font-family="Segoe UI, system-ui, sans-serif" font-size="13" font-weight="600" fill="#94a3b8" letter-spacing="3">AUTOMATIC REPOSITORY PORTFOLIO FOR</text>
  <!-- Main name -->
  <text x="320" y="135" font-family="Segoe UI, system-ui, sans-serif" font-size="74" font-weight="700" fill="url(#nameGrad)" filter="url(#glow)">Dr. Fabio Correa, DBA</text>

  <!-- Title line -->
  <text x="320" y="180" font-family="Segoe UI, system-ui, sans-serif" font-size="22" fill="#94a3b8" letter-spacing="1" textLength="800" lengthAdjust="spacingAndGlyphs">Building AI-powered solutions for human-AI collaboration, cognitive architecture, and organizational AI adoption.</text>

  <!-- Tagline with accent -->
  <text x="320" y="220" font-family="Segoe UI, system-ui, sans-serif" font-size="18" fill="url(#accentTextGrad)" letter-spacing="1.5">THINK • BUILD • DEPLOY</text>

  <!-- Decorative accent line -->
  <line x1="320" y1="240" x2="850" y2="240" stroke="#334155" stroke-width="1"/>
  <line x1="320" y1="243" x2="600" y2="243" stroke="url(#accentGrad)" stroke-width="2" opacity="0.6"/>

  <!-- CorreaX branding badge -->
  <g transform="translate(320, 255)" font-family="Segoe UI, system-ui, sans-serif" font-size="12" fill="#94a3b8"><text letter-spacing="1">UPDATED</text><text x="70" font-weight="700">Apr 26 2026 12:28 EDT</text></g>

  <!-- Tech circuit decorations on right -->
  <g opacity="0.25">
    <path d="M1000 140 h80 v40 h40" stroke="#0078d4" stroke-width="1.5" fill="none"/>
    <circle cx="1000" cy="140" r="3" fill="#0078d4"/>
    <circle cx="1120" cy="180" r="4" fill="#00bcf2"/>
    <path d="M1020 200 h60 v-25 h30" stroke="#7c3aed" stroke-width="1" fill="none"/>
    <circle cx="1020" cy="200" r="2" fill="#7c3aed"/>
    <path d="M980 100 h50 l20 20 h40" stroke="#00bcf2" stroke-width="1" fill="none"/>
    <circle cx="980" cy="100" r="2" fill="#00bcf2"/>
  </g>

  <!-- Bottom accent bar with glow -->
  <rect x="0" y="290" width="1200" height="10" fill="url(#accentGrad)" filter="url(#glow)"/>
</g>
<g transform="translate(0, 217)">
<rect width="820" height="416" fill="none"/>
  <rect x="3" y="3" width="486.89617486338796" height="202" rx="6" fill="#4e79a7" opacity="0.15" stroke="#4e79a7" stroke-width="1.5"/><path d="M9,3 h474.89617486338796 a6,6 0 0 1 6,6 v16 h-486.89617486338796 v-16 a6,6 0 0 1 6,-6 z" fill="#4e79a7" opacity="0.1"/><line x1="3" y1="25" x2="489.89617486338796" y2="25" stroke="#4e79a7" stroke-width="0.75" opacity="0.45"/><text x="11" y="19" font-size="12" fill="#4e79a7" font-family="system-ui,-apple-system,Segoe UI,Roboto,sans-serif" font-weight="700">AI &amp; Copilot</text>
  <rect x="4" y="27" width="80.80128721824366" height="176" rx="3" fill="#4e79a7" opacity="0.45"/>
  <text x="44.40064360912183" y="115" text-anchor="middle" dominant-baseline="central" font-size="16" fill="#4e79a7" font-family="system-ui,sans-serif" font-weight="600" transform="rotate(-90,44.40064360912183,115)">agent</text>
  <rect x="85.80128721824366" y="27" width="73.08751425836013" height="176" rx="3" fill="#4e79a7" opacity="0.41"/>
  <text x="122.34504434742372" y="115" text-anchor="middle" dominant-baseline="central" font-size="16" fill="#4e79a7" font-family="system-ui,sans-serif" font-weight="600" transform="rotate(-90,122.34504434742372,115)">agentic</text>
  <rect x="159.8888014766038" y="27" width="64.45712889050277" height="176" rx="3" fill="#4e79a7" opacity="0.36"/>
  <text x="192.11736592185517" y="115" text-anchor="middle" dominant-baseline="central" font-size="16" fill="#4e79a7" font-family="system-ui,sans-serif" font-weight="600" transform="rotate(-90,192.11736592185517,115)">github copilot</text>
  <rect x="225.34593036710658" y="27" width="59.67570550045747" height="176" rx="3" fill="#4e79a7" opacity="0.34"/>
  <text x="255.1837831173353" y="115" text-anchor="middle" dominant-baseline="central" font-size="16" fill="#4e79a7" font-family="system-ui,sans-serif" font-weight="600" transform="rotate(-90,255.1837831173353,115)">ai</text>
  <rect x="286.02163586756404" y="27" width="54.476216729392796" height="176" rx="3" fill="#4e79a7" opacity="0.32"/>
  <text x="313.25974423226046" y="115" text-anchor="middle" dominant-baseline="central" font-size="16" fill="#4e79a7" font-family="system-ui,sans-serif" font-weight="400" transform="rotate(-90,313.25974423226046,115)">claude</text>
  <rect x="341.4978525969568" y="27" width="54.476216729392796" height="176" rx="3" fill="#4e79a7" opacity="0.32"/>
  <text x="368.73596096165323" y="115" text-anchor="middle" dominant-baseline="central" font-size="16" fill="#4e79a7" font-family="system-ui,sans-serif" font-weight="400" transform="rotate(-90,368.73596096165323,115)">ai assistant</text>
  <rect x="396.9740693263496" y="27" width="48.725009505573425" height="176" rx="3" fill="#4e79a7" opacity="0.29"/>
  <text x="421.3365740791363" y="115" text-anchor="middle" dominant-baseline="central" font-size="16" fill="#4e79a7" font-family="system-ui,sans-serif" font-weight="400" transform="rotate(-90,421.3365740791363,115)">prompt engineering</text>
  <rect x="446.69907883192303" y="27" width="42.19709603146492" height="176" rx="3" fill="#4e79a7" opacity="0.27"/>
  <text x="467.79762684765547" y="115" text-anchor="middle" dominant-baseline="central" font-size="16" fill="#4e79a7" font-family="system-ui,sans-serif" font-weight="400" transform="rotate(-90,467.79762684765547,115)">dashboard</text>
  <rect x="495.89617486338796" y="3" width="119.46448087431695" height="202" rx="6" fill="#57606a" opacity="0.15" stroke="#57606a" stroke-width="1.5"/><path d="M501.89617486338796,3 h107.46448087431695 a6,6 0 0 1 6,6 v16 h-119.46448087431695 v-16 a6,6 0 0 1 6,-6 z" fill="#57606a" opacity="0.1"/><line x1="495.89617486338796" y1="25" x2="615.3606557377049" y2="25" stroke="#57606a" stroke-width="0.75" opacity="0.45"/><text x="503.89617486338796" y="19" font-size="12" fill="#57606a" font-family="system-ui,-apple-system,Segoe UI,Roboto,sans-serif" font-weight="700">Other</text>
  <rect x="496.89617486338796" y="27" width="16.837870962144386" height="176" rx="3" fill="#57606a" opacity="0.29"/>
  <text x="505.31511034446015" y="115" text-anchor="middle" dominant-baseline="central" font-size="12" fill="#57606a" font-family="system-ui,sans-serif" font-weight="400" transform="rotate(-90,505.31511034446015,115)">ai agents</text>
  <rect x="514.7340458255323" y="27" width="16.837870962144386" height="176" rx="3" fill="#57606a" opacity="0.29"/>
  <text x="523.1529813066045" y="115" text-anchor="middle" dominant-baseline="central" font-size="12" fill="#57606a" font-family="system-ui,sans-serif" font-weight="400" transform="rotate(-90,523.1529813066045,115)">python</text>
  <rect x="532.5719167876767" y="27" width="14.582023998861366" height="176" rx="3" fill="#57606a" opacity="0.27"/>
  <text x="539.8629287871074" y="115" text-anchor="middle" dominant-baseline="central" font-size="10" fill="#57606a" font-family="system-ui,sans-serif" font-weight="400" transform="rotate(-90,539.8629287871074,115)">react</text>
  <rect x="548.1539407865381" y="27" width="14.582023998861366" height="176" rx="3" fill="#57606a" opacity="0.27"/>
  <text x="555.4449527859688" y="115" text-anchor="middle" dominant-baseline="central" font-size="10" fill="#57606a" font-family="system-ui,sans-serif" font-weight="400" transform="rotate(-90,555.4449527859688,115)">spotify api</text>
  <rect x="563.7359647853995" y="27" width="11.906172738076355" height="176" rx="3" fill="#57606a" opacity="0.25"/>
  <text x="569.6890511544376" y="115" text-anchor="middle" dominant-baseline="central" font-size="8" fill="#57606a" font-family="system-ui,sans-serif" font-weight="400" transform="rotate(-90,569.6890511544376,115)">better together</text>
  <rect x="576.6421375234759" y="27" width="11.906172738076355" height="176" rx="3" fill="#57606a" opacity="0.25"/>
  <text x="582.595223892514" y="115" text-anchor="middle" dominant-baseline="central" font-size="8" fill="#57606a" font-family="system-ui,sans-serif" font-weight="400" transform="rotate(-90,582.595223892514,115)">dual platform</text>
  <rect x="589.5483102615523" y="27" width="11.906172738076355" height="176" rx="3" fill="#57606a" opacity="0.25"/>
  <text x="595.5013966305904" y="115" text-anchor="middle" dominant-baseline="central" font-size="8" fill="#57606a" font-family="system-ui,sans-serif" font-weight="400" transform="rotate(-90,595.5013966305904,115)">markdown</text>
  <rect x="602.4544829996287" y="27" width="11.90617273807618" height="176" rx="3" fill="#57606a" opacity="0.25"/>
  <text x="608.4075693686668" y="115" text-anchor="middle" dominant-baseline="central" font-size="8" fill="#57606a" font-family="system-ui,sans-serif" font-weight="400" transform="rotate(-90,608.4075693686668,115)">openai</text>
  <rect x="621.3606557377049" y="3" width="74.65573770491802" height="202" rx="6" fill="#59a14f" opacity="0.15" stroke="#59a14f" stroke-width="1.5"/><path d="M627.3606557377049,3 h62.655737704918025 a6,6 0 0 1 6,6 v16 h-74.65573770491802 v-16 a6,6 0 0 1 6,-6 z" fill="#59a14f" opacity="0.1"/><line x1="621.3606557377049" y1="25" x2="696.0163934426229" y2="25" stroke="#59a14f" stroke-width="0.75" opacity="0.45"/><text x="629.3606557377049" y="19" font-size="12" fill="#59a14f" font-family="system-ui,-apple-system,Segoe UI,Roboto,sans-serif" font-weight="700">Develope…</text>
  <rect x="622.3606557377049" y="27" width="20.2695355182708" height="176" rx="3" fill="#59a14f" opacity="0.34"/>
  <text x="632.4954234968402" y="115" text-anchor="middle" dominant-baseline="central" font-size="15" fill="#59a14f" font-family="system-ui,sans-serif" font-weight="600" transform="rotate(-90,632.4954234968402,115)">typescript</text>
  <rect x="643.6301912559757" y="27" width="18.503469722515145" height="176" rx="3" fill="#59a14f" opacity="0.32"/>
  <text x="652.8819261172332" y="115" text-anchor="middle" dominant-baseline="central" font-size="13" fill="#59a14f" font-family="system-ui,sans-serif" font-weight="400" transform="rotate(-90,652.8819261172332,115)">vscode extension</text>
  <rect x="663.1336609784908" y="27" width="16.55000644766121" height="176" rx="3" fill="#59a14f" opacity="0.29"/>
  <text x="671.4086642023213" y="115" text-anchor="middle" dominant-baseline="central" font-size="12" fill="#59a14f" font-family="system-ui,sans-serif" font-weight="400" transform="rotate(-90,671.4086642023213,115)">vscode</text>
  <rect x="680.6836674261519" y="27" width="14.332726016470929" height="176" rx="3" fill="#59a14f" opacity="0.27"/>
  <text x="687.8500304343875" y="115" text-anchor="middle" dominant-baseline="central" font-size="10" fill="#59a14f" font-family="system-ui,sans-serif" font-weight="400" transform="rotate(-90,687.8500304343875,115)">developer tools</text>
  <rect x="702.0163934426229" y="3" width="56.732240437158474" height="202" rx="6" fill="#f28e2b" opacity="0.15" stroke="#f28e2b" stroke-width="1.5"/><path d="M708.0163934426229,3 h44.732240437158474 a6,6 0 0 1 6,6 v16 h-56.732240437158474 v-16 a6,6 0 0 1 6,-6 z" fill="#f28e2b" opacity="0.1"/><line x1="702.0163934426229" y1="25" x2="758.7486338797813" y2="25" stroke="#f28e2b" stroke-width="0.75" opacity="0.45"/><text x="710.0163934426229" y="19" font-size="12" fill="#f28e2b" font-family="system-ui,-apple-system,Segoe UI,Roboto,sans-serif" font-weight="700">Cogni…</text>
  <rect x="703.0163934426229" y="27" width="18.993378969544068" height="176" rx="3" fill="#f28e2b" opacity="0.36"/>
  <text x="712.5130829273949" y="115" text-anchor="middle" dominant-baseline="central" font-size="13" fill="#f28e2b" font-family="system-ui,sans-serif" font-weight="600" transform="rotate(-90,712.5130829273949,115)">cognitive architecture</text>
  <rect x="723.009772412167" y="27" width="12.434085261559721" height="176" rx="3" fill="#f28e2b" opacity="0.27"/>
  <text x="729.2268150429468" y="115" text-anchor="middle" dominant-baseline="central" font-size="9" fill="#f28e2b" font-family="system-ui,sans-serif" font-weight="400" transform="rotate(-90,729.2268150429468,115)">model context protocol</text>
  <rect x="736.4438576737267" y="27" width="10.152388103027343" height="176" rx="3" fill="#f28e2b" opacity="0.25"/>
  <text x="741.5200517252404" y="115" text-anchor="middle" dominant-baseline="central" font-size="7" fill="#f28e2b" font-family="system-ui,sans-serif" font-weight="400" transform="rotate(-90,741.5200517252404,115)">cognitive science</text>
  <rect x="747.596245776754" y="27" width="10.152388103027306" height="176" rx="3" fill="#f28e2b" opacity="0.25"/>
  <text x="752.6724398282677" y="115" text-anchor="middle" dominant-baseline="central" font-size="7" fill="#f28e2b" font-family="system-ui,sans-serif" font-weight="400" transform="rotate(-90,752.6724398282677,115)">memory systems</text>
  <rect x="764.7486338797813" y="3" width="52.25136612021868" height="202" rx="6" fill="#e15759" opacity="0.15" stroke="#e15759" stroke-width="1.5"/><path d="M770.7486338797813,3 h40.25136612021868 a6,6 0 0 1 6,6 v16 h-52.25136612021868 v-16 a6,6 0 0 1 6,-6 z" fill="#e15759" opacity="0.1"/><line x1="764.7486338797813" y1="25" x2="817" y2="25" stroke="#e15759" stroke-width="0.75" opacity="0.45"/><text x="772.7486338797813" y="19" font-size="12" fill="#e15759" font-family="system-ui,-apple-system,Segoe UI,Roboto,sans-serif" font-weight="700">Cloud…</text>
  <rect x="765.7486338797813" y="27" width="16.51102287605714" height="176" rx="3" fill="#e15759" opacity="0.34"/>
  <text x="774.0041453178098" y="115" text-anchor="middle" dominant-baseline="central" font-size="12" fill="#e15759" font-family="system-ui,sans-serif" font-weight="600" transform="rotate(-90,774.0041453178098,115)">azure</text>
  <rect x="783.2596567558385" y="27" width="11.675056239986217" height="176" rx="3" fill="#e15759" opacity="0.27"/>
  <text x="789.0971848758315" y="115" text-anchor="middle" dominant-baseline="central" font-size="8" fill="#e15759" font-family="system-ui,sans-serif" font-weight="400" transform="rotate(-90,789.0971848758315,115)">azure openai</text>
  <rect x="795.9347129958247" y="27" width="9.53264350208766" height="176" rx="3" fill="#e15759" opacity="0.25"/>
  <text x="800.7010347468686" y="115" text-anchor="middle" dominant-baseline="central" font-size="7" fill="#e15759" font-family="system-ui,sans-serif" font-weight="400" transform="rotate(-90,800.7010347468686,115)">azure functions</text>
  <rect x="806.4673564979124" y="27" width="9.53264350208758" height="176" rx="3" fill="#e15759" opacity="0.25"/>
  <text x="811.2336782489563" y="115" text-anchor="middle" dominant-baseline="central" font-size="7" fill="#e15759" font-family="system-ui,sans-serif" font-weight="400" transform="rotate(-90,811.2336782489563,115)">dotnet</text>
  <rect x="3" y="211" width="247.80952380952382" height="202" rx="6" fill="#edc948" opacity="0.15" stroke="#edc948" stroke-width="1.5"/><path d="M9,211 h235.80952380952382 a6,6 0 0 1 6,6 v16 h-247.80952380952382 v-16 a6,6 0 0 1 6,-6 z" fill="#edc948" opacity="0.1"/><line x1="3" y1="233" x2="250.80952380952382" y2="233" stroke="#edc948" stroke-width="0.75" opacity="0.45"/><text x="11" y="227" font-size="12" fill="#edc948" font-family="system-ui,-apple-system,Segoe UI,Roboto,sans-serif" font-weight="700">Productivity &amp; Organization</text>
  <rect x="4" y="235" width="68.50473339213427" height="176" rx="3" fill="#edc948" opacity="0.32"/>
  <text x="38.252366696067135" y="323" text-anchor="middle" dominant-baseline="central" font-size="16" fill="#edc948" font-family="system-ui,sans-serif" font-weight="400" transform="rotate(-90,38.252366696067135,323)">mcp</text>
  <rect x="73.50473339213427" y="235" width="43.3261976043474" height="176" rx="3" fill="#edc948" opacity="0.25"/>
  <text x="95.16783219430798" y="323" text-anchor="middle" dominant-baseline="central" font-size="16" fill="#edc948" font-family="system-ui,sans-serif" font-weight="400" transform="rotate(-90,95.16783219430798,323)">portfolio</text>
  <rect x="117.83093099648167" y="235" width="43.3261976043474" height="176" rx="3" fill="#edc948" opacity="0.25"/>
  <text x="139.49402979865536" y="323" text-anchor="middle" dominant-baseline="central" font-size="16" fill="#edc948" font-family="system-ui,sans-serif" font-weight="400" transform="rotate(-90,139.49402979865536,323)">template</text>
  <rect x="162.15712860082908" y="235" width="43.3261976043474" height="176" rx="3" fill="#edc948" opacity="0.25"/>
  <text x="183.82022740300278" y="323" text-anchor="middle" dominant-baseline="central" font-size="16" fill="#edc948" font-family="system-ui,sans-serif" font-weight="400" transform="rotate(-90,183.82022740300278,323)">skills</text>
  <rect x="206.48332620517647" y="235" width="43.32619760434736" height="176" rx="3" fill="#edc948" opacity="0.25"/>
  <text x="228.14642500735016" y="323" text-anchor="middle" dominant-baseline="central" font-size="16" fill="#edc948" font-family="system-ui,sans-serif" font-weight="400" transform="rotate(-90,228.14642500735016,323)">productivity</text>
  <rect x="256.80952380952385" y="211" width="247.80952380952382" height="202" rx="6" fill="#76b7b2" opacity="0.15" stroke="#76b7b2" stroke-width="1.5"/><path d="M262.80952380952385,211 h235.80952380952382 a6,6 0 0 1 6,6 v16 h-247.80952380952382 v-16 a6,6 0 0 1 6,-6 z" fill="#76b7b2" opacity="0.1"/><line x1="256.80952380952385" y1="233" x2="504.6190476190477" y2="233" stroke="#76b7b2" stroke-width="0.75" opacity="0.45"/><text x="264.80952380952385" y="227" font-size="12" fill="#76b7b2" font-family="system-ui,-apple-system,Segoe UI,Roboto,sans-serif" font-weight="700">Learning &amp; Research</text>
  <rect x="257.80952380952385" y="235" width="52.19293777517304" height="176" rx="3" fill="#76b7b2" opacity="0.27"/>
  <text x="283.9059926971104" y="323" text-anchor="middle" dominant-baseline="central" font-size="16" fill="#76b7b2" font-family="system-ui,sans-serif" font-weight="400" transform="rotate(-90,283.9059926971104,323)">learning</text>
  <rect x="311.0024615846969" y="235" width="52.19293777517304" height="176" rx="3" fill="#76b7b2" opacity="0.27"/>
  <text x="337.0989304722834" y="323" text-anchor="middle" dominant-baseline="central" font-size="16" fill="#76b7b2" font-family="system-ui,sans-serif" font-weight="400" transform="rotate(-90,337.0989304722834,323)">tutorial</text>
  <rect x="364.19539935986995" y="235" width="52.19293777517304" height="176" rx="3" fill="#76b7b2" opacity="0.27"/>
  <text x="390.2918682474565" y="323" text-anchor="middle" dominant-baseline="central" font-size="16" fill="#76b7b2" font-family="system-ui,sans-serif" font-weight="400" transform="rotate(-90,390.2918682474565,323)">utaut2</text>
  <rect x="417.388337135043" y="235" width="42.61535524200235" height="176" rx="3" fill="#76b7b2" opacity="0.25"/>
  <text x="438.6960147560442" y="323" text-anchor="middle" dominant-baseline="central" font-size="16" fill="#76b7b2" font-family="system-ui,sans-serif" font-weight="400" transform="rotate(-90,438.6960147560442,323)">flashcards</text>
  <rect x="461.00369237704535" y="235" width="42.61535524200235" height="176" rx="3" fill="#76b7b2" opacity="0.25"/>
  <text x="482.31136999804653" y="323" text-anchor="middle" dominant-baseline="central" font-size="16" fill="#76b7b2" font-family="system-ui,sans-serif" font-weight="400" transform="rotate(-90,482.31136999804653,323)">academic research</text>
  <rect x="510.61904761904765" y="211" width="189.23809523809524" height="202" rx="6" fill="#ff9da7" opacity="0.15" stroke="#ff9da7" stroke-width="1.5"/><path d="M516.6190476190477,211 h177.23809523809524 a6,6 0 0 1 6,6 v16 h-189.23809523809524 v-16 a6,6 0 0 1 6,-6 z" fill="#ff9da7" opacity="0.1"/><line x1="510.61904761904765" y1="233" x2="699.8571428571429" y2="233" stroke="#ff9da7" stroke-width="0.75" opacity="0.45"/><text x="518.6190476190477" y="227" font-size="12" fill="#ff9da7" font-family="system-ui,-apple-system,Segoe UI,Roboto,sans-serif" font-weight="700">Home &amp; Network Automation</text>
  <rect x="511.61904761904765" y="235" width="36.64761904761905" height="176" rx="3" fill="#ff9da7" opacity="0.25"/>
  <text x="529.9428571428572" y="323" text-anchor="middle" dominant-baseline="central" font-size="16" fill="#ff9da7" font-family="system-ui,sans-serif" font-weight="400" transform="rotate(-90,529.9428571428572,323)">homebrew</text>
  <rect x="549.2666666666667" y="235" width="36.64761904761905" height="176" rx="3" fill="#ff9da7" opacity="0.25"/>
  <text x="567.5904761904761" y="323" text-anchor="middle" dominant-baseline="central" font-size="16" fill="#ff9da7" font-family="system-ui,sans-serif" font-weight="400" transform="rotate(-90,567.5904761904761,323)">macbook</text>
  <rect x="586.9142857142857" y="235" width="36.64761904761905" height="176" rx="3" fill="#ff9da7" opacity="0.25"/>
  <text x="605.2380952380952" y="323" text-anchor="middle" dominant-baseline="central" font-size="16" fill="#ff9da7" font-family="system-ui,sans-serif" font-weight="400" transform="rotate(-90,605.2380952380952,323)">macos</text>
  <rect x="624.5619047619048" y="235" width="36.64761904761905" height="176" rx="3" fill="#ff9da7" opacity="0.25"/>
  <text x="642.8857142857142" y="323" text-anchor="middle" dominant-baseline="central" font-size="16" fill="#ff9da7" font-family="system-ui,sans-serif" font-weight="400" transform="rotate(-90,642.8857142857142,323)">power user</text>
  <rect x="662.2095238095238" y="235" width="36.64761904761906" height="176" rx="3" fill="#ff9da7" opacity="0.25"/>
  <text x="680.5333333333333" y="323" text-anchor="middle" dominant-baseline="central" font-size="16" fill="#ff9da7" font-family="system-ui,sans-serif" font-weight="400" transform="rotate(-90,680.5333333333333,323)">setup guide</text>
  <rect x="705.8571428571429" y="211" width="111.14285714285711" height="202" rx="6" fill="#b07aa1" opacity="0.15" stroke="#b07aa1" stroke-width="1.5"/><path d="M711.8571428571429,211 h99.14285714285711 a6,6 0 0 1 6,6 v16 h-111.14285714285711 v-16 a6,6 0 0 1 6,-6 z" fill="#b07aa1" opacity="0.1"/><line x1="705.8571428571429" y1="233" x2="817" y2="233" stroke="#b07aa1" stroke-width="0.75" opacity="0.45"/><text x="713.8571428571429" y="227" font-size="12" fill="#b07aa1" font-family="system-ui,-apple-system,Segoe UI,Roboto,sans-serif" font-weight="700">Media &amp; Video …</text>
  <rect x="706.8571428571429" y="235" width="35.7142857142857" height="176" rx="3" fill="#b07aa1" opacity="0.25"/>
  <text x="724.7142857142858" y="323" text-anchor="middle" dominant-baseline="central" font-size="16" fill="#b07aa1" font-family="system-ui,sans-serif" font-weight="400" transform="rotate(-90,724.7142857142858,323)">video analysis</text>
  <rect x="743.5714285714286" y="235" width="35.7142857142857" height="176" rx="3" fill="#b07aa1" opacity="0.25"/>
  <text x="761.4285714285714" y="323" text-anchor="middle" dominant-baseline="central" font-size="16" fill="#b07aa1" font-family="system-ui,sans-serif" font-weight="400" transform="rotate(-90,761.4285714285714,323)">youtube</text>
  <rect x="780.2857142857142" y="235" width="35.71428571428578" height="176" rx="3" fill="#b07aa1" opacity="0.25"/>
  <text x="798.1428571428571" y="323" text-anchor="middle" dominant-baseline="central" font-size="16" fill="#b07aa1" font-family="system-ui,sans-serif" font-weight="400" transform="rotate(-90,798.1428571428571,323)">youtube api</text>
</g>
<g transform="translate(0, 639)">
<title>Portfolio at a Glance</title>
<rect width="820" height="270" fill="none"/>
<rect x="3" y="3" width="328.82" height="264" rx="6" fill="#0969da" opacity="0.15" stroke="#0969da" stroke-width="1.5"/><path d="M9,3 h316.82 a6,6 0 0 1 6,6 v26 h-328.82 v-26 a6,6 0 0 1 6,-6 z" fill="#0969da" opacity="0.1"/><line x1="3" y1="35" x2="331.82" y2="35" stroke="#0969da" stroke-width="0.75" opacity="0.45"/><text x="11" y="19" font-size="12" fill="#0969da" font-family="system-ui,-apple-system,Segoe UI,Roboto,sans-serif" font-weight="700">Top Languages</text><text x="11" y="31" font-size="9" fill="#0969da" opacity="0.95" font-weight="600" font-family="system-ui,-apple-system,Segoe UI,Roboto,sans-serif">By lines of code</text>
<g transform="translate(11, 41)">
<text x="4" y="28" font-size="11" fill="#0969da" font-family="system-ui,-apple-system,Segoe UI,Roboto,sans-serif">Python</text><rect x="137.3844" y="15" width="175.4356" height="18" rx="3" fill="#0969da" opacity="0.12"/><rect x="137.3844" y="15" width="121" height="18" rx="3" fill="#0969da" opacity="0.55"/><text x="263.3844" y="28" font-size="10" fill="#0969da" font-weight="700" font-family="system-ui,-apple-system,Segoe UI,Roboto,sans-serif">69.0%</text><text x="4" y="62" font-size="11" fill="#0969da" font-family="system-ui,-apple-system,Segoe UI,Roboto,sans-serif">Jupyter Notebook</text><rect x="137.3844" y="49" width="175.4356" height="18" rx="3" fill="#0969da" opacity="0.12"/><rect x="137.3844" y="49" width="31" height="18" rx="3" fill="#0969da" opacity="0.55"/><text x="173.3844" y="62" font-size="10" fill="#0969da" font-weight="700" font-family="system-ui,-apple-system,Segoe UI,Roboto,sans-serif">17.9%</text><text x="4" y="96" font-size="11" fill="#0969da" font-family="system-ui,-apple-system,Segoe UI,Roboto,sans-serif">TypeScript</text><rect x="137.3844" y="83" width="175.4356" height="18" rx="3" fill="#0969da" opacity="0.12"/><rect x="137.3844" y="83" width="10" height="18" rx="3" fill="#0969da" opacity="0.55"/><text x="152.3844" y="96" font-size="10" fill="#0969da" font-weight="700" font-family="system-ui,-apple-system,Segoe UI,Roboto,sans-serif">5.9%</text><text x="4" y="130" font-size="11" fill="#0969da" font-family="system-ui,-apple-system,Segoe UI,Roboto,sans-serif">JavaScript</text><rect x="137.3844" y="117" width="175.4356" height="18" rx="3" fill="#0969da" opacity="0.12"/><rect x="137.3844" y="117" width="5" height="18" rx="3" fill="#0969da" opacity="0.55"/><text x="147.3844" y="130" font-size="10" fill="#0969da" font-weight="700" font-family="system-ui,-apple-system,Segoe UI,Roboto,sans-serif">2.6%</text><text x="4" y="164" font-size="11" fill="#0969da" font-family="system-ui,-apple-system,Segoe UI,Roboto,sans-serif">Cython</text><rect x="137.3844" y="151" width="175.4356" height="18" rx="3" fill="#0969da" opacity="0.12"/><rect x="137.3844" y="151" width="3" height="18" rx="3" fill="#0969da" opacity="0.55"/><text x="145.3844" y="164" font-size="10" fill="#0969da" font-weight="700" font-family="system-ui,-apple-system,Segoe UI,Roboto,sans-serif">1.6%</text><text x="4" y="198" font-size="11" fill="#0969da" font-family="system-ui,-apple-system,Segoe UI,Roboto,sans-serif">PowerShell</text><rect x="137.3844" y="185" width="175.4356" height="18" rx="3" fill="#0969da" opacity="0.12"/><rect x="137.3844" y="185" width="2" height="18" rx="3" fill="#0969da" opacity="0.55"/><text x="144.3844" y="198" font-size="10" fill="#0969da" font-weight="700" font-family="system-ui,-apple-system,Segoe UI,Roboto,sans-serif">1.0%</text>
</g>
<rect x="337.82" y="3" width="144.35999999999999" height="264" rx="6" fill="#9a6700" opacity="0.15" stroke="#9a6700" stroke-width="1.5"/><path d="M343.82,3 h132.35999999999999 a6,6 0 0 1 6,6 v26 h-144.35999999999999 v-26 a6,6 0 0 1 6,-6 z" fill="#9a6700" opacity="0.1"/><line x1="337.82" y1="35" x2="482.17999999999995" y2="35" stroke="#9a6700" stroke-width="0.75" opacity="0.45"/><text x="345.82" y="19" font-size="12" fill="#9a6700" font-family="system-ui,-apple-system,Segoe UI,Roboto,sans-serif" font-weight="700">Tier &amp; Activity</text><text x="345.82" y="31" font-size="9" fill="#9a6700" opacity="0.95" font-weight="600" font-family="system-ui,-apple-system,Segoe UI,Roboto,sans-serif">Portfolio composition</text>
<text x="345.82" y="52" font-size="9" font-weight="700" fill="#9a6700" opacity="0.7" letter-spacing="0.6" font-family="system-ui,-apple-system,Segoe UI,Roboto,sans-serif">TIERS</text>
<g><text x="345.82" y="69" font-size="11">🏆</text><text x="365.82" y="69" font-size="11" fill="#9a6700" font-weight="600" font-family="system-ui,-apple-system,Segoe UI,Roboto,sans-serif">Flagship</text><text x="470.17999999999995" y="69" font-size="12" fill="#9a6700" font-weight="700" font-family="system-ui,-apple-system,Segoe UI,Roboto,sans-serif" text-anchor="end">13</text><text x="345.82" y="91" font-size="11">⭐</text><text x="365.82" y="91" font-size="11" fill="#9a6700" font-weight="600" font-family="system-ui,-apple-system,Segoe UI,Roboto,sans-serif">Notable</text><text x="470.17999999999995" y="91" font-size="12" fill="#9a6700" font-weight="700" font-family="system-ui,-apple-system,Segoe UI,Roboto,sans-serif" text-anchor="end">35</text><text x="345.82" y="113" font-size="11">🤖</text><text x="365.82" y="113" font-size="11" fill="#9a6700" font-weight="600" font-family="system-ui,-apple-system,Segoe UI,Roboto,sans-serif">Agents</text><text x="470.17999999999995" y="113" font-size="12" fill="#9a6700" font-weight="700" font-family="system-ui,-apple-system,Segoe UI,Roboto,sans-serif" text-anchor="end">58</text><text x="345.82" y="135" font-size="11">🪦</text><text x="365.82" y="135" font-size="11" fill="#9a6700" font-weight="600" font-family="system-ui,-apple-system,Segoe UI,Roboto,sans-serif">Archived</text><text x="470.17999999999995" y="135" font-size="12" fill="#9a6700" font-weight="700" font-family="system-ui,-apple-system,Segoe UI,Roboto,sans-serif" text-anchor="end">15</text></g>
<text x="345.82" y="162" font-size="9" font-weight="700" fill="#9a6700" opacity="0.7" letter-spacing="0.6" font-family="system-ui,-apple-system,Segoe UI,Roboto,sans-serif">ACTIVITY</text>
<g><text x="345.82" y="179" font-size="11">⭐</text><text x="365.82" y="179" font-size="11" fill="#9a6700" font-weight="600" font-family="system-ui,-apple-system,Segoe UI,Roboto,sans-serif">Stars</text><text x="470.17999999999995" y="179" font-size="12" fill="#9a6700" font-weight="700" font-family="system-ui,-apple-system,Segoe UI,Roboto,sans-serif" text-anchor="end">20</text><text x="345.82" y="201" font-size="11">🚀</text><text x="365.82" y="201" font-size="11" fill="#9a6700" font-weight="600" font-family="system-ui,-apple-system,Segoe UI,Roboto,sans-serif">Active &lt;30d</text><text x="470.17999999999995" y="201" font-size="12" fill="#9a6700" font-weight="700" font-family="system-ui,-apple-system,Segoe UI,Roboto,sans-serif" text-anchor="end">26</text><text x="345.82" y="223" font-size="11">📂</text><text x="365.82" y="223" font-size="11" fill="#9a6700" font-weight="600" font-family="system-ui,-apple-system,Segoe UI,Roboto,sans-serif">Public</text><text x="470.17999999999995" y="223" font-size="12" fill="#9a6700" font-weight="700" font-family="system-ui,-apple-system,Segoe UI,Roboto,sans-serif" text-anchor="end">34</text><text x="345.82" y="245" font-size="11">🔒</text><text x="365.82" y="245" font-size="11" fill="#9a6700" font-weight="600" font-family="system-ui,-apple-system,Segoe UI,Roboto,sans-serif">Private</text><text x="470.17999999999995" y="245" font-size="12" fill="#9a6700" font-weight="700" font-family="system-ui,-apple-system,Segoe UI,Roboto,sans-serif" text-anchor="end">29</text></g>
<rect x="488.17999999999995" y="3" width="328.82" height="264" rx="6" fill="#8250df" opacity="0.15" stroke="#8250df" stroke-width="1.5"/><path d="M494.17999999999995,3 h316.82 a6,6 0 0 1 6,6 v26 h-328.82 v-26 a6,6 0 0 1 6,-6 z" fill="#8250df" opacity="0.1"/><line x1="488.17999999999995" y1="35" x2="817" y2="35" stroke="#8250df" stroke-width="0.75" opacity="0.45"/><text x="496.17999999999995" y="19" font-size="12" fill="#8250df" font-family="system-ui,-apple-system,Segoe UI,Roboto,sans-serif" font-weight="700">Top Themes</text><text x="496.17999999999995" y="31" font-size="9" fill="#8250df" opacity="0.95" font-weight="600" font-family="system-ui,-apple-system,Segoe UI,Roboto,sans-serif">Topic clusters</text>
<g transform="translate(496.17999999999995, 41)">
<text x="4" y="28" font-size="11" fill="#8250df" font-family="system-ui,-apple-system,Segoe UI,Roboto,sans-serif">AI &amp; Copilot</text><rect x="137.3844" y="15" width="175.4356" height="18" rx="3" fill="#8250df" opacity="0.12"/><rect x="137.3844" y="15" width="121" height="18" rx="3" fill="#8250df" opacity="0.55"/><text x="263.3844" y="28" font-size="10" fill="#8250df" font-weight="700" font-family="system-ui,-apple-system,Segoe UI,Roboto,sans-serif">30</text><text x="4" y="62" font-size="11" fill="#8250df" font-family="system-ui,-apple-system,Segoe UI,Roboto,sans-serif">Developer Tools</text><rect x="137.3844" y="49" width="175.4356" height="18" rx="3" fill="#8250df" opacity="0.12"/><rect x="137.3844" y="49" width="48" height="18" rx="3" fill="#8250df" opacity="0.55"/><text x="190.3844" y="62" font-size="10" fill="#8250df" font-weight="700" font-family="system-ui,-apple-system,Segoe UI,Roboto,sans-serif">12</text><text x="4" y="90" font-size="11" fill="#8250df" font-family="system-ui,-apple-system,Segoe UI,Roboto,sans-serif">Cognitive<tspan x="4" dy="12">Architecture</tspan></text><rect x="137.3844" y="83" width="175.4356" height="18" rx="3" fill="#8250df" opacity="0.12"/><rect x="137.3844" y="83" width="40" height="18" rx="3" fill="#8250df" opacity="0.55"/><text x="182.3844" y="96" font-size="10" fill="#8250df" font-weight="700" font-family="system-ui,-apple-system,Segoe UI,Roboto,sans-serif">10</text><text x="4" y="124" font-size="11" fill="#8250df" font-family="system-ui,-apple-system,Segoe UI,Roboto,sans-serif">Productivity &amp;<tspan x="4" dy="12">Organization</tspan></text><rect x="137.3844" y="117" width="175.4356" height="18" rx="3" fill="#8250df" opacity="0.12"/><rect x="137.3844" y="117" width="40" height="18" rx="3" fill="#8250df" opacity="0.55"/><text x="182.3844" y="130" font-size="10" fill="#8250df" font-weight="700" font-family="system-ui,-apple-system,Segoe UI,Roboto,sans-serif">10</text><text x="4" y="164" font-size="11" fill="#8250df" font-family="system-ui,-apple-system,Segoe UI,Roboto,sans-serif">Learning &amp; Research</text><rect x="137.3844" y="151" width="175.4356" height="18" rx="3" fill="#8250df" opacity="0.12"/><rect x="137.3844" y="151" width="36" height="18" rx="3" fill="#8250df" opacity="0.55"/><text x="178.3844" y="164" font-size="10" fill="#8250df" font-weight="700" font-family="system-ui,-apple-system,Segoe UI,Roboto,sans-serif">9</text><text x="4" y="198" font-size="11" fill="#8250df" font-family="system-ui,-apple-system,Segoe UI,Roboto,sans-serif">Cloud &amp; Azure</text><rect x="137.3844" y="185" width="175.4356" height="18" rx="3" fill="#8250df" opacity="0.12"/><rect x="137.3844" y="185" width="32" height="18" rx="3" fill="#8250df" opacity="0.55"/><text x="174.3844" y="198" font-size="10" fill="#8250df" font-weight="700" font-family="system-ui,-apple-system,Segoe UI,Roboto,sans-serif">8</text>
</g>
</g>
<text x="410" y="935" text-anchor="middle" font-family="Segoe UI, system-ui, sans-serif" font-size="13"><tspan font-weight="700" fill="#1f2328" >63</tspan><tspan fill="#64748b" dx="4">repositories across 10 categories</tspan><tspan fill="#64748b" dx="6">·</tspan><tspan font-weight="700" fill="#1f2328" dx="6">48</tspan><tspan fill="#64748b" dx="4">actively maintained</tspan><tspan fill="#64748b" dx="6">·</tspan><tspan font-weight="700" fill="#1f2328" dx="6">13</tspan><tspan fill="#64748b" dx="4">flagships</tspan></text>
</svg>