<svg xmlns="http://www.w3.org/2000/svg" viewBox="0 0 820 947" width="100%" preserveAspectRatio="xMidYMid meet" role="img" aria-label="Portfolio">
<title>Portfolio</title>
<g transform="translate(0, 0) scale(0.683333)">
<defs>
    <!-- Background gradient - deep space theme -->
    <linearGradient id="bgGrad" x1="0%" y1="0%" x2="100%" y2="100%">
      <stop offset="0%" stop-color="#020617"/>
      <stop offset="50%" stop-color="#0f172a"/>
      <stop offset="100%" stop-color="#1e293b"/>
    </linearGradient>

    <!-- Logo gradient with Azure blue -->
    <linearGradient id="logoGrad" x1="0%" y1="0%" x2="100%" y2="100%">
      <stop offset="0%" stop-color="#00bcf2"/>
      <stop offset="50%" stop-color="#0078d4"/>
      <stop offset="100%" stop-color="#005a9e"/>
    </linearGradient>

    <!-- Name gradient -->
    <linearGradient id="nameGrad" x1="0%" y1="0%" x2="100%" y2="0%">
      <stop offset="0%" stop-color="#f8fafc"/>
      <stop offset="50%" stop-color="#e2e8f0"/>
      <stop offset="100%" stop-color="#f8fafc"/>
    </linearGradient>

    <!-- Accent text gradient -->
    <linearGradient id="accentTextGrad" x1="0%" y1="0%" x2="100%" y2="0%">
      <stop offset="0%" stop-color="#00bcf2"/>
      <stop offset="50%" stop-color="#0078d4"/>
      <stop offset="100%" stop-color="#00bcf2"/>
    </linearGradient>

    <!-- Glow filter -->
    <filter id="glow" x="-50%" y="-50%" width="200%" height="200%">
      <feGaussianBlur stdDeviation="3" result="coloredBlur"/>
      <feMerge>
        <feMergeNode in="coloredBlur"/>
        <feMergeNode in="SourceGraphic"/>
      </feMerge>
    </filter>

    <!-- Strong glow for logo -->
    <filter id="logoGlow" x="-100%" y="-100%" width="300%" height="300%">
      <feGaussianBlur stdDeviation="6" result="blur1"/>
      <feGaussianBlur stdDeviation="12" result="blur2"/>
      <feMerge>
        <feMergeNode in="blur2"/>
        <feMergeNode in="blur1"/>
        <feMergeNode in="SourceGraphic"/>
      </feMerge>
    </filter>

    <!-- Radial glow behind logo -->
    <radialGradient id="logoBackGlow" cx="50%" cy="50%" r="50%">
      <stop offset="0%" stop-color="#0078d4" stop-opacity="0.4"/>
      <stop offset="50%" stop-color="#0078d4" stop-opacity="0.1"/>
      <stop offset="100%" stop-color="#0078d4" stop-opacity="0"/>
    </radialGradient>

    <!-- Grid pattern -->
    <pattern id="grid" width="50" height="50" patternUnits="userSpaceOnUse">
      <path d="M 50 0 L 0 0 0 50" fill="none" stroke="#1e3a5f" stroke-width="0.5" opacity="0.4"/>
    </pattern>

    <!-- Dot pattern -->
    <pattern id="dots" width="30" height="30" patternUnits="userSpaceOnUse">
      <circle cx="15" cy="15" r="1" fill="#0078d4" opacity="0.2"/>
    </pattern>

    <!-- Gradient for accent line -->
    <linearGradient id="accentGrad" x1="0%" y1="0%" x2="100%" y2="0%">
      <stop offset="0%" stop-color="#005a9e"/>
      <stop offset="25%" stop-color="#0078d4"/>
      <stop offset="50%" stop-color="#00bcf2"/>
      <stop offset="75%" stop-color="#0078d4"/>
      <stop offset="100%" stop-color="#005a9e"/>
    </linearGradient>

    <!-- Neural network gradient -->
    <linearGradient id="neuralGrad" x1="0%" y1="0%" x2="100%" y2="100%">
      <stop offset="0%" stop-color="#7c3aed"/>
      <stop offset="50%" stop-color="#0078d4"/>
      <stop offset="100%" stop-color="#00bcf2"/>
    </linearGradient>
  </defs>

  <!-- Background -->
  <rect width="1200" height="300" fill="url(#bgGrad)"/>

  <!-- Grid overlay -->
  <rect width="1200" height="300" fill="url(#grid)"/>

  <!-- Dot pattern overlay -->
  <rect width="1200" height="300" fill="url(#dots)" opacity="0.5"/>

  <!-- Large decorative orbs -->
  <circle cx="150" cy="150" r="180" fill="url(#logoBackGlow)"/>
  <circle cx="1050" cy="80" r="150" fill="#0078d4" opacity="0.05"/>
  <circle cx="1150" cy="280" r="180" fill="#00bcf2" opacity="0.03"/>
  <circle cx="50" cy="250" r="100" fill="#7c3aed" opacity="0.06"/>

  <!-- Neural network nodes - cognitive theme -->
  <g opacity="0.4">
    <!-- Left side neural cluster -->
    <circle cx="80" cy="60" r="4" fill="#7c3aed"/>
    <circle cx="120" cy="40" r="3" fill="#0078d4"/>
    <circle cx="60" cy="100" r="3" fill="#00bcf2"/>
    <circle cx="140" cy="90" r="2" fill="#7c3aed"/>
    <line x1="80" y1="60" x2="120" y2="40" stroke="#7c3aed" stroke-width="1"/>
    <line x1="80" y1="60" x2="60" y2="100" stroke="#0078d4" stroke-width="1"/>
    <line x1="120" y1="40" x2="140" y2="90" stroke="#00bcf2" stroke-width="0.5"/>

    <!-- Right side neural cluster -->
    <circle cx="1100" cy="70" r="3" fill="#00bcf2"/>
    <circle cx="1140" cy="50" r="2" fill="#0078d4"/>
    <circle cx="1080" cy="100" r="4" fill="#7c3aed"/>
    <circle cx="1120" cy="120" r="2" fill="#0078d4"/>
    <line x1="1100" y1="70" x2="1140" y2="50" stroke="#00bcf2" stroke-width="0.5"/>
    <line x1="1100" y1="70" x2="1080" y2="100" stroke="#7c3aed" stroke-width="1"/>
    <line x1="1080" y1="100" x2="1120" y2="120" stroke="#0078d4" stroke-width="0.5"/>
  </g>

  <!-- Floating particles -->
  <circle cx="300" cy="30" r="1.5" fill="#0078d4" opacity="0.5"/>
  <circle cx="500" cy="50" r="2" fill="#00bcf2" opacity="0.4"/>
  <circle cx="750" cy="25" r="1" fill="#7c3aed" opacity="0.6"/>
  <circle cx="950" cy="45" r="2.5" fill="#00bcf2" opacity="0.3"/>
  <circle cx="400" cy="270" r="2" fill="#00bcf2" opacity="0.4"/>
  <circle cx="700" cy="260" r="1.5" fill="#0078d4" opacity="0.5"/>
  <circle cx="900" cy="275" r="2" fill="#7c3aed" opacity="0.3"/>
  <circle cx="1050" cy="250" r="1" fill="#0078d4" opacity="0.6"/>

  <!-- Logo glow backdrop -->
  <ellipse cx="150" cy="150" rx="120" ry="110" fill="url(#logoBackGlow)"/>

  <!-- Logo mark (scaled) with glow -->
  <g transform="translate(55, 58) scale(6)" filter="url(#logoGlow)">
    <path d="M16 2C8.268 2 2 8.268 2 16s6.268 14 14 14c3.866 0 7.389-1.568 9.928-4.1l-3.535-3.536A9.002 9.002 0 0116 25c-4.97 0-9-4.03-9-9s4.03-9 9-9c2.29 0 4.38.857 5.971 2.268l3.464-3.639C22.993 3.352 19.66 2 16 2z" fill="url(#logoGrad)"/>
    <path d="M20 10l-4 6 4 6h4l-4-6 4-6h-4z" fill="url(#logoGrad)"/>
    <path d="M24 10l4 6-4 6h4l4-6-4-6h-4z" fill="url(#logoGrad)" opacity="0.6"/>
  </g>

  <text x="320" y="54" font-family="Segoe UI, system-ui, sans-serif" font-size="13" font-weight="600" fill="#94a3b8" letter-spacing="3">AUTOMATIC REPOSITORY PORTFOLIO FOR</text>
  <!-- Main name -->
  <text x="320" y="135" font-family="Segoe UI, system-ui, sans-serif" font-size="74" font-weight="700" fill="url(#nameGrad)" filter="url(#glow)">Dr. Fabio Correa, DBA</text>

  <!-- Title line -->
  <text x="320" y="180" font-family="Segoe UI, system-ui, sans-serif" font-size="22" fill="#94a3b8" letter-spacing="1" textLength="800" lengthAdjust="spacingAndGlyphs">Building AI-powered solutions for organizational learning, cognitive architecture, and developer tools.</text>

  <!-- Tagline with accent -->
  <text x="320" y="220" font-family="Segoe UI, system-ui, sans-serif" font-size="18" fill="url(#accentTextGrad)" letter-spacing="1.5">THINK • BUILD • DEPLOY</text>

  <!-- Decorative accent line -->
  <line x1="320" y1="240" x2="850" y2="240" stroke="#334155" stroke-width="1"/>
  <line x1="320" y1="243" x2="600" y2="243" stroke="url(#accentGrad)" stroke-width="2" opacity="0.6"/>

  <!-- CorreaX branding badge -->
  <g transform="translate(320, 255)" font-family="Segoe UI, system-ui, sans-serif" font-size="12" fill="#94a3b8"><text letter-spacing="1">UPDATED</text><text x="70" font-weight="700">Apr 26 2026 12:59 EDT</text></g>

  <!-- Tech circuit decorations on right -->
  <g opacity="0.25">
    <path d="M1000 140 h80 v40 h40" stroke="#0078d4" stroke-width="1.5" fill="none"/>
    <circle cx="1000" cy="140" r="3" fill="#0078d4"/>
    <circle cx="1120" cy="180" r="4" fill="#00bcf2"/>
    <path d="M1020 200 h60 v-25 h30" stroke="#7c3aed" stroke-width="1" fill="none"/>
    <circle cx="1020" cy="200" r="2" fill="#7c3aed"/>
    <path d="M980 100 h50 l20 20 h40" stroke="#00bcf2" stroke-width="1" fill="none"/>
    <circle cx="980" cy="100" r="2" fill="#00bcf2"/>
  </g>

  <!-- Bottom accent bar with glow -->
  <rect x="0" y="290" width="1200" height="10" fill="url(#accentGrad)" filter="url(#glow)"/>
</g>
<g transform="translate(0, 217)">
<rect width="820" height="416" fill="none"/>
  <rect x="3" y="3" width="221.514450867052" height="202" rx="6" fill="#4e79a7" opacity="0.15" stroke="#4e79a7" stroke-width="1.5"/><path d="M9,3 h209.514450867052 a6,6 0 0 1 6,6 v16 h-221.514450867052 v-16 a6,6 0 0 1 6,-6 z" fill="#4e79a7" opacity="0.1"/><line x1="3" y1="25" x2="224.514450867052" y2="25" stroke="#4e79a7" stroke-width="0.75" opacity="0.45"/><text x="11" y="19" font-size="12" fill="#4e79a7" font-family="system-ui,-apple-system,Segoe UI,Roboto,sans-serif" font-weight="700">AI &amp; Copilot</text>
  <rect x="4" y="27" width="33.540692567003944" height="176" rx="3" fill="#4e79a7" opacity="0.36"/>
  <text x="20.770346283501972" y="115" text-anchor="middle" dominant-baseline="central" font-size="16" fill="#4e79a7" font-family="system-ui,sans-serif" font-weight="600" transform="rotate(-90,20.770346283501972,115)">github copilot</text>
  <rect x="38.540692567003944" y="27" width="31.05264733882406" height="176" rx="3" fill="#4e79a7" opacity="0.34"/>
  <text x="54.067016236415974" y="115" text-anchor="middle" dominant-baseline="central" font-size="16" fill="#4e79a7" font-family="system-ui,sans-serif" font-weight="600" transform="rotate(-90,54.067016236415974,115)">ai</text>
  <rect x="70.593339905828" y="27" width="28.347059029544514" height="176" rx="3" fill="#4e79a7" opacity="0.32"/>
  <text x="84.76686942060026" y="115" text-anchor="middle" dominant-baseline="central" font-size="16" fill="#4e79a7" font-family="system-ui,sans-serif" font-weight="400" transform="rotate(-90,84.76686942060026,115)">claude</text>
  <rect x="99.94039893537251" y="27" width="28.347059029544514" height="176" rx="3" fill="#4e79a7" opacity="0.32"/>
  <text x="114.11392845014477" y="115" text-anchor="middle" dominant-baseline="central" font-size="16" fill="#4e79a7" font-family="system-ui,sans-serif" font-weight="400" transform="rotate(-90,114.11392845014477,115)">ai assistant</text>
  <rect x="129.28745796491702" y="27" width="25.354380380904296" height="176" rx="3" fill="#4e79a7" opacity="0.29"/>
  <text x="141.96464815536916" y="115" text-anchor="middle" dominant-baseline="central" font-size="16" fill="#4e79a7" font-family="system-ui,sans-serif" font-weight="400" transform="rotate(-90,141.96464815536916,115)">ai agents</text>
  <rect x="155.64183834582133" y="27" width="21.957537507076893" height="176" rx="3" fill="#4e79a7" opacity="0.27"/>
  <text x="166.62060709935977" y="115" text-anchor="middle" dominant-baseline="central" font-size="16" fill="#4e79a7" font-family="system-ui,sans-serif" font-weight="400" transform="rotate(-90,166.62060709935977,115)">azure openai</text>
  <rect x="178.59937585289822" y="27" width="21.957537507076893" height="176" rx="3" fill="#4e79a7" opacity="0.27"/>
  <text x="189.57814460643667" y="115" text-anchor="middle" dominant-baseline="central" font-size="16" fill="#4e79a7" font-family="system-ui,sans-serif" font-weight="400" transform="rotate(-90,189.57814460643667,115)">ai adoption</text>
  <rect x="201.5569133599751" y="27" width="21.957537507076893" height="176" rx="3" fill="#4e79a7" opacity="0.27"/>
  <text x="212.53568211351356" y="115" text-anchor="middle" dominant-baseline="central" font-size="16" fill="#4e79a7" font-family="system-ui,sans-serif" font-weight="400" transform="rotate(-90,212.53568211351356,115)">copilot</text>
  <rect x="230.514450867052" y="3" width="212.03468208092482" height="202" rx="6" fill="#57606a" opacity="0.15" stroke="#57606a" stroke-width="1.5"/><path d="M236.514450867052,3 h200.03468208092482 a6,6 0 0 1 6,6 v16 h-212.03468208092482 v-16 a6,6 0 0 1 6,-6 z" fill="#57606a" opacity="0.1"/><line x1="230.514450867052" y1="25" x2="442.54913294797683" y2="25" stroke="#57606a" stroke-width="0.75" opacity="0.45"/><text x="238.514450867052" y="19" font-size="12" fill="#57606a" font-family="system-ui,-apple-system,Segoe UI,Roboto,sans-serif" font-weight="700">Other</text>
  <rect x="231.514450867052" y="27" width="42.14777286180355" height="176" rx="3" fill="#57606a" opacity="0.45"/>
  <text x="252.58833729795379" y="115" text-anchor="middle" dominant-baseline="central" font-size="16" fill="#57606a" font-family="system-ui,sans-serif" font-weight="600" transform="rotate(-90,252.58833729795379,115)">agent</text>
  <rect x="274.66222372885557" y="27" width="25.41606333304113" height="176" rx="3" fill="#57606a" opacity="0.29"/>
  <text x="287.37025539537615" y="115" text-anchor="middle" dominant-baseline="central" font-size="16" fill="#57606a" font-family="system-ui,sans-serif" font-weight="400" transform="rotate(-90,287.37025539537615,115)">prompt engineering</text>
  <rect x="301.0782870618967" y="27" width="25.41606333304113" height="176" rx="3" fill="#57606a" opacity="0.29"/>
  <text x="313.78631872841726" y="115" text-anchor="middle" dominant-baseline="central" font-size="16" fill="#57606a" font-family="system-ui,sans-serif" font-weight="400" transform="rotate(-90,313.78631872841726,115)">python</text>
  <rect x="327.4943503949378" y="27" width="22.01095651060781" height="176" rx="3" fill="#57606a" opacity="0.27"/>
  <text x="338.4998286502417" y="115" text-anchor="middle" dominant-baseline="central" font-size="16" fill="#57606a" font-family="system-ui,sans-serif" font-weight="400" transform="rotate(-90,338.4998286502417,115)">dashboard</text>
  <rect x="350.5053069055456" y="27" width="22.01095651060781" height="176" rx="3" fill="#57606a" opacity="0.27"/>
  <text x="361.5107851608495" y="115" text-anchor="middle" dominant-baseline="central" font-size="16" fill="#57606a" font-family="system-ui,sans-serif" font-weight="400" transform="rotate(-90,361.5107851608495,115)">fleet</text>
  <rect x="373.5162634161534" y="27" width="22.01095651060781" height="176" rx="3" fill="#57606a" opacity="0.27"/>
  <text x="384.5217416714573" y="115" text-anchor="middle" dominant-baseline="central" font-size="16" fill="#57606a" font-family="system-ui,sans-serif" font-weight="400" transform="rotate(-90,384.5217416714573,115)">pdf</text>
  <rect x="396.5272199267612" y="27" width="22.01095651060781" height="176" rx="3" fill="#57606a" opacity="0.27"/>
  <text x="407.5326981820651" y="115" text-anchor="middle" dominant-baseline="central" font-size="16" fill="#57606a" font-family="system-ui,sans-serif" font-weight="400" transform="rotate(-90,407.5326981820651,115)">dialog engineering</text>
  <rect x="419.538176437369" y="27" width="22.010956510607855" height="176" rx="3" fill="#57606a" opacity="0.27"/>
  <text x="430.54365469267293" y="115" text-anchor="middle" dominant-baseline="central" font-size="16" fill="#57606a" font-family="system-ui,sans-serif" font-weight="400" transform="rotate(-90,430.54365469267293,115)">generative ai</text>
  <rect x="448.54913294797683" y="3" width="136.19653179190752" height="202" rx="6" fill="#f28e2b" opacity="0.15" stroke="#f28e2b" stroke-width="1.5"/><path d="M454.54913294797683,3 h124.19653179190752 a6,6 0 0 1 6,6 v16 h-136.19653179190752 v-16 a6,6 0 0 1 6,-6 z" fill="#f28e2b" opacity="0.1"/><line x1="448.54913294797683" y1="25" x2="584.7456647398843" y2="25" stroke="#f28e2b" stroke-width="0.75" opacity="0.45"/><text x="456.54913294797683" y="19" font-size="12" fill="#f28e2b" font-family="system-ui,-apple-system,Segoe UI,Roboto,sans-serif" font-weight="700">Cognitive Archite…</text>
  <rect x="449.54913294797683" y="27" width="27.75515433802792" height="176" rx="3" fill="#f28e2b" opacity="0.41"/>
  <text x="463.42671011699076" y="115" text-anchor="middle" dominant-baseline="central" font-size="16" fill="#f28e2b" font-family="system-ui,sans-serif" font-weight="600" transform="rotate(-90,463.42671011699076,115)">agentic</text>
  <rect x="478.30428728600475" y="27" width="24.477745326212478" height="176" rx="3" fill="#f28e2b" opacity="0.36"/>
  <text x="490.543159949111" y="115" text-anchor="middle" dominant-baseline="central" font-size="13" fill="#f28e2b" font-family="system-ui,sans-serif" font-weight="600" transform="rotate(-90,490.543159949111,115)">cognitive architecture</text>
  <rect x="503.7820326122172" y="27" width="20.687470608609537" height="176" rx="3" fill="#f28e2b" opacity="0.32"/>
  <text x="514.125767916522" y="115" text-anchor="middle" dominant-baseline="central" font-size="15" fill="#f28e2b" font-family="system-ui,sans-serif" font-weight="400" transform="rotate(-90,514.125767916522,115)">mcp</text>
  <rect x="525.4695032208267" y="27" width="16.024445828460028" height="176" rx="3" fill="#f28e2b" opacity="0.27"/>
  <text x="533.4817261350568" y="115" text-anchor="middle" dominant-baseline="central" font-size="12" fill="#f28e2b" font-family="system-ui,sans-serif" font-weight="400" transform="rotate(-90,533.4817261350568,115)">model context protocol</text>
  <rect x="542.4939490492867" y="27" width="13.083905230199179" height="176" rx="3" fill="#f28e2b" opacity="0.25"/>
  <text x="549.0359016643863" y="115" text-anchor="middle" dominant-baseline="central" font-size="9" fill="#f28e2b" font-family="system-ui,sans-serif" font-weight="400" transform="rotate(-90,549.0359016643863,115)">neuroscience</text>
  <rect x="556.5778542794859" y="27" width="13.083905230199179" height="176" rx="3" fill="#f28e2b" opacity="0.25"/>
  <text x="563.1198068945855" y="115" text-anchor="middle" dominant-baseline="central" font-size="9" fill="#f28e2b" font-family="system-ui,sans-serif" font-weight="400" transform="rotate(-90,563.1198068945855,115)">cognitive science</text>
  <rect x="570.6617595096851" y="27" width="13.083905230199207" height="176" rx="3" fill="#f28e2b" opacity="0.25"/>
  <text x="577.2037121247847" y="115" text-anchor="middle" dominant-baseline="central" font-size="9" fill="#f28e2b" font-family="system-ui,sans-serif" font-weight="400" transform="rotate(-90,577.2037121247847,115)">memory systems</text>
  <rect x="590.7456647398843" y="3" width="121.97687861271677" height="202" rx="6" fill="#59a14f" opacity="0.15" stroke="#59a14f" stroke-width="1.5"/><path d="M596.7456647398843,3 h109.97687861271677 a6,6 0 0 1 6,6 v16 h-121.97687861271677 v-16 a6,6 0 0 1 6,-6 z" fill="#59a14f" opacity="0.1"/><line x1="590.7456647398843" y1="25" x2="712.7225433526011" y2="25" stroke="#59a14f" stroke-width="0.75" opacity="0.45"/><text x="598.7456647398843" y="19" font-size="12" fill="#59a14f" font-family="system-ui,-apple-system,Segoe UI,Roboto,sans-serif" font-weight="700">Developer Tools</text>
  <rect x="591.7456647398843" y="27" width="19.22803894444319" height="176" rx="3" fill="#59a14f" opacity="0.34"/>
  <text x="601.3596842121059" y="115" text-anchor="middle" dominant-baseline="central" font-size="14" fill="#59a14f" font-family="system-ui,sans-serif" font-weight="600" transform="rotate(-90,601.3596842121059,115)">typescript</text>
  <rect x="611.9737036843275" y="27" width="17.552717777432267" height="176" rx="3" fill="#59a14f" opacity="0.32"/>
  <text x="620.7500625730436" y="115" text-anchor="middle" dominant-baseline="central" font-size="13" fill="#59a14f" font-family="system-ui,sans-serif" font-weight="400" transform="rotate(-90,620.7500625730436,115)">vscode extension</text>
  <rect x="630.5264214617597" y="27" width="15.69962805608303" height="176" rx="3" fill="#59a14f" opacity="0.29"/>
  <text x="638.3762354898012" y="115" text-anchor="middle" dominant-baseline="central" font-size="11" fill="#59a14f" font-family="system-ui,sans-serif" font-weight="400" transform="rotate(-90,638.3762354898012,115)">vscode</text>
  <rect x="647.2260495178427" y="27" width="13.596276726534805" height="176" rx="3" fill="#59a14f" opacity="0.27"/>
  <text x="654.0241878811102" y="115" text-anchor="middle" dominant-baseline="central" font-size="10" fill="#59a14f" font-family="system-ui,sans-serif" font-weight="400" transform="rotate(-90,654.0241878811102,115)">react</text>
  <rect x="661.8223262443776" y="27" width="13.596276726534805" height="176" rx="3" fill="#59a14f" opacity="0.27"/>
  <text x="668.620464607645" y="115" text-anchor="middle" dominant-baseline="central" font-size="10" fill="#59a14f" font-family="system-ui,sans-serif" font-weight="400" transform="rotate(-90,668.620464607645,115)">developer tools</text>
  <rect x="676.4186029709124" y="27" width="11.101313460562887" height="176" rx="3" fill="#59a14f" opacity="0.25"/>
  <text x="681.9692597011938" y="115" text-anchor="middle" dominant-baseline="central" font-size="8" fill="#59a14f" font-family="system-ui,sans-serif" font-weight="400" transform="rotate(-90,681.9692597011938,115)">markdown</text>
  <rect x="688.5199164314753" y="27" width="11.101313460562887" height="176" rx="3" fill="#59a14f" opacity="0.25"/>
  <text x="694.0705731617567" y="115" text-anchor="middle" dominant-baseline="central" font-size="8" fill="#59a14f" font-family="system-ui,sans-serif" font-weight="400" transform="rotate(-90,694.0705731617567,115)">portfolio</text>
  <rect x="700.6212298920382" y="27" width="11.101313460562892" height="176" rx="3" fill="#59a14f" opacity="0.25"/>
  <text x="706.1718866223196" y="115" text-anchor="middle" dominant-baseline="central" font-size="8" fill="#59a14f" font-family="system-ui,sans-serif" font-weight="400" transform="rotate(-90,706.1718866223196,115)">template</text>
  <rect x="718.7225433526011" y="3" width="98.27745664739894" height="202" rx="6" fill="#ff9da7" opacity="0.15" stroke="#ff9da7" stroke-width="1.5"/><path d="M724.7225433526011,3 h86.27745664739894 a6,6 0 0 1 6,6 v16 h-98.27745664739894 v-16 a6,6 0 0 1 6,-6 z" fill="#ff9da7" opacity="0.1"/><line x1="718.7225433526011" y1="25" x2="817" y2="25" stroke="#ff9da7" stroke-width="0.75" opacity="0.45"/><text x="726.7225433526011" y="19" font-size="12" fill="#ff9da7" font-family="system-ui,-apple-system,Segoe UI,Roboto,sans-serif" font-weight="700">Productivity…</text>
  <rect x="719.7225433526011" y="27" width="11.159682080924865" height="176" rx="3" fill="#ff9da7" opacity="0.25"/>
  <text x="725.3023843930634" y="115" text-anchor="middle" dominant-baseline="central" font-size="8" fill="#ff9da7" font-family="system-ui,sans-serif" font-weight="400" transform="rotate(-90,725.3023843930634,115)">homebrew</text>
  <rect x="731.882225433526" y="27" width="11.159682080924865" height="176" rx="3" fill="#ff9da7" opacity="0.25"/>
  <text x="737.4620664739883" y="115" text-anchor="middle" dominant-baseline="central" font-size="8" fill="#ff9da7" font-family="system-ui,sans-serif" font-weight="400" transform="rotate(-90,737.4620664739883,115)">macbook</text>
  <rect x="744.0419075144508" y="27" width="11.159682080924865" height="176" rx="3" fill="#ff9da7" opacity="0.25"/>
  <text x="749.6217485549132" y="115" text-anchor="middle" dominant-baseline="central" font-size="8" fill="#ff9da7" font-family="system-ui,sans-serif" font-weight="400" transform="rotate(-90,749.6217485549132,115)">macos</text>
  <rect x="756.2015895953757" y="27" width="11.159682080924865" height="176" rx="3" fill="#ff9da7" opacity="0.25"/>
  <text x="761.7814306358381" y="115" text-anchor="middle" dominant-baseline="central" font-size="8" fill="#ff9da7" font-family="system-ui,sans-serif" font-weight="400" transform="rotate(-90,761.7814306358381,115)">power user</text>
  <rect x="768.3612716763006" y="27" width="11.159682080924865" height="176" rx="3" fill="#ff9da7" opacity="0.25"/>
  <text x="773.941112716763" y="115" text-anchor="middle" dominant-baseline="central" font-size="8" fill="#ff9da7" font-family="system-ui,sans-serif" font-weight="400" transform="rotate(-90,773.941112716763,115)">setup guide</text>
  <rect x="780.5209537572255" y="27" width="11.159682080924865" height="176" rx="3" fill="#ff9da7" opacity="0.25"/>
  <text x="786.1007947976879" y="115" text-anchor="middle" dominant-baseline="central" font-size="8" fill="#ff9da7" font-family="system-ui,sans-serif" font-weight="400" transform="rotate(-90,786.1007947976879,115)">governance</text>
  <rect x="792.6806358381504" y="27" width="11.159682080924865" height="176" rx="3" fill="#ff9da7" opacity="0.25"/>
  <text x="798.2604768786127" y="115" text-anchor="middle" dominant-baseline="central" font-size="8" fill="#ff9da7" font-family="system-ui,sans-serif" font-weight="400" transform="rotate(-90,798.2604768786127,115)">orchestration</text>
  <rect x="804.8403179190752" y="27" width="11.159682080924767" height="176" rx="3" fill="#ff9da7" opacity="0.25"/>
  <text x="810.4201589595376" y="115" text-anchor="middle" dominant-baseline="central" font-size="8" fill="#ff9da7" font-family="system-ui,sans-serif" font-weight="400" transform="rotate(-90,810.4201589595376,115)">skills</text>
  <rect x="3" y="211" width="293.6153846153846" height="202" rx="6" fill="#e15759" opacity="0.15" stroke="#e15759" stroke-width="1.5"/><path d="M9,211 h281.6153846153846 a6,6 0 0 1 6,6 v16 h-293.6153846153846 v-16 a6,6 0 0 1 6,-6 z" fill="#e15759" opacity="0.1"/><line x1="3" y1="233" x2="296.6153846153846" y2="233" stroke="#e15759" stroke-width="0.75" opacity="0.45"/><text x="11" y="227" font-size="12" fill="#e15759" font-family="system-ui,-apple-system,Segoe UI,Roboto,sans-serif" font-weight="700">Learning &amp; Research</text>
  <rect x="4" y="235" width="40.18582020564813" height="176" rx="3" fill="#e15759" opacity="0.27"/>
  <text x="24.092910102824064" y="323" text-anchor="middle" dominant-baseline="central" font-size="16" fill="#e15759" font-family="system-ui,sans-serif" font-weight="400" transform="rotate(-90,24.092910102824064,323)">learning</text>
  <rect x="45.18582020564813" y="235" width="40.18582020564813" height="176" rx="3" fill="#e15759" opacity="0.27"/>
  <text x="65.27873030847219" y="323" text-anchor="middle" dominant-baseline="central" font-size="16" fill="#e15759" font-family="system-ui,sans-serif" font-weight="400" transform="rotate(-90,65.27873030847219,323)">tutorial</text>
  <rect x="86.37164041129626" y="235" width="40.18582020564813" height="176" rx="3" fill="#e15759" opacity="0.27"/>
  <text x="106.46455051412032" y="323" text-anchor="middle" dominant-baseline="central" font-size="16" fill="#e15759" font-family="system-ui,sans-serif" font-weight="400" transform="rotate(-90,106.46455051412032,323)">utaut2</text>
  <rect x="127.55746061694438" y="235" width="32.81158479968803" height="176" rx="3" fill="#e15759" opacity="0.25"/>
  <text x="143.9632530167884" y="323" text-anchor="middle" dominant-baseline="central" font-size="16" fill="#e15759" font-family="system-ui,sans-serif" font-weight="400" transform="rotate(-90,143.9632530167884,323)">research</text>
  <rect x="161.36904541663242" y="235" width="32.81158479968803" height="176" rx="3" fill="#e15759" opacity="0.25"/>
  <text x="177.77483781647643" y="323" text-anchor="middle" dominant-baseline="central" font-size="16" fill="#e15759" font-family="system-ui,sans-serif" font-weight="400" transform="rotate(-90,177.77483781647643,323)">summarization</text>
  <rect x="195.18063021632045" y="235" width="32.81158479968803" height="176" rx="3" fill="#e15759" opacity="0.25"/>
  <text x="211.58642261616447" y="323" text-anchor="middle" dominant-baseline="central" font-size="16" fill="#e15759" font-family="system-ui,sans-serif" font-weight="400" transform="rotate(-90,211.58642261616447,323)">education</text>
  <rect x="228.9922150160085" y="235" width="32.81158479968803" height="176" rx="3" fill="#e15759" opacity="0.25"/>
  <text x="245.3980074158525" y="323" text-anchor="middle" dominant-baseline="central" font-size="16" fill="#e15759" font-family="system-ui,sans-serif" font-weight="400" transform="rotate(-90,245.3980074158525,323)">flashcards</text>
  <rect x="262.8037998156965" y="235" width="32.81158479968809" height="176" rx="3" fill="#e15759" opacity="0.25"/>
  <text x="279.2095922155405" y="323" text-anchor="middle" dominant-baseline="central" font-size="16" fill="#e15759" font-family="system-ui,sans-serif" font-weight="400" transform="rotate(-90,279.2095922155405,323)">academic research</text>
  <rect x="302.6153846153846" y="211" width="293.6153846153846" height="202" rx="6" fill="#b07aa1" opacity="0.15" stroke="#b07aa1" stroke-width="1.5"/><path d="M308.6153846153846,211 h281.6153846153846 a6,6 0 0 1 6,6 v16 h-293.6153846153846 v-16 a6,6 0 0 1 6,-6 z" fill="#b07aa1" opacity="0.1"/><line x1="302.6153846153846" y1="233" x2="596.2307692307692" y2="233" stroke="#b07aa1" stroke-width="0.75" opacity="0.45"/><text x="310.6153846153846" y="227" font-size="12" fill="#b07aa1" font-family="system-ui,-apple-system,Segoe UI,Roboto,sans-serif" font-weight="700">Media &amp; Entertainment</text>
  <rect x="303.6153846153846" y="235" width="42.38201160978486" height="176" rx="3" fill="#b07aa1" opacity="0.27"/>
  <text x="324.806390420277" y="323" text-anchor="middle" dominant-baseline="central" font-size="16" fill="#b07aa1" font-family="system-ui,sans-serif" font-weight="400" transform="rotate(-90,324.806390420277,323)">spotify api</text>
  <rect x="346.99739622516944" y="235" width="34.60476757222853" height="176" rx="3" fill="#b07aa1" opacity="0.25"/>
  <text x="364.2997800112837" y="323" text-anchor="middle" dominant-baseline="central" font-size="16" fill="#b07aa1" font-family="system-ui,sans-serif" font-weight="400" transform="rotate(-90,364.2997800112837,323)">video analysis</text>
  <rect x="382.60216379739796" y="235" width="34.60476757222853" height="176" rx="3" fill="#b07aa1" opacity="0.25"/>
  <text x="399.9045475835122" y="323" text-anchor="middle" dominant-baseline="central" font-size="16" fill="#b07aa1" font-family="system-ui,sans-serif" font-weight="400" transform="rotate(-90,399.9045475835122,323)">youtube</text>
  <rect x="418.2069313696265" y="235" width="34.60476757222853" height="176" rx="3" fill="#b07aa1" opacity="0.25"/>
  <text x="435.50931515574075" y="323" text-anchor="middle" dominant-baseline="central" font-size="16" fill="#b07aa1" font-family="system-ui,sans-serif" font-weight="400" transform="rotate(-90,435.50931515574075,323)">youtube api</text>
  <rect x="453.811698941855" y="235" width="34.60476757222853" height="176" rx="3" fill="#b07aa1" opacity="0.25"/>
  <text x="471.1140827279693" y="323" text-anchor="middle" dominant-baseline="central" font-size="16" fill="#b07aa1" font-family="system-ui,sans-serif" font-weight="400" transform="rotate(-90,471.1140827279693,323)">audio</text>
  <rect x="489.41646651408354" y="235" width="34.60476757222853" height="176" rx="3" fill="#b07aa1" opacity="0.25"/>
  <text x="506.7188503001978" y="323" text-anchor="middle" dominant-baseline="central" font-size="16" fill="#b07aa1" font-family="system-ui,sans-serif" font-weight="400" transform="rotate(-90,506.7188503001978,323)">generative art</text>
  <rect x="525.0212340863121" y="235" width="34.60476757222853" height="176" rx="3" fill="#b07aa1" opacity="0.25"/>
  <text x="542.3236178724264" y="323" text-anchor="middle" dominant-baseline="central" font-size="16" fill="#b07aa1" font-family="system-ui,sans-serif" font-weight="400" transform="rotate(-90,542.3236178724264,323)">music</text>
  <rect x="560.6260016585406" y="235" width="34.604767572228525" height="176" rx="3" fill="#b07aa1" opacity="0.25"/>
  <text x="577.9283854446549" y="323" text-anchor="middle" dominant-baseline="central" font-size="16" fill="#b07aa1" font-family="system-ui,sans-serif" font-weight="400" transform="rotate(-90,577.9283854446549,323)">playlist</text>
  <rect x="602.2307692307692" y="211" width="183.23076923076925" height="202" rx="6" fill="#76b7b2" opacity="0.15" stroke="#76b7b2" stroke-width="1.5"/><path d="M608.2307692307692,211 h171.23076923076925 a6,6 0 0 1 6,6 v16 h-183.23076923076925 v-16 a6,6 0 0 1 6,-6 z" fill="#76b7b2" opacity="0.1"/><line x1="602.2307692307692" y1="233" x2="785.4615384615385" y2="233" stroke="#76b7b2" stroke-width="0.75" opacity="0.45"/><text x="610.2307692307692" y="227" font-size="12" fill="#76b7b2" font-family="system-ui,-apple-system,Segoe UI,Roboto,sans-serif" font-weight="700">Cloud &amp; Azure</text>
  <rect x="603.2307692307692" y="235" width="65.23698927450342" height="176" rx="3" fill="#76b7b2" opacity="0.34"/>
  <text x="635.8492638680209" y="323" text-anchor="middle" dominant-baseline="central" font-size="16" fill="#76b7b2" font-family="system-ui,sans-serif" font-weight="600" transform="rotate(-90,635.8492638680209,323)">azure</text>
  <rect x="669.4677585052726" y="235" width="37.66459331875529" height="176" rx="3" fill="#76b7b2" opacity="0.25"/>
  <text x="688.3000551646503" y="323" text-anchor="middle" dominant-baseline="central" font-size="16" fill="#76b7b2" font-family="system-ui,sans-serif" font-weight="400" transform="rotate(-90,688.3000551646503,323)">azure functions</text>
  <rect x="708.1323518240279" y="235" width="37.66459331875529" height="176" rx="3" fill="#76b7b2" opacity="0.25"/>
  <text x="726.9646484834055" y="323" text-anchor="middle" dominant-baseline="central" font-size="16" fill="#76b7b2" font-family="system-ui,sans-serif" font-weight="400" transform="rotate(-90,726.9646484834055,323)">dotnet</text>
  <rect x="746.7969451427831" y="235" width="37.66459331875535" height="176" rx="3" fill="#76b7b2" opacity="0.25"/>
  <text x="765.6292418021608" y="323" text-anchor="middle" dominant-baseline="central" font-size="16" fill="#76b7b2" font-family="system-ui,sans-serif" font-weight="400" transform="rotate(-90,765.6292418021608,323)">windows</text>
  <rect x="791.4615384615385" y="211" width="25.538461538461547" height="202" rx="6" fill="#edc948" opacity="0.15" stroke="#edc948" stroke-width="1.5"/><path d="M797.4615384615385,211 h13.538461538461547 a6,6 0 0 1 6,6 v16 h-25.538461538461547 v-16 a6,6 0 0 1 6,-6 z" fill="#edc948" opacity="0.1"/><line x1="791.4615384615385" y1="233" x2="817" y2="233" stroke="#edc948" stroke-width="0.75" opacity="0.45"/><text x="799.4615384615385" y="227" font-size="12" fill="#edc948" font-family="system-ui,-apple-system,Segoe UI,Roboto,sans-serif" font-weight="700">H…</text>
  <rect x="792.4615384615385" y="235" width="23.538461538461547" height="176" rx="3" fill="#edc948" opacity="0.25"/>
  <text x="804.2307692307693" y="323" text-anchor="middle" dominant-baseline="central" font-size="16" fill="#edc948" font-family="system-ui,sans-serif" font-weight="400" transform="rotate(-90,804.2307692307693,323)">healthcare</text>
</g>
<g transform="translate(0, 639)">
<title>Portfolio at a Glance</title>
<rect width="820" height="270" fill="none"/>
<rect x="3" y="3" width="328.82" height="264" rx="6" fill="#0969da" opacity="0.15" stroke="#0969da" stroke-width="1.5"/><path d="M9,3 h316.82 a6,6 0 0 1 6,6 v26 h-328.82 v-26 a6,6 0 0 1 6,-6 z" fill="#0969da" opacity="0.1"/><line x1="3" y1="35" x2="331.82" y2="35" stroke="#0969da" stroke-width="0.75" opacity="0.45"/><text x="11" y="19" font-size="12" fill="#0969da" font-family="system-ui,-apple-system,Segoe UI,Roboto,sans-serif" font-weight="700">Top Languages</text><text x="11" y="31" font-size="9" fill="#0969da" opacity="0.95" font-weight="600" font-family="system-ui,-apple-system,Segoe UI,Roboto,sans-serif">By lines of code</text>
<g transform="translate(11, 41)">
<text x="4" y="28" font-size="11" fill="#0969da" font-family="system-ui,-apple-system,Segoe UI,Roboto,sans-serif">Python</text><rect x="137.3844" y="15" width="175.4356" height="18" rx="3" fill="#0969da" opacity="0.12"/><rect x="137.3844" y="15" width="121" height="18" rx="3" fill="#0969da" opacity="0.55"/><text x="263.3844" y="28" font-size="10" fill="#0969da" font-weight="700" font-family="system-ui,-apple-system,Segoe UI,Roboto,sans-serif">69.0%</text><text x="4" y="62" font-size="11" fill="#0969da" font-family="system-ui,-apple-system,Segoe UI,Roboto,sans-serif">Jupyter Notebook</text><rect x="137.3844" y="49" width="175.4356" height="18" rx="3" fill="#0969da" opacity="0.12"/><rect x="137.3844" y="49" width="31" height="18" rx="3" fill="#0969da" opacity="0.55"/><text x="173.3844" y="62" font-size="10" fill="#0969da" font-weight="700" font-family="system-ui,-apple-system,Segoe UI,Roboto,sans-serif">17.9%</text><text x="4" y="96" font-size="11" fill="#0969da" font-family="system-ui,-apple-system,Segoe UI,Roboto,sans-serif">TypeScript</text><rect x="137.3844" y="83" width="175.4356" height="18" rx="3" fill="#0969da" opacity="0.12"/><rect x="137.3844" y="83" width="10" height="18" rx="3" fill="#0969da" opacity="0.55"/><text x="152.3844" y="96" font-size="10" fill="#0969da" font-weight="700" font-family="system-ui,-apple-system,Segoe UI,Roboto,sans-serif">5.9%</text><text x="4" y="130" font-size="11" fill="#0969da" font-family="system-ui,-apple-system,Segoe UI,Roboto,sans-serif">JavaScript</text><rect x="137.3844" y="117" width="175.4356" height="18" rx="3" fill="#0969da" opacity="0.12"/><rect x="137.3844" y="117" width="5" height="18" rx="3" fill="#0969da" opacity="0.55"/><text x="147.3844" y="130" font-size="10" fill="#0969da" font-weight="700" font-family="system-ui,-apple-system,Segoe UI,Roboto,sans-serif">2.6%</text><text x="4" y="164" font-size="11" fill="#0969da" font-family="system-ui,-apple-system,Segoe UI,Roboto,sans-serif">Cython</text><rect x="137.3844" y="151" width="175.4356" height="18" rx="3" fill="#0969da" opacity="0.12"/><rect x="137.3844" y="151" width="3" height="18" rx="3" fill="#0969da" opacity="0.55"/><text x="145.3844" y="164" font-size="10" fill="#0969da" font-weight="700" font-family="system-ui,-apple-system,Segoe UI,Roboto,sans-serif">1.6%</text><text x="4" y="198" font-size="11" fill="#0969da" font-family="system-ui,-apple-system,Segoe UI,Roboto,sans-serif">PowerShell</text><rect x="137.3844" y="185" width="175.4356" height="18" rx="3" fill="#0969da" opacity="0.12"/><rect x="137.3844" y="185" width="2" height="18" rx="3" fill="#0969da" opacity="0.55"/><text x="144.3844" y="198" font-size="10" fill="#0969da" font-weight="700" font-family="system-ui,-apple-system,Segoe UI,Roboto,sans-serif">1.0%</text>
</g>
<rect x="337.82" y="3" width="144.35999999999999" height="264" rx="6" fill="#9a6700" opacity="0.15" stroke="#9a6700" stroke-width="1.5"/><path d="M343.82,3 h132.35999999999999 a6,6 0 0 1 6,6 v26 h-144.35999999999999 v-26 a6,6 0 0 1 6,-6 z" fill="#9a6700" opacity="0.1"/><line x1="337.82" y1="35" x2="482.17999999999995" y2="35" stroke="#9a6700" stroke-width="0.75" opacity="0.45"/><text x="345.82" y="19" font-size="12" fill="#9a6700" font-family="system-ui,-apple-system,Segoe UI,Roboto,sans-serif" font-weight="700">Tier &amp; Activity</text><text x="345.82" y="31" font-size="9" fill="#9a6700" opacity="0.95" font-weight="600" font-family="system-ui,-apple-system,Segoe UI,Roboto,sans-serif">Portfolio composition</text>
<text x="345.82" y="52" font-size="9" font-weight="700" fill="#9a6700" opacity="0.7" letter-spacing="0.6" font-family="system-ui,-apple-system,Segoe UI,Roboto,sans-serif">TIERS</text>
<g><text x="345.82" y="69" font-size="11">🏆</text><text x="365.82" y="69" font-size="11" fill="#9a6700" font-weight="600" font-family="system-ui,-apple-system,Segoe UI,Roboto,sans-serif">Flagship</text><text x="470.17999999999995" y="69" font-size="12" fill="#9a6700" font-weight="700" font-family="system-ui,-apple-system,Segoe UI,Roboto,sans-serif" text-anchor="end">13</text><text x="345.82" y="91" font-size="11">⭐</text><text x="365.82" y="91" font-size="11" fill="#9a6700" font-weight="600" font-family="system-ui,-apple-system,Segoe UI,Roboto,sans-serif">Notable</text><text x="470.17999999999995" y="91" font-size="12" fill="#9a6700" font-weight="700" font-family="system-ui,-apple-system,Segoe UI,Roboto,sans-serif" text-anchor="end">35</text><text x="345.82" y="113" font-size="11">🤖</text><text x="365.82" y="113" font-size="11" fill="#9a6700" font-weight="600" font-family="system-ui,-apple-system,Segoe UI,Roboto,sans-serif">Agents</text><text x="470.17999999999995" y="113" font-size="12" fill="#9a6700" font-weight="700" font-family="system-ui,-apple-system,Segoe UI,Roboto,sans-serif" text-anchor="end">58</text><text x="345.82" y="135" font-size="11">🪦</text><text x="365.82" y="135" font-size="11" fill="#9a6700" font-weight="600" font-family="system-ui,-apple-system,Segoe UI,Roboto,sans-serif">Archived</text><text x="470.17999999999995" y="135" font-size="12" fill="#9a6700" font-weight="700" font-family="system-ui,-apple-system,Segoe UI,Roboto,sans-serif" text-anchor="end">15</text></g>
<text x="345.82" y="162" font-size="9" font-weight="700" fill="#9a6700" opacity="0.7" letter-spacing="0.6" font-family="system-ui,-apple-system,Segoe UI,Roboto,sans-serif">ACTIVITY</text>
<g><text x="345.82" y="179" font-size="11">⭐</text><text x="365.82" y="179" font-size="11" fill="#9a6700" font-weight="600" font-family="system-ui,-apple-system,Segoe UI,Roboto,sans-serif">Stars</text><text x="470.17999999999995" y="179" font-size="12" fill="#9a6700" font-weight="700" font-family="system-ui,-apple-system,Segoe UI,Roboto,sans-serif" text-anchor="end">20</text><text x="345.82" y="201" font-size="11">🚀</text><text x="365.82" y="201" font-size="11" fill="#9a6700" font-weight="600" font-family="system-ui,-apple-system,Segoe UI,Roboto,sans-serif">Active &lt;30d</text><text x="470.17999999999995" y="201" font-size="12" fill="#9a6700" font-weight="700" font-family="system-ui,-apple-system,Segoe UI,Roboto,sans-serif" text-anchor="end">26</text><text x="345.82" y="223" font-size="11">📂</text><text x="365.82" y="223" font-size="11" fill="#9a6700" font-weight="600" font-family="system-ui,-apple-system,Segoe UI,Roboto,sans-serif">Public</text><text x="470.17999999999995" y="223" font-size="12" fill="#9a6700" font-weight="700" font-family="system-ui,-apple-system,Segoe UI,Roboto,sans-serif" text-anchor="end">34</text><text x="345.82" y="245" font-size="11">🔒</text><text x="365.82" y="245" font-size="11" fill="#9a6700" font-weight="600" font-family="system-ui,-apple-system,Segoe UI,Roboto,sans-serif">Private</text><text x="470.17999999999995" y="245" font-size="12" fill="#9a6700" font-weight="700" font-family="system-ui,-apple-system,Segoe UI,Roboto,sans-serif" text-anchor="end">29</text></g>
<rect x="488.17999999999995" y="3" width="328.82" height="264" rx="6" fill="#8250df" opacity="0.15" stroke="#8250df" stroke-width="1.5"/><path d="M494.17999999999995,3 h316.82 a6,6 0 0 1 6,6 v26 h-328.82 v-26 a6,6 0 0 1 6,-6 z" fill="#8250df" opacity="0.1"/><line x1="488.17999999999995" y1="35" x2="817" y2="35" stroke="#8250df" stroke-width="0.75" opacity="0.45"/><text x="496.17999999999995" y="19" font-size="12" fill="#8250df" font-family="system-ui,-apple-system,Segoe UI,Roboto,sans-serif" font-weight="700">Top Themes</text><text x="496.17999999999995" y="31" font-size="9" fill="#8250df" opacity="0.95" font-weight="600" font-family="system-ui,-apple-system,Segoe UI,Roboto,sans-serif">Topic clusters</text>
<g transform="translate(496.17999999999995, 41)">
<text x="4" y="28" font-size="11" fill="#8250df" font-family="system-ui,-apple-system,Segoe UI,Roboto,sans-serif">AI &amp; Copilot</text><rect x="137.3844" y="15" width="175.4356" height="18" rx="3" fill="#8250df" opacity="0.12"/><rect x="137.3844" y="15" width="121" height="18" rx="3" fill="#8250df" opacity="0.55"/><text x="263.3844" y="28" font-size="10" fill="#8250df" font-weight="700" font-family="system-ui,-apple-system,Segoe UI,Roboto,sans-serif">22</text><text x="4" y="56" font-size="11" fill="#8250df" font-family="system-ui,-apple-system,Segoe UI,Roboto,sans-serif">Cognitive<tspan x="4" dy="12">Architecture</tspan></text><rect x="137.3844" y="49" width="175.4356" height="18" rx="3" fill="#8250df" opacity="0.12"/><rect x="137.3844" y="49" width="99" height="18" rx="3" fill="#8250df" opacity="0.55"/><text x="241.3844" y="62" font-size="10" fill="#8250df" font-weight="700" font-family="system-ui,-apple-system,Segoe UI,Roboto,sans-serif">18</text><text x="4" y="96" font-size="11" fill="#8250df" font-family="system-ui,-apple-system,Segoe UI,Roboto,sans-serif">Developer Tools</text><rect x="137.3844" y="83" width="175.4356" height="18" rx="3" fill="#8250df" opacity="0.12"/><rect x="137.3844" y="83" width="88" height="18" rx="3" fill="#8250df" opacity="0.55"/><text x="230.3844" y="96" font-size="10" fill="#8250df" font-weight="700" font-family="system-ui,-apple-system,Segoe UI,Roboto,sans-serif">16</text><text x="4" y="130" font-size="11" fill="#8250df" font-family="system-ui,-apple-system,Segoe UI,Roboto,sans-serif">Learning &amp; Research</text><rect x="137.3844" y="117" width="175.4356" height="18" rx="3" fill="#8250df" opacity="0.12"/><rect x="137.3844" y="117" width="61" height="18" rx="3" fill="#8250df" opacity="0.55"/><text x="203.3844" y="130" font-size="10" fill="#8250df" font-weight="700" font-family="system-ui,-apple-system,Segoe UI,Roboto,sans-serif">11</text><text x="4" y="158" font-size="11" fill="#8250df" font-family="system-ui,-apple-system,Segoe UI,Roboto,sans-serif">Productivity &amp;<tspan x="4" dy="12">Organization</tspan></text><rect x="137.3844" y="151" width="175.4356" height="18" rx="3" fill="#8250df" opacity="0.12"/><rect x="137.3844" y="151" width="55" height="18" rx="3" fill="#8250df" opacity="0.55"/><text x="197.3844" y="164" font-size="10" fill="#8250df" font-weight="700" font-family="system-ui,-apple-system,Segoe UI,Roboto,sans-serif">10</text><text x="4" y="198" font-size="11" fill="#8250df" font-family="system-ui,-apple-system,Segoe UI,Roboto,sans-serif">Cloud &amp; Azure</text><rect x="137.3844" y="185" width="175.4356" height="18" rx="3" fill="#8250df" opacity="0.12"/><rect x="137.3844" y="185" width="50" height="18" rx="3" fill="#8250df" opacity="0.55"/><text x="192.3844" y="198" font-size="10" fill="#8250df" font-weight="700" font-family="system-ui,-apple-system,Segoe UI,Roboto,sans-serif">9</text>
</g>
</g>
<text x="410" y="935" text-anchor="middle" font-family="Segoe UI, system-ui, sans-serif" font-size="13"><tspan font-weight="700" fill="#1f2328" >63</tspan><tspan fill="#64748b" dx="4">repositories across 10 categories</tspan><tspan fill="#64748b" dx="6">·</tspan><tspan font-weight="700" fill="#1f2328" dx="6">48</tspan><tspan fill="#64748b" dx="4">actively maintained</tspan><tspan fill="#64748b" dx="6">·</tspan><tspan font-weight="700" fill="#1f2328" dx="6">13</tspan><tspan fill="#64748b" dx="4">flagships</tspan></text>
</svg>