<svg xmlns="http://www.w3.org/2000/svg" viewBox="0 0 820 947" width="100%" preserveAspectRatio="xMidYMid meet" role="img" aria-label="Portfolio">
<title>Portfolio</title>
<g transform="translate(0, 0) scale(0.683333)">
<defs>
    <!-- Background gradient - deep space theme -->
    <linearGradient id="bgGrad" x1="0%" y1="0%" x2="100%" y2="100%">
      <stop offset="0%" stop-color="#020617"/>
      <stop offset="50%" stop-color="#0f172a"/>
      <stop offset="100%" stop-color="#1e293b"/>
    </linearGradient>

    <!-- Logo gradient with Azure blue -->
    <linearGradient id="logoGrad" x1="0%" y1="0%" x2="100%" y2="100%">
      <stop offset="0%" stop-color="#00bcf2"/>
      <stop offset="50%" stop-color="#0078d4"/>
      <stop offset="100%" stop-color="#005a9e"/>
    </linearGradient>

    <!-- Name gradient -->
    <linearGradient id="nameGrad" x1="0%" y1="0%" x2="100%" y2="0%">
      <stop offset="0%" stop-color="#f8fafc"/>
      <stop offset="50%" stop-color="#e2e8f0"/>
      <stop offset="100%" stop-color="#f8fafc"/>
    </linearGradient>

    <!-- Accent text gradient -->
    <linearGradient id="accentTextGrad" x1="0%" y1="0%" x2="100%" y2="0%">
      <stop offset="0%" stop-color="#00bcf2"/>
      <stop offset="50%" stop-color="#0078d4"/>
      <stop offset="100%" stop-color="#00bcf2"/>
    </linearGradient>

    <!-- Glow filter -->
    <filter id="glow" x="-50%" y="-50%" width="200%" height="200%">
      <feGaussianBlur stdDeviation="3" result="coloredBlur"/>
      <feMerge>
        <feMergeNode in="coloredBlur"/>
        <feMergeNode in="SourceGraphic"/>
      </feMerge>
    </filter>

    <!-- Strong glow for logo -->
    <filter id="logoGlow" x="-100%" y="-100%" width="300%" height="300%">
      <feGaussianBlur stdDeviation="6" result="blur1"/>
      <feGaussianBlur stdDeviation="12" result="blur2"/>
      <feMerge>
        <feMergeNode in="blur2"/>
        <feMergeNode in="blur1"/>
        <feMergeNode in="SourceGraphic"/>
      </feMerge>
    </filter>

    <!-- Radial glow behind logo -->
    <radialGradient id="logoBackGlow" cx="50%" cy="50%" r="50%">
      <stop offset="0%" stop-color="#0078d4" stop-opacity="0.4"/>
      <stop offset="50%" stop-color="#0078d4" stop-opacity="0.1"/>
      <stop offset="100%" stop-color="#0078d4" stop-opacity="0"/>
    </radialGradient>

    <!-- Grid pattern -->
    <pattern id="grid" width="50" height="50" patternUnits="userSpaceOnUse">
      <path d="M 50 0 L 0 0 0 50" fill="none" stroke="#1e3a5f" stroke-width="0.5" opacity="0.4"/>
    </pattern>

    <!-- Dot pattern -->
    <pattern id="dots" width="30" height="30" patternUnits="userSpaceOnUse">
      <circle cx="15" cy="15" r="1" fill="#0078d4" opacity="0.2"/>
    </pattern>

    <!-- Gradient for accent line -->
    <linearGradient id="accentGrad" x1="0%" y1="0%" x2="100%" y2="0%">
      <stop offset="0%" stop-color="#005a9e"/>
      <stop offset="25%" stop-color="#0078d4"/>
      <stop offset="50%" stop-color="#00bcf2"/>
      <stop offset="75%" stop-color="#0078d4"/>
      <stop offset="100%" stop-color="#005a9e"/>
    </linearGradient>

    <!-- Neural network gradient -->
    <linearGradient id="neuralGrad" x1="0%" y1="0%" x2="100%" y2="100%">
      <stop offset="0%" stop-color="#7c3aed"/>
      <stop offset="50%" stop-color="#0078d4"/>
      <stop offset="100%" stop-color="#00bcf2"/>
    </linearGradient>
  </defs>

  <!-- Background -->
  <rect width="1200" height="300" fill="url(#bgGrad)"/>

  <!-- Grid overlay -->
  <rect width="1200" height="300" fill="url(#grid)"/>

  <!-- Dot pattern overlay -->
  <rect width="1200" height="300" fill="url(#dots)" opacity="0.5"/>

  <!-- Large decorative orbs -->
  <circle cx="150" cy="150" r="180" fill="url(#logoBackGlow)"/>
  <circle cx="1050" cy="80" r="150" fill="#0078d4" opacity="0.05"/>
  <circle cx="1150" cy="280" r="180" fill="#00bcf2" opacity="0.03"/>
  <circle cx="50" cy="250" r="100" fill="#7c3aed" opacity="0.06"/>

  <!-- Neural network nodes - cognitive theme -->
  <g opacity="0.4">
    <!-- Left side neural cluster -->
    <circle cx="80" cy="60" r="4" fill="#7c3aed"/>
    <circle cx="120" cy="40" r="3" fill="#0078d4"/>
    <circle cx="60" cy="100" r="3" fill="#00bcf2"/>
    <circle cx="140" cy="90" r="2" fill="#7c3aed"/>
    <line x1="80" y1="60" x2="120" y2="40" stroke="#7c3aed" stroke-width="1"/>
    <line x1="80" y1="60" x2="60" y2="100" stroke="#0078d4" stroke-width="1"/>
    <line x1="120" y1="40" x2="140" y2="90" stroke="#00bcf2" stroke-width="0.5"/>

    <!-- Right side neural cluster -->
    <circle cx="1100" cy="70" r="3" fill="#00bcf2"/>
    <circle cx="1140" cy="50" r="2" fill="#0078d4"/>
    <circle cx="1080" cy="100" r="4" fill="#7c3aed"/>
    <circle cx="1120" cy="120" r="2" fill="#0078d4"/>
    <line x1="1100" y1="70" x2="1140" y2="50" stroke="#00bcf2" stroke-width="0.5"/>
    <line x1="1100" y1="70" x2="1080" y2="100" stroke="#7c3aed" stroke-width="1"/>
    <line x1="1080" y1="100" x2="1120" y2="120" stroke="#0078d4" stroke-width="0.5"/>
  </g>

  <!-- Floating particles -->
  <circle cx="300" cy="30" r="1.5" fill="#0078d4" opacity="0.5"/>
  <circle cx="500" cy="50" r="2" fill="#00bcf2" opacity="0.4"/>
  <circle cx="750" cy="25" r="1" fill="#7c3aed" opacity="0.6"/>
  <circle cx="950" cy="45" r="2.5" fill="#00bcf2" opacity="0.3"/>
  <circle cx="400" cy="270" r="2" fill="#00bcf2" opacity="0.4"/>
  <circle cx="700" cy="260" r="1.5" fill="#0078d4" opacity="0.5"/>
  <circle cx="900" cy="275" r="2" fill="#7c3aed" opacity="0.3"/>
  <circle cx="1050" cy="250" r="1" fill="#0078d4" opacity="0.6"/>

  <!-- Logo glow backdrop -->
  <ellipse cx="150" cy="150" rx="120" ry="110" fill="url(#logoBackGlow)"/>

  <!-- Logo mark (scaled) with glow -->
  <g transform="translate(55, 58) scale(6)" filter="url(#logoGlow)">
    <path d="M16 2C8.268 2 2 8.268 2 16s6.268 14 14 14c3.866 0 7.389-1.568 9.928-4.1l-3.535-3.536A9.002 9.002 0 0116 25c-4.97 0-9-4.03-9-9s4.03-9 9-9c2.29 0 4.38.857 5.971 2.268l3.464-3.639C22.993 3.352 19.66 2 16 2z" fill="url(#logoGrad)"/>
    <path d="M20 10l-4 6 4 6h4l-4-6 4-6h-4z" fill="url(#logoGrad)"/>
    <path d="M24 10l4 6-4 6h4l4-6-4-6h-4z" fill="url(#logoGrad)" opacity="0.6"/>
  </g>

  <text x="320" y="54" font-family="Segoe UI, system-ui, sans-serif" font-size="13" font-weight="600" fill="#94a3b8" letter-spacing="3">AUTOMATIC REPOSITORY PORTFOLIO FOR</text>
  <!-- Main name -->
  <text x="320" y="135" font-family="Segoe UI, system-ui, sans-serif" font-size="74" font-weight="700" fill="url(#nameGrad)" filter="url(#glow)">Dr. Fabio Correa, DBA</text>

  <!-- Title line -->
  <text x="320" y="180" font-family="Segoe UI, system-ui, sans-serif" font-size="22" fill="#94a3b8" letter-spacing="1" textLength="800" lengthAdjust="spacingAndGlyphs">Building AI-powered solutions for organizational learning, cognitive architecture, and responsible AI adoption.</text>

  <!-- Tagline with accent -->
  <text x="320" y="220" font-family="Segoe UI, system-ui, sans-serif" font-size="18" fill="url(#accentTextGrad)" letter-spacing="1.5">THINK • BUILD • DEPLOY</text>

  <!-- Decorative accent line -->
  <line x1="320" y1="240" x2="850" y2="240" stroke="#334155" stroke-width="1"/>
  <line x1="320" y1="243" x2="600" y2="243" stroke="url(#accentGrad)" stroke-width="2" opacity="0.6"/>

  <!-- CorreaX branding badge -->
  <g transform="translate(320, 255)" font-family="Segoe UI, system-ui, sans-serif" font-size="12" fill="#94a3b8"><text letter-spacing="1">UPDATED</text><text x="70" font-weight="700">Jul 23 2026 07:47 EDT</text></g>

  <!-- Tech circuit decorations on right -->
  <g opacity="0.25">
    <path d="M1000 140 h80 v40 h40" stroke="#0078d4" stroke-width="1.5" fill="none"/>
    <circle cx="1000" cy="140" r="3" fill="#0078d4"/>
    <circle cx="1120" cy="180" r="4" fill="#00bcf2"/>
    <path d="M1020 200 h60 v-25 h30" stroke="#7c3aed" stroke-width="1" fill="none"/>
    <circle cx="1020" cy="200" r="2" fill="#7c3aed"/>
    <path d="M980 100 h50 l20 20 h40" stroke="#00bcf2" stroke-width="1" fill="none"/>
    <circle cx="980" cy="100" r="2" fill="#00bcf2"/>
  </g>

  <!-- Bottom accent bar with glow -->
  <rect x="0" y="290" width="1200" height="10" fill="url(#accentGrad)" filter="url(#glow)"/>
</g>
<g transform="translate(0, 217)">
<rect width="820" height="416" fill="none"/>
  <rect x="3" y="3" width="264.75471698113205" height="202" rx="6" fill="#57606a" opacity="0.15" stroke="#57606a" stroke-width="1.5"/><path d="M9,3 h252.75471698113205 a6,6 0 0 1 6,6 v16 h-264.75471698113205 v-16 a6,6 0 0 1 6,-6 z" fill="#57606a" opacity="0.1"/><line x1="3" y1="25" x2="267.75471698113205" y2="25" stroke="#57606a" stroke-width="0.75" opacity="0.45"/><text x="11" y="19" font-size="12" fill="#57606a" font-family="system-ui,-apple-system,Segoe UI,Roboto,sans-serif" font-weight="700">Other</text>
  <rect x="4" y="27" width="42.947769893983654" height="176" rx="3" fill="#57606a" opacity="0.36"/>
  <text x="25.473884946991827" y="115" text-anchor="middle" dominant-baseline="central" font-size="16" fill="#57606a" font-family="system-ui,sans-serif" font-weight="600" transform="rotate(-90,25.473884946991827,115)">prompt engineering</text>
  <rect x="47.947769893983654" y="27" width="39.761908608256526" height="176" rx="3" fill="#57606a" opacity="0.34"/>
  <text x="67.82872419811191" y="115" text-anchor="middle" dominant-baseline="central" font-size="16" fill="#57606a" font-family="system-ui,sans-serif" font-weight="600" transform="rotate(-90,67.82872419811191,115)">mcp</text>
  <rect x="88.70967850224018" y="27" width="32.46546242980217" height="176" rx="3" fill="#57606a" opacity="0.29"/>
  <text x="104.94240971714126" y="115" text-anchor="middle" dominant-baseline="central" font-size="16" fill="#57606a" font-family="system-ui,sans-serif" font-weight="400" transform="rotate(-90,104.94240971714126,115)">python</text>
  <rect x="122.17514093204235" y="27" width="28.115915209817945" height="176" rx="3" fill="#57606a" opacity="0.27"/>
  <text x="136.23309853695133" y="115" text-anchor="middle" dominant-baseline="central" font-size="16" fill="#57606a" font-family="system-ui,sans-serif" font-weight="400" transform="rotate(-90,136.23309853695133,115)">dashboard</text>
  <rect x="151.2910561418603" y="27" width="28.115915209817945" height="176" rx="3" fill="#57606a" opacity="0.27"/>
  <text x="165.3490137467693" y="115" text-anchor="middle" dominant-baseline="central" font-size="16" fill="#57606a" font-family="system-ui,sans-serif" font-weight="400" transform="rotate(-90,165.3490137467693,115)">fleet</text>
  <rect x="180.40697135167827" y="27" width="28.115915209817945" height="176" rx="3" fill="#57606a" opacity="0.27"/>
  <text x="194.46492895658724" y="115" text-anchor="middle" dominant-baseline="central" font-size="16" fill="#57606a" font-family="system-ui,sans-serif" font-weight="400" transform="rotate(-90,194.46492895658724,115)">dialog engineering</text>
  <rect x="209.52288656149622" y="27" width="28.115915209817945" height="176" rx="3" fill="#57606a" opacity="0.27"/>
  <text x="223.5808441664052" y="115" text-anchor="middle" dominant-baseline="central" font-size="16" fill="#57606a" font-family="system-ui,sans-serif" font-weight="400" transform="rotate(-90,223.5808441664052,115)">llm</text>
  <rect x="238.63880177131418" y="27" width="28.11591520981787" height="176" rx="3" fill="#57606a" opacity="0.27"/>
  <text x="252.6967593762231" y="115" text-anchor="middle" dominant-baseline="central" font-size="16" fill="#57606a" font-family="system-ui,sans-serif" font-weight="400" transform="rotate(-90,252.6967593762231,115)">generative ai</text>
  <rect x="273.75471698113205" y="3" width="175.7924528301887" height="202" rx="6" fill="#4e79a7" opacity="0.15" stroke="#4e79a7" stroke-width="1.5"/><path d="M279.75471698113205,3 h163.7924528301887 a6,6 0 0 1 6,6 v16 h-175.7924528301887 v-16 a6,6 0 0 1 6,-6 z" fill="#4e79a7" opacity="0.1"/><line x1="273.75471698113205" y1="25" x2="449.5471698113207" y2="25" stroke="#4e79a7" stroke-width="0.75" opacity="0.45"/><text x="281.75471698113205" y="19" font-size="12" fill="#4e79a7" font-family="system-ui,-apple-system,Segoe UI,Roboto,sans-serif" font-weight="700">AI &amp; Copilot</text>
  <rect x="274.75471698113205" y="27" width="30.198531221249112" height="176" rx="3" fill="#4e79a7" opacity="0.45"/>
  <text x="289.8539825917566" y="115" text-anchor="middle" dominant-baseline="central" font-size="16" fill="#4e79a7" font-family="system-ui,sans-serif" font-weight="600" transform="rotate(-90,289.8539825917566,115)">github copilot</text>
  <rect x="305.95324820238113" y="27" width="24.090094183455466" height="176" rx="3" fill="#4e79a7" opacity="0.36"/>
  <text x="317.99829529410886" y="115" text-anchor="middle" dominant-baseline="central" font-size="16" fill="#4e79a7" font-family="system-ui,sans-serif" font-weight="600" transform="rotate(-90,317.99829529410886,115)">ai assistant</text>
  <rect x="331.0433423858366" y="27" width="24.090094183455466" height="176" rx="3" fill="#4e79a7" opacity="0.36"/>
  <text x="343.0883894775643" y="115" text-anchor="middle" dominant-baseline="central" font-size="16" fill="#4e79a7" font-family="system-ui,sans-serif" font-weight="600" transform="rotate(-90,343.0883894775643,115)">copilot</text>
  <rect x="356.13343656929203" y="27" width="24.090094183455466" height="176" rx="3" fill="#4e79a7" opacity="0.36"/>
  <text x="368.17848366101975" y="115" text-anchor="middle" dominant-baseline="central" font-size="16" fill="#4e79a7" font-family="system-ui,sans-serif" font-weight="600" transform="rotate(-90,368.17848366101975,115)">ai</text>
  <rect x="381.2235307527475" y="27" width="20.359845595958078" height="176" rx="3" fill="#4e79a7" opacity="0.32"/>
  <text x="391.4034535507265" y="115" text-anchor="middle" dominant-baseline="central" font-size="15" fill="#4e79a7" font-family="system-ui,sans-serif" font-weight="400" transform="rotate(-90,391.4034535507265,115)">claude</text>
  <rect x="402.58337634870554" y="27" width="18.21039950558479" height="176" rx="3" fill="#4e79a7" opacity="0.29"/>
  <text x="411.6885761014979" y="115" text-anchor="middle" dominant-baseline="central" font-size="13" fill="#4e79a7" font-family="system-ui,sans-serif" font-weight="400" transform="rotate(-90,411.6885761014979,115)">azure openai</text>
  <rect x="421.79377585429035" y="27" width="12.876696978515158" height="176" rx="3" fill="#4e79a7" opacity="0.25"/>
  <text x="428.2321243435479" y="115" text-anchor="middle" dominant-baseline="central" font-size="9" fill="#4e79a7" font-family="system-ui,sans-serif" font-weight="400" transform="rotate(-90,428.2321243435479,115)">openai</text>
  <rect x="435.6704728328055" y="27" width="12.876696978515213" height="176" rx="3" fill="#4e79a7" opacity="0.25"/>
  <text x="442.10882132206314" y="115" text-anchor="middle" dominant-baseline="central" font-size="9" fill="#4e79a7" font-family="system-ui,sans-serif" font-weight="400" transform="rotate(-90,442.10882132206314,115)">chatgpt</text>
  <rect x="455.5471698113207" y="3" width="140.9811320754717" height="202" rx="6" fill="#f28e2b" opacity="0.15" stroke="#f28e2b" stroke-width="1.5"/><path d="M461.5471698113207,3 h128.9811320754717 a6,6 0 0 1 6,6 v16 h-140.9811320754717 v-16 a6,6 0 0 1 6,-6 z" fill="#f28e2b" opacity="0.1"/><line x1="455.5471698113207" y1="25" x2="596.5283018867924" y2="25" stroke="#f28e2b" stroke-width="0.75" opacity="0.45"/><text x="463.5471698113207" y="19" font-size="12" fill="#f28e2b" font-family="system-ui,-apple-system,Segoe UI,Roboto,sans-serif" font-weight="700">Cognitive Architec…</text>
  <rect x="456.5471698113207" y="27" width="26.33905181220368" height="176" rx="3" fill="#f28e2b" opacity="0.45"/>
  <text x="469.71669571742257" y="115" text-anchor="middle" dominant-baseline="central" font-size="13" fill="#f28e2b" font-family="system-ui,sans-serif" font-weight="600" transform="rotate(-90,469.71669571742257,115)">cognitive architecture</text>
  <rect x="483.8862216235244" y="27" width="22.462018857957457" height="176" rx="3" fill="#f28e2b" opacity="0.38"/>
  <text x="495.11723105250314" y="115" text-anchor="middle" dominant-baseline="central" font-size="16" fill="#f28e2b" font-family="system-ui,sans-serif" font-weight="600" transform="rotate(-90,495.11723105250314,115)">agentic</text>
  <rect x="507.34824048148187" y="27" width="19.45267895127628" height="176" rx="3" fill="#f28e2b" opacity="0.34"/>
  <text x="517.07457995712" y="115" text-anchor="middle" dominant-baseline="central" font-size="14" fill="#f28e2b" font-family="system-ui,sans-serif" font-weight="600" transform="rotate(-90,517.07457995712,115)">critical thinking</text>
  <rect x="527.8009194327582" y="27" width="13.755121198692276" height="176" rx="3" fill="#f28e2b" opacity="0.27"/>
  <text x="534.6784800321043" y="115" text-anchor="middle" dominant-baseline="central" font-size="10" fill="#f28e2b" font-family="system-ui,sans-serif" font-weight="400" transform="rotate(-90,534.6784800321043,115)">agentic ai</text>
  <rect x="542.5560406314504" y="27" width="13.755121198692276" height="176" rx="3" fill="#f28e2b" opacity="0.27"/>
  <text x="549.4336012307965" y="115" text-anchor="middle" dominant-baseline="central" font-size="10" fill="#f28e2b" font-family="system-ui,sans-serif" font-weight="400" transform="rotate(-90,549.4336012307965,115)">model context protocol</text>
  <rect x="557.3111618301426" y="27" width="13.755121198692276" height="176" rx="3" fill="#f28e2b" opacity="0.27"/>
  <text x="564.1887224294887" y="115" text-anchor="middle" dominant-baseline="central" font-size="10" fill="#f28e2b" font-family="system-ui,sans-serif" font-weight="400" transform="rotate(-90,564.1887224294887,115)">alex act edition</text>
  <rect x="572.0662830288348" y="27" width="11.231009428978728" height="176" rx="3" fill="#f28e2b" opacity="0.25"/>
  <text x="577.6817877433242" y="115" text-anchor="middle" dominant-baseline="central" font-size="8" fill="#f28e2b" font-family="system-ui,sans-serif" font-weight="400" transform="rotate(-90,577.6817877433242,115)">act framework</text>
  <rect x="584.2972924578136" y="27" width="11.231009428978837" height="176" rx="3" fill="#f28e2b" opacity="0.25"/>
  <text x="589.912797172303" y="115" text-anchor="middle" dominant-baseline="central" font-size="8" fill="#f28e2b" font-family="system-ui,sans-serif" font-weight="400" transform="rotate(-90,589.912797172303,115)">epistemic integrity</text>
  <rect x="602.5283018867924" y="3" width="106.16981132075472" height="202" rx="6" fill="#76b7b2" opacity="0.15" stroke="#76b7b2" stroke-width="1.5"/><path d="M608.5283018867924,3 h94.16981132075472 a6,6 0 0 1 6,6 v16 h-106.16981132075472 v-16 a6,6 0 0 1 6,-6 z" fill="#76b7b2" opacity="0.1"/><line x1="602.5283018867924" y1="25" x2="708.6981132075471" y2="25" stroke="#76b7b2" stroke-width="0.75" opacity="0.45"/><text x="610.5283018867924" y="19" font-size="12" fill="#76b7b2" font-family="system-ui,-apple-system,Segoe UI,Roboto,sans-serif" font-weight="700">AI Agents &amp; S…</text>
  <rect x="603.5283018867924" y="27" width="21.044889681232547" height="176" rx="3" fill="#76b7b2" opacity="0.43"/>
  <text x="614.0507467274086" y="115" text-anchor="middle" dominant-baseline="central" font-size="15" fill="#76b7b2" font-family="system-ui,sans-serif" font-weight="600" transform="rotate(-90,614.0507467274086,115)">agent</text>
  <rect x="625.573191568025" y="27" width="13.309956899933944" height="176" rx="3" fill="#76b7b2" opacity="0.29"/>
  <text x="632.2281700179919" y="115" text-anchor="middle" dominant-baseline="central" font-size="9" fill="#76b7b2" font-family="system-ui,sans-serif" font-weight="400" transform="rotate(-90,632.2281700179919,115)">ai agents</text>
  <rect x="639.8831484679589" y="27" width="11.526760798618769" height="176" rx="3" fill="#76b7b2" opacity="0.27"/>
  <text x="645.6465288672683" y="115" text-anchor="middle" dominant-baseline="central" font-size="8" fill="#76b7b2" font-family="system-ui,sans-serif" font-weight="400" transform="rotate(-90,645.6465288672683,115)">agent skills</text>
  <rect x="652.4099092665776" y="27" width="11.526760798618769" height="176" rx="3" fill="#76b7b2" opacity="0.27"/>
  <text x="658.1732896658871" y="115" text-anchor="middle" dominant-baseline="central" font-size="8" fill="#76b7b2" font-family="system-ui,sans-serif" font-weight="400" transform="rotate(-90,658.1732896658871,115)">ai agent</text>
  <rect x="664.9366700651964" y="27" width="11.526760798618769" height="176" rx="3" fill="#76b7b2" opacity="0.27"/>
  <text x="670.7000504645058" y="115" text-anchor="middle" dominant-baseline="central" font-size="8" fill="#76b7b2" font-family="system-ui,sans-serif" font-weight="400" transform="rotate(-90,670.7000504645058,115)">skills</text>
  <rect x="677.4634308638151" y="27" width="9.41156078124397" height="176" rx="3" fill="#76b7b2" opacity="0.25"/>
  <text x="682.1692112544371" y="115" text-anchor="middle" dominant-baseline="central" font-size="7" fill="#76b7b2" font-family="system-ui,sans-serif" font-weight="400" transform="rotate(-90,682.1692112544371,115)">claude skills</text>
  <rect x="687.8749916450591" y="27" width="9.41156078124397" height="176" rx="3" fill="#76b7b2" opacity="0.25"/>
  <text x="692.5807720356811" y="115" text-anchor="middle" dominant-baseline="central" font-size="7" fill="#76b7b2" font-family="system-ui,sans-serif" font-weight="400" transform="rotate(-90,692.5807720356811,115)">copilot skills</text>
  <rect x="698.2865524263032" y="27" width="9.411560781243907" height="176" rx="3" fill="#76b7b2" opacity="0.25"/>
  <text x="702.9923328169251" y="115" text-anchor="middle" dominant-baseline="central" font-size="7" fill="#76b7b2" font-family="system-ui,sans-serif" font-weight="400" transform="rotate(-90,702.9923328169251,115)">cursor skills</text>
  <rect x="714.6981132075471" y="3" width="102.30188679245293" height="202" rx="6" fill="#b07aa1" opacity="0.15" stroke="#b07aa1" stroke-width="1.5"/><path d="M720.6981132075471,3 h90.30188679245293 a6,6 0 0 1 6,6 v16 h-102.30188679245293 v-16 a6,6 0 0 1 6,-6 z" fill="#b07aa1" opacity="0.1"/><line x1="714.6981132075471" y1="25" x2="817" y2="25" stroke="#b07aa1" stroke-width="0.75" opacity="0.45"/><text x="722.6981132075471" y="19" font-size="12" fill="#b07aa1" font-family="system-ui,-apple-system,Segoe UI,Roboto,sans-serif" font-weight="700">Developer To…</text>
  <rect x="715.6981132075471" y="27" width="16.921036921230357" height="176" rx="3" fill="#b07aa1" opacity="0.36"/>
  <text x="724.1586316681622" y="115" text-anchor="middle" dominant-baseline="central" font-size="12" fill="#b07aa1" font-family="system-ui,sans-serif" font-weight="600" transform="rotate(-90,724.1586316681622,115)">typescript</text>
  <rect x="733.6191501287774" y="27" width="14.300886348396155" height="176" rx="3" fill="#b07aa1" opacity="0.32"/>
  <text x="740.7695933029755" y="115" text-anchor="middle" dominant-baseline="central" font-size="10" fill="#b07aa1" font-family="system-ui,sans-serif" font-weight="400" transform="rotate(-90,740.7695933029755,115)">vscode extension</text>
  <rect x="748.9200364771735" y="27" width="12.791101605405018" height="176" rx="3" fill="#b07aa1" opacity="0.29"/>
  <text x="755.315587279876" y="115" text-anchor="middle" dominant-baseline="central" font-size="9" fill="#b07aa1" font-family="system-ui,sans-serif" font-weight="400" transform="rotate(-90,755.315587279876,115)">vscode</text>
  <rect x="762.7111380825786" y="27" width="11.07741893266866" height="176" rx="3" fill="#b07aa1" opacity="0.27"/>
  <text x="768.249847548913" y="115" text-anchor="middle" dominant-baseline="central" font-size="8" fill="#b07aa1" font-family="system-ui,sans-serif" font-weight="400" transform="rotate(-90,768.249847548913,115)">react</text>
  <rect x="774.7885570152473" y="27" width="11.07741893266866" height="176" rx="3" fill="#b07aa1" opacity="0.27"/>
  <text x="780.3272664815817" y="115" text-anchor="middle" dominant-baseline="central" font-size="8" fill="#b07aa1" font-family="system-ui,sans-serif" font-weight="400" transform="rotate(-90,780.3272664815817,115)">developer tools</text>
  <rect x="786.865975947916" y="27" width="9.044674684028022" height="176" rx="3" fill="#b07aa1" opacity="0.25"/>
  <text x="791.38831328993" y="115" text-anchor="middle" dominant-baseline="central" font-size="6" fill="#b07aa1" font-family="system-ui,sans-serif" font-weight="400" transform="rotate(-90,791.38831328993,115)">markdown</text>
  <rect x="796.910650631944" y="27" width="9.044674684028022" height="176" rx="3" fill="#b07aa1" opacity="0.25"/>
  <text x="801.432987973958" y="115" text-anchor="middle" dominant-baseline="central" font-size="6" fill="#b07aa1" font-family="system-ui,sans-serif" font-weight="400" transform="rotate(-90,801.432987973958,115)">pdf</text>
  <rect x="806.955325315972" y="27" width="9.044674684027996" height="176" rx="3" fill="#b07aa1" opacity="0.25"/>
  <text x="811.477662657986" y="115" text-anchor="middle" dominant-baseline="central" font-size="6" fill="#b07aa1" font-family="system-ui,sans-serif" font-weight="400" transform="rotate(-90,811.477662657986,115)">svg</text>
  <rect x="3" y="211" width="210.38888888888889" height="202" rx="6" fill="#e15759" opacity="0.15" stroke="#e15759" stroke-width="1.5"/><path d="M9,211 h198.38888888888889 a6,6 0 0 1 6,6 v16 h-210.38888888888889 v-16 a6,6 0 0 1 6,-6 z" fill="#e15759" opacity="0.1"/><line x1="3" y1="233" x2="213.38888888888889" y2="233" stroke="#e15759" stroke-width="0.75" opacity="0.45"/><text x="11" y="227" font-size="12" fill="#e15759" font-family="system-ui,-apple-system,Segoe UI,Roboto,sans-serif" font-weight="700">Learning &amp; Research</text>
  <rect x="4" y="235" width="28.434786444311836" height="176" rx="3" fill="#e15759" opacity="0.27"/>
  <text x="18.21739322215592" y="323" text-anchor="middle" dominant-baseline="central" font-size="16" fill="#e15759" font-family="system-ui,sans-serif" font-weight="400" transform="rotate(-90,18.21739322215592,323)">learning</text>
  <rect x="33.43478644431184" y="235" width="28.434786444311836" height="176" rx="3" fill="#e15759" opacity="0.27"/>
  <text x="47.65217966646776" y="323" text-anchor="middle" dominant-baseline="central" font-size="16" fill="#e15759" font-family="system-ui,sans-serif" font-weight="400" transform="rotate(-90,47.65217966646776,323)">tutorial</text>
  <rect x="62.86957288862368" y="235" width="28.434786444311836" height="176" rx="3" fill="#e15759" opacity="0.27"/>
  <text x="77.0869661107796" y="323" text-anchor="middle" dominant-baseline="central" font-size="16" fill="#e15759" font-family="system-ui,sans-serif" font-weight="400" transform="rotate(-90,77.0869661107796,323)">utaut2</text>
  <rect x="92.30435933293552" y="235" width="23.21690591119067" height="176" rx="3" fill="#e15759" opacity="0.25"/>
  <text x="103.91281228853086" y="323" text-anchor="middle" dominant-baseline="central" font-size="16" fill="#e15759" font-family="system-ui,sans-serif" font-weight="400" transform="rotate(-90,103.91281228853086,323)">neuroscience</text>
  <rect x="116.52126524412618" y="235" width="23.21690591119067" height="176" rx="3" fill="#e15759" opacity="0.25"/>
  <text x="128.1297181997215" y="323" text-anchor="middle" dominant-baseline="central" font-size="16" fill="#e15759" font-family="system-ui,sans-serif" font-weight="400" transform="rotate(-90,128.1297181997215,323)">research</text>
  <rect x="140.73817115531685" y="235" width="23.21690591119067" height="176" rx="3" fill="#e15759" opacity="0.25"/>
  <text x="152.3466241109122" y="323" text-anchor="middle" dominant-baseline="central" font-size="16" fill="#e15759" font-family="system-ui,sans-serif" font-weight="400" transform="rotate(-90,152.3466241109122,323)">cognitive science</text>
  <rect x="164.95507706650753" y="235" width="23.21690591119067" height="176" rx="3" fill="#e15759" opacity="0.25"/>
  <text x="176.56353002210287" y="323" text-anchor="middle" dominant-baseline="central" font-size="16" fill="#e15759" font-family="system-ui,sans-serif" font-weight="400" transform="rotate(-90,176.56353002210287,323)">academic research</text>
  <rect x="189.1719829776982" y="235" width="23.21690591119068" height="176" rx="3" fill="#e15759" opacity="0.25"/>
  <text x="200.78043593329355" y="323" text-anchor="middle" dominant-baseline="central" font-size="16" fill="#e15759" font-family="system-ui,sans-serif" font-weight="400" transform="rotate(-90,200.78043593329355,323)">memory systems</text>
  <rect x="219.38888888888889" y="211" width="210.38888888888889" height="202" rx="6" fill="#ff9da7" opacity="0.15" stroke="#ff9da7" stroke-width="1.5"/><path d="M225.38888888888889,211 h198.38888888888889 a6,6 0 0 1 6,6 v16 h-210.38888888888889 v-16 a6,6 0 0 1 6,-6 z" fill="#ff9da7" opacity="0.1"/><line x1="219.38888888888889" y1="233" x2="429.77777777777777" y2="233" stroke="#ff9da7" stroke-width="0.75" opacity="0.45"/><text x="227.38888888888889" y="227" font-size="12" fill="#ff9da7" font-family="system-ui,-apple-system,Segoe UI,Roboto,sans-serif" font-weight="700">Media &amp; Entertainment</text>
  <rect x="220.38888888888889" y="235" width="29.988773229896573" height="176" rx="3" fill="#ff9da7" opacity="0.27"/>
  <text x="235.38327550383718" y="323" text-anchor="middle" dominant-baseline="central" font-size="16" fill="#ff9da7" font-family="system-ui,sans-serif" font-weight="400" transform="rotate(-90,235.38327550383718,323)">spotify api</text>
  <rect x="251.37766211878545" y="235" width="24.485730808427473" height="176" rx="3" fill="#ff9da7" opacity="0.25"/>
  <text x="263.62052752299917" y="323" text-anchor="middle" dominant-baseline="central" font-size="16" fill="#ff9da7" font-family="system-ui,sans-serif" font-weight="400" transform="rotate(-90,263.62052752299917,323)">video analysis</text>
  <rect x="276.86339292721294" y="235" width="24.485730808427473" height="176" rx="3" fill="#ff9da7" opacity="0.25"/>
  <text x="289.10625833142666" y="323" text-anchor="middle" dominant-baseline="central" font-size="16" fill="#ff9da7" font-family="system-ui,sans-serif" font-weight="400" transform="rotate(-90,289.10625833142666,323)">youtube</text>
  <rect x="302.34912373564043" y="235" width="24.485730808427473" height="176" rx="3" fill="#ff9da7" opacity="0.25"/>
  <text x="314.59198913985415" y="323" text-anchor="middle" dominant-baseline="central" font-size="16" fill="#ff9da7" font-family="system-ui,sans-serif" font-weight="400" transform="rotate(-90,314.59198913985415,323)">youtube api</text>
  <rect x="327.8348545440679" y="235" width="24.485730808427473" height="176" rx="3" fill="#ff9da7" opacity="0.25"/>
  <text x="340.07771994828164" y="323" text-anchor="middle" dominant-baseline="central" font-size="16" fill="#ff9da7" font-family="system-ui,sans-serif" font-weight="400" transform="rotate(-90,340.07771994828164,323)">music</text>
  <rect x="353.3205853524954" y="235" width="24.485730808427473" height="176" rx="3" fill="#ff9da7" opacity="0.25"/>
  <text x="365.56345075670913" y="323" text-anchor="middle" dominant-baseline="central" font-size="16" fill="#ff9da7" font-family="system-ui,sans-serif" font-weight="400" transform="rotate(-90,365.56345075670913,323)">playlist</text>
  <rect x="378.8063161609229" y="235" width="24.485730808427473" height="176" rx="3" fill="#ff9da7" opacity="0.25"/>
  <text x="391.0491815651366" y="323" text-anchor="middle" dominant-baseline="central" font-size="16" fill="#ff9da7" font-family="system-ui,sans-serif" font-weight="400" transform="rotate(-90,391.0491815651366,323)">spotify</text>
  <rect x="404.2920469693504" y="235" width="24.485730808427377" height="176" rx="3" fill="#ff9da7" opacity="0.25"/>
  <text x="416.5349123735641" y="323" text-anchor="middle" dominant-baseline="central" font-size="16" fill="#ff9da7" font-family="system-ui,sans-serif" font-weight="400" transform="rotate(-90,416.5349123735641,323)">audio</text>
  <rect x="435.77777777777777" y="211" width="199" height="202" rx="6" fill="#59a14f" opacity="0.15" stroke="#59a14f" stroke-width="1.5"/><path d="M441.77777777777777,211 h187 a6,6 0 0 1 6,6 v16 h-199 v-16 a6,6 0 0 1 6,-6 z" fill="#59a14f" opacity="0.1"/><line x1="435.77777777777777" y1="233" x2="634.7777777777778" y2="233" stroke="#59a14f" stroke-width="0.75" opacity="0.45"/><text x="443.77777777777777" y="227" font-size="12" fill="#59a14f" font-family="system-ui,-apple-system,Segoe UI,Roboto,sans-serif" font-weight="700">Cloud &amp; Azure</text>
  <rect x="436.77777777777777" y="235" width="50.62298429450618" height="176" rx="3" fill="#59a14f" opacity="0.36"/>
  <text x="462.08926992503086" y="323" text-anchor="middle" dominant-baseline="central" font-size="16" fill="#59a14f" font-family="system-ui,sans-serif" font-weight="600" transform="rotate(-90,462.08926992503086,323)">azure</text>
  <rect x="488.40076207228395" y="235" width="33.140522490590755" height="176" rx="3" fill="#59a14f" opacity="0.27"/>
  <text x="504.97102331757935" y="323" text-anchor="middle" dominant-baseline="central" font-size="16" fill="#59a14f" font-family="system-ui,sans-serif" font-weight="400" transform="rotate(-90,504.97102331757935,323)">azure functions</text>
  <rect x="522.5412845628747" y="235" width="27.059123303725762" height="176" rx="3" fill="#59a14f" opacity="0.25"/>
  <text x="536.0708462147376" y="323" text-anchor="middle" dominant-baseline="central" font-size="13" fill="#59a14f" font-family="system-ui,sans-serif" font-weight="400" transform="rotate(-90,536.0708462147376,323)">azure static web apps</text>
  <rect x="550.6004078666004" y="235" width="27.059123303725762" height="176" rx="3" fill="#59a14f" opacity="0.25"/>
  <text x="564.1299695184633" y="323" text-anchor="middle" dominant-baseline="central" font-size="16" fill="#59a14f" font-family="system-ui,sans-serif" font-weight="400" transform="rotate(-90,564.1299695184633,323)">serverless</text>
  <rect x="578.6595311703262" y="235" width="27.059123303725762" height="176" rx="3" fill="#59a14f" opacity="0.25"/>
  <text x="592.1890928221891" y="323" text-anchor="middle" dominant-baseline="central" font-size="16" fill="#59a14f" font-family="system-ui,sans-serif" font-weight="400" transform="rotate(-90,592.1890928221891,323)">devops</text>
  <rect x="606.718654474052" y="235" width="27.05912330372587" height="176" rx="3" fill="#59a14f" opacity="0.25"/>
  <text x="620.248216125915" y="323" text-anchor="middle" dominant-baseline="central" font-size="16" fill="#59a14f" font-family="system-ui,sans-serif" font-weight="400" transform="rotate(-90,620.248216125915,323)">nodejs</text>
  <rect x="640.7777777777778" y="211" width="176.22222222222217" height="202" rx="6" fill="#edc948" opacity="0.15" stroke="#edc948" stroke-width="1.5"/><path d="M646.7777777777778,211 h164.22222222222217 a6,6 0 0 1 6,6 v16 h-176.22222222222217 v-16 a6,6 0 0 1 6,-6 z" fill="#edc948" opacity="0.1"/><line x1="640.7777777777778" y1="233" x2="817" y2="233" stroke="#edc948" stroke-width="0.75" opacity="0.45"/><text x="648.7777777777778" y="227" font-size="12" fill="#edc948" font-family="system-ui,-apple-system,Segoe UI,Roboto,sans-serif" font-weight="700">Responsible AI</text>
  <rect x="641.7777777777778" y="235" width="34.86694442951764" height="176" rx="3" fill="#edc948" opacity="0.29"/>
  <text x="659.2112499925366" y="323" text-anchor="middle" dominant-baseline="central" font-size="16" fill="#edc948" font-family="system-ui,sans-serif" font-weight="400" transform="rotate(-90,659.2112499925366,323)">responsible ai</text>
  <rect x="677.6447222072954" y="235" width="30.195659628302593" height="176" rx="3" fill="#edc948" opacity="0.27"/>
  <text x="692.7425520214467" y="323" text-anchor="middle" dominant-baseline="central" font-size="16" fill="#edc948" font-family="system-ui,sans-serif" font-weight="400" transform="rotate(-90,692.7425520214467,323)">ai adoption</text>
  <rect x="708.840381835598" y="235" width="30.195659628302593" height="176" rx="3" fill="#edc948" opacity="0.27"/>
  <text x="723.9382116497493" y="323" text-anchor="middle" dominant-baseline="central" font-size="16" fill="#edc948" font-family="system-ui,sans-serif" font-weight="400" transform="rotate(-90,723.9382116497493,323)">ai governance</text>
  <rect x="740.0360414639006" y="235" width="24.654652845366442" height="176" rx="3" fill="#edc948" opacity="0.25"/>
  <text x="752.3633678865838" y="323" text-anchor="middle" dominant-baseline="central" font-size="13" fill="#edc948" font-family="system-ui,sans-serif" font-weight="400" transform="rotate(-90,752.3633678865838,323)">human ai collaboration</text>
  <rect x="765.690694309267" y="235" width="24.654652845366442" height="176" rx="3" fill="#edc948" opacity="0.25"/>
  <text x="778.0180207319502" y="323" text-anchor="middle" dominant-baseline="central" font-size="16" fill="#edc948" font-family="system-ui,sans-serif" font-weight="400" transform="rotate(-90,778.0180207319502,323)">ai coaching</text>
  <rect x="791.3453471546334" y="235" width="24.654652845366627" height="176" rx="3" fill="#edc948" opacity="0.25"/>
  <text x="803.6726735773167" y="323" text-anchor="middle" dominant-baseline="central" font-size="16" fill="#edc948" font-family="system-ui,sans-serif" font-weight="400" transform="rotate(-90,803.6726735773167,323)">governance</text>
</g>
<g transform="translate(0, 639)">
<title>Portfolio at a Glance</title>
<rect width="820" height="270" fill="none"/>
<rect x="3" y="3" width="328.82" height="264" rx="6" fill="#0969da" opacity="0.15" stroke="#0969da" stroke-width="1.5"/><path d="M9,3 h316.82 a6,6 0 0 1 6,6 v26 h-328.82 v-26 a6,6 0 0 1 6,-6 z" fill="#0969da" opacity="0.1"/><line x1="3" y1="35" x2="331.82" y2="35" stroke="#0969da" stroke-width="0.75" opacity="0.45"/><text x="11" y="19" font-size="12" fill="#0969da" font-family="system-ui,-apple-system,Segoe UI,Roboto,sans-serif" font-weight="700">Top Languages</text><text x="11" y="31" font-size="9" fill="#0969da" opacity="0.95" font-weight="600" font-family="system-ui,-apple-system,Segoe UI,Roboto,sans-serif">By lines of code</text>
<g transform="translate(11, 41)">
<text x="4" y="28" font-size="11" fill="#0969da" font-family="system-ui,-apple-system,Segoe UI,Roboto,sans-serif">Python</text><rect x="137.3844" y="15" width="175.4356" height="18" rx="3" fill="#0969da" opacity="0.12"/><rect x="137.3844" y="15" width="110" height="18" rx="3" fill="#0969da" opacity="0.55"/><text x="252.3844" y="28" font-size="10" fill="#0969da" font-weight="700" font-family="system-ui,-apple-system,Segoe UI,Roboto,sans-serif">62.5%</text><text x="4" y="62" font-size="11" fill="#0969da" font-family="system-ui,-apple-system,Segoe UI,Roboto,sans-serif">Gherkin</text><rect x="137.3844" y="49" width="175.4356" height="18" rx="3" fill="#0969da" opacity="0.12"/><rect x="137.3844" y="49" width="22" height="18" rx="3" fill="#0969da" opacity="0.55"/><text x="164.3844" y="62" font-size="10" fill="#0969da" font-weight="700" font-family="system-ui,-apple-system,Segoe UI,Roboto,sans-serif">12.7%</text><text x="4" y="96" font-size="11" fill="#0969da" font-family="system-ui,-apple-system,Segoe UI,Roboto,sans-serif">JavaScript</text><rect x="137.3844" y="83" width="175.4356" height="18" rx="3" fill="#0969da" opacity="0.12"/><rect x="137.3844" y="83" width="14" height="18" rx="3" fill="#0969da" opacity="0.55"/><text x="156.3844" y="96" font-size="10" fill="#0969da" font-weight="700" font-family="system-ui,-apple-system,Segoe UI,Roboto,sans-serif">8.1%</text><text x="4" y="130" font-size="11" fill="#0969da" font-family="system-ui,-apple-system,Segoe UI,Roboto,sans-serif">TypeScript</text><rect x="137.3844" y="117" width="175.4356" height="18" rx="3" fill="#0969da" opacity="0.12"/><rect x="137.3844" y="117" width="14" height="18" rx="3" fill="#0969da" opacity="0.55"/><text x="156.3844" y="130" font-size="10" fill="#0969da" font-weight="700" font-family="system-ui,-apple-system,Segoe UI,Roboto,sans-serif">7.7%</text><text x="4" y="164" font-size="11" fill="#0969da" font-family="system-ui,-apple-system,Segoe UI,Roboto,sans-serif">Jupyter Notebook</text><rect x="137.3844" y="151" width="175.4356" height="18" rx="3" fill="#0969da" opacity="0.12"/><rect x="137.3844" y="151" width="8" height="18" rx="3" fill="#0969da" opacity="0.55"/><text x="150.3844" y="164" font-size="10" fill="#0969da" font-weight="700" font-family="system-ui,-apple-system,Segoe UI,Roboto,sans-serif">4.4%</text><text x="4" y="198" font-size="11" fill="#0969da" font-family="system-ui,-apple-system,Segoe UI,Roboto,sans-serif">Cython</text><rect x="137.3844" y="185" width="175.4356" height="18" rx="3" fill="#0969da" opacity="0.12"/><rect x="137.3844" y="185" width="2" height="18" rx="3" fill="#0969da" opacity="0.55"/><text x="144.3844" y="198" font-size="10" fill="#0969da" font-weight="700" font-family="system-ui,-apple-system,Segoe UI,Roboto,sans-serif">1.4%</text>
</g>
<rect x="337.82" y="3" width="144.35999999999999" height="264" rx="6" fill="#9a6700" opacity="0.15" stroke="#9a6700" stroke-width="1.5"/><path d="M343.82,3 h132.35999999999999 a6,6 0 0 1 6,6 v26 h-144.35999999999999 v-26 a6,6 0 0 1 6,-6 z" fill="#9a6700" opacity="0.1"/><line x1="337.82" y1="35" x2="482.17999999999995" y2="35" stroke="#9a6700" stroke-width="0.75" opacity="0.45"/><text x="345.82" y="19" font-size="12" fill="#9a6700" font-family="system-ui,-apple-system,Segoe UI,Roboto,sans-serif" font-weight="700">Tier &amp; Activity</text><text x="345.82" y="31" font-size="9" fill="#9a6700" opacity="0.95" font-weight="600" font-family="system-ui,-apple-system,Segoe UI,Roboto,sans-serif">Portfolio composition</text>
<text x="345.82" y="52" font-size="9" font-weight="700" fill="#9a6700" opacity="0.7" letter-spacing="0.6" font-family="system-ui,-apple-system,Segoe UI,Roboto,sans-serif">TIERS</text>
<g><text x="345.82" y="69" font-size="11">🏆</text><text x="365.82" y="69" font-size="11" fill="#9a6700" font-weight="600" font-family="system-ui,-apple-system,Segoe UI,Roboto,sans-serif">Flagship</text><text x="470.17999999999995" y="69" font-size="12" fill="#9a6700" font-weight="700" font-family="system-ui,-apple-system,Segoe UI,Roboto,sans-serif" text-anchor="end">21</text><text x="345.82" y="91" font-size="11">⭐</text><text x="365.82" y="91" font-size="11" fill="#9a6700" font-weight="600" font-family="system-ui,-apple-system,Segoe UI,Roboto,sans-serif">Notable</text><text x="470.17999999999995" y="91" font-size="12" fill="#9a6700" font-weight="700" font-family="system-ui,-apple-system,Segoe UI,Roboto,sans-serif" text-anchor="end">55</text><text x="345.82" y="113" font-size="11">🤖</text><text x="365.82" y="113" font-size="11" fill="#9a6700" font-weight="600" font-family="system-ui,-apple-system,Segoe UI,Roboto,sans-serif">Agents</text><text x="470.17999999999995" y="113" font-size="12" fill="#9a6700" font-weight="700" font-family="system-ui,-apple-system,Segoe UI,Roboto,sans-serif" text-anchor="end">94</text><text x="345.82" y="135" font-size="11">🪦</text><text x="365.82" y="135" font-size="11" fill="#9a6700" font-weight="600" font-family="system-ui,-apple-system,Segoe UI,Roboto,sans-serif">Archived</text><text x="470.17999999999995" y="135" font-size="12" fill="#9a6700" font-weight="700" font-family="system-ui,-apple-system,Segoe UI,Roboto,sans-serif" text-anchor="end">14</text></g>
<text x="345.82" y="162" font-size="9" font-weight="700" fill="#9a6700" opacity="0.7" letter-spacing="0.6" font-family="system-ui,-apple-system,Segoe UI,Roboto,sans-serif">ACTIVITY</text>
<g><text x="345.82" y="179" font-size="11">⭐</text><text x="365.82" y="179" font-size="11" fill="#9a6700" font-weight="600" font-family="system-ui,-apple-system,Segoe UI,Roboto,sans-serif">Stars</text><text x="470.17999999999995" y="179" font-size="12" fill="#9a6700" font-weight="700" font-family="system-ui,-apple-system,Segoe UI,Roboto,sans-serif" text-anchor="end">31</text><text x="345.82" y="201" font-size="11">🚀</text><text x="365.82" y="201" font-size="11" fill="#9a6700" font-weight="600" font-family="system-ui,-apple-system,Segoe UI,Roboto,sans-serif">Active &lt;30d</text><text x="470.17999999999995" y="201" font-size="12" fill="#9a6700" font-weight="700" font-family="system-ui,-apple-system,Segoe UI,Roboto,sans-serif" text-anchor="end">41</text><text x="345.82" y="223" font-size="11">📂</text><text x="365.82" y="223" font-size="11" fill="#9a6700" font-weight="600" font-family="system-ui,-apple-system,Segoe UI,Roboto,sans-serif">Public</text><text x="470.17999999999995" y="223" font-size="12" fill="#9a6700" font-weight="700" font-family="system-ui,-apple-system,Segoe UI,Roboto,sans-serif" text-anchor="end">37</text><text x="345.82" y="245" font-size="11">🔒</text><text x="365.82" y="245" font-size="11" fill="#9a6700" font-weight="600" font-family="system-ui,-apple-system,Segoe UI,Roboto,sans-serif">Private</text><text x="470.17999999999995" y="245" font-size="12" fill="#9a6700" font-weight="700" font-family="system-ui,-apple-system,Segoe UI,Roboto,sans-serif" text-anchor="end">69</text></g>
<rect x="488.17999999999995" y="3" width="328.82" height="264" rx="6" fill="#8250df" opacity="0.15" stroke="#8250df" stroke-width="1.5"/><path d="M494.17999999999995,3 h316.82 a6,6 0 0 1 6,6 v26 h-328.82 v-26 a6,6 0 0 1 6,-6 z" fill="#8250df" opacity="0.1"/><line x1="488.17999999999995" y1="35" x2="817" y2="35" stroke="#8250df" stroke-width="0.75" opacity="0.45"/><text x="496.17999999999995" y="19" font-size="12" fill="#8250df" font-family="system-ui,-apple-system,Segoe UI,Roboto,sans-serif" font-weight="700">Top Themes</text><text x="496.17999999999995" y="31" font-size="9" fill="#8250df" opacity="0.95" font-weight="600" font-family="system-ui,-apple-system,Segoe UI,Roboto,sans-serif">Topic clusters</text>
<g transform="translate(496.17999999999995, 41)">
<text x="4" y="22" font-size="11" fill="#8250df" font-family="system-ui,-apple-system,Segoe UI,Roboto,sans-serif">Cognitive<tspan x="4" dy="12">Architecture</tspan></text><rect x="137.3844" y="15" width="175.4356" height="18" rx="3" fill="#8250df" opacity="0.12"/><rect x="137.3844" y="15" width="110" height="18" rx="3" fill="#8250df" opacity="0.55"/><text x="252.3844" y="28" font-size="10" fill="#8250df" font-weight="700" font-family="system-ui,-apple-system,Segoe UI,Roboto,sans-serif">25</text><text x="4" y="62" font-size="11" fill="#8250df" font-family="system-ui,-apple-system,Segoe UI,Roboto,sans-serif">AI &amp; Copilot</text><rect x="137.3844" y="49" width="175.4356" height="18" rx="3" fill="#8250df" opacity="0.12"/><rect x="137.3844" y="49" width="105" height="18" rx="3" fill="#8250df" opacity="0.55"/><text x="247.3844" y="62" font-size="10" fill="#8250df" font-weight="700" font-family="system-ui,-apple-system,Segoe UI,Roboto,sans-serif">24</text><text x="4" y="96" font-size="11" fill="#8250df" font-family="system-ui,-apple-system,Segoe UI,Roboto,sans-serif">Developer Tools</text><rect x="137.3844" y="83" width="175.4356" height="18" rx="3" fill="#8250df" opacity="0.12"/><rect x="137.3844" y="83" width="79" height="18" rx="3" fill="#8250df" opacity="0.55"/><text x="221.3844" y="96" font-size="10" fill="#8250df" font-weight="700" font-family="system-ui,-apple-system,Segoe UI,Roboto,sans-serif">18</text><text x="4" y="130" font-size="11" fill="#8250df" font-family="system-ui,-apple-system,Segoe UI,Roboto,sans-serif">AI Agents &amp; Skills</text><rect x="137.3844" y="117" width="175.4356" height="18" rx="3" fill="#8250df" opacity="0.12"/><rect x="137.3844" y="117" width="70" height="18" rx="3" fill="#8250df" opacity="0.55"/><text x="212.3844" y="130" font-size="10" fill="#8250df" font-weight="700" font-family="system-ui,-apple-system,Segoe UI,Roboto,sans-serif">16</text><text x="4" y="164" font-size="11" fill="#8250df" font-family="system-ui,-apple-system,Segoe UI,Roboto,sans-serif">Responsible AI</text><rect x="137.3844" y="151" width="175.4356" height="18" rx="3" fill="#8250df" opacity="0.12"/><rect x="137.3844" y="151" width="61" height="18" rx="3" fill="#8250df" opacity="0.55"/><text x="203.3844" y="164" font-size="10" fill="#8250df" font-weight="700" font-family="system-ui,-apple-system,Segoe UI,Roboto,sans-serif">14</text><text x="4" y="198" font-size="11" fill="#8250df" font-family="system-ui,-apple-system,Segoe UI,Roboto,sans-serif">Learning &amp; Research</text><rect x="137.3844" y="185" width="175.4356" height="18" rx="3" fill="#8250df" opacity="0.12"/><rect x="137.3844" y="185" width="53" height="18" rx="3" fill="#8250df" opacity="0.55"/><text x="195.3844" y="198" font-size="10" fill="#8250df" font-weight="700" font-family="system-ui,-apple-system,Segoe UI,Roboto,sans-serif">12</text>
</g>
</g>
<text x="410" y="935" text-anchor="middle" font-family="Segoe UI, system-ui, sans-serif" font-size="13"><tspan font-weight="700" fill="#1f2328" >106</tspan><tspan fill="#64748b" dx="4">repositories across 10 categories</tspan><tspan fill="#64748b" dx="6">·</tspan><tspan font-weight="700" fill="#1f2328" dx="6">92</tspan><tspan fill="#64748b" dx="4">actively maintained</tspan><tspan fill="#64748b" dx="6">·</tspan><tspan font-weight="700" fill="#1f2328" dx="6">21</tspan><tspan fill="#64748b" dx="4">flagships</tspan></text>
</svg>