<svg xmlns="http://www.w3.org/2000/svg" viewBox="0 0 820 947" width="100%" preserveAspectRatio="xMidYMid meet" role="img" aria-label="Portfolio">
<title>Portfolio</title>
<g transform="translate(0, 0) scale(0.683333)">
<defs>
    <!-- Background gradient - deep space theme -->
    <linearGradient id="bgGrad" x1="0%" y1="0%" x2="100%" y2="100%">
      <stop offset="0%" stop-color="#020617"/>
      <stop offset="50%" stop-color="#0f172a"/>
      <stop offset="100%" stop-color="#1e293b"/>
    </linearGradient>

    <!-- Logo gradient with Azure blue -->
    <linearGradient id="logoGrad" x1="0%" y1="0%" x2="100%" y2="100%">
      <stop offset="0%" stop-color="#00bcf2"/>
      <stop offset="50%" stop-color="#0078d4"/>
      <stop offset="100%" stop-color="#005a9e"/>
    </linearGradient>

    <!-- Name gradient -->
    <linearGradient id="nameGrad" x1="0%" y1="0%" x2="100%" y2="0%">
      <stop offset="0%" stop-color="#f8fafc"/>
      <stop offset="50%" stop-color="#e2e8f0"/>
      <stop offset="100%" stop-color="#f8fafc"/>
    </linearGradient>

    <!-- Accent text gradient -->
    <linearGradient id="accentTextGrad" x1="0%" y1="0%" x2="100%" y2="0%">
      <stop offset="0%" stop-color="#00bcf2"/>
      <stop offset="50%" stop-color="#0078d4"/>
      <stop offset="100%" stop-color="#00bcf2"/>
    </linearGradient>

    <!-- Glow filter -->
    <filter id="glow" x="-50%" y="-50%" width="200%" height="200%">
      <feGaussianBlur stdDeviation="3" result="coloredBlur"/>
      <feMerge>
        <feMergeNode in="coloredBlur"/>
        <feMergeNode in="SourceGraphic"/>
      </feMerge>
    </filter>

    <!-- Strong glow for logo -->
    <filter id="logoGlow" x="-100%" y="-100%" width="300%" height="300%">
      <feGaussianBlur stdDeviation="6" result="blur1"/>
      <feGaussianBlur stdDeviation="12" result="blur2"/>
      <feMerge>
        <feMergeNode in="blur2"/>
        <feMergeNode in="blur1"/>
        <feMergeNode in="SourceGraphic"/>
      </feMerge>
    </filter>

    <!-- Radial glow behind logo -->
    <radialGradient id="logoBackGlow" cx="50%" cy="50%" r="50%">
      <stop offset="0%" stop-color="#0078d4" stop-opacity="0.4"/>
      <stop offset="50%" stop-color="#0078d4" stop-opacity="0.1"/>
      <stop offset="100%" stop-color="#0078d4" stop-opacity="0"/>
    </radialGradient>

    <!-- Grid pattern -->
    <pattern id="grid" width="50" height="50" patternUnits="userSpaceOnUse">
      <path d="M 50 0 L 0 0 0 50" fill="none" stroke="#1e3a5f" stroke-width="0.5" opacity="0.4"/>
    </pattern>

    <!-- Dot pattern -->
    <pattern id="dots" width="30" height="30" patternUnits="userSpaceOnUse">
      <circle cx="15" cy="15" r="1" fill="#0078d4" opacity="0.2"/>
    </pattern>

    <!-- Gradient for accent line -->
    <linearGradient id="accentGrad" x1="0%" y1="0%" x2="100%" y2="0%">
      <stop offset="0%" stop-color="#005a9e"/>
      <stop offset="25%" stop-color="#0078d4"/>
      <stop offset="50%" stop-color="#00bcf2"/>
      <stop offset="75%" stop-color="#0078d4"/>
      <stop offset="100%" stop-color="#005a9e"/>
    </linearGradient>

    <!-- Neural network gradient -->
    <linearGradient id="neuralGrad" x1="0%" y1="0%" x2="100%" y2="100%">
      <stop offset="0%" stop-color="#7c3aed"/>
      <stop offset="50%" stop-color="#0078d4"/>
      <stop offset="100%" stop-color="#00bcf2"/>
    </linearGradient>
  </defs>

  <!-- Background -->
  <rect width="1200" height="300" fill="url(#bgGrad)"/>

  <!-- Grid overlay -->
  <rect width="1200" height="300" fill="url(#grid)"/>

  <!-- Dot pattern overlay -->
  <rect width="1200" height="300" fill="url(#dots)" opacity="0.5"/>

  <!-- Large decorative orbs -->
  <circle cx="150" cy="150" r="180" fill="url(#logoBackGlow)"/>
  <circle cx="1050" cy="80" r="150" fill="#0078d4" opacity="0.05"/>
  <circle cx="1150" cy="280" r="180" fill="#00bcf2" opacity="0.03"/>
  <circle cx="50" cy="250" r="100" fill="#7c3aed" opacity="0.06"/>

  <!-- Neural network nodes - cognitive theme -->
  <g opacity="0.4">
    <!-- Left side neural cluster -->
    <circle cx="80" cy="60" r="4" fill="#7c3aed"/>
    <circle cx="120" cy="40" r="3" fill="#0078d4"/>
    <circle cx="60" cy="100" r="3" fill="#00bcf2"/>
    <circle cx="140" cy="90" r="2" fill="#7c3aed"/>
    <line x1="80" y1="60" x2="120" y2="40" stroke="#7c3aed" stroke-width="1"/>
    <line x1="80" y1="60" x2="60" y2="100" stroke="#0078d4" stroke-width="1"/>
    <line x1="120" y1="40" x2="140" y2="90" stroke="#00bcf2" stroke-width="0.5"/>

    <!-- Right side neural cluster -->
    <circle cx="1100" cy="70" r="3" fill="#00bcf2"/>
    <circle cx="1140" cy="50" r="2" fill="#0078d4"/>
    <circle cx="1080" cy="100" r="4" fill="#7c3aed"/>
    <circle cx="1120" cy="120" r="2" fill="#0078d4"/>
    <line x1="1100" y1="70" x2="1140" y2="50" stroke="#00bcf2" stroke-width="0.5"/>
    <line x1="1100" y1="70" x2="1080" y2="100" stroke="#7c3aed" stroke-width="1"/>
    <line x1="1080" y1="100" x2="1120" y2="120" stroke="#0078d4" stroke-width="0.5"/>
  </g>

  <!-- Floating particles -->
  <circle cx="300" cy="30" r="1.5" fill="#0078d4" opacity="0.5"/>
  <circle cx="500" cy="50" r="2" fill="#00bcf2" opacity="0.4"/>
  <circle cx="750" cy="25" r="1" fill="#7c3aed" opacity="0.6"/>
  <circle cx="950" cy="45" r="2.5" fill="#00bcf2" opacity="0.3"/>
  <circle cx="400" cy="270" r="2" fill="#00bcf2" opacity="0.4"/>
  <circle cx="700" cy="260" r="1.5" fill="#0078d4" opacity="0.5"/>
  <circle cx="900" cy="275" r="2" fill="#7c3aed" opacity="0.3"/>
  <circle cx="1050" cy="250" r="1" fill="#0078d4" opacity="0.6"/>

  <!-- Logo glow backdrop -->
  <ellipse cx="150" cy="150" rx="120" ry="110" fill="url(#logoBackGlow)"/>

  <!-- Logo mark (scaled) with glow -->
  <g transform="translate(55, 58) scale(6)" filter="url(#logoGlow)">
    <path d="M16 2C8.268 2 2 8.268 2 16s6.268 14 14 14c3.866 0 7.389-1.568 9.928-4.1l-3.535-3.536A9.002 9.002 0 0116 25c-4.97 0-9-4.03-9-9s4.03-9 9-9c2.29 0 4.38.857 5.971 2.268l3.464-3.639C22.993 3.352 19.66 2 16 2z" fill="url(#logoGrad)"/>
    <path d="M20 10l-4 6 4 6h4l-4-6 4-6h-4z" fill="url(#logoGrad)"/>
    <path d="M24 10l4 6-4 6h4l4-6-4-6h-4z" fill="url(#logoGrad)" opacity="0.6"/>
  </g>

  <text x="320" y="54" font-family="Segoe UI, system-ui, sans-serif" font-size="13" font-weight="600" fill="#94a3b8" letter-spacing="3">AUTOMATIC REPOSITORY PORTFOLIO FOR</text>
  <!-- Main name -->
  <text x="320" y="135" font-family="Segoe UI, system-ui, sans-serif" font-size="74" font-weight="700" fill="url(#nameGrad)" filter="url(#glow)">Dr. Fabio Correa, DBA</text>

  <!-- Title line -->
  <text x="320" y="180" font-family="Segoe UI, system-ui, sans-serif" font-size="22" fill="#94a3b8" letter-spacing="1" textLength="800" lengthAdjust="spacingAndGlyphs">Building AI-powered solutions for coding, learning, and decision-making.</text>

  <!-- Tagline with accent -->
  <text x="320" y="220" font-family="Segoe UI, system-ui, sans-serif" font-size="18" fill="url(#accentTextGrad)" letter-spacing="1.5">THINK • BUILD • DEPLOY</text>

  <!-- Decorative accent line -->
  <line x1="320" y1="240" x2="850" y2="240" stroke="#334155" stroke-width="1"/>
  <line x1="320" y1="243" x2="600" y2="243" stroke="url(#accentGrad)" stroke-width="2" opacity="0.6"/>

  <!-- CorreaX branding badge -->
  <g transform="translate(320, 255)" font-family="Segoe UI, system-ui, sans-serif" font-size="12" fill="#94a3b8"><text letter-spacing="1">UPDATED</text><text x="70" font-weight="700">May 17 2026 06:30 EDT</text></g>

  <!-- Tech circuit decorations on right -->
  <g opacity="0.25">
    <path d="M1000 140 h80 v40 h40" stroke="#0078d4" stroke-width="1.5" fill="none"/>
    <circle cx="1000" cy="140" r="3" fill="#0078d4"/>
    <circle cx="1120" cy="180" r="4" fill="#00bcf2"/>
    <path d="M1020 200 h60 v-25 h30" stroke="#7c3aed" stroke-width="1" fill="none"/>
    <circle cx="1020" cy="200" r="2" fill="#7c3aed"/>
    <path d="M980 100 h50 l20 20 h40" stroke="#00bcf2" stroke-width="1" fill="none"/>
    <circle cx="980" cy="100" r="2" fill="#00bcf2"/>
  </g>

  <!-- Bottom accent bar with glow -->
  <rect x="0" y="290" width="1200" height="10" fill="url(#accentGrad)" filter="url(#glow)"/>
</g>
<g transform="translate(0, 217)">
<rect width="820" height="416" fill="none"/>
  <rect x="3" y="3" width="283.8275862068965" height="202" rx="6" fill="#4e79a7" opacity="0.15" stroke="#4e79a7" stroke-width="1.5"/><path d="M9,3 h271.8275862068965 a6,6 0 0 1 6,6 v16 h-283.8275862068965 v-16 a6,6 0 0 1 6,-6 z" fill="#4e79a7" opacity="0.1"/><line x1="3" y1="25" x2="286.8275862068965" y2="25" stroke="#4e79a7" stroke-width="0.75" opacity="0.45"/><text x="11" y="19" font-size="12" fill="#4e79a7" font-family="system-ui,-apple-system,Segoe UI,Roboto,sans-serif" font-weight="700">AI &amp; Copilot</text>
  <rect x="4" y="27" width="49.786169911506114" height="176" rx="3" fill="#4e79a7" opacity="0.45"/>
  <text x="28.893084955753057" y="115" text-anchor="middle" dominant-baseline="central" font-size="16" fill="#4e79a7" font-family="system-ui,sans-serif" font-weight="600" transform="rotate(-90,28.893084955753057,115)">github copilot</text>
  <rect x="54.786169911506114" y="27" width="39.715624359829036" height="176" rx="3" fill="#4e79a7" opacity="0.36"/>
  <text x="74.64398209142064" y="115" text-anchor="middle" dominant-baseline="central" font-size="16" fill="#4e79a7" font-family="system-ui,sans-serif" font-weight="600" transform="rotate(-90,74.64398209142064,115)">copilot</text>
  <rect x="95.50179427133514" y="27" width="39.715624359829036" height="176" rx="3" fill="#4e79a7" opacity="0.36"/>
  <text x="115.35960645124966" y="115" text-anchor="middle" dominant-baseline="central" font-size="16" fill="#4e79a7" font-family="system-ui,sans-serif" font-weight="600" transform="rotate(-90,115.35960645124966,115)">ai assistant</text>
  <rect x="136.21741863116418" y="27" width="33.565828906909026" height="176" rx="3" fill="#4e79a7" opacity="0.32"/>
  <text x="153.0003330846187" y="115" text-anchor="middle" dominant-baseline="central" font-size="16" fill="#4e79a7" font-family="system-ui,sans-serif" font-weight="400" transform="rotate(-90,153.0003330846187,115)">claude</text>
  <rect x="170.7832475380732" y="27" width="30.02219006279041" height="176" rx="3" fill="#4e79a7" opacity="0.29"/>
  <text x="185.7943425694684" y="115" text-anchor="middle" dominant-baseline="central" font-size="16" fill="#4e79a7" font-family="system-ui,sans-serif" font-weight="400" transform="rotate(-90,185.7943425694684,115)">azure openai</text>
  <rect x="201.8054376008636" y="27" width="30.02219006279041" height="176" rx="3" fill="#4e79a7" opacity="0.29"/>
  <text x="216.8165326322588" y="115" text-anchor="middle" dominant-baseline="central" font-size="16" fill="#4e79a7" font-family="system-ui,sans-serif" font-weight="400" transform="rotate(-90,216.8165326322588,115)">ai agents</text>
  <rect x="232.827627663654" y="27" width="25.99997927162123" height="176" rx="3" fill="#4e79a7" opacity="0.27"/>
  <text x="245.8276172994646" y="115" text-anchor="middle" dominant-baseline="central" font-size="16" fill="#4e79a7" font-family="system-ui,sans-serif" font-weight="400" transform="rotate(-90,245.8276172994646,115)">ai adoption</text>
  <rect x="259.82760693527524" y="27" width="25.99997927162127" height="176" rx="3" fill="#4e79a7" opacity="0.27"/>
  <text x="272.8275965710859" y="115" text-anchor="middle" dominant-baseline="central" font-size="16" fill="#4e79a7" font-family="system-ui,sans-serif" font-weight="400" transform="rotate(-90,272.8275965710859,115)">agent skills</text>
  <rect x="292.8275862068965" y="3" width="216.67241379310346" height="202" rx="6" fill="#57606a" opacity="0.15" stroke="#57606a" stroke-width="1.5"/><path d="M298.8275862068965,3 h204.67241379310346 a6,6 0 0 1 6,6 v16 h-216.67241379310346 v-16 a6,6 0 0 1 6,-6 z" fill="#57606a" opacity="0.1"/><line x1="292.8275862068965" y1="25" x2="509.5" y2="25" stroke="#57606a" stroke-width="0.75" opacity="0.45"/><text x="300.8275862068965" y="19" font-size="12" fill="#57606a" font-family="system-ui,-apple-system,Segoe UI,Roboto,sans-serif" font-weight="700">Other</text>
  <rect x="293.8275862068965" y="27" width="36.2839110842157" height="176" rx="3" fill="#57606a" opacity="0.43"/>
  <text x="311.96954174900435" y="115" text-anchor="middle" dominant-baseline="central" font-size="16" fill="#57606a" font-family="system-ui,sans-serif" font-weight="600" transform="rotate(-90,311.96954174900435,115)">agent</text>
  <rect x="331.1114972911122" y="27" width="30.357298010479948" height="176" rx="3" fill="#57606a" opacity="0.36"/>
  <text x="346.29014629635213" y="115" text-anchor="middle" dominant-baseline="central" font-size="16" fill="#57606a" font-family="system-ui,sans-serif" font-weight="600" transform="rotate(-90,346.29014629635213,115)">prompt engineering</text>
  <rect x="362.46879530159214" y="27" width="30.357298010479948" height="176" rx="3" fill="#57606a" opacity="0.36"/>
  <text x="377.6474443068321" y="115" text-anchor="middle" dominant-baseline="central" font-size="16" fill="#57606a" font-family="system-ui,sans-serif" font-weight="600" transform="rotate(-90,377.6474443068321,115)">ai</text>
  <rect x="393.8260933120721" y="27" width="28.10539667288762" height="176" rx="3" fill="#57606a" opacity="0.34"/>
  <text x="407.8787916485159" y="115" text-anchor="middle" dominant-baseline="central" font-size="16" fill="#57606a" font-family="system-ui,sans-serif" font-weight="600" transform="rotate(-90,407.8787916485159,115)">critical thinking</text>
  <rect x="422.9314899849597" y="27" width="22.947960289030227" height="176" rx="3" fill="#57606a" opacity="0.29"/>
  <text x="434.4054701294748" y="115" text-anchor="middle" dominant-baseline="central" font-size="16" fill="#57606a" font-family="system-ui,sans-serif" font-weight="400" transform="rotate(-90,434.4054701294748,115)">responsible ai</text>
  <rect x="446.8794502739899" y="27" width="19.873516575336666" height="176" rx="3" fill="#57606a" opacity="0.27"/>
  <text x="456.81620856165824" y="115" text-anchor="middle" dominant-baseline="central" font-size="14" fill="#57606a" font-family="system-ui,sans-serif" font-weight="400" transform="rotate(-90,456.81620856165824,115)">dashboard</text>
  <rect x="467.7529668493266" y="27" width="19.873516575336666" height="176" rx="3" fill="#57606a" opacity="0.27"/>
  <text x="477.6897251369949" y="115" text-anchor="middle" dominant-baseline="central" font-size="14" fill="#57606a" font-family="system-ui,sans-serif" font-weight="400" transform="rotate(-90,477.6897251369949,115)">fleet</text>
  <rect x="488.62648342466326" y="27" width="19.873516575336737" height="176" rx="3" fill="#57606a" opacity="0.27"/>
  <text x="498.56324171233166" y="115" text-anchor="middle" dominant-baseline="central" font-size="14" fill="#57606a" font-family="system-ui,sans-serif" font-weight="400" transform="rotate(-90,498.56324171233166,115)">dialog engineering</text>
  <rect x="515.5" y="3" width="124.77586206896552" height="202" rx="6" fill="#f28e2b" opacity="0.15" stroke="#f28e2b" stroke-width="1.5"/><path d="M521.5,3 h112.77586206896552 a6,6 0 0 1 6,6 v16 h-124.77586206896552 v-16 a6,6 0 0 1 6,-6 z" fill="#f28e2b" opacity="0.1"/><line x1="515.5" y1="25" x2="640.2758620689656" y2="25" stroke="#f28e2b" stroke-width="0.75" opacity="0.45"/><text x="523.5" y="19" font-size="12" fill="#f28e2b" font-family="system-ui,-apple-system,Segoe UI,Roboto,sans-serif" font-weight="700">Cognitive Archit…</text>
  <rect x="516.5" y="27" width="23.55551226526564" height="176" rx="3" fill="#f28e2b" opacity="0.45"/>
  <text x="528.2777561326328" y="115" text-anchor="middle" dominant-baseline="central" font-size="13" fill="#f28e2b" font-family="system-ui,sans-serif" font-weight="600" transform="rotate(-90,528.2777561326328,115)">cognitive architecture</text>
  <rect x="541.0555122652656" y="27" width="20.088208356312013" height="176" rx="3" fill="#f28e2b" opacity="0.38"/>
  <text x="551.0996164434216" y="115" text-anchor="middle" dominant-baseline="central" font-size="15" fill="#f28e2b" font-family="system-ui,sans-serif" font-weight="600" transform="rotate(-90,551.0996164434216,115)">agentic</text>
  <rect x="562.1437206215777" y="27" width="17.396898753081043" height="176" rx="3" fill="#f28e2b" opacity="0.34"/>
  <text x="570.8421699981183" y="115" text-anchor="middle" dominant-baseline="central" font-size="13" fill="#f28e2b" font-family="system-ui,sans-serif" font-weight="600" transform="rotate(-90,570.8421699981183,115)">mcp</text>
  <rect x="580.5406193746587" y="27" width="12.3014650799194" height="176" rx="3" fill="#f28e2b" opacity="0.27"/>
  <text x="586.6913519146184" y="115" text-anchor="middle" dominant-baseline="central" font-size="9" fill="#f28e2b" font-family="system-ui,sans-serif" font-weight="400" transform="rotate(-90,586.6913519146184,115)">agentic ai</text>
  <rect x="593.8420844545781" y="27" width="12.3014650799194" height="176" rx="3" fill="#f28e2b" opacity="0.27"/>
  <text x="599.9928169945377" y="115" text-anchor="middle" dominant-baseline="central" font-size="9" fill="#f28e2b" font-family="system-ui,sans-serif" font-weight="400" transform="rotate(-90,599.9928169945377,115)">model context protocol</text>
  <rect x="607.1435495344974" y="27" width="10.044104178156006" height="176" rx="3" fill="#f28e2b" opacity="0.25"/>
  <text x="612.1656016235754" y="115" text-anchor="middle" dominant-baseline="central" font-size="7" fill="#f28e2b" font-family="system-ui,sans-serif" font-weight="400" transform="rotate(-90,612.1656016235754,115)">neuroscience</text>
  <rect x="618.1876537126534" y="27" width="10.044104178156006" height="176" rx="3" fill="#f28e2b" opacity="0.25"/>
  <text x="623.2097058017314" y="115" text-anchor="middle" dominant-baseline="central" font-size="7" fill="#f28e2b" font-family="system-ui,sans-serif" font-weight="400" transform="rotate(-90,623.2097058017314,115)">cognitive science</text>
  <rect x="629.2317578908094" y="27" width="10.044104178156203" height="176" rx="3" fill="#f28e2b" opacity="0.25"/>
  <text x="634.2538099798875" y="115" text-anchor="middle" dominant-baseline="central" font-size="7" fill="#f28e2b" font-family="system-ui,sans-serif" font-weight="400" transform="rotate(-90,634.2538099798875,115)">memory systems</text>
  <rect x="646.2758620689656" y="3" width="100.0344827586207" height="202" rx="6" fill="#59a14f" opacity="0.15" stroke="#59a14f" stroke-width="1.5"/><path d="M652.2758620689656,3 h88.0344827586207 a6,6 0 0 1 6,6 v16 h-100.0344827586207 v-16 a6,6 0 0 1 6,-6 z" fill="#59a14f" opacity="0.1"/><line x1="646.2758620689656" y1="25" x2="746.3103448275863" y2="25" stroke="#59a14f" stroke-width="0.75" opacity="0.45"/><text x="654.2758620689656" y="19" font-size="12" fill="#59a14f" font-family="system-ui,-apple-system,Segoe UI,Roboto,sans-serif" font-weight="700">Developer To…</text>
  <rect x="647.2758620689656" y="27" width="14.678465656441018" height="176" rx="3" fill="#59a14f" opacity="0.34"/>
  <text x="654.615094897186" y="115" text-anchor="middle" dominant-baseline="central" font-size="11" fill="#59a14f" font-family="system-ui,sans-serif" font-weight="600" transform="rotate(-90,654.615094897186,115)">typescript</text>
  <rect x="662.9543277254066" y="27" width="14.678465656441018" height="176" rx="3" fill="#59a14f" opacity="0.34"/>
  <text x="670.2935605536271" y="115" text-anchor="middle" dominant-baseline="central" font-size="11" fill="#59a14f" font-family="system-ui,sans-serif" font-weight="600" transform="rotate(-90,670.2935605536271,115)">vscode extension</text>
  <rect x="678.6327933818477" y="27" width="11.984917021749142" height="176" rx="3" fill="#59a14f" opacity="0.29"/>
  <text x="684.6252518927223" y="115" text-anchor="middle" dominant-baseline="central" font-size="8" fill="#59a14f" font-family="system-ui,sans-serif" font-weight="400" transform="rotate(-90,684.6252518927223,115)">python</text>
  <rect x="691.6177104035969" y="27" width="11.984917021749142" height="176" rx="3" fill="#59a14f" opacity="0.29"/>
  <text x="697.6101689144715" y="115" text-anchor="middle" dominant-baseline="central" font-size="8" fill="#59a14f" font-family="system-ui,sans-serif" font-weight="400" transform="rotate(-90,697.6101689144715,115)">vscode</text>
  <rect x="704.6026274253461" y="27" width="10.379242603083291" height="176" rx="3" fill="#59a14f" opacity="0.27"/>
  <text x="709.7922487268877" y="115" text-anchor="middle" dominant-baseline="central" font-size="7" fill="#59a14f" font-family="system-ui,sans-serif" font-weight="400" transform="rotate(-90,709.7922487268877,115)">react</text>
  <rect x="715.9818700284294" y="27" width="10.379242603083291" height="176" rx="3" fill="#59a14f" opacity="0.27"/>
  <text x="721.171491329971" y="115" text-anchor="middle" dominant-baseline="central" font-size="7" fill="#59a14f" font-family="system-ui,sans-serif" font-weight="400" transform="rotate(-90,721.171491329971,115)">developer tools</text>
  <rect x="727.3611126315127" y="27" width="8.474616098036899" height="176" rx="3" fill="#59a14f" opacity="0.25"/>
  <text x="731.5984206805311" y="115" text-anchor="middle" dominant-baseline="central" font-size="6" fill="#59a14f" font-family="system-ui,sans-serif" font-weight="400" transform="rotate(-90,731.5984206805311,115)">markdown</text>
  <rect x="736.8357287295496" y="27" width="8.474616098036677" height="176" rx="3" fill="#59a14f" opacity="0.25"/>
  <text x="741.0730367785679" y="115" text-anchor="middle" dominant-baseline="central" font-size="6" fill="#59a14f" font-family="system-ui,sans-serif" font-weight="400" transform="rotate(-90,741.0730367785679,115)">pdf</text>
  <rect x="752.3103448275863" y="3" width="64.68965517241372" height="202" rx="6" fill="#e15759" opacity="0.15" stroke="#e15759" stroke-width="1.5"/><path d="M758.3103448275863,3 h52.68965517241372 a6,6 0 0 1 6,6 v16 h-64.68965517241372 v-16 a6,6 0 0 1 6,-6 z" fill="#e15759" opacity="0.1"/><line x1="752.3103448275863" y1="25" x2="817" y2="25" stroke="#e15759" stroke-width="0.75" opacity="0.45"/><text x="760.3103448275863" y="19" font-size="12" fill="#e15759" font-family="system-ui,-apple-system,Segoe UI,Roboto,sans-serif" font-weight="700">Learni…</text>
  <rect x="753.3103448275863" y="27" width="7.664431598320397" height="176" rx="3" fill="#e15759" opacity="0.27"/>
  <rect x="761.9747764259067" y="27" width="7.664431598320397" height="176" rx="3" fill="#e15759" opacity="0.27"/>
  <rect x="770.6392080242272" y="27" width="7.664431598320397" height="176" rx="3" fill="#e15759" opacity="0.27"/>
  <rect x="779.3036396225476" y="27" width="7.664431598320397" height="176" rx="3" fill="#e15759" opacity="0.27"/>
  <rect x="787.9680712208681" y="27" width="6.257982194783032" height="176" rx="3" fill="#e15759" opacity="0.25"/>
  <rect x="795.2260534156511" y="27" width="6.257982194783032" height="176" rx="3" fill="#e15759" opacity="0.25"/>
  <rect x="802.4840356104341" y="27" width="6.257982194783032" height="176" rx="3" fill="#e15759" opacity="0.25"/>
  <rect x="809.7420178052172" y="27" width="6.257982194782812" height="176" rx="3" fill="#e15759" opacity="0.25"/>
  <rect x="3" y="211" width="267.3333333333333" height="202" rx="6" fill="#b07aa1" opacity="0.15" stroke="#b07aa1" stroke-width="1.5"/><path d="M9,211 h255.33333333333331 a6,6 0 0 1 6,6 v16 h-267.3333333333333 v-16 a6,6 0 0 1 6,-6 z" fill="#b07aa1" opacity="0.1"/><line x1="3" y1="233" x2="270.3333333333333" y2="233" stroke="#b07aa1" stroke-width="0.75" opacity="0.45"/><text x="11" y="227" font-size="12" fill="#b07aa1" font-family="system-ui,-apple-system,Segoe UI,Roboto,sans-serif" font-weight="700">Productivity &amp; Automation</text>
  <rect x="4" y="235" width="32.29166666666666" height="176" rx="3" fill="#b07aa1" opacity="0.25"/>
  <text x="20.14583333333333" y="323" text-anchor="middle" dominant-baseline="central" font-size="16" fill="#b07aa1" font-family="system-ui,sans-serif" font-weight="400" transform="rotate(-90,20.14583333333333,323)">automation</text>
  <rect x="37.29166666666666" y="235" width="32.29166666666666" height="176" rx="3" fill="#b07aa1" opacity="0.25"/>
  <text x="53.437499999999986" y="323" text-anchor="middle" dominant-baseline="central" font-size="16" fill="#b07aa1" font-family="system-ui,sans-serif" font-weight="400" transform="rotate(-90,53.437499999999986,323)">productivity</text>
  <rect x="70.58333333333331" y="235" width="32.29166666666666" height="176" rx="3" fill="#b07aa1" opacity="0.25"/>
  <text x="86.72916666666664" y="323" text-anchor="middle" dominant-baseline="central" font-size="16" fill="#b07aa1" font-family="system-ui,sans-serif" font-weight="400" transform="rotate(-90,86.72916666666664,323)">better together</text>
  <rect x="103.87499999999997" y="235" width="32.29166666666666" height="176" rx="3" fill="#b07aa1" opacity="0.25"/>
  <text x="120.0208333333333" y="323" text-anchor="middle" dominant-baseline="central" font-size="16" fill="#b07aa1" font-family="system-ui,sans-serif" font-weight="400" transform="rotate(-90,120.0208333333333,323)">dual platform</text>
  <rect x="137.16666666666663" y="235" width="32.29166666666666" height="176" rx="3" fill="#b07aa1" opacity="0.25"/>
  <text x="153.31249999999994" y="323" text-anchor="middle" dominant-baseline="central" font-size="16" fill="#b07aa1" font-family="system-ui,sans-serif" font-weight="400" transform="rotate(-90,153.31249999999994,323)">homebrew</text>
  <rect x="170.4583333333333" y="235" width="32.29166666666666" height="176" rx="3" fill="#b07aa1" opacity="0.25"/>
  <text x="186.60416666666663" y="323" text-anchor="middle" dominant-baseline="central" font-size="16" fill="#b07aa1" font-family="system-ui,sans-serif" font-weight="400" transform="rotate(-90,186.60416666666663,323)">macbook</text>
  <rect x="203.74999999999994" y="235" width="32.29166666666666" height="176" rx="3" fill="#b07aa1" opacity="0.25"/>
  <text x="219.89583333333326" y="323" text-anchor="middle" dominant-baseline="central" font-size="16" fill="#b07aa1" font-family="system-ui,sans-serif" font-weight="400" transform="rotate(-90,219.89583333333326,323)">macos</text>
  <rect x="237.0416666666666" y="235" width="32.291666666666714" height="176" rx="3" fill="#b07aa1" opacity="0.25"/>
  <text x="253.18749999999994" y="323" text-anchor="middle" dominant-baseline="central" font-size="16" fill="#b07aa1" font-family="system-ui,sans-serif" font-weight="400" transform="rotate(-90,253.18749999999994,323)">power user</text>
  <rect x="276.3333333333333" y="211" width="252.14814814814815" height="202" rx="6" fill="#edc948" opacity="0.15" stroke="#edc948" stroke-width="1.5"/><path d="M282.3333333333333,211 h240.14814814814815 a6,6 0 0 1 6,6 v16 h-252.14814814814815 v-16 a6,6 0 0 1 6,-6 z" fill="#edc948" opacity="0.1"/><line x1="276.3333333333333" y1="233" x2="528.4814814814815" y2="233" stroke="#edc948" stroke-width="0.75" opacity="0.45"/><text x="284.3333333333333" y="227" font-size="12" fill="#edc948" font-family="system-ui,-apple-system,Segoe UI,Roboto,sans-serif" font-weight="700">Healthcare &amp; Wellness</text>
  <rect x="277.3333333333333" y="235" width="36.20713494331421" height="176" rx="3" fill="#edc948" opacity="0.27"/>
  <text x="295.43690080499044" y="323" text-anchor="middle" dominant-baseline="central" font-size="16" fill="#edc948" font-family="system-ui,sans-serif" font-weight="400" transform="rotate(-90,295.43690080499044,323)">spotify api</text>
  <rect x="314.5404682766475" y="235" width="29.563001886404848" height="176" rx="3" fill="#edc948" opacity="0.25"/>
  <text x="329.32196921984996" y="323" text-anchor="middle" dominant-baseline="central" font-size="16" fill="#edc948" font-family="system-ui,sans-serif" font-weight="400" transform="rotate(-90,329.32196921984996,323)">music</text>
  <rect x="345.10347016305235" y="235" width="29.563001886404848" height="176" rx="3" fill="#edc948" opacity="0.25"/>
  <text x="359.8849711062548" y="323" text-anchor="middle" dominant-baseline="central" font-size="16" fill="#edc948" font-family="system-ui,sans-serif" font-weight="400" transform="rotate(-90,359.8849711062548,323)">playlist</text>
  <rect x="375.6664720494572" y="235" width="29.563001886404848" height="176" rx="3" fill="#edc948" opacity="0.25"/>
  <text x="390.44797299265963" y="323" text-anchor="middle" dominant-baseline="central" font-size="16" fill="#edc948" font-family="system-ui,sans-serif" font-weight="400" transform="rotate(-90,390.44797299265963,323)">spotify</text>
  <rect x="406.229473935862" y="235" width="29.563001886404848" height="176" rx="3" fill="#edc948" opacity="0.25"/>
  <text x="421.01097487906446" y="323" text-anchor="middle" dominant-baseline="central" font-size="16" fill="#edc948" font-family="system-ui,sans-serif" font-weight="400" transform="rotate(-90,421.01097487906446,323)">accessibility</text>
  <rect x="436.79247582226685" y="235" width="29.563001886404848" height="176" rx="3" fill="#edc948" opacity="0.25"/>
  <text x="451.5739767654693" y="323" text-anchor="middle" dominant-baseline="central" font-size="16" fill="#edc948" font-family="system-ui,sans-serif" font-weight="400" transform="rotate(-90,451.5739767654693,323)">healthcare</text>
  <rect x="467.3554777086717" y="235" width="29.563001886404848" height="176" rx="3" fill="#edc948" opacity="0.25"/>
  <text x="482.13697865187413" y="323" text-anchor="middle" dominant-baseline="central" font-size="16" fill="#edc948" font-family="system-ui,sans-serif" font-weight="400" transform="rotate(-90,482.13697865187413,323)">audio</text>
  <rect x="497.9184795950765" y="235" width="29.563001886405004" height="176" rx="3" fill="#edc948" opacity="0.25"/>
  <text x="512.6999805382791" y="323" text-anchor="middle" dominant-baseline="central" font-size="16" fill="#edc948" font-family="system-ui,sans-serif" font-weight="400" transform="rotate(-90,512.6999805382791,323)">generative art</text>
  <rect x="534.4814814814815" y="211" width="145.85185185185185" height="202" rx="6" fill="#ff9da7" opacity="0.15" stroke="#ff9da7" stroke-width="1.5"/><path d="M540.4814814814815,211 h133.85185185185185 a6,6 0 0 1 6,6 v16 h-145.85185185185185 v-16 a6,6 0 0 1 6,-6 z" fill="#ff9da7" opacity="0.1"/><line x1="534.4814814814815" y1="233" x2="680.3333333333334" y2="233" stroke="#ff9da7" stroke-width="0.75" opacity="0.45"/><text x="542.4814814814815" y="227" font-size="12" fill="#ff9da7" font-family="system-ui,-apple-system,Segoe UI,Roboto,sans-serif" font-weight="700">Finance &amp; Investment</text>
  <rect x="535.4814814814815" y="235" width="27.97037037037037" height="176" rx="3" fill="#ff9da7" opacity="0.25"/>
  <text x="549.4666666666667" y="323" text-anchor="middle" dominant-baseline="central" font-size="16" fill="#ff9da7" font-family="system-ui,sans-serif" font-weight="400" transform="rotate(-90,549.4666666666667,323)">portfolio</text>
  <rect x="564.4518518518519" y="235" width="27.97037037037037" height="176" rx="3" fill="#ff9da7" opacity="0.25"/>
  <text x="578.437037037037" y="323" text-anchor="middle" dominant-baseline="central" font-size="16" fill="#ff9da7" font-family="system-ui,sans-serif" font-weight="400" transform="rotate(-90,578.437037037037,323)">template</text>
  <rect x="593.4222222222222" y="235" width="27.97037037037037" height="176" rx="3" fill="#ff9da7" opacity="0.25"/>
  <text x="607.4074074074074" y="323" text-anchor="middle" dominant-baseline="central" font-size="16" fill="#ff9da7" font-family="system-ui,sans-serif" font-weight="400" transform="rotate(-90,607.4074074074074,323)">astro</text>
  <rect x="622.3925925925926" y="235" width="27.97037037037037" height="176" rx="3" fill="#ff9da7" opacity="0.25"/>
  <text x="636.3777777777777" y="323" text-anchor="middle" dominant-baseline="central" font-size="16" fill="#ff9da7" font-family="system-ui,sans-serif" font-weight="400" transform="rotate(-90,636.3777777777777,323)">governance</text>
  <rect x="651.3629629629629" y="235" width="27.97037037037046" height="176" rx="3" fill="#ff9da7" opacity="0.25"/>
  <text x="665.3481481481481" y="323" text-anchor="middle" dominant-baseline="central" font-size="16" fill="#ff9da7" font-family="system-ui,sans-serif" font-weight="400" transform="rotate(-90,665.3481481481481,323)">multilingual</text>
  <rect x="686.3333333333334" y="211" width="130.66666666666663" height="202" rx="6" fill="#76b7b2" opacity="0.15" stroke="#76b7b2" stroke-width="1.5"/><path d="M692.3333333333334,211 h118.66666666666663 a6,6 0 0 1 6,6 v16 h-130.66666666666663 v-16 a6,6 0 0 1 6,-6 z" fill="#76b7b2" opacity="0.1"/><line x1="686.3333333333334" y1="233" x2="817" y2="233" stroke="#76b7b2" stroke-width="0.75" opacity="0.45"/><text x="694.3333333333334" y="227" font-size="12" fill="#76b7b2" font-family="system-ui,-apple-system,Segoe UI,Roboto,sans-serif" font-weight="700">Cloud &amp; Azure</text>
  <rect x="687.3333333333334" y="235" width="83.19634805770535" height="176" rx="3" fill="#76b7b2" opacity="0.36"/>
  <text x="728.931507362186" y="323" text-anchor="middle" dominant-baseline="central" font-size="16" fill="#76b7b2" font-family="system-ui,sans-serif" font-weight="600" transform="rotate(-90,728.931507362186,323)">azure</text>
  <rect x="771.5296813910387" y="235" width="44.47031860896129" height="176" rx="3" fill="#76b7b2" opacity="0.25"/>
  <text x="793.7648406955193" y="323" text-anchor="middle" dominant-baseline="central" font-size="16" fill="#76b7b2" font-family="system-ui,sans-serif" font-weight="400" transform="rotate(-90,793.7648406955193,323)">azure functions</text>
</g>
<g transform="translate(0, 639)">
<title>Portfolio at a Glance</title>
<rect width="820" height="270" fill="none"/>
<rect x="3" y="3" width="328.82" height="264" rx="6" fill="#0969da" opacity="0.15" stroke="#0969da" stroke-width="1.5"/><path d="M9,3 h316.82 a6,6 0 0 1 6,6 v26 h-328.82 v-26 a6,6 0 0 1 6,-6 z" fill="#0969da" opacity="0.1"/><line x1="3" y1="35" x2="331.82" y2="35" stroke="#0969da" stroke-width="0.75" opacity="0.45"/><text x="11" y="19" font-size="12" fill="#0969da" font-family="system-ui,-apple-system,Segoe UI,Roboto,sans-serif" font-weight="700">Top Languages</text><text x="11" y="31" font-size="9" fill="#0969da" opacity="0.95" font-weight="600" font-family="system-ui,-apple-system,Segoe UI,Roboto,sans-serif">By lines of code</text>
<g transform="translate(11, 41)">
<text x="4" y="28" font-size="11" fill="#0969da" font-family="system-ui,-apple-system,Segoe UI,Roboto,sans-serif">Python</text><rect x="137.3844" y="15" width="175.4356" height="18" rx="3" fill="#0969da" opacity="0.12"/><rect x="137.3844" y="15" width="110" height="18" rx="3" fill="#0969da" opacity="0.55"/><text x="252.3844" y="28" font-size="10" fill="#0969da" font-weight="700" font-family="system-ui,-apple-system,Segoe UI,Roboto,sans-serif">62.6%</text><text x="4" y="62" font-size="11" fill="#0969da" font-family="system-ui,-apple-system,Segoe UI,Roboto,sans-serif">Jupyter Notebook</text><rect x="137.3844" y="49" width="175.4356" height="18" rx="3" fill="#0969da" opacity="0.12"/><rect x="137.3844" y="49" width="29" height="18" rx="3" fill="#0969da" opacity="0.55"/><text x="171.3844" y="62" font-size="10" fill="#0969da" font-weight="700" font-family="system-ui,-apple-system,Segoe UI,Roboto,sans-serif">16.3%</text><text x="4" y="96" font-size="11" fill="#0969da" font-family="system-ui,-apple-system,Segoe UI,Roboto,sans-serif">JavaScript</text><rect x="137.3844" y="83" width="175.4356" height="18" rx="3" fill="#0969da" opacity="0.12"/><rect x="137.3844" y="83" width="20" height="18" rx="3" fill="#0969da" opacity="0.55"/><text x="162.3844" y="96" font-size="10" fill="#0969da" font-weight="700" font-family="system-ui,-apple-system,Segoe UI,Roboto,sans-serif">11.4%</text><text x="4" y="130" font-size="11" fill="#0969da" font-family="system-ui,-apple-system,Segoe UI,Roboto,sans-serif">TypeScript</text><rect x="137.3844" y="117" width="175.4356" height="18" rx="3" fill="#0969da" opacity="0.12"/><rect x="137.3844" y="117" width="9" height="18" rx="3" fill="#0969da" opacity="0.55"/><text x="151.3844" y="130" font-size="10" fill="#0969da" font-weight="700" font-family="system-ui,-apple-system,Segoe UI,Roboto,sans-serif">5.3%</text><text x="4" y="164" font-size="11" fill="#0969da" font-family="system-ui,-apple-system,Segoe UI,Roboto,sans-serif">Cython</text><rect x="137.3844" y="151" width="175.4356" height="18" rx="3" fill="#0969da" opacity="0.12"/><rect x="137.3844" y="151" width="2" height="18" rx="3" fill="#0969da" opacity="0.55"/><text x="144.3844" y="164" font-size="10" fill="#0969da" font-weight="700" font-family="system-ui,-apple-system,Segoe UI,Roboto,sans-serif">1.4%</text><text x="4" y="198" font-size="11" fill="#0969da" font-family="system-ui,-apple-system,Segoe UI,Roboto,sans-serif">PowerShell</text><rect x="137.3844" y="185" width="175.4356" height="18" rx="3" fill="#0969da" opacity="0.12"/><rect x="137.3844" y="185" width="2" height="18" rx="3" fill="#0969da" opacity="0.55"/><text x="144.3844" y="198" font-size="10" fill="#0969da" font-weight="700" font-family="system-ui,-apple-system,Segoe UI,Roboto,sans-serif">0.9%</text>
</g>
<rect x="337.82" y="3" width="144.35999999999999" height="264" rx="6" fill="#9a6700" opacity="0.15" stroke="#9a6700" stroke-width="1.5"/><path d="M343.82,3 h132.35999999999999 a6,6 0 0 1 6,6 v26 h-144.35999999999999 v-26 a6,6 0 0 1 6,-6 z" fill="#9a6700" opacity="0.1"/><line x1="337.82" y1="35" x2="482.17999999999995" y2="35" stroke="#9a6700" stroke-width="0.75" opacity="0.45"/><text x="345.82" y="19" font-size="12" fill="#9a6700" font-family="system-ui,-apple-system,Segoe UI,Roboto,sans-serif" font-weight="700">Tier &amp; Activity</text><text x="345.82" y="31" font-size="9" fill="#9a6700" opacity="0.95" font-weight="600" font-family="system-ui,-apple-system,Segoe UI,Roboto,sans-serif">Portfolio composition</text>
<text x="345.82" y="52" font-size="9" font-weight="700" fill="#9a6700" opacity="0.7" letter-spacing="0.6" font-family="system-ui,-apple-system,Segoe UI,Roboto,sans-serif">TIERS</text>
<g><text x="345.82" y="69" font-size="11">🏆</text><text x="365.82" y="69" font-size="11" fill="#9a6700" font-weight="600" font-family="system-ui,-apple-system,Segoe UI,Roboto,sans-serif">Flagship</text><text x="470.17999999999995" y="69" font-size="12" fill="#9a6700" font-weight="700" font-family="system-ui,-apple-system,Segoe UI,Roboto,sans-serif" text-anchor="end">21</text><text x="345.82" y="91" font-size="11">⭐</text><text x="365.82" y="91" font-size="11" fill="#9a6700" font-weight="600" font-family="system-ui,-apple-system,Segoe UI,Roboto,sans-serif">Notable</text><text x="470.17999999999995" y="91" font-size="12" fill="#9a6700" font-weight="700" font-family="system-ui,-apple-system,Segoe UI,Roboto,sans-serif" text-anchor="end">32</text><text x="345.82" y="113" font-size="11">🤖</text><text x="365.82" y="113" font-size="11" fill="#9a6700" font-weight="600" font-family="system-ui,-apple-system,Segoe UI,Roboto,sans-serif">Agents</text><text x="470.17999999999995" y="113" font-size="12" fill="#9a6700" font-weight="700" font-family="system-ui,-apple-system,Segoe UI,Roboto,sans-serif" text-anchor="end">65</text><text x="345.82" y="135" font-size="11">🪦</text><text x="365.82" y="135" font-size="11" fill="#9a6700" font-weight="600" font-family="system-ui,-apple-system,Segoe UI,Roboto,sans-serif">Archived</text><text x="470.17999999999995" y="135" font-size="12" fill="#9a6700" font-weight="700" font-family="system-ui,-apple-system,Segoe UI,Roboto,sans-serif" text-anchor="end">15</text></g>
<text x="345.82" y="162" font-size="9" font-weight="700" fill="#9a6700" opacity="0.7" letter-spacing="0.6" font-family="system-ui,-apple-system,Segoe UI,Roboto,sans-serif">ACTIVITY</text>
<g><text x="345.82" y="179" font-size="11">⭐</text><text x="365.82" y="179" font-size="11" fill="#9a6700" font-weight="600" font-family="system-ui,-apple-system,Segoe UI,Roboto,sans-serif">Stars</text><text x="470.17999999999995" y="179" font-size="12" fill="#9a6700" font-weight="700" font-family="system-ui,-apple-system,Segoe UI,Roboto,sans-serif" text-anchor="end">21</text><text x="345.82" y="201" font-size="11">🚀</text><text x="365.82" y="201" font-size="11" fill="#9a6700" font-weight="600" font-family="system-ui,-apple-system,Segoe UI,Roboto,sans-serif">Active &lt;30d</text><text x="470.17999999999995" y="201" font-size="12" fill="#9a6700" font-weight="700" font-family="system-ui,-apple-system,Segoe UI,Roboto,sans-serif" text-anchor="end">45</text><text x="345.82" y="223" font-size="11">📂</text><text x="365.82" y="223" font-size="11" fill="#9a6700" font-weight="600" font-family="system-ui,-apple-system,Segoe UI,Roboto,sans-serif">Public</text><text x="470.17999999999995" y="223" font-size="12" fill="#9a6700" font-weight="700" font-family="system-ui,-apple-system,Segoe UI,Roboto,sans-serif" text-anchor="end">33</text><text x="345.82" y="245" font-size="11">🔒</text><text x="365.82" y="245" font-size="11" fill="#9a6700" font-weight="600" font-family="system-ui,-apple-system,Segoe UI,Roboto,sans-serif">Private</text><text x="470.17999999999995" y="245" font-size="12" fill="#9a6700" font-weight="700" font-family="system-ui,-apple-system,Segoe UI,Roboto,sans-serif" text-anchor="end">37</text></g>
<rect x="488.17999999999995" y="3" width="328.82" height="264" rx="6" fill="#8250df" opacity="0.15" stroke="#8250df" stroke-width="1.5"/><path d="M494.17999999999995,3 h316.82 a6,6 0 0 1 6,6 v26 h-328.82 v-26 a6,6 0 0 1 6,-6 z" fill="#8250df" opacity="0.1"/><line x1="488.17999999999995" y1="35" x2="817" y2="35" stroke="#8250df" stroke-width="0.75" opacity="0.45"/><text x="496.17999999999995" y="19" font-size="12" fill="#8250df" font-family="system-ui,-apple-system,Segoe UI,Roboto,sans-serif" font-weight="700">Top Themes</text><text x="496.17999999999995" y="31" font-size="9" fill="#8250df" opacity="0.95" font-weight="600" font-family="system-ui,-apple-system,Segoe UI,Roboto,sans-serif">Topic clusters</text>
<g transform="translate(496.17999999999995, 41)">
<text x="4" y="28" font-size="11" fill="#8250df" font-family="system-ui,-apple-system,Segoe UI,Roboto,sans-serif">AI &amp; Copilot</text><rect x="137.3844" y="15" width="175.4356" height="18" rx="3" fill="#8250df" opacity="0.12"/><rect x="137.3844" y="15" width="110" height="18" rx="3" fill="#8250df" opacity="0.55"/><text x="252.3844" y="28" font-size="10" fill="#8250df" font-weight="700" font-family="system-ui,-apple-system,Segoe UI,Roboto,sans-serif">28</text><text x="4" y="56" font-size="11" fill="#8250df" font-family="system-ui,-apple-system,Segoe UI,Roboto,sans-serif">Cognitive<tspan x="4" dy="12">Architecture</tspan></text><rect x="137.3844" y="49" width="175.4356" height="18" rx="3" fill="#8250df" opacity="0.12"/><rect x="137.3844" y="49" width="86" height="18" rx="3" fill="#8250df" opacity="0.55"/><text x="228.3844" y="62" font-size="10" fill="#8250df" font-weight="700" font-family="system-ui,-apple-system,Segoe UI,Roboto,sans-serif">22</text><text x="4" y="96" font-size="11" fill="#8250df" font-family="system-ui,-apple-system,Segoe UI,Roboto,sans-serif">Developer Tools</text><rect x="137.3844" y="83" width="175.4356" height="18" rx="3" fill="#8250df" opacity="0.12"/><rect x="137.3844" y="83" width="78" height="18" rx="3" fill="#8250df" opacity="0.55"/><text x="220.3844" y="96" font-size="10" fill="#8250df" font-weight="700" font-family="system-ui,-apple-system,Segoe UI,Roboto,sans-serif">20</text><text x="4" y="130" font-size="11" fill="#8250df" font-family="system-ui,-apple-system,Segoe UI,Roboto,sans-serif">Learning &amp; Research</text><rect x="137.3844" y="117" width="175.4356" height="18" rx="3" fill="#8250df" opacity="0.12"/><rect x="137.3844" y="117" width="47" height="18" rx="3" fill="#8250df" opacity="0.55"/><text x="189.3844" y="130" font-size="10" fill="#8250df" font-weight="700" font-family="system-ui,-apple-system,Segoe UI,Roboto,sans-serif">12</text><text x="4" y="158" font-size="11" fill="#8250df" font-family="system-ui,-apple-system,Segoe UI,Roboto,sans-serif">Finance &amp;<tspan x="4" dy="12">Investment</tspan></text><rect x="137.3844" y="151" width="175.4356" height="18" rx="3" fill="#8250df" opacity="0.12"/><rect x="137.3844" y="151" width="31" height="18" rx="3" fill="#8250df" opacity="0.55"/><text x="173.3844" y="164" font-size="10" fill="#8250df" font-weight="700" font-family="system-ui,-apple-system,Segoe UI,Roboto,sans-serif">8</text><text x="4" y="198" font-size="11" fill="#8250df" font-family="system-ui,-apple-system,Segoe UI,Roboto,sans-serif">Cloud &amp; Azure</text><rect x="137.3844" y="185" width="175.4356" height="18" rx="3" fill="#8250df" opacity="0.12"/><rect x="137.3844" y="185" width="27" height="18" rx="3" fill="#8250df" opacity="0.55"/><text x="169.3844" y="198" font-size="10" fill="#8250df" font-weight="700" font-family="system-ui,-apple-system,Segoe UI,Roboto,sans-serif">7</text>
</g>
</g>
<text x="410" y="935" text-anchor="middle" font-family="Segoe UI, system-ui, sans-serif" font-size="13"><tspan font-weight="700" fill="#1f2328" >70</tspan><tspan fill="#64748b" dx="4">repositories across 10 categories</tspan><tspan fill="#64748b" dx="6">·</tspan><tspan font-weight="700" fill="#1f2328" dx="6">55</tspan><tspan fill="#64748b" dx="4">actively maintained</tspan><tspan fill="#64748b" dx="6">·</tspan><tspan font-weight="700" fill="#1f2328" dx="6">21</tspan><tspan fill="#64748b" dx="4">flagships</tspan></text>
</svg>