<svg xmlns="http://www.w3.org/2000/svg" viewBox="0 0 820 947" width="100%" preserveAspectRatio="xMidYMid meet" role="img" aria-label="Portfolio">
<title>Portfolio</title>
<g transform="translate(0, 0) scale(0.683333)">
<defs>
    <!-- Background gradient - deep space theme -->
    <linearGradient id="bgGrad" x1="0%" y1="0%" x2="100%" y2="100%">
      <stop offset="0%" stop-color="#020617"/>
      <stop offset="50%" stop-color="#0f172a"/>
      <stop offset="100%" stop-color="#1e293b"/>
    </linearGradient>

    <!-- Logo gradient with Azure blue -->
    <linearGradient id="logoGrad" x1="0%" y1="0%" x2="100%" y2="100%">
      <stop offset="0%" stop-color="#00bcf2"/>
      <stop offset="50%" stop-color="#0078d4"/>
      <stop offset="100%" stop-color="#005a9e"/>
    </linearGradient>

    <!-- Name gradient -->
    <linearGradient id="nameGrad" x1="0%" y1="0%" x2="100%" y2="0%">
      <stop offset="0%" stop-color="#f8fafc"/>
      <stop offset="50%" stop-color="#e2e8f0"/>
      <stop offset="100%" stop-color="#f8fafc"/>
    </linearGradient>

    <!-- Accent text gradient -->
    <linearGradient id="accentTextGrad" x1="0%" y1="0%" x2="100%" y2="0%">
      <stop offset="0%" stop-color="#00bcf2"/>
      <stop offset="50%" stop-color="#0078d4"/>
      <stop offset="100%" stop-color="#00bcf2"/>
    </linearGradient>

    <!-- Glow filter -->
    <filter id="glow" x="-50%" y="-50%" width="200%" height="200%">
      <feGaussianBlur stdDeviation="3" result="coloredBlur"/>
      <feMerge>
        <feMergeNode in="coloredBlur"/>
        <feMergeNode in="SourceGraphic"/>
      </feMerge>
    </filter>

    <!-- Strong glow for logo -->
    <filter id="logoGlow" x="-100%" y="-100%" width="300%" height="300%">
      <feGaussianBlur stdDeviation="6" result="blur1"/>
      <feGaussianBlur stdDeviation="12" result="blur2"/>
      <feMerge>
        <feMergeNode in="blur2"/>
        <feMergeNode in="blur1"/>
        <feMergeNode in="SourceGraphic"/>
      </feMerge>
    </filter>

    <!-- Radial glow behind logo -->
    <radialGradient id="logoBackGlow" cx="50%" cy="50%" r="50%">
      <stop offset="0%" stop-color="#0078d4" stop-opacity="0.4"/>
      <stop offset="50%" stop-color="#0078d4" stop-opacity="0.1"/>
      <stop offset="100%" stop-color="#0078d4" stop-opacity="0"/>
    </radialGradient>

    <!-- Grid pattern -->
    <pattern id="grid" width="50" height="50" patternUnits="userSpaceOnUse">
      <path d="M 50 0 L 0 0 0 50" fill="none" stroke="#1e3a5f" stroke-width="0.5" opacity="0.4"/>
    </pattern>

    <!-- Dot pattern -->
    <pattern id="dots" width="30" height="30" patternUnits="userSpaceOnUse">
      <circle cx="15" cy="15" r="1" fill="#0078d4" opacity="0.2"/>
    </pattern>

    <!-- Gradient for accent line -->
    <linearGradient id="accentGrad" x1="0%" y1="0%" x2="100%" y2="0%">
      <stop offset="0%" stop-color="#005a9e"/>
      <stop offset="25%" stop-color="#0078d4"/>
      <stop offset="50%" stop-color="#00bcf2"/>
      <stop offset="75%" stop-color="#0078d4"/>
      <stop offset="100%" stop-color="#005a9e"/>
    </linearGradient>

    <!-- Neural network gradient -->
    <linearGradient id="neuralGrad" x1="0%" y1="0%" x2="100%" y2="100%">
      <stop offset="0%" stop-color="#7c3aed"/>
      <stop offset="50%" stop-color="#0078d4"/>
      <stop offset="100%" stop-color="#00bcf2"/>
    </linearGradient>
  </defs>

  <!-- Background -->
  <rect width="1200" height="300" fill="url(#bgGrad)"/>

  <!-- Grid overlay -->
  <rect width="1200" height="300" fill="url(#grid)"/>

  <!-- Dot pattern overlay -->
  <rect width="1200" height="300" fill="url(#dots)" opacity="0.5"/>

  <!-- Large decorative orbs -->
  <circle cx="150" cy="150" r="180" fill="url(#logoBackGlow)"/>
  <circle cx="1050" cy="80" r="150" fill="#0078d4" opacity="0.05"/>
  <circle cx="1150" cy="280" r="180" fill="#00bcf2" opacity="0.03"/>
  <circle cx="50" cy="250" r="100" fill="#7c3aed" opacity="0.06"/>

  <!-- Neural network nodes - cognitive theme -->
  <g opacity="0.4">
    <!-- Left side neural cluster -->
    <circle cx="80" cy="60" r="4" fill="#7c3aed"/>
    <circle cx="120" cy="40" r="3" fill="#0078d4"/>
    <circle cx="60" cy="100" r="3" fill="#00bcf2"/>
    <circle cx="140" cy="90" r="2" fill="#7c3aed"/>
    <line x1="80" y1="60" x2="120" y2="40" stroke="#7c3aed" stroke-width="1"/>
    <line x1="80" y1="60" x2="60" y2="100" stroke="#0078d4" stroke-width="1"/>
    <line x1="120" y1="40" x2="140" y2="90" stroke="#00bcf2" stroke-width="0.5"/>

    <!-- Right side neural cluster -->
    <circle cx="1100" cy="70" r="3" fill="#00bcf2"/>
    <circle cx="1140" cy="50" r="2" fill="#0078d4"/>
    <circle cx="1080" cy="100" r="4" fill="#7c3aed"/>
    <circle cx="1120" cy="120" r="2" fill="#0078d4"/>
    <line x1="1100" y1="70" x2="1140" y2="50" stroke="#00bcf2" stroke-width="0.5"/>
    <line x1="1100" y1="70" x2="1080" y2="100" stroke="#7c3aed" stroke-width="1"/>
    <line x1="1080" y1="100" x2="1120" y2="120" stroke="#0078d4" stroke-width="0.5"/>
  </g>

  <!-- Floating particles -->
  <circle cx="300" cy="30" r="1.5" fill="#0078d4" opacity="0.5"/>
  <circle cx="500" cy="50" r="2" fill="#00bcf2" opacity="0.4"/>
  <circle cx="750" cy="25" r="1" fill="#7c3aed" opacity="0.6"/>
  <circle cx="950" cy="45" r="2.5" fill="#00bcf2" opacity="0.3"/>
  <circle cx="400" cy="270" r="2" fill="#00bcf2" opacity="0.4"/>
  <circle cx="700" cy="260" r="1.5" fill="#0078d4" opacity="0.5"/>
  <circle cx="900" cy="275" r="2" fill="#7c3aed" opacity="0.3"/>
  <circle cx="1050" cy="250" r="1" fill="#0078d4" opacity="0.6"/>

  <!-- Logo glow backdrop -->
  <ellipse cx="150" cy="150" rx="120" ry="110" fill="url(#logoBackGlow)"/>

  <!-- Logo mark (scaled) with glow -->
  <g transform="translate(55, 58) scale(6)" filter="url(#logoGlow)">
    <path d="M16 2C8.268 2 2 8.268 2 16s6.268 14 14 14c3.866 0 7.389-1.568 9.928-4.1l-3.535-3.536A9.002 9.002 0 0116 25c-4.97 0-9-4.03-9-9s4.03-9 9-9c2.29 0 4.38.857 5.971 2.268l3.464-3.639C22.993 3.352 19.66 2 16 2z" fill="url(#logoGrad)"/>
    <path d="M20 10l-4 6 4 6h4l-4-6 4-6h-4z" fill="url(#logoGrad)"/>
    <path d="M24 10l4 6-4 6h4l4-6-4-6h-4z" fill="url(#logoGrad)" opacity="0.6"/>
  </g>

  <text x="320" y="54" font-family="Segoe UI, system-ui, sans-serif" font-size="13" font-weight="600" fill="#94a3b8" letter-spacing="3">AUTOMATIC REPOSITORY PORTFOLIO FOR</text>
  <!-- Main name -->
  <text x="320" y="135" font-family="Segoe UI, system-ui, sans-serif" font-size="74" font-weight="700" fill="url(#nameGrad)" filter="url(#glow)">Dr. Fabio Correa, DBA</text>

  <!-- Title line -->
  <text x="320" y="180" font-family="Segoe UI, system-ui, sans-serif" font-size="22" fill="#94a3b8" letter-spacing="1" textLength="800" lengthAdjust="spacingAndGlyphs">Building AI-powered cognitive architectures for human-AI collaboration and organizational intelligence.</text>

  <!-- Tagline with accent -->
  <text x="320" y="220" font-family="Segoe UI, system-ui, sans-serif" font-size="18" fill="url(#accentTextGrad)" letter-spacing="1.5">THINK • BUILD • DEPLOY</text>

  <!-- Decorative accent line -->
  <line x1="320" y1="240" x2="850" y2="240" stroke="#334155" stroke-width="1"/>
  <line x1="320" y1="243" x2="600" y2="243" stroke="url(#accentGrad)" stroke-width="2" opacity="0.6"/>

  <!-- CorreaX branding badge -->
  <g transform="translate(320, 255)" font-family="Segoe UI, system-ui, sans-serif" font-size="12" fill="#94a3b8"><text letter-spacing="1">UPDATED</text><text x="70" font-weight="700">Apr 25 2026 18:23 EDT</text></g>

  <!-- Tech circuit decorations on right -->
  <g opacity="0.25">
    <path d="M1000 140 h80 v40 h40" stroke="#0078d4" stroke-width="1.5" fill="none"/>
    <circle cx="1000" cy="140" r="3" fill="#0078d4"/>
    <circle cx="1120" cy="180" r="4" fill="#00bcf2"/>
    <path d="M1020 200 h60 v-25 h30" stroke="#7c3aed" stroke-width="1" fill="none"/>
    <circle cx="1020" cy="200" r="2" fill="#7c3aed"/>
    <path d="M980 100 h50 l20 20 h40" stroke="#00bcf2" stroke-width="1" fill="none"/>
    <circle cx="980" cy="100" r="2" fill="#00bcf2"/>
  </g>

  <!-- Bottom accent bar with glow -->
  <rect x="0" y="290" width="1200" height="10" fill="url(#accentGrad)" filter="url(#glow)"/>
</g>
<g transform="translate(0, 217)">
<rect width="820" height="416" fill="none"/>
  <rect x="3" y="3" width="230.0606060606061" height="202" rx="6" fill="#57606a" opacity="0.15" stroke="#57606a" stroke-width="1.5"/><path d="M9,3 h218.0606060606061 a6,6 0 0 1 6,6 v16 h-230.0606060606061 v-16 a6,6 0 0 1 6,-6 z" fill="#57606a" opacity="0.1"/><line x1="3" y1="25" x2="233.0606060606061" y2="25" stroke="#57606a" stroke-width="0.75" opacity="0.45"/><text x="11" y="19" font-size="12" fill="#57606a" font-family="system-ui,-apple-system,Segoe UI,Roboto,sans-serif" font-weight="700">Other</text>
  <rect x="4" y="27" width="39.12922668494574" height="176" rx="3" fill="#57606a" opacity="0.31"/>
  <text x="23.56461334247287" y="115" text-anchor="middle" dominant-baseline="central" font-size="16" fill="#57606a" font-family="system-ui,sans-serif" font-weight="400" transform="rotate(-90,23.56461334247287,115)">python</text>
  <rect x="44.12922668494574" y="27" width="31.948879802604147" height="176" rx="3" fill="#57606a" opacity="0.28"/>
  <text x="60.10366658624781" y="115" text-anchor="middle" dominant-baseline="central" font-size="16" fill="#57606a" font-family="system-ui,sans-serif" font-weight="400" transform="rotate(-90,60.10366658624781,115)">skills</text>
  <rect x="77.07810648754989" y="27" width="31.948879802604147" height="176" rx="3" fill="#57606a" opacity="0.28"/>
  <text x="93.05254638885197" y="115" text-anchor="middle" dominant-baseline="central" font-size="16" fill="#57606a" font-family="system-ui,sans-serif" font-weight="400" transform="rotate(-90,93.05254638885197,115)">qualtrics</text>
  <rect x="110.02698629015404" y="27" width="27.668541531510748" height="176" rx="3" fill="#57606a" opacity="0.27"/>
  <text x="123.86125705590942" y="115" text-anchor="middle" dominant-baseline="central" font-size="16" fill="#57606a" font-family="system-ui,sans-serif" font-weight="400" transform="rotate(-90,123.86125705590942,115)">dashboard</text>
  <rect x="138.6955278216648" y="27" width="22.591269559735316" height="176" rx="3" fill="#57606a" opacity="0.25"/>
  <text x="149.99116260153247" y="115" text-anchor="middle" dominant-baseline="central" font-size="16" fill="#57606a" font-family="system-ui,sans-serif" font-weight="400" transform="rotate(-90,149.99116260153247,115)">openai</text>
  <rect x="162.2867973814001" y="27" width="22.591269559735316" height="176" rx="3" fill="#57606a" opacity="0.25"/>
  <text x="173.58243216126777" y="115" text-anchor="middle" dominant-baseline="central" font-size="16" fill="#57606a" font-family="system-ui,sans-serif" font-weight="400" transform="rotate(-90,173.58243216126777,115)">portfolio</text>
  <rect x="185.87806694113542" y="27" width="22.591269559735316" height="176" rx="3" fill="#57606a" opacity="0.25"/>
  <text x="197.17370172100308" y="115" text-anchor="middle" dominant-baseline="central" font-size="16" fill="#57606a" font-family="system-ui,sans-serif" font-weight="400" transform="rotate(-90,197.17370172100308,115)">template</text>
  <rect x="209.46933650087072" y="27" width="22.591269559735366" height="176" rx="3" fill="#57606a" opacity="0.25"/>
  <text x="220.7649712807384" y="115" text-anchor="middle" dominant-baseline="central" font-size="16" fill="#57606a" font-family="system-ui,sans-serif" font-weight="400" transform="rotate(-90,220.7649712807384,115)">jupyter notebook</text>
  <rect x="239.0606060606061" y="3" width="159.65656565656565" height="202" rx="6" fill="#4e79a7" opacity="0.15" stroke="#4e79a7" stroke-width="1.5"/><path d="M245.0606060606061,3 h147.65656565656565 a6,6 0 0 1 6,6 v16 h-159.65656565656565 v-16 a6,6 0 0 1 6,-6 z" fill="#4e79a7" opacity="0.1"/><line x1="239.0606060606061" y1="25" x2="398.7171717171717" y2="25" stroke="#4e79a7" stroke-width="0.75" opacity="0.45"/><text x="247.0606060606061" y="19" font-size="12" fill="#4e79a7" font-family="system-ui,-apple-system,Segoe UI,Roboto,sans-serif" font-weight="700">AI &amp; Copilot</text>
  <rect x="240.0606060606061" y="27" width="26.114997539371554" height="176" rx="3" fill="#4e79a7" opacity="0.34"/>
  <text x="253.11810483029186" y="115" text-anchor="middle" dominant-baseline="central" font-size="16" fill="#4e79a7" font-family="system-ui,sans-serif" font-weight="600" transform="rotate(-90,253.11810483029186,115)">github copilot</text>
  <rect x="267.17560359997765" y="27" width="26.114997539371554" height="176" rx="3" fill="#4e79a7" opacity="0.34"/>
  <text x="280.2331023696634" y="115" text-anchor="middle" dominant-baseline="central" font-size="16" fill="#4e79a7" font-family="system-ui,sans-serif" font-weight="600" transform="rotate(-90,280.2331023696634,115)">ai</text>
  <rect x="294.2906011393492" y="27" width="22.616251288863864" height="176" rx="3" fill="#4e79a7" opacity="0.31"/>
  <text x="305.5987267837811" y="115" text-anchor="middle" dominant-baseline="central" font-size="16" fill="#4e79a7" font-family="system-ui,sans-serif" font-weight="400" transform="rotate(-90,305.5987267837811,115)">ai assistant</text>
  <rect x="317.906852428213" y="27" width="20.645718328526712" height="176" rx="3" fill="#4e79a7" opacity="0.30"/>
  <text x="328.2297115924764" y="115" text-anchor="middle" dominant-baseline="central" font-size="15" fill="#4e79a7" font-family="system-ui,sans-serif" font-weight="400" transform="rotate(-90,328.2297115924764,115)">copilot</text>
  <rect x="339.5525707567397" y="27" width="15.992104651374635" height="176" rx="3" fill="#4e79a7" opacity="0.27"/>
  <text x="347.54862308242707" y="115" text-anchor="middle" dominant-baseline="central" font-size="11" fill="#4e79a7" font-family="system-ui,sans-serif" font-weight="400" transform="rotate(-90,347.54862308242707,115)">ai adoption</text>
  <rect x="356.54467540811436" y="27" width="13.057498769685777" height="176" rx="3" fill="#4e79a7" opacity="0.25"/>
  <text x="363.07342479295727" y="115" text-anchor="middle" dominant-baseline="central" font-size="9" fill="#4e79a7" font-family="system-ui,sans-serif" font-weight="400" transform="rotate(-90,363.07342479295727,115)">ai research</text>
  <rect x="370.6021741778001" y="27" width="13.057498769685777" height="176" rx="3" fill="#4e79a7" opacity="0.25"/>
  <text x="377.13092356264303" y="115" text-anchor="middle" dominant-baseline="central" font-size="9" fill="#4e79a7" font-family="system-ui,sans-serif" font-weight="400" transform="rotate(-90,377.13092356264303,115)">copilot extensions</text>
  <rect x="384.6596729474859" y="27" width="13.057498769685822" height="176" rx="3" fill="#4e79a7" opacity="0.25"/>
  <text x="391.1884223323288" y="115" text-anchor="middle" dominant-baseline="central" font-size="9" fill="#4e79a7" font-family="system-ui,sans-serif" font-weight="400" transform="rotate(-90,391.1884223323288,115)">ai agents</text>
  <rect x="404.7171717171717" y="3" width="151.37373737373736" height="202" rx="6" fill="#59a14f" opacity="0.15" stroke="#59a14f" stroke-width="1.5"/><path d="M410.7171717171717,3 h139.37373737373736 a6,6 0 0 1 6,6 v16 h-151.37373737373736 v-16 a6,6 0 0 1 6,-6 z" fill="#59a14f" opacity="0.1"/><line x1="404.7171717171717" y1="25" x2="556.090909090909" y2="25" stroke="#59a14f" stroke-width="0.75" opacity="0.45"/><text x="412.7171717171717" y="19" font-size="12" fill="#59a14f" font-family="system-ui,-apple-system,Segoe UI,Roboto,sans-serif" font-weight="700">Developer Tools</text>
  <rect x="405.7171717171717" y="27" width="28.41185753470158" height="176" rx="3" fill="#59a14f" opacity="0.37"/>
  <text x="419.9231004845225" y="115" text-anchor="middle" dominant-baseline="central" font-size="16" fill="#59a14f" font-family="system-ui,sans-serif" font-weight="600" transform="rotate(-90,419.9231004845225,115)">typescript</text>
  <rect x="435.1290292518733" y="27" width="23.771065478865793" height="176" rx="3" fill="#59a14f" opacity="0.33"/>
  <text x="447.0145619913062" y="115" text-anchor="middle" dominant-baseline="central" font-size="16" fill="#59a14f" font-family="system-ui,sans-serif" font-weight="400" transform="rotate(-90,447.0145619913062,115)">vscode</text>
  <rect x="459.9000947307391" y="27" width="22.007730213343383" height="176" rx="3" fill="#59a14f" opacity="0.31"/>
  <text x="470.9039598374108" y="115" text-anchor="middle" dominant-baseline="central" font-size="16" fill="#59a14f" font-family="system-ui,sans-serif" font-weight="400" transform="rotate(-90,470.9039598374108,115)">vscode extension</text>
  <rect x="482.9078249440825" y="27" width="20.09021712889359" height="176" rx="3" fill="#59a14f" opacity="0.30"/>
  <text x="492.9529335085293" y="115" text-anchor="middle" dominant-baseline="central" font-size="15" fill="#59a14f" font-family="system-ui,sans-serif" font-weight="400" transform="rotate(-90,492.9529335085293,115)">react</text>
  <rect x="503.9980420729761" y="27" width="17.96923647317469" height="176" rx="3" fill="#59a14f" opacity="0.28"/>
  <text x="512.9826603095635" y="115" text-anchor="middle" dominant-baseline="central" font-size="13" fill="#59a14f" font-family="system-ui,sans-serif" font-weight="400" transform="rotate(-90,512.9826603095635,115)">developer tools</text>
  <rect x="522.9672785461507" y="27" width="15.56181527237917" height="176" rx="3" fill="#59a14f" opacity="0.27"/>
  <text x="530.7481861823403" y="115" text-anchor="middle" dominant-baseline="central" font-size="11" fill="#59a14f" font-family="system-ui,sans-serif" font-weight="400" transform="rotate(-90,530.7481861823403,115)">javascript</text>
  <rect x="539.5290938185299" y="27" width="15.561815272379135" height="176" rx="3" fill="#59a14f" opacity="0.27"/>
  <text x="547.3100014547194" y="115" text-anchor="middle" dominant-baseline="central" font-size="11" fill="#59a14f" font-family="system-ui,sans-serif" font-weight="400" transform="rotate(-90,547.3100014547194,115)">nodejs</text>
  <rect x="562.090909090909" y="3" width="126.52525252525254" height="202" rx="6" fill="#f28e2b" opacity="0.15" stroke="#f28e2b" stroke-width="1.5"/><path d="M568.090909090909,3 h114.52525252525254 a6,6 0 0 1 6,6 v16 h-126.52525252525254 v-16 a6,6 0 0 1 6,-6 z" fill="#f28e2b" opacity="0.1"/><line x1="562.090909090909" y1="25" x2="688.6161616161615" y2="25" stroke="#f28e2b" stroke-width="0.75" opacity="0.45"/><text x="570.090909090909" y="19" font-size="12" fill="#f28e2b" font-family="system-ui,-apple-system,Segoe UI,Roboto,sans-serif" font-weight="700">Cognitive Archit…</text>
  <rect x="563.090909090909" y="27" width="28.259999212007983" height="176" rx="3" fill="#f28e2b" opacity="0.42"/>
  <text x="577.220908696913" y="115" text-anchor="middle" dominant-baseline="central" font-size="13" fill="#f28e2b" font-family="system-ui,sans-serif" font-weight="600" transform="rotate(-90,577.220908696913,115)">cognitive architecture</text>
  <rect x="592.350908302917" y="27" width="15.67582710822565" height="176" rx="3" fill="#f28e2b" opacity="0.28"/>
  <text x="600.1888218570298" y="115" text-anchor="middle" dominant-baseline="central" font-size="11" fill="#f28e2b" font-family="system-ui,sans-serif" font-weight="400" transform="rotate(-90,600.1888218570298,115)">human ai collaboration</text>
  <rect x="609.0267354111427" y="27" width="15.67582710822565" height="176" rx="3" fill="#f28e2b" opacity="0.28"/>
  <text x="616.8646489652555" y="115" text-anchor="middle" dominant-baseline="central" font-size="11" fill="#f28e2b" font-family="system-ui,sans-serif" font-weight="400" transform="rotate(-90,616.8646489652555,115)">meta cognition</text>
  <rect x="625.7025625193684" y="27" width="13.575664501056169" height="176" rx="3" fill="#f28e2b" opacity="0.27"/>
  <text x="632.4903947698965" y="115" text-anchor="middle" dominant-baseline="central" font-size="10" fill="#f28e2b" font-family="system-ui,sans-serif" font-weight="400" transform="rotate(-90,632.4903947698965,115)">model context protocol</text>
  <rect x="640.2782270204245" y="27" width="11.084483648934267" height="176" rx="3" fill="#f28e2b" opacity="0.25"/>
  <text x="645.8204688448917" y="115" text-anchor="middle" dominant-baseline="central" font-size="8" fill="#f28e2b" font-family="system-ui,sans-serif" font-weight="400" transform="rotate(-90,645.8204688448917,115)">neuroscience</text>
  <rect x="652.3627106693588" y="27" width="11.084483648934267" height="176" rx="3" fill="#f28e2b" opacity="0.25"/>
  <text x="657.9049524938259" y="115" text-anchor="middle" dominant-baseline="central" font-size="8" fill="#f28e2b" font-family="system-ui,sans-serif" font-weight="400" transform="rotate(-90,657.9049524938259,115)">anthropic</text>
  <rect x="664.447194318293" y="27" width="11.084483648934267" height="176" rx="3" fill="#f28e2b" opacity="0.25"/>
  <text x="669.9894361427602" y="115" text-anchor="middle" dominant-baseline="central" font-size="8" fill="#f28e2b" font-family="system-ui,sans-serif" font-weight="400" transform="rotate(-90,669.9894361427602,115)">llm</text>
  <rect x="676.5316779672272" y="27" width="11.084483648934338" height="176" rx="3" fill="#f28e2b" opacity="0.25"/>
  <text x="682.0739197916944" y="115" text-anchor="middle" dominant-baseline="central" font-size="8" fill="#f28e2b" font-family="system-ui,sans-serif" font-weight="400" transform="rotate(-90,682.0739197916944,115)">memory systems</text>
  <rect x="694.6161616161615" y="3" width="122.38383838383845" height="202" rx="6" fill="#e15759" opacity="0.15" stroke="#e15759" stroke-width="1.5"/><path d="M700.6161616161615,3 h110.38383838383845 a6,6 0 0 1 6,6 v16 h-122.38383838383845 v-16 a6,6 0 0 1 6,-6 z" fill="#e15759" opacity="0.1"/><line x1="694.6161616161615" y1="25" x2="817" y2="25" stroke="#e15759" stroke-width="0.75" opacity="0.45"/><text x="702.6161616161615" y="19" font-size="12" fill="#e15759" font-family="system-ui,-apple-system,Segoe UI,Roboto,sans-serif" font-weight="700">Cloud &amp; Azure</text>
  <rect x="695.6161616161615" y="27" width="32.50324703596968" height="176" rx="3" fill="#e15759" opacity="0.45"/>
  <text x="711.8677851341464" y="115" text-anchor="middle" dominant-baseline="central" font-size="16" fill="#e15759" font-family="system-ui,sans-serif" font-weight="600" transform="rotate(-90,711.8677851341464,115)">azure</text>
  <rect x="729.1194086521313" y="27" width="14.535893972379352" height="176" rx="3" fill="#e15759" opacity="0.27"/>
  <text x="736.387355638321" y="115" text-anchor="middle" dominant-baseline="central" font-size="10" fill="#e15759" font-family="system-ui,sans-serif" font-weight="400" transform="rotate(-90,736.387355638321,115)">azure openai</text>
  <rect x="744.6553026245106" y="27" width="14.535893972379352" height="176" rx="3" fill="#e15759" opacity="0.27"/>
  <text x="751.9232496107003" y="115" text-anchor="middle" dominant-baseline="central" font-size="10" fill="#e15759" font-family="system-ui,sans-serif" font-weight="400" transform="rotate(-90,751.9232496107003,115)">azure functions</text>
  <rect x="760.1911965968899" y="27" width="14.535893972379352" height="176" rx="3" fill="#e15759" opacity="0.27"/>
  <text x="767.4591435830796" y="115" text-anchor="middle" dominant-baseline="central" font-size="10" fill="#e15759" font-family="system-ui,sans-serif" font-weight="400" transform="rotate(-90,767.4591435830796,115)">azure static web apps</text>
  <rect x="775.7270905692692" y="27" width="14.535893972379352" height="176" rx="3" fill="#e15759" opacity="0.27"/>
  <text x="782.9950375554589" y="115" text-anchor="middle" dominant-baseline="central" font-size="10" fill="#e15759" font-family="system-ui,sans-serif" font-weight="400" transform="rotate(-90,782.9950375554589,115)">dotnet</text>
  <rect x="791.2629845416485" y="27" width="11.868507729175683" height="176" rx="3" fill="#e15759" opacity="0.25"/>
  <text x="797.1972384062364" y="115" text-anchor="middle" dominant-baseline="central" font-size="8" fill="#e15759" font-family="system-ui,sans-serif" font-weight="400" transform="rotate(-90,797.1972384062364,115)">infrastructure management</text>
  <rect x="804.1314922708242" y="27" width="11.868507729175803" height="176" rx="3" fill="#e15759" opacity="0.25"/>
  <text x="810.0657461354122" y="115" text-anchor="middle" dominant-baseline="central" font-size="8" fill="#e15759" font-family="system-ui,sans-serif" font-weight="400" transform="rotate(-90,810.0657461354122,115)">sfi</text>
  <rect x="3" y="211" width="241.3015873015873" height="202" rx="6" fill="#76b7b2" opacity="0.15" stroke="#76b7b2" stroke-width="1.5"/><path d="M9,211 h229.3015873015873 a6,6 0 0 1 6,6 v16 h-241.3015873015873 v-16 a6,6 0 0 1 6,-6 z" fill="#76b7b2" opacity="0.1"/><line x1="3" y1="233" x2="244.3015873015873" y2="233" stroke="#76b7b2" stroke-width="0.75" opacity="0.45"/><text x="11" y="227" font-size="12" fill="#76b7b2" font-family="system-ui,-apple-system,Segoe UI,Roboto,sans-serif" font-weight="700">Learning &amp; Research</text>
  <rect x="4" y="235" width="32.79945612709389" height="176" rx="3" fill="#76b7b2" opacity="0.27"/>
  <text x="20.399728063546945" y="323" text-anchor="middle" dominant-baseline="central" font-size="16" fill="#76b7b2" font-family="system-ui,sans-serif" font-weight="400" transform="rotate(-90,20.399728063546945,323)">academic research</text>
  <rect x="37.79945612709389" y="235" width="32.79945612709389" height="176" rx="3" fill="#76b7b2" opacity="0.27"/>
  <text x="54.199184190640835" y="323" text-anchor="middle" dominant-baseline="central" font-size="16" fill="#76b7b2" font-family="system-ui,sans-serif" font-weight="400" transform="rotate(-90,54.199184190640835,323)">cognitive science</text>
  <rect x="71.59891225418778" y="235" width="32.79945612709389" height="176" rx="3" fill="#76b7b2" opacity="0.27"/>
  <text x="87.99864031773473" y="323" text-anchor="middle" dominant-baseline="central" font-size="16" fill="#76b7b2" font-family="system-ui,sans-serif" font-weight="400" transform="rotate(-90,87.99864031773473,323)">prompt engineering</text>
  <rect x="105.39836838128167" y="235" width="26.78064378406112" height="176" rx="3" fill="#76b7b2" opacity="0.25"/>
  <text x="118.78869027331223" y="323" text-anchor="middle" dominant-baseline="central" font-size="16" fill="#76b7b2" font-family="system-ui,sans-serif" font-weight="400" transform="rotate(-90,118.78869027331223,323)">utaut2</text>
  <rect x="133.17901216534278" y="235" width="26.78064378406112" height="176" rx="3" fill="#76b7b2" opacity="0.25"/>
  <text x="146.56933405737334" y="323" text-anchor="middle" dominant-baseline="central" font-size="16" fill="#76b7b2" font-family="system-ui,sans-serif" font-weight="400" transform="rotate(-90,146.56933405737334,323)">flashcards</text>
  <rect x="160.9596559494039" y="235" width="26.78064378406112" height="176" rx="3" fill="#76b7b2" opacity="0.25"/>
  <text x="174.34997784143445" y="323" text-anchor="middle" dominant-baseline="central" font-size="16" fill="#76b7b2" font-family="system-ui,sans-serif" font-weight="400" transform="rotate(-90,174.34997784143445,323)">learning</text>
  <rect x="188.740299733465" y="235" width="26.78064378406112" height="176" rx="3" fill="#76b7b2" opacity="0.25"/>
  <text x="202.13062162549556" y="323" text-anchor="middle" dominant-baseline="central" font-size="16" fill="#76b7b2" font-family="system-ui,sans-serif" font-weight="400" transform="rotate(-90,202.13062162549556,323)">meta learning</text>
  <rect x="216.52094351752612" y="235" width="26.78064378406117" height="176" rx="3" fill="#76b7b2" opacity="0.25"/>
  <text x="229.9112654095567" y="323" text-anchor="middle" dominant-baseline="central" font-size="16" fill="#76b7b2" font-family="system-ui,sans-serif" font-weight="400" transform="rotate(-90,229.9112654095567,323)">tutorial</text>
  <rect x="250.3015873015873" y="211" width="228.28571428571428" height="202" rx="6" fill="#ff9da7" opacity="0.15" stroke="#ff9da7" stroke-width="1.5"/><path d="M256.3015873015873,211 h216.28571428571428 a6,6 0 0 1 6,6 v16 h-228.28571428571428 v-16 a6,6 0 0 1 6,-6 z" fill="#ff9da7" opacity="0.1"/><line x1="250.3015873015873" y1="233" x2="478.58730158730157" y2="233" stroke="#ff9da7" stroke-width="0.75" opacity="0.45"/><text x="258.3015873015873" y="227" font-size="12" fill="#ff9da7" font-family="system-ui,-apple-system,Segoe UI,Roboto,sans-serif" font-weight="700">Productivity &amp; Automation</text>
  <rect x="251.3015873015873" y="235" width="27.41071428571428" height="176" rx="3" fill="#ff9da7" opacity="0.25"/>
  <text x="265.00694444444446" y="323" text-anchor="middle" dominant-baseline="central" font-size="16" fill="#ff9da7" font-family="system-ui,sans-serif" font-weight="400" transform="rotate(-90,265.00694444444446,323)">better together</text>
  <rect x="279.71230158730157" y="235" width="27.41071428571428" height="176" rx="3" fill="#ff9da7" opacity="0.25"/>
  <text x="293.41765873015873" y="323" text-anchor="middle" dominant-baseline="central" font-size="16" fill="#ff9da7" font-family="system-ui,sans-serif" font-weight="400" transform="rotate(-90,293.41765873015873,323)">dual platform</text>
  <rect x="308.12301587301585" y="235" width="27.41071428571428" height="176" rx="3" fill="#ff9da7" opacity="0.25"/>
  <text x="321.828373015873" y="323" text-anchor="middle" dominant-baseline="central" font-size="16" fill="#ff9da7" font-family="system-ui,sans-serif" font-weight="400" transform="rotate(-90,321.828373015873,323)">homebrew</text>
  <rect x="336.5337301587301" y="235" width="27.41071428571428" height="176" rx="3" fill="#ff9da7" opacity="0.25"/>
  <text x="350.2390873015873" y="323" text-anchor="middle" dominant-baseline="central" font-size="16" fill="#ff9da7" font-family="system-ui,sans-serif" font-weight="400" transform="rotate(-90,350.2390873015873,323)">macbook</text>
  <rect x="364.9444444444444" y="235" width="27.41071428571428" height="176" rx="3" fill="#ff9da7" opacity="0.25"/>
  <text x="378.64980158730157" y="323" text-anchor="middle" dominant-baseline="central" font-size="16" fill="#ff9da7" font-family="system-ui,sans-serif" font-weight="400" transform="rotate(-90,378.64980158730157,323)">macos</text>
  <rect x="393.3551587301587" y="235" width="27.41071428571428" height="176" rx="3" fill="#ff9da7" opacity="0.25"/>
  <text x="407.06051587301585" y="323" text-anchor="middle" dominant-baseline="central" font-size="16" fill="#ff9da7" font-family="system-ui,sans-serif" font-weight="400" transform="rotate(-90,407.06051587301585,323)">power user</text>
  <rect x="421.76587301587296" y="235" width="27.41071428571428" height="176" rx="3" fill="#ff9da7" opacity="0.25"/>
  <text x="435.4712301587301" y="323" text-anchor="middle" dominant-baseline="central" font-size="16" fill="#ff9da7" font-family="system-ui,sans-serif" font-weight="400" transform="rotate(-90,435.4712301587301,323)">setup guide</text>
  <rect x="450.17658730158723" y="235" width="27.410714285714334" height="176" rx="3" fill="#ff9da7" opacity="0.25"/>
  <text x="463.8819444444444" y="323" text-anchor="middle" dominant-baseline="central" font-size="16" fill="#ff9da7" font-family="system-ui,sans-serif" font-weight="400" transform="rotate(-90,463.8819444444444,323)">automation</text>
  <rect x="484.58730158730157" y="211" width="202.25396825396825" height="202" rx="6" fill="#edc948" opacity="0.15" stroke="#edc948" stroke-width="1.5"/><path d="M490.58730158730157,211 h190.25396825396825 a6,6 0 0 1 6,6 v16 h-202.25396825396825 v-16 a6,6 0 0 1 6,-6 z" fill="#edc948" opacity="0.1"/><line x1="484.58730158730157" y1="233" x2="686.8412698412699" y2="233" stroke="#edc948" stroke-width="0.75" opacity="0.45"/><text x="492.58730158730157" y="227" font-size="12" fill="#edc948" font-family="system-ui,-apple-system,Segoe UI,Roboto,sans-serif" font-weight="700">Microsoft Ecosystem</text>
  <rect x="485.58730158730157" y="235" width="49.88744654652693" height="176" rx="3" fill="#edc948" opacity="0.30"/>
  <text x="510.531024860565" y="323" text-anchor="middle" dominant-baseline="central" font-size="16" fill="#edc948" font-family="system-ui,sans-serif" font-weight="400" transform="rotate(-90,510.531024860565,323)">microsoft</text>
  <rect x="536.4747481338285" y="235" width="44.62068868076854" height="176" rx="3" fill="#edc948" opacity="0.28"/>
  <text x="558.7850924742128" y="323" text-anchor="middle" dominant-baseline="central" font-size="16" fill="#edc948" font-family="system-ui,sans-serif" font-weight="400" transform="rotate(-90,558.7850924742128,323)">mcp</text>
  <rect x="582.0954368145971" y="235" width="38.6426499319023" height="176" rx="3" fill="#edc948" opacity="0.27"/>
  <text x="601.4167617805482" y="323" text-anchor="middle" dominant-baseline="central" font-size="16" fill="#edc948" font-family="system-ui,sans-serif" font-weight="400" transform="rotate(-90,601.4167617805482,323)">msal</text>
  <rect x="621.7380867464993" y="235" width="31.551591547385257" height="176" rx="3" fill="#edc948" opacity="0.25"/>
  <text x="637.5138825201919" y="323" text-anchor="middle" dominant-baseline="central" font-size="16" fill="#edc948" font-family="system-ui,sans-serif" font-weight="400" transform="rotate(-90,637.5138825201919,323)">microsoft internal</text>
  <rect x="654.2896782938845" y="235" width="31.55159154738533" height="176" rx="3" fill="#edc948" opacity="0.25"/>
  <text x="670.0654740675773" y="323" text-anchor="middle" dominant-baseline="central" font-size="16" fill="#edc948" font-family="system-ui,sans-serif" font-weight="400" transform="rotate(-90,670.0654740675773,323)">microsoft fabric</text>
  <rect x="692.8412698412699" y="211" width="124.15873015873012" height="202" rx="6" fill="#b07aa1" opacity="0.15" stroke="#b07aa1" stroke-width="1.5"/><path d="M698.8412698412699,211 h112.15873015873012 a6,6 0 0 1 6,6 v16 h-124.15873015873012 v-16 a6,6 0 0 1 6,-6 z" fill="#b07aa1" opacity="0.1"/><line x1="692.8412698412699" y1="233" x2="817" y2="233" stroke="#b07aa1" stroke-width="0.75" opacity="0.45"/><text x="700.8412698412699" y="227" font-size="12" fill="#b07aa1" font-family="system-ui,-apple-system,Segoe UI,Roboto,sans-serif" font-weight="700">Data Engineering</text>
  <rect x="693.8412698412699" y="235" width="23.631746031746026" height="176" rx="3" fill="#b07aa1" opacity="0.25"/>
  <text x="705.6571428571428" y="323" text-anchor="middle" dominant-baseline="central" font-size="16" fill="#b07aa1" font-family="system-ui,sans-serif" font-weight="400" transform="rotate(-90,705.6571428571428,323)">data visualization</text>
  <rect x="718.4730158730159" y="235" width="23.631746031746026" height="176" rx="3" fill="#b07aa1" opacity="0.25"/>
  <text x="730.2888888888889" y="323" text-anchor="middle" dominant-baseline="central" font-size="16" fill="#b07aa1" font-family="system-ui,sans-serif" font-weight="400" transform="rotate(-90,730.2888888888889,323)">survey analytics</text>
  <rect x="743.104761904762" y="235" width="23.631746031746026" height="176" rx="3" fill="#b07aa1" opacity="0.25"/>
  <text x="754.9206349206349" y="323" text-anchor="middle" dominant-baseline="central" font-size="16" fill="#b07aa1" font-family="system-ui,sans-serif" font-weight="400" transform="rotate(-90,754.9206349206349,323)">data engineering</text>
  <rect x="767.736507936508" y="235" width="23.631746031746026" height="176" rx="3" fill="#b07aa1" opacity="0.25"/>
  <text x="779.552380952381" y="323" text-anchor="middle" dominant-baseline="central" font-size="16" fill="#b07aa1" font-family="system-ui,sans-serif" font-weight="400" transform="rotate(-90,779.552380952381,323)">pyspark</text>
  <rect x="792.3682539682541" y="235" width="23.631746031745934" height="176" rx="3" fill="#b07aa1" opacity="0.25"/>
  <text x="804.184126984127" y="323" text-anchor="middle" dominant-baseline="central" font-size="16" fill="#b07aa1" font-family="system-ui,sans-serif" font-weight="400" transform="rotate(-90,804.184126984127,323)">cosmos db</text>
</g>
<g transform="translate(0, 639)">
<title>Portfolio at a Glance</title>
<rect width="820" height="270" fill="none"/>
<rect x="3" y="3" width="328.82" height="264" rx="6" fill="#0969da" opacity="0.15" stroke="#0969da" stroke-width="1.5"/><path d="M9,3 h316.82 a6,6 0 0 1 6,6 v26 h-328.82 v-26 a6,6 0 0 1 6,-6 z" fill="#0969da" opacity="0.1"/><line x1="3" y1="35" x2="331.82" y2="35" stroke="#0969da" stroke-width="0.75" opacity="0.45"/><text x="11" y="19" font-size="12" fill="#0969da" font-family="system-ui,-apple-system,Segoe UI,Roboto,sans-serif" font-weight="700">Top Languages</text><text x="11" y="31" font-size="9" fill="#0969da" opacity="0.95" font-weight="600" font-family="system-ui,-apple-system,Segoe UI,Roboto,sans-serif">By lines of code</text>
<g transform="translate(11, 41)">
<text x="4" y="28" font-size="11" fill="#0969da" font-family="system-ui,-apple-system,Segoe UI,Roboto,sans-serif">Python</text><rect x="137.3844" y="15" width="175.4356" height="18" rx="3" fill="#0969da" opacity="0.12"/><rect x="137.3844" y="15" width="102" height="18" rx="3" fill="#0969da" opacity="0.55"/><text x="244.3844" y="28" font-size="10" fill="#0969da" font-weight="700" font-family="system-ui,-apple-system,Segoe UI,Roboto,sans-serif">58.2%</text><text x="4" y="62" font-size="11" fill="#0969da" font-family="system-ui,-apple-system,Segoe UI,Roboto,sans-serif">Jupyter Notebook</text><rect x="137.3844" y="49" width="175.4356" height="18" rx="3" fill="#0969da" opacity="0.12"/><rect x="137.3844" y="49" width="47" height="18" rx="3" fill="#0969da" opacity="0.55"/><text x="189.3844" y="62" font-size="10" fill="#0969da" font-weight="700" font-family="system-ui,-apple-system,Segoe UI,Roboto,sans-serif">26.8%</text><text x="4" y="96" font-size="11" fill="#0969da" font-family="system-ui,-apple-system,Segoe UI,Roboto,sans-serif">TypeScript</text><rect x="137.3844" y="83" width="175.4356" height="18" rx="3" fill="#0969da" opacity="0.12"/><rect x="137.3844" y="83" width="9" height="18" rx="3" fill="#0969da" opacity="0.55"/><text x="151.3844" y="96" font-size="10" fill="#0969da" font-weight="700" font-family="system-ui,-apple-system,Segoe UI,Roboto,sans-serif">5.0%</text><text x="4" y="130" font-size="11" fill="#0969da" font-family="system-ui,-apple-system,Segoe UI,Roboto,sans-serif">JavaScript</text><rect x="137.3844" y="117" width="175.4356" height="18" rx="3" fill="#0969da" opacity="0.12"/><rect x="137.3844" y="117" width="7" height="18" rx="3" fill="#0969da" opacity="0.55"/><text x="149.3844" y="130" font-size="10" fill="#0969da" font-weight="700" font-family="system-ui,-apple-system,Segoe UI,Roboto,sans-serif">4.0%</text><text x="4" y="164" font-size="11" fill="#0969da" font-family="system-ui,-apple-system,Segoe UI,Roboto,sans-serif">PowerShell</text><rect x="137.3844" y="151" width="175.4356" height="18" rx="3" fill="#0969da" opacity="0.12"/><rect x="137.3844" y="151" width="3" height="18" rx="3" fill="#0969da" opacity="0.55"/><text x="145.3844" y="164" font-size="10" fill="#0969da" font-weight="700" font-family="system-ui,-apple-system,Segoe UI,Roboto,sans-serif">2.0%</text><text x="4" y="198" font-size="11" fill="#0969da" font-family="system-ui,-apple-system,Segoe UI,Roboto,sans-serif">Cython</text><rect x="137.3844" y="185" width="175.4356" height="18" rx="3" fill="#0969da" opacity="0.12"/><rect x="137.3844" y="185" width="2" height="18" rx="3" fill="#0969da" opacity="0.55"/><text x="144.3844" y="198" font-size="10" fill="#0969da" font-weight="700" font-family="system-ui,-apple-system,Segoe UI,Roboto,sans-serif">1.3%</text>
</g>
<rect x="337.82" y="3" width="144.35999999999999" height="264" rx="6" fill="#9a6700" opacity="0.15" stroke="#9a6700" stroke-width="1.5"/><path d="M343.82,3 h132.35999999999999 a6,6 0 0 1 6,6 v26 h-144.35999999999999 v-26 a6,6 0 0 1 6,-6 z" fill="#9a6700" opacity="0.1"/><line x1="337.82" y1="35" x2="482.17999999999995" y2="35" stroke="#9a6700" stroke-width="0.75" opacity="0.45"/><text x="345.82" y="19" font-size="12" fill="#9a6700" font-family="system-ui,-apple-system,Segoe UI,Roboto,sans-serif" font-weight="700">Tier &amp; Activity</text><text x="345.82" y="31" font-size="9" fill="#9a6700" opacity="0.95" font-weight="600" font-family="system-ui,-apple-system,Segoe UI,Roboto,sans-serif">Portfolio composition</text>
<text x="345.82" y="52" font-size="9" font-weight="700" fill="#9a6700" opacity="0.7" letter-spacing="0.6" font-family="system-ui,-apple-system,Segoe UI,Roboto,sans-serif">TIERS</text>
<g><text x="345.82" y="69" font-size="11">🏆</text><text x="365.82" y="69" font-size="11" fill="#9a6700" font-weight="600" font-family="system-ui,-apple-system,Segoe UI,Roboto,sans-serif">Flagship</text><text x="470.17999999999995" y="69" font-size="12" fill="#9a6700" font-weight="700" font-family="system-ui,-apple-system,Segoe UI,Roboto,sans-serif" text-anchor="end">17</text><text x="345.82" y="91" font-size="11">⭐</text><text x="365.82" y="91" font-size="11" fill="#9a6700" font-weight="600" font-family="system-ui,-apple-system,Segoe UI,Roboto,sans-serif">Notable</text><text x="470.17999999999995" y="91" font-size="12" fill="#9a6700" font-weight="700" font-family="system-ui,-apple-system,Segoe UI,Roboto,sans-serif" text-anchor="end">53</text><text x="345.82" y="113" font-size="11">🤖</text><text x="365.82" y="113" font-size="11" fill="#9a6700" font-weight="600" font-family="system-ui,-apple-system,Segoe UI,Roboto,sans-serif">Agents</text><text x="470.17999999999995" y="113" font-size="12" fill="#9a6700" font-weight="700" font-family="system-ui,-apple-system,Segoe UI,Roboto,sans-serif" text-anchor="end">94</text><text x="345.82" y="135" font-size="11">🪦</text><text x="365.82" y="135" font-size="11" fill="#9a6700" font-weight="600" font-family="system-ui,-apple-system,Segoe UI,Roboto,sans-serif">Archived</text><text x="470.17999999999995" y="135" font-size="12" fill="#9a6700" font-weight="700" font-family="system-ui,-apple-system,Segoe UI,Roboto,sans-serif" text-anchor="end">35</text></g>
<text x="345.82" y="162" font-size="9" font-weight="700" fill="#9a6700" opacity="0.7" letter-spacing="0.6" font-family="system-ui,-apple-system,Segoe UI,Roboto,sans-serif">ACTIVITY</text>
<g><text x="345.82" y="179" font-size="11">⭐</text><text x="365.82" y="179" font-size="11" fill="#9a6700" font-weight="600" font-family="system-ui,-apple-system,Segoe UI,Roboto,sans-serif">Stars</text><text x="470.17999999999995" y="179" font-size="12" fill="#9a6700" font-weight="700" font-family="system-ui,-apple-system,Segoe UI,Roboto,sans-serif" text-anchor="end">23</text><text x="345.82" y="201" font-size="11">🚀</text><text x="365.82" y="201" font-size="11" fill="#9a6700" font-weight="600" font-family="system-ui,-apple-system,Segoe UI,Roboto,sans-serif">Active &lt;30d</text><text x="470.17999999999995" y="201" font-size="12" fill="#9a6700" font-weight="700" font-family="system-ui,-apple-system,Segoe UI,Roboto,sans-serif" text-anchor="end">35</text><text x="345.82" y="223" font-size="11">📂</text><text x="365.82" y="223" font-size="11" fill="#9a6700" font-weight="600" font-family="system-ui,-apple-system,Segoe UI,Roboto,sans-serif">Public</text><text x="470.17999999999995" y="223" font-size="12" fill="#9a6700" font-weight="700" font-family="system-ui,-apple-system,Segoe UI,Roboto,sans-serif" text-anchor="end">48</text><text x="345.82" y="245" font-size="11">🔒</text><text x="365.82" y="245" font-size="11" fill="#9a6700" font-weight="600" font-family="system-ui,-apple-system,Segoe UI,Roboto,sans-serif">Private</text><text x="470.17999999999995" y="245" font-size="12" fill="#9a6700" font-weight="700" font-family="system-ui,-apple-system,Segoe UI,Roboto,sans-serif" text-anchor="end">57</text></g>
<rect x="488.17999999999995" y="3" width="328.82" height="264" rx="6" fill="#8250df" opacity="0.15" stroke="#8250df" stroke-width="1.5"/><path d="M494.17999999999995,3 h316.82 a6,6 0 0 1 6,6 v26 h-328.82 v-26 a6,6 0 0 1 6,-6 z" fill="#8250df" opacity="0.1"/><line x1="488.17999999999995" y1="35" x2="817" y2="35" stroke="#8250df" stroke-width="0.75" opacity="0.45"/><text x="496.17999999999995" y="19" font-size="12" fill="#8250df" font-family="system-ui,-apple-system,Segoe UI,Roboto,sans-serif" font-weight="700">Top Themes</text><text x="496.17999999999995" y="31" font-size="9" fill="#8250df" opacity="0.95" font-weight="600" font-family="system-ui,-apple-system,Segoe UI,Roboto,sans-serif">Topic clusters</text>
<g transform="translate(496.17999999999995, 41)">
<text x="4" y="28" font-size="11" fill="#8250df" font-family="system-ui,-apple-system,Segoe UI,Roboto,sans-serif">AI &amp; Copilot</text><rect x="137.3844" y="15" width="175.4356" height="18" rx="3" fill="#8250df" opacity="0.12"/><rect x="137.3844" y="15" width="102" height="18" rx="3" fill="#8250df" opacity="0.55"/><text x="244.3844" y="28" font-size="10" fill="#8250df" font-weight="700" font-family="system-ui,-apple-system,Segoe UI,Roboto,sans-serif">23</text><text x="4" y="62" font-size="11" fill="#8250df" font-family="system-ui,-apple-system,Segoe UI,Roboto,sans-serif">Developer Tools</text><rect x="137.3844" y="49" width="175.4356" height="18" rx="3" fill="#8250df" opacity="0.12"/><rect x="137.3844" y="49" width="93" height="18" rx="3" fill="#8250df" opacity="0.55"/><text x="235.3844" y="62" font-size="10" fill="#8250df" font-weight="700" font-family="system-ui,-apple-system,Segoe UI,Roboto,sans-serif">21</text><text x="4" y="90" font-size="11" fill="#8250df" font-family="system-ui,-apple-system,Segoe UI,Roboto,sans-serif">Cognitive<tspan x="4" dy="12">Architecture</tspan></text><rect x="137.3844" y="83" width="175.4356" height="18" rx="3" fill="#8250df" opacity="0.12"/><rect x="137.3844" y="83" width="80" height="18" rx="3" fill="#8250df" opacity="0.55"/><text x="222.3844" y="96" font-size="10" fill="#8250df" font-weight="700" font-family="system-ui,-apple-system,Segoe UI,Roboto,sans-serif">18</text><text x="4" y="130" font-size="11" fill="#8250df" font-family="system-ui,-apple-system,Segoe UI,Roboto,sans-serif">Cloud &amp; Azure</text><rect x="137.3844" y="117" width="175.4356" height="18" rx="3" fill="#8250df" opacity="0.12"/><rect x="137.3844" y="117" width="75" height="18" rx="3" fill="#8250df" opacity="0.55"/><text x="217.3844" y="130" font-size="10" fill="#8250df" font-weight="700" font-family="system-ui,-apple-system,Segoe UI,Roboto,sans-serif">17</text><text x="4" y="164" font-size="11" fill="#8250df" font-family="system-ui,-apple-system,Segoe UI,Roboto,sans-serif">Learning &amp; Research</text><rect x="137.3844" y="151" width="175.4356" height="18" rx="3" fill="#8250df" opacity="0.12"/><rect x="137.3844" y="151" width="62" height="18" rx="3" fill="#8250df" opacity="0.55"/><text x="204.3844" y="164" font-size="10" fill="#8250df" font-weight="700" font-family="system-ui,-apple-system,Segoe UI,Roboto,sans-serif">14</text><text x="4" y="198" font-size="11" fill="#8250df" font-family="system-ui,-apple-system,Segoe UI,Roboto,sans-serif">Microsoft Ecosystem</text><rect x="137.3844" y="185" width="175.4356" height="18" rx="3" fill="#8250df" opacity="0.12"/><rect x="137.3844" y="185" width="58" height="18" rx="3" fill="#8250df" opacity="0.55"/><text x="200.3844" y="198" font-size="10" fill="#8250df" font-weight="700" font-family="system-ui,-apple-system,Segoe UI,Roboto,sans-serif">13</text>
</g>
</g>
<text x="410" y="935" text-anchor="middle" font-family="Segoe UI, system-ui, sans-serif" font-size="13"><tspan font-weight="700" fill="#1f2328" >105</tspan><tspan fill="#64748b" dx="4">repositories across 9 categories</tspan><tspan fill="#64748b" dx="6">·</tspan><tspan font-weight="700" fill="#1f2328" dx="6">70</tspan><tspan fill="#64748b" dx="4">actively maintained</tspan><tspan fill="#64748b" dx="6">·</tspan><tspan font-weight="700" fill="#1f2328" dx="6">17</tspan><tspan fill="#64748b" dx="4">flagships</tspan></text>
</svg>