<svg xmlns="http://www.w3.org/2000/svg" viewBox="0 0 820 947" width="100%" preserveAspectRatio="xMidYMid meet" role="img" aria-label="Portfolio">
<title>Portfolio</title>
<g transform="translate(0, 0) scale(0.683333)">
<defs>
    <!-- Background gradient - deep space theme -->
    <linearGradient id="bgGrad" x1="0%" y1="0%" x2="100%" y2="100%">
      <stop offset="0%" stop-color="#020617"/>
      <stop offset="50%" stop-color="#0f172a"/>
      <stop offset="100%" stop-color="#1e293b"/>
    </linearGradient>

    <!-- Logo gradient with Azure blue -->
    <linearGradient id="logoGrad" x1="0%" y1="0%" x2="100%" y2="100%">
      <stop offset="0%" stop-color="#00bcf2"/>
      <stop offset="50%" stop-color="#0078d4"/>
      <stop offset="100%" stop-color="#005a9e"/>
    </linearGradient>

    <!-- Name gradient -->
    <linearGradient id="nameGrad" x1="0%" y1="0%" x2="100%" y2="0%">
      <stop offset="0%" stop-color="#f8fafc"/>
      <stop offset="50%" stop-color="#e2e8f0"/>
      <stop offset="100%" stop-color="#f8fafc"/>
    </linearGradient>

    <!-- Accent text gradient -->
    <linearGradient id="accentTextGrad" x1="0%" y1="0%" x2="100%" y2="0%">
      <stop offset="0%" stop-color="#00bcf2"/>
      <stop offset="50%" stop-color="#0078d4"/>
      <stop offset="100%" stop-color="#00bcf2"/>
    </linearGradient>

    <!-- Glow filter -->
    <filter id="glow" x="-50%" y="-50%" width="200%" height="200%">
      <feGaussianBlur stdDeviation="3" result="coloredBlur"/>
      <feMerge>
        <feMergeNode in="coloredBlur"/>
        <feMergeNode in="SourceGraphic"/>
      </feMerge>
    </filter>

    <!-- Strong glow for logo -->
    <filter id="logoGlow" x="-100%" y="-100%" width="300%" height="300%">
      <feGaussianBlur stdDeviation="6" result="blur1"/>
      <feGaussianBlur stdDeviation="12" result="blur2"/>
      <feMerge>
        <feMergeNode in="blur2"/>
        <feMergeNode in="blur1"/>
        <feMergeNode in="SourceGraphic"/>
      </feMerge>
    </filter>

    <!-- Radial glow behind logo -->
    <radialGradient id="logoBackGlow" cx="50%" cy="50%" r="50%">
      <stop offset="0%" stop-color="#0078d4" stop-opacity="0.4"/>
      <stop offset="50%" stop-color="#0078d4" stop-opacity="0.1"/>
      <stop offset="100%" stop-color="#0078d4" stop-opacity="0"/>
    </radialGradient>

    <!-- Grid pattern -->
    <pattern id="grid" width="50" height="50" patternUnits="userSpaceOnUse">
      <path d="M 50 0 L 0 0 0 50" fill="none" stroke="#1e3a5f" stroke-width="0.5" opacity="0.4"/>
    </pattern>

    <!-- Dot pattern -->
    <pattern id="dots" width="30" height="30" patternUnits="userSpaceOnUse">
      <circle cx="15" cy="15" r="1" fill="#0078d4" opacity="0.2"/>
    </pattern>

    <!-- Gradient for accent line -->
    <linearGradient id="accentGrad" x1="0%" y1="0%" x2="100%" y2="0%">
      <stop offset="0%" stop-color="#005a9e"/>
      <stop offset="25%" stop-color="#0078d4"/>
      <stop offset="50%" stop-color="#00bcf2"/>
      <stop offset="75%" stop-color="#0078d4"/>
      <stop offset="100%" stop-color="#005a9e"/>
    </linearGradient>

    <!-- Neural network gradient -->
    <linearGradient id="neuralGrad" x1="0%" y1="0%" x2="100%" y2="100%">
      <stop offset="0%" stop-color="#7c3aed"/>
      <stop offset="50%" stop-color="#0078d4"/>
      <stop offset="100%" stop-color="#00bcf2"/>
    </linearGradient>
  </defs>

  <!-- Background -->
  <rect width="1200" height="300" fill="url(#bgGrad)"/>

  <!-- Grid overlay -->
  <rect width="1200" height="300" fill="url(#grid)"/>

  <!-- Dot pattern overlay -->
  <rect width="1200" height="300" fill="url(#dots)" opacity="0.5"/>

  <!-- Large decorative orbs -->
  <circle cx="150" cy="150" r="180" fill="url(#logoBackGlow)"/>
  <circle cx="1050" cy="80" r="150" fill="#0078d4" opacity="0.05"/>
  <circle cx="1150" cy="280" r="180" fill="#00bcf2" opacity="0.03"/>
  <circle cx="50" cy="250" r="100" fill="#7c3aed" opacity="0.06"/>

  <!-- Neural network nodes - cognitive theme -->
  <g opacity="0.4">
    <!-- Left side neural cluster -->
    <circle cx="80" cy="60" r="4" fill="#7c3aed"/>
    <circle cx="120" cy="40" r="3" fill="#0078d4"/>
    <circle cx="60" cy="100" r="3" fill="#00bcf2"/>
    <circle cx="140" cy="90" r="2" fill="#7c3aed"/>
    <line x1="80" y1="60" x2="120" y2="40" stroke="#7c3aed" stroke-width="1"/>
    <line x1="80" y1="60" x2="60" y2="100" stroke="#0078d4" stroke-width="1"/>
    <line x1="120" y1="40" x2="140" y2="90" stroke="#00bcf2" stroke-width="0.5"/>

    <!-- Right side neural cluster -->
    <circle cx="1100" cy="70" r="3" fill="#00bcf2"/>
    <circle cx="1140" cy="50" r="2" fill="#0078d4"/>
    <circle cx="1080" cy="100" r="4" fill="#7c3aed"/>
    <circle cx="1120" cy="120" r="2" fill="#0078d4"/>
    <line x1="1100" y1="70" x2="1140" y2="50" stroke="#00bcf2" stroke-width="0.5"/>
    <line x1="1100" y1="70" x2="1080" y2="100" stroke="#7c3aed" stroke-width="1"/>
    <line x1="1080" y1="100" x2="1120" y2="120" stroke="#0078d4" stroke-width="0.5"/>
  </g>

  <!-- Floating particles -->
  <circle cx="300" cy="30" r="1.5" fill="#0078d4" opacity="0.5"/>
  <circle cx="500" cy="50" r="2" fill="#00bcf2" opacity="0.4"/>
  <circle cx="750" cy="25" r="1" fill="#7c3aed" opacity="0.6"/>
  <circle cx="950" cy="45" r="2.5" fill="#00bcf2" opacity="0.3"/>
  <circle cx="400" cy="270" r="2" fill="#00bcf2" opacity="0.4"/>
  <circle cx="700" cy="260" r="1.5" fill="#0078d4" opacity="0.5"/>
  <circle cx="900" cy="275" r="2" fill="#7c3aed" opacity="0.3"/>
  <circle cx="1050" cy="250" r="1" fill="#0078d4" opacity="0.6"/>

  <!-- Logo glow backdrop -->
  <ellipse cx="150" cy="150" rx="120" ry="110" fill="url(#logoBackGlow)"/>

  <!-- Logo mark (scaled) with glow -->
  <g transform="translate(55, 58) scale(6)" filter="url(#logoGlow)">
    <path d="M16 2C8.268 2 2 8.268 2 16s6.268 14 14 14c3.866 0 7.389-1.568 9.928-4.1l-3.535-3.536A9.002 9.002 0 0116 25c-4.97 0-9-4.03-9-9s4.03-9 9-9c2.29 0 4.38.857 5.971 2.268l3.464-3.639C22.993 3.352 19.66 2 16 2z" fill="url(#logoGrad)"/>
    <path d="M20 10l-4 6 4 6h4l-4-6 4-6h-4z" fill="url(#logoGrad)"/>
    <path d="M24 10l4 6-4 6h4l4-6-4-6h-4z" fill="url(#logoGrad)" opacity="0.6"/>
  </g>

  <text x="320" y="54" font-family="Segoe UI, system-ui, sans-serif" font-size="13" font-weight="600" fill="#94a3b8" letter-spacing="3">AUTOMATIC REPOSITORY PORTFOLIO FOR</text>
  <!-- Main name -->
  <text x="320" y="135" font-family="Segoe UI, system-ui, sans-serif" font-size="74" font-weight="700" fill="url(#nameGrad)" filter="url(#glow)">Dr. Fabio Correa, DBA</text>

  <!-- Title line -->
  <text x="320" y="180" font-family="Segoe UI, system-ui, sans-serif" font-size="22" fill="#94a3b8" letter-spacing="1" textLength="800" lengthAdjust="spacingAndGlyphs">Building AI-powered solutions for coding, learning, and decision-making.</text>

  <!-- Tagline with accent -->
  <text x="320" y="220" font-family="Segoe UI, system-ui, sans-serif" font-size="18" fill="url(#accentTextGrad)" letter-spacing="1.5">THINK • BUILD • DEPLOY</text>

  <!-- Decorative accent line -->
  <line x1="320" y1="240" x2="850" y2="240" stroke="#334155" stroke-width="1"/>
  <line x1="320" y1="243" x2="600" y2="243" stroke="url(#accentGrad)" stroke-width="2" opacity="0.6"/>

  <!-- CorreaX branding badge -->
  <g transform="translate(320, 255)" font-family="Segoe UI, system-ui, sans-serif" font-size="12" fill="#94a3b8"><text letter-spacing="1">UPDATED</text><text x="70" font-weight="700">May 20 2026 07:01 EDT</text></g>

  <!-- Tech circuit decorations on right -->
  <g opacity="0.25">
    <path d="M1000 140 h80 v40 h40" stroke="#0078d4" stroke-width="1.5" fill="none"/>
    <circle cx="1000" cy="140" r="3" fill="#0078d4"/>
    <circle cx="1120" cy="180" r="4" fill="#00bcf2"/>
    <path d="M1020 200 h60 v-25 h30" stroke="#7c3aed" stroke-width="1" fill="none"/>
    <circle cx="1020" cy="200" r="2" fill="#7c3aed"/>
    <path d="M980 100 h50 l20 20 h40" stroke="#00bcf2" stroke-width="1" fill="none"/>
    <circle cx="980" cy="100" r="2" fill="#00bcf2"/>
  </g>

  <!-- Bottom accent bar with glow -->
  <rect x="0" y="290" width="1200" height="10" fill="url(#accentGrad)" filter="url(#glow)"/>
</g>
<g transform="translate(0, 217)">
<rect width="820" height="416" fill="none"/>
  <rect x="3" y="3" width="280.6371681415929" height="202" rx="6" fill="#4e79a7" opacity="0.15" stroke="#4e79a7" stroke-width="1.5"/><path d="M9,3 h268.6371681415929 a6,6 0 0 1 6,6 v16 h-280.6371681415929 v-16 a6,6 0 0 1 6,-6 z" fill="#4e79a7" opacity="0.1"/><line x1="3" y1="25" x2="283.6371681415929" y2="25" stroke="#4e79a7" stroke-width="0.75" opacity="0.45"/><text x="11" y="19" font-size="12" fill="#4e79a7" font-family="system-ui,-apple-system,Segoe UI,Roboto,sans-serif" font-weight="700">AI &amp; Copilot</text>
  <rect x="4" y="27" width="47.317093767652125" height="176" rx="3" fill="#4e79a7" opacity="0.43"/>
  <text x="27.658546883826062" y="115" text-anchor="middle" dominant-baseline="central" font-size="16" fill="#4e79a7" font-family="system-ui,sans-serif" font-weight="600" transform="rotate(-90,27.658546883826062,115)">github copilot</text>
  <rect x="52.317093767652125" y="27" width="39.58832092715917" height="176" rx="3" fill="#4e79a7" opacity="0.36"/>
  <text x="72.11125423123171" y="115" text-anchor="middle" dominant-baseline="central" font-size="16" fill="#4e79a7" font-family="system-ui,sans-serif" font-weight="600" transform="rotate(-90,72.11125423123171,115)">ai assistant</text>
  <rect x="92.9054146948113" y="27" width="39.58832092715917" height="176" rx="3" fill="#4e79a7" opacity="0.36"/>
  <text x="112.69957515839089" y="115" text-anchor="middle" dominant-baseline="central" font-size="16" fill="#4e79a7" font-family="system-ui,sans-serif" font-weight="600" transform="rotate(-90,112.69957515839089,115)">copilot</text>
  <rect x="133.49373562197047" y="27" width="33.458237869146544" height="176" rx="3" fill="#4e79a7" opacity="0.32"/>
  <text x="150.22285455654375" y="115" text-anchor="middle" dominant-baseline="central" font-size="16" fill="#4e79a7" font-family="system-ui,sans-serif" font-weight="400" transform="rotate(-90,150.22285455654375,115)">claude</text>
  <rect x="167.95197349111703" y="27" width="29.92595771310775" height="176" rx="3" fill="#4e79a7" opacity="0.29"/>
  <text x="182.91495234767092" y="115" text-anchor="middle" dominant-baseline="central" font-size="16" fill="#4e79a7" font-family="system-ui,sans-serif" font-weight="400" transform="rotate(-90,182.91495234767092,115)">azure openai</text>
  <rect x="198.87793120422478" y="27" width="29.92595771310775" height="176" rx="3" fill="#4e79a7" opacity="0.29"/>
  <text x="213.84091006077864" y="115" text-anchor="middle" dominant-baseline="central" font-size="16" fill="#4e79a7" font-family="system-ui,sans-serif" font-weight="400" transform="rotate(-90,213.84091006077864,115)">ai agents</text>
  <rect x="229.80388891733253" y="27" width="25.916639612130176" height="176" rx="3" fill="#4e79a7" opacity="0.27"/>
  <text x="242.7622087233976" y="115" text-anchor="middle" dominant-baseline="central" font-size="16" fill="#4e79a7" font-family="system-ui,sans-serif" font-weight="400" transform="rotate(-90,242.7622087233976,115)">ai adoption</text>
  <rect x="256.7205285294627" y="27" width="25.91663961213021" height="176" rx="3" fill="#4e79a7" opacity="0.27"/>
  <text x="269.6788483355278" y="115" text-anchor="middle" dominant-baseline="central" font-size="16" fill="#4e79a7" font-family="system-ui,sans-serif" font-weight="400" transform="rotate(-90,269.6788483355278,115)">agent skills</text>
  <rect x="289.6371681415929" y="3" width="215.32743362831857" height="202" rx="6" fill="#57606a" opacity="0.15" stroke="#57606a" stroke-width="1.5"/><path d="M295.6371681415929,3 h203.32743362831857 a6,6 0 0 1 6,6 v16 h-215.32743362831857 v-16 a6,6 0 0 1 6,-6 z" fill="#57606a" opacity="0.1"/><line x1="289.6371681415929" y1="25" x2="504.9646017699115" y2="25" stroke="#57606a" stroke-width="0.75" opacity="0.45"/><text x="297.6371681415929" y="19" font-size="12" fill="#57606a" font-family="system-ui,-apple-system,Segoe UI,Roboto,sans-serif" font-weight="700">Other</text>
  <rect x="290.6371681415929" y="27" width="36.048920120236694" height="176" rx="3" fill="#57606a" opacity="0.43"/>
  <text x="308.66162820171127" y="115" text-anchor="middle" dominant-baseline="central" font-size="16" fill="#57606a" font-family="system-ui,sans-serif" font-weight="600" transform="rotate(-90,308.66162820171127,115)">agent</text>
  <rect x="327.6860882618296" y="27" width="30.160690464322006" height="176" rx="3" fill="#57606a" opacity="0.36"/>
  <text x="342.7664334939906" y="115" text-anchor="middle" dominant-baseline="central" font-size="16" fill="#57606a" font-family="system-ui,sans-serif" font-weight="600" transform="rotate(-90,342.7664334939906,115)">prompt engineering</text>
  <rect x="358.84677872615157" y="27" width="30.160690464322006" height="176" rx="3" fill="#57606a" opacity="0.36"/>
  <text x="373.92712395831256" y="115" text-anchor="middle" dominant-baseline="central" font-size="16" fill="#57606a" font-family="system-ui,sans-serif" font-weight="600" transform="rotate(-90,373.92712395831256,115)">ai</text>
  <rect x="390.00746919047356" y="27" width="27.92337345488763" height="176" rx="3" fill="#57606a" opacity="0.34"/>
  <text x="403.96915591791736" y="115" text-anchor="middle" dominant-baseline="central" font-size="16" fill="#57606a" font-family="system-ui,sans-serif" font-weight="600" transform="rotate(-90,403.96915591791736,115)">critical thinking</text>
  <rect x="418.93084264536117" y="27" width="22.79933895388378" height="176" rx="3" fill="#57606a" opacity="0.29"/>
  <text x="430.33051212230305" y="115" text-anchor="middle" dominant-baseline="central" font-size="16" fill="#57606a" font-family="system-ui,sans-serif" font-weight="400" transform="rotate(-90,430.33051212230305,115)">responsible ai</text>
  <rect x="442.73018159924493" y="27" width="19.74480672355548" height="176" rx="3" fill="#57606a" opacity="0.27"/>
  <text x="452.60258496102267" y="115" text-anchor="middle" dominant-baseline="central" font-size="14" fill="#57606a" font-family="system-ui,sans-serif" font-weight="400" transform="rotate(-90,452.60258496102267,115)">dashboard</text>
  <rect x="463.4749883228004" y="27" width="19.74480672355548" height="176" rx="3" fill="#57606a" opacity="0.27"/>
  <text x="473.34739168457816" y="115" text-anchor="middle" dominant-baseline="central" font-size="14" fill="#57606a" font-family="system-ui,sans-serif" font-weight="400" transform="rotate(-90,473.34739168457816,115)">fleet</text>
  <rect x="484.2197950463559" y="27" width="19.744806723555598" height="176" rx="3" fill="#57606a" opacity="0.27"/>
  <text x="494.0921984081337" y="115" text-anchor="middle" dominant-baseline="central" font-size="14" fill="#57606a" font-family="system-ui,sans-serif" font-weight="400" transform="rotate(-90,494.0921984081337,115)">dialog engineering</text>
  <rect x="510.9646017699115" y="3" width="128.24778761061947" height="202" rx="6" fill="#f28e2b" opacity="0.15" stroke="#f28e2b" stroke-width="1.5"/><path d="M516.9646017699115,3 h116.24778761061947 a6,6 0 0 1 6,6 v16 h-128.24778761061947 v-16 a6,6 0 0 1 6,-6 z" fill="#f28e2b" opacity="0.1"/><line x1="510.9646017699115" y1="25" x2="639.212389380531" y2="25" stroke="#f28e2b" stroke-width="0.75" opacity="0.45"/><text x="518.9646017699115" y="19" font-size="12" fill="#f28e2b" font-family="system-ui,-apple-system,Segoe UI,Roboto,sans-serif" font-weight="700">Cognitive Archit…</text>
  <rect x="511.9646017699115" y="27" width="24.26190289988516" height="176" rx="3" fill="#f28e2b" opacity="0.45"/>
  <text x="524.0955532198541" y="115" text-anchor="middle" dominant-baseline="central" font-size="13" fill="#f28e2b" font-family="system-ui,sans-serif" font-weight="600" transform="rotate(-90,524.0955532198541,115)">cognitive architecture</text>
  <rect x="537.2265046697967" y="27" width="20.690620313623118" height="176" rx="3" fill="#f28e2b" opacity="0.38"/>
  <text x="547.5718148266083" y="115" text-anchor="middle" dominant-baseline="central" font-size="15" fill="#f28e2b" font-family="system-ui,sans-serif" font-weight="600" transform="rotate(-90,547.5718148266083,115)">agentic</text>
  <rect x="558.9171249834197" y="27" width="17.918602811655965" height="176" rx="3" fill="#f28e2b" opacity="0.34"/>
  <text x="567.8764263892477" y="115" text-anchor="middle" dominant-baseline="central" font-size="13" fill="#f28e2b" font-family="system-ui,sans-serif" font-weight="600" transform="rotate(-90,567.8764263892477,115)">mcp</text>
  <rect x="577.8357277950757" y="27" width="12.670365557510271" height="176" rx="3" fill="#f28e2b" opacity="0.27"/>
  <text x="584.1709105738308" y="115" text-anchor="middle" dominant-baseline="central" font-size="9" fill="#f28e2b" font-family="system-ui,sans-serif" font-weight="400" transform="rotate(-90,584.1709105738308,115)">agentic ai</text>
  <rect x="591.506093352586" y="27" width="12.670365557510271" height="176" rx="3" fill="#f28e2b" opacity="0.27"/>
  <text x="597.8412761313411" y="115" text-anchor="middle" dominant-baseline="central" font-size="9" fill="#f28e2b" font-family="system-ui,sans-serif" font-weight="400" transform="rotate(-90,597.8412761313411,115)">model context protocol</text>
  <rect x="605.1764589100964" y="27" width="10.345310156811559" height="176" rx="3" fill="#f28e2b" opacity="0.25"/>
  <text x="610.3491139885022" y="115" text-anchor="middle" dominant-baseline="central" font-size="7" fill="#f28e2b" font-family="system-ui,sans-serif" font-weight="400" transform="rotate(-90,610.3491139885022,115)">neuroscience</text>
  <rect x="616.521769066908" y="27" width="10.345310156811559" height="176" rx="3" fill="#f28e2b" opacity="0.25"/>
  <text x="621.6944241453137" y="115" text-anchor="middle" dominant-baseline="central" font-size="7" fill="#f28e2b" font-family="system-ui,sans-serif" font-weight="400" transform="rotate(-90,621.6944241453137,115)">cognitive science</text>
  <rect x="627.8670792237195" y="27" width="10.345310156811479" height="176" rx="3" fill="#f28e2b" opacity="0.25"/>
  <text x="633.0397343021252" y="115" text-anchor="middle" dominant-baseline="central" font-size="7" fill="#f28e2b" font-family="system-ui,sans-serif" font-weight="400" transform="rotate(-90,633.0397343021252,115)">memory systems</text>
  <rect x="645.212389380531" y="3" width="99.2212389380531" height="202" rx="6" fill="#59a14f" opacity="0.15" stroke="#59a14f" stroke-width="1.5"/><path d="M651.212389380531,3 h87.2212389380531 a6,6 0 0 1 6,6 v16 h-99.2212389380531 v-16 a6,6 0 0 1 6,-6 z" fill="#59a14f" opacity="0.1"/><line x1="645.212389380531" y1="25" x2="744.4336283185842" y2="25" stroke="#59a14f" stroke-width="0.75" opacity="0.45"/><text x="653.212389380531" y="19" font-size="12" fill="#59a14f" font-family="system-ui,-apple-system,Segoe UI,Roboto,sans-serif" font-weight="700">Developer To…</text>
  <rect x="646.212389380531" y="27" width="14.80853185697767" height="176" rx="3" fill="#59a14f" opacity="0.34"/>
  <text x="653.6166553090198" y="115" text-anchor="middle" dominant-baseline="central" font-size="11" fill="#59a14f" font-family="system-ui,sans-serif" font-weight="600" transform="rotate(-90,653.6166553090198,115)">typescript</text>
  <rect x="662.0209212375087" y="27" width="14.80853185697767" height="176" rx="3" fill="#59a14f" opacity="0.34"/>
  <text x="669.4251871659975" y="115" text-anchor="middle" dominant-baseline="central" font-size="11" fill="#59a14f" font-family="system-ui,sans-serif" font-weight="600" transform="rotate(-90,669.4251871659975,115)">vscode extension</text>
  <rect x="677.8294530944863" y="27" width="12.091115629781577" height="176" rx="3" fill="#59a14f" opacity="0.29"/>
  <text x="683.8750109093771" y="115" text-anchor="middle" dominant-baseline="central" font-size="9" fill="#59a14f" font-family="system-ui,sans-serif" font-weight="400" transform="rotate(-90,683.8750109093771,115)">python</text>
  <rect x="690.9205687242679" y="27" width="10.471213295485926" height="176" rx="3" fill="#59a14f" opacity="0.27"/>
  <text x="696.1561753720109" y="115" text-anchor="middle" dominant-baseline="central" font-size="7" fill="#59a14f" font-family="system-ui,sans-serif" font-weight="400" transform="rotate(-90,696.1561753720109,115)">react</text>
  <rect x="702.3917820197538" y="27" width="10.471213295485926" height="176" rx="3" fill="#59a14f" opacity="0.27"/>
  <text x="707.6273886674968" y="115" text-anchor="middle" dominant-baseline="central" font-size="7" fill="#59a14f" font-family="system-ui,sans-serif" font-weight="400" transform="rotate(-90,707.6273886674968,115)">developer tools</text>
  <rect x="713.8629953152397" y="27" width="10.471213295485926" height="176" rx="3" fill="#59a14f" opacity="0.27"/>
  <text x="719.0986019629827" y="115" text-anchor="middle" dominant-baseline="central" font-size="7" fill="#59a14f" font-family="system-ui,sans-serif" font-weight="400" transform="rotate(-90,719.0986019629827,115)">vscode</text>
  <rect x="725.3342086107256" y="27" width="8.549709853929206" height="176" rx="3" fill="#59a14f" opacity="0.25"/>
  <text x="729.6090635376902" y="115" text-anchor="middle" dominant-baseline="central" font-size="6" fill="#59a14f" font-family="system-ui,sans-serif" font-weight="400" transform="rotate(-90,729.6090635376902,115)">markdown</text>
  <rect x="734.8839184646548" y="27" width="8.549709853929357" height="176" rx="3" fill="#59a14f" opacity="0.25"/>
  <text x="739.1587733916194" y="115" text-anchor="middle" dominant-baseline="central" font-size="6" fill="#59a14f" font-family="system-ui,sans-serif" font-weight="400" transform="rotate(-90,739.1587733916194,115)">pdf</text>
  <rect x="750.4336283185842" y="3" width="66.56637168141583" height="202" rx="6" fill="#e15759" opacity="0.15" stroke="#e15759" stroke-width="1.5"/><path d="M756.4336283185842,3 h54.56637168141583 a6,6 0 0 1 6,6 v16 h-66.56637168141583 v-16 a6,6 0 0 1 6,-6 z" fill="#e15759" opacity="0.1"/><line x1="750.4336283185842" y1="25" x2="817" y2="25" stroke="#e15759" stroke-width="0.75" opacity="0.45"/><text x="758.4336283185842" y="19" font-size="12" fill="#e15759" font-family="system-ui,-apple-system,Segoe UI,Roboto,sans-serif" font-weight="700">Learnin…</text>
  <rect x="751.4336283185842" y="27" width="7.922719520343849" height="176" rx="3" fill="#e15759" opacity="0.27"/>
  <rect x="760.3563478389281" y="27" width="7.922719520343849" height="176" rx="3" fill="#e15759" opacity="0.27"/>
  <rect x="769.279067359272" y="27" width="7.922719520343849" height="176" rx="3" fill="#e15759" opacity="0.27"/>
  <rect x="778.2017868796158" y="27" width="7.922719520343849" height="176" rx="3" fill="#e15759" opacity="0.27"/>
  <rect x="787.1245063999597" y="27" width="6.468873400010106" height="176" rx="3" fill="#e15759" opacity="0.25"/>
  <rect x="794.5933797999699" y="27" width="6.468873400010106" height="176" rx="3" fill="#e15759" opacity="0.25"/>
  <rect x="802.06225319998" y="27" width="6.468873400010106" height="176" rx="3" fill="#e15759" opacity="0.25"/>
  <rect x="809.5311265999901" y="27" width="6.4688734000098975" height="176" rx="3" fill="#e15759" opacity="0.25"/>
  <rect x="3" y="211" width="342.5" height="202" rx="6" fill="#edc948" opacity="0.15" stroke="#edc948" stroke-width="1.5"/><path d="M9,211 h330.5 a6,6 0 0 1 6,6 v16 h-342.5 v-16 a6,6 0 0 1 6,-6 z" fill="#edc948" opacity="0.1"/><line x1="3" y1="233" x2="345.5" y2="233" stroke="#edc948" stroke-width="0.75" opacity="0.45"/><text x="11" y="227" font-size="12" fill="#edc948" font-family="system-ui,-apple-system,Segoe UI,Roboto,sans-serif" font-weight="700">Healthcare &amp; Wellness</text>
  <rect x="4" y="235" width="49.66140846870872" height="176" rx="3" fill="#edc948" opacity="0.27"/>
  <text x="28.83070423435436" y="323" text-anchor="middle" dominant-baseline="central" font-size="16" fill="#edc948" font-family="system-ui,sans-serif" font-weight="400" transform="rotate(-90,28.83070423435436,323)">spotify api</text>
  <rect x="54.66140846870872" y="235" width="40.54837021875589" height="176" rx="3" fill="#edc948" opacity="0.25"/>
  <text x="74.93559357808667" y="323" text-anchor="middle" dominant-baseline="central" font-size="16" fill="#edc948" font-family="system-ui,sans-serif" font-weight="400" transform="rotate(-90,74.93559357808667,323)">music</text>
  <rect x="96.20977868746462" y="235" width="40.54837021875589" height="176" rx="3" fill="#edc948" opacity="0.25"/>
  <text x="116.48396379684257" y="323" text-anchor="middle" dominant-baseline="central" font-size="16" fill="#edc948" font-family="system-ui,sans-serif" font-weight="400" transform="rotate(-90,116.48396379684257,323)">playlist</text>
  <rect x="137.75814890622053" y="235" width="40.54837021875589" height="176" rx="3" fill="#edc948" opacity="0.25"/>
  <text x="158.03233401559848" y="323" text-anchor="middle" dominant-baseline="central" font-size="16" fill="#edc948" font-family="system-ui,sans-serif" font-weight="400" transform="rotate(-90,158.03233401559848,323)">spotify</text>
  <rect x="179.30651912497643" y="235" width="40.54837021875589" height="176" rx="3" fill="#edc948" opacity="0.25"/>
  <text x="199.58070423435439" y="323" text-anchor="middle" dominant-baseline="central" font-size="16" fill="#edc948" font-family="system-ui,sans-serif" font-weight="400" transform="rotate(-90,199.58070423435439,323)">accessibility</text>
  <rect x="220.85488934373234" y="235" width="40.54837021875589" height="176" rx="3" fill="#edc948" opacity="0.25"/>
  <text x="241.1290744531103" y="323" text-anchor="middle" dominant-baseline="central" font-size="16" fill="#edc948" font-family="system-ui,sans-serif" font-weight="400" transform="rotate(-90,241.1290744531103,323)">healthcare</text>
  <rect x="262.40325956248824" y="235" width="40.54837021875589" height="176" rx="3" fill="#edc948" opacity="0.25"/>
  <text x="282.67744467186617" y="323" text-anchor="middle" dominant-baseline="central" font-size="16" fill="#edc948" font-family="system-ui,sans-serif" font-weight="400" transform="rotate(-90,282.67744467186617,323)">audio</text>
  <rect x="303.95162978124415" y="235" width="40.54837021875585" height="176" rx="3" fill="#edc948" opacity="0.25"/>
  <text x="324.2258148906221" y="323" text-anchor="middle" dominant-baseline="central" font-size="16" fill="#edc948" font-family="system-ui,sans-serif" font-weight="400" transform="rotate(-90,324.2258148906221,323)">generative art</text>
  <rect x="351.5" y="211" width="199" height="202" rx="6" fill="#ff9da7" opacity="0.15" stroke="#ff9da7" stroke-width="1.5"/><path d="M357.5,211 h187 a6,6 0 0 1 6,6 v16 h-199 v-16 a6,6 0 0 1 6,-6 z" fill="#ff9da7" opacity="0.1"/><line x1="351.5" y1="233" x2="550.5" y2="233" stroke="#ff9da7" stroke-width="0.75" opacity="0.45"/><text x="359.5" y="227" font-size="12" fill="#ff9da7" font-family="system-ui,-apple-system,Segoe UI,Roboto,sans-serif" font-weight="700">Finance &amp; Investment</text>
  <rect x="352.5" y="235" width="38.6" height="176" rx="3" fill="#ff9da7" opacity="0.25"/>
  <text x="371.8" y="323" text-anchor="middle" dominant-baseline="central" font-size="16" fill="#ff9da7" font-family="system-ui,sans-serif" font-weight="400" transform="rotate(-90,371.8,323)">portfolio</text>
  <rect x="392.1" y="235" width="38.6" height="176" rx="3" fill="#ff9da7" opacity="0.25"/>
  <text x="411.40000000000003" y="323" text-anchor="middle" dominant-baseline="central" font-size="16" fill="#ff9da7" font-family="system-ui,sans-serif" font-weight="400" transform="rotate(-90,411.40000000000003,323)">template</text>
  <rect x="431.70000000000005" y="235" width="38.6" height="176" rx="3" fill="#ff9da7" opacity="0.25"/>
  <text x="451.00000000000006" y="323" text-anchor="middle" dominant-baseline="central" font-size="16" fill="#ff9da7" font-family="system-ui,sans-serif" font-weight="400" transform="rotate(-90,451.00000000000006,323)">astro</text>
  <rect x="471.30000000000007" y="235" width="38.6" height="176" rx="3" fill="#ff9da7" opacity="0.25"/>
  <text x="490.6000000000001" y="323" text-anchor="middle" dominant-baseline="central" font-size="16" fill="#ff9da7" font-family="system-ui,sans-serif" font-weight="400" transform="rotate(-90,490.6000000000001,323)">governance</text>
  <rect x="510.9000000000001" y="235" width="38.59999999999991" height="176" rx="3" fill="#ff9da7" opacity="0.25"/>
  <text x="530.2" y="323" text-anchor="middle" dominant-baseline="central" font-size="16" fill="#ff9da7" font-family="system-ui,sans-serif" font-weight="400" transform="rotate(-90,530.2,323)">multilingual</text>
  <rect x="556.5" y="211" width="178.5" height="202" rx="6" fill="#76b7b2" opacity="0.15" stroke="#76b7b2" stroke-width="1.5"/><path d="M562.5,211 h166.5 a6,6 0 0 1 6,6 v16 h-178.5 v-16 a6,6 0 0 1 6,-6 z" fill="#76b7b2" opacity="0.1"/><line x1="556.5" y1="233" x2="735" y2="233" stroke="#76b7b2" stroke-width="0.75" opacity="0.45"/><text x="564.5" y="227" font-size="12" fill="#76b7b2" font-family="system-ui,-apple-system,Segoe UI,Roboto,sans-serif" font-weight="700">Cloud &amp; Azure</text>
  <rect x="557.5" y="235" width="114.36782572423468" height="176" rx="3" fill="#76b7b2" opacity="0.36"/>
  <text x="614.6839128621174" y="323" text-anchor="middle" dominant-baseline="central" font-size="16" fill="#76b7b2" font-family="system-ui,sans-serif" font-weight="600" transform="rotate(-90,614.6839128621174,323)">azure</text>
  <rect x="672.8678257242346" y="235" width="61.13217427576535" height="176" rx="3" fill="#76b7b2" opacity="0.25"/>
  <text x="703.4339128621173" y="323" text-anchor="middle" dominant-baseline="central" font-size="16" fill="#76b7b2" font-family="system-ui,sans-serif" font-weight="400" transform="rotate(-90,703.4339128621173,323)">azure functions</text>
  <rect x="741" y="211" width="76" height="202" rx="6" fill="#b07aa1" opacity="0.15" stroke="#b07aa1" stroke-width="1.5"/><path d="M747,211 h64 a6,6 0 0 1 6,6 v16 h-76 v-16 a6,6 0 0 1 6,-6 z" fill="#b07aa1" opacity="0.1"/><line x1="741" y1="233" x2="817" y2="233" stroke="#b07aa1" stroke-width="0.75" opacity="0.45"/><text x="749" y="227" font-size="12" fill="#b07aa1" font-family="system-ui,-apple-system,Segoe UI,Roboto,sans-serif" font-weight="700">Producti…</text>
  <rect x="742" y="235" width="36.5" height="176" rx="3" fill="#b07aa1" opacity="0.25"/>
  <text x="760.25" y="323" text-anchor="middle" dominant-baseline="central" font-size="16" fill="#b07aa1" font-family="system-ui,sans-serif" font-weight="400" transform="rotate(-90,760.25,323)">automation</text>
  <rect x="779.5" y="235" width="36.5" height="176" rx="3" fill="#b07aa1" opacity="0.25"/>
  <text x="797.75" y="323" text-anchor="middle" dominant-baseline="central" font-size="16" fill="#b07aa1" font-family="system-ui,sans-serif" font-weight="400" transform="rotate(-90,797.75,323)">productivity</text>
</g>
<g transform="translate(0, 639)">
<title>Portfolio at a Glance</title>
<rect width="820" height="270" fill="none"/>
<rect x="3" y="3" width="328.82" height="264" rx="6" fill="#0969da" opacity="0.15" stroke="#0969da" stroke-width="1.5"/><path d="M9,3 h316.82 a6,6 0 0 1 6,6 v26 h-328.82 v-26 a6,6 0 0 1 6,-6 z" fill="#0969da" opacity="0.1"/><line x1="3" y1="35" x2="331.82" y2="35" stroke="#0969da" stroke-width="0.75" opacity="0.45"/><text x="11" y="19" font-size="12" fill="#0969da" font-family="system-ui,-apple-system,Segoe UI,Roboto,sans-serif" font-weight="700">Top Languages</text><text x="11" y="31" font-size="9" fill="#0969da" opacity="0.95" font-weight="600" font-family="system-ui,-apple-system,Segoe UI,Roboto,sans-serif">By lines of code</text>
<g transform="translate(11, 41)">
<text x="4" y="28" font-size="11" fill="#0969da" font-family="system-ui,-apple-system,Segoe UI,Roboto,sans-serif">Python</text><rect x="137.3844" y="15" width="175.4356" height="18" rx="3" fill="#0969da" opacity="0.12"/><rect x="137.3844" y="15" width="110" height="18" rx="3" fill="#0969da" opacity="0.55"/><text x="252.3844" y="28" font-size="10" fill="#0969da" font-weight="700" font-family="system-ui,-apple-system,Segoe UI,Roboto,sans-serif">62.5%</text><text x="4" y="62" font-size="11" fill="#0969da" font-family="system-ui,-apple-system,Segoe UI,Roboto,sans-serif">Jupyter Notebook</text><rect x="137.3844" y="49" width="175.4356" height="18" rx="3" fill="#0969da" opacity="0.12"/><rect x="137.3844" y="49" width="29" height="18" rx="3" fill="#0969da" opacity="0.55"/><text x="171.3844" y="62" font-size="10" fill="#0969da" font-weight="700" font-family="system-ui,-apple-system,Segoe UI,Roboto,sans-serif">16.3%</text><text x="4" y="96" font-size="11" fill="#0969da" font-family="system-ui,-apple-system,Segoe UI,Roboto,sans-serif">JavaScript</text><rect x="137.3844" y="83" width="175.4356" height="18" rx="3" fill="#0969da" opacity="0.12"/><rect x="137.3844" y="83" width="20" height="18" rx="3" fill="#0969da" opacity="0.55"/><text x="162.3844" y="96" font-size="10" fill="#0969da" font-weight="700" font-family="system-ui,-apple-system,Segoe UI,Roboto,sans-serif">11.6%</text><text x="4" y="130" font-size="11" fill="#0969da" font-family="system-ui,-apple-system,Segoe UI,Roboto,sans-serif">TypeScript</text><rect x="137.3844" y="117" width="175.4356" height="18" rx="3" fill="#0969da" opacity="0.12"/><rect x="137.3844" y="117" width="9" height="18" rx="3" fill="#0969da" opacity="0.55"/><text x="151.3844" y="130" font-size="10" fill="#0969da" font-weight="700" font-family="system-ui,-apple-system,Segoe UI,Roboto,sans-serif">5.3%</text><text x="4" y="164" font-size="11" fill="#0969da" font-family="system-ui,-apple-system,Segoe UI,Roboto,sans-serif">Cython</text><rect x="137.3844" y="151" width="175.4356" height="18" rx="3" fill="#0969da" opacity="0.12"/><rect x="137.3844" y="151" width="2" height="18" rx="3" fill="#0969da" opacity="0.55"/><text x="144.3844" y="164" font-size="10" fill="#0969da" font-weight="700" font-family="system-ui,-apple-system,Segoe UI,Roboto,sans-serif">1.4%</text><text x="4" y="198" font-size="11" fill="#0969da" font-family="system-ui,-apple-system,Segoe UI,Roboto,sans-serif">PowerShell</text><rect x="137.3844" y="185" width="175.4356" height="18" rx="3" fill="#0969da" opacity="0.12"/><rect x="137.3844" y="185" width="2" height="18" rx="3" fill="#0969da" opacity="0.55"/><text x="144.3844" y="198" font-size="10" fill="#0969da" font-weight="700" font-family="system-ui,-apple-system,Segoe UI,Roboto,sans-serif">0.9%</text>
</g>
<rect x="337.82" y="3" width="144.35999999999999" height="264" rx="6" fill="#9a6700" opacity="0.15" stroke="#9a6700" stroke-width="1.5"/><path d="M343.82,3 h132.35999999999999 a6,6 0 0 1 6,6 v26 h-144.35999999999999 v-26 a6,6 0 0 1 6,-6 z" fill="#9a6700" opacity="0.1"/><line x1="337.82" y1="35" x2="482.17999999999995" y2="35" stroke="#9a6700" stroke-width="0.75" opacity="0.45"/><text x="345.82" y="19" font-size="12" fill="#9a6700" font-family="system-ui,-apple-system,Segoe UI,Roboto,sans-serif" font-weight="700">Tier &amp; Activity</text><text x="345.82" y="31" font-size="9" fill="#9a6700" opacity="0.95" font-weight="600" font-family="system-ui,-apple-system,Segoe UI,Roboto,sans-serif">Portfolio composition</text>
<text x="345.82" y="52" font-size="9" font-weight="700" fill="#9a6700" opacity="0.7" letter-spacing="0.6" font-family="system-ui,-apple-system,Segoe UI,Roboto,sans-serif">TIERS</text>
<g><text x="345.82" y="69" font-size="11">🏆</text><text x="365.82" y="69" font-size="11" fill="#9a6700" font-weight="600" font-family="system-ui,-apple-system,Segoe UI,Roboto,sans-serif">Flagship</text><text x="470.17999999999995" y="69" font-size="12" fill="#9a6700" font-weight="700" font-family="system-ui,-apple-system,Segoe UI,Roboto,sans-serif" text-anchor="end">21</text><text x="345.82" y="91" font-size="11">⭐</text><text x="365.82" y="91" font-size="11" fill="#9a6700" font-weight="600" font-family="system-ui,-apple-system,Segoe UI,Roboto,sans-serif">Notable</text><text x="470.17999999999995" y="91" font-size="12" fill="#9a6700" font-weight="700" font-family="system-ui,-apple-system,Segoe UI,Roboto,sans-serif" text-anchor="end">32</text><text x="345.82" y="113" font-size="11">🤖</text><text x="365.82" y="113" font-size="11" fill="#9a6700" font-weight="600" font-family="system-ui,-apple-system,Segoe UI,Roboto,sans-serif">Agents</text><text x="470.17999999999995" y="113" font-size="12" fill="#9a6700" font-weight="700" font-family="system-ui,-apple-system,Segoe UI,Roboto,sans-serif" text-anchor="end">66</text><text x="345.82" y="135" font-size="11">🪦</text><text x="365.82" y="135" font-size="11" fill="#9a6700" font-weight="600" font-family="system-ui,-apple-system,Segoe UI,Roboto,sans-serif">Archived</text><text x="470.17999999999995" y="135" font-size="12" fill="#9a6700" font-weight="700" font-family="system-ui,-apple-system,Segoe UI,Roboto,sans-serif" text-anchor="end">15</text></g>
<text x="345.82" y="162" font-size="9" font-weight="700" fill="#9a6700" opacity="0.7" letter-spacing="0.6" font-family="system-ui,-apple-system,Segoe UI,Roboto,sans-serif">ACTIVITY</text>
<g><text x="345.82" y="179" font-size="11">⭐</text><text x="365.82" y="179" font-size="11" fill="#9a6700" font-weight="600" font-family="system-ui,-apple-system,Segoe UI,Roboto,sans-serif">Stars</text><text x="470.17999999999995" y="179" font-size="12" fill="#9a6700" font-weight="700" font-family="system-ui,-apple-system,Segoe UI,Roboto,sans-serif" text-anchor="end">22</text><text x="345.82" y="201" font-size="11">🚀</text><text x="365.82" y="201" font-size="11" fill="#9a6700" font-weight="600" font-family="system-ui,-apple-system,Segoe UI,Roboto,sans-serif">Active &lt;30d</text><text x="470.17999999999995" y="201" font-size="12" fill="#9a6700" font-weight="700" font-family="system-ui,-apple-system,Segoe UI,Roboto,sans-serif" text-anchor="end">46</text><text x="345.82" y="223" font-size="11">📂</text><text x="365.82" y="223" font-size="11" fill="#9a6700" font-weight="600" font-family="system-ui,-apple-system,Segoe UI,Roboto,sans-serif">Public</text><text x="470.17999999999995" y="223" font-size="12" fill="#9a6700" font-weight="700" font-family="system-ui,-apple-system,Segoe UI,Roboto,sans-serif" text-anchor="end">34</text><text x="345.82" y="245" font-size="11">🔒</text><text x="365.82" y="245" font-size="11" fill="#9a6700" font-weight="600" font-family="system-ui,-apple-system,Segoe UI,Roboto,sans-serif">Private</text><text x="470.17999999999995" y="245" font-size="12" fill="#9a6700" font-weight="700" font-family="system-ui,-apple-system,Segoe UI,Roboto,sans-serif" text-anchor="end">36</text></g>
<rect x="488.17999999999995" y="3" width="328.82" height="264" rx="6" fill="#8250df" opacity="0.15" stroke="#8250df" stroke-width="1.5"/><path d="M494.17999999999995,3 h316.82 a6,6 0 0 1 6,6 v26 h-328.82 v-26 a6,6 0 0 1 6,-6 z" fill="#8250df" opacity="0.1"/><line x1="488.17999999999995" y1="35" x2="817" y2="35" stroke="#8250df" stroke-width="0.75" opacity="0.45"/><text x="496.17999999999995" y="19" font-size="12" fill="#8250df" font-family="system-ui,-apple-system,Segoe UI,Roboto,sans-serif" font-weight="700">Top Themes</text><text x="496.17999999999995" y="31" font-size="9" fill="#8250df" opacity="0.95" font-weight="600" font-family="system-ui,-apple-system,Segoe UI,Roboto,sans-serif">Topic clusters</text>
<g transform="translate(496.17999999999995, 41)">
<text x="4" y="28" font-size="11" fill="#8250df" font-family="system-ui,-apple-system,Segoe UI,Roboto,sans-serif">AI &amp; Copilot</text><rect x="137.3844" y="15" width="175.4356" height="18" rx="3" fill="#8250df" opacity="0.12"/><rect x="137.3844" y="15" width="110" height="18" rx="3" fill="#8250df" opacity="0.55"/><text x="252.3844" y="28" font-size="10" fill="#8250df" font-weight="700" font-family="system-ui,-apple-system,Segoe UI,Roboto,sans-serif">27</text><text x="4" y="56" font-size="11" fill="#8250df" font-family="system-ui,-apple-system,Segoe UI,Roboto,sans-serif">Cognitive<tspan x="4" dy="12">Architecture</tspan></text><rect x="137.3844" y="49" width="175.4356" height="18" rx="3" fill="#8250df" opacity="0.12"/><rect x="137.3844" y="49" width="89" height="18" rx="3" fill="#8250df" opacity="0.55"/><text x="231.3844" y="62" font-size="10" fill="#8250df" font-weight="700" font-family="system-ui,-apple-system,Segoe UI,Roboto,sans-serif">22</text><text x="4" y="96" font-size="11" fill="#8250df" font-family="system-ui,-apple-system,Segoe UI,Roboto,sans-serif">Developer Tools</text><rect x="137.3844" y="83" width="175.4356" height="18" rx="3" fill="#8250df" opacity="0.12"/><rect x="137.3844" y="83" width="77" height="18" rx="3" fill="#8250df" opacity="0.55"/><text x="219.3844" y="96" font-size="10" fill="#8250df" font-weight="700" font-family="system-ui,-apple-system,Segoe UI,Roboto,sans-serif">19</text><text x="4" y="130" font-size="11" fill="#8250df" font-family="system-ui,-apple-system,Segoe UI,Roboto,sans-serif">Learning &amp; Research</text><rect x="137.3844" y="117" width="175.4356" height="18" rx="3" fill="#8250df" opacity="0.12"/><rect x="137.3844" y="117" width="49" height="18" rx="3" fill="#8250df" opacity="0.55"/><text x="191.3844" y="130" font-size="10" fill="#8250df" font-weight="700" font-family="system-ui,-apple-system,Segoe UI,Roboto,sans-serif">12</text><text x="4" y="158" font-size="11" fill="#8250df" font-family="system-ui,-apple-system,Segoe UI,Roboto,sans-serif">Finance &amp;<tspan x="4" dy="12">Investment</tspan></text><rect x="137.3844" y="151" width="175.4356" height="18" rx="3" fill="#8250df" opacity="0.12"/><rect x="137.3844" y="151" width="32" height="18" rx="3" fill="#8250df" opacity="0.55"/><text x="174.3844" y="164" font-size="10" fill="#8250df" font-weight="700" font-family="system-ui,-apple-system,Segoe UI,Roboto,sans-serif">8</text><text x="4" y="198" font-size="11" fill="#8250df" font-family="system-ui,-apple-system,Segoe UI,Roboto,sans-serif">Cloud &amp; Azure</text><rect x="137.3844" y="185" width="175.4356" height="18" rx="3" fill="#8250df" opacity="0.12"/><rect x="137.3844" y="185" width="28" height="18" rx="3" fill="#8250df" opacity="0.55"/><text x="170.3844" y="198" font-size="10" fill="#8250df" font-weight="700" font-family="system-ui,-apple-system,Segoe UI,Roboto,sans-serif">7</text>
</g>
</g>
<text x="410" y="935" text-anchor="middle" font-family="Segoe UI, system-ui, sans-serif" font-size="13"><tspan font-weight="700" fill="#1f2328" >70</tspan><tspan fill="#64748b" dx="4">repositories across 10 categories</tspan><tspan fill="#64748b" dx="6">·</tspan><tspan font-weight="700" fill="#1f2328" dx="6">55</tspan><tspan fill="#64748b" dx="4">actively maintained</tspan><tspan fill="#64748b" dx="6">·</tspan><tspan font-weight="700" fill="#1f2328" dx="6">21</tspan><tspan fill="#64748b" dx="4">flagships</tspan></text>
</svg>