<svg xmlns="http://www.w3.org/2000/svg" viewBox="0 0 820 947" width="100%" preserveAspectRatio="xMidYMid meet" role="img" aria-label="Portfolio">
<title>Portfolio</title>
<g transform="translate(0, 0) scale(0.683333)">
<defs>
    <!-- Background gradient - deep space theme -->
    <linearGradient id="bgGrad" x1="0%" y1="0%" x2="100%" y2="100%">
      <stop offset="0%" stop-color="#020617"/>
      <stop offset="50%" stop-color="#0f172a"/>
      <stop offset="100%" stop-color="#1e293b"/>
    </linearGradient>

    <!-- Logo gradient with Azure blue -->
    <linearGradient id="logoGrad" x1="0%" y1="0%" x2="100%" y2="100%">
      <stop offset="0%" stop-color="#00bcf2"/>
      <stop offset="50%" stop-color="#0078d4"/>
      <stop offset="100%" stop-color="#005a9e"/>
    </linearGradient>

    <!-- Name gradient -->
    <linearGradient id="nameGrad" x1="0%" y1="0%" x2="100%" y2="0%">
      <stop offset="0%" stop-color="#f8fafc"/>
      <stop offset="50%" stop-color="#e2e8f0"/>
      <stop offset="100%" stop-color="#f8fafc"/>
    </linearGradient>

    <!-- Accent text gradient -->
    <linearGradient id="accentTextGrad" x1="0%" y1="0%" x2="100%" y2="0%">
      <stop offset="0%" stop-color="#00bcf2"/>
      <stop offset="50%" stop-color="#0078d4"/>
      <stop offset="100%" stop-color="#00bcf2"/>
    </linearGradient>

    <!-- Glow filter -->
    <filter id="glow" x="-50%" y="-50%" width="200%" height="200%">
      <feGaussianBlur stdDeviation="3" result="coloredBlur"/>
      <feMerge>
        <feMergeNode in="coloredBlur"/>
        <feMergeNode in="SourceGraphic"/>
      </feMerge>
    </filter>

    <!-- Strong glow for logo -->
    <filter id="logoGlow" x="-100%" y="-100%" width="300%" height="300%">
      <feGaussianBlur stdDeviation="6" result="blur1"/>
      <feGaussianBlur stdDeviation="12" result="blur2"/>
      <feMerge>
        <feMergeNode in="blur2"/>
        <feMergeNode in="blur1"/>
        <feMergeNode in="SourceGraphic"/>
      </feMerge>
    </filter>

    <!-- Radial glow behind logo -->
    <radialGradient id="logoBackGlow" cx="50%" cy="50%" r="50%">
      <stop offset="0%" stop-color="#0078d4" stop-opacity="0.4"/>
      <stop offset="50%" stop-color="#0078d4" stop-opacity="0.1"/>
      <stop offset="100%" stop-color="#0078d4" stop-opacity="0"/>
    </radialGradient>

    <!-- Grid pattern -->
    <pattern id="grid" width="50" height="50" patternUnits="userSpaceOnUse">
      <path d="M 50 0 L 0 0 0 50" fill="none" stroke="#1e3a5f" stroke-width="0.5" opacity="0.4"/>
    </pattern>

    <!-- Dot pattern -->
    <pattern id="dots" width="30" height="30" patternUnits="userSpaceOnUse">
      <circle cx="15" cy="15" r="1" fill="#0078d4" opacity="0.2"/>
    </pattern>

    <!-- Gradient for accent line -->
    <linearGradient id="accentGrad" x1="0%" y1="0%" x2="100%" y2="0%">
      <stop offset="0%" stop-color="#005a9e"/>
      <stop offset="25%" stop-color="#0078d4"/>
      <stop offset="50%" stop-color="#00bcf2"/>
      <stop offset="75%" stop-color="#0078d4"/>
      <stop offset="100%" stop-color="#005a9e"/>
    </linearGradient>

    <!-- Neural network gradient -->
    <linearGradient id="neuralGrad" x1="0%" y1="0%" x2="100%" y2="100%">
      <stop offset="0%" stop-color="#7c3aed"/>
      <stop offset="50%" stop-color="#0078d4"/>
      <stop offset="100%" stop-color="#00bcf2"/>
    </linearGradient>
  </defs>

  <!-- Background -->
  <rect width="1200" height="300" fill="url(#bgGrad)"/>

  <!-- Grid overlay -->
  <rect width="1200" height="300" fill="url(#grid)"/>

  <!-- Dot pattern overlay -->
  <rect width="1200" height="300" fill="url(#dots)" opacity="0.5"/>

  <!-- Large decorative orbs -->
  <circle cx="150" cy="150" r="180" fill="url(#logoBackGlow)"/>
  <circle cx="1050" cy="80" r="150" fill="#0078d4" opacity="0.05"/>
  <circle cx="1150" cy="280" r="180" fill="#00bcf2" opacity="0.03"/>
  <circle cx="50" cy="250" r="100" fill="#7c3aed" opacity="0.06"/>

  <!-- Neural network nodes - cognitive theme -->
  <g opacity="0.4">
    <!-- Left side neural cluster -->
    <circle cx="80" cy="60" r="4" fill="#7c3aed"/>
    <circle cx="120" cy="40" r="3" fill="#0078d4"/>
    <circle cx="60" cy="100" r="3" fill="#00bcf2"/>
    <circle cx="140" cy="90" r="2" fill="#7c3aed"/>
    <line x1="80" y1="60" x2="120" y2="40" stroke="#7c3aed" stroke-width="1"/>
    <line x1="80" y1="60" x2="60" y2="100" stroke="#0078d4" stroke-width="1"/>
    <line x1="120" y1="40" x2="140" y2="90" stroke="#00bcf2" stroke-width="0.5"/>

    <!-- Right side neural cluster -->
    <circle cx="1100" cy="70" r="3" fill="#00bcf2"/>
    <circle cx="1140" cy="50" r="2" fill="#0078d4"/>
    <circle cx="1080" cy="100" r="4" fill="#7c3aed"/>
    <circle cx="1120" cy="120" r="2" fill="#0078d4"/>
    <line x1="1100" y1="70" x2="1140" y2="50" stroke="#00bcf2" stroke-width="0.5"/>
    <line x1="1100" y1="70" x2="1080" y2="100" stroke="#7c3aed" stroke-width="1"/>
    <line x1="1080" y1="100" x2="1120" y2="120" stroke="#0078d4" stroke-width="0.5"/>
  </g>

  <!-- Floating particles -->
  <circle cx="300" cy="30" r="1.5" fill="#0078d4" opacity="0.5"/>
  <circle cx="500" cy="50" r="2" fill="#00bcf2" opacity="0.4"/>
  <circle cx="750" cy="25" r="1" fill="#7c3aed" opacity="0.6"/>
  <circle cx="950" cy="45" r="2.5" fill="#00bcf2" opacity="0.3"/>
  <circle cx="400" cy="270" r="2" fill="#00bcf2" opacity="0.4"/>
  <circle cx="700" cy="260" r="1.5" fill="#0078d4" opacity="0.5"/>
  <circle cx="900" cy="275" r="2" fill="#7c3aed" opacity="0.3"/>
  <circle cx="1050" cy="250" r="1" fill="#0078d4" opacity="0.6"/>

  <!-- Logo glow backdrop -->
  <ellipse cx="150" cy="150" rx="120" ry="110" fill="url(#logoBackGlow)"/>

  <!-- Logo mark (scaled) with glow -->
  <g transform="translate(55, 58) scale(6)" filter="url(#logoGlow)">
    <path d="M16 2C8.268 2 2 8.268 2 16s6.268 14 14 14c3.866 0 7.389-1.568 9.928-4.1l-3.535-3.536A9.002 9.002 0 0116 25c-4.97 0-9-4.03-9-9s4.03-9 9-9c2.29 0 4.38.857 5.971 2.268l3.464-3.639C22.993 3.352 19.66 2 16 2z" fill="url(#logoGrad)"/>
    <path d="M20 10l-4 6 4 6h4l-4-6 4-6h-4z" fill="url(#logoGrad)"/>
    <path d="M24 10l4 6-4 6h4l4-6-4-6h-4z" fill="url(#logoGrad)" opacity="0.6"/>
  </g>

  <text x="320" y="54" font-family="Segoe UI, system-ui, sans-serif" font-size="13" font-weight="600" fill="#94a3b8" letter-spacing="3">AUTOMATIC REPOSITORY PORTFOLIO FOR</text>
  <!-- Main name -->
  <text x="320" y="135" font-family="Segoe UI, system-ui, sans-serif" font-size="74" font-weight="700" fill="url(#nameGrad)" filter="url(#glow)">Dr. Fabio Correa, DBA</text>

  <!-- Title line -->
  <text x="320" y="180" font-family="Segoe UI, system-ui, sans-serif" font-size="22" fill="#94a3b8" letter-spacing="1" textLength="800" lengthAdjust="spacingAndGlyphs">Building AI-powered cognitive architectures for human-AI collaboration and organizational transformation.</text>

  <!-- Tagline with accent -->
  <text x="320" y="220" font-family="Segoe UI, system-ui, sans-serif" font-size="18" fill="url(#accentTextGrad)" letter-spacing="1.5">THINK • BUILD • DEPLOY</text>

  <!-- Decorative accent line -->
  <line x1="320" y1="240" x2="850" y2="240" stroke="#334155" stroke-width="1"/>
  <line x1="320" y1="243" x2="600" y2="243" stroke="url(#accentGrad)" stroke-width="2" opacity="0.6"/>

  <!-- CorreaX branding badge -->
  <g transform="translate(320, 255)" font-family="Segoe UI, system-ui, sans-serif" font-size="12" fill="#94a3b8"><text letter-spacing="1">UPDATED</text><text x="70" font-weight="700">Apr 25 2026 20:10 EDT</text></g>

  <!-- Tech circuit decorations on right -->
  <g opacity="0.25">
    <path d="M1000 140 h80 v40 h40" stroke="#0078d4" stroke-width="1.5" fill="none"/>
    <circle cx="1000" cy="140" r="3" fill="#0078d4"/>
    <circle cx="1120" cy="180" r="4" fill="#00bcf2"/>
    <path d="M1020 200 h60 v-25 h30" stroke="#7c3aed" stroke-width="1" fill="none"/>
    <circle cx="1020" cy="200" r="2" fill="#7c3aed"/>
    <path d="M980 100 h50 l20 20 h40" stroke="#00bcf2" stroke-width="1" fill="none"/>
    <circle cx="980" cy="100" r="2" fill="#00bcf2"/>
  </g>

  <!-- Bottom accent bar with glow -->
  <rect x="0" y="290" width="1200" height="10" fill="url(#accentGrad)" filter="url(#glow)"/>
</g>
<g transform="translate(0, 217)">
<rect width="820" height="416" fill="none"/>
  <rect x="3" y="3" width="294.5235602094241" height="202" rx="6" fill="#57606a" opacity="0.15" stroke="#57606a" stroke-width="1.5"/><path d="M9,3 h282.5235602094241 a6,6 0 0 1 6,6 v16 h-294.5235602094241 v-16 a6,6 0 0 1 6,-6 z" fill="#57606a" opacity="0.1"/><line x1="3" y1="25" x2="297.5235602094241" y2="25" stroke="#57606a" stroke-width="0.75" opacity="0.45"/><text x="11" y="19" font-size="12" fill="#57606a" font-family="system-ui,-apple-system,Segoe UI,Roboto,sans-serif" font-weight="700">Other</text>
  <rect x="4" y="27" width="44.03726209325375" height="176" rx="3" fill="#57606a" opacity="0.31"/>
  <text x="26.018631046626876" y="115" text-anchor="middle" dominant-baseline="central" font-size="16" fill="#57606a" font-family="system-ui,sans-serif" font-weight="400" transform="rotate(-90,26.018631046626876,115)">python</text>
  <rect x="49.03726209325375" y="27" width="40.20033636540375" height="176" rx="3" fill="#57606a" opacity="0.30"/>
  <text x="69.13743027595562" y="115" text-anchor="middle" dominant-baseline="central" font-size="16" fill="#57606a" font-family="system-ui,sans-serif" font-weight="400" transform="rotate(-90,69.13743027595562,115)">microsoft</text>
  <rect x="90.2375984586575" y="27" width="35.956273932559846" height="176" rx="3" fill="#57606a" opacity="0.28"/>
  <text x="108.21573542493742" y="115" text-anchor="middle" dominant-baseline="central" font-size="13" fill="#57606a" font-family="system-ui,sans-serif" font-weight="400" transform="rotate(-90,108.21573542493742,115)">human ai collaboration</text>
  <rect x="127.19387239121735" y="27" width="35.956273932559846" height="176" rx="3" fill="#57606a" opacity="0.28"/>
  <text x="145.17200935749727" y="115" text-anchor="middle" dominant-baseline="central" font-size="16" fill="#57606a" font-family="system-ui,sans-serif" font-weight="400" transform="rotate(-90,145.17200935749727,115)">skills</text>
  <rect x="164.1501463237772" y="27" width="35.956273932559846" height="176" rx="3" fill="#57606a" opacity="0.28"/>
  <text x="182.1282832900571" y="115" text-anchor="middle" dominant-baseline="central" font-size="16" fill="#57606a" font-family="system-ui,sans-serif" font-weight="400" transform="rotate(-90,182.1282832900571,115)">developer tools</text>
  <rect x="201.10642025633703" y="27" width="31.139046651029023" height="176" rx="3" fill="#57606a" opacity="0.27"/>
  <text x="216.67594358185156" y="115" text-anchor="middle" dominant-baseline="central" font-size="16" fill="#57606a" font-family="system-ui,sans-serif" font-weight="400" transform="rotate(-90,216.67594358185156,115)">prompt engineering</text>
  <rect x="233.24546690736605" y="27" width="31.139046651029023" height="176" rx="3" fill="#57606a" opacity="0.27"/>
  <text x="248.81499023288058" y="115" text-anchor="middle" dominant-baseline="central" font-size="16" fill="#57606a" font-family="system-ui,sans-serif" font-weight="400" transform="rotate(-90,248.81499023288058,115)">dashboard</text>
  <rect x="265.38451355839504" y="27" width="31.139046651029048" height="176" rx="3" fill="#57606a" opacity="0.27"/>
  <text x="280.95403688390957" y="115" text-anchor="middle" dominant-baseline="central" font-size="16" fill="#57606a" font-family="system-ui,sans-serif" font-weight="400" transform="rotate(-90,280.95403688390957,115)">msal</text>
  <rect x="303.5235602094241" y="3" width="191.4869109947644" height="202" rx="6" fill="#4e79a7" opacity="0.15" stroke="#4e79a7" stroke-width="1.5"/><path d="M309.5235602094241,3 h179.4869109947644 a6,6 0 0 1 6,6 v16 h-191.4869109947644 v-16 a6,6 0 0 1 6,-6 z" fill="#4e79a7" opacity="0.1"/><line x1="303.5235602094241" y1="25" x2="495.0104712041885" y2="25" stroke="#4e79a7" stroke-width="0.75" opacity="0.45"/><text x="311.5235602094241" y="19" font-size="12" fill="#4e79a7" font-family="system-ui,-apple-system,Segoe UI,Roboto,sans-serif" font-weight="700">AI &amp; Copilot</text>
  <rect x="304.5235602094241" y="27" width="31.63250941521844" height="176" rx="3" fill="#4e79a7" opacity="0.34"/>
  <text x="320.3398149170333" y="115" text-anchor="middle" dominant-baseline="central" font-size="16" fill="#4e79a7" font-family="system-ui,sans-serif" font-weight="600" transform="rotate(-90,320.3398149170333,115)">github copilot</text>
  <rect x="337.15606962464256" y="27" width="31.63250941521844" height="176" rx="3" fill="#4e79a7" opacity="0.34"/>
  <text x="352.9723243322518" y="115" text-anchor="middle" dominant-baseline="central" font-size="16" fill="#4e79a7" font-family="system-ui,sans-serif" font-weight="600" transform="rotate(-90,352.9723243322518,115)">ai</text>
  <rect x="369.788579039861" y="27" width="27.3945567390296" height="176" rx="3" fill="#4e79a7" opacity="0.31"/>
  <text x="383.4858574093758" y="115" text-anchor="middle" dominant-baseline="central" font-size="16" fill="#4e79a7" font-family="system-ui,sans-serif" font-weight="400" transform="rotate(-90,383.4858574093758,115)">ai assistant</text>
  <rect x="398.18313577889063" y="27" width="25.007694464702798" height="176" rx="3" fill="#4e79a7" opacity="0.30"/>
  <text x="410.68698301124203" y="115" text-anchor="middle" dominant-baseline="central" font-size="16" fill="#4e79a7" font-family="system-ui,sans-serif" font-weight="400" transform="rotate(-90,410.68698301124203,115)">copilot</text>
  <rect x="424.19083024359344" y="27" width="19.370876837767465" height="176" rx="3" fill="#4e79a7" opacity="0.27"/>
  <text x="433.8762686624772" y="115" text-anchor="middle" dominant-baseline="central" font-size="14" fill="#4e79a7" font-family="system-ui,sans-serif" font-weight="400" transform="rotate(-90,433.8762686624772,115)">ai adoption</text>
  <rect x="444.5617070813609" y="27" width="15.81625470760922" height="176" rx="3" fill="#4e79a7" opacity="0.25"/>
  <text x="452.4698344351655" y="115" text-anchor="middle" dominant-baseline="central" font-size="11" fill="#4e79a7" font-family="system-ui,sans-serif" font-weight="400" transform="rotate(-90,452.4698344351655,115)">ai coding</text>
  <rect x="461.37796178897014" y="27" width="15.81625470760922" height="176" rx="3" fill="#4e79a7" opacity="0.25"/>
  <text x="469.28608914277476" y="115" text-anchor="middle" dominant-baseline="central" font-size="11" fill="#4e79a7" font-family="system-ui,sans-serif" font-weight="400" transform="rotate(-90,469.28608914277476,115)">ai research</text>
  <rect x="478.1942164965794" y="27" width="15.816254707609119" height="176" rx="3" fill="#4e79a7" opacity="0.25"/>
  <text x="486.10234385038393" y="115" text-anchor="middle" dominant-baseline="central" font-size="11" fill="#4e79a7" font-family="system-ui,sans-serif" font-weight="400" transform="rotate(-90,486.10234385038393,115)">copilot extensions</text>
  <rect x="501.0104712041885" y="3" width="165.72774869109946" height="202" rx="6" fill="#edc948" opacity="0.15" stroke="#edc948" stroke-width="1.5"/><path d="M507.0104712041885,3 h153.72774869109946 a6,6 0 0 1 6,6 v16 h-165.72774869109946 v-16 a6,6 0 0 1 6,-6 z" fill="#edc948" opacity="0.1"/><line x1="501.0104712041885" y1="25" x2="666.738219895288" y2="25" stroke="#edc948" stroke-width="0.75" opacity="0.45"/><text x="509.0104712041885" y="19" font-size="12" fill="#edc948" font-family="system-ui,-apple-system,Segoe UI,Roboto,sans-serif" font-weight="700">Developer Tools</text>
  <rect x="502.0104712041885" y="27" width="29.525393200100005" height="176" rx="3" fill="#edc948" opacity="0.37"/>
  <text x="516.7731678042385" y="115" text-anchor="middle" dominant-baseline="central" font-size="16" fill="#edc948" font-family="system-ui,sans-serif" font-weight="600" transform="rotate(-90,516.7731678042385,115)">typescript</text>
  <rect x="532.5358644042885" y="27" width="24.702716258224683" height="176" rx="3" fill="#edc948" opacity="0.33"/>
  <text x="544.8872225334009" y="115" text-anchor="middle" dominant-baseline="central" font-size="16" fill="#edc948" font-family="system-ui,sans-serif" font-weight="400" transform="rotate(-90,544.8872225334009,115)">vscode</text>
  <rect x="558.2385806625132" y="27" width="22.870271230842604" height="176" rx="3" fill="#edc948" opacity="0.31"/>
  <text x="569.6737162779345" y="115" text-anchor="middle" dominant-baseline="central" font-size="16" fill="#edc948" font-family="system-ui,sans-serif" font-weight="400" transform="rotate(-90,569.6737162779345,115)">vscode extension</text>
  <rect x="582.1088518933558" y="27" width="20.87760574898989" height="176" rx="3" fill="#edc948" opacity="0.30"/>
  <text x="592.5476547678508" y="115" text-anchor="middle" dominant-baseline="central" font-size="15" fill="#edc948" font-family="system-ui,sans-serif" font-weight="400" transform="rotate(-90,592.5476547678508,115)">react</text>
  <rect x="603.9864576423457" y="27" width="16.171723874904412" height="176" rx="3" fill="#edc948" opacity="0.27"/>
  <text x="612.072319579798" y="115" text-anchor="middle" dominant-baseline="central" font-size="12" fill="#edc948" font-family="system-ui,sans-serif" font-weight="400" transform="rotate(-90,612.072319579798,115)">javascript</text>
  <rect x="621.1581815172501" y="27" width="16.171723874904412" height="176" rx="3" fill="#edc948" opacity="0.27"/>
  <text x="629.2440434547024" y="115" text-anchor="middle" dominant-baseline="central" font-size="12" fill="#edc948" font-family="system-ui,sans-serif" font-weight="400" transform="rotate(-90,629.2440434547024,115)">nodejs</text>
  <rect x="638.3299053921545" y="27" width="13.204157251566732" height="176" rx="3" fill="#edc948" opacity="0.25"/>
  <text x="644.9319840179379" y="115" text-anchor="middle" dominant-baseline="central" font-size="9" fill="#edc948" font-family="system-ui,sans-serif" font-weight="400" transform="rotate(-90,644.9319840179379,115)">markdown</text>
  <rect x="652.5340626437212" y="27" width="13.204157251566812" height="176" rx="3" fill="#edc948" opacity="0.25"/>
  <text x="659.1361412695046" y="115" text-anchor="middle" dominant-baseline="central" font-size="9" fill="#edc948" font-family="system-ui,sans-serif" font-weight="400" transform="rotate(-90,659.1361412695046,115)">vite</text>
  <rect x="672.738219895288" y="3" width="144.261780104712" height="202" rx="6" fill="#e15759" opacity="0.15" stroke="#e15759" stroke-width="1.5"/><path d="M678.738219895288,3 h132.261780104712 a6,6 0 0 1 6,6 v16 h-144.261780104712 v-16 a6,6 0 0 1 6,-6 z" fill="#e15759" opacity="0.1"/><line x1="672.738219895288" y1="25" x2="817" y2="25" stroke="#e15759" stroke-width="0.75" opacity="0.45"/><text x="680.738219895288" y="19" font-size="12" fill="#e15759" font-family="system-ui,-apple-system,Segoe UI,Roboto,sans-serif" font-weight="700">Cloud &amp; Azure</text>
  <rect x="673.738219895288" y="27" width="34.822695883472974" height="176" rx="3" fill="#e15759" opacity="0.45"/>
  <text x="691.1495678370245" y="115" text-anchor="middle" dominant-baseline="central" font-size="16" fill="#e15759" font-family="system-ui,sans-serif" font-weight="600" transform="rotate(-90,691.1495678370245,115)">azure</text>
  <rect x="709.560915778761" y="27" width="15.573183031049533" height="176" rx="3" fill="#e15759" opacity="0.27"/>
  <text x="717.3475072942857" y="115" text-anchor="middle" dominant-baseline="central" font-size="11" fill="#e15759" font-family="system-ui,sans-serif" font-weight="400" transform="rotate(-90,717.3475072942857,115)">azure openai</text>
  <rect x="726.1340988098106" y="27" width="15.573183031049533" height="176" rx="3" fill="#e15759" opacity="0.27"/>
  <text x="733.9206903253353" y="115" text-anchor="middle" dominant-baseline="central" font-size="11" fill="#e15759" font-family="system-ui,sans-serif" font-weight="400" transform="rotate(-90,733.9206903253353,115)">azure functions</text>
  <rect x="742.7072818408601" y="27" width="15.573183031049533" height="176" rx="3" fill="#e15759" opacity="0.27"/>
  <text x="750.4938733563848" y="115" text-anchor="middle" dominant-baseline="central" font-size="11" fill="#e15759" font-family="system-ui,sans-serif" font-weight="400" transform="rotate(-90,750.4938733563848,115)">azure static web apps</text>
  <rect x="759.2804648719097" y="27" width="15.573183031049533" height="176" rx="3" fill="#e15759" opacity="0.27"/>
  <text x="767.0670563874344" y="115" text-anchor="middle" dominant-baseline="central" font-size="11" fill="#e15759" font-family="system-ui,sans-serif" font-weight="400" transform="rotate(-90,767.0670563874344,115)">dotnet</text>
  <rect x="775.8536479029592" y="27" width="12.715450699013626" height="176" rx="3" fill="#e15759" opacity="0.25"/>
  <text x="782.211373252466" y="115" text-anchor="middle" dominant-baseline="central" font-size="9" fill="#e15759" font-family="system-ui,sans-serif" font-weight="400" transform="rotate(-90,782.211373252466,115)">sfi</text>
  <rect x="789.5690986019729" y="27" width="12.715450699013626" height="176" rx="3" fill="#e15759" opacity="0.25"/>
  <text x="795.9268239514797" y="115" text-anchor="middle" dominant-baseline="central" font-size="9" fill="#e15759" font-family="system-ui,sans-serif" font-weight="400" transform="rotate(-90,795.9268239514797,115)">infrastructure management</text>
  <rect x="803.2845493009866" y="27" width="12.715450699013445" height="176" rx="3" fill="#e15759" opacity="0.25"/>
  <text x="809.6422746504933" y="115" text-anchor="middle" dominant-baseline="central" font-size="9" fill="#e15759" font-family="system-ui,sans-serif" font-weight="400" transform="rotate(-90,809.6422746504933,115)">microsoft internal</text>
  <rect x="3" y="211" width="357.1428571428571" height="202" rx="6" fill="#f28e2b" opacity="0.15" stroke="#f28e2b" stroke-width="1.5"/><path d="M9,211 h345.1428571428571 a6,6 0 0 1 6,6 v16 h-357.1428571428571 v-16 a6,6 0 0 1 6,-6 z" fill="#f28e2b" opacity="0.1"/><line x1="3" y1="233" x2="360.1428571428571" y2="233" stroke="#f28e2b" stroke-width="0.75" opacity="0.45"/><text x="11" y="227" font-size="12" fill="#f28e2b" font-family="system-ui,-apple-system,Segoe UI,Roboto,sans-serif" font-weight="700">Cognitive Architecture</text>
  <rect x="4" y="235" width="90.57743749499163" height="176" rx="3" fill="#f28e2b" opacity="0.42"/>
  <text x="49.288718747495814" y="323" text-anchor="middle" dominant-baseline="central" font-size="13" fill="#f28e2b" font-family="system-ui,sans-serif" font-weight="600" transform="rotate(-90,49.288718747495814,323)">cognitive architecture</text>
  <rect x="95.57743749499163" y="235" width="50.243322352050285" height="176" rx="3" fill="#f28e2b" opacity="0.28"/>
  <text x="120.69909867101677" y="323" text-anchor="middle" dominant-baseline="central" font-size="16" fill="#f28e2b" font-family="system-ui,sans-serif" font-weight="400" transform="rotate(-90,120.69909867101677,323)">meta cognition</text>
  <rect x="146.82075984704193" y="235" width="50.243322352050285" height="176" rx="3" fill="#f28e2b" opacity="0.28"/>
  <text x="171.94242102306708" y="323" text-anchor="middle" dominant-baseline="central" font-size="16" fill="#f28e2b" font-family="system-ui,sans-serif" font-weight="400" transform="rotate(-90,171.94242102306708,323)">mcp</text>
  <rect x="198.0640821990922" y="235" width="43.511993527406055" height="176" rx="3" fill="#f28e2b" opacity="0.27"/>
  <text x="219.82007896279524" y="323" text-anchor="middle" dominant-baseline="central" font-size="16" fill="#f28e2b" font-family="system-ui,sans-serif" font-weight="400" transform="rotate(-90,219.82007896279524,323)">cognitive science</text>
  <rect x="242.57607572649826" y="235" width="43.511993527406055" height="176" rx="3" fill="#f28e2b" opacity="0.27"/>
  <text x="264.3320724902013" y="323" text-anchor="middle" dominant-baseline="central" font-size="13" fill="#f28e2b" font-family="system-ui,sans-serif" font-weight="400" transform="rotate(-90,264.3320724902013,323)">model context protocol</text>
  <rect x="287.08806925390434" y="235" width="35.527393944476394" height="176" rx="3" fill="#f28e2b" opacity="0.25"/>
  <text x="304.85176622614256" y="323" text-anchor="middle" dominant-baseline="central" font-size="16" fill="#f28e2b" font-family="system-ui,sans-serif" font-weight="400" transform="rotate(-90,304.85176622614256,323)">memory systems</text>
  <rect x="323.6154631983807" y="235" width="35.52739394447639" height="176" rx="3" fill="#f28e2b" opacity="0.25"/>
  <text x="341.3791601706189" y="323" text-anchor="middle" dominant-baseline="central" font-size="16" fill="#f28e2b" font-family="system-ui,sans-serif" font-weight="400" transform="rotate(-90,341.3791601706189,323)">neuroscience</text>
  <rect x="366.1428571428571" y="211" width="169.7142857142857" height="202" rx="6" fill="#76b7b2" opacity="0.15" stroke="#76b7b2" stroke-width="1.5"/><path d="M372.1428571428571,211 h157.7142857142857 a6,6 0 0 1 6,6 v16 h-169.7142857142857 v-16 a6,6 0 0 1 6,-6 z" fill="#76b7b2" opacity="0.1"/><line x1="366.1428571428571" y1="233" x2="535.8571428571428" y2="233" stroke="#76b7b2" stroke-width="0.75" opacity="0.45"/><text x="374.1428571428571" y="227" font-size="12" fill="#76b7b2" font-family="system-ui,-apple-system,Segoe UI,Roboto,sans-serif" font-weight="700">Learning &amp; Research</text>
  <rect x="367.1428571428571" y="235" width="27.413942718392015" height="176" rx="3" fill="#76b7b2" opacity="0.27"/>
  <text x="380.84982850205313" y="323" text-anchor="middle" dominant-baseline="central" font-size="16" fill="#76b7b2" font-family="system-ui,sans-serif" font-weight="400" transform="rotate(-90,380.84982850205313,323)">academic research</text>
  <rect x="395.55679986124915" y="235" width="22.383390499315613" height="176" rx="3" fill="#76b7b2" opacity="0.25"/>
  <text x="406.74849511090696" y="323" text-anchor="middle" dominant-baseline="central" font-size="16" fill="#76b7b2" font-family="system-ui,sans-serif" font-weight="400" transform="rotate(-90,406.74849511090696,323)">dissertation</text>
  <rect x="418.94019036056477" y="235" width="22.383390499315613" height="176" rx="3" fill="#76b7b2" opacity="0.25"/>
  <text x="430.1318856102226" y="323" text-anchor="middle" dominant-baseline="central" font-size="16" fill="#76b7b2" font-family="system-ui,sans-serif" font-weight="400" transform="rotate(-90,430.1318856102226,323)">utaut2</text>
  <rect x="442.3235808598804" y="235" width="22.383390499315613" height="176" rx="3" fill="#76b7b2" opacity="0.25"/>
  <text x="453.5152761095382" y="323" text-anchor="middle" dominant-baseline="central" font-size="16" fill="#76b7b2" font-family="system-ui,sans-serif" font-weight="400" transform="rotate(-90,453.5152761095382,323)">flashcards</text>
  <rect x="465.706971359196" y="235" width="22.383390499315613" height="176" rx="3" fill="#76b7b2" opacity="0.25"/>
  <text x="476.89866660885383" y="323" text-anchor="middle" dominant-baseline="central" font-size="16" fill="#76b7b2" font-family="system-ui,sans-serif" font-weight="400" transform="rotate(-90,476.89866660885383,323)">learning</text>
  <rect x="489.09036185851164" y="235" width="22.383390499315613" height="176" rx="3" fill="#76b7b2" opacity="0.25"/>
  <text x="500.28205710816945" y="323" text-anchor="middle" dominant-baseline="central" font-size="16" fill="#76b7b2" font-family="system-ui,sans-serif" font-weight="400" transform="rotate(-90,500.28205710816945,323)">meta learning</text>
  <rect x="512.4737523578273" y="235" width="22.38339049931551" height="176" rx="3" fill="#76b7b2" opacity="0.25"/>
  <text x="523.665447607485" y="323" text-anchor="middle" dominant-baseline="central" font-size="16" fill="#76b7b2" font-family="system-ui,sans-serif" font-weight="400" transform="rotate(-90,523.665447607485,323)">tutorial</text>
  <rect x="541.8571428571428" y="211" width="158" height="202" rx="6" fill="#b07aa1" opacity="0.15" stroke="#b07aa1" stroke-width="1.5"/><path d="M547.8571428571428,211 h146 a6,6 0 0 1 6,6 v16 h-158 v-16 a6,6 0 0 1 6,-6 z" fill="#b07aa1" opacity="0.1"/><line x1="541.8571428571428" y1="233" x2="699.8571428571428" y2="233" stroke="#b07aa1" stroke-width="0.75" opacity="0.45"/><text x="549.8571428571428" y="227" font-size="12" fill="#b07aa1" font-family="system-ui,-apple-system,Segoe UI,Roboto,sans-serif" font-weight="700">Healthcare &amp; Producti…</text>
  <rect x="542.8571428571428" y="235" width="33.2926625909429" height="176" rx="3" fill="#b07aa1" opacity="0.28"/>
  <text x="559.5034741526142" y="323" text-anchor="middle" dominant-baseline="central" font-size="16" fill="#b07aa1" font-family="system-ui,sans-serif" font-weight="400" transform="rotate(-90,559.5034741526142,323)">qualtrics</text>
  <rect x="577.1498054480857" y="235" width="23.54146748181142" height="176" rx="3" fill="#b07aa1" opacity="0.25"/>
  <text x="588.9205391889914" y="323" text-anchor="middle" dominant-baseline="central" font-size="16" fill="#b07aa1" font-family="system-ui,sans-serif" font-weight="400" transform="rotate(-90,588.9205391889914,323)">power user</text>
  <rect x="601.6912729298971" y="235" width="23.54146748181142" height="176" rx="3" fill="#b07aa1" opacity="0.25"/>
  <text x="613.4620066708028" y="323" text-anchor="middle" dominant-baseline="central" font-size="16" fill="#b07aa1" font-family="system-ui,sans-serif" font-weight="400" transform="rotate(-90,613.4620066708028,323)">setup guide</text>
  <rect x="626.2327404117085" y="235" width="23.54146748181142" height="176" rx="3" fill="#b07aa1" opacity="0.25"/>
  <text x="638.0034741526142" y="323" text-anchor="middle" dominant-baseline="central" font-size="15" fill="#b07aa1" font-family="system-ui,sans-serif" font-weight="400" transform="rotate(-90,638.0034741526142,323)">customer experience</text>
  <rect x="650.7742078935199" y="235" width="23.54146748181142" height="176" rx="3" fill="#b07aa1" opacity="0.25"/>
  <text x="662.5449416344256" y="323" text-anchor="middle" dominant-baseline="central" font-size="16" fill="#b07aa1" font-family="system-ui,sans-serif" font-weight="400" transform="rotate(-90,662.5449416344256,323)">healthcare</text>
  <rect x="675.3156753753314" y="235" width="23.541467481811424" height="176" rx="3" fill="#b07aa1" opacity="0.25"/>
  <text x="687.0864091162371" y="323" text-anchor="middle" dominant-baseline="central" font-size="16" fill="#b07aa1" font-family="system-ui,sans-serif" font-weight="400" transform="rotate(-90,687.0864091162371,323)">productivity</text>
  <rect x="705.8571428571428" y="211" width="111.14285714285722" height="202" rx="6" fill="#59a14f" opacity="0.15" stroke="#59a14f" stroke-width="1.5"/><path d="M711.8571428571428,211 h99.14285714285722 a6,6 0 0 1 6,6 v16 h-111.14285714285722 v-16 a6,6 0 0 1 6,-6 z" fill="#59a14f" opacity="0.1"/><line x1="705.8571428571428" y1="233" x2="817" y2="233" stroke="#59a14f" stroke-width="0.75" opacity="0.45"/><text x="713.8571428571428" y="227" font-size="12" fill="#59a14f" font-family="system-ui,-apple-system,Segoe UI,Roboto,sans-serif" font-weight="700">Data Engineeri…</text>
  <rect x="706.8571428571428" y="235" width="21.028571428571446" height="176" rx="3" fill="#59a14f" opacity="0.25"/>
  <text x="717.3714285714285" y="323" text-anchor="middle" dominant-baseline="central" font-size="15" fill="#59a14f" font-family="system-ui,sans-serif" font-weight="400" transform="rotate(-90,717.3714285714285,323)">data visualization</text>
  <rect x="728.8857142857142" y="235" width="21.028571428571446" height="176" rx="3" fill="#59a14f" opacity="0.25"/>
  <text x="739.4" y="323" text-anchor="middle" dominant-baseline="central" font-size="15" fill="#59a14f" font-family="system-ui,sans-serif" font-weight="400" transform="rotate(-90,739.4,323)">survey analytics</text>
  <rect x="750.9142857142857" y="235" width="21.028571428571446" height="176" rx="3" fill="#59a14f" opacity="0.25"/>
  <text x="761.4285714285714" y="323" text-anchor="middle" dominant-baseline="central" font-size="15" fill="#59a14f" font-family="system-ui,sans-serif" font-weight="400" transform="rotate(-90,761.4285714285714,323)">data engineering</text>
  <rect x="772.9428571428572" y="235" width="21.028571428571446" height="176" rx="3" fill="#59a14f" opacity="0.25"/>
  <text x="783.4571428571429" y="323" text-anchor="middle" dominant-baseline="central" font-size="15" fill="#59a14f" font-family="system-ui,sans-serif" font-weight="400" transform="rotate(-90,783.4571428571429,323)">pyspark</text>
  <rect x="794.9714285714286" y="235" width="21.028571428571354" height="176" rx="3" fill="#59a14f" opacity="0.25"/>
  <text x="805.4857142857143" y="323" text-anchor="middle" dominant-baseline="central" font-size="15" fill="#59a14f" font-family="system-ui,sans-serif" font-weight="400" transform="rotate(-90,805.4857142857143,323)">cosmos db</text>
</g>
<g transform="translate(0, 639)">
<title>Portfolio at a Glance</title>
<rect width="820" height="270" fill="none"/>
<rect x="3" y="3" width="328.82" height="264" rx="6" fill="#0969da" opacity="0.15" stroke="#0969da" stroke-width="1.5"/><path d="M9,3 h316.82 a6,6 0 0 1 6,6 v26 h-328.82 v-26 a6,6 0 0 1 6,-6 z" fill="#0969da" opacity="0.1"/><line x1="3" y1="35" x2="331.82" y2="35" stroke="#0969da" stroke-width="0.75" opacity="0.45"/><text x="11" y="19" font-size="12" fill="#0969da" font-family="system-ui,-apple-system,Segoe UI,Roboto,sans-serif" font-weight="700">Top Languages</text><text x="11" y="31" font-size="9" fill="#0969da" opacity="0.95" font-weight="600" font-family="system-ui,-apple-system,Segoe UI,Roboto,sans-serif">By lines of code</text>
<g transform="translate(11, 41)">
<text x="4" y="28" font-size="11" fill="#0969da" font-family="system-ui,-apple-system,Segoe UI,Roboto,sans-serif">Python</text><rect x="137.3844" y="15" width="175.4356" height="18" rx="3" fill="#0969da" opacity="0.12"/><rect x="137.3844" y="15" width="102" height="18" rx="3" fill="#0969da" opacity="0.55"/><text x="244.3844" y="28" font-size="10" fill="#0969da" font-weight="700" font-family="system-ui,-apple-system,Segoe UI,Roboto,sans-serif">58.2%</text><text x="4" y="62" font-size="11" fill="#0969da" font-family="system-ui,-apple-system,Segoe UI,Roboto,sans-serif">Jupyter Notebook</text><rect x="137.3844" y="49" width="175.4356" height="18" rx="3" fill="#0969da" opacity="0.12"/><rect x="137.3844" y="49" width="47" height="18" rx="3" fill="#0969da" opacity="0.55"/><text x="189.3844" y="62" font-size="10" fill="#0969da" font-weight="700" font-family="system-ui,-apple-system,Segoe UI,Roboto,sans-serif">26.8%</text><text x="4" y="96" font-size="11" fill="#0969da" font-family="system-ui,-apple-system,Segoe UI,Roboto,sans-serif">TypeScript</text><rect x="137.3844" y="83" width="175.4356" height="18" rx="3" fill="#0969da" opacity="0.12"/><rect x="137.3844" y="83" width="9" height="18" rx="3" fill="#0969da" opacity="0.55"/><text x="151.3844" y="96" font-size="10" fill="#0969da" font-weight="700" font-family="system-ui,-apple-system,Segoe UI,Roboto,sans-serif">5.0%</text><text x="4" y="130" font-size="11" fill="#0969da" font-family="system-ui,-apple-system,Segoe UI,Roboto,sans-serif">JavaScript</text><rect x="137.3844" y="117" width="175.4356" height="18" rx="3" fill="#0969da" opacity="0.12"/><rect x="137.3844" y="117" width="7" height="18" rx="3" fill="#0969da" opacity="0.55"/><text x="149.3844" y="130" font-size="10" fill="#0969da" font-weight="700" font-family="system-ui,-apple-system,Segoe UI,Roboto,sans-serif">4.0%</text><text x="4" y="164" font-size="11" fill="#0969da" font-family="system-ui,-apple-system,Segoe UI,Roboto,sans-serif">PowerShell</text><rect x="137.3844" y="151" width="175.4356" height="18" rx="3" fill="#0969da" opacity="0.12"/><rect x="137.3844" y="151" width="3" height="18" rx="3" fill="#0969da" opacity="0.55"/><text x="145.3844" y="164" font-size="10" fill="#0969da" font-weight="700" font-family="system-ui,-apple-system,Segoe UI,Roboto,sans-serif">2.0%</text><text x="4" y="198" font-size="11" fill="#0969da" font-family="system-ui,-apple-system,Segoe UI,Roboto,sans-serif">Cython</text><rect x="137.3844" y="185" width="175.4356" height="18" rx="3" fill="#0969da" opacity="0.12"/><rect x="137.3844" y="185" width="2" height="18" rx="3" fill="#0969da" opacity="0.55"/><text x="144.3844" y="198" font-size="10" fill="#0969da" font-weight="700" font-family="system-ui,-apple-system,Segoe UI,Roboto,sans-serif">1.3%</text>
</g>
<rect x="337.82" y="3" width="144.35999999999999" height="264" rx="6" fill="#9a6700" opacity="0.15" stroke="#9a6700" stroke-width="1.5"/><path d="M343.82,3 h132.35999999999999 a6,6 0 0 1 6,6 v26 h-144.35999999999999 v-26 a6,6 0 0 1 6,-6 z" fill="#9a6700" opacity="0.1"/><line x1="337.82" y1="35" x2="482.17999999999995" y2="35" stroke="#9a6700" stroke-width="0.75" opacity="0.45"/><text x="345.82" y="19" font-size="12" fill="#9a6700" font-family="system-ui,-apple-system,Segoe UI,Roboto,sans-serif" font-weight="700">Tier &amp; Activity</text><text x="345.82" y="31" font-size="9" fill="#9a6700" opacity="0.95" font-weight="600" font-family="system-ui,-apple-system,Segoe UI,Roboto,sans-serif">Portfolio composition</text>
<text x="345.82" y="52" font-size="9" font-weight="700" fill="#9a6700" opacity="0.7" letter-spacing="0.6" font-family="system-ui,-apple-system,Segoe UI,Roboto,sans-serif">TIERS</text>
<g><text x="345.82" y="69" font-size="11">🏆</text><text x="365.82" y="69" font-size="11" fill="#9a6700" font-weight="600" font-family="system-ui,-apple-system,Segoe UI,Roboto,sans-serif">Flagship</text><text x="470.17999999999995" y="69" font-size="12" fill="#9a6700" font-weight="700" font-family="system-ui,-apple-system,Segoe UI,Roboto,sans-serif" text-anchor="end">15</text><text x="345.82" y="91" font-size="11">⭐</text><text x="365.82" y="91" font-size="11" fill="#9a6700" font-weight="600" font-family="system-ui,-apple-system,Segoe UI,Roboto,sans-serif">Notable</text><text x="470.17999999999995" y="91" font-size="12" fill="#9a6700" font-weight="700" font-family="system-ui,-apple-system,Segoe UI,Roboto,sans-serif" text-anchor="end">55</text><text x="345.82" y="113" font-size="11">🤖</text><text x="365.82" y="113" font-size="11" fill="#9a6700" font-weight="600" font-family="system-ui,-apple-system,Segoe UI,Roboto,sans-serif">Agents</text><text x="470.17999999999995" y="113" font-size="12" fill="#9a6700" font-weight="700" font-family="system-ui,-apple-system,Segoe UI,Roboto,sans-serif" text-anchor="end">94</text><text x="345.82" y="135" font-size="11">🪦</text><text x="365.82" y="135" font-size="11" fill="#9a6700" font-weight="600" font-family="system-ui,-apple-system,Segoe UI,Roboto,sans-serif">Archived</text><text x="470.17999999999995" y="135" font-size="12" fill="#9a6700" font-weight="700" font-family="system-ui,-apple-system,Segoe UI,Roboto,sans-serif" text-anchor="end">35</text></g>
<text x="345.82" y="162" font-size="9" font-weight="700" fill="#9a6700" opacity="0.7" letter-spacing="0.6" font-family="system-ui,-apple-system,Segoe UI,Roboto,sans-serif">ACTIVITY</text>
<g><text x="345.82" y="179" font-size="11">⭐</text><text x="365.82" y="179" font-size="11" fill="#9a6700" font-weight="600" font-family="system-ui,-apple-system,Segoe UI,Roboto,sans-serif">Stars</text><text x="470.17999999999995" y="179" font-size="12" fill="#9a6700" font-weight="700" font-family="system-ui,-apple-system,Segoe UI,Roboto,sans-serif" text-anchor="end">23</text><text x="345.82" y="201" font-size="11">🚀</text><text x="365.82" y="201" font-size="11" fill="#9a6700" font-weight="600" font-family="system-ui,-apple-system,Segoe UI,Roboto,sans-serif">Active &lt;30d</text><text x="470.17999999999995" y="201" font-size="12" fill="#9a6700" font-weight="700" font-family="system-ui,-apple-system,Segoe UI,Roboto,sans-serif" text-anchor="end">35</text><text x="345.82" y="223" font-size="11">📂</text><text x="365.82" y="223" font-size="11" fill="#9a6700" font-weight="600" font-family="system-ui,-apple-system,Segoe UI,Roboto,sans-serif">Public</text><text x="470.17999999999995" y="223" font-size="12" fill="#9a6700" font-weight="700" font-family="system-ui,-apple-system,Segoe UI,Roboto,sans-serif" text-anchor="end">48</text><text x="345.82" y="245" font-size="11">🔒</text><text x="365.82" y="245" font-size="11" fill="#9a6700" font-weight="600" font-family="system-ui,-apple-system,Segoe UI,Roboto,sans-serif">Private</text><text x="470.17999999999995" y="245" font-size="12" fill="#9a6700" font-weight="700" font-family="system-ui,-apple-system,Segoe UI,Roboto,sans-serif" text-anchor="end">57</text></g>
<rect x="488.17999999999995" y="3" width="328.82" height="264" rx="6" fill="#8250df" opacity="0.15" stroke="#8250df" stroke-width="1.5"/><path d="M494.17999999999995,3 h316.82 a6,6 0 0 1 6,6 v26 h-328.82 v-26 a6,6 0 0 1 6,-6 z" fill="#8250df" opacity="0.1"/><line x1="488.17999999999995" y1="35" x2="817" y2="35" stroke="#8250df" stroke-width="0.75" opacity="0.45"/><text x="496.17999999999995" y="19" font-size="12" fill="#8250df" font-family="system-ui,-apple-system,Segoe UI,Roboto,sans-serif" font-weight="700">Top Themes</text><text x="496.17999999999995" y="31" font-size="9" fill="#8250df" opacity="0.95" font-weight="600" font-family="system-ui,-apple-system,Segoe UI,Roboto,sans-serif">Topic clusters</text>
<g transform="translate(496.17999999999995, 41)">
<text x="4" y="28" font-size="11" fill="#8250df" font-family="system-ui,-apple-system,Segoe UI,Roboto,sans-serif">AI &amp; Copilot</text><rect x="137.3844" y="15" width="175.4356" height="18" rx="3" fill="#8250df" opacity="0.12"/><rect x="137.3844" y="15" width="102" height="18" rx="3" fill="#8250df" opacity="0.55"/><text x="244.3844" y="28" font-size="10" fill="#8250df" font-weight="700" font-family="system-ui,-apple-system,Segoe UI,Roboto,sans-serif">24</text><text x="4" y="62" font-size="11" fill="#8250df" font-family="system-ui,-apple-system,Segoe UI,Roboto,sans-serif">Developer Tools</text><rect x="137.3844" y="49" width="175.4356" height="18" rx="3" fill="#8250df" opacity="0.12"/><rect x="137.3844" y="49" width="98" height="18" rx="3" fill="#8250df" opacity="0.55"/><text x="240.3844" y="62" font-size="10" fill="#8250df" font-weight="700" font-family="system-ui,-apple-system,Segoe UI,Roboto,sans-serif">23</text><text x="4" y="90" font-size="11" fill="#8250df" font-family="system-ui,-apple-system,Segoe UI,Roboto,sans-serif">Cognitive<tspan x="4" dy="12">Architecture</tspan></text><rect x="137.3844" y="83" width="175.4356" height="18" rx="3" fill="#8250df" opacity="0.12"/><rect x="137.3844" y="83" width="72" height="18" rx="3" fill="#8250df" opacity="0.55"/><text x="214.3844" y="96" font-size="10" fill="#8250df" font-weight="700" font-family="system-ui,-apple-system,Segoe UI,Roboto,sans-serif">17</text><text x="4" y="130" font-size="11" fill="#8250df" font-family="system-ui,-apple-system,Segoe UI,Roboto,sans-serif">Cloud &amp; Azure</text><rect x="137.3844" y="117" width="175.4356" height="18" rx="3" fill="#8250df" opacity="0.12"/><rect x="137.3844" y="117" width="72" height="18" rx="3" fill="#8250df" opacity="0.55"/><text x="214.3844" y="130" font-size="10" fill="#8250df" font-weight="700" font-family="system-ui,-apple-system,Segoe UI,Roboto,sans-serif">17</text><text x="4" y="158" font-size="11" fill="#8250df" font-family="system-ui,-apple-system,Segoe UI,Roboto,sans-serif">Healthcare &amp;<tspan x="4" dy="12">Productivity</tspan></text><rect x="137.3844" y="151" width="175.4356" height="18" rx="3" fill="#8250df" opacity="0.12"/><rect x="137.3844" y="151" width="51" height="18" rx="3" fill="#8250df" opacity="0.55"/><text x="193.3844" y="164" font-size="10" fill="#8250df" font-weight="700" font-family="system-ui,-apple-system,Segoe UI,Roboto,sans-serif">12</text><text x="4" y="198" font-size="11" fill="#8250df" font-family="system-ui,-apple-system,Segoe UI,Roboto,sans-serif">Learning &amp; Research</text><rect x="137.3844" y="185" width="175.4356" height="18" rx="3" fill="#8250df" opacity="0.12"/><rect x="137.3844" y="185" width="43" height="18" rx="3" fill="#8250df" opacity="0.55"/><text x="185.3844" y="198" font-size="10" fill="#8250df" font-weight="700" font-family="system-ui,-apple-system,Segoe UI,Roboto,sans-serif">10</text>
</g>
</g>
<text x="410" y="935" text-anchor="middle" font-family="Segoe UI, system-ui, sans-serif" font-size="13"><tspan font-weight="700" fill="#1f2328" >105</tspan><tspan fill="#64748b" dx="4">repositories across 10 categories</tspan><tspan fill="#64748b" dx="6">·</tspan><tspan font-weight="700" fill="#1f2328" dx="6">70</tspan><tspan fill="#64748b" dx="4">actively maintained</tspan><tspan fill="#64748b" dx="6">·</tspan><tspan font-weight="700" fill="#1f2328" dx="6">15</tspan><tspan fill="#64748b" dx="4">flagships</tspan></text>
</svg>